<?xml version="1.0" standalone="no"?>
<!DOCTYPE svg PUBLIC "-//W3C//DTD SVG 1.1//EN" "http://www.w3.org/Graphics/SVG/1.1/DTD/svg11.dtd" >
<svg xmlns="http://www.w3.org/2000/svg" xmlns:xlink="http://www.w3.org/1999/xlink" version="1.1">
<metadata>
Created by FontForge 20201107 at Tue Jul 14 08:22:37 2020
 By 
Copyright (c) 2020 by Namela. All rights reserved.
</metadata>
<defs>
<font id="Madani-Oblique" horiz-adv-x="680" >
  <font-face 
    font-family="Madani-Oblique"
    font-weight="400"
    font-style="oblique"
    font-stretch="normal"
    units-per-em="1000"
    panose-1="0 0 5 0 0 0 0 0 0 0"
    ascent="775"
    descent="-225"
    x-height="550"
    cap-height="730"
    bbox="-340 -233 1159 1166"
    underline-thickness="50"
    underline-position="-75"
    slope="-10"
    unicode-range="U+0020-FB02"
  />
<missing-glyph horiz-adv-x="250" 
 />
    <glyph glyph-name="fi" unicode="fi" horiz-adv-x="537" 
d="M223 462l-81 -463l-97 2l81 461h-70l15 88h70l4 21q20 117 82.5 170.5t148.5 53.5q25 0 63 -10l-46 -88q-16 4 -31 4q-96 0 -120 -130l-4 -21h277l-97 -551l-97 1l81 462h-179zM476 606q-25 0 -40.5 18t-10.5 44t26 44t46 18t40 -18.5t10 -43.5q-5 -26 -25.5 -44
t-45.5 -18z" />
    <glyph glyph-name="fl" unicode="fl" horiz-adv-x="544" 
d="M223 462l-81 -463l-97 2l81 461h-70l15 88h70l4 21q20 116 90 170t161 54q76 0 158 -54l-130 -741h-98l121 682q-24 19 -73 19q-108 0 -132 -130l-4 -21h137l-15 -88h-137z" />
    <glyph glyph-name="f_f" unicode="ff" horiz-adv-x="642" 
d="M223 462l-81 -463l-97 2l81 461h-70l15 88h70l4 21q20 117 82.5 170.5t148.5 53.5q39 0 72 -12l-41 -87q-27 5 -39 5q-50 0 -81.5 -29.5t-44.5 -100.5l-4 -21h179l4 21q21 117 83.5 170.5t148.5 53.5q39 0 72 -12l-41 -87q-30 5 -39 5q-50 0 -82 -29.5t-44 -100.5l-4 -21
h142l-15 -88h-142l-82 -463l-97 2l81 461h-179z" />
    <glyph glyph-name="f_f_i" unicode="ffi" horiz-adv-x="813" 
d="M223 462l-81 -463l-97 2l81 461h-70l15 88h70l4 21q20 117 82.5 170.5t148.5 53.5q39 0 72 -12l-41 -87q-27 5 -39 5q-50 0 -81.5 -29.5t-44.5 -100.5l-4 -21h179l4 21q21 117 83.5 170.5t148.5 53.5q26 0 62 -10l-46 -88q-14 4 -30 4q-98 0 -120 -130l-4 -21h276
l-96 -550h-97l81 462h-179l-82 -463l-97 2l81 461h-179zM752 606q-25 0 -40.5 18t-10.5 44t26 44t46 18t40 -18.5t10 -43.5q-5 -26 -25.5 -44t-45.5 -18z" />
    <glyph glyph-name="f_f_j" unicode="ffj" horiz-adv-x="813" 
d="M464 -231q-44 0 -78 14l43 90q19 -8 39 -8q106 0 131 143l80 454h-179l-82 -463l-97 2l81 461h-179l-81 -463l-97 2l81 461h-70l15 88h70l4 21q20 117 82.5 170.5t148.5 53.5q39 0 72 -12l-41 -87q-27 5 -39 5q-50 0 -81.5 -29.5t-44.5 -100.5l-4 -21h179l4 21
q21 117 83.5 170.5t148.5 53.5q26 0 62 -10l-46 -88q-14 4 -30 4q-98 0 -120 -130l-4 -21h276l-95 -542q-22 -124 -84.5 -181.5t-147.5 -57.5zM752 606q-25 0 -40.5 18t-10.5 44t26 44t46 18t40 -18.5t10 -43.5q-5 -26 -25.5 -44t-45.5 -18z" />
    <glyph glyph-name="f_f_l" unicode="ffl" horiz-adv-x="820" 
d="M223 462l-81 -463l-97 2l81 461h-70l15 88h70l4 21q20 117 82.5 170.5t148.5 53.5q39 0 72 -12l-41 -87q-27 5 -39 5q-50 0 -81.5 -29.5t-44.5 -100.5l-4 -21h179l4 21q21 116 91 170t161 54q75 0 157 -54l-130 -741h-97l120 682q-25 19 -72 19q-110 0 -132 -130l-4 -21
h137l-15 -88h-137l-82 -463l-97 2l81 461h-179z" />
    <glyph glyph-name="f_j" unicode="fj" horiz-adv-x="537" 
d="M188 -231q-44 0 -78 14l43 90q19 -8 39 -8q106 0 131 143l79 454h-179l-81 -463l-97 2l81 461h-70l15 88h70l4 21q20 117 82.5 170.5t148.5 53.5q25 0 63 -10l-46 -88q-16 4 -31 4q-96 0 -120 -130l-4 -21h277l-95 -542q-22 -124 -84.5 -181.5t-147.5 -57.5zM476 606
q-25 0 -40.5 18t-10.5 44t26 44t46 18t40 -18.5t10 -43.5q-5 -26 -25.5 -44t-45.5 -18z" />
    <glyph glyph-name="t_t" unicode="tt" horiz-adv-x="697" 
d="M232 -9q-82 0 -124 52.5t-24 161.5l46 257h-74l15 88h77l44 180h82l-32 -180h208l44 180h82l-32 -180h132l-15 -88h-132l-45 -256q-10 -58 11.5 -89t68.5 -31q23 0 43 7l10 -87q-37 -15 -83 -15q-82 0 -124 52.5t-24 161.5l46 257h-205l-45 -256q-10 -58 11 -89t68 -31
q24 0 44 7l9 -87q-36 -15 -82 -15z" />
    <glyph glyph-name=".notdef" horiz-adv-x="250" 
 />
    <glyph glyph-name=".null" horiz-adv-x="0" 
 />
    <glyph glyph-name="uni000D" horiz-adv-x="333" 
 />
    <glyph glyph-name="space" unicode=" " horiz-adv-x="273" 
 />
    <glyph glyph-name="exclam" unicode="!" horiz-adv-x="250" 
d="M65 163l91 567h99l-108 -567h-82zM47 89q22 21 50 21q21 0 35 -14t14 -35q0 -28 -22 -50t-49 -22q-22 0 -36 14.5t-14 36.5q0 28 22 49z" />
    <glyph glyph-name="quotedbl" unicode="&#x22;" horiz-adv-x="341" 
d="M283 730h90l-48 -213h-69zM129 730h89l-48 -213h-68z" />
    <glyph glyph-name="numbersign" unicode="#" horiz-adv-x="756" 
d="M36 201l31 81h126l65 167h-127l32 80h124l47 124h83l-47 -124h173l46 124h84l-47 -124h127l-32 -80h-125l-64 -167h125l-31 -81h-125l-46 -123h-83l46 123h-172l-47 -123h-83l47 123h-127zM276 282h173l64 167h-173z" />
    <glyph glyph-name="dollar" unicode="$" horiz-adv-x="595" 
d="M74 165q61 -73 162 -84l47 267q-92 32 -138 74t-46 106q0 8 1 16q5 80 75 137t178 62l12 66h58l-12 -67q129 -15 191 -114l-78 -50q-43 65 -128 77l-41 -230q54 -18 89 -35.5t64 -44t37 -55t8 -52.5q0 -19 -4 -41q-16 -92 -90.5 -147t-179.5 -61l-12 -67h-58l12 70
q-136 13 -218 113zM409 111q47 31 56 84q2 12 2 22q0 36 -29.5 61t-99.5 50l-44 -251q68 3 115 34zM212 486q30 -22 88 -42l39 216q-68 -2 -113 -33t-45 -81q0 -38 31 -60z" />
    <glyph glyph-name="percent" unicode="%" horiz-adv-x="792" 
d="M415 138q0 98 57 170.5t145 72.5q62 0 96.5 -38.5t34.5 -104.5q0 -99 -56 -173.5t-144 -74.5q-63 0 -98 39.5t-35 108.5zM142 712q56 72 144 72q62 0 96.5 -39t34.5 -106q0 -98 -56.5 -172t-143.5 -74q-62 0 -97 39.5t-35 106.5q0 100 57 173zM110 0l541 781h73
l-541 -781h-73zM149 550q0 -47 22 -69.5t56 -22.5q59 0 92 53t33 120q0 45 -22 67t-57 22q-58 0 -91 -52.5t-33 -117.5zM503 78q22 -23 55 -23q58 0 91.5 53t33.5 119q0 47 -21.5 68.5t-56.5 21.5q-59 0 -91.5 -52.5t-32.5 -118.5q0 -46 22 -68z" />
    <glyph glyph-name="ampersand" unicode="&#x26;" horiz-adv-x="706" 
d="M32 187q6 75 53 122.5t128 83.5q-47 72 -47 139q0 7 1 15q7 90 78.5 144t169.5 54q87 0 135 -44.5t48 -107.5q0 -9 -1 -18q-3 -34 -19.5 -64t-36.5 -50t-56 -41.5t-60.5 -33t-66.5 -29.5l151 -193q39 36 58 82t19 88v8l95 22q-3 -168 -123 -274l65 -90h-123l-30 37
q-84 -46 -188 -46q-125 0 -188 50t-63 125q0 10 1 21zM173 109q47 -26 124 -26q68 0 122 31l-157 201q-63 -27 -97.5 -56t-36.5 -73v-6q0 -47 45 -71zM308 432q8 3 31 12t31.5 12.5t28 11.5t28 13t23 14t21 16.5t14.5 17.5t11.5 21t3.5 24v5q0 36 -29.5 56t-70.5 20
q-54 0 -93 -29t-41 -81v-4q0 -45 42 -109z" />
    <glyph glyph-name="quotesingle" unicode="'" horiz-adv-x="187" 
d="M170 517h-68l27 213h89z" />
    <glyph glyph-name="parenleft" unicode="(" horiz-adv-x="321" 
d="M50 189q0 169 67 333t182 258h95q-116 -91 -186 -256.5t-70 -332.5q0 -196 99 -301h-95q-92 102 -92 299z" />
    <glyph glyph-name="parenright" unicode=")" horiz-adv-x="322" 
d="M135 146q69 165 69 334q0 194 -98 300h95q92 -105 92 -302q0 -169 -67 -332t-182 -256h-96q118 91 187 256z" />
    <glyph glyph-name="asterisk" unicode="*" horiz-adv-x="405" 
d="M242 497l-101 -114l-45 38l103 112l-126 41l31 62l124 -45l22 139h66l-27 -139l140 44l9 -61l-140 -41l63 -112l-59 -38z" />
    <glyph glyph-name="plus" unicode="+" horiz-adv-x="533" 
d="M58 325l14 81h177l31 177h81l-31 -177h177l-14 -81h-178l-31 -177h-81l32 177h-177z" />
    <glyph glyph-name="comma" unicode="," horiz-adv-x="193" 
d="M35 -140h-68l70 244h89z" />
    <glyph glyph-name="hyphen" unicode="-" horiz-adv-x="440" 
d="M413 325h-368l15 81h367z" />
    <glyph glyph-name="period" unicode="." horiz-adv-x="185" 
d="M15 93q22 21 50 21q22 0 36 -14t14 -35q0 -28 -22 -50t-49 -22q-22 0 -37 14.5t-15 36.5q0 28 23 49z" />
    <glyph glyph-name="slash" unicode="/" horiz-adv-x="494" 
d="M50 -110h-96l512 891h95z" />
    <glyph glyph-name="zero" unicode="0" horiz-adv-x="674" 
d="M98 495q40 106 122 176t191 70q106 0 172 -75t66 -200q0 -91 -23 -175.5t-66 -153t-111.5 -109.5t-152.5 -41q-106 0 -172 75.5t-66 203.5q0 122 40 229zM198 133q39 -48 107 -48q75 0 132 59.5t84 143t27 170.5q0 91 -39 138t-106 47q-74 0 -131.5 -57.5t-85 -140.5
t-27.5 -171q0 -93 39 -141z" />
    <glyph glyph-name="one" unicode="1" horiz-adv-x="315" 
d="M162 0h-97l112 638h-80l16 92h177z" />
    <glyph glyph-name="two" unicode="2" horiz-adv-x="595" 
d="M-21 0l13 71l350 267q129 97 129 194q0 54 -34 84.5t-89 30.5t-102.5 -32t-72.5 -77l-85 32q37 75 113 124.5t160 49.5q93 0 151 -53.5t58 -143.5q0 -151 -165 -276l-244 -179h351l-15 -92h-518z" />
    <glyph glyph-name="three" unicode="3" horiz-adv-x="595" 
d="M96 175q12 -39 55.5 -65t99.5 -26q77 0 130.5 44t53.5 109q0 50 -41.5 79.5t-105.5 29.5h-36l16 91h38q62 0 110 34.5t49 87.5v2q0 40 -32.5 64.5t-85.5 24.5q-41 0 -78 -16t-58 -42l-84 36q37 53 99.5 85.5t130.5 32.5q90 0 149.5 -46.5t59.5 -122.5q0 -119 -135 -183
q47 -21 74.5 -63t27.5 -94q0 -109 -82 -180t-205 -71q-90 0 -157.5 42t-87.5 108z" />
    <glyph glyph-name="four" unicode="4" horiz-adv-x="573" 
d="M7 176l16 88l442 466h112l-80 -458h60l-17 -96h-60l-31 -176h-97l30 176h-375zM399 272l57 321l-319 -321h262z" />
    <glyph glyph-name="five" unicode="5" horiz-adv-x="588" 
d="M111 191q10 -45 48 -74t91 -29q80 0 138.5 56.5t60.5 133.5v6q0 56 -39 95t-101 39q-43 0 -86 -20.5t-72 -55.5h-97l95 388h455l-16 -92h-363l-46 -188q72 59 157 59q99 0 155.5 -62t56.5 -148q0 -11 -1 -23q-8 -119 -95.5 -202.5t-210.5 -83.5q-86 0 -150 46.5
t-79 120.5z" />
    <glyph glyph-name="six" unicode="6" horiz-adv-x="608" 
d="M121 415l302 316h122l-227 -233q22 4 43 4q72 0 139.5 -54.5t67.5 -157.5q0 -122 -90.5 -211t-214.5 -89q-98 0 -165 61t-67 153q0 121 90 211zM131 223q0 -58 39 -96.5t100 -38.5q78 0 138 57.5t60 133.5q0 58 -39.5 96.5t-101.5 38.5q-77 0 -136.5 -59t-59.5 -132z" />
    <glyph glyph-name="seven" unicode="7" horiz-adv-x="570" 
d="M179 0h-114l409 638h-395l16 92h516l-11 -65z" />
    <glyph glyph-name="eight" unicode="8" horiz-adv-x="627" 
d="M83 308q47 59 122 91q-32 19 -51 52t-19 72q0 96 76.5 160.5t181.5 64.5q84 0 141.5 -47.5t57.5 -119.5q0 -57 -34.5 -105t-91.5 -77q48 -23 75.5 -64.5t27.5 -92.5q0 -114 -88 -189.5t-217 -75.5q-103 0 -166 55.5t-63 141.5q0 75 48 134zM175 106q39 -33 104 -33
q77 0 133.5 47t56.5 114q0 50 -40 83.5t-101 33.5q-75 0 -133.5 -47.5t-58.5 -112.5q0 -52 39 -85zM264 470q31 -27 79 -27q60 0 105.5 37t45.5 87q0 40 -31.5 65t-81.5 25q-59 0 -103.5 -35.5t-44.5 -86.5q0 -39 31 -65z" />
    <glyph glyph-name="nine" unicode="9" horiz-adv-x="608" 
d="M163 653q89 88 218 88q98 0 163 -62t65 -155q0 -121 -89 -208l-302 -316h-123l227 233q-22 -4 -43 -4q-72 0 -139 54.5t-67 157.5q0 123 90 212zM173 452q0 -58 38.5 -96.5t99.5 -38.5q78 0 138.5 59t60.5 132q0 58 -39.5 96.5t-100.5 38.5q-81 0 -139 -57t-58 -134z" />
    <glyph glyph-name="colon" unicode=":" horiz-adv-x="226" 
d="M110 517q22 21 50 21q22 0 35.5 -14.5t13.5 -36.5q0 -27 -22 -48.5t-49 -21.5q-22 0 -36 14t-14 36q0 28 22 50zM39 113q22 21 50 21q21 0 35 -14.5t14 -35.5q0 -28 -22 -49.5t-49 -21.5q-22 0 -36 14.5t-14 35.5q0 28 22 50z" />
    <glyph glyph-name="semicolon" unicode=";" horiz-adv-x="225" 
d="M-25 -140l71 244h89l-91 -244h-69zM92 469q0 28 22 49t50 21q21 0 35 -14t14 -36q0 -28 -21.5 -49.5t-48.5 -21.5q-22 0 -36.5 14.5t-14.5 36.5z" />
    <glyph glyph-name="less" unicode="&#x3c;" horiz-adv-x="561" 
d="M502 212l-16 -88l-428 202l15 88l499 202l-15 -88l-390 -158z" />
    <glyph glyph-name="equal" unicode="=" horiz-adv-x="573" 
d="M529 418h-435l14 80h435zM495 223h-436l15 81h435z" />
    <glyph glyph-name="greater" unicode="&#x3e;" horiz-adv-x="561" 
d="M522 326l-500 -202l16 88l390 158l-334 158l15 88l428 -202z" />
    <glyph glyph-name="question" unicode="?" horiz-adv-x="561" 
d="M208 696q70 48 149 48q90 0 146 -50t56 -131q0 -57 -25 -106.5t-59.5 -83t-92.5 -75.5q-70 -50 -80 -112l-6 -32h-99l8 41q16 95 112 163q73 51 107 93.5t34 95.5q0 44 -30.5 71.5t-80.5 27.5q-51 0 -94.5 -31t-67.5 -77l-84 35q37 75 107 123zM168 40q0 28 22 49t50 21
q22 0 36 -14t14 -35q0 -28 -22 -50t-49 -22q-22 0 -36.5 14.5t-14.5 36.5z" />
    <glyph glyph-name="at" unicode="@" horiz-adv-x="833" 
d="M111 523q59 101 160.5 159.5t221.5 58.5q145 0 234 -88.5t89 -222.5q0 -111 -59.5 -199.5t-147.5 -88.5q-45 0 -70 27.5t-27 74.5q-56 -59 -131 -59q-65 0 -108 46t-43 111q0 83 62 145t145 62q38 0 70 -15.5t48 -41.5l12 56h56l-47 -267q-1 -12 -1 -23q0 -61 50 -61h2
q57 0 97 70t40 155q0 116 -74.5 192.5t-198.5 76.5q-160 0 -274.5 -112.5t-114.5 -270.5q0 -117 77.5 -193.5t196.5 -76.5q48 0 96 14l5 -49q-52 -16 -110 -16q-138 0 -227 90.5t-89 224.5q0 119 60 221zM322 279q27 -28 69 -28q53 0 95 41.5t42 94.5q0 41 -27 68t-69 27
q-53 0 -95 -41t-42 -94q0 -41 27 -68z" />
    <glyph glyph-name="A" unicode="A" horiz-adv-x="676" 
d="M362 730h112l139 -730h-110l-37 190h-281l-102 -190h-116zM232 287h221l-57 304z" />
    <glyph glyph-name="B" unicode="B" horiz-adv-x="651" 
d="M162 730h259q101 0 149 -47t48 -109q0 -16 -3 -33q-18 -99 -114 -150q57 -20 80.5 -60.5t23.5 -82.5q0 -18 -4 -38q-16 -92 -91 -151t-180 -59h-296zM341 100q62 0 104 32.5t51 84.5q2 12 2 24q0 35 -27 63.5t-82 28.5h-194l-41 -233h187zM211 424l163 1q53 1 91 29.5
t46 72.5q2 11 2 22q0 32 -24 59t-84 27h-157z" />
    <glyph glyph-name="C" unicode="C" horiz-adv-x="775" 
d="M191 612q128 128 308 128q91 0 163 -38.5t115 -106.5l-94 -61q-29 47 -79.5 74t-112.5 27q-127 0 -225 -96.5t-98 -220.5q0 -97 64.5 -160.5t163.5 -63.5q64 0 125 28t106 77l89 -61q-62 -70 -147 -110t-181 -40q-143 0 -234.5 91.5t-91.5 228.5q0 175 129 304z" />
    <glyph glyph-name="D" unicode="D" horiz-adv-x="742" 
d="M34 0l128 730h217q149 0 241 -87.5t92 -218.5q0 -179 -129 -301.5t-317 -122.5h-232zM154 102h121q137 0 233 91.5t96 220.5q0 93 -63.5 154t-172.5 61h-121z" />
    <glyph glyph-name="E" unicode="E" horiz-adv-x="591" 
d="M495 0h-461l128 730h451l-17 -95h-349l-37 -213h328l-16 -95h-328l-41 -227h359z" />
    <glyph glyph-name="F" unicode="F" horiz-adv-x="593" 
d="M136 0h-102l128 730h471l-18 -99h-368l-38 -214h349l-18 -99h-348z" />
    <glyph glyph-name="G" unicode="G" horiz-adv-x="841" 
d="M191 614q128 126 308 126q91 0 166.5 -39.5t115.5 -106.5l-100 -56q-30 45 -79.5 71t-110.5 26q-127 0 -225 -96.5t-98 -220.5q0 -97 64.5 -160.5t163.5 -63.5q105 0 183.5 62.5t104.5 164.5h-273l17 95h385q0 -27 -4 -51q-30 -169 -144 -273t-278 -104q-139 0 -232 92.5
t-93 228.5q0 178 129 305z" />
    <glyph glyph-name="H" unicode="H" horiz-adv-x="732" 
d="M162 730h103l-56 -315h363l55 315h103l-128 -730h-103l54 312h-362l-54 -312h-103z" />
    <glyph glyph-name="I" unicode="I" horiz-adv-x="266" 
d="M137 0h-103l128 730h103z" />
    <glyph glyph-name="J" unicode="J" horiz-adv-x="506" 
d="M-12 69l87 64q34 -39 88 -39q63 0 107.5 43t57.5 115l84 478h103l-84 -478q-21 -119 -99.5 -189.5t-184.5 -70.5q-104 0 -159 77z" />
    <glyph glyph-name="K" unicode="K" horiz-adv-x="656" 
d="M162 730h103l-62 -352l371 352h119l-309 -301l206 -429h-121l-166 336l-128 -116l-38 -220h-103z" />
    <glyph glyph-name="L" unicode="L" horiz-adv-x="575" 
d="M505 0h-471l128 730h103l-111 -627h368z" />
    <glyph glyph-name="M" unicode="M" horiz-adv-x="933" 
d="M162 730h108l194 -470l359 470h109l-128 -730h-103l98 558l-328 -429h-61l-175 429l-98 -558h-103z" />
    <glyph glyph-name="N" unicode="N" horiz-adv-x="778" 
d="M162 730h103l312 -549l96 549h104l-128 -730h-104l-312 550l-96 -550h-103z" />
    <glyph glyph-name="O" unicode="O" horiz-adv-x="854" 
d="M118 523q55 98 156 157.5t225 59.5q143 0 234.5 -91.5t91.5 -227.5q0 -177 -125 -305t-312 -128q-143 0 -234.5 91.5t-91.5 228.5q0 116 56 215zM233 158q64 -64 163 -64q133 0 227 95.5t94 223.5q0 95 -64 158.5t-162 63.5q-134 0 -228.5 -95.5t-94.5 -221.5
q0 -97 65 -160z" />
    <glyph glyph-name="P" unicode="P" horiz-adv-x="639" 
d="M162 730h262q116 0 170 -59t54 -129q0 -20 -4 -41q-17 -98 -95 -164t-187 -66h-178l-47 -271h-103zM202 372h167q64 0 112 37.5t58 91.5q2 12 2 23q0 39 -29 72t-97 33h-168z" />
    <glyph glyph-name="Q" unicode="Q" horiz-adv-x="859" 
d="M118 523q55 98 156 157.5t225 59.5q143 0 234.5 -91.5t91.5 -227.5q0 -91 -36.5 -173t-101.5 -143l52 -74l-75 -58l-52 77q-100 -62 -224 -62q-143 0 -234.5 91.5t-91.5 228.5q0 116 56 215zM233 158q64 -64 163 -64q88 0 158 47l-63 93l69 51l62 -89q95 89 95 217
q0 95 -64 158.5t-162 63.5q-134 0 -228.5 -95.5t-94.5 -221.5q0 -97 65 -160z" />
    <glyph glyph-name="R" unicode="R" horiz-adv-x="641" 
d="M162 730h270q112 0 164 -58.5t52 -128.5q0 -20 -4 -42q-14 -77 -70 -135.5t-134 -76.5l129 -289h-120l-119 271h-146l-47 -271h-103zM202 372h172q64 0 109.5 37.5t55.5 91.5q2 11 2 22q0 39 -29 72.5t-93 33.5h-172z" />
    <glyph glyph-name="S" unicode="S" horiz-adv-x="610" 
d="M92 170q70 -85 191 -86q73 0 119 33.5t46 92.5q0 41 -35.5 69.5t-86 48t-100.5 41.5t-85.5 63t-35.5 99q0 97 72.5 154t187.5 57q68 0 136 -29.5t102 -88.5l-82 -57q-20 36 -65 57.5t-94 22.5h-5q-66 0 -107.5 -28.5t-41.5 -74.5q0 -35 35.5 -60.5t86 -44t101 -41t86 -66
t35.5 -105.5q0 -112 -77 -175t-197 -63h-4q-76 0 -145 28t-113 87z" />
    <glyph glyph-name="T" unicode="T" horiz-adv-x="594" 
d="M103 730h549l-18 -99h-222l-111 -631h-103l110 631h-223z" />
    <glyph glyph-name="U" unicode="U" horiz-adv-x="708" 
d="M72 278l80 452h103l-80 -451q-4 -24 -4 -45q0 -57 35.5 -99t113.5 -42t138 48.5t76 137.5l79 451h104l-80 -452q-23 -132 -112 -210.5t-212 -78.5q-124 0 -185.5 69.5t-61.5 158.5q0 29 6 61z" />
    <glyph glyph-name="V" unicode="V" horiz-adv-x="663" 
d="M202 730l109 -577l311 577h113l-399 -730h-104l-143 730h113z" />
    <glyph glyph-name="W" unicode="W" horiz-adv-x="1018" 
d="M99 730h108l72 -554l264 555h93l67 -555l268 554h108l-350 -730h-105l-65 555l-260 -555h-106z" />
    <glyph glyph-name="X" unicode="X" horiz-adv-x="685" 
d="M292 373l-179 357h121l142 -268l235 268h121l-305 -357l187 -373h-121l-149 284l-248 -284h-122z" />
    <glyph glyph-name="Y" unicode="Y" horiz-adv-x="648" 
d="M93 730h118l140 -299l246 299h118l-333 -420l-55 -310h-103l55 311z" />
    <glyph glyph-name="Z" unicode="Z" horiz-adv-x="641" 
d="M551 0h-557l18 102l501 527h-398l18 101h536l-18 -101l-501 -527h418z" />
    <glyph glyph-name="bracketleft" unicode="[" horiz-adv-x="312" 
d="M228 -110h-217l157 890h217l-14 -80h-129l-129 -730h130z" />
    <glyph glyph-name="backslash" unicode="\" horiz-adv-x="508" 
d="M411 -110h-95l-197 891h95z" />
    <glyph glyph-name="bracketright" unicode="]" horiz-adv-x="312" 
d="M166 -110h-218l14 80h130l128 730h-129l15 80h217z" />
    <glyph glyph-name="asciicircum" unicode="^" horiz-adv-x="478" 
d="M278 730h82l122 -315h-92l-86 228l-167 -228h-92z" />
    <glyph glyph-name="underscore" unicode="_" horiz-adv-x="535" 
d="M439 0h-438l14 81h436z" />
    <glyph glyph-name="grave" unicode="`" horiz-adv-x="246" 
d="M249 570h-64l-56 160h89z" />
    <glyph glyph-name="a" unicode="a" 
d="M130 460q93 98 222 98q67 0 120.5 -35.5t69.5 -88.5l25 116h90l-96 -550h-90l15 115q-35 -53 -96.5 -87.5t-127.5 -34.5q-97 0 -161.5 69.5t-64.5 170.5q0 129 94 227zM181 134q43 -44 111 -44q87 0 154.5 66t67.5 152q0 66 -44 110t-112 44q-86 0 -153.5 -67t-67.5 -152
q0 -66 44 -109z" />
    <glyph glyph-name="b" unicode="b" 
d="M24 0l137 780h97l-60 -343q35 53 95 87t125 34q100 0 163 -69t63 -173q0 -134 -92.5 -228.5t-227.5 -94.5q-65 0 -117.5 35t-67.5 87l-25 -115h-90zM210 134q44 -44 113 -44q90 0 155.5 64t65.5 154q0 66 -43.5 110t-111.5 44q-87 0 -155 -66.5t-68 -152.5q0 -66 44 -109
z" />
    <glyph glyph-name="c" unicode="c" horiz-adv-x="599" 
d="M133 463q96 94 231 94q69 0 126.5 -33t88.5 -88l-89 -53q-42 75 -134 75q-86 0 -152.5 -65t-66.5 -150q0 -65 43 -108t111 -43q98 0 165 80l77 -59q-46 -56 -110.5 -88.5t-138.5 -32.5q-104 0 -175.5 71t-71.5 173q0 133 96 227z" />
    <glyph glyph-name="d" unicode="d" 
d="M129 461q92 97 223 97q66 0 119 -34.5t69 -86.5l60 343h98l-137 -780h-90l15 115q-36 -54 -95.5 -88t-128.5 -34q-97 0 -161.5 69.5t-64.5 170.5q0 130 93 228zM181 134q43 -44 111 -44q91 0 156.5 65.5t65.5 152.5q0 66 -44 110t-112 44q-89 0 -155 -66.5t-66 -152.5
q0 -66 44 -109z" />
    <glyph glyph-name="e" unicode="e" horiz-adv-x="637" 
d="M131 462q93 95 229 95q115 0 178.5 -68t63.5 -160q0 -17 -2 -35q-1 -21 -11 -61h-450v-3q0 -64 45.5 -105t112.5 -41q105 0 174 72l70 -52q-104 -112 -248 -112q-110 0 -183 70.5t-73 173.5q0 131 94 226zM150 308h353q1 12 1 23q0 55 -36.5 96t-109.5 41q-75 0 -133 -45
t-75 -115z" />
    <glyph glyph-name="f" unicode="f" horiz-adv-x="369" 
d="M49 1l81 461h-70l15 88h70l4 21q20 117 82.5 170.5t148.5 53.5q39 0 72 -12l-41 -87q-27 5 -39 5q-50 0 -81.5 -29.5t-44.5 -100.5l-4 -21h142l-15 -88h-142l-82 -463z" />
    <glyph glyph-name="g" unicode="g" 
d="M84 -65q23 -34 65 -52.5t90 -18.5q86 0 151.5 53.5t84.5 155.5l8 39q-36 -53 -95 -86t-126 -33q-99 0 -162.5 70t-63.5 170q0 131 92 228t224 97q67 0 120.5 -35.5t69.5 -88.5l25 116h90l-82 -464q-27 -157 -116.5 -236.5t-229.5 -79.5q-71 0 -133.5 30t-92.5 80z
M137 243q0 -66 43.5 -109.5t111.5 -43.5q87 0 154.5 66t67.5 152q0 66 -44 110t-112 44q-89 0 -155 -66.5t-66 -152.5z" />
    <glyph glyph-name="h" unicode="h" horiz-adv-x="624" 
d="M161 780h97l-57 -325q72 103 186 103q99 0 143 -60t44 -139q0 -36 -8 -79l-49 -280h-98l49 280q5 28 5 53q0 51 -28.5 90t-93.5 39q-64 0 -114.5 -46t-66.5 -136l-49 -280h-97z" />
    <glyph glyph-name="i" unicode="i" horiz-adv-x="241" 
d="M24 0l96 550h97l-96 -550h-97zM128 658q0 28 22.5 50t50.5 22q22 0 36.5 -14.5t14.5 -35.5q0 -29 -22.5 -51.5t-49.5 -22.5q-22 0 -37 15t-15 37z" />
    <glyph glyph-name="j" unicode="j" horiz-adv-x="268" 
d="M-161 -217l42 90q19 -8 40 -8q106 0 131 143l95 542h97l-95 -542q-22 -124 -84 -181.5t-149 -57.5q-43 0 -77 14zM178 708q22 22 50 22q22 0 36.5 -14.5t14.5 -35.5q0 -29 -22.5 -51.5t-49.5 -22.5q-23 0 -37.5 14.5t-14.5 37.5q0 28 23 50z" />
    <glyph glyph-name="k" unicode="k" horiz-adv-x="577" 
d="M161 780h93l-84 -476l289 246h116l-248 -219l180 -331h-115l-141 258l-104 -86l-30 -172h-93z" />
    <glyph glyph-name="l" unicode="l" horiz-adv-x="240" 
d="M121 0h-97l137 780h97z" />
    <glyph glyph-name="m" unicode="m" horiz-adv-x="909" 
d="M120 550h90l-10 -91q29 47 72 73t90 26q63 0 103 -33t49 -84q28 52 73.5 84.5t102.5 32.5q94 0 132 -54t38 -127q0 -38 -8 -85l-51 -292h-98l51 292q6 33 6 60q0 43 -21.5 76.5t-75.5 33.5q-51 0 -93.5 -41t-57.5 -129l-51 -292h-98l51 292q6 33 6 60q0 43 -21.5 76.5
t-74.5 33.5q-52 0 -95 -46t-59 -136l-49 -280h-97z" />
    <glyph glyph-name="n" unicode="n" horiz-adv-x="624" 
d="M120 550h90l-12 -97q72 105 189 105q99 0 143 -60t44 -139q0 -36 -8 -79l-49 -280h-98l49 280q5 28 5 53q0 51 -28.5 90t-93.5 39q-64 0 -114.5 -46t-66.5 -136l-49 -280h-97z" />
    <glyph glyph-name="o" unicode="o" horiz-adv-x="646" 
d="M132 462q94 95 235 95q105 0 174 -70t69 -172q0 -130 -95 -226.5t-235 -96.5q-107 0 -175 70t-68 174q0 131 95 226zM180 135q43 -43 111 -43q91 0 154.5 64.5t63.5 150.5q0 65 -43 108t-110 43q-93 0 -156 -64t-63 -151q0 -65 43 -108z" />
    <glyph glyph-name="p" unicode="p" horiz-adv-x="677" 
d="M-19 -220l135 770h90l-14 -114q35 53 96 87t128 34q97 0 161 -68t64 -171q0 -132 -89.5 -229t-218.5 -97q-66 0 -123 35t-73 86l-58 -333h-98zM163 243q0 -66 44 -110t112 -44q89 0 155 66t66 153q0 66 -43.5 109.5t-111.5 43.5q-87 0 -154.5 -66t-67.5 -152z" />
    <glyph glyph-name="q" unicode="q" horiz-adv-x="689" 
d="M41 234q0 133 93.5 228t225.5 95q66 0 118 -34.5t67 -86.5l26 114h90l-135 -770h-98l58 333q-35 -54 -91.5 -87.5t-124.5 -33.5q-102 0 -165.5 70.5t-63.5 171.5zM185 133q43 -44 111 -44q90 0 156 67t66 154q0 66 -44 108.5t-113 42.5q-89 0 -154.5 -66t-65.5 -152
q0 -66 44 -110z" />
    <glyph glyph-name="r" unicode="r" horiz-adv-x="405" 
d="M24 0l96 550h90l-9 -90q63 93 190 93q21 0 41 -3l-37 -94q-5 1 -19 1q-77 0 -134.5 -48.5t-76.5 -154.5l-44 -254h-97z" />
    <glyph glyph-name="s" unicode="s" horiz-adv-x="556" 
d="M88 149q21 -30 70 -48.5t102 -18.5q58 0 94.5 21t36.5 60q0 23 -22.5 39.5t-57 25t-74 21.5t-74 27.5t-57 43.5t-22.5 69q0 80 61.5 125t163.5 45q64 0 124.5 -21t93.5 -70l-71 -59q-20 32 -64 47t-89 15q-54 0 -87 -17.5t-33 -51.5q0 -24 31.5 -40.5t77 -28t91 -27
t77 -48t31.5 -81.5q0 -90 -67.5 -138.5t-172.5 -48.5q-68 0 -136.5 24t-103.5 72z" />
    <glyph glyph-name="t" unicode="t" horiz-adv-x="394" 
d="M71 550h77l44 180h82l-32 -180h132l-15 -88h-132l-45 -256q-3 -19 -3 -36q0 -84 82 -84q24 0 44 7l9 -87q-36 -15 -82 -15q-92 0 -123 49.5t-31 105.5q0 28 6 59l46 257h-74z" />
    <glyph glyph-name="u" unicode="u" horiz-adv-x="634" 
d="M63 271l49 279h98l-49 -279q-5 -29 -5 -53q0 -52 28.5 -90.5t92.5 -38.5q65 0 115.5 46t66.5 136l49 279h97l-96 -550h-90l11 98q-73 -106 -189 -106q-95 0 -140 61t-45 142q0 35 7 76z" />
    <glyph glyph-name="v" unicode="v" horiz-adv-x="554" 
d="M166 550l89 -404l230 404h105l-312 -550h-97l-120 550h105z" />
    <glyph glyph-name="w" unicode="w" horiz-adv-x="883" 
d="M66 550h104l66 -400l204 400h99l63 -400l208 400h104l-289 -550h-96l-66 395l-204 -395h-97z" />
    <glyph glyph-name="x" unicode="x" horiz-adv-x="595" 
d="M231 275l-160 275h117l124 -200l192 200h117l-256 -275l160 -275h-117l-123 201l-193 -201h-118z" />
    <glyph glyph-name="y" unicode="y" horiz-adv-x="564" 
d="M-28 -119q32 -14 66 -14q80 0 160 144l-126 539h105l89 -407l230 407h104l-306 -550q-68 -121 -129.5 -173.5t-138.5 -52.5q-54 0 -99 20z" />
    <glyph glyph-name="z" unicode="z" horiz-adv-x="572" 
d="M473 0h-470l12 73l392 389h-323l15 88h456l-12 -77l-384 -381h330z" />
    <glyph glyph-name="braceleft" unicode="{" horiz-adv-x="336" 
d="M71 376q38 0 68.5 21.5t38.5 70.5l26 146q13 74 64.5 120t136.5 46l-14 -80q-46 0 -68.5 -19.5t-29.5 -65.5l-27 -147q-13 -87 -84 -132q41 -35 41 -97q0 -16 -3 -35l-26 -148q-3 -17 -3 -30q0 -25 12 -40.5t59 -15.5l-14 -80q-146 0 -146 123q0 20 4 43l26 147
q2 12 2 23q0 27 -17.5 48t-60.5 21z" />
    <glyph glyph-name="bar" unicode="|" horiz-adv-x="238" 
d="M73 -220h-82l168 950h81z" />
    <glyph glyph-name="braceright" unicode="}" horiz-adv-x="336" 
d="M-41 -110l14 80q46 0 68.5 19.5t30.5 66.5l26 148q16 87 86 132q-42 34 -42 95q0 18 3 37l26 147q3 17 3 30q0 24 -12 39.5t-59 15.5l14 80q146 0 146 -123q0 -20 -4 -43l-26 -146q-3 -12 -3 -23q0 -26 18 -47.5t61 -21.5l-15 -81q-37 0 -68 -21.5t-40 -70.5l-26 -147
q-13 -74 -64 -120t-137 -46z" />
    <glyph glyph-name="asciitilde" unicode="~" horiz-adv-x="523" 
d="M103 444q40 30 88 30h4q35 0 67 -18.5t61.5 -37.5t57.5 -19q57 0 87 65l63 -29q-28 -58 -70 -87t-88 -29q-44 0 -99.5 37.5t-88.5 37.5q-57 0 -87 -65l-63 29q27 55 68 86z" />
    <glyph glyph-name="exclamdown" unicode="&#xa1;" horiz-adv-x="250" 
d="M-12 -221l116 609h82l-98 -609h-100zM104 490q0 28 22 49.5t50 21.5q22 0 36 -14t14 -36q0 -28 -22 -49.5t-49 -21.5q-22 0 -36.5 14.5t-14.5 35.5z" />
    <glyph glyph-name="cent" unicode="&#xa2;" horiz-adv-x="598" 
d="M140 546q86 92 210 103l14 81h62l-14 -82q61 -7 109.5 -38t74.5 -81l-75 -43q-39 71 -124 79l-68 -392q90 8 154 82l66 -47q-94 -115 -236 -121l-15 -87h-62l16 92q-88 16 -143 82t-55 156q0 123 86 216zM137 334q0 -60 36 -103.5t94 -53.5l68 383q-81 -13 -139.5 -79
t-58.5 -147z" />
    <glyph glyph-name="sterling" unicode="&#xa3;" horiz-adv-x="633" 
d="M1 0l16 92h85l38 212h-67l13 73h67l13 74q24 140 102.5 214.5t179.5 74.5q61 0 108 -31.5t69 -84.5l-89 -51q-13 32 -40.5 51t-62.5 19q-60 0 -106 -47.5t-64 -144.5l-12 -74h206l-13 -73h-207l-37 -212h352l-16 -92h-535z" />
    <glyph glyph-name="currency" unicode="&#xa4;" horiz-adv-x="589" 
d="M116 232q-21 37 -21 82q0 18 3 36q12 64 60 117l-59 71l63 53l58 -70q61 37 124 37q67 0 111 -38l84 71l44 -53l-83 -71q20 -42 20 -91v-5q-3 -77 -61 -140l58 -70l-63 -54l-58 71q-62 -39 -125 -39q-65 0 -111 39l-83 -71l-44 54zM196 251q31 -39 87 -39q63 0 113 48.5
t50 112.5q0 47 -32.5 79.5t-82.5 32.5q-58 0 -104.5 -41.5t-54.5 -99.5q-2 -11 -2 -21q0 -42 26 -72z" />
    <glyph glyph-name="yen" unicode="&#xa5;" horiz-adv-x="656" 
d="M57 158l13 73h206l14 86h-205l13 73h165l-170 340h109l152 -313l261 313h109l-290 -340h169l-13 -73h-209l-15 -86h209l-12 -73h-210l-27 -158h-91l27 158h-205z" />
    <glyph glyph-name="brokenbar" unicode="&#xa6;" horiz-adv-x="222" 
d="M174 398h-81l67 382h81zM65 -220h-82l68 382h81z" />
    <glyph glyph-name="section" unicode="&#xa7;" horiz-adv-x="476" 
d="M89 132q16 -26 48 -43.5t70 -17.5q50 0 80 23.5t30 57.5q0 26 -26 45t-63 31.5t-74.5 27t-63.5 42t-26 66.5q0 89 97 127q-52 33 -52 87q0 74 55.5 121t136.5 47q56 0 106 -24.5t75 -70.5l-68 -43q-15 25 -46 43t-70 18q-45 0 -75.5 -21.5t-30.5 -57.5q0 -26 26 -44
t63.5 -30t75 -27t63.5 -43t26 -68q0 -90 -98 -127q53 -34 53 -89q0 -77 -58.5 -124.5t-144.5 -47.5q-57 0 -106 25t-75 71zM147 376q0 -31 43.5 -54.5t82.5 -23.5q35 0 61.5 18.5t26.5 49.5q0 30 -39.5 51.5t-85.5 25.5h-4q-32 0 -58.5 -17.5t-26.5 -49.5z" />
    <glyph glyph-name="dieresis" unicode="&#xa8;" horiz-adv-x="339" 
d="M104 679q19 18 43 18q19 0 31.5 -12t12.5 -31q0 -25 -19 -43.5t-43 -18.5q-19 0 -31.5 12.5t-12.5 30.5q0 25 19 44zM298 679q19 18 43 18q19 0 31.5 -12t12.5 -31q0 -25 -19 -43.5t-43 -18.5q-19 0 -31.5 12.5t-12.5 30.5q0 25 19 44z" />
    <glyph glyph-name="copyright" unicode="&#xa9;" horiz-adv-x="835" 
d="M111 526q59 100 161.5 157.5t222.5 57.5q138 0 229.5 -92t91.5 -225q0 -180 -130.5 -308.5t-313.5 -128.5q-138 0 -229.5 92.5t-91.5 226.5q0 119 60 220zM102 308q0 -116 77.5 -194t196.5 -78q158 0 273.5 114t115.5 271q0 116 -77.5 193.5t-195.5 77.5
q-158 0 -274 -113t-116 -271zM225 332q0 95 74 166.5t170 71.5q50 0 90 -22t61 -61l-56 -39q-34 57 -105 57q-65 0 -116 -50t-51 -115q0 -50 33.5 -83t84.5 -33q72 0 126 60l46 -40q-80 -85 -181 -85q-76 0 -126 49.5t-50 123.5z" />
    <glyph glyph-name="ordfeminine" unicode="&#xaa;" horiz-adv-x="362" 
d="M70 485q8 49 50 80.5t99 31.5h90q2 11 2 20q0 24 -15.5 42.5t-53.5 18.5q-42 0 -88 -30l-39 34q62 57 146 57q62 0 89 -35t27 -81q0 -19 -4 -41l-36 -203h-58l3 42q-41 -48 -109 -48q-50 0 -77.5 28.5t-27.5 62.5q0 10 2 21zM149 446q17 -17 45 -17q36 0 64 18.5t33 45.5
l9 53h-80q-33 0 -56 -15.5t-28 -42.5q-1 -5 -1 -10q0 -19 14 -32z" />
    <glyph glyph-name="guillemotleft" unicode="&#xab;" horiz-adv-x="421" 
d="M194 537h76l-129 -172l68 -172h-76l-68 172zM214 365l129 172h75l-128 -172l68 -172h-76z" />
    <glyph glyph-name="logicalnot" unicode="&#xac;" horiz-adv-x="533" 
d="M469 185h-81l25 140h-355l14 81h435z" />
    <glyph glyph-name="registered" unicode="&#xae;" horiz-adv-x="835" 
d="M111 526q59 100 161.5 157.5t222.5 57.5q138 0 229.5 -92t91.5 -225q0 -180 -130.5 -308.5t-313.5 -128.5q-138 0 -229.5 92.5t-91.5 226.5q0 119 60 220zM180 114q77 -78 196 -78q158 0 273.5 114t115.5 271q0 116 -77.5 193.5t-195.5 77.5q-158 0 -274 -113t-116 -271
q0 -116 78 -194zM339 555h125q55 0 88 -28.5t33 -75.5q0 -50 -32.5 -88.5t-81.5 -50.5l77 -137h-73l-66 126h-55l-22 -126h-60zM432 360q44 0 67 24.5t25 52.5v3q0 24 -19 39.5t-48 15.5h-68l-25 -135h68z" />
    <glyph glyph-name="macron" unicode="&#xaf;" horiz-adv-x="470" 
d="M479 623h-365l14 81h365z" />
    <glyph glyph-name="degree" unicode="&#xb0;" horiz-adv-x="285" 
d="M133 748q44 43 101 43q45 0 74 -29t29 -73q0 -56 -45 -99.5t-101 -43.5q-45 0 -74 29t-29 72q0 57 45 101zM162 619q15 -15 39 -15q31 0 53.5 22.5t22.5 53.5q0 23 -14.5 38t-38.5 15q-32 0 -54.5 -22.5t-22.5 -54.5q0 -23 15 -37z" />
    <glyph glyph-name="plusminus" unicode="&#xb1;" horiz-adv-x="533" 
d="M86 485h176l32 177h80l-31 -177h178l-14 -81h-178l-31 -177h-81l32 177h-177zM14 78l15 81h435l-15 -81h-435z" />
    <glyph glyph-name="twosuperior" unicode="&#xb2;" horiz-adv-x="356" 
d="M48 406l8 48l206 163q66 52 66 106q0 29 -18 49t-53 20q-31 0 -57 -20t-37 -43l-52 19q21 47 62.5 77t90.5 30q54 0 91 -34.5t37 -88.5q0 -86 -94 -158l-137 -106h195l-11 -62h-297z" />
    <glyph glyph-name="threesuperior" unicode="&#xb3;" horiz-adv-x="357" 
d="M124 513q7 -21 30 -34.5t53 -13.5q41 0 69.5 24t28.5 60q0 28 -21.5 46.5t-54.5 18.5h-23l11 61h23q32 0 57.5 22t25.5 51q0 23 -18 35.5t-43 12.5q-45 0 -74 -36l-50 26q22 32 57 51.5t74 19.5q50 0 85 -28t35 -75q0 -69 -72 -108q53 -30 53 -92q0 -68 -48.5 -110
t-118.5 -42q-52 0 -91 24.5t-50 63.5z" />
    <glyph glyph-name="acute" unicode="&#xb4;" horiz-adv-x="213" 
d="M148 570h-63l86 160h90z" />
    <glyph glyph-name="uni00B5" unicode="&#xb5;" horiz-adv-x="632" 
d="M-17 -220l136 770h97l-49 -282q-5 -30 -5 -55q0 -51 27.5 -90.5t95.5 -39.5q65 0 116.5 47.5t67.5 137.5l49 282h97l-96 -550h-97l14 80q-76 -93 -188 -93q-92 0 -116 77l-51 -284h-98z" />
    <glyph glyph-name="paragraph" unicode="&#xb6;" horiz-adv-x="600" 
d="M83 526q19 105 100 179.5t177 74.5h258l-161 -911h-51l152 861h-99l-152 -861h-51l71 403h-57q-99 0 -145.5 67t-46.5 136q0 25 5 51z" />
    <glyph glyph-name="periodcentered" unicode="&#xb7;" horiz-adv-x="192" 
d="M71 407q23 22 53 22q23 0 37.5 -14.5t14.5 -37.5q0 -30 -22.5 -52.5t-52.5 -22.5q-24 0 -38.5 15t-14.5 38q0 30 23 52z" />
    <glyph glyph-name="cedilla" unicode="&#xb8;" horiz-adv-x="243" 
d="M-30 -141q18 -18 61 -18q26 0 41 12t16 30q0 30 -53 30h-36l42 87h66l-24 -47q34 -4 52 -23t18 -46q0 -45 -35.5 -74.5t-87.5 -29.5q-65 0 -93 24z" />
    <glyph glyph-name="onesuperior" unicode="&#xb9;" horiz-adv-x="177" 
d="M148 407h-63l67 381h-45l11 62h108z" />
    <glyph glyph-name="ordmasculine" unicode="&#xba;" horiz-adv-x="440" 
d="M144 677q63 62 152 62q69 0 116 -46.5t47 -113.5q0 -86 -63.5 -149t-152.5 -63q-70 0 -116 46.5t-46 114.5q0 86 63 149zM177 462q27 -28 71 -28q57 0 99.5 42.5t42.5 97.5q0 42 -28 70t-72 28q-57 0 -99 -42t-42 -98q0 -42 28 -70z" />
    <glyph glyph-name="guillemotright" unicode="&#xbb;" horiz-adv-x="421" 
d="M312 365l-68 172h76l68 -172l-129 -172h-76zM164 365l-69 172h76l68 -172l-129 -172h-75z" />
    <glyph glyph-name="onequarter" unicode="&#xbc;" horiz-adv-x="654" 
d="M292 173l260 271h76l-48 -271h30l-11 -63h-30l-19 -110h-63l19 110h-225zM542 781h74l-541 -781h-74zM150 718h-45l11 62h108l-78 -443h-63zM366 173h151l33 187z" />
    <glyph glyph-name="onehalf" unicode="&#xbd;" horiz-adv-x="739" 
d="M359 48l206 163q65 51 65 106q0 30 -17 49.5t-52 19.5q-32 0 -57.5 -19.5t-38.5 -43.5l-51 19q21 47 64.5 77t92.5 30q54 0 89 -33.5t35 -87.5q0 -88 -94 -160l-137 -106h195l-10 -62h-298zM3 0l541 781h74l-541 -781h-74zM152 718h-47l11 62h109l-78 -443h-63z" />
    <glyph glyph-name="threequarters" unicode="&#xbe;" horiz-adv-x="811" 
d="M438 110l11 63l260 271h76l-48 -271h30l-11 -63h-30l-19 -110h-63l19 110h-225zM117 435q7 -20 30.5 -34t52.5 -14q41 0 70 24t29 61q0 28 -21.5 46.5t-55.5 18.5h-22l10 60h22q31 0 57.5 21.5t26.5 51.5q0 23 -17.5 35.5t-43.5 12.5q-46 0 -73 -35l-51 25q21 31 59 51
t78 20q49 0 81.5 -26.5t32.5 -71.5q0 -70 -71 -112q52 -29 52 -94t-49 -108t-116 -43q-52 0 -91.5 25t-50.5 63zM700 781h73l-541 -781h-73zM524 173h150l33 187z" />
    <glyph glyph-name="questiondown" unicode="&#xbf;" horiz-adv-x="559" 
d="M1 -25q0 58 25 108t59.5 83.5t92.5 75.5q70 50 80 111l6 33h97l-7 -42q-16 -92 -112 -159q-73 -51 -107 -95t-34 -98q0 -44 31 -71.5t81 -27.5q51 0 94.5 31.5t67.5 77.5l82 -35q-37 -76 -105.5 -124t-148.5 -48q-87 0 -144.5 51t-57.5 129zM270 478q0 29 21.5 50.5
t48.5 21.5q22 0 36.5 -14t14.5 -36q0 -28 -22 -49t-50 -21q-21 0 -35 14t-14 34z" />
    <glyph glyph-name="Agrave" unicode="&#xc0;" horiz-adv-x="676" 
d="M362 730h112l139 -730h-110l-37 190h-281l-102 -190h-116zM232 287h221l-57 304zM340 970h89l31 -160h-64z" />
    <glyph glyph-name="Aacute" unicode="&#xc1;" horiz-adv-x="676" 
d="M362 730h112l139 -730h-110l-37 190h-281l-102 -190h-116zM453 287l-57 304l-164 -304h221zM405 810l86 160h90l-113 -160h-63z" />
    <glyph glyph-name="Acircumflex" unicode="&#xc2;" horiz-adv-x="676" 
d="M362 730h112l139 -730h-110l-37 190h-281l-102 -190h-116zM453 287l-57 304l-164 -304h221zM283 821l128 127h86l83 -127h-83l-52 76l-79 -76h-83z" />
    <glyph glyph-name="Atilde" unicode="&#xc3;" horiz-adv-x="676" 
d="M-33 0l395 730h112l139 -730h-110l-37 190h-281l-102 -190h-116zM453 287l-57 304l-164 -304h221zM282 838q9 51 38 84t69 34h4q21 0 38.5 -10t26.5 -23.5t21 -24.5t24 -11q29 0 39 57h66q-10 -54 -37 -85t-67 -32h-7q-19 0 -36.5 9.5t-27 22.5t-21.5 24.5t-23 11.5
q-31 0 -41 -57h-66z" />
    <glyph glyph-name="Adieresis" unicode="&#xc4;" horiz-adv-x="676" 
d="M-33 0l395 730h112l139 -730h-110l-37 190h-281l-102 -190h-116zM232 287h221l-57 304zM513 925q19 18 43 18q19 0 31.5 -12.5t12.5 -29.5q0 -25 -19 -44t-43 -19q-19 0 -32 12.5t-13 31.5q0 24 20 43zM318 925q19 18 43 18q19 0 31.5 -12.5t12.5 -29.5q0 -25 -19 -44
t-43 -19q-19 0 -31.5 12.5t-12.5 31.5q0 24 19 43z" />
    <glyph glyph-name="Aring" unicode="&#xc5;" horiz-adv-x="676" 
d="M362 730h112l139 -730h-110l-37 190h-281l-102 -190h-116zM337 890q9 48 48.5 80t87.5 32q47 0 72 -28t25 -62q0 -10 -2 -22q-8 -47 -47 -79q-40 -32 -87 -32t-73 28.5t-26 62.5q0 10 2 20zM232 287h221l-57 304zM409 852q12 -15 35 -15t40.5 15.5t21.5 37.5q1 6 1 11
q0 16 -11 30t-33 14t-40 -16t-23 -39q-1 -5 -1 -10q0 -17 10 -28z" />
    <glyph glyph-name="AE" unicode="&#xc6;" horiz-adv-x="943" 
d="M357 730h618l-17 -96h-348l-37 -210h328l-16 -95h-329l-40 -230h353l-17 -100h-456l39 228h-240l-120 -227h-116zM453 323l54 311h-98l-167 -311h211z" />
    <glyph glyph-name="Ccedilla" unicode="&#xc7;" horiz-adv-x="775" 
d="M191 612q128 128 308 128q91 0 163 -38.5t115 -106.5l-94 -61q-29 47 -79.5 74t-112.5 27q-127 0 -225 -96.5t-98 -220.5q0 -97 64.5 -160.5t163.5 -63.5q64 0 125 28t106 77l89 -61q-59 -67 -139.5 -106.5t-171.5 -43.5l-17 -35q70 -9 70 -67q0 -44 -38.5 -75t-88.5 -31
q-61 0 -89 24l33 55q18 -18 61 -18q26 0 41 11.5t15 30.5q0 30 -53 30h-35l36 78q-125 16 -201.5 104t-76.5 213q0 175 129 304z" />
    <glyph glyph-name="Egrave" unicode="&#xc8;" horiz-adv-x="591" 
d="M445 810h-64l-56 160h89zM495 0h-461l128 730h451l-17 -95h-349l-37 -213h328l-16 -95h-328l-41 -227h359z" />
    <glyph glyph-name="Eacute" unicode="&#xc9;" horiz-adv-x="591" 
d="M432 810h-64l87 160h89zM495 0h-461l128 730h451l-17 -95h-349l-37 -213h328l-16 -95h-328l-41 -227h359z" />
    <glyph glyph-name="Ecircumflex" unicode="&#xca;" horiz-adv-x="591" 
d="M162 730h451l-17 -95h-349l-37 -213h328l-16 -95h-328l-41 -227h359l-17 -100h-461zM393 954h86l83 -127h-83l-52 76l-80 -76h-83z" />
    <glyph glyph-name="Edieresis" unicode="&#xcb;" horiz-adv-x="591" 
d="M162 730h451l-17 -95h-349l-37 -213h328l-16 -95h-328l-41 -227h359l-17 -100h-461zM261 882q0 24 19 42.5t43 18.5q19 0 31.5 -12.5t12.5 -29.5q0 -25 -19 -44t-43 -19q-19 0 -31.5 12.5t-12.5 31.5zM475 925q19 18 43 18q18 0 30.5 -12.5t12.5 -29.5q0 -25 -19 -44
t-43 -19q-19 0 -31.5 12.5t-12.5 31.5q0 24 20 43z" />
    <glyph glyph-name="Igrave" unicode="&#xcc;" horiz-adv-x="266" 
d="M279 810h-64l-56 160h89zM137 0h-103l128 730h103z" />
    <glyph glyph-name="Iacute" unicode="&#xcd;" horiz-adv-x="262" 
d="M250 810h-64l87 160h89zM137 0h-103l128 730h103z" />
    <glyph glyph-name="Icircumflex" unicode="&#xce;" horiz-adv-x="266" 
d="M163 730h103l-128 -730h-103zM210 954h86l83 -127h-83l-52 76l-80 -76h-83z" />
    <glyph glyph-name="Idieresis" unicode="&#xcf;" horiz-adv-x="266" 
d="M166 730h103l-128 -730h-103zM123 925q19 18 43 18q19 0 31.5 -12.5t12.5 -29.5q0 -25 -19 -44t-43 -19q-19 0 -31.5 12.5t-12.5 31.5q0 24 19 43zM292 925q19 18 43 18q19 0 31.5 -12.5t12.5 -29.5q0 -25 -19 -44t-43 -19q-19 0 -31.5 12.5t-12.5 31.5q0 24 19 43z" />
    <glyph glyph-name="Eth" unicode="&#xd0;" horiz-adv-x="745" 
d="M270 0h-233l57 325h-50l14 81h50l57 324h218q148 0 240.5 -87.5t92.5 -218.5q0 -179 -129 -301.5t-317 -122.5zM197 325l-40 -223h122q137 0 232.5 91.5t95.5 220.5q0 93 -63 154t-172 61h-122l-39 -223h226l-14 -81h-226z" />
    <glyph glyph-name="Ntilde" unicode="&#xd1;" horiz-adv-x="778" 
d="M546 827q-23 -2 -42 8.5t-28.5 23.5t-21.5 24.5t-23 11.5q-31 0 -42 -57h-65q8 51 37 84t69 34q24 1 42.5 -9.5t27.5 -24t21 -24.5t24 -11q29 0 38 57h66q-10 -53 -37 -84.5t-66 -32.5zM137 0h-103l128 730h103l312 -549l96 549h104l-128 -730h-104l-312 550z" />
    <glyph glyph-name="Ograve" unicode="&#xd2;" horiz-adv-x="854" 
d="M548 810h-63l-57 160h90zM388 -12q-143 0 -234.5 91.5t-91.5 228.5q0 116 55.5 214.5t156.5 158t225 59.5q143 0 234.5 -91.5t91.5 -227.5q0 -177 -125 -305t-312 -128zM396 94q133 0 227 95.5t94 223.5q0 95 -64 158.5t-162 63.5q-134 0 -228.5 -95.5t-94.5 -221.5
q0 -97 64.5 -160.5t163.5 -63.5z" />
    <glyph glyph-name="Oacute" unicode="&#xd3;" horiz-adv-x="854" 
d="M555 810h-63l86 160h90zM388 -12q-143 0 -234.5 91.5t-91.5 228.5q0 116 55.5 214.5t156.5 158t225 59.5q143 0 234.5 -91.5t91.5 -227.5q0 -177 -125 -305t-312 -128zM396 94q133 0 227 95.5t94 223.5q0 95 -64 158.5t-162 63.5q-134 0 -228.5 -95.5t-94.5 -221.5
q0 -97 64.5 -160.5t163.5 -63.5z" />
    <glyph glyph-name="Ocircumflex" unicode="&#xd4;" horiz-adv-x="854" 
d="M455 827h-83l128 127h86l83 -127h-83l-52 76zM388 -12q-143 0 -234.5 91.5t-91.5 228.5q0 116 55.5 214.5t156.5 158t225 59.5q143 0 234.5 -91.5t91.5 -227.5q0 -177 -125 -305t-312 -128zM396 94q133 0 227 95.5t94 223.5q0 95 -64 158.5t-162 63.5
q-134 0 -228.5 -95.5t-94.5 -221.5q0 -97 64.5 -160.5t163.5 -63.5z" />
    <glyph glyph-name="Otilde" unicode="&#xd5;" horiz-adv-x="854" 
d="M592 827q-24 -2 -43 8.5t-28.5 23.5t-21.5 24.5t-23 11.5q-30 0 -41 -57h-66q9 51 38 84t69 34q23 1 41.5 -9.5t28 -24t21 -24.5t23.5 -11q29 0 39 57h66q-10 -53 -37 -84.5t-66 -32.5zM388 -12q-143 0 -234.5 91.5t-91.5 228.5q0 116 55.5 214.5t156.5 158t225 59.5
q143 0 234.5 -91.5t91.5 -227.5q0 -177 -125 -305t-312 -128zM396 94q133 0 227 95.5t94 223.5q0 95 -64 158.5t-162 63.5q-134 0 -228.5 -95.5t-94.5 -221.5q0 -97 64.5 -160.5t163.5 -63.5z" />
    <glyph glyph-name="Odieresis" unicode="&#xd6;" horiz-adv-x="854" 
d="M417 838q-19 0 -31.5 12.5t-12.5 31.5q0 24 19 42.5t43 18.5q19 0 31.5 -12.5t12.5 -29.5q0 -25 -19 -44t-43 -19zM612 838q-19 0 -32 12.5t-13 31.5q0 24 19.5 42.5t43.5 18.5q19 0 31.5 -12.5t12.5 -29.5q0 -25 -19 -44t-43 -19zM388 -12q-143 0 -234.5 91.5
t-91.5 228.5q0 116 55.5 214.5t156.5 158t225 59.5q143 0 234.5 -91.5t91.5 -227.5q0 -177 -125 -305t-312 -128zM396 94q133 0 227 95.5t94 223.5q0 95 -64 158.5t-162 63.5q-134 0 -228.5 -95.5t-94.5 -221.5q0 -97 64.5 -160.5t163.5 -63.5z" />
    <glyph glyph-name="multiply" unicode="&#xd7;" horiz-adv-x="498" 
d="M448 229l-77 -67l-112 137l-161 -136l-55 66l161 136l-113 137l79 66l112 -136l161 136l53 -66l-160 -137z" />
    <glyph glyph-name="Oslash" unicode="&#xd8;" horiz-adv-x="859" 
d="M162 76l-89 -76l-48 57l91 77q-50 77 -50 174q0 116 55.5 214.5t156.5 158t225 59.5q136 0 226 -85l88 75l47 -57l-88 -74q53 -78 53 -178q0 -177 -125 -305t-312 -128q-139 0 -230 88zM205 210l435 369q-58 56 -145 56q-134 0 -228 -95.5t-94 -221.5q0 -62 32 -108z
M400 94q133 0 227 95.5t94 223.5q0 62 -33 111l-437 -373q57 -57 149 -57z" />
    <glyph glyph-name="Ugrave" unicode="&#xd9;" horiz-adv-x="708" 
d="M487 810h-64l-56 160h89zM304 -11q-122 0 -188.5 79t-43.5 210l80 452h103l-80 -451q-15 -89 26 -137.5t119 -48.5t138 48.5t76 137.5l79 451h104l-80 -452q-23 -130 -117.5 -209.5t-215.5 -79.5z" />
    <glyph glyph-name="Uacute" unicode="&#xda;" horiz-adv-x="708" 
d="M472 810h-64l86 160h90zM304 -11q-122 0 -188.5 79t-43.5 210l80 452h103l-80 -451q-15 -89 26 -137.5t119 -48.5t138 48.5t76 137.5l79 451h104l-80 -452q-23 -130 -117.5 -209.5t-215.5 -79.5z" />
    <glyph glyph-name="Ucircumflex" unicode="&#xdb;" horiz-adv-x="708" 
d="M381 827h-83l129 127h86l83 -127h-83l-52 76zM304 -11q-122 0 -188.5 79t-43.5 210l80 452h103l-80 -451q-15 -89 26 -137.5t119 -48.5t138 48.5t76 137.5l79 451h104l-80 -452q-23 -130 -117.5 -209.5t-215.5 -79.5z" />
    <glyph glyph-name="Udieresis" unicode="&#xdc;" horiz-adv-x="708" 
d="M362 838q-22 0 -35 15t-9 37t22 37.5t40 15.5q21 0 33.5 -15.5t8.5 -37.5t-21.5 -37t-38.5 -15zM556 838q-22 0 -35 15t-9 37t22 37.5t40 15.5q21 0 34 -15.5t9 -37.5t-22 -37t-39 -15zM304 -11q-122 0 -188.5 79t-43.5 210l80 452h103l-80 -451q-15 -89 26 -137.5
t119 -48.5t138 48.5t76 137.5l79 451h104l-80 -452q-23 -130 -117.5 -209.5t-215.5 -79.5z" />
    <glyph glyph-name="Yacute" unicode="&#xdd;" horiz-adv-x="648" 
d="M444 810h-64l87 160h89zM327 0h-103l55 311l-186 419h118l140 -299l246 299h118l-333 -420z" />
    <glyph glyph-name="Thorn" unicode="&#xde;" horiz-adv-x="655" 
d="M140 0h-103l128 730h103l-23 -135h174q96 0 152.5 -56.5t56.5 -141.5q0 -112 -84 -187t-203 -75h-177zM227 494l-45 -257h172q68 0 116.5 43.5t50.5 104.5q1 47 -31.5 78t-89.5 31h-173z" />
    <glyph glyph-name="germandbls" unicode="&#xdf;" horiz-adv-x="627" 
d="M326 -10q-41 0 -79.5 8.5t-54.5 19.5l15 90q53 -27 114 -27q66 0 113.5 45t47.5 109q0 28 -14 49.5t-33.5 34.5t-39.5 25t-34 27.5t-14 35.5q0 24 13 43.5t31.5 34t36.5 30.5t31 39.5t13 53.5q0 42 -26.5 69t-74.5 27q-47 0 -87 -30.5t-52 -101.5l-101 -572h-94l103 587
q17 95 82 149t160 54q85 0 137.5 -49t52.5 -121q0 -46 -19.5 -81.5t-42.5 -52t-42.5 -34t-19.5 -31.5q0 -10 13.5 -20.5t32.5 -23t38 -29.5t32.5 -46.5t13.5 -66.5q0 -103 -72.5 -174t-179.5 -71z" />
    <glyph glyph-name="agrave" unicode="&#xe0;" 
d="M444 640h-64l-55 160h89zM262 -7q-97 0 -161.5 69.5t-64.5 170.5q0 129 93.5 227t222.5 98q67 0 120.5 -35.5t69.5 -88.5l25 116h90l-96 -550h-90l15 115q-35 -53 -96.5 -87.5t-127.5 -34.5zM292 90q87 0 154.5 66t67.5 152q0 66 -44 110t-112 44q-86 0 -153.5 -67
t-67.5 -152q0 -66 43.5 -109.5t111.5 -43.5z" />
    <glyph glyph-name="aacute" unicode="&#xe1;" 
d="M413 640h-64l87 160h90zM262 -7q-97 0 -161.5 69.5t-64.5 170.5q0 129 93.5 227t222.5 98q67 0 120.5 -35.5t69.5 -88.5l25 116h90l-96 -550h-90l15 115q-35 -53 -96.5 -87.5t-127.5 -34.5zM292 90q87 0 154.5 66t67.5 152q0 66 -44 110t-112 44q-86 0 -153.5 -67
t-67.5 -152q0 -66 43.5 -109.5t111.5 -43.5z" />
    <glyph glyph-name="acircumflex" unicode="&#xe2;" 
d="M338 657h-83l128 127h86l83 -127h-83l-52 76zM262 -7q-97 0 -161.5 69.5t-64.5 170.5q0 129 93.5 227t222.5 98q67 0 120.5 -35.5t69.5 -88.5l25 116h90l-96 -550h-90l15 115q-35 -53 -96.5 -87.5t-127.5 -34.5zM292 90q87 0 154.5 66t67.5 152q0 66 -44 110t-112 44
q-86 0 -153.5 -67t-67.5 -152q0 -66 43.5 -109.5t111.5 -43.5z" />
    <glyph glyph-name="atilde" unicode="&#xe3;" 
d="M473 657q-22 0 -40 10.5t-27.5 23.5t-20.5 23.5t-22 10.5q-31 0 -42 -57h-65q9 51 39.5 84.5t71.5 33.5q22 0 39.5 -11t26.5 -23.5t21 -23.5t24 -11q28 0 38 57h65q-10 -55 -38 -86t-70 -31zM262 -7q-97 0 -161.5 69.5t-64.5 170.5q0 129 93.5 227t222.5 98
q67 0 120.5 -35.5t69.5 -88.5l25 116h90l-96 -550h-90l15 115q-35 -53 -96.5 -87.5t-127.5 -34.5zM292 90q87 0 154.5 66t67.5 152q0 66 -44 110t-112 44q-86 0 -153.5 -67t-67.5 -152q0 -66 43.5 -109.5t111.5 -43.5z" />
    <glyph glyph-name="adieresis" unicode="&#xe4;" 
d="M307 668q-19 0 -31.5 12.5t-12.5 31.5q0 24 19 42.5t43 18.5q19 0 31.5 -12.5t12.5 -29.5q0 -25 -19 -44t-43 -19zM501 668q-19 0 -31.5 12.5t-12.5 31.5q0 24 19.5 42.5t43.5 18.5q18 0 30.5 -12.5t12.5 -29.5q0 -25 -19 -44t-43 -19zM262 -7q-97 0 -161.5 69.5
t-64.5 170.5q0 129 93.5 227t222.5 98q67 0 120.5 -35.5t69.5 -88.5l25 116h90l-96 -550h-90l15 115q-35 -53 -96.5 -87.5t-127.5 -34.5zM292 90q87 0 154.5 66t67.5 152q0 66 -44 110t-112 44q-86 0 -153.5 -67t-67.5 -152q0 -66 43.5 -109.5t111.5 -43.5z" />
    <glyph glyph-name="aring" unicode="&#xe5;" 
d="M383 609q-42 0 -71 26.5t-29 66.5q0 53 41.5 91.5t95.5 38.5q41 0 69.5 -26t28.5 -66q0 -55 -41.5 -93t-93.5 -38zM392 667q25 0 43.5 19t18.5 45q0 19 -11.5 31.5t-31.5 12.5q-26 0 -44.5 -19t-18.5 -45q0 -19 12 -31.5t32 -12.5zM262 -7q-97 0 -161.5 69.5t-64.5 170.5
q0 129 93.5 227t222.5 98q67 0 120.5 -35.5t69.5 -88.5l25 116h90l-96 -550h-90l15 115q-35 -53 -96.5 -87.5t-127.5 -34.5zM292 90q87 0 154.5 66t67.5 152q0 66 -44 110t-112 44q-86 0 -153.5 -67t-67.5 -152q0 -66 43.5 -109.5t111.5 -43.5z" />
    <glyph glyph-name="ae" unicode="&#xe6;" horiz-adv-x="1006" 
d="M214 -10q-97 0 -150.5 49t-40.5 125q14 76 80 123.5t169 47.5h170q11 63 -23.5 101t-104.5 38q-96 0 -166 -55l-51 52q103 88 243 88q70 0 117.5 -32t62.5 -89q43 57 105.5 89t128.5 32q106 0 169.5 -72.5t44.5 -179.5q-9 -44 -13 -54h-419q-13 -81 28 -128.5t114 -47.5
q97 0 167 73l68 -47q-48 -52 -114.5 -82.5t-132.5 -30.5q-77 0 -130.5 38t-73.5 101q-40 -67 -105 -103t-143 -36zM551 335h326q6 57 -32 94.5t-100 37.5q-67 0 -121 -39.5t-73 -92.5zM233 81q79 0 129.5 44.5t60.5 105.5l5 22h-159q-59 0 -97.5 -23t-45.5 -62t22.5 -63
t84.5 -24z" />
    <glyph glyph-name="ccedilla" unicode="&#xe7;" horiz-adv-x="599" 
d="M225 -220q-61 0 -89 24l32 55q20 -18 61 -18q26 0 41 12t16 30q0 30 -53 30h-35l41 85q-88 15 -145 81.5t-57 156.5q0 133 96 227t231 94q69 0 126.5 -33t88.5 -88l-89 -53q-42 75 -134 75q-86 0 -152.5 -65t-66.5 -150q0 -65 43 -108t111 -43q98 0 165 80l77 -59
q-93 -113 -232 -120l-19 -40q72 -10 69 -73q-3 -43 -40 -71.5t-86 -28.5z" />
    <glyph glyph-name="egrave" unicode="&#xe8;" horiz-adv-x="637" 
d="M422 640h-64l-56 160h90zM293 -8q-110 0 -183 70.5t-73 173.5q0 131 93.5 226t229.5 95q115 0 184 -74t56 -189q-1 -21 -11 -61h-450q-1 -66 45 -107.5t113 -41.5q105 0 174 72l70 -52q-104 -112 -248 -112zM150 308h353q8 71 -32 115.5t-113 44.5q-75 0 -133 -45
t-75 -115z" />
    <glyph glyph-name="eacute" unicode="&#xe9;" horiz-adv-x="637" 
d="M408 640h-64l87 160h89zM293 -8q-110 0 -183 70.5t-73 173.5q0 131 93.5 226t229.5 95q115 0 184 -74t56 -189q-1 -21 -11 -61h-450q-1 -66 45 -107.5t113 -41.5q105 0 174 72l70 -52q-104 -112 -248 -112zM150 308h353q8 71 -32 115.5t-113 44.5q-75 0 -133 -45
t-75 -115z" />
    <glyph glyph-name="ecircumflex" unicode="&#xea;" horiz-adv-x="637" 
d="M325 657h-83l128 127h86l84 -127h-83l-52 76zM293 -8q-110 0 -183 70.5t-73 173.5q0 131 93.5 226t229.5 95q115 0 184 -74t56 -189q-1 -21 -11 -61h-450q-1 -66 45 -107.5t113 -41.5q105 0 174 72l70 -52q-104 -112 -248 -112zM150 308h353q8 71 -32 115.5t-113 44.5
q-75 0 -133 -45t-75 -115z" />
    <glyph glyph-name="edieresis" unicode="&#xeb;" horiz-adv-x="637" 
d="M291 668q-19 0 -31.5 12.5t-12.5 31.5q0 24 19 42.5t43 18.5q19 0 31.5 -12.5t12.5 -29.5q0 -25 -19 -44t-43 -19zM485 668q-19 0 -31.5 12.5t-12.5 31.5q0 24 19.5 42.5t43.5 18.5q18 0 30.5 -12.5t12.5 -29.5q0 -25 -19 -44t-43 -19zM293 -8q-110 0 -183 70.5
t-73 173.5q0 131 93.5 226t229.5 95q115 0 184 -74t56 -189q-1 -21 -11 -61h-450q-1 -66 45 -107.5t113 -41.5q105 0 174 72l70 -52q-104 -112 -248 -112zM150 308h353q8 71 -32 115.5t-113 44.5q-75 0 -133 -45t-75 -115z" />
    <glyph glyph-name="igrave" unicode="&#xec;" horiz-adv-x="240" 
d="M219 640h-63l-56 160h89zM121 0h-97l96 550h97z" />
    <glyph glyph-name="iacute" unicode="&#xed;" horiz-adv-x="240" 
d="M213 640h-63l87 160h89zM121 0h-97l96 551l97 -1z" />
    <glyph glyph-name="icircumflex" unicode="&#xee;" horiz-adv-x="240" 
d="M122 657h-83l128 127h86l83 -127h-83l-52 76zM121 0h-97l96 550h97z" />
    <glyph glyph-name="idieresis" unicode="&#xef;" horiz-adv-x="240" 
d="M111 673q-18 0 -29 11t-11 28q0 22 17 38.5t39 16.5q16 0 27 -10.5t11 -26.5q0 -23 -16.5 -40t-37.5 -17zM272 673q-17 0 -28.5 11t-11.5 28q0 22 17.5 38.5t38.5 16.5q17 0 28 -10.5t11 -26.5q0 -23 -17 -40t-38 -17zM123 0h-98l96 550h98z" />
    <glyph glyph-name="eth" unicode="&#xf0;" horiz-adv-x="559" 
d="M233 -11q-91 0 -148.5 55t-57.5 138q0 113 76.5 193.5t195.5 80.5q41 0 79 -22t50 -55q3 118 -62 204l-196 -96l-19 51l176 86q-48 48 -134 86l73 70q95 -38 159 -108l117 56l18 -52l-100 -48q73 -108 70 -263q-5 -167 -87.5 -271.5t-209.5 -104.5zM242 82q63 0 114 55
t51 115q0 50 -32 82t-82 32q-69 0 -120 -50.5t-51 -116.5q0 -50 34 -83.5t86 -33.5z" />
    <glyph glyph-name="ntilde" unicode="&#xf1;" horiz-adv-x="591" 
d="M426 657q-24 -2 -43 9t-28.5 24.5t-21.5 24.5t-24 10q-30 -2 -40 -57h-65q8 51 37.5 84t69.5 34q24 1 42 -10t27.5 -24.5t21.5 -24.5t25 -10q27 2 37 57h65q-10 -53 -37 -84.5t-66 -32.5zM99 0h-98l96 550h90l-11 -97q32 46 82 75.5t109 29.5q101 0 150.5 -70.5
t25.5 -207.5l-49 -280h-97l49 280q15 89 -19 135.5t-98 46.5q-65 0 -115.5 -46t-65.5 -136z" />
    <glyph glyph-name="ograve" unicode="&#xf2;" horiz-adv-x="647" 
d="M424 640h-64l-55 160h89zM281 -8q-107 0 -175.5 70.5t-68.5 173.5q0 134 94 227.5t236 93.5q105 0 174 -70t69 -172q0 -133 -94 -228t-235 -95zM291 92q92 0 155.5 64.5t63.5 150.5q0 65 -43.5 108t-110.5 43q-93 0 -156 -64t-63 -151q0 -65 43 -108t111 -43z" />
    <glyph glyph-name="oacute" unicode="&#xf3;" horiz-adv-x="647" 
d="M413 640h-63l87 160h89zM281 -8q-107 0 -175.5 70.5t-68.5 173.5q0 134 94 227.5t236 93.5q105 0 174 -70t69 -172q0 -133 -94 -228t-235 -95zM291 92q92 0 155.5 64.5t63.5 150.5q0 65 -43.5 108t-110.5 43q-93 0 -156 -64t-63 -151q0 -65 43 -108t111 -43z" />
    <glyph glyph-name="ocircumflex" unicode="&#xf4;" horiz-adv-x="647" 
d="M326 657h-83l128 127h86l83 -127h-83l-52 76zM281 -8q-107 0 -175.5 70.5t-68.5 173.5q0 134 94 227.5t236 93.5q105 0 174 -70t69 -172q0 -133 -94 -228t-235 -95zM291 92q92 0 155.5 64.5t63.5 150.5q0 65 -43.5 108t-110.5 43q-93 0 -156 -64t-63 -151q0 -65 43 -108
t111 -43z" />
    <glyph glyph-name="otilde" unicode="&#xf5;" horiz-adv-x="647" 
d="M460 657q-23 -2 -42 8.5t-29 23.5t-22 24.5t-23 11.5q-31 0 -41 -57h-66q9 51 38.5 84t69.5 34q23 1 41 -9.5t27.5 -24t21 -24.5t23.5 -11q29 0 39 57h66q-10 -53 -37 -84.5t-66 -32.5zM281 -8q-107 0 -175.5 70.5t-68.5 173.5q0 134 94 227.5t236 93.5q105 0 174 -70
t69 -172q0 -133 -94 -228t-235 -95zM291 92q92 0 155.5 64.5t63.5 150.5q0 65 -43.5 108t-110.5 43q-93 0 -156 -64t-63 -151q0 -65 43 -108t111 -43z" />
    <glyph glyph-name="odieresis" unicode="&#xf6;" horiz-adv-x="647" 
d="M294 668q-19 0 -31.5 12.5t-12.5 31.5q0 24 19 42.5t43 18.5q19 0 31.5 -12.5t12.5 -29.5q0 -25 -19 -44t-43 -19zM488 668q-19 0 -31.5 12.5t-12.5 31.5q0 24 19 42.5t43 18.5q19 0 31.5 -12t12.5 -30q0 -25 -19 -44t-43 -19zM281 -8q-107 0 -175.5 70.5t-68.5 173.5
q0 134 94 227.5t236 93.5q105 0 174 -70t69 -172q0 -133 -94 -228t-235 -95zM291 92q92 0 155.5 64.5t63.5 150.5q0 65 -43.5 108t-110.5 43q-93 0 -156 -64t-63 -151q0 -65 43 -108t111 -43z" />
    <glyph glyph-name="divide" unicode="&#xf7;" horiz-adv-x="533" 
d="M301 471q-22 0 -36 14t-14 36q0 28 22 49.5t49 21.5q22 0 36 -14.5t14 -36.5q0 -27 -22 -48.5t-49 -21.5zM494 329h-435l12 73h435zM242 140q-22 0 -36 14t-14 36q0 28 22 49t50 21q22 0 35.5 -14t13.5 -36q0 -28 -22 -49t-49 -21z" />
    <glyph glyph-name="oslash" unicode="&#xf8;" horiz-adv-x="646" 
d="M111 60l-78 -66l-39 47l79 66q-35 59 -35 129q0 134 94 227.5t236 93.5q97 0 164 -61l81 70l37 -47l-80 -68q41 -62 41 -136q0 -133 -94.5 -228t-235.5 -95q-100 0 -170 68zM154 177l295 250q-41 36 -95 36q-93 0 -156.5 -63.5t-63.5 -147.5q0 -43 20 -75zM295 88
q91 0 155.5 64t64.5 149q0 44 -26 81l-297 -253q39 -41 103 -41z" />
    <glyph glyph-name="ugrave" unicode="&#xf9;" horiz-adv-x="634" 
d="M415 640h-64l-56 160h90zM239 -8q-101 0 -150.5 71t-25.5 208l49 279h98l-49 -279q-16 -90 18 -136t98 -46q65 0 115.5 46t66.5 136l49 279h97l-96 -550h-90l11 98q-32 -47 -82 -76.5t-109 -29.5z" />
    <glyph glyph-name="uacute" unicode="&#xfa;" horiz-adv-x="634" 
d="M387 644h-63l87 160h90zM239 -8q-101 0 -150.5 71t-25.5 208l49 279h98l-49 -279q-16 -90 18 -136t98 -46q65 0 115.5 46t66.5 136l49 279h97l-96 -550h-90l11 98q-32 -47 -82 -76.5t-109 -29.5z" />
    <glyph glyph-name="ucircumflex" unicode="&#xfb;" horiz-adv-x="634" 
d="M312 657h-83l128 127h86l84 -127h-83l-53 76zM239 -8q-101 0 -150.5 71t-25.5 208l49 279h98l-49 -279q-16 -90 18 -136t98 -46q65 0 115.5 46t66.5 136l49 279h97l-96 -550h-90l11 98q-32 -47 -82 -76.5t-109 -29.5z" />
    <glyph glyph-name="udieresis" unicode="&#xfc;" horiz-adv-x="634" 
d="M283 668q-22 0 -35 15t-9 37t22 37.5t40 15.5q21 0 34 -15.5t9 -37.5t-22 -37t-39 -15zM477 668q-22 0 -34.5 15t-8.5 37t22 37.5t39 15.5q22 0 34.5 -15.5t8.5 -37.5t-21.5 -37t-39.5 -15zM239 -8q-101 0 -150.5 71t-25.5 208l49 279h98l-49 -279q-16 -90 18 -136
t98 -46q65 0 115.5 46t66.5 136l49 279h97l-96 -550h-90l11 98q-32 -47 -82 -76.5t-109 -29.5z" />
    <glyph glyph-name="yacute" unicode="&#xfd;" horiz-adv-x="564" 
d="M358 640h-64l87 160h90zM26 -226q-54 0 -99 20l45 87q32 -14 66 -14q80 0 160 144l-126 539h105l89 -407l230 407h104l-306 -550q-68 -121 -129.5 -173.5t-138.5 -52.5z" />
    <glyph glyph-name="thorn" unicode="&#xfe;" horiz-adv-x="689" 
d="M90 -220h-99l177 1000h98l-58 -324q85 103 211 103q106 0 170 -69t64 -171q0 -136 -98 -233.5t-229 -97.5q-62 0 -111 28.5t-71 76.5zM330 87q87 0 155.5 67.5t68.5 151.5q0 66 -44.5 110.5t-113.5 44.5q-87 0 -154.5 -66.5t-67.5 -153.5q0 -67 43.5 -110.5t112.5 -43.5z
" />
    <glyph glyph-name="ydieresis" unicode="&#xff;" horiz-adv-x="564" 
d="M255 668q-19 0 -31.5 12.5t-12.5 31.5q0 24 19 42.5t43 18.5q19 0 31.5 -12.5t12.5 -29.5q0 -25 -19 -44t-43 -19zM449 668q-19 0 -31.5 12.5t-12.5 31.5q0 24 19 42.5t43 18.5q19 0 31.5 -12t12.5 -30q0 -25 -19 -44t-43 -19zM26 -226q-54 0 -99 20l45 87q32 -14 66 -14
q43 0 78.5 33.5t75.5 99.5l-120 550h105l89 -407l230 407h104l-306 -550q-68 -121 -129.5 -173.5t-138.5 -52.5z" />
    <glyph glyph-name="Amacron" unicode="&#x100;" horiz-adv-x="676" 
d="M622 850h-365l14 81h365zM83 0h-116l395 730h112l139 -730h-110l-37 190h-281zM396 591l-164 -304h221z" />
    <glyph glyph-name="amacron" unicode="&#x101;" 
d="M596 680h-365l14 81h365zM262 -7q-97 0 -161.5 69.5t-64.5 170.5q0 129 93.5 227t222.5 98q67 0 120.5 -35.5t69.5 -88.5l25 116h90l-96 -550h-90l15 115q-35 -53 -96.5 -87.5t-127.5 -34.5zM292 90q87 0 154.5 66t67.5 152q0 66 -44 110t-112 44q-86 0 -153.5 -67
t-67.5 -152q0 -66 43.5 -109.5t111.5 -43.5z" />
    <glyph glyph-name="Abreve" unicode="&#x102;" horiz-adv-x="676" 
d="M434 817q-64 0 -101.5 43t-28.5 104h59q-5 -37 18.5 -62.5t63.5 -25.5q38 0 70 25t41 63h59q-13 -62 -66 -104.5t-115 -42.5zM83 0h-116l395 730h112l139 -730h-110l-37 190h-281zM396 591l-164 -304h221z" />
    <glyph glyph-name="abreve" unicode="&#x103;" 
d="M409 647q-65 0 -105.5 43.5t-31.5 103.5h60q-2 -41 19.5 -64.5t60.5 -23.5q38 0 70 25t42 63h59q-14 -63 -63 -105t-111 -42zM262 -7q-97 0 -161.5 69.5t-64.5 170.5q0 129 93.5 227t222.5 98q67 0 120.5 -35.5t69.5 -88.5l25 116h90l-96 -550h-90l15 115
q-35 -53 -96.5 -87.5t-127.5 -34.5zM292 90q87 0 154.5 66t67.5 152q0 66 -44 110t-112 44q-86 0 -153.5 -67t-67.5 -152q0 -66 43.5 -109.5t111.5 -43.5z" />
    <glyph glyph-name="Aogonek" unicode="&#x104;" horiz-adv-x="676" 
d="M539 -219q-31 0 -50.5 19.5t-19.5 51.5q0 13 3.5 26.5t11 26.5t14.5 23.5t17.5 23t17 19t16.5 17t12 12.5h-57l-38 190h-281l-102 -190h-116l395 730h112l139 -730q-3 -4 -16 -18t-17 -19t-13.5 -17t-13.5 -18.5t-9.5 -16t-7.5 -17.5t-2 -16q0 -13 7.5 -22t19.5 -9
q24 0 44 22l22 -45q-37 -43 -88 -43zM396 591l-164 -304h221z" />
    <glyph glyph-name="aogonek" unicode="&#x105;" horiz-adv-x="679" 
d="M477 -208q-30 0 -49.5 19.5t-19.5 51.5q0 22 9.5 43.5t17.5 32t29.5 33t26.5 28.5h-20l15 115q-35 -53 -96.5 -87.5t-127.5 -34.5q-97 0 -161.5 69.5t-64.5 170.5q0 129 93.5 227t222.5 98q67 0 120.5 -35.5t69.5 -88.5l25 116h90l-96 -550h-15q-7 -8 -20.5 -23.5
t-21 -24t-16 -20.5t-12.5 -22t-4 -20q0 -14 7.5 -23t19.5 -9q24 0 44 22l22 -45q-37 -43 -88 -43zM292 90q87 0 154.5 66t67.5 152q0 66 -44 110t-112 44q-86 0 -153.5 -67t-67.5 -152q0 -66 43.5 -109.5t111.5 -43.5z" />
    <glyph glyph-name="Cacute" unicode="&#x106;" horiz-adv-x="775" 
d="M493 810h-63l86 160h90zM388 -12q-143 0 -234.5 91.5t-91.5 228.5q0 175 128.5 303.5t308.5 128.5q91 0 163 -38.5t115 -106.5l-94 -61q-29 47 -79.5 74t-112.5 27q-127 0 -225 -96.5t-98 -220.5q0 -97 64.5 -160.5t163.5 -63.5q64 0 125 28t106 77l89 -61
q-62 -70 -147 -110t-181 -40z" />
    <glyph glyph-name="cacute" unicode="&#x107;" horiz-adv-x="599" 
d="M398 640h-64l87 160h90zM284 -8q-104 0 -175.5 71t-71.5 173q0 133 96 227t231 94q69 0 126.5 -33t88.5 -88l-89 -53q-42 75 -134 75q-86 0 -152.5 -65t-66.5 -150q0 -65 43 -108t111 -43q98 0 165 80l77 -59q-46 -56 -110.5 -88.5t-138.5 -32.5z" />
    <glyph glyph-name="Ccircumflex" unicode="&#x108;" horiz-adv-x="775" 
d="M452 827h-83l128 127h86l83 -127h-83l-52 76zM388 -12q-143 0 -234.5 91.5t-91.5 228.5q0 175 128.5 303.5t308.5 128.5q91 0 163 -38.5t115 -106.5l-94 -61q-29 47 -79.5 74t-112.5 27q-127 0 -225 -96.5t-98 -220.5q0 -97 64.5 -160.5t163.5 -63.5q64 0 125 28t106 77
l89 -61q-62 -70 -147 -110t-181 -40z" />
    <glyph glyph-name="ccircumflex" unicode="&#x109;" horiz-adv-x="599" 
d="M321 657h-83l129 127h86l83 -127h-83l-52 76zM284 -8q-104 0 -175.5 71t-71.5 173q0 133 96 227t231 94q69 0 126.5 -33t88.5 -88l-89 -53q-42 75 -134 75q-86 0 -152.5 -65t-66.5 -150q0 -65 43 -108t111 -43q98 0 165 80l77 -59q-46 -56 -110.5 -88.5t-138.5 -32.5z
" />
    <glyph glyph-name="Cdotaccent" unicode="&#x10a;" horiz-adv-x="775" 
d="M505 830q-22 0 -36.5 14.5t-14.5 35.5q0 28 22 49.5t50 21.5q21 0 35 -14.5t14 -34.5q0 -28 -21.5 -50t-48.5 -22zM388 -12q-143 0 -234.5 91.5t-91.5 228.5q0 175 128.5 303.5t308.5 128.5q91 0 163 -38.5t115 -106.5l-94 -61q-29 47 -79.5 74t-112.5 27
q-127 0 -225 -96.5t-98 -220.5q0 -97 64.5 -160.5t163.5 -63.5q64 0 125 28t106 77l89 -61q-62 -70 -147 -110t-181 -40z" />
    <glyph glyph-name="cdotaccent" unicode="&#x10b;" horiz-adv-x="599" 
d="M376 660q-22 0 -37 14.5t-15 35.5q0 28 22.5 49.5t49.5 21.5q22 0 36 -14.5t14 -34.5q0 -28 -21.5 -50t-48.5 -22zM284 -8q-104 0 -175.5 71t-71.5 173q0 133 96 227t231 94q69 0 126.5 -33t88.5 -88l-89 -53q-42 75 -134 75q-86 0 -152.5 -65t-66.5 -150q0 -65 43 -108
t111 -43q98 0 165 80l77 -59q-46 -56 -110.5 -88.5t-138.5 -32.5z" />
    <glyph glyph-name="Ccaron" unicode="&#x10c;" horiz-adv-x="775" 
d="M551 827h-86l-83 127h83l52 -76l79 76h83zM388 -12q-143 0 -234.5 91.5t-91.5 228.5q0 175 128.5 303.5t308.5 128.5q91 0 163 -38.5t115 -106.5l-94 -61q-29 47 -79.5 74t-112.5 27q-127 0 -225 -96.5t-98 -220.5q0 -97 64.5 -160.5t163.5 -63.5q64 0 125 28t106 77
l89 -61q-62 -70 -147 -110t-181 -40z" />
    <glyph glyph-name="ccaron" unicode="&#x10d;" horiz-adv-x="599" 
d="M404 657h-86l-83 127h83l52 -76l80 76h83zM284 -8q-104 0 -175.5 71t-71.5 173q0 133 96 227t231 94q69 0 126.5 -33t88.5 -88l-89 -53q-42 75 -134 75q-86 0 -152.5 -65t-66.5 -150q0 -65 43 -108t111 -43q98 0 165 80l77 -59q-46 -56 -110.5 -88.5t-138.5 -32.5z" />
    <glyph glyph-name="Dcaron" unicode="&#x10e;" horiz-adv-x="742" 
d="M434 827h-86l-83 127h83l52 -76l79 76h83zM266 0h-232l128 730h217q149 0 241 -87.5t92 -218.5q0 -179 -129 -301.5t-317 -122.5zM247 629l-93 -527h121q137 0 233 91.5t96 220.5q0 93 -63.5 154t-172.5 61h-121z" />
    <glyph glyph-name="dcaron" unicode="&#x10f;" horiz-adv-x="767" 
d="M262 -7q-97 0 -161.5 69.5t-64.5 170.5q0 130 92.5 227.5t223.5 97.5q66 0 119 -34.5t69 -86.5l60 343h98l-137 -780h-90l15 115q-36 -54 -95.5 -88t-128.5 -34zM795 567h-68l27 213h89zM292 90q91 0 156.5 65.5t65.5 152.5q0 66 -44 110t-112 44q-89 0 -155 -66.5
t-66 -152.5q0 -66 43.5 -109.5t111.5 -43.5z" />
    <glyph glyph-name="Dcroat" unicode="&#x110;" horiz-adv-x="745" 
d="M270 0h-233l57 325h-50l14 81h50l57 324h218q148 0 240.5 -87.5t92.5 -218.5q0 -179 -129 -301.5t-317 -122.5zM197 325l-40 -223h122q137 0 232.5 91.5t95.5 220.5q0 93 -63 154t-172 61h-122l-39 -223h230l-14 -81h-230z" />
    <glyph glyph-name="dcroat" unicode="&#x111;" horiz-adv-x="678" 
d="M262 -7q-97 0 -161.5 69.5t-64.5 170.5q0 130 92.5 227.5t223.5 97.5q66 0 119 -34.5t69 -86.5l35 201h-209l12 66h209l13 76h98l-14 -76h59l-12 -66h-58l-112 -638h-90l15 115q-36 -54 -95.5 -88t-128.5 -34zM292 90q91 0 156.5 65.5t65.5 152.5q0 66 -44 110t-112 44
q-89 0 -155 -66.5t-66 -152.5q0 -66 43.5 -109.5t111.5 -43.5z" />
    <glyph glyph-name="Emacron" unicode="&#x112;" horiz-adv-x="591" 
d="M596 850h-365l14 81h365zM495 0h-461l128 730h451l-17 -95h-349l-37 -213h328l-16 -95h-328l-41 -227h359z" />
    <glyph glyph-name="emacron" unicode="&#x113;" horiz-adv-x="645" 
d="M576 680h-365l14 81h365zM293 -8q-110 0 -183 70.5t-73 173.5q0 131 93.5 226t229.5 95q115 0 184 -74t56 -189q-1 -21 -11 -61h-450q-1 -66 45 -107.5t113 -41.5q105 0 174 72l70 -52q-104 -112 -248 -112zM150 308h353q8 71 -32 115.5t-113 44.5q-75 0 -133 -45
t-75 -115z" />
    <glyph glyph-name="Ebreve" unicode="&#x114;" horiz-adv-x="591" 
d="M407 817q-64 0 -101.5 43t-29.5 104h60q-5 -37 18.5 -62.5t62.5 -25.5q38 0 70 25t41 63h60q-14 -62 -66.5 -104.5t-114.5 -42.5zM495 0h-461l128 730h451l-17 -95h-349l-37 -213h328l-16 -95h-328l-41 -227h359z" />
    <glyph glyph-name="ebreve" unicode="&#x115;" horiz-adv-x="637" 
d="M391 647q-65 0 -105.5 43.5t-31.5 103.5h59q-2 -41 20 -64.5t61 -23.5q38 0 70 25t42 63h59q-14 -63 -63 -105t-111 -42zM293 -8q-110 0 -183 70.5t-73 173.5q0 131 93.5 226t229.5 95q115 0 184 -74t56 -189q-1 -21 -11 -61h-450q-1 -66 45 -107.5t113 -41.5
q105 0 174 72l70 -52q-104 -112 -248 -112zM150 308h353q8 71 -32 115.5t-113 44.5q-75 0 -133 -45t-75 -115z" />
    <glyph glyph-name="Edotaccent" unicode="&#x116;" horiz-adv-x="591" 
d="M411 830q-22 0 -36.5 14.5t-14.5 35.5q0 28 22 49.5t50 21.5q21 0 35.5 -14.5t14.5 -34.5q0 -28 -22 -50t-49 -22zM495 0h-461l128 730h451l-17 -95h-349l-37 -213h328l-16 -95h-328l-41 -227h359z" />
    <glyph glyph-name="edotaccent" unicode="&#x117;" horiz-adv-x="637" 
d="M379 660q-22 0 -36.5 14.5t-14.5 35.5q0 28 22 49.5t50 21.5q21 0 35.5 -14.5t14.5 -34.5q0 -28 -22 -50t-49 -22zM293 -8q-110 0 -183 70.5t-73 173.5q0 131 93.5 226t229.5 95q115 0 184 -74t56 -189q-1 -21 -11 -61h-450q-1 -66 45 -107.5t113 -41.5q105 0 174 72
l70 -52q-104 -112 -248 -112zM150 308h353q8 71 -32 115.5t-113 44.5q-75 0 -133 -45t-75 -115z" />
    <glyph glyph-name="Eogonek" unicode="&#x118;" horiz-adv-x="603" 
d="M421 -219q-30 0 -49.5 19.5t-19.5 51.5q0 5 2 19q4 24 19.5 50.5t25.5 38.5t35 40h-400l128 730h451l-17 -95h-349l-37 -213h328l-16 -95h-328l-41 -227h359l-17 -100q-59 -68 -70 -90q-6 -12 -8 -23v-9q0 -13 7 -22t19 -9q23 0 45 22l21 -45q-35 -43 -88 -43z" />
    <glyph glyph-name="eogonek" unicode="&#x119;" horiz-adv-x="652" 
d="M465 -114q-31 0 -50.5 20t-19.5 52q0 27 18 59q-59 -25 -120 -25q-110 0 -183 70.5t-73 173.5q0 131 93.5 226t229.5 95q115 0 184 -74t56 -189q-1 -21 -11 -61h-450q-1 -66 45 -107.5t113 -41.5q105 0 174 72l70 -52q-81 -81 -81 -122q0 -13 7.5 -21.5t19.5 -8.5
q25 0 44 23l21 -45q-35 -44 -87 -44zM150 308h353q8 71 -32 115.5t-113 44.5q-75 0 -133 -45t-75 -115z" />
    <glyph glyph-name="Ecaron" unicode="&#x11a;" horiz-adv-x="591" 
d="M442 827h-86l-83 127h83l52 -76l79 76h83zM495 0h-461l128 730h451l-17 -95h-349l-37 -213h328l-16 -95h-328l-41 -227h359z" />
    <glyph glyph-name="ecaron" unicode="&#x11b;" horiz-adv-x="637" 
d="M421 657h-86l-84 127h83l52 -76l80 76h83zM293 -8q-110 0 -183 70.5t-73 173.5q0 131 93.5 226t229.5 95q115 0 184 -74t56 -189q-1 -21 -11 -61h-450q-1 -66 45 -107.5t113 -41.5q105 0 174 72l70 -52q-104 -112 -248 -112zM150 308h353q8 71 -32 115.5t-113 44.5
q-75 0 -133 -45t-75 -115z" />
    <glyph glyph-name="Gcircumflex" unicode="&#x11c;" horiz-adv-x="841" 
d="M453 827h-83l129 127h86l83 -127h-83l-52 76zM387 -12q-139 0 -232 92.5t-93 228.5q0 178 128.5 304.5t308.5 126.5q91 0 166.5 -39.5t115.5 -106.5l-100 -56q-30 45 -79.5 71t-110.5 26q-127 0 -225 -96.5t-98 -220.5q0 -97 64.5 -160.5t163.5 -63.5q105 0 183.5 62.5
t104.5 164.5h-273l17 95h385q0 -27 -4 -51q-30 -169 -144 -273t-278 -104z" />
    <glyph glyph-name="gcircumflex" unicode="&#x11d;" 
d="M325 657h-83l128 127h86l83 -127h-83l-52 76zM229 -230q-71 0 -133.5 30t-92.5 80l81 55q23 -34 65 -52.5t90 -18.5q86 0 151.5 53.5t84.5 155.5l8 39q-36 -53 -95 -86t-126 -33q-99 0 -162.5 70t-63.5 170q0 131 92 228t224 97q67 0 120.5 -35.5t69.5 -88.5l25 116h90
l-82 -464q-27 -157 -116.5 -236.5t-229.5 -79.5zM292 90q87 0 154.5 66t67.5 152q0 66 -44 110t-112 44q-89 0 -155 -66.5t-66 -152.5q0 -66 43.5 -109.5t111.5 -43.5z" />
    <glyph glyph-name="Gbreve" unicode="&#x11e;" horiz-adv-x="841" 
d="M517 817q-65 0 -105 43t-32 104h60q-5 -38 18 -63t63 -25q38 0 70 25t41 63h59q-14 -63 -63 -105t-111 -42zM387 -12q-139 0 -232 92.5t-93 228.5q0 178 128.5 304.5t308.5 126.5q91 0 166.5 -39.5t115.5 -106.5l-100 -56q-30 45 -79.5 71t-110.5 26q-127 0 -225 -96.5
t-98 -220.5q0 -97 64.5 -160.5t163.5 -63.5q105 0 183.5 62.5t104.5 164.5h-273l17 95h385q0 -27 -4 -51q-30 -169 -144 -273t-278 -104z" />
    <glyph glyph-name="gbreve" unicode="&#x11f;" 
d="M386 647q-64 0 -103 43.5t-30 103.5h59q-2 -42 20 -65t61 -23q38 0 70 25t42 63h59q-14 -63 -65 -105t-113 -42zM229 -230q-71 0 -133.5 30t-92.5 80l81 55q23 -34 65 -52.5t90 -18.5q86 0 151.5 53.5t84.5 155.5l8 39q-36 -53 -95 -86t-126 -33q-99 0 -162.5 70
t-63.5 170q0 131 92 228t224 97q67 0 120.5 -35.5t69.5 -88.5l25 116h90l-82 -464q-27 -157 -116.5 -236.5t-229.5 -79.5zM292 90q87 0 154.5 66t67.5 152q0 66 -44 110t-112 44q-89 0 -155 -66.5t-66 -152.5q0 -66 43.5 -109.5t111.5 -43.5z" />
    <glyph glyph-name="Gdotaccent" unicode="&#x120;" horiz-adv-x="841" 
d="M513 830q-22 0 -36.5 14.5t-14.5 35.5q0 28 22 49.5t50 21.5q22 0 36 -14.5t14 -34.5q0 -28 -22 -50t-49 -22zM387 -12q-139 0 -232 92.5t-93 228.5q0 178 128.5 304.5t308.5 126.5q91 0 166.5 -39.5t115.5 -106.5l-100 -56q-30 45 -79.5 71t-110.5 26q-127 0 -225 -96.5
t-98 -220.5q0 -97 64.5 -160.5t163.5 -63.5q105 0 183.5 62.5t104.5 164.5h-273l17 95h385q0 -27 -4 -51q-30 -169 -144 -273t-278 -104z" />
    <glyph glyph-name="gdotaccent" unicode="&#x121;" 
d="M385 660q-22 0 -36.5 14.5t-14.5 35.5q0 28 22 49.5t50 21.5q22 0 36 -14.5t14 -34.5q0 -28 -22 -50t-49 -22zM229 -230q-71 0 -133.5 30t-92.5 80l81 55q23 -34 65 -52.5t90 -18.5q86 0 151.5 53.5t84.5 155.5l8 39q-36 -53 -95 -86t-126 -33q-99 0 -162.5 70t-63.5 170
q0 131 92 228t224 97q67 0 120.5 -35.5t69.5 -88.5l25 116h90l-82 -464q-27 -157 -116.5 -236.5t-229.5 -79.5zM292 90q87 0 154.5 66t67.5 152q0 66 -44 110t-112 44q-89 0 -155 -66.5t-66 -152.5q0 -66 43.5 -109.5t111.5 -43.5z" />
    <glyph glyph-name="uni0122" unicode="&#x122;" horiz-adv-x="841" 
d="M387 -12q-139 0 -232 92.5t-93 228.5q0 178 128.5 304.5t308.5 126.5q91 0 166.5 -39.5t115.5 -106.5l-100 -56q-30 45 -79.5 71t-110.5 26q-127 0 -225 -96.5t-98 -220.5q0 -97 64.5 -160.5t163.5 -63.5q105 0 183.5 62.5t104.5 164.5h-273l17 95h385q0 -27 -4 -51
q-30 -169 -144 -273t-278 -104zM361 -205h-77l46 156h89z" />
    <glyph glyph-name="uni0123" unicode="&#x123;" 
d="M431 652h-90l58 156h77zM229 -230q-71 0 -133.5 30t-92.5 80l81 55q23 -34 65 -52.5t90 -18.5q86 0 151.5 53.5t84.5 155.5l8 39q-36 -53 -95 -86t-126 -33q-99 0 -162.5 70t-63.5 170q0 131 92 228t224 97q67 0 120.5 -35.5t69.5 -88.5l25 116h90l-82 -464
q-27 -157 -116.5 -236.5t-229.5 -79.5zM292 90q87 0 154.5 66t67.5 152q0 66 -44 110t-112 44q-89 0 -155 -66.5t-66 -152.5q0 -66 43.5 -109.5t111.5 -43.5z" />
    <glyph glyph-name="Hcircumflex" unicode="&#x124;" horiz-adv-x="732" 
d="M401 827h-83l128 127h86l83 -127h-83l-52 76zM137 0h-103l128 730h103l-56 -315h363l55 315h103l-128 -730h-103l54 312h-362z" />
    <glyph glyph-name="hcircumflex" unicode="&#x125;" horiz-adv-x="627" 
d="M252 827h-83l128 127h86l83 -127h-83l-52 76zM124 0h-98l137 780h98l-58 -325q32 46 81.5 74.5t107.5 28.5q110 0 153.5 -76t22.5 -202l-49 -280h-97l49 280q13 83 -17 132.5t-100 49.5q-65 0 -115.5 -46t-65.5 -136z" />
    <glyph glyph-name="Hbar" unicode="&#x126;" horiz-adv-x="736" 
d="M140 0h-103l101 578h-40l12 69h40l15 83h103l-15 -83h363l14 83h103l-14 -83h38l-12 -69h-38l-102 -578h-103l54 312h-362zM241 578l-29 -163h363l29 163h-363z" />
    <glyph glyph-name="hbar" unicode="&#x127;" horiz-adv-x="624" 
d="M121 0h-97l111 636h-67l12 69h67l14 75h97l-13 -75h150l-12 -69h-150l-32 -181q32 46 81 74.5t108 28.5q110 0 153 -76t23 -202l-49 -280h-98l49 280q13 83 -16.5 132.5t-100.5 49.5q-64 0 -114.5 -46t-66.5 -136z" />
    <glyph glyph-name="Itilde" unicode="&#x128;" horiz-adv-x="266" 
d="M302 827q-24 -1 -43 9.5t-28.5 23.5t-21.5 24t-24 11q-29 0 -40 -57h-66q9 51 38 84t69 34q24 1 42.5 -9.5t27.5 -24t21.5 -24.5t24.5 -11q27 2 37 57h66q-10 -53 -37 -84.5t-66 -32.5zM137 0h-103l128 730h103z" />
    <glyph glyph-name="itilde" unicode="&#x129;" horiz-adv-x="240" 
d="M253 657q-28 0 -48 17t-34.5 34t-27.5 17q-32 0 -42 -57h-65q9 52 39 85t72 33q22 0 39 -11t26.5 -23.5t21 -23.5t23.5 -11q29 0 38 57h66q-10 -55 -38 -86t-70 -31zM121 0h-97l96 550h97z" />
    <glyph glyph-name="Imacron" unicode="&#x12a;" horiz-adv-x="266" 
d="M417 850h-365l14 81h365zM137 0h-103l128 730h103z" />
    <glyph glyph-name="imacron" unicode="&#x12b;" horiz-adv-x="240" 
d="M336 680h-287l14 81h287zM121 0h-97l96 550h97z" />
    <glyph glyph-name="Ibreve" unicode="&#x12c;" horiz-adv-x="265" 
d="M234 817q-64 0 -104 43.5t-32 103.5h60q-4 -37 19 -62.5t62 -25.5q38 0 70 25t41 63h59q-14 -63 -62.5 -105t-112.5 -42zM132 0h-103l128 730h103z" />
    <glyph glyph-name="ibreve" unicode="&#x12d;" horiz-adv-x="240" 
d="M196 662q-61 0 -97 36.5t-28 80.5h66q-4 -20 13.5 -37t50.5 -17q34 0 55.5 16.5t24.5 37.5h65q-8 -47 -49.5 -82t-100.5 -35zM121 0h-97l96 550h97z" />
    <glyph glyph-name="Iogonek" unicode="&#x12e;" horiz-adv-x="266" 
d="M68 -219q-35 0 -55 25.5t-13 64.5q3 14 8.5 28t10.5 23t15.5 22.5t15 19t17.5 19.5t16 17h-49l128 730h103l-128 -730q-67 -78 -73 -113q-3 -17 4.5 -28.5t21.5 -11.5q24 0 44 22l22 -45q-37 -43 -88 -43z" />
    <glyph glyph-name="iogonek" unicode="&#x12f;" horiz-adv-x="240" 
d="M180 606q-22 0 -37 15t-15 37q0 28 22.5 50t50.5 22q22 0 36.5 -14.5t14.5 -35.5q0 -29 -22.5 -51.5t-49.5 -22.5zM48 -219q-30 0 -50 19.5t-20 51.5q0 5 2 19q4 20 15 40.5t20.5 32t28.5 31t24 25.5h-44l96 550h97l-96 -550q-3 -4 -13 -15.5t-13 -15t-11 -13
t-10.5 -13.5t-8.5 -11.5t-8 -12t-5.5 -10.5t-5 -11.5t-2.5 -10.5v-9q0 -13 7 -22t19 -9q23 0 45 22l21 -45q-37 -43 -88 -43z" />
    <glyph glyph-name="Idotaccent" unicode="&#x130;" horiz-adv-x="273" 
d="M234 830q-22 0 -36.5 14.5t-14.5 35.5q0 28 22 49.5t50 21.5q21 0 35.5 -14.5t14.5 -34.5q0 -28 -22 -50t-49 -22zM140 0h-103l128 730h103z" />
    <glyph glyph-name="dotlessi" unicode="&#x131;" horiz-adv-x="240" 
d="M121 0h-97l96 550h97z" />
    <glyph glyph-name="IJ" unicode="&#x132;" horiz-adv-x="748" 
d="M137 0h-103l128 730h103zM388 -8q-104 0 -157 77l86 64q34 -39 88 -39q63 0 107.5 43t57.5 115l84 478h103l-84 -478q-21 -119 -100 -189.5t-185 -70.5z" />
    <glyph glyph-name="ij" unicode="&#x133;" horiz-adv-x="509" 
d="M180 606q-22 0 -37 15t-15 37q0 28 22.5 50t50.5 22q22 0 36.5 -14.5t14.5 -35.5q0 -29 -22.5 -51.5t-49.5 -22.5zM448 606q-22 0 -37 15t-15 37q0 28 23 50t51 22q22 0 36.5 -14.5t14.5 -35.5q0 -29 -22.5 -51.5t-50.5 -22.5zM121 0h-97l96 550h97zM159 -231
q-44 0 -78 14l42 90q21 -8 40 -8q106 0 131 143l95 542h97l-95 -542q-22 -124 -84.5 -181.5t-147.5 -57.5z" />
    <glyph glyph-name="Jcircumflex" unicode="&#x134;" horiz-adv-x="500" 
d="M351 827h-83l128 127h86l83 -127h-83l-52 76zM147 -8q-104 0 -159 77l87 64q34 -39 88 -39q63 0 107.5 43t57.5 115l84 478h103l-84 -478q-21 -119 -99.5 -189.5t-184.5 -70.5z" />
    <glyph glyph-name="jcircumflex" unicode="&#x135;" horiz-adv-x="267" 
d="M131 657h-83l128 127h86l84 -127h-83l-53 76zM-84 -231q-43 0 -77 14l42 90q19 -8 40 -8q106 0 131 143l95 542h97l-95 -542q-22 -124 -84 -181.5t-149 -57.5z" />
    <glyph glyph-name="uni0136" unicode="&#x136;" horiz-adv-x="656" 
d="M137 0h-103l128 730h103l-62 -352l371 352h119l-309 -301l206 -429h-121l-166 336l-128 -116zM268 -205h-76l45 156h89z" />
    <glyph glyph-name="uni0137" unicode="&#x137;" horiz-adv-x="577" 
d="M117 0h-93l137 780h93l-84 -476l289 246h116l-248 -219l180 -331h-115l-141 258l-104 -86zM217 -201h-77l46 156h89z" />
    <glyph glyph-name="kgreenlandic" unicode="&#x138;" horiz-adv-x="579" 
d="M117 0h-93l96 550h93l-42 -239l281 239h123l-247 -218l180 -332h-119l-140 256l-102 -84z" />
    <glyph glyph-name="Lacute" unicode="&#x139;" horiz-adv-x="575" 
d="M420 810h-64l87 160h89zM505 0h-471l128 730h103l-111 -627h368z" />
    <glyph glyph-name="lacute" unicode="&#x13a;" horiz-adv-x="240" 
d="M255 845h-64l87 160h89zM121 0h-97l137 780h97z" />
    <glyph glyph-name="uni013B" unicode="&#x13b;" horiz-adv-x="575" 
d="M505 0h-471l128 730h103l-111 -627h368zM246 -205h-77l45 156h90z" />
    <glyph glyph-name="uni013C" unicode="&#x13c;" horiz-adv-x="240" 
d="M121 0h-97l137 780h97zM49 -201h-77l46 156h90z" />
    <glyph glyph-name="Lcaron" unicode="&#x13d;" horiz-adv-x="585" 
d="M505 0h-471l128 730h103l-111 -627h368zM396 487h-68l90 243h89z" />
    <glyph glyph-name="lcaron" unicode="&#x13e;" horiz-adv-x="322" 
d="M351 568h-69l28 214h89zM121 0h-97l137 780h97z" />
    <glyph glyph-name="Ldot" unicode="&#x13f;" horiz-adv-x="575" 
d="M505 0h-471l128 730h103l-111 -627h368zM372 340q-22 0 -36 14t-14 36q0 28 22 49.5t50 21.5q21 0 35 -14.5t14 -35.5q0 -28 -22 -49.5t-49 -21.5z" />
    <glyph glyph-name="ldot" unicode="&#x140;" horiz-adv-x="336" 
d="M121 0h-97l137 780h97zM276 340q-22 0 -36.5 14t-14.5 36q0 28 22.5 49.5t49.5 21.5q22 0 36 -14.5t14 -35.5q0 -28 -22 -49.5t-49 -21.5z" />
    <glyph glyph-name="Lslash" unicode="&#x141;" horiz-adv-x="574" 
d="M503 0h-466l52 295l-66 -35l13 75l66 35l63 360h103l-52 -301l201 106l-14 -75l-201 -106l-45 -259h363z" />
    <glyph glyph-name="lslash" unicode="&#x142;" horiz-adv-x="269" 
d="M136 0h-98l58 330l-68 -35l13 74l68 36l66 375h98l-56 -319l67 36l-13 -75l-68 -36z" />
    <glyph glyph-name="Nacute" unicode="&#x143;" horiz-adv-x="778" 
d="M488 810h-64l87 160h89zM137 0h-103l128 730h103l312 -549l96 549h104l-128 -730h-104l-312 550z" />
    <glyph glyph-name="nacute" unicode="&#x144;" horiz-adv-x="624" 
d="M400 640h-64l87 160h90zM121 0h-97l96 550h90l-12 -97q32 47 82 76t110 29q101 0 150.5 -70.5t25.5 -207.5l-49 -280h-98l49 280q16 89 -18 135.5t-99 46.5q-64 0 -114.5 -46t-66.5 -136z" />
    <glyph glyph-name="uni0145" unicode="&#x145;" horiz-adv-x="778" 
d="M137 0h-103l128 730h103l312 -549l96 549h104l-128 -730h-104l-312 550zM319 -201h-76l45 156h90z" />
    <glyph glyph-name="uni0146" unicode="&#x146;" horiz-adv-x="624" 
d="M121 0h-97l96 550h90l-12 -97q32 47 82 76t110 29q101 0 150.5 -70.5t25.5 -207.5l-49 -280h-98l49 280q16 89 -18 135.5t-99 46.5q-64 0 -114.5 -46t-66.5 -136zM251 -201h-76l45 156h90z" />
    <glyph glyph-name="Ncaron" unicode="&#x147;" horiz-adv-x="778" 
d="M527 827h-86l-83 127h83l52 -76l79 76h83zM137 0h-103l128 730h103l312 -549l96 549h104l-128 -730h-104l-312 550z" />
    <glyph glyph-name="ncaron" unicode="&#x148;" horiz-adv-x="624" 
d="M428 657h-86l-83 127h83l52 -76l80 76h83zM121 0h-97l96 550h90l-12 -97q32 47 82 76t110 29q101 0 150.5 -70.5t25.5 -207.5l-49 -280h-98l49 280q16 89 -18 135.5t-99 46.5q-64 0 -114.5 -46t-66.5 -136z" />
    <glyph glyph-name="napostrophe" unicode="&#x149;" horiz-adv-x="720" 
d="M94 389h-67l90 244h89zM217 0h-98l96 550h90l-11 -97q32 46 82 75.5t109 29.5q101 0 150.5 -70.5t25.5 -207.5l-49 -280h-97l49 280q15 89 -19 135.5t-98 46.5q-65 0 -115.5 -46t-65.5 -136z" />
    <glyph glyph-name="Eng" unicode="&#x14a;" horiz-adv-x="778" 
d="M432 -152l18 104q58 0 88 63l-305 535l-96 -550h-103l128 730l103 -1l312 -547l96 548h104l-118 -665q-19 -105 -80 -161t-147 -56z" />
    <glyph glyph-name="eng" unicode="&#x14b;" horiz-adv-x="636" 
d="M311 -152l18 104q88 0 108 124l37 204q16 89 -18.5 135.5t-98.5 46.5q-65 0 -115 -46t-66 -136l-49 -280h-98l96 550h90l-11 -97q32 47 82 76t110 29q101 0 150 -70.5t25 -207.5l-39 -223q-21 -104 -78 -156.5t-143 -52.5z" />
    <glyph glyph-name="Omacron" unicode="&#x14c;" horiz-adv-x="854" 
d="M709 850h-365l14 81h365zM388 -12q-143 0 -234.5 91.5t-91.5 228.5q0 116 55.5 214.5t156.5 158t225 59.5q143 0 234.5 -91.5t91.5 -227.5q0 -177 -125 -305t-312 -128zM396 94q133 0 227 95.5t94 223.5q0 95 -64 158.5t-162 63.5q-134 0 -228.5 -95.5t-94.5 -221.5
q0 -97 64.5 -160.5t163.5 -63.5z" />
    <glyph glyph-name="omacron" unicode="&#x14d;" horiz-adv-x="646" 
d="M576 680h-365l14 81h365zM280 -8q-107 0 -175 70t-68 174q0 131 94.5 226t235.5 95q105 0 174 -70t69 -172q0 -130 -95 -226.5t-235 -96.5zM291 92q91 0 154.5 64.5t63.5 150.5q0 65 -43 108t-110 43q-93 0 -156 -64t-63 -151q0 -65 43 -108t111 -43z" />
    <glyph glyph-name="Obreve" unicode="&#x14e;" horiz-adv-x="854" 
d="M519 817q-64 0 -101.5 43t-29.5 104h60q-5 -37 18 -62.5t63 -25.5q38 0 70 25t41 63h59q-13 -62 -65.5 -104.5t-114.5 -42.5zM388 -12q-143 0 -234.5 91.5t-91.5 228.5q0 116 55.5 214.5t156.5 158t225 59.5q143 0 234.5 -91.5t91.5 -227.5q0 -177 -125 -305t-312 -128z
M396 94q133 0 227 95.5t94 223.5q0 95 -64 158.5t-162 63.5q-134 0 -228.5 -95.5t-94.5 -221.5q0 -97 64.5 -160.5t163.5 -63.5z" />
    <glyph glyph-name="obreve" unicode="&#x14f;" horiz-adv-x="647" 
d="M387 647q-65 0 -105 43.5t-31 103.5h59q-4 -41 19 -64.5t62 -23.5q38 0 70 25t42 63h59q-14 -63 -63.5 -105t-111.5 -42zM281 -8q-107 0 -175.5 70.5t-68.5 173.5q0 134 94 227.5t236 93.5q105 0 174 -70t69 -172q0 -133 -94 -228t-235 -95zM291 92q92 0 155.5 64.5
t63.5 150.5q0 65 -43.5 108t-110.5 43q-93 0 -156 -64t-63 -151q0 -65 43 -108t111 -43z" />
    <glyph glyph-name="Ohungarumlaut" unicode="&#x150;" horiz-adv-x="854" 
d="M430 794h-63l120 192h87zM621 794h-63l120 192h86zM388 -12q-143 0 -234.5 91.5t-91.5 228.5q0 116 55.5 214.5t156.5 158t225 59.5q143 0 234.5 -91.5t91.5 -227.5q0 -177 -125 -305t-312 -128zM396 94q133 0 227 95.5t94 223.5q0 95 -64 158.5t-162 63.5
q-134 0 -228.5 -95.5t-94.5 -221.5q0 -97 64.5 -160.5t163.5 -63.5z" />
    <glyph glyph-name="ohungarumlaut" unicode="&#x151;" horiz-adv-x="646" 
d="M294 624h-63l120 192h86zM485 624h-63l120 192h86zM280 -8q-107 0 -175 70t-68 174q0 131 94.5 226t235.5 95q105 0 174 -70t69 -172q0 -130 -95 -226.5t-235 -96.5zM291 92q91 0 154.5 64.5t63.5 150.5q0 65 -43 108t-110 43q-93 0 -156 -64t-63 -151q0 -65 43 -108
t111 -43z" />
    <glyph glyph-name="OE" unicode="&#x152;" horiz-adv-x="1017" 
d="M376 -12q-137 0 -226 93t-89 228q0 113 63 213t166.5 159t218.5 59q46 0 85 -10h444l-17 -95h-348l-37 -213h328l-17 -95h-328l-40 -227h358l-17 -100h-449q-47 -12 -95 -12zM395 94q43 0 83 17l90 507q-36 17 -78 17q-127 0 -224.5 -96.5t-97.5 -220.5q0 -97 64 -160.5
t163 -63.5z" />
    <glyph glyph-name="oe" unicode="&#x153;" horiz-adv-x="1102" 
d="M278 -8q-107 0 -175 67.5t-68 170.5q0 130 100 228.5t232 98.5q75 0 130.5 -38.5t77.5 -102.5q43 66 111 103.5t144 37.5q114 0 182 -77t54 -183q-1 -26 -14 -70h-444q1 -63 47 -103t111 -40q95 0 168 71l71 -49q-49 -53 -115 -83.5t-135 -30.5q-80 0 -141.5 40
t-83.5 103q-43 -64 -110.5 -103.5t-141.5 -39.5zM620 308h345q14 61 -25.5 110.5t-115.5 49.5q-70 0 -129 -46t-75 -114zM289 92q85 0 152 65.5t67 149.5q0 65 -43 108t-111 43q-86 0 -152 -65t-66 -150q0 -65 42.5 -108t110.5 -43z" />
    <glyph glyph-name="Racute" unicode="&#x154;" horiz-adv-x="641" 
d="M407 808h-64l87 160h89zM137 0h-103l128 730h270q112 0 170.5 -66t41.5 -163q-14 -77 -70 -135.5t-134 -76.5l129 -289h-120l-119 271h-146zM247 629l-45 -257h172q64 0 109.5 37.5t55.5 91.5q9 53 -23.5 90.5t-96.5 37.5h-172z" />
    <glyph glyph-name="racute" unicode="&#x155;" horiz-adv-x="405" 
d="M282 640h-63l87 160h89zM121 0h-97l96 550h90l-9 -90q62 92 190 92q28 0 41 -2l-37 -94q-5 1 -19 1q-77 0 -134.5 -48.5t-76.5 -154.5z" />
    <glyph glyph-name="uni0156" unicode="&#x156;" horiz-adv-x="641" 
d="M137 0h-103l128 730h270q112 0 170.5 -66t41.5 -163q-14 -77 -70 -135.5t-134 -76.5l129 -289h-120l-119 271h-146zM247 629l-45 -257h172q64 0 109.5 37.5t55.5 91.5q9 53 -23.5 90.5t-96.5 37.5h-172zM218 -207h-75l75 161h90z" />
    <glyph glyph-name="uni0157" unicode="&#x157;" horiz-adv-x="405" 
d="M121 0h-97l96 550h90l-9 -90q63 93 190 93q21 0 41 -3l-37 -94q-5 1 -19 1q-77 0 -134.5 -48.5t-76.5 -154.5zM48 -201h-77l46 156h89z" />
    <glyph glyph-name="Rcaron" unicode="&#x158;" horiz-adv-x="641" 
d="M444 827h-86l-83 127h83l52 -76l80 76h83zM137 0h-103l128 730h270q112 0 170.5 -66t41.5 -163q-14 -77 -70 -135.5t-134 -76.5l129 -289h-120l-119 271h-146zM247 629l-45 -257h172q64 0 109.5 37.5t55.5 91.5q9 53 -23.5 90.5t-96.5 37.5h-172z" />
    <glyph glyph-name="rcaron" unicode="&#x159;" horiz-adv-x="408" 
d="M340 657h-86l-83 127h83l52 -76l79 76h83zM124 0h-97l96 550h90l-9 -90q63 93 190 93q21 0 41 -3l-37 -94q-5 1 -19 1q-77 0 -134.5 -48.5t-76.5 -154.5z" />
    <glyph glyph-name="Sacute" unicode="&#x15a;" horiz-adv-x="610" 
d="M397 810h-63l86 160h90zM274 -11q-76 0 -145 28t-113 87l76 66q70 -85 191 -86q73 0 119 33.5t46 92.5q0 42 -35.5 72t-86 49.5t-100.5 41t-85.5 61.5t-35.5 97q0 97 72.5 154t187.5 57q68 0 136 -29.5t102 -88.5l-82 -57q-20 36 -65 57.5t-94 22.5q-70 1 -112 -29.5
t-42 -76.5q0 -35 35.5 -60.5t86 -44t101 -41t86 -65t35.5 -103.5q0 -112 -77.5 -175.5t-200.5 -62.5z" />
    <glyph glyph-name="sacute" unicode="&#x15b;" horiz-adv-x="556" 
d="M342 640h-64l88 160h89zM251 -10q-68 0 -136.5 24t-103.5 72l77 63q21 -30 70 -48.5t102 -18.5q58 0 94.5 21t36.5 60q0 23 -22.5 39.5t-57 25t-74 21.5t-74 27.5t-57 43.5t-22.5 69q0 80 61.5 125t163.5 45q64 0 124.5 -21t93.5 -70l-71 -59q-20 32 -64 47t-89 15
q-54 0 -87 -17.5t-33 -51.5q0 -24 31.5 -40.5t77 -28t91 -27t77 -48t31.5 -81.5q0 -90 -67.5 -138.5t-172.5 -48.5z" />
    <glyph glyph-name="Scircumflex" unicode="&#x15c;" horiz-adv-x="610" 
d="M324 827h-83l129 127h86l83 -127h-83l-52 76zM274 -11q-76 0 -145 28t-113 87l76 66q70 -85 191 -86q73 0 119 33.5t46 92.5q0 42 -35.5 72t-86 49.5t-100.5 41t-85.5 61.5t-35.5 97q0 97 72.5 154t187.5 57q68 0 136 -29.5t102 -88.5l-82 -57q-20 36 -65 57.5t-94 22.5
q-70 1 -112 -29.5t-42 -76.5q0 -35 35.5 -60.5t86 -44t101 -41t86 -65t35.5 -103.5q0 -112 -77.5 -175.5t-200.5 -62.5z" />
    <glyph glyph-name="scircumflex" unicode="&#x15d;" horiz-adv-x="556" 
d="M271 657h-83l128 127h86l83 -127h-83l-52 76zM251 -10q-68 0 -136.5 24t-103.5 72l77 63q21 -30 70 -48.5t102 -18.5q58 0 94.5 21t36.5 60q0 23 -22.5 39.5t-57 25t-74 21.5t-74 27.5t-57 43.5t-22.5 69q0 80 61.5 125t163.5 45q64 0 124.5 -21t93.5 -70l-71 -59
q-20 32 -64 47t-89 15q-54 0 -87 -17.5t-33 -51.5q0 -24 31.5 -40.5t77 -28t91 -27t77 -48t31.5 -81.5q0 -90 -67.5 -138.5t-172.5 -48.5z" />
    <glyph glyph-name="Scedilla" unicode="&#x15e;" horiz-adv-x="610" 
d="M220 -220q-62 0 -92 24l33 55q18 -18 61 -18q26 0 41 12t16 30q0 30 -53 30h-36l39 79q-142 18 -213 112l76 66q70 -85 191 -86q73 0 119 33.5t46 92.5q0 42 -35.5 72t-86 49.5t-100.5 41t-85.5 61.5t-35.5 97q0 97 72.5 154t187.5 57q68 0 136 -29.5t102 -88.5l-82 -57
q-20 36 -65 57.5t-94 22.5q-70 1 -112 -29.5t-42 -76.5q0 -35 35.5 -60.5t86 -44t101 -41t86 -65t35.5 -103.5q0 -107 -72 -170t-188 -68l-18 -36q70 -9 70 -67q0 -44 -37 -75t-87 -31z" />
    <glyph glyph-name="scedilla" unicode="&#x15f;" horiz-adv-x="556" 
d="M208 -220q-68 0 -96 24l32 55q20 -18 61 -18q26 0 41 12t16 30q0 30 -53 30h-36l36 79q-141 16 -198 94l77 63q21 -30 70 -48.5t102 -18.5q58 0 94.5 21t36.5 60q0 23 -22.5 39.5t-57 25t-74 21.5t-74 27.5t-57 43.5t-22.5 69q0 80 61.5 125t163.5 45q64 0 124.5 -21
t93.5 -70l-71 -59q-20 32 -64 47t-89 15q-54 0 -87 -17.5t-33 -51.5q0 -24 31.5 -40.5t77 -28t91 -27t77 -48t31.5 -81.5q0 -85 -60.5 -132.5t-156.5 -53.5l-17 -38q34 -4 52 -24t18 -48q0 -44 -34.5 -72.5t-84.5 -28.5z" />
    <glyph glyph-name="Scaron" unicode="&#x160;" horiz-adv-x="610" 
d="M435 827h-86l-83 127h83l52 -76l80 76h83zM274 -11q-76 0 -145 28t-113 87l76 66q70 -85 191 -86q73 0 119 33.5t46 92.5q0 42 -35.5 72t-86 49.5t-100.5 41t-85.5 61.5t-35.5 97q0 97 72.5 154t187.5 57q68 0 136 -29.5t102 -88.5l-82 -57q-20 36 -65 57.5t-94 22.5
q-70 1 -112 -29.5t-42 -76.5q0 -35 35.5 -60.5t86 -44t101 -41t86 -65t35.5 -103.5q0 -112 -77.5 -175.5t-200.5 -62.5z" />
    <glyph glyph-name="scaron" unicode="&#x161;" horiz-adv-x="556" 
d="M387 657h-86l-83 127h83l52 -76l79 76h83zM251 -10q-68 0 -136.5 24t-103.5 72l77 63q21 -30 70 -48.5t102 -18.5q58 0 94.5 21t36.5 60q0 23 -22.5 39.5t-57 25t-74 21.5t-74 27.5t-57 43.5t-22.5 69q0 80 61.5 125t163.5 45q64 0 124.5 -21t93.5 -70l-71 -59
q-20 32 -64 47t-89 15q-54 0 -87 -17.5t-33 -51.5q0 -24 31.5 -40.5t77 -28t91 -27t77 -48t31.5 -81.5q0 -90 -67.5 -138.5t-172.5 -48.5z" />
    <glyph glyph-name="uni0162" unicode="&#x162;" horiz-adv-x="594" 
d="M205 -220q-60 0 -90 24l33 55q17 -17 61 -17q26 0 41 11.5t16 29.5q0 31 -53 31h-36l44 86h-23l110 631h-223l18 99h549l-18 -99h-222l-111 -631h-18l-22 -47q70 -9 70 -66q0 -45 -38 -76t-88 -31z" />
    <glyph glyph-name="uni0163" unicode="&#x163;" horiz-adv-x="394" 
d="M113 -220q-61 0 -89 24l33 55q18 -18 60 -18q26 0 41 11.5t16 29.5q0 31 -53 31h-35l47 109q-74 54 -49 183l46 257h-74l15 88h77l44 180h82l-32 -180h132l-15 -88h-132l-45 -256q-19 -120 79 -120q24 0 44 7l9 -87q-38 -15 -77 -15q-25 0 -44 6l-23 -44q70 -9 70 -67
q0 -44 -38.5 -75t-88.5 -31z" />
    <glyph glyph-name="Tcaron" unicode="&#x164;" horiz-adv-x="594" 
d="M438 827h-86l-84 127h83l52 -76l80 76h83zM301 0h-103l110 631h-223l18 99h549l-18 -99h-222z" />
    <glyph glyph-name="tcaron" unicode="&#x165;" horiz-adv-x="400" 
d="M375 613h-68l27 213h90zM232 -9q-92 0 -129 59t-19 155l46 257h-74l15 88h77l44 180h82l-32 -180h132l-15 -88h-132l-45 -256q-19 -120 79 -120q24 0 44 7l9 -87q-36 -15 -82 -15z" />
    <glyph glyph-name="Tbar" unicode="&#x166;" horiz-adv-x="594" 
d="M301 0h-103l52 299h-131l14 81h132l43 251h-223l18 99h549l-18 -99h-222l-44 -251h130l-14 -81h-131z" />
    <glyph glyph-name="tbar" unicode="&#x167;" horiz-adv-x="409" 
d="M235 -9q-80 0 -123.5 56t-26.5 138l15 83h-75l11 62h74l24 132h-74l15 88h77l43 180h83l-32 -180h132l-15 -88h-132l-23 -132h91l-10 -62h-90l-15 -79q-7 -50 14 -76.5t67 -26.5q25 0 43 7l10 -87q-38 -15 -83 -15z" />
    <glyph glyph-name="Utilde" unicode="&#x168;" horiz-adv-x="708" 
d="M516 827q-30 -2 -51.5 15.5t-36 35.5t-28.5 17q-30 -2 -40 -57h-66q9 51 38 84t69 34q24 1 42 -10t27.5 -24.5t21.5 -24.5t25 -10q27 2 37 57h66q-10 -53 -37 -84.5t-67 -32.5zM304 -11q-122 0 -188.5 79t-43.5 210l80 452h103l-80 -451q-15 -89 26 -137.5t119 -48.5
t138 48.5t76 137.5l79 451h104l-80 -452q-23 -130 -117.5 -209.5t-215.5 -79.5z" />
    <glyph glyph-name="utilde" unicode="&#x169;" horiz-adv-x="634" 
d="M449 657q-24 -1 -43 9.5t-29 24t-22 24.5t-23 10q-30 -2 -40 -57h-66q9 51 38.5 84t69.5 34q23 1 41.5 -10t28 -24.5t21.5 -24.5t24 -10q27 2 37 57h66q-10 -53 -37 -84.5t-66 -32.5zM239 -8q-101 0 -150.5 71t-25.5 208l49 279h98l-49 -279q-16 -90 18 -136t98 -46
q65 0 115.5 46t66.5 136l49 279h97l-96 -550h-90l11 98q-32 -47 -82 -76.5t-109 -29.5z" />
    <glyph glyph-name="Umacron" unicode="&#x16a;" horiz-adv-x="708" 
d="M637 850h-365l14 81h365zM304 -11q-126 0 -189.5 80.5t-42.5 208.5l80 452h103l-80 -451q-15 -85 24 -135.5t121 -50.5q78 0 138 48.5t76 137.5l79 451h104l-80 -452q-23 -130 -117.5 -209.5t-215.5 -79.5z" />
    <glyph glyph-name="umacron" unicode="&#x16b;" horiz-adv-x="634" 
d="M563 680h-365l14 81h365zM239 -8q-101 0 -150.5 71t-25.5 208l49 279h98l-49 -279q-16 -90 18 -136t98 -46q65 0 115.5 46t66.5 136l49 279h97l-96 -550h-90l11 98q-32 -47 -82 -76.5t-109 -29.5z" />
    <glyph glyph-name="Ubreve" unicode="&#x16c;" horiz-adv-x="708" 
d="M447 817q-64 0 -101.5 42.5t-29.5 104.5h60q-4 -38 19 -63t63 -25q38 0 70 25t40 63h60q-13 -62 -66 -104.5t-115 -42.5zM304 -11q-122 0 -188.5 79t-43.5 210l80 452h103l-80 -451q-15 -89 26 -137.5t119 -48.5t138 48.5t76 137.5l79 451h104l-80 -452
q-23 -130 -117.5 -209.5t-215.5 -79.5z" />
    <glyph glyph-name="ubreve" unicode="&#x16d;" horiz-adv-x="634" 
d="M373 647q-63 0 -100.5 42.5t-29.5 104.5h60q-4 -38 19 -63t62 -25q38 0 70 25t41 63h60q-14 -62 -67 -104.5t-115 -42.5zM239 -8q-101 0 -150.5 71t-25.5 208l49 279h98l-49 -279q-16 -90 18 -136t98 -46q65 0 115.5 46t66.5 136l49 279h97l-96 -550h-90l11 98
q-32 -47 -82 -76.5t-109 -29.5z" />
    <glyph glyph-name="Uring" unicode="&#x16e;" horiz-adv-x="708" 
d="M449 779q-47 0 -76 32t-21 79q10 48 49.5 80t86.5 32t75.5 -32t19.5 -80q-8 -47 -47.5 -79t-86.5 -32zM459 837q23 0 40.5 15.5t21.5 37.5q4 23 -8 39t-35 16q-22 0 -40 -16t-23 -39q-3 -23 9 -38t35 -15zM304 -11q-122 0 -188.5 79t-43.5 210l80 452h103l-80 -451
q-15 -89 26 -137.5t119 -48.5t138 48.5t76 137.5l79 451h104l-80 -452q-23 -130 -117.5 -209.5t-215.5 -79.5z" />
    <glyph glyph-name="uring" unicode="&#x16f;" horiz-adv-x="634" 
d="M370 609q-47 0 -76 32t-21 79q9 48 48.5 80t87.5 32q47 0 75.5 -32t19.5 -80q-8 -47 -47.5 -79t-86.5 -32zM380 667q23 0 40.5 15.5t21.5 37.5q4 23 -8.5 39t-34.5 16t-40 -16t-23 -39q-4 -23 8.5 -38t35.5 -15zM239 -8q-101 0 -150.5 71t-25.5 208l49 279h98l-49 -279
q-16 -90 18 -136t98 -46q65 0 115.5 46t66.5 136l49 279h97l-96 -550h-90l11 98q-32 -47 -82 -76.5t-109 -29.5z" />
    <glyph glyph-name="Uhungarumlaut" unicode="&#x170;" horiz-adv-x="708" 
d="M366 794h-62l120 192h86zM557 794h-62l120 192h86zM304 -11q-126 0 -189.5 80.5t-42.5 208.5l80 452h103l-80 -451q-15 -85 24 -135.5t121 -50.5q78 0 138 48.5t76 137.5l79 451h104l-80 -452q-23 -130 -117.5 -209.5t-215.5 -79.5z" />
    <glyph glyph-name="uhungarumlaut" unicode="&#x171;" horiz-adv-x="634" 
d="M284 624h-63l120 192h86zM474 624h-62l120 192h86zM239 -8q-101 0 -150.5 71t-25.5 208l49 279h98l-49 -279q-16 -90 18 -136t98 -46q65 0 115.5 46t66.5 136l49 279h97l-96 -550h-90l11 98q-32 -47 -82 -76.5t-109 -29.5z" />
    <glyph glyph-name="Uogonek" unicode="&#x172;" horiz-adv-x="708" 
d="M408 -177q-30 0 -49 20t-19 52q0 44 46 106q-38 -12 -82 -12q-126 0 -189.5 80.5t-42.5 208.5l80 452h103l-80 -451q-15 -85 24 -135.5t121 -50.5q78 0 138 48.5t76 137.5l79 451h104l-80 -452q-28 -158 -158 -239q-26 -28 -38 -41.5t-25 -35.5t-13 -40q0 -14 7.5 -23.5
t19.5 -9.5q27 0 45 22l21 -45q-33 -43 -88 -43z" />
    <glyph glyph-name="uogonek" unicode="&#x173;" horiz-adv-x="624" 
d="M432 -219q-35 0 -54.5 25.5t-12.5 64.5q3 17 9.5 32t17.5 30t18.5 23.5t23 24t18.5 19.5h-37l12 98q-33 -47 -82.5 -76.5t-109.5 -29.5q-101 0 -150.5 71t-25.5 208l49 279h98l-49 -279q-16 -90 18 -136t99 -46q64 0 114.5 46t66.5 136l49 279h97l-96 -550
q-3 -4 -13 -15.5t-13 -15t-11 -13t-10.5 -13.5t-8.5 -11.5t-8 -12t-5.5 -10.5t-5 -11.5t-2.5 -10.5q-3 -17 4.5 -28.5t21.5 -11.5q23 0 45 22l21 -45q-37 -43 -88 -43z" />
    <glyph glyph-name="Wcircumflex" unicode="&#x174;" horiz-adv-x="1018" 
d="M541 827h-83l128 127h86l84 -127h-83l-53 76zM299 0h-106l-94 730h108l72 -554l264 555h93l67 -555l268 554h108l-350 -730h-105l-65 555z" />
    <glyph glyph-name="wcircumflex" unicode="&#x175;" horiz-adv-x="883" 
d="M443 657h-83l129 127h86l83 -127h-83l-52 76zM259 0h-97l-96 550h104l66 -400l204 400h99l63 -400l208 400h104l-289 -550h-96l-66 395z" />
    <glyph glyph-name="Ycircumflex" unicode="&#x176;" horiz-adv-x="648" 
d="M356 827h-83l128 127h86l83 -127h-83l-52 76zM327 0h-103l55 311l-186 419h118l140 -299l246 299h118l-333 -420z" />
    <glyph glyph-name="ycircumflex" unicode="&#x177;" horiz-adv-x="564" 
d="M284 657h-83l128 127h86l84 -127h-83l-53 76zM26 -226q-54 0 -99 20l45 87q32 -14 66 -14q80 0 160 144l-126 539h105l89 -407l230 407h104l-306 -550q-68 -121 -129.5 -173.5t-138.5 -52.5z" />
    <glyph glyph-name="Ydieresis" unicode="&#x178;" horiz-adv-x="648" 
d="M326 838q-19 0 -31.5 12.5t-12.5 31.5q0 24 19.5 42.5t43.5 18.5q19 0 31 -12.5t12 -29.5q0 -25 -19 -44t-43 -19zM521 838q-19 0 -31.5 12.5t-12.5 31.5q0 24 19 42.5t43 18.5q19 0 31.5 -12.5t12.5 -29.5q0 -25 -19 -44t-43 -19zM327 0h-103l55 311l-186 419h118
l140 -299l246 299h118l-333 -420z" />
    <glyph glyph-name="Zacute" unicode="&#x179;" horiz-adv-x="641" 
d="M442 810h-64l86 160h90zM551 0h-557l18 102l501 527h-398l18 101h536l-18 -101l-501 -527h418z" />
    <glyph glyph-name="zacute" unicode="&#x17a;" horiz-adv-x="572" 
d="M352 640h-64l87 160h90zM473 0h-470l12 73l392 389h-323l15 88h456l-12 -77l-384 -381h330z" />
    <glyph glyph-name="Zdotaccent" unicode="&#x17b;" horiz-adv-x="641" 
d="M423 830q-22 0 -37 14.5t-15 35.5q0 28 22 49.5t50 21.5q21 0 35.5 -14.5t14.5 -34.5q0 -28 -21.5 -50t-48.5 -22zM551 0h-557l18 102l501 527h-398l18 101h536l-18 -101l-501 -527h418z" />
    <glyph glyph-name="zdotaccent" unicode="&#x17c;" horiz-adv-x="572" 
d="M355 660q-22 0 -36.5 14.5t-14.5 35.5q0 28 22 49.5t50 21.5q21 0 35 -14.5t14 -34.5q0 -28 -21.5 -50t-48.5 -22zM473 0h-470l12 73l392 389h-323l15 88h456l-12 -77l-384 -381h330z" />
    <glyph glyph-name="Zcaron" unicode="&#x17d;" horiz-adv-x="641" 
d="M462 827h-86l-84 127h83l53 -76l79 76h83zM551 0h-557l18 102l501 527h-398l18 101h536l-18 -101l-501 -527h418z" />
    <glyph glyph-name="zcaron" unicode="&#x17e;" horiz-adv-x="572" 
d="M397 657h-86l-83 127h83l52 -76l79 76h83zM473 0h-470l12 73l392 389h-323l15 88h456l-12 -77l-384 -381h330z" />
    <glyph glyph-name="longs" unicode="&#x17f;" horiz-adv-x="360" 
d="M221 571l-101 -572l-96 2l100 570q20 117 82.5 170.5t148.5 53.5q39 0 72 -12l-41 -87q-27 5 -39 5q-50 0 -81.5 -29.5t-44.5 -100.5z" />
    <glyph glyph-name="uni018F" unicode="&#x18f;" horiz-adv-x="798" 
d="M349 -10q-152 0 -232.5 107.5t-51.5 267.5q3 16 11 44h595q8 108 -53 172t-174 64q-59 0 -122 -22.5t-104 -60.5l-66 59q58 55 142.5 87t166.5 32q167 0 250 -104t54 -271q-29 -162 -144.5 -268.5t-271.5 -106.5zM365 85q100 0 180 66.5t109 169.5h-494
q-8 -103 49 -169.5t156 -66.5z" />
    <glyph glyph-name="florin" unicode="&#x192;" horiz-adv-x="441" 
d="M24 -14q-38 0 -73 11l40 88q32 -5 41 -5q50 0 81.5 29.5t43.5 100.5l45 253h-49l15 88h49l4 20q20 117 82.5 170.5t148.5 53.5q39 0 72 -12l-41 -87q-27 5 -39 5q-50 0 -81.5 -29.5t-44.5 -100.5l-3 -20h142l-16 -88h-141l-45 -253q-20 -117 -82.5 -170.5t-148.5 -53.5z
" />
    <glyph glyph-name="uni019D" unicode="&#x19d;" horiz-adv-x="784" 
d="M-74 -152l18 104q86 0 107 116l117 662h103l313 -541l96 541h103l-128 -730h-103l-314 543l-84 -480q-20 -105 -80.5 -160t-147.5 -55z" />
    <glyph glyph-name="Ohorn" unicode="&#x1a0;" horiz-adv-x="854" 
d="M62 308q0 116 55.5 214.5t156.5 158t225 59.5q155 0 248 -106q16 3 29.5 15t15.5 28l15 84h61l-18 -101q-10 -54 -68 -77q43 -71 43 -162q0 -177 -125 -305t-312 -128q-143 0 -234.5 91.5t-91.5 228.5zM168 318q0 -97 64.5 -160.5t163.5 -63.5q133 0 227 95.5t94 223.5
q0 95 -64 158.5t-162 63.5q-134 0 -228.5 -95.5t-94.5 -221.5z" />
    <glyph glyph-name="ohorn" unicode="&#x1a1;" horiz-adv-x="646" 
d="M280 -8q-107 0 -175 70t-68 174q0 133 95 227t235 94q105 0 173 -71q37 12 42 40l15 84h60l-17 -100q-8 -45 -62 -73q32 -56 32 -122q0 -133 -94.5 -228t-235.5 -95zM291 92q91 0 154.5 64.5t63.5 150.5q0 65 -43 108t-110 43q-93 0 -156 -64t-63 -151q0 -65 43 -108
t111 -43z" />
    <glyph glyph-name="Uhorn" unicode="&#x1af;" horiz-adv-x="721" 
d="M304 -11q-122 0 -188.5 79t-43.5 210l80 452h103l-80 -451q-15 -89 26 -137.5t119 -48.5t138 48.5t76 137.5l79 451h76q33 0 38 31l13 69h60l-14 -85q-12 -65 -80 -77l-69 -390q-23 -130 -117.5 -209.5t-215.5 -79.5z" />
    <glyph glyph-name="uhorn" unicode="&#x1b0;" horiz-adv-x="626" 
d="M235 -8q-101 0 -150.5 71t-25.5 208l49 279h98l-49 -279q-16 -90 18 -136t99 -46q64 0 114.5 46t66.5 136l49 279h67q27 5 31 31l15 84h61l-17 -101q-10 -51 -69 -67l-87 -497h-90l12 98q-33 -47 -82.5 -76.5t-109.5 -29.5z" />
    <glyph glyph-name="uni01CD" unicode="&#x1cd;" horiz-adv-x="676" 
d="M481 827h-86l-83 127h83l52 -76l79 76h83zM83 0h-116l395 730h112l139 -730h-110l-37 190h-281zM396 591l-164 -304h221z" />
    <glyph glyph-name="uni01CE" unicode="&#x1ce;" 
d="M436 657h-86l-83 127h83l52 -76l79 76h83zM262 -7q-97 0 -161.5 69.5t-64.5 170.5q0 129 93.5 227t222.5 98q67 0 120.5 -35.5t69.5 -88.5l25 116h90l-96 -550h-90l15 115q-35 -53 -96.5 -87.5t-127.5 -34.5zM292 90q87 0 154.5 66t67.5 152q0 66 -44 110t-112 44
q-86 0 -153.5 -67t-67.5 -152q0 -66 43.5 -109.5t111.5 -43.5z" />
    <glyph glyph-name="uni01CF" unicode="&#x1cf;" horiz-adv-x="266" 
d="M273 827h-86l-83 127h83l52 -76l79 76h83zM137 0h-103l128 730h103z" />
    <glyph glyph-name="uni01D0" unicode="&#x1d0;" horiz-adv-x="240" 
d="M231 657h-86l-83 127h83l52 -76l79 76h83zM121 0h-97l96 550h97z" />
    <glyph glyph-name="uni01D1" unicode="&#x1d1;" horiz-adv-x="854" 
d="M555 827h-86l-83 127h83l52 -76l80 76h83zM388 -12q-143 0 -234.5 91.5t-91.5 228.5q0 116 55.5 214.5t156.5 158t225 59.5q143 0 234.5 -91.5t91.5 -227.5q0 -177 -125 -305t-312 -128zM396 94q133 0 227 95.5t94 223.5q0 95 -64 158.5t-162 63.5q-134 0 -228.5 -95.5
t-94.5 -221.5q0 -97 64.5 -160.5t163.5 -63.5z" />
    <glyph glyph-name="uni01D2" unicode="&#x1d2;" horiz-adv-x="647" 
d="M432 657h-86l-83 127h83l52 -76l79 76h83zM281 -8q-107 0 -175.5 70.5t-68.5 173.5q0 134 94 227.5t236 93.5q105 0 174 -70t69 -172q0 -133 -94 -228t-235 -95zM291 92q92 0 155.5 64.5t63.5 150.5q0 65 -43.5 108t-110.5 43q-93 0 -156 -64t-63 -151q0 -65 43 -108
t111 -43z" />
    <glyph glyph-name="uni01D3" unicode="&#x1d3;" horiz-adv-x="708" 
d="M494 827h-86l-83 127h83l52 -76l80 76h83zM302 -11q-122 0 -187.5 79t-42.5 210l80 452h103l-80 -451q-15 -89 26 -137.5t119 -48.5t138 48.5t76 137.5l79 451h104l-80 -452q-23 -131 -116.5 -210t-218.5 -79z" />
    <glyph glyph-name="uni01D4" unicode="&#x1d4;" horiz-adv-x="634" 
d="M421 657h-86l-83 127h83l52 -76l79 76h83zM239 -8q-101 0 -150.5 71t-25.5 208l49 279h98l-49 -279q-16 -90 18 -136t98 -46q65 0 115.5 46t66.5 136l49 279h97l-96 -550h-90l11 98q-32 -47 -82 -76.5t-109 -29.5z" />
    <glyph glyph-name="uni01D5" unicode="&#x1d5;" horiz-adv-x="708" 
d="M662 988h-365l14 81h365zM351 819q-22 0 -34.5 15t-8.5 37t22 37.5t39 15.5q22 0 34.5 -15t9.5 -38q-5 -22 -22.5 -37t-39.5 -15zM546 819q-22 0 -34.5 15t-8.5 37q3 22 21 37.5t40 15.5q21 0 34 -15.5t9 -37.5t-22 -37t-39 -15zM304 -11q-122 0 -188.5 79t-43.5 210
l80 452h103l-80 -451q-15 -89 26 -137.5t119 -48.5t138 48.5t76 137.5l79 451h104l-80 -452q-23 -130 -117.5 -209.5t-215.5 -79.5z" />
    <glyph glyph-name="uni01D6" unicode="&#x1d6;" horiz-adv-x="634" 
d="M588 812h-365l14 81h365zM277 643q-22 0 -34.5 15.5t-8.5 37.5t21.5 37t39.5 15q21 0 34 -15t9 -37t-22 -37.5t-39 -15.5zM471 643q-22 0 -34.5 15.5t-8.5 37.5t22 37t39 15q22 0 34.5 -15t9.5 -37q-4 -22 -22 -37.5t-40 -15.5zM239 -8q-101 0 -150.5 71t-25.5 208
l49 279h98l-49 -279q-16 -90 18 -136t98 -46q65 0 115.5 46t66.5 136l49 279h97l-96 -550h-90l11 98q-32 -47 -82 -76.5t-109 -29.5z" />
    <glyph glyph-name="uni01D7" unicode="&#x1d7;" horiz-adv-x="708" 
d="M509 942h-63l87 160h89zM347 785q-21 0 -34 16t-9 37q4 22 21.5 37t39.5 15q21 0 34.5 -15.5t9.5 -36.5q-5 -22 -22.5 -37.5t-39.5 -15.5zM542 785q-22 0 -34.5 15.5t-8.5 37.5t21.5 37t39.5 15q21 0 34 -15t9 -37q-5 -22 -22.5 -37.5t-38.5 -15.5zM304 -11
q-122 0 -188.5 79t-43.5 210l80 452h103l-80 -451q-15 -89 26 -137.5t119 -48.5t138 48.5t76 137.5l79 451h104l-80 -452q-23 -130 -117.5 -209.5t-215.5 -79.5z" />
    <glyph glyph-name="uni01D8" unicode="&#x1d8;" horiz-adv-x="634" 
d="M435 767h-64l87 160h89zM273 610q-22 0 -34.5 15t-8.5 37t22 37.5t39 15.5q22 0 34.5 -15.5t8.5 -37.5t-22 -37t-39 -15zM467 610q-22 0 -34.5 15t-8.5 37t22 37.5t40 15.5q21 0 33.5 -15.5t8.5 -37.5t-22 -37t-39 -15zM239 -8q-101 0 -150.5 71t-25.5 208l49 279h98
l-49 -279q-16 -90 18 -136t98 -46q65 0 115.5 46t66.5 136l49 279h97l-96 -550h-90l11 98q-32 -47 -82 -76.5t-109 -29.5z" />
    <glyph glyph-name="uni01D9" unicode="&#x1d9;" horiz-adv-x="708" 
d="M511 958h-86l-84 127h83l53 -76l79 76h83zM347 804q-22 0 -34.5 15t-8.5 37q3 22 21 37.5t40 15.5q21 0 34 -15.5t9 -37.5t-22 -37t-39 -15zM541 804q-22 0 -34.5 15t-8.5 37t22 37.5t39 15.5q22 0 34.5 -15.5t8.5 -37.5t-22 -37t-39 -15zM304 -11q-122 0 -188.5 79
t-43.5 210l80 452h103l-80 -451q-15 -89 26 -137.5t119 -48.5t138 48.5t76 137.5l79 451h104l-80 -452q-23 -130 -117.5 -209.5t-215.5 -79.5z" />
    <glyph glyph-name="uni01DA" unicode="&#x1da;" horiz-adv-x="634" 
d="M443 781h-86l-83 128h83l52 -77l79 77h83zM279 627q-22 0 -34.5 15.5t-8.5 37.5t22 37t40 15q21 0 33.5 -15t8.5 -37t-22 -37.5t-39 -15.5zM473 627q-22 0 -34.5 15.5t-8.5 37.5t22 37t40 15q21 0 33.5 -15t8.5 -37q-3 -22 -21.5 -37.5t-39.5 -15.5zM239 -8
q-101 0 -150.5 71t-25.5 208l49 279h98l-49 -279q-16 -90 18 -136t98 -46q65 0 115.5 46t66.5 136l49 279h97l-96 -550h-90l11 98q-32 -47 -82 -76.5t-109 -29.5z" />
    <glyph glyph-name="uni01DB" unicode="&#x1db;" horiz-adv-x="708" 
d="M502 942h-64l-56 160h89zM340 785q-22 0 -35 15.5t-9 37.5q5 22 22.5 37t39.5 15q21 0 34 -15t9 -37t-22 -37.5t-39 -15.5zM534 785q-22 0 -34.5 15.5t-8.5 37.5t21.5 37t39.5 15q21 0 34 -15t9 -37t-22 -37.5t-39 -15.5zM304 -11q-122 0 -188.5 79t-43.5 210l80 452h103
l-80 -451q-15 -89 26 -137.5t119 -48.5t138 48.5t76 137.5l79 451h104l-80 -452q-23 -130 -117.5 -209.5t-215.5 -79.5z" />
    <glyph glyph-name="uni01DC" unicode="&#x1dc;" horiz-adv-x="634" 
d="M435 767h-64l-56 160h89zM273 610q-22 0 -34.5 15t-8.5 37t22 37.5t39 15.5q22 0 34.5 -15.5t8.5 -37.5t-22 -37t-39 -15zM467 610q-22 0 -34.5 15t-8.5 37t22 37.5t40 15.5q21 0 33.5 -15.5t8.5 -37.5t-22 -37t-39 -15zM239 -8q-101 0 -150.5 71t-25.5 208l49 279h98
l-49 -279q-16 -90 18 -136t98 -46q65 0 115.5 46t66.5 136l49 279h97l-96 -550h-90l11 98q-32 -47 -82 -76.5t-109 -29.5z" />
    <glyph glyph-name="uni01DE" unicode="&#x1de;" horiz-adv-x="676" 
d="M644 977h-365l14 81h365zM333 808q-19 0 -31.5 12.5t-12.5 31.5q0 24 19.5 42.5t43.5 18.5q19 0 31 -12.5t12 -31.5q0 -24 -19 -42.5t-43 -18.5zM528 808q-19 0 -31.5 12.5t-12.5 31.5q0 24 19 42.5t43 18.5q19 0 31 -12.5t12 -31.5q0 -24 -18.5 -42.5t-42.5 -18.5zM83 0
h-116l395 730h112l139 -730h-110l-37 190h-281zM396 591l-164 -304h221z" />
    <glyph glyph-name="uni01DF" unicode="&#x1df;" horiz-adv-x="667" 
d="M613 812h-365l13 81h365zM302 643q-19 0 -32 12.5t-13 30.5q0 24 19.5 43t43.5 19q19 0 31 -12.5t12 -31.5q0 -24 -18.5 -42.5t-42.5 -18.5zM496 643q-19 0 -32 12.5t-13 30.5q0 24 19.5 43t43.5 19q19 0 31.5 -12.5t12.5 -31.5q0 -24 -19 -42.5t-43 -18.5zM258 -7
q-97 0 -161.5 69.5t-64.5 170.5q0 130 94 227.5t223 97.5q67 0 120 -35.5t70 -88.5l24 116h90l-96 -550h-90l15 115q-35 -53 -96.5 -87.5t-127.5 -34.5zM288 90q87 0 155 66t68 152q0 66 -44.5 110t-112.5 44q-86 0 -153.5 -67t-67.5 -152q0 -66 43.5 -109.5t111.5 -43.5z
" />
    <glyph glyph-name="uni01E2" unicode="&#x1e2;" horiz-adv-x="943" 
d="M741 850h-365l14 81h365zM852 -1h-456l39 228h-240l-120 -227h-116l398 730h618l-17 -96h-348l-37 -210h328l-16 -95h-329l-40 -230h353zM409 634l-167 -311h211l54 311h-98z" />
    <glyph glyph-name="uni01E3" unicode="&#x1e3;" horiz-adv-x="1006" 
d="M795 680h-365l26 81h365zM214 -10q-97 0 -150.5 49t-40.5 125q14 76 80 123.5t169 47.5h170q11 63 -23.5 101t-104.5 38q-96 0 -166 -55l-51 52q103 88 243 88q70 0 117.5 -32t62.5 -89q43 57 105.5 89t128.5 32q106 0 169.5 -72.5t44.5 -179.5q-9 -44 -13 -54h-419
q-13 -81 28 -128.5t114 -47.5q97 0 167 73l68 -47q-48 -52 -114.5 -82.5t-132.5 -30.5q-77 0 -130.5 38t-73.5 101q-40 -67 -105 -103t-143 -36zM551 335h326q6 57 -32 94.5t-100 37.5q-67 0 -121 -39.5t-73 -92.5zM233 81q79 0 129.5 44.5t60.5 105.5l5 22h-159
q-59 0 -97.5 -23t-45.5 -62t22.5 -63t84.5 -24z" />
    <glyph glyph-name="Gcaron" unicode="&#x1e6;" horiz-adv-x="841" 
d="M553 827h-86l-83 127h83l52 -76l79 76h83zM387 -12q-139 0 -232 92.5t-93 228.5q0 178 128.5 304.5t308.5 126.5q91 0 166.5 -39.5t115.5 -106.5l-100 -56q-30 45 -79.5 71t-110.5 26q-127 0 -225 -96.5t-98 -220.5q0 -97 64.5 -160.5t163.5 -63.5q105 0 183.5 62.5
t104.5 164.5h-273l17 95h385q0 -27 -4 -51q-30 -169 -144 -273t-278 -104z" />
    <glyph glyph-name="gcaron" unicode="&#x1e7;" 
d="M427 657h-86l-83 127h83l52 -76l79 76h83zM229 -230q-71 0 -133.5 30t-92.5 80l81 55q23 -34 65 -52.5t90 -18.5q86 0 151.5 53.5t84.5 155.5l8 39q-36 -53 -95 -86t-126 -33q-99 0 -162.5 70t-63.5 170q0 131 92 228t224 97q67 0 120.5 -35.5t69.5 -88.5l25 116h90
l-82 -464q-27 -157 -116.5 -236.5t-229.5 -79.5zM292 90q87 0 154.5 66t67.5 152q0 66 -44 110t-112 44q-89 0 -155 -66.5t-66 -152.5q0 -66 43.5 -109.5t111.5 -43.5z" />
    <glyph glyph-name="uni01EA" unicode="&#x1ea;" horiz-adv-x="854" 
d="M468 -187q-30 0 -49.5 20t-19.5 52q0 45 49 107q-27 -4 -60 -4q-143 0 -234.5 91.5t-91.5 228.5q0 116 55.5 214.5t156.5 158t225 59.5q143 0 234.5 -91.5t91.5 -227.5q0 -142 -83.5 -256.5t-220.5 -156.5q-46 -54 -54 -78q-3 -10 -3 -20q0 -13 7 -22t19 -9q24 0 45 23
l21 -45q-35 -44 -88 -44zM396 94q133 0 227 95.5t94 223.5q0 95 -64 158.5t-162 63.5q-134 0 -228.5 -95.5t-94.5 -221.5q0 -97 64.5 -160.5t163.5 -63.5z" />
    <glyph glyph-name="uni01EB" unicode="&#x1eb;" horiz-adv-x="646" 
d="M323 -194q-30 0 -49 20t-19 52q0 47 49 115q-4 0 -12 -0.5t-12 -0.5q-107 0 -175 70t-68 174q0 131 94.5 226t235.5 95q105 0 174 -70t69 -172q0 -106 -65 -192t-170 -115q-56 -70 -56 -103t27 -33q25 0 44 23l21 -45q-33 -44 -88 -44zM291 92q91 0 154.5 64.5
t63.5 150.5q0 65 -43 108t-110 43q-93 0 -156 -64t-63 -151q0 -65 43 -108t111 -43z" />
    <glyph glyph-name="Aringacute" unicode="&#x1fa;" horiz-adv-x="676" 
d="M530 978h-63l86 160h90zM424 740q-42 0 -71 26.5t-29 66.5q0 53 41 91.5t95 38.5q42 0 70.5 -27t28.5 -68q0 -53 -41.5 -90.5t-93.5 -37.5zM432 798q26 0 44.5 18.5t18.5 44.5q0 20 -12 32.5t-32 12.5q-25 0 -44 -19.5t-19 -45.5q0 -19 12.5 -31t31.5 -12zM83 0h-116
l395 730h112l139 -730h-110l-37 190h-281zM396 591l-164 -304h221z" />
    <glyph glyph-name="aringacute" unicode="&#x1fb;" 
d="M495 833h-63l86 160h90zM386 596q-42 0 -70 26t-28 66q0 53 42 92t97 39q41 0 68.5 -26t27.5 -67q0 -54 -42 -92t-95 -38zM396 653q26 0 44.5 19t18.5 45q0 19 -12 31.5t-32 12.5q-26 0 -44.5 -19.5t-18.5 -45.5q0 -18 12 -30.5t32 -12.5zM262 -7q-97 0 -161.5 69.5
t-64.5 170.5q0 129 93.5 227t222.5 98q67 0 120.5 -35.5t69.5 -88.5l25 116h90l-96 -550h-90l15 115q-35 -53 -96.5 -87.5t-127.5 -34.5zM292 90q87 0 154.5 66t67.5 152q0 66 -44 110t-112 44q-86 0 -153.5 -67t-67.5 -152q0 -66 43.5 -109.5t111.5 -43.5z" />
    <glyph glyph-name="AEacute" unicode="&#x1fc;" horiz-adv-x="943" 
d="M557 810h-64l86 160h90zM852 -1h-456l39 228h-240l-120 -227h-116l398 730h618l-17 -96h-348l-37 -210h328l-16 -95h-329l-40 -230h353zM409 634l-167 -311h211l54 311h-98z" />
    <glyph glyph-name="aeacute" unicode="&#x1fd;" horiz-adv-x="1006" 
d="M580 640h-63l87 160h89zM214 -10q-97 0 -150.5 49t-40.5 125q14 76 80 123.5t169 47.5h170q11 63 -23.5 101t-104.5 38q-96 0 -166 -55l-51 52q103 88 243 88q70 0 117.5 -32t62.5 -89q43 57 105.5 89t128.5 32q106 0 169.5 -72.5t44.5 -179.5q-9 -44 -13 -54h-419
q-13 -81 28 -128.5t114 -47.5q97 0 167 73l68 -47q-48 -52 -114.5 -82.5t-132.5 -30.5q-77 0 -130.5 38t-73.5 101q-40 -67 -105 -103t-143 -36zM551 335h326q6 57 -32 94.5t-100 37.5q-67 0 -121 -39.5t-73 -92.5zM233 81q79 0 129.5 44.5t60.5 105.5l5 22h-159
q-59 0 -97.5 -23t-45.5 -62t22.5 -63t84.5 -24z" />
    <glyph glyph-name="Oslashacute" unicode="&#x1fe;" horiz-adv-x="859" 
d="M510 810h-64l87 160h89zM392 -12q-139 0 -230 88l-89 -76l-48 57l91 77q-50 77 -50 174q0 116 55.5 214.5t156.5 158t225 59.5q136 0 226 -85l88 75l47 -57l-88 -74q53 -78 53 -178q0 -177 -125 -305t-312 -128zM205 210l435 369q-58 56 -145 56q-134 0 -228 -95.5
t-94 -221.5q0 -62 32 -108zM400 94q133 0 227 95.5t94 223.5q0 65 -33 111l-437 -373q57 -57 149 -57z" />
    <glyph glyph-name="oslashacute" unicode="&#x1ff;" horiz-adv-x="652" 
d="M407 640h-64l87 160h89zM283 -8q-104 0 -171 67l-76 -65l-39 47l77 64q-34 56 -34 127q0 136 95.5 230.5t234.5 94.5q99 0 165 -60l81 69l37 -47l-79 -68q39 -56 39 -131q0 -135 -95.5 -231.5t-234.5 -96.5zM150 170l309 263q-41 36 -98 36q-96 0 -162 -65.5t-69 -154.5
q0 -45 20 -79zM292 81q94 0 161 66t70 155q0 48 -25 85l-310 -264q40 -42 104 -42z" />
    <glyph glyph-name="uni0218" unicode="&#x218;" horiz-adv-x="610" 
d="M274 -11q-76 0 -145 28t-113 87l76 66q70 -85 191 -86q73 0 119 33.5t46 92.5q0 42 -35.5 72t-86 49.5t-100.5 41t-85.5 61.5t-35.5 97q0 97 72.5 154t187.5 57q68 0 136 -29.5t102 -88.5l-82 -57q-20 36 -65 57.5t-94 22.5q-70 1 -112 -29.5t-42 -76.5q0 -35 35.5 -60.5
t86 -44t101 -41t86 -65t35.5 -103.5q0 -112 -77.5 -175.5t-200.5 -62.5zM243 -205h-77l45 156h90z" />
    <glyph glyph-name="uni0219" unicode="&#x219;" horiz-adv-x="556" 
d="M251 -10q-68 0 -136.5 24t-103.5 72l77 63q21 -30 70 -48.5t102 -18.5q58 0 94.5 21t36.5 60q0 23 -22.5 39.5t-57 25t-74 21.5t-74 27.5t-57 43.5t-22.5 69q0 80 61.5 125t163.5 45q64 0 124.5 -21t93.5 -70l-71 -59q-20 32 -64 47t-89 15q-54 0 -87 -17.5t-33 -51.5
q0 -24 31.5 -40.5t77 -28t91 -27t77 -48t31.5 -81.5q0 -90 -67.5 -138.5t-172.5 -48.5zM216 -201h-76l45 156h90z" />
    <glyph glyph-name="uni021A" unicode="&#x21a;" horiz-adv-x="594" 
d="M301 0h-103l110 631h-223l18 99h549l-18 -99h-222zM237 -201h-77l46 156h89z" />
    <glyph glyph-name="uni021B" unicode="&#x21b;" horiz-adv-x="394" 
d="M232 -9q-92 0 -129 59t-19 155l46 257h-74l15 88h77l44 180h82l-32 -180h132l-15 -88h-132l-45 -256q-19 -120 79 -120q24 0 44 7l9 -87q-36 -15 -82 -15zM128 -201h-77l46 156h89z" />
    <glyph glyph-name="uni0228" unicode="&#x228;" horiz-adv-x="591" 
d="M196 -220q-64 0 -92 24l33 55q18 -18 60 -18q26 0 41.5 12t15.5 30q0 30 -53 30h-35l41 87h-173l128 730h451l-17 -95h-349l-37 -213h328l-16 -95h-328l-41 -227h359l-17 -100h-221l-24 -47q34 -4 52 -22.5t18 -45.5q0 -46 -35 -75.5t-89 -29.5z" />
    <glyph glyph-name="uni0229" unicode="&#x229;" horiz-adv-x="637" 
d="M236 -220q-61 0 -89 24l32 55q20 -18 61 -18q26 0 41.5 12t15.5 30q0 30 -53 30h-35l38 84q-93 14 -151.5 80.5t-58.5 158.5q0 131 93.5 226t229.5 95q115 0 184 -74t56 -189q-1 -21 -11 -61h-450q-1 -66 45 -107.5t113 -41.5q105 0 174 72l70 -52q-95 -103 -229 -111
l-19 -40q69 -9 69 -67q0 -44 -38 -75t-88 -31zM150 308h353q8 71 -32 115.5t-113 44.5q-75 0 -133 -45t-75 -115z" />
    <glyph glyph-name="uni022A" unicode="&#x22a;" horiz-adv-x="854" 
d="M720 970h-365l13 81h365zM408 808q-19 0 -31 12.5t-12 31.5q0 24 19 42.5t43 18.5q19 0 31 -12t12 -31q0 -25 -19 -43.5t-43 -18.5zM603 808q-19 0 -31.5 12.5t-12.5 31.5q0 24 19 42.5t43 18.5q19 0 31.5 -12t12.5 -31q0 -25 -19 -43.5t-43 -18.5zM388 -12
q-143 0 -234.5 91.5t-91.5 228.5q0 116 55.5 214.5t156.5 158t225 59.5q143 0 234.5 -91.5t91.5 -227.5q0 -177 -125 -305t-312 -128zM396 94q133 0 227 95.5t94 223.5q0 95 -64 158.5t-162 63.5q-134 0 -228.5 -95.5t-94.5 -221.5q0 -97 64.5 -160.5t163.5 -63.5z" />
    <glyph glyph-name="uni022B" unicode="&#x22b;" horiz-adv-x="646" 
d="M599 812h-365l14 81h365zM288 643q-19 0 -32 12.5t-13 30.5q0 24 19.5 43t43.5 19q19 0 31.5 -12.5t12.5 -31.5q0 -24 -19 -42.5t-43 -18.5zM482 643q-19 0 -31.5 12.5t-12.5 30.5q0 25 19 43.5t43 18.5q19 0 31.5 -12.5t12.5 -31.5q0 -24 -19 -42.5t-43 -18.5zM280 -8
q-107 0 -175 70t-68 174q0 133 95 227t235 94q105 0 174 -70t69 -172q0 -133 -94.5 -228t-235.5 -95zM291 92q91 0 154.5 64.5t63.5 150.5q0 65 -43 108t-110 43q-93 0 -156 -64t-63 -151q0 -65 43 -108t111 -43z" />
    <glyph glyph-name="uni0232" unicode="&#x232;" horiz-adv-x="648" 
d="M603 854h-365l14 81h365zM327 0h-103l55 311l-186 419h118l140 -299l246 299h118l-333 -420z" />
    <glyph glyph-name="uni0233" unicode="&#x233;" horiz-adv-x="564" 
d="M535 680h-365l14 81h365zM26 -226q-54 0 -99 20l45 87q32 -14 66 -14q43 0 78.5 33.5t75.5 99.5l-120 550h105l89 -407l230 407h104l-306 -550q-68 -121 -129.5 -173.5t-138.5 -52.5z" />
    <glyph glyph-name="uni0237" unicode="&#x237;" horiz-adv-x="252" 
d="M-84 -231q-43 0 -77 14l42 90q19 -8 40 -8q106 0 131 143l95 542h97l-95 -542q-22 -124 -84 -181.5t-149 -57.5z" />
    <glyph glyph-name="uni0259" unicode="&#x259;" horiz-adv-x="636" 
d="M275 -8q-118 0 -187 82t-49 200q3 16 11 46h450q-1 63 -46 104.5t-115 41.5q-99 0 -170 -71l-70 49q49 52 114.5 82.5t134.5 30.5q125 0 197 -84t52 -201q-21 -118 -112.5 -199t-209.5 -81zM283 84q72 0 130 45.5t74 110.5h-353q-9 -64 33 -110t116 -46z" />
    <glyph glyph-name="uni0272" unicode="&#x272;" horiz-adv-x="619" 
d="M-90 -152l17 93q88 0 109 124l85 485h90l-11 -97q32 47 81.5 76t109.5 29q101 0 150.5 -70.5t25.5 -207.5l-49 -280h-98l49 280q16 89 -18 135.5t-99 46.5q-64 0 -114.5 -46t-66.5 -136l-38 -216q-20 -108 -77.5 -162t-145.5 -54z" />
    <glyph glyph-name="circumflex" unicode="&#x2c6;" horiz-adv-x="338" 
d="M161 603h-83l128 127h86l84 -127h-83l-53 76z" />
    <glyph glyph-name="caron" unicode="&#x2c7;" horiz-adv-x="338" 
d="M270 603h-86l-84 127h83l52 -76l80 76h83z" />
    <glyph glyph-name="breve" unicode="&#x2d8;" horiz-adv-x="351" 
d="M243 633q-65 0 -103.5 43t-30.5 104h60q-5 -36 18.5 -62t62.5 -26q38 0 69 25t40 63h62q-14 -63 -64 -105t-114 -42z" />
    <glyph glyph-name="dotaccent" unicode="&#x2d9;" horiz-adv-x="160" 
d="M137 594q-22 0 -36.5 14t-14.5 36q0 28 22 49t50 21q22 0 36 -14t14 -35q0 -28 -22 -49.5t-49 -21.5z" />
    <glyph glyph-name="ring" unicode="&#x2da;" horiz-adv-x="271" 
d="M186 561q-42 0 -70 25.5t-28 66.5q0 53 42 92t96 39q41 0 69 -25.5t28 -66.5q0 -54 -42.5 -92.5t-94.5 -38.5zM196 618q26 0 44.5 19t18.5 46q0 19 -12 31t-32 12q-26 0 -44.5 -19t-18.5 -45q0 -19 12 -31.5t32 -12.5z" />
    <glyph glyph-name="ogonek" unicode="&#x2db;" horiz-adv-x="203" 
d="M16 -219q-31 0 -50.5 19.5t-19.5 51.5q0 5 2 19q5 24 19.5 50t26.5 40t35 39h61q-5 -6 -17 -19.5t-16 -18.5t-13 -16t-12.5 -16.5t-8.5 -14t-7.5 -15t-3.5 -13.5v-9q0 -13 7 -22t19 -9q23 0 45 22l21 -45q-35 -43 -88 -43z" />
    <glyph glyph-name="tilde" unicode="&#x2dc;" horiz-adv-x="346" 
d="M303 613q-30 -2 -51 15t-35.5 35t-28.5 18q-31 0 -40 -57h-66q8 51 37 84t69 34q24 1 42.5 -9.5t27.5 -24t21 -24.5t24 -11q28 0 38 57h66q-10 -54 -37 -85t-67 -32z" />
    <glyph glyph-name="hungarumlaut" unicode="&#x2dd;" horiz-adv-x="469" 
d="M171 588h-63l121 192h86zM361 588h-62l121 192h86z" />
    <glyph glyph-name="hookabovecomb" unicode="&#x309;" horiz-adv-x="0" 
d="M-118 659l9 50q68 0 75 37q3 15 -8.5 25t-35.5 10q-42 0 -67 -18l-13 55q36 24 97 24q47 0 73.5 -27t19.5 -65q-7 -39 -47.5 -65t-102.5 -26z" />
    <glyph glyph-name="uni031B" unicode="&#x31b;" horiz-adv-x="0" 
d="M-105 574l11 63q17 0 33 10.5t19 29.5l15 85h61l-18 -101q-7 -41 -44.5 -64t-76.5 -23z" />
    <glyph glyph-name="uni0326" unicode="&#x326;" horiz-adv-x="0" 
d="M-161 -186h-76l45 157h90z" />
    <glyph glyph-name="uni0394" unicode="&#x394;" horiz-adv-x="727" 
d="M657 0h-683l14 81l418 649h76l188 -649zM424 620l-346 -539h503z" />
    <glyph glyph-name="uni03A9" unicode="&#x3a9;" horiz-adv-x="846" 
d="M291 0h-280l15 92h144q-50 37 -78.5 97.5t-28.5 131.5q0 170 130 294t307 124q138 0 229.5 -85.5t91.5 -213.5q0 -103 -58.5 -198t-151.5 -150h144l-15 -92h-281l16 92q103 32 175 125t72 200q0 99 -64.5 162.5t-168.5 63.5q-136 0 -233.5 -97.5t-97.5 -229.5
q0 -80 41 -140.5t108 -83.5z" />
    <glyph glyph-name="uni03BC" unicode="&#x3bc;" horiz-adv-x="632" 
d="M81 -220h-98l136 770h97l-49 -282q-5 -32 -5 -53q0 -65 33.5 -98.5t89.5 -33.5q65 0 116.5 47.5t67.5 137.5l49 282h97l-96 -550h-97l14 80q-76 -93 -188 -93q-92 0 -116 77z" />
    <glyph glyph-name="uni1E04" unicode="&#x1e04;" horiz-adv-x="651" 
d="M330 0h-296l128 730h259q101 0 154.5 -52.5t39.5 -136.5q-18 -99 -114 -150q57 -20 84.5 -67.5t15.5 -113.5q-16 -92 -91 -151t-180 -59zM248 635l-37 -211l163 1q53 1 91 29.5t46 72.5q9 46 -18.5 77t-87.5 31h-157zM195 333l-41 -233h187q62 0 104 32.5t51 84.5
q10 51 -21 83.5t-86 32.5h-194zM235 -172q-22 0 -36 14t-14 36q0 28 22 49.5t50 21.5q22 0 35.5 -14.5t13.5 -36.5q0 -27 -22 -48.5t-49 -21.5z" />
    <glyph glyph-name="uni1E05" unicode="&#x1e05;" 
d="M324 -7q-65 0 -117.5 35t-67.5 87l-25 -115h-90l137 780h97l-60 -343q35 53 95 87t125 34q100 0 163 -69t63 -173q0 -134 -92.5 -228.5t-227.5 -94.5zM323 90q90 0 155.5 64t65.5 154q0 66 -43.5 110t-111.5 44q-87 0 -155 -66.5t-68 -152.5q0 -66 44 -109.5t113 -43.5z
M284 -178q-22 0 -36 14.5t-14 36.5q0 28 22 49t50 21q22 0 35.5 -14t13.5 -36q0 -28 -22 -49.5t-49 -21.5z" />
    <glyph glyph-name="uni1E0C" unicode="&#x1e0c;" horiz-adv-x="742" 
d="M266 0h-232l128 730h217q149 0 241 -87.5t92 -218.5q0 -179 -129 -301.5t-317 -122.5zM247 629l-93 -527h121q137 0 233 91.5t96 220.5q0 93 -63.5 154t-172.5 61h-121zM228 -168q-22 0 -36.5 14.5t-14.5 35.5q0 28 22 49.5t50 21.5q21 0 35 -14.5t14 -35.5
q0 -28 -21.5 -49.5t-48.5 -21.5z" />
    <glyph glyph-name="uni1E0D" unicode="&#x1e0d;" 
d="M262 -7q-97 0 -161.5 69.5t-64.5 170.5q0 130 92.5 227.5t223.5 97.5q66 0 119 -34.5t69 -86.5l60 343h98l-137 -780h-90l15 115q-36 -54 -95.5 -88t-128.5 -34zM292 90q91 0 156.5 65.5t65.5 152.5q0 66 -44 110t-112 44q-89 0 -155 -66.5t-66 -152.5q0 -66 43.5 -109.5
t111.5 -43.5zM244 -178q-22 0 -36.5 14.5t-14.5 36.5q0 28 22 49t50 21q22 0 36 -14t14 -36q0 -28 -22 -49.5t-49 -21.5z" />
    <glyph glyph-name="uni1E0E" unicode="&#x1e0e;" horiz-adv-x="742" 
d="M266 0h-232l128 730h217q149 0 241 -87.5t92 -218.5q0 -179 -129 -301.5t-317 -122.5zM247 629l-93 -527h121q137 0 233 91.5t96 220.5q0 93 -63.5 154t-172.5 61h-121zM389 -148h-365l14 80h365z" />
    <glyph glyph-name="uni1E0F" unicode="&#x1e0f;" 
d="M262 -7q-97 0 -161.5 69.5t-64.5 170.5q0 130 92.5 227.5t223.5 97.5q66 0 119 -34.5t69 -86.5l60 343h98l-137 -780h-90l15 115q-36 -54 -95.5 -88t-128.5 -34zM292 90q91 0 156.5 65.5t65.5 152.5q0 66 -44 110t-112 44q-89 0 -155 -66.5t-66 -152.5q0 -66 43.5 -109.5
t111.5 -43.5zM434 -148h-365l15 80h365z" />
    <glyph glyph-name="uni1E12" unicode="&#x1e12;" horiz-adv-x="742" 
d="M266 0h-232l128 730h217q149 0 241 -87.5t92 -218.5q0 -179 -129 -301.5t-317 -122.5zM247 629l-93 -527h121q137 0 233 91.5t96 220.5q0 93 -63.5 154t-172.5 61h-121zM155 -172h-83l128 128h86l83 -128h-83l-52 77z" />
    <glyph glyph-name="uni1E13" unicode="&#x1e13;" horiz-adv-x="667" 
d="M259 -7q-97 0 -161.5 69.5t-64.5 170.5q0 130 92.5 227.5t223.5 97.5q66 0 119 -34.5t69 -86.5l60 343h98l-137 -780h-90l15 115q-36 -54 -95.5 -88t-128.5 -34zM289 90q90 0 156 65.5t66 152.5q0 66 -44 110t-112 44q-89 0 -155 -66.5t-66 -152.5q0 -66 43.5 -109.5
t111.5 -43.5zM181 -172h-83l129 128h86l83 -128h-83l-52 77z" />
    <glyph glyph-name="uni1E24" unicode="&#x1e24;" horiz-adv-x="732" 
d="M137 0h-103l128 730h103l-56 -315h363l55 315h103l-128 -730h-103l54 312h-362zM289 -170q-22 0 -36.5 14.5t-14.5 35.5q0 28 22 49.5t50 21.5q21 0 35 -14.5t14 -35.5q0 -28 -21.5 -49.5t-48.5 -21.5z" />
    <glyph glyph-name="uni1E25" unicode="&#x1e25;" horiz-adv-x="624" 
d="M121 0h-97l137 780h97l-57 -325q32 46 81 74.5t108 28.5q110 0 153 -76t23 -202l-49 -280h-98l49 280q13 83 -16.5 132.5t-100.5 49.5q-64 0 -114.5 -46t-66.5 -136zM215 -178q-22 0 -36 14.5t-14 36.5q0 28 22 49t50 21q22 0 35.5 -14t13.5 -36q0 -28 -22 -49.5
t-49 -21.5z" />
    <glyph glyph-name="uni1E2E" unicode="&#x1e2e;" horiz-adv-x="265" 
d="M286 932h-64l87 160h89zM124 775q-19 0 -31.5 12.5t-12.5 31.5q0 24 19.5 42.5t43.5 18.5q19 0 31 -12.5t12 -31.5q0 -24 -19 -42.5t-43 -18.5zM318 775q-19 0 -31 12.5t-12 31.5q0 24 19 42.5t43 18.5q19 0 31 -12.5t12 -31.5q0 -24 -19 -42.5t-43 -18.5zM135 0h-103
l128 730h103z" />
    <glyph glyph-name="uni1E2F" unicode="&#x1e2f;" horiz-adv-x="240" 
d="M252 799h-63l87 160h89zM107 653q-17 0 -28 11t-11 28q0 22 17 38.5t38 16.5q17 0 28 -11t11 -28q0 -22 -17 -38.5t-38 -16.5zM268 653q-17 0 -28 11t-11 28q0 22 17 38.5t39 16.5q17 0 27.5 -11t10.5 -28q0 -22 -17 -38.5t-38 -16.5zM121 0h-97l96 550h97z" />
    <glyph glyph-name="uni1E36" unicode="&#x1e36;" horiz-adv-x="575" 
d="M505 0h-471l128 730h103l-111 -627h368zM210 -178q-22 0 -36 14.5t-14 36.5q0 28 22 49t50 21q22 0 35.5 -14t13.5 -36q0 -28 -22 -49.5t-49 -21.5z" />
    <glyph glyph-name="uni1E37" unicode="&#x1e37;" horiz-adv-x="240" 
d="M121 0h-97l137 780h97zM40 -178q-22 0 -36.5 14.5t-14.5 36.5q0 28 22.5 49t50.5 21q22 0 35.5 -14t13.5 -36q0 -28 -22 -49.5t-49 -21.5z" />
    <glyph glyph-name="uni1E3C" unicode="&#x1e3c;" horiz-adv-x="575" 
d="M505 0h-471l128 730h103l-111 -627h368zM133 -172h-83l128 128h86l84 -128h-83l-53 77z" />
    <glyph glyph-name="uni1E3D" unicode="&#x1e3d;" horiz-adv-x="240" 
d="M121 0h-97l137 780h97zM-22 -172h-84l129 128h86l84 -128h-83l-53 77z" />
    <glyph glyph-name="uni1E3E" unicode="&#x1e3e;" horiz-adv-x="933" 
d="M564 810h-63l86 160h90zM137 0h-103l128 730h108l194 -470l359 470h109l-128 -730h-103l98 558l-328 -429h-61l-175 429z" />
    <glyph glyph-name="uni1E3F" unicode="&#x1e3f;" horiz-adv-x="909" 
d="M539 640h-63l87 160h89zM121 0h-97l96 550h90l-10 -91q28 47 74 73t93 26q63 0 100.5 -32.5t46.5 -84.5q28 51 76 84t105 33q93 0 137 -64.5t20 -201.5l-51 -292h-98l51 292q16 88 -10.5 129t-80.5 41q-51 0 -93.5 -41t-57.5 -129l-51 -292h-98l51 292q16 88 -10.5 129
t-79.5 41q-52 0 -95 -46t-59 -136z" />
    <glyph glyph-name="uni1E44" unicode="&#x1e44;" horiz-adv-x="778" 
d="M496 830q-22 0 -36.5 14.5t-14.5 35.5q0 28 22 49.5t50 21.5q21 0 35.5 -14.5t14.5 -34.5q0 -28 -22 -50t-49 -22zM137 0h-103l128 730h103l312 -549l96 549h104l-128 -730h-104l-312 550z" />
    <glyph glyph-name="uni1E45" unicode="&#x1e45;" horiz-adv-x="624" 
d="M387 660q-22 0 -36.5 14.5t-14.5 35.5q0 28 22 49.5t50 21.5q21 0 35.5 -14.5t14.5 -34.5q0 -28 -22 -50t-49 -22zM121 0h-97l96 550h90l-12 -97q32 47 82 76t110 29q110 0 153 -76t23 -202l-49 -280h-98l49 280q14 83 -16 132.5t-101 49.5q-64 0 -114.5 -46t-66.5 -136z
" />
    <glyph glyph-name="uni1E46" unicode="&#x1e46;" horiz-adv-x="778" 
d="M137 0h-103l128 730h103l312 -549l96 549h104l-128 -730h-104l-312 550zM303 -178q-22 0 -36.5 14.5t-14.5 36.5q0 28 22 49t50 21q22 0 36 -14t14 -36q0 -28 -22 -49.5t-49 -21.5z" />
    <glyph glyph-name="uni1E47" unicode="&#x1e47;" horiz-adv-x="624" 
d="M121 0h-97l96 550h90l-12 -97q32 47 82 76t110 29q101 0 150.5 -70.5t25.5 -207.5l-49 -280h-98l49 280q16 89 -18 135.5t-99 46.5q-64 0 -114.5 -46t-66.5 -136zM240 -174q-25 0 -39.5 18t-10.5 43t25 42.5t46 17.5t39.5 -17.5t9.5 -42.5q-4 -25 -25 -43t-45 -18z" />
    <glyph glyph-name="uni1E4A" unicode="&#x1e4a;" horiz-adv-x="778" 
d="M137 0h-103l128 730h103l312 -549l96 549h104l-128 -730h-104l-312 550zM241 -181h-83l129 128h86l83 -128h-83l-52 77z" />
    <glyph glyph-name="uni1E4B" unicode="&#x1e4b;" horiz-adv-x="624" 
d="M121 0h-97l96 550h90l-12 -97q32 47 82 76t110 29q101 0 150.5 -70.5t25.5 -207.5l-49 -280h-98l49 280q16 89 -18 135.5t-99 46.5q-64 0 -114.5 -46t-66.5 -136zM173 -172h-83l129 128h86l83 -128h-83l-52 77z" />
    <glyph glyph-name="uni1E4C" unicode="&#x1e4c;" horiz-adv-x="854" 
d="M588 995h-64l86 160h90zM591 816q-23 -2 -42 8.5t-28.5 23.5t-21.5 24.5t-23 11.5q-30 0 -41 -57h-66q8 50 37 83.5t69 34.5q24 1 42.5 -9.5t27.5 -24t21 -24.5t24 -11q29 0 39 57h65q-10 -54 -37 -85t-66 -32zM388 -12q-143 0 -234.5 91.5t-91.5 228.5q0 116 55.5 214.5
t156.5 158t225 59.5q143 0 234.5 -91.5t91.5 -227.5q0 -177 -125 -305t-312 -128zM396 94q133 0 227 95.5t94 223.5q0 95 -64 158.5t-162 63.5q-134 0 -228.5 -95.5t-94.5 -221.5q0 -97 64.5 -160.5t163.5 -63.5z" />
    <glyph glyph-name="uni1E4D" unicode="&#x1e4d;" horiz-adv-x="646" 
d="M437 768h-64l87 160h89zM447 612q-28 0 -48.5 17t-35 34t-27.5 17q-30 0 -41 -57h-65q9 52 39 85t71 33q28 0 48 -17.5t34 -34.5t29 -17q28 0 38 57h66q-11 -55 -39 -86t-69 -31zM280 -8q-107 0 -175 70t-68 174q0 131 94.5 226t235.5 95q105 0 174 -70t69 -172
q0 -130 -95 -226.5t-235 -96.5zM291 92q91 0 154.5 64.5t63.5 150.5q0 65 -43 108t-110 43q-93 0 -156 -64t-63 -151q0 -65 43 -108t111 -43z" />
    <glyph glyph-name="uni1E50" unicode="&#x1e50;" horiz-adv-x="854" 
d="M570 929h-64l3 160h89zM700 799h-365l14 81h365zM388 -12q-143 0 -234.5 91.5t-91.5 228.5q0 116 55.5 214.5t156.5 158t225 59.5q143 0 234.5 -91.5t91.5 -227.5q0 -177 -125 -305t-312 -128zM396 94q133 0 227 95.5t94 223.5q0 95 -64 158.5t-162 63.5
q-134 0 -228.5 -95.5t-94.5 -221.5q0 -97 64.5 -160.5t163.5 -63.5z" />
    <glyph glyph-name="uni1E51" unicode="&#x1e51;" horiz-adv-x="646" 
d="M435 753h-64l-56 160h89zM565 623h-365l15 81h365zM280 -8q-107 0 -175 70t-68 174q0 131 94.5 226t235.5 95q105 0 174 -70t69 -172q0 -130 -95 -226.5t-235 -96.5zM291 92q91 0 154.5 64.5t63.5 150.5q0 65 -43 108t-110 43q-93 0 -156 -64t-63 -151q0 -65 43 -108
t111 -43z" />
    <glyph glyph-name="uni1E52" unicode="&#x1e52;" horiz-adv-x="854" 
d="M552 933h-64l87 160h89zM701 803h-365l14 81h365zM388 -12q-143 0 -234.5 91.5t-91.5 228.5q0 116 55.5 214.5t156.5 158t225 59.5q143 0 234.5 -91.5t91.5 -227.5q0 -177 -125 -305t-312 -128zM396 94q133 0 227 95.5t94 223.5q0 95 -64 158.5t-162 63.5
q-134 0 -228.5 -95.5t-94.5 -221.5q0 -97 64.5 -160.5t163.5 -63.5z" />
    <glyph glyph-name="uni1E53" unicode="&#x1e53;" horiz-adv-x="646" 
d="M417 753h-64l87 160h89zM565 623h-365l15 81h365zM280 -8q-107 0 -175 70t-68 174q0 131 94.5 226t235.5 95q105 0 174 -70t69 -172q0 -130 -95 -226.5t-235 -96.5zM291 92q91 0 154.5 64.5t63.5 150.5q0 65 -43 108t-110 43q-93 0 -156 -64t-63 -151q0 -65 43 -108
t111 -43z" />
    <glyph glyph-name="uni1E62" unicode="&#x1e62;" horiz-adv-x="610" 
d="M274 -11q-76 0 -145 28t-113 87l76 66q70 -85 191 -86q73 0 119 33.5t46 92.5q0 42 -35.5 72t-86 49.5t-100.5 41t-85.5 61.5t-35.5 97q0 97 72.5 154t187.5 57q68 0 136 -29.5t102 -88.5l-82 -57q-20 36 -65 57.5t-94 22.5q-70 1 -112 -29.5t-42 -76.5q0 -35 35.5 -60.5
t86 -44t101 -41t86 -65t35.5 -103.5q0 -112 -77.5 -175.5t-200.5 -62.5zM225 -178q-22 0 -36.5 14.5t-14.5 36.5q0 28 22 49t50 21q22 0 36 -14t14 -36q0 -28 -22 -49.5t-49 -21.5z" />
    <glyph glyph-name="uni1E63" unicode="&#x1e63;" horiz-adv-x="556" 
d="M251 -10q-68 0 -136.5 24t-103.5 72l77 63q21 -30 70 -48.5t102 -18.5q58 0 94.5 21t36.5 60q0 23 -22.5 39.5t-57 25t-74 21.5t-74 27.5t-57 43.5t-22.5 69q0 80 61.5 125t163.5 45q64 0 124.5 -21t93.5 -70l-71 -59q-20 32 -64 47t-89 15q-54 0 -87 -17.5t-33 -51.5
q0 -24 31.5 -40.5t77 -28t91 -27t77 -48t31.5 -81.5q0 -90 -67.5 -138.5t-172.5 -48.5zM198 -178q-22 0 -36.5 14.5t-14.5 36.5q0 28 22 49t50 21q22 0 36 -14t14 -36q0 -28 -22 -49.5t-49 -21.5z" />
    <glyph glyph-name="uni1E6C" unicode="&#x1e6c;" horiz-adv-x="594" 
d="M301 0h-103l110 631h-223l18 99h549l-18 -99h-222zM218 -178q-22 0 -36 14.5t-14 36.5q0 28 22 49t50 21q22 0 35.5 -14t13.5 -36q0 -28 -22 -49.5t-49 -21.5z" />
    <glyph glyph-name="uni1E6D" unicode="&#x1e6d;" horiz-adv-x="394" 
d="M232 -9q-92 0 -129 59t-19 155l46 257h-74l15 88h77l44 180h82l-32 -180h132l-15 -88h-132l-45 -256q-19 -120 79 -120q24 0 44 7l9 -87q-36 -15 -82 -15zM103 -178q-22 0 -36 14.5t-14 36.5q0 28 22 49t50 21q21 0 35 -14t14 -36q0 -28 -22 -49.5t-49 -21.5z" />
    <glyph glyph-name="uni1E6E" unicode="&#x1e6e;" horiz-adv-x="594" 
d="M301 0h-103l110 631h-223l18 99h549l-18 -99h-222zM405 -148h-365l14 80h365z" />
    <glyph glyph-name="uni1E6F" unicode="&#x1e6f;" horiz-adv-x="397" 
d="M232 -9q-92 0 -129 59t-19 155l46 257h-74l15 88h77l44 180h82l-32 -180h132l-15 -88h-132l-45 -256q-19 -120 79 -120q24 0 44 7l9 -87q-36 -15 -82 -15zM294 -158h-365l14 80h366z" />
    <glyph glyph-name="uni1E70" unicode="&#x1e70;" horiz-adv-x="594" 
d="M301 0h-103l110 631h-223l18 99h549l-18 -99h-222zM151 -178h-83l128 128h86l83 -128h-83l-52 77z" />
    <glyph glyph-name="uni1E71" unicode="&#x1e71;" horiz-adv-x="394" 
d="M232 -9q-92 0 -129 59t-19 155l46 257h-74l15 88h77l44 180h82l-32 -180h132l-15 -88h-132l-45 -256q-19 -120 79 -120q24 0 44 7l9 -87q-36 -15 -82 -15zM38 -172h-83l128 128h86l84 -128h-83l-52 77z" />
    <glyph glyph-name="Wgrave" unicode="&#x1e80;" horiz-adv-x="1018" 
d="M631 810h-64l-56 160h89zM299 0h-106l-94 730h108l72 -554l264 555h93l67 -555l268 554h108l-350 -730h-105l-65 555z" />
    <glyph glyph-name="wgrave" unicode="&#x1e81;" horiz-adv-x="883" 
d="M535 640h-64l-56 160h89zM259 0h-97l-96 550h104l66 -400l204 400h99l63 -400l208 400h104l-289 -550h-96l-66 395z" />
    <glyph glyph-name="Wacute" unicode="&#x1e82;" horiz-adv-x="1018" 
d="M635 810h-64l87 160h89zM299 0h-106l-94 730h108l72 -554l264 555h93l67 -555l268 554h108l-350 -730h-105l-65 555z" />
    <glyph glyph-name="wacute" unicode="&#x1e83;" horiz-adv-x="883" 
d="M541 640h-64l87 160h90zM259 0h-97l-96 550h104l66 -400l204 400h99l63 -400l208 400h104l-289 -550h-96l-66 395z" />
    <glyph glyph-name="Wdieresis" unicode="&#x1e84;" horiz-adv-x="1018" 
d="M512 838q-19 0 -31.5 12.5t-12.5 31.5q0 24 19 42.5t43 18.5q19 0 31.5 -12.5t12.5 -29.5q0 -25 -19 -44t-43 -19zM706 838q-19 0 -31.5 12.5t-12.5 31.5q0 24 19 42.5t43 18.5q19 0 31.5 -12t12.5 -30q0 -25 -19 -44t-43 -19zM299 0h-106l-94 730h108l72 -554l264 555
h93l67 -555l268 554h108l-350 -730h-105l-65 555z" />
    <glyph glyph-name="wdieresis" unicode="&#x1e85;" horiz-adv-x="883" 
d="M414 668q-19 0 -31.5 12.5t-12.5 31.5q0 24 19 42.5t43 18.5q19 0 31.5 -12t12.5 -30q0 -25 -19 -44t-43 -19zM609 668q-19 0 -31.5 12.5t-12.5 31.5q0 24 19 42.5t43 18.5q19 0 31.5 -12.5t12.5 -29.5q0 -25 -19 -44t-43 -19zM259 0h-97l-96 550h104l66 -400l204 400h99
l63 -400l208 400h104l-289 -550h-96l-66 395z" />
    <glyph glyph-name="uni1E92" unicode="&#x1e92;" horiz-adv-x="641" 
d="M551 0h-557l18 102l501 527h-398l18 101h536l-18 -101l-501 -527h418zM245 -178q-22 0 -36.5 14.5t-14.5 36.5q0 28 22 49t50 21q22 0 36 -14t14 -36q0 -28 -22 -49.5t-49 -21.5z" />
    <glyph glyph-name="uni1E93" unicode="&#x1e93;" horiz-adv-x="572" 
d="M473 0h-470l12 73l392 389h-323l15 88h456l-12 -77l-384 -381h330zM207 -178q-22 0 -36 14.5t-14 36.5q0 28 22 49t50 21q21 0 35 -14t14 -36q0 -28 -22 -49.5t-49 -21.5z" />
    <glyph glyph-name="Germandbls" unicode="&#x1e9e;" horiz-adv-x="641" 
d="M336 -10q-90 0 -131 28l16 90q53 -27 114 -27q67 0 114 45.5t47 109.5q0 31 -13 55.5t-39 41.5t-42 25t-45 19l7 40l144 171q-32 64 -129 64q-53 0 -100.5 -31t-60.5 -104l-91 -517h-93l93 532q18 97 91.5 152t176.5 55q87 0 140.5 -33t73.5 -90l-7 -39l-138 -157
q2 -1 18 -9.5t24 -14t23.5 -17t24.5 -23.5t19 -28.5t15 -37.5t5 -45q0 -107 -75.5 -181t-181.5 -74z" />
    <glyph glyph-name="uni1EA0" unicode="&#x1ea0;" horiz-adv-x="676" 
d="M83 0h-116l395 730h112l139 -730h-110l-37 190h-281zM396 591l-164 -304h221zM262 -161q-22 0 -36 14.5t-14 35.5q0 28 22 49.5t50 21.5q22 0 35.5 -14t13.5 -36q0 -28 -22 -49.5t-49 -21.5z" />
    <glyph glyph-name="uni1EA1" unicode="&#x1ea1;" 
d="M262 -7q-97 0 -161.5 69.5t-64.5 170.5q0 129 93.5 227t222.5 98q67 0 120.5 -35.5t69.5 -88.5l25 116h90l-96 -550h-90l15 115q-35 -53 -96.5 -87.5t-127.5 -34.5zM292 90q87 0 154.5 66t67.5 152q0 66 -44 110t-112 44q-86 0 -153.5 -67t-67.5 -152q0 -66 43.5 -109.5
t111.5 -43.5zM242 -178q-22 0 -36 14.5t-14 36.5q0 28 22 49t50 21q22 0 35.5 -14t13.5 -36q0 -28 -22 -49.5t-49 -21.5z" />
    <glyph glyph-name="uni1EA2" unicode="&#x1ea2;" horiz-adv-x="676" 
d="M403 799l8 50q68 0 75 37q3 15 -8.5 25t-35.5 10q-42 0 -67 -18l-14 55q38 24 98 24q47 0 73.5 -27t19.5 -65q-7 -39 -47 -65t-102 -26zM83 0h-116l395 730h112l139 -730h-110l-37 190h-281zM396 591l-164 -304h221z" />
    <glyph glyph-name="uni1EA3" unicode="&#x1ea3;" 
d="M353 629l8 50q68 0 75 37q3 15 -8.5 25t-35.5 10q-42 0 -67 -18l-13 55q36 24 97 24q47 0 74 -27t19 -65q-7 -39 -47 -65t-102 -26zM262 -7q-97 0 -161.5 69.5t-64.5 170.5q0 129 93.5 227t222.5 98q67 0 120.5 -35.5t69.5 -88.5l25 116h90l-96 -550h-90l15 115
q-35 -53 -96.5 -87.5t-127.5 -34.5zM292 90q87 0 154.5 66t67.5 152q0 66 -44 110t-112 44q-86 0 -153.5 -67t-67.5 -152q0 -66 43.5 -109.5t111.5 -43.5z" />
    <glyph glyph-name="uni1EA4" unicode="&#x1ea4;" horiz-adv-x="678" 
d="M599 909h-64l87 160h89zM365 782h-83l128 128h86l84 -128h-83l-52 77zM83 0h-116l395 730h112l139 -730h-110l-37 190h-281zM396 591l-164 -304h221z" />
    <glyph glyph-name="uni1EA5" unicode="&#x1ea5;" horiz-adv-x="675" 
d="M534 744h-63l86 160h90zM301 617h-83l128 128h86l83 -128h-83l-52 77zM262 -7q-97 0 -161.5 69.5t-64.5 170.5q0 129 93.5 227t222.5 98q67 0 120.5 -35.5t69.5 -88.5l25 116h90l-96 -550h-90l15 115q-35 -53 -96.5 -87.5t-127.5 -34.5zM292 90q87 0 154.5 66t67.5 152
q0 66 -44 110t-112 44q-86 0 -153.5 -67t-67.5 -152q0 -66 43.5 -109.5t111.5 -43.5z" />
    <glyph glyph-name="uni1EA6" unicode="&#x1ea6;" horiz-adv-x="679" 
d="M357 907h-63l-57 160h90zM353 784h-83l128 127h86l84 -127h-83l-52 76zM83 0h-116l395 730h112l139 -730h-110l-37 190h-281zM396 591l-164 -304h221z" />
    <glyph glyph-name="uni1EA7" unicode="&#x1ea7;" 
d="M337 742h-64l-56 160h89zM333 619h-83l128 127h86l84 -127h-83l-53 76zM262 -7q-97 0 -161.5 69.5t-64.5 170.5q0 129 93.5 227t222.5 98q67 0 120.5 -35.5t69.5 -88.5l25 116h90l-96 -550h-90l15 115q-35 -53 -96.5 -87.5t-127.5 -34.5zM292 90q87 0 154.5 66t67.5 152
q0 66 -44 110t-112 44q-86 0 -153.5 -67t-67.5 -152q0 -66 43.5 -109.5t111.5 -43.5z" />
    <glyph glyph-name="uni1EA8" unicode="&#x1ea8;" horiz-adv-x="676" 
d="M528 902l9 50q70 0 75 37q3 16 -8.5 25.5t-35.5 9.5q-45 0 -66 -17l-14 54q37 25 98 25q47 0 73 -27t19 -65q-6 -40 -46.5 -66t-103.5 -26zM359 781h-83l128 127h86l84 -127h-83l-53 76zM83 0h-116l395 730h112l139 -730h-110l-37 190h-281zM396 591l-164 -304h221z" />
    <glyph glyph-name="uni1EA9" unicode="&#x1ea9;" 
d="M485 730l9 50q68 0 75 37q3 15 -9 25t-35 10q-42 0 -67 -18l-13 55q36 24 98 24q47 0 73 -27t19 -65q-7 -39 -47 -65t-103 -26zM316 608h-83l128 128h86l84 -128h-83l-53 77zM262 -7q-97 0 -161.5 69.5t-64.5 170.5q0 129 93.5 227t222.5 98q67 0 120.5 -35.5t69.5 -88.5
l25 116h90l-96 -550h-90l15 115q-35 -53 -96.5 -87.5t-127.5 -34.5zM292 90q87 0 154.5 66t67.5 152q0 66 -44 110t-112 44q-86 0 -153.5 -67t-67.5 -152q0 -66 43.5 -109.5t111.5 -43.5z" />
    <glyph glyph-name="uni1EAA" unicode="&#x1eaa;" horiz-adv-x="676" 
d="M527 933q-30 -2 -51 15t-36 35t-29 18q-30 0 -40 -57h-66q9 51 38 84t68 34q24 1 42.5 -9.5t27.5 -24t20.5 -24.5t23.5 -11q30 0 39 57h66q-9 -53 -36.5 -84.5t-66.5 -32.5zM361 786h-83l128 128h86l83 -128h-83l-53 77zM83 0h-116l395 730h112l139 -730h-110l-37 190
h-281zM396 591l-164 -304h221z" />
    <glyph glyph-name="uni1EAB" unicode="&#x1eab;" 
d="M483 768q-22 0 -40 10.5t-27.5 23.5t-21 23.5t-22.5 10.5q-31 0 -40 -57h-66q9 52 39 85t71 33q22 0 40 -11t27 -23.5t20.5 -23.5t23.5 -11q29 0 38 57h66q-10 -55 -38.5 -86t-69.5 -31zM321 621h-83l129 128h86l82 -128h-83l-52 77zM262 -7q-97 0 -161.5 69.5
t-64.5 170.5q0 129 93.5 227t222.5 98q67 0 120.5 -35.5t69.5 -88.5l25 116h90l-96 -550h-90l15 115q-35 -53 -96.5 -87.5t-127.5 -34.5zM292 90q87 0 154.5 66t67.5 152q0 66 -44 110t-112 44q-86 0 -153.5 -67t-67.5 -152q0 -66 43.5 -109.5t111.5 -43.5z" />
    <glyph glyph-name="uni1EAC" unicode="&#x1eac;" horiz-adv-x="676" 
d="M370 827h-83l128 127h86l83 -127h-83l-52 76zM83 0h-116l395 730h112l139 -730h-110l-37 190h-281zM396 591l-164 -304h221zM262 -161q-22 0 -36 14.5t-14 35.5q0 28 22 49.5t50 21.5q22 0 35.5 -14t13.5 -36q0 -28 -22 -49.5t-49 -21.5z" />
    <glyph glyph-name="uni1EAD" unicode="&#x1ead;" 
d="M330 657h-83l128 127h86l83 -127h-83l-52 76zM262 -7q-97 0 -161.5 69.5t-64.5 170.5q0 129 93.5 227t222.5 98q67 0 120.5 -35.5t69.5 -88.5l25 116h90l-96 -550h-90l15 115q-35 -53 -96.5 -87.5t-127.5 -34.5zM292 90q87 0 154.5 66t67.5 152q0 66 -44 110t-112 44
q-86 0 -153.5 -67t-67.5 -152q0 -66 43.5 -109.5t111.5 -43.5zM242 -178q-22 0 -36 14.5t-14 36.5q0 28 22 49t50 21q22 0 35.5 -14t13.5 -36q0 -28 -22 -49.5t-49 -21.5z" />
    <glyph glyph-name="uni1EAE" unicode="&#x1eae;" horiz-adv-x="676" 
d="M483 923h-64l87 160h90zM428 768q-64 0 -101.5 43t-28.5 104h59q-5 -36 19 -62t63 -26q38 0 70 25.5t41 62.5h59q-13 -62 -66 -104.5t-115 -42.5zM83 0h-116l395 730h112l139 -730h-110l-37 190h-281zM396 591l-164 -304h221z" />
    <glyph glyph-name="uni1EAF" unicode="&#x1eaf;" 
d="M450 778h-63l86 160h89zM403 623q-65 0 -105.5 43.5t-31.5 103.5h59q-5 -36 18.5 -62t62.5 -26q38 0 70.5 25.5t41.5 62.5h59q-14 -63 -63 -105t-111 -42zM262 -7q-97 0 -161.5 69.5t-64.5 170.5q0 129 93.5 227t222.5 98q67 0 120.5 -35.5t69.5 -88.5l25 116h90
l-96 -550h-90l15 115q-35 -53 -96.5 -87.5t-127.5 -34.5zM292 90q87 0 154.5 66t67.5 152q0 66 -44 110t-112 44q-86 0 -153.5 -67t-67.5 -152q0 -66 43.5 -109.5t111.5 -43.5z" />
    <glyph glyph-name="uni1EB0" unicode="&#x1eb0;" horiz-adv-x="676" 
d="M496 920h-64l-56 160h89zM429 765q-64 0 -101.5 43.5t-28.5 104.5h59q-5 -37 18.5 -62.5t62.5 -25.5t71 25t41 63h59q-13 -62 -66 -105t-115 -43zM83 0h-116l395 730h112l139 -730h-110l-37 190h-281zM396 591l-164 -304h221z" />
    <glyph glyph-name="uni1EB1" unicode="&#x1eb1;" 
d="M447 778h-64l-57 160h90zM386 623q-64 0 -103.5 43.5t-30.5 103.5h60q-5 -36 18.5 -62t62.5 -26q38 0 70 25.5t41 62.5h59q-14 -63 -64.5 -105t-112.5 -42zM262 -7q-97 0 -161.5 69.5t-64.5 170.5q0 129 93.5 227t222.5 98q67 0 120.5 -35.5t69.5 -88.5l25 116h90
l-96 -550h-90l15 115q-35 -53 -96.5 -87.5t-127.5 -34.5zM292 90q87 0 154.5 66t67.5 152q0 66 -44 110t-112 44q-86 0 -153.5 -67t-67.5 -152q0 -66 43.5 -109.5t111.5 -43.5z" />
    <glyph glyph-name="uni1EB2" unicode="&#x1eb2;" horiz-adv-x="676" 
d="M431 920l9 50q68 0 75 37q2 16 -9 25.5t-35 9.5q-40 0 -67 -17l-14 54q37 25 98 25q47 0 73.5 -27t19.5 -65q-7 -40 -47.5 -66t-102.5 -26zM426 763q-63 0 -100.5 42.5t-29.5 104.5h60q-4 -38 19 -63t62 -25q38 0 70 25t41 63h59q-13 -62 -65.5 -104.5t-115.5 -42.5z
M83 0h-116l395 730h112l139 -730h-110l-37 190h-281zM396 591l-164 -304h221z" />
    <glyph glyph-name="uni1EB3" unicode="&#x1eb3;" 
d="M388 768l9 50q68 0 74 37q3 15 -8.5 25t-35.5 10q-42 0 -67 -18l-13 55q36 24 97 24q47 0 73.5 -27t20.5 -65q-8 -40 -48 -65.5t-102 -25.5zM385 610q-63 0 -101.5 42.5t-30.5 104.5h60q-4 -37 19 -62.5t62 -25.5q38 0 70 25.5t41 62.5h59q-14 -63 -65 -105t-114 -42z
M262 -7q-97 0 -161.5 69.5t-64.5 170.5q0 129 93.5 227t222.5 98q67 0 120.5 -35.5t69.5 -88.5l25 116h90l-96 -550h-90l15 115q-35 -53 -96.5 -87.5t-127.5 -34.5zM292 90q87 0 154.5 66t67.5 152q0 66 -44 110t-112 44q-86 0 -153.5 -67t-67.5 -152q0 -66 43.5 -109.5
t111.5 -43.5z" />
    <glyph glyph-name="uni1EB4" unicode="&#x1eb4;" horiz-adv-x="676" 
d="M543 941q-23 -2 -42 8.5t-28.5 24t-21.5 25t-23 11.5q-31 0 -41 -58h-66q9 51 38 84t68 34q24 1 42.5 -9t28 -23.5t21 -24.5t22.5 -11q30 0 40 57h65q-9 -54 -36 -85.5t-67 -32.5zM438 778q-64 0 -101 43t-29 104h60q-5 -37 18 -62.5t63 -25.5q38 0 70 25t41 63h59
q-13 -62 -66 -104.5t-115 -42.5zM83 0h-116l395 730h112l139 -730h-110l-37 190h-281zM396 591l-164 -304h221z" />
    <glyph glyph-name="uni1EB5" unicode="&#x1eb5;" 
d="M490 796q-22 0 -40 11t-27.5 23.5t-20.5 23.5t-22 11q-32 0 -41 -58h-66q9 52 39 85t71 33q28 0 48 -17t34.5 -34t28.5 -17q28 0 38 57h66q-10 -55 -38.5 -86.5t-69.5 -31.5zM395 633q-64 0 -104 43.5t-31 103.5h60q-2 -41 19.5 -64.5t60.5 -23.5q38 0 70 25t42 63h59
q-14 -63 -64 -105t-112 -42zM262 -7q-97 0 -161.5 69.5t-64.5 170.5q0 129 93.5 227t222.5 98q67 0 120.5 -35.5t69.5 -88.5l25 116h90l-96 -550h-90l15 115q-35 -53 -96.5 -87.5t-127.5 -34.5zM292 90q87 0 154.5 66t67.5 152q0 66 -44 110t-112 44q-86 0 -153.5 -67
t-67.5 -152q0 -66 43.5 -109.5t111.5 -43.5z" />
    <glyph glyph-name="uni1EB6" unicode="&#x1eb6;" horiz-adv-x="676" 
d="M434 817q-63 0 -101 43.5t-29 103.5h59q-5 -37 18.5 -62.5t63.5 -25.5q38 0 70 25t41 63h59q-13 -62 -65.5 -104.5t-115.5 -42.5zM83 0h-116l395 730h112l139 -730h-110l-37 190h-281zM396 591l-164 -304h221zM262 -161q-22 0 -36 14.5t-14 35.5q0 28 22 49.5t50 21.5
q22 0 35.5 -14t13.5 -36q0 -28 -22 -49.5t-49 -21.5z" />
    <glyph glyph-name="uni1EB7" unicode="&#x1eb7;" 
d="M395 647q-65 0 -105.5 43.5t-31.5 103.5h60q-2 -42 20 -65t61 -23q38 0 70 25t41 63h59q-14 -63 -63 -105t-111 -42zM262 -7q-97 0 -161.5 69.5t-64.5 170.5q0 129 93.5 227t222.5 98q67 0 120.5 -35.5t69.5 -88.5l25 116h90l-96 -550h-90l15 115q-35 -53 -96.5 -87.5
t-127.5 -34.5zM292 90q87 0 154.5 66t67.5 152q0 66 -44 110t-112 44q-86 0 -153.5 -67t-67.5 -152q0 -66 43.5 -109.5t111.5 -43.5zM242 -178q-22 0 -36 14.5t-14 36.5q0 28 22 49t50 21q22 0 35.5 -14t13.5 -36q0 -28 -22 -49.5t-49 -21.5z" />
    <glyph glyph-name="uni1EB8" unicode="&#x1eb8;" horiz-adv-x="591" 
d="M495 0h-461l128 730h451l-17 -95h-349l-37 -213h328l-16 -95h-328l-41 -227h359zM214 -168q-22 0 -36 14.5t-14 35.5q0 28 22 49.5t50 21.5q21 0 35 -14.5t14 -35.5q0 -28 -22 -49.5t-49 -21.5z" />
    <glyph glyph-name="uni1EB9" unicode="&#x1eb9;" horiz-adv-x="637" 
d="M293 -8q-110 0 -183 70.5t-73 173.5q0 131 93.5 226t229.5 95q115 0 184 -74t56 -189q-1 -21 -11 -61h-450q-1 -66 45 -107.5t113 -41.5q105 0 174 72l70 -52q-104 -112 -248 -112zM150 308h353q8 71 -32 115.5t-113 44.5q-75 0 -133 -45t-75 -115zM231 -178
q-22 0 -36 14.5t-14 36.5q0 28 22 49t50 21q22 0 35.5 -14t13.5 -36q0 -28 -22 -49.5t-49 -21.5z" />
    <glyph glyph-name="uni1EBA" unicode="&#x1eba;" horiz-adv-x="591" 
d="M348 799l8 50q68 0 76 37q2 15 -10 25t-35 10q-42 0 -67 -18l-13 55q38 24 98 24q47 0 73 -27t19 -65q-7 -39 -47 -65t-102 -26zM495 0h-461l128 730h451l-17 -95h-349l-37 -213h328l-16 -95h-328l-41 -227h359z" />
    <glyph glyph-name="uni1EBB" unicode="&#x1ebb;" horiz-adv-x="636" 
d="M343 629l9 50q68 0 75 37q3 15 -9 25t-35 10q-42 0 -67 -18l-14 55q38 24 98 24q47 0 73.5 -27t18.5 -65q-6 -39 -46 -65t-103 -26zM293 -8q-110 0 -183 70.5t-73 173.5q0 131 93.5 226t229.5 95q115 0 184 -74t56 -189q-1 -21 -11 -61h-450q-1 -66 45 -107.5t113 -41.5
q105 0 174 72l70 -52q-104 -112 -248 -112zM150 308h353q8 71 -32 115.5t-113 44.5q-75 0 -133 -45t-75 -115z" />
    <glyph glyph-name="uni1EBC" unicode="&#x1ebc;" horiz-adv-x="591" 
d="M453 827q-23 -2 -42 8.5t-29 23.5t-22 24.5t-23 11.5q-31 0 -41 -57h-66q9 51 38 84t69 34q24 1 42.5 -9.5t27.5 -24t21 -24.5t24 -11q28 0 38 57h66q-10 -53 -37 -84.5t-66 -32.5zM495 0h-461l128 730h451l-17 -95h-349l-37 -213h328l-16 -95h-328l-41 -227h359z" />
    <glyph glyph-name="uni1EBD" unicode="&#x1ebd;" horiz-adv-x="637" 
d="M443 657q-28 0 -48 17t-34.5 34t-27.5 17q-31 0 -41 -57h-66q9 51 39.5 84.5t71.5 33.5q22 0 39.5 -11t26.5 -23.5t21 -23.5t24 -11q28 0 38 57h66q-11 -55 -39 -86t-70 -31zM293 -8q-110 0 -183 70.5t-73 173.5q0 131 93.5 226t229.5 95q115 0 184 -74t56 -189
q-1 -21 -11 -61h-450q-1 -66 45 -107.5t113 -41.5q105 0 174 72l70 -52q-104 -112 -248 -112zM150 308h353q8 71 -32 115.5t-113 44.5q-75 0 -133 -45t-75 -115z" />
    <glyph glyph-name="uni1EBE" unicode="&#x1ebe;" horiz-adv-x="616" 
d="M552 909h-64l87 160h89zM318 782h-83l128 128h86l83 -128h-83l-52 77zM495 0h-461l128 730h451l-17 -95h-349l-37 -213h328l-16 -95h-328l-41 -227h359z" />
    <glyph glyph-name="uni1EBF" unicode="&#x1ebf;" horiz-adv-x="642" 
d="M513 744h-64l87 160h90zM279 617h-83l129 128h86l83 -128h-83l-52 77zM293 -8q-110 0 -183 70.5t-73 173.5q0 131 93.5 226t229.5 95q115 0 184 -74t56 -189q-1 -21 -11 -61h-450q-1 -66 45 -107.5t113 -41.5q105 0 174 72l70 -52q-104 -112 -248 -112zM150 308h353
q8 71 -32 115.5t-113 44.5q-75 0 -133 -45t-75 -115z" />
    <glyph glyph-name="uni1EC0" unicode="&#x1ec0;" horiz-adv-x="630" 
d="M383 907h-64l-56 160h89zM379 784h-83l128 127h86l84 -127h-83l-53 76zM533 0h-461l128 730h451l-17 -95h-348l-37 -213h328l-16 -95h-329l-40 -227h358z" />
    <glyph glyph-name="uni1EC1" unicode="&#x1ec1;" horiz-adv-x="649" 
d="M338 742h-64l-56 160h89zM334 619h-83l128 127h86l83 -127h-83l-52 76zM293 -8q-110 0 -183 70.5t-73 173.5q0 131 93.5 226t229.5 95q115 0 184 -74t56 -189q-1 -21 -11 -61h-450q-1 -66 45 -107.5t113 -41.5q105 0 174 72l70 -52q-104 -112 -248 -112zM150 308h353
q8 71 -32 115.5t-113 44.5q-75 0 -133 -45t-75 -115z" />
    <glyph glyph-name="uni1EC2" unicode="&#x1ec2;" horiz-adv-x="595" 
d="M490 902l9 50q69 0 74 37q4 16 -7.5 25.5t-35.5 9.5q-44 0 -67 -17l-14 54q37 25 98 25q47 0 73.5 -27t19.5 -65q-7 -40 -47.5 -66t-102.5 -26zM320 781h-83l129 127h86l83 -127h-83l-52 76zM495 0h-461l128 730h451l-17 -95h-349l-37 -213h328l-16 -95h-328l-41 -227
h359z" />
    <glyph glyph-name="uni1EC3" unicode="&#x1ec3;" horiz-adv-x="637" 
d="M459 737l9 50q69 0 74 37q4 16 -7.5 25.5t-35.5 9.5q-44 0 -67 -17l-14 54q37 25 98 25q47 0 73.5 -27t19.5 -65q-7 -40 -47.5 -66t-102.5 -26zM289 616h-83l129 127h86l83 -127h-83l-52 76zM293 -8q-110 0 -183 70.5t-73 173.5q0 131 93.5 226t229.5 95q115 0 184 -74
t56 -189q-1 -21 -11 -61h-450q-1 -66 45 -107.5t113 -41.5q105 0 174 72l70 -52q-104 -112 -248 -112zM150 308h353q8 71 -32 115.5t-113 44.5q-75 0 -133 -45t-75 -115z" />
    <glyph glyph-name="uni1EC4" unicode="&#x1ec4;" horiz-adv-x="591" 
d="M498 933q-22 0 -40 10.5t-27.5 23.5t-21 23.5t-22.5 10.5q-30 0 -40 -57h-66q9 52 39 85t71 33q22 0 40 -11t27 -23.5t20.5 -23.5t23.5 -11q29 0 39 57h65q-10 -55 -38.5 -86t-69.5 -31zM337 786h-83l128 128h86l83 -128h-83l-53 77zM495 0h-461l128 730h451l-17 -95
h-349l-37 -213h328l-16 -95h-328l-41 -227h359z" />
    <glyph glyph-name="uni1EC5" unicode="&#x1ec5;" horiz-adv-x="637" 
d="M473 768q-28 0 -48 17t-34.5 34t-27.5 17q-31 0 -41 -57h-65q9 52 39 85t71 33q28 0 48 -17.5t34.5 -34.5t28.5 -17q28 0 38 57h65q-9 -55 -37.5 -86t-70.5 -31zM312 621h-83l128 128h86l83 -128h-83l-52 77zM293 -8q-110 0 -183 70.5t-73 173.5q0 131 93.5 226t229.5 95
q115 0 184 -74t56 -189q-1 -21 -11 -61h-450q-1 -66 45 -107.5t113 -41.5q105 0 174 72l70 -52q-104 -112 -248 -112zM150 308h353q8 71 -32 115.5t-113 44.5q-75 0 -133 -45t-75 -115z" />
    <glyph glyph-name="uni1EC6" unicode="&#x1ec6;" horiz-adv-x="591" 
d="M347 827h-83l128 127h86l83 -127h-83l-52 76zM495 0h-461l128 730h451l-17 -95h-349l-37 -213h328l-16 -95h-328l-41 -227h359zM214 -168q-22 0 -36 14.5t-14 35.5q0 28 22 49.5t50 21.5q21 0 35 -14.5t14 -35.5q0 -28 -22 -49.5t-49 -21.5z" />
    <glyph glyph-name="uni1EC7" unicode="&#x1ec7;" horiz-adv-x="637" 
d="M312 657h-83l128 127h86l83 -127h-83l-52 76zM293 -8q-110 0 -183 70.5t-73 173.5q0 131 93.5 226t229.5 95q115 0 184 -74t56 -189q-1 -21 -11 -61h-450q-1 -66 45 -107.5t113 -41.5q105 0 174 72l70 -52q-104 -112 -248 -112zM150 308h353q8 71 -32 115.5t-113 44.5
q-75 0 -133 -45t-75 -115zM231 -178q-22 0 -36 14.5t-14 36.5q0 28 22 49t50 21q22 0 35.5 -14t13.5 -36q0 -28 -22 -49.5t-49 -21.5z" />
    <glyph glyph-name="uni1EC8" unicode="&#x1ec8;" horiz-adv-x="267" 
d="M193 799l8 50q68 0 75 37q3 15 -8.5 25t-35.5 10q-42 0 -67 -18l-13 55q36 24 97 24q47 0 73.5 -27t19.5 -65q-7 -39 -47 -65t-102 -26zM140 0h-103l128 730h103z" />
    <glyph glyph-name="uni1EC9" unicode="&#x1ec9;" horiz-adv-x="240" 
d="M139 629l9 50q67 0 75 37q2 15 -10 25t-35 10q-40 0 -67 -18l-13 55q38 24 98 24q47 0 73.5 -27t18.5 -65q-7 -39 -47 -65t-102 -26zM121 0h-97l96 550h97z" />
    <glyph glyph-name="uni1ECA" unicode="&#x1eca;" horiz-adv-x="265" 
d="M134 0h-103l128 730h103zM52 -178q-22 0 -36 14.5t-14 36.5q0 28 22 49t50 21q22 0 35.5 -14t13.5 -36q0 -28 -22 -49.5t-49 -21.5z" />
    <glyph glyph-name="uni1ECB" unicode="&#x1ecb;" horiz-adv-x="241" 
d="M180 606q-22 0 -37 15t-15 37q0 28 22.5 50t50.5 22q22 0 36.5 -14.5t14.5 -35.5q0 -29 -22.5 -51.5t-49.5 -22.5zM121 0h-97l96 550h97zM41 -178q-22 0 -36.5 14.5t-14.5 36.5q0 28 22.5 49t50.5 21q22 0 35.5 -14t13.5 -36q0 -28 -22 -49.5t-49 -21.5z" />
    <glyph glyph-name="uni1ECC" unicode="&#x1ecc;" horiz-adv-x="854" 
d="M388 -12q-143 0 -234.5 91.5t-91.5 228.5q0 116 55.5 214.5t156.5 158t225 59.5q143 0 234.5 -91.5t91.5 -227.5q0 -177 -125 -305t-312 -128zM396 94q133 0 227 95.5t94 223.5q0 95 -64 158.5t-162 63.5q-134 0 -228.5 -95.5t-94.5 -221.5q0 -97 64.5 -160.5
t163.5 -63.5zM338 -178q-22 0 -36 14.5t-14 36.5q0 28 22 49t50 21q21 0 35 -14t14 -36q0 -28 -22 -49.5t-49 -21.5z" />
    <glyph glyph-name="uni1ECD" unicode="&#x1ecd;" horiz-adv-x="646" 
d="M280 -8q-107 0 -175 70t-68 174q0 133 95 227t235 94q105 0 174 -70t69 -172q0 -133 -94.5 -228t-235.5 -95zM291 92q91 0 154.5 64.5t63.5 150.5q0 65 -43 108t-110 43q-93 0 -156 -64t-63 -151q0 -65 43 -108t111 -43zM242 -178q-22 0 -36.5 14.5t-14.5 36.5
q0 28 22 49t50 21q22 0 36 -14t14 -36q0 -28 -22 -49.5t-49 -21.5z" />
    <glyph glyph-name="uni1ECE" unicode="&#x1ece;" horiz-adv-x="851" 
d="M478 799l9 50q67 0 75 37q2 16 -9.5 25.5t-35.5 9.5q-40 0 -67 -18l-13 55q38 24 98 24q47 0 73.5 -27t18.5 -65q-6 -39 -46.5 -65t-102.5 -26zM378 -12q-145 0 -236 98t-80 240q7 110 66.5 204.5t159.5 152t216 57.5q145 0 236.5 -97.5t80.5 -238.5
q-11 -169 -139 -292.5t-304 -123.5zM394 94q129 0 222.5 92t98.5 217q4 98 -60.5 165t-165.5 67q-131 0 -224 -92t-98 -215q-4 -100 60.5 -167t166.5 -67z" />
    <glyph glyph-name="uni1ECF" unicode="&#x1ecf;" horiz-adv-x="646" 
d="M352 629l8 50q68 0 75 37q3 15 -9 25t-35 10q-42 0 -67 -18l-14 55q38 24 98 24q47 0 73.5 -27t19.5 -65q-7 -39 -47 -65t-102 -26zM280 -8q-107 0 -175 70t-68 174q0 131 94.5 226t235.5 95q105 0 174 -70t69 -172q0 -130 -95 -226.5t-235 -96.5zM291 92
q91 0 154.5 64.5t63.5 150.5q0 65 -43 108t-110 43q-93 0 -156 -64t-63 -151q0 -65 43 -108t111 -43z" />
    <glyph glyph-name="uni1ED0" unicode="&#x1ed0;" horiz-adv-x="854" 
d="M658 909h-64l87 160h90zM424 782h-83l129 128h86l83 -128h-83l-52 77zM388 -12q-143 0 -234.5 91.5t-91.5 228.5q0 116 55.5 214.5t156.5 158t225 59.5q143 0 234.5 -91.5t91.5 -227.5q0 -177 -125 -305t-312 -128zM396 94q133 0 227 95.5t94 223.5q0 95 -64 158.5
t-162 63.5q-134 0 -228.5 -95.5t-94.5 -221.5q0 -97 64.5 -160.5t163.5 -63.5z" />
    <glyph glyph-name="uni1ED1" unicode="&#x1ed1;" horiz-adv-x="646" 
d="M520 744h-64l87 160h89zM286 617h-83l128 128h86l83 -128h-83l-52 77zM280 -8q-107 0 -175 70t-68 174q0 133 95 227t235 94q105 0 174 -70t69 -172q0 -133 -94.5 -228t-235.5 -95zM291 92q91 0 154.5 64.5t63.5 150.5q0 65 -43 108t-110 43q-93 0 -156 -64t-63 -151
q0 -65 43 -108t111 -43z" />
    <glyph glyph-name="uni1ED2" unicode="&#x1ed2;" horiz-adv-x="854" 
d="M443 907h-64l-56 160h89zM439 784h-83l128 127h86l83 -127h-83l-52 76zM388 -12q-143 0 -234.5 91.5t-91.5 228.5q0 116 55.5 214.5t156.5 158t225 59.5q143 0 234.5 -91.5t91.5 -227.5q0 -177 -125 -305t-312 -128zM396 94q133 0 227 95.5t94 223.5q0 95 -64 158.5
t-162 63.5q-134 0 -228.5 -95.5t-94.5 -221.5q0 -97 64.5 -160.5t163.5 -63.5z" />
    <glyph glyph-name="uni1ED3" unicode="&#x1ed3;" horiz-adv-x="646" 
d="M361 742h-63l-57 160h90zM357 619h-83l128 127h86l84 -127h-83l-53 76zM280 -8q-107 0 -175 70t-68 174q0 133 95 227t235 94q105 0 174 -70t69 -172q0 -133 -94.5 -228t-235.5 -95zM291 92q91 0 154.5 64.5t63.5 150.5q0 65 -43 108t-110 43q-93 0 -156 -64t-63 -151
q0 -65 43 -108t111 -43z" />
    <glyph glyph-name="uni1ED4" unicode="&#x1ed4;" horiz-adv-x="851" 
d="M574 902l9 50q68 0 75 37q3 16 -8.5 25.5t-35.5 9.5q-44 0 -67 -17l-14 54q37 25 98 25q47 0 73.5 -27t19.5 -65q-7 -40 -47.5 -66t-102.5 -26zM405 781h-83l128 127h86l83 -127h-83l-52 76zM378 -12q-145 0 -236 98t-80 240q7 110 66.5 204.5t159.5 152t216 57.5
q145 0 236.5 -97.5t80.5 -238.5q-11 -169 -139 -292.5t-304 -123.5zM394 94q129 0 222.5 92t98.5 217q4 98 -60.5 165t-165.5 67q-131 0 -224 -92t-98 -215q-4 -100 60.5 -167t166.5 -67z" />
    <glyph glyph-name="uni1ED5" unicode="&#x1ed5;" horiz-adv-x="646" 
d="M459 737l9 50q69 0 74 37q4 16 -7.5 25.5t-35.5 9.5q-44 0 -67 -17l-14 54q37 25 98 25q47 0 73.5 -27t19.5 -65q-7 -40 -47.5 -66t-102.5 -26zM289 616h-83l129 127h86l83 -127h-83l-52 76zM280 -8q-107 0 -175 70t-68 174q0 131 94.5 226t235.5 95q105 0 174 -70
t69 -172q0 -130 -95 -226.5t-235 -96.5zM291 92q91 0 154.5 64.5t63.5 150.5q0 65 -43 108t-110 43q-93 0 -156 -64t-63 -151q0 -65 43 -108t111 -43z" />
    <glyph glyph-name="uni1ED6" unicode="&#x1ed6;" horiz-adv-x="854" 
d="M596 933q-22 0 -39.5 10.5t-27 23.5t-21 23.5t-22.5 10.5q-30 0 -40 -57h-66q9 52 39 85t71 33q22 0 40 -11t27 -23.5t20.5 -23.5t23.5 -11q28 0 38 57h66q-10 -55 -38.5 -86t-70.5 -31zM435 786h-83l129 128h86l83 -128h-83l-53 77zM388 -12q-143 0 -234.5 91.5
t-91.5 228.5q0 116 55.5 214.5t156.5 158t225 59.5q143 0 234.5 -91.5t91.5 -227.5q0 -177 -125 -305t-312 -128zM396 94q133 0 227 95.5t94 223.5q0 95 -64 158.5t-162 63.5q-134 0 -228.5 -95.5t-94.5 -221.5q0 -97 64.5 -160.5t163.5 -63.5z" />
    <glyph glyph-name="uni1ED7" unicode="&#x1ed7;" horiz-adv-x="646" 
d="M472 768q-28 0 -48 17t-34.5 34t-27.5 17q-32 0 -41 -57h-65q9 52 38.5 85t71.5 33q28 0 48 -17.5t34 -34.5t28 -17q29 0 38 57h66q-10 -55 -38 -86t-70 -31zM310 621h-83l129 128h86l83 -128h-83l-52 77zM280 -8q-107 0 -175 70t-68 174q0 133 95 227t235 94
q105 0 174 -70t69 -172q0 -133 -94.5 -228t-235.5 -95zM291 92q91 0 154.5 64.5t63.5 150.5q0 65 -43 108t-110 43q-93 0 -156 -64t-63 -151q0 -65 43 -108t111 -43z" />
    <glyph glyph-name="uni1ED8" unicode="&#x1ed8;" horiz-adv-x="854" 
d="M449 827h-83l128 127h86l83 -127h-83l-52 76zM388 -12q-143 0 -234.5 91.5t-91.5 228.5q0 116 55.5 214.5t156.5 158t225 59.5q143 0 234.5 -91.5t91.5 -227.5q0 -177 -125 -305t-312 -128zM396 94q133 0 227 95.5t94 223.5q0 95 -64 158.5t-162 63.5
q-134 0 -228.5 -95.5t-94.5 -221.5q0 -97 64.5 -160.5t163.5 -63.5zM338 -178q-22 0 -36 14.5t-14 36.5q0 28 22 49t50 21q21 0 35 -14t14 -36q0 -28 -22 -49.5t-49 -21.5z" />
    <glyph glyph-name="uni1ED9" unicode="&#x1ed9;" horiz-adv-x="647" 
d="M323 657h-83l128 127h86l84 -127h-83l-53 76zM281 -8q-107 0 -175.5 70.5t-68.5 173.5q0 134 94 227.5t236 93.5q105 0 174 -70t69 -172q0 -133 -94 -228t-235 -95zM291 92q92 0 155.5 64.5t63.5 150.5q0 65 -43.5 108t-110.5 43q-93 0 -156 -64t-63 -151q0 -65 43 -108
t111 -43zM242 -178q-22 0 -36.5 14.5t-14.5 36.5q0 28 22 49t50 21q22 0 36 -14t14 -36q0 -28 -22 -49.5t-49 -21.5z" />
    <glyph glyph-name="uni1EDA" unicode="&#x1eda;" horiz-adv-x="854" 
d="M525 810h-64l87 160h89zM388 -12q-143 0 -234.5 91.5t-91.5 228.5q0 116 55.5 214.5t156.5 158t225 59.5q155 0 248 -106q16 3 29.5 15t15.5 28l15 84h61l-18 -101q-10 -54 -68 -77q43 -71 43 -162q0 -177 -125 -305t-312 -128zM396 94q133 0 227 95.5t94 223.5
q0 95 -64 158.5t-162 63.5q-134 0 -228.5 -95.5t-94.5 -221.5q0 -97 64.5 -160.5t163.5 -63.5z" />
    <glyph glyph-name="uni1EDB" unicode="&#x1edb;" horiz-adv-x="646" 
d="M406 640h-64l87 160h90zM280 -8q-107 0 -175 70t-68 174q0 133 95 227t235 94q105 0 173 -71q37 12 42 40l15 84h60l-17 -100q-8 -45 -62 -73q32 -56 32 -122q0 -133 -94.5 -228t-235.5 -95zM291 92q91 0 154.5 64.5t63.5 150.5q0 65 -43 108t-110 43q-93 0 -156 -64
t-63 -151q0 -65 43 -108t111 -43z" />
    <glyph glyph-name="uni1EDC" unicode="&#x1edc;" horiz-adv-x="854" 
d="M544 810h-64l-56 160h89zM388 -12q-143 0 -234.5 91.5t-91.5 228.5q0 116 55.5 214.5t156.5 158t225 59.5q155 0 248 -106q16 3 29.5 15t15.5 28l15 84h61l-18 -101q-10 -54 -68 -77q43 -71 43 -162q0 -177 -125 -305t-312 -128zM396 94q133 0 227 95.5t94 223.5
q0 95 -64 158.5t-162 63.5q-134 0 -228.5 -95.5t-94.5 -221.5q0 -97 64.5 -160.5t163.5 -63.5z" />
    <glyph glyph-name="uni1EDD" unicode="&#x1edd;" horiz-adv-x="646" 
d="M433 640h-64l-56 160h90zM280 -8q-107 0 -175 70t-68 174q0 133 95 227t235 94q105 0 173 -71q37 12 42 40l15 84h60l-17 -100q-8 -45 -62 -73q32 -56 32 -122q0 -133 -94.5 -228t-235.5 -95zM291 92q91 0 154.5 64.5t63.5 150.5q0 65 -43 108t-110 43q-93 0 -156 -64
t-63 -151q0 -65 43 -108t111 -43z" />
    <glyph glyph-name="uni1EDE" unicode="&#x1ede;" horiz-adv-x="854" 
d="M484 799l8 50q68 0 76 37q2 15 -10 25t-35 10q-42 0 -67 -18l-13 55q38 24 98 24q47 0 73 -27t19 -65q-7 -39 -47 -65t-102 -26zM388 -12q-143 0 -234.5 91.5t-91.5 228.5q0 116 55.5 214.5t156.5 158t225 59.5q155 0 248 -106q16 3 29.5 15t15.5 28l15 84h61l-18 -101
q-10 -54 -68 -77q43 -71 43 -162q0 -177 -125 -305t-312 -128zM396 94q133 0 227 95.5t94 223.5q0 95 -64 158.5t-162 63.5q-134 0 -228.5 -95.5t-94.5 -221.5q0 -97 64.5 -160.5t163.5 -63.5z" />
    <glyph glyph-name="uni1EDF" unicode="&#x1edf;" horiz-adv-x="646" 
d="M352 629l9 50q67 0 75 37q2 16 -9.5 25.5t-35.5 9.5q-40 0 -67 -18l-13 55q38 24 98 24q47 0 73.5 -27t18.5 -65q-6 -39 -46.5 -65t-102.5 -26zM280 -8q-107 0 -175 70t-68 174q0 133 95 227t235 94q105 0 173 -71q37 12 42 40l15 84h60l-17 -100q-8 -45 -62 -73
q32 -56 32 -122q0 -133 -94.5 -228t-235.5 -95zM291 92q91 0 154.5 64.5t63.5 150.5q0 65 -43 108t-110 43q-93 0 -156 -64t-63 -151q0 -65 43 -108t111 -43z" />
    <glyph glyph-name="uni1EE0" unicode="&#x1ee0;" horiz-adv-x="854" 
d="M584 827q-23 -2 -42 8.5t-28.5 23.5t-21.5 24.5t-23 11.5q-32 0 -42 -57h-65q8 51 37 84t69 34q24 1 42.5 -9.5t27.5 -24t21 -24.5t24 -11q29 0 39 57h65q-10 -53 -37 -84.5t-66 -32.5zM388 -12q-143 0 -234.5 91.5t-91.5 228.5q0 116 55.5 214.5t156.5 158t225 59.5
q155 0 248 -106q16 3 29.5 15t15.5 28l15 84h61l-18 -101q-10 -54 -68 -77q43 -71 43 -162q0 -177 -125 -305t-312 -128zM396 94q133 0 227 95.5t94 223.5q0 95 -64 158.5t-162 63.5q-134 0 -228.5 -95.5t-94.5 -221.5q0 -97 64.5 -160.5t163.5 -63.5z" />
    <glyph glyph-name="uni1EE1" unicode="&#x1ee1;" horiz-adv-x="646" 
d="M455 657q-28 0 -48 17t-34.5 34t-27.5 17q-32 0 -42 -57h-65q9 52 39 85t72 33q22 0 39.5 -11t26.5 -23.5t20.5 -23.5t23.5 -11q29 0 39 57h65q-10 -55 -38 -86t-70 -31zM280 -8q-107 0 -175 70t-68 174q0 133 95 227t235 94q105 0 173 -71q37 12 42 40l15 84h60
l-17 -100q-8 -45 -62 -73q32 -56 32 -122q0 -133 -94.5 -228t-235.5 -95zM291 92q91 0 154.5 64.5t63.5 150.5q0 65 -43 108t-110 43q-93 0 -156 -64t-63 -151q0 -65 43 -108t111 -43z" />
    <glyph glyph-name="uni1EE2" unicode="&#x1ee2;" horiz-adv-x="854" 
d="M388 -12q-143 0 -234.5 91.5t-91.5 228.5q0 116 55.5 214.5t156.5 158t225 59.5q155 0 248 -106q16 3 29.5 15t15.5 28l15 84h61l-18 -101q-10 -54 -68 -77q43 -71 43 -162q0 -177 -125 -305t-312 -128zM396 94q133 0 227 95.5t94 223.5q0 95 -64 158.5t-162 63.5
q-134 0 -228.5 -95.5t-94.5 -221.5q0 -97 64.5 -160.5t163.5 -63.5zM346 -178q-22 0 -36 14.5t-14 36.5q0 28 22 49t50 21q22 0 35.5 -14t13.5 -36q0 -28 -22 -49.5t-49 -21.5z" />
    <glyph glyph-name="uni1EE3" unicode="&#x1ee3;" horiz-adv-x="646" 
d="M37 236q0 133 95 227t235 94q105 0 173 -71q37 12 42 40l15 84h60l-17 -100q-8 -45 -62 -73q32 -56 32 -122q0 -133 -94.5 -228t-235.5 -95q-107 0 -175 70t-68 174zM137 243q0 -65 43 -108t111 -43q91 0 154.5 64.5t63.5 150.5q0 65 -43 108t-110 43q-93 0 -156 -64
t-63 -151zM242 -178q-22 0 -36 14.5t-14 36.5q0 28 22 49t50 21q22 0 35.5 -14t13.5 -36q0 -28 -22 -49.5t-49 -21.5z" />
    <glyph glyph-name="uni1EE4" unicode="&#x1ee4;" horiz-adv-x="708" 
d="M304 -11q-122 0 -188.5 79t-43.5 210l80 452h103l-80 -451q-15 -89 26 -137.5t119 -48.5t138 48.5t76 137.5l79 451h104l-80 -452q-23 -130 -117.5 -209.5t-215.5 -79.5zM275 -178q-25 0 -39 18t-10 43t25 42.5t46 17.5q24 0 38 -17.5t10 -42.5t-24.5 -43t-45.5 -18z" />
    <glyph glyph-name="uni1EE5" unicode="&#x1ee5;" horiz-adv-x="634" 
d="M239 -8q-101 0 -150.5 71t-25.5 208l49 279h98l-49 -279q-16 -90 18 -136t98 -46q65 0 115.5 46t66.5 136l49 279h97l-96 -550h-90l11 98q-32 -47 -82 -76.5t-109 -29.5zM232 -178q-25 0 -39.5 17.5t-10.5 43.5q4 25 25 42.5t46 17.5t39.5 -17.5t9.5 -42.5
q-4 -25 -25 -43t-45 -18z" />
    <glyph glyph-name="uni1EE6" unicode="&#x1ee6;" horiz-adv-x="708" 
d="M394 799l8 50q68 0 76 37q2 15 -10 25t-35 10q-42 0 -67 -18l-13 55q36 24 97 24q47 0 73.5 -27t19.5 -65q-7 -39 -47 -65t-102 -26zM304 -11q-122 0 -188.5 79t-43.5 210l80 452h103l-80 -451q-15 -89 26 -137.5t119 -48.5t138 48.5t76 137.5l79 451h104l-80 -452
q-23 -130 -117.5 -209.5t-215.5 -79.5z" />
    <glyph glyph-name="uni1EE7" unicode="&#x1ee7;" horiz-adv-x="634" 
d="M340 629l9 50q67 0 75 37q2 16 -9.5 25.5t-35.5 9.5q-40 0 -67 -18l-13 55q38 24 98 24q47 0 73.5 -27t18.5 -65q-6 -39 -46.5 -65t-102.5 -26zM239 -8q-101 0 -150.5 71t-25.5 208l49 279h98l-49 -279q-16 -90 18 -136t98 -46q65 0 115.5 46t66.5 136l49 279h97
l-96 -550h-90l11 98q-32 -47 -82 -76.5t-109 -29.5z" />
    <glyph glyph-name="uni1EE8" unicode="&#x1ee8;" horiz-adv-x="721" 
d="M457 810h-64l87 160h89zM304 -11q-122 0 -188.5 79t-43.5 210l80 452h103l-80 -451q-15 -89 26 -137.5t119 -48.5t138 48.5t76 137.5l79 451h76q33 0 38 31l13 69h60l-14 -85q-12 -65 -80 -77l-69 -390q-23 -130 -117.5 -209.5t-215.5 -79.5z" />
    <glyph glyph-name="uni1EE9" unicode="&#x1ee9;" horiz-adv-x="626" 
d="M394 640h-64l87 160h90zM235 -8q-101 0 -150.5 71t-25.5 208l49 279h98l-49 -279q-16 -90 18 -136t99 -46q64 0 114.5 46t66.5 136l49 279h67q27 5 31 31l15 84h61l-17 -101q-10 -51 -69 -67l-87 -497h-90l12 98q-33 -47 -82.5 -76.5t-109.5 -29.5z" />
    <glyph glyph-name="uni1EEA" unicode="&#x1eea;" horiz-adv-x="721" 
d="M490 810h-64l-56 160h89zM304 -11q-122 0 -188.5 79t-43.5 210l80 452h103l-80 -451q-15 -89 26 -137.5t119 -48.5t138 48.5t76 137.5l79 451h76q33 0 38 31l13 69h60l-14 -85q-12 -65 -80 -77l-69 -390q-23 -130 -117.5 -209.5t-215.5 -79.5z" />
    <glyph glyph-name="uni1EEB" unicode="&#x1eeb;" horiz-adv-x="626" 
d="M418 640h-64l-56 160h90zM235 -8q-101 0 -150.5 71t-25.5 208l49 279h98l-49 -279q-16 -90 18 -136t99 -46q64 0 114.5 46t66.5 136l49 279h67q27 5 31 31l15 84h61l-17 -101q-10 -51 -69 -67l-87 -497h-90l12 98q-33 -47 -82.5 -76.5t-109.5 -29.5z" />
    <glyph glyph-name="uni1EEC" unicode="&#x1eec;" horiz-adv-x="721" 
d="M423 799l8 50q68 0 76 37q2 15 -10 25t-35 10q-42 0 -67 -18l-13 55q36 24 97 24q47 0 73.5 -27t19.5 -65q-7 -39 -47 -65t-102 -26zM304 -11q-122 0 -188.5 79t-43.5 210l80 452h103l-80 -451q-15 -89 26 -137.5t119 -48.5t138 48.5t76 137.5l79 451h76q33 0 38 31
l13 69h60l-14 -85q-12 -65 -80 -77l-69 -390q-23 -130 -117.5 -209.5t-215.5 -79.5z" />
    <glyph glyph-name="uni1EED" unicode="&#x1eed;" horiz-adv-x="626" 
d="M337 629l8 50q68 0 75 37q3 15 -8.5 25t-35.5 10q-42 0 -67 -18l-14 55q38 24 98 24q47 0 73.5 -27t19.5 -65q-7 -39 -47 -65t-102 -26zM235 -8q-101 0 -150.5 71t-25.5 208l49 279h98l-49 -279q-16 -90 18 -136t99 -46q64 0 114.5 46t66.5 136l49 279h67q27 5 31 31
l15 84h61l-17 -101q-10 -51 -69 -67l-87 -497h-90l12 98q-33 -47 -82.5 -76.5t-109.5 -29.5z" />
    <glyph glyph-name="uni1EEE" unicode="&#x1eee;" horiz-adv-x="721" 
d="M529 827q-23 -2 -42 8.5t-29 23.5t-22 24.5t-23 11.5q-31 0 -41 -57h-66q9 51 38 84t69 34q23 1 41.5 -9.5t28 -24t21 -24.5t23.5 -11q29 0 39 57h66q-10 -53 -37 -84.5t-66 -32.5zM304 -11q-126 0 -189.5 80.5t-42.5 208.5l80 452h103l-80 -451q-15 -85 24 -135.5
t121 -50.5q78 0 138 48.5t76 137.5l79 451h76q33 0 38 31l13 69h60l-14 -85q-12 -65 -80 -77l-69 -390q-23 -130 -117.5 -209.5t-215.5 -79.5z" />
    <glyph glyph-name="uni1EEF" unicode="&#x1eef;" horiz-adv-x="626" 
d="M436 657q-24 -1 -43 9.5t-29 24t-22 24.5t-23 10q-30 -2 -40 -57h-66q9 51 38.5 84t69.5 34q23 1 41.5 -10t28 -24.5t21.5 -24.5t24 -10q27 2 37 57h66q-10 -53 -37 -84.5t-66 -32.5zM235 -8q-101 0 -150.5 71t-25.5 208l49 279h98l-49 -279q-16 -90 18 -136t99 -46
q64 0 114.5 46t66.5 136l49 279h67q27 5 31 31l15 84h61l-17 -101q-10 -51 -69 -67l-87 -497h-90l12 98q-33 -47 -82.5 -76.5t-109.5 -29.5z" />
    <glyph glyph-name="uni1EF0" unicode="&#x1ef0;" horiz-adv-x="721" 
d="M304 -11q-122 0 -188.5 79t-43.5 210l80 452h103l-80 -451q-15 -89 26 -137.5t119 -48.5t138 48.5t76 137.5l79 451h76q33 0 38 31l13 69h60l-14 -85q-12 -65 -80 -77l-69 -390q-23 -130 -117.5 -209.5t-215.5 -79.5zM275 -178q-25 0 -39 18t-10 43t25 42.5t46 17.5
q24 0 38 -17.5t10 -42.5t-24.5 -43t-45.5 -18z" />
    <glyph glyph-name="uni1EF1" unicode="&#x1ef1;" horiz-adv-x="626" 
d="M235 -8q-101 0 -150.5 71t-25.5 208l49 279h98l-49 -279q-16 -90 18 -136t99 -46q64 0 114.5 46t66.5 136l49 279h67q27 5 31 31l15 84h61l-17 -101q-10 -51 -69 -67l-87 -497h-90l12 98q-33 -47 -82.5 -76.5t-109.5 -29.5zM256 -178q-25 0 -40 17.5t-10 43.5
q4 25 25 42.5t46 17.5t39 -17.5t10 -42.5t-25 -43t-45 -18z" />
    <glyph glyph-name="Ygrave" unicode="&#x1ef2;" horiz-adv-x="648" 
d="M448 810h-64l-56 160h89zM327 0h-103l55 311l-186 419h118l140 -299l246 299h118l-333 -420z" />
    <glyph glyph-name="ygrave" unicode="&#x1ef3;" horiz-adv-x="564" 
d="M398 640h-63l-56 160h89zM26 -226q-54 0 -99 20l45 87q32 -14 66 -14q80 0 160 144l-126 539h105l89 -407l230 407h104l-306 -550q-68 -121 -129.5 -173.5t-138.5 -52.5z" />
    <glyph glyph-name="uni1EF4" unicode="&#x1ef4;" horiz-adv-x="648" 
d="M327 0h-103l55 311l-186 419h118l140 -299l246 299h118l-333 -420zM242 -178q-22 0 -36 14.5t-14 36.5q0 28 22 49t50 21q21 0 35 -14t14 -36q0 -28 -22 -49.5t-49 -21.5z" />
    <glyph glyph-name="uni1EF4" unicode="&#x1ef5;" horiz-adv-x="648" 
d="M327 0h-103l55 311l-186 419h118l140 -299l246 299h118l-333 -420zM242 -178q-22 0 -36 14.5t-14 36.5q0 28 22 49t50 21q21 0 35 -14t14 -36q0 -28 -22 -49.5t-49 -21.5z" />
    <glyph glyph-name="uni1EF6" unicode="&#x1ef6;" horiz-adv-x="648" 
d="M384 799l9 50q68 0 75 37q3 15 -8.5 25t-35.5 10q-42 0 -67 -18l-14 55q38 24 98 24q47 0 73.5 -27t18.5 -65q-6 -39 -46 -65t-103 -26zM327 0h-103l55 311l-186 419h118l140 -299l246 299h118l-333 -420z" />
    <glyph glyph-name="uni1EF7" unicode="&#x1ef7;" horiz-adv-x="564" 
d="M313 629l8 50q68 0 75 37q3 15 -8.5 25t-35.5 10q-42 0 -67 -18l-14 55q38 24 98 24q47 0 73.5 -27t19.5 -65q-7 -39 -47 -65t-102 -26zM26 -226q-54 0 -99 20l45 87q32 -14 66 -14q80 0 160 144l-126 539h105l89 -407l230 407h104l-306 -550q-68 -121 -129.5 -173.5
t-138.5 -52.5z" />
    <glyph glyph-name="uni1EF8" unicode="&#x1ef8;" horiz-adv-x="648" 
d="M492 827q-23 -2 -42 8.5t-28.5 23.5t-21.5 24.5t-23 11.5q-31 0 -42 -57h-65q9 51 38 84t68 34q24 1 42.5 -9.5t27.5 -24t21 -24.5t24 -11q29 0 39 57h65q-9 -53 -36.5 -84.5t-66.5 -32.5zM327 0h-103l55 311l-186 419h118l140 -299l246 299h118l-333 -420z" />
    <glyph glyph-name="uni1EF9" unicode="&#x1ef9;" horiz-adv-x="564" 
d="M421 657q-23 -2 -42 8.5t-29 23.5t-22 24.5t-23 11.5q-31 0 -41 -57h-66q9 51 38.5 84t69.5 34q23 1 41 -9.5t27.5 -24t21 -24.5t23.5 -11q29 0 39 57h66q-10 -53 -37 -84.5t-66 -32.5zM26 -226q-54 0 -99 20l45 87q32 -14 66 -14q80 0 160 144l-126 539h105l89 -407
l230 407h104l-306 -550q-68 -121 -129.5 -173.5t-138.5 -52.5z" />
    <glyph glyph-name="endash" unicode="&#x2013;" horiz-adv-x="492" 
d="M460 276h-427l14 80h426z" />
    <glyph glyph-name="emdash" unicode="&#x2014;" horiz-adv-x="978" 
d="M949 291h-913l11 65h912z" />
    <glyph glyph-name="quoteleft" unicode="&#x2018;" horiz-adv-x="234" 
d="M176 487h-90l112 243h67z" />
    <glyph glyph-name="quoteright" unicode="&#x2019;" horiz-adv-x="181" 
d="M127 487h-67l90 243h89z" />
    <glyph glyph-name="quotesinglbase" unicode="&#x201a;" horiz-adv-x="214" 
d="M44 -140h-69l71 244h89z" />
    <glyph glyph-name="quotedblleft" unicode="&#x201c;" horiz-adv-x="388" 
d="M176 487h-90l112 243h67zM330 487h-89l111 243h68z" />
    <glyph glyph-name="quotedblright" unicode="&#x201d;" horiz-adv-x="388" 
d="M154 487h-68l90 243h89zM308 487h-67l89 243h90z" />
    <glyph glyph-name="quotedblbase" unicode="&#x201e;" horiz-adv-x="368" 
d="M44 -140h-69l71 244h89zM198 -140h-68l70 244h90z" />
    <glyph glyph-name="dagger" unicode="&#x2020;" horiz-adv-x="570" 
d="M285 0h-95l89 507h-186l15 88h185l34 185h95l-33 -185h184l-14 -88h-185z" />
    <glyph glyph-name="daggerdbl" unicode="&#x2021;" horiz-adv-x="550" 
d="M272 0h-90l40 231h-178l15 85h178l34 191h-178l15 84h177l34 189h90l-33 -189h178l-14 -84h-179l-34 -191h178l-14 -85h-179z" />
    <glyph glyph-name="bullet" unicode="&#x2022;" horiz-adv-x="401" 
d="M194 188q-56 0 -92.5 35.5t-36.5 89.5q0 73 56 127t127 54q56 0 91.5 -35.5t35.5 -89.5q0 -74 -55.5 -127.5t-125.5 -53.5z" />
    <glyph glyph-name="ellipsis" unicode="&#x2026;" horiz-adv-x="617" 
d="M44 -7q-22 0 -37 14.5t-15 36.5q0 28 22.5 49t50.5 21q22 0 36 -14t14 -35q0 -28 -22 -50t-49 -22zM260 -7q-22 0 -36.5 14.5t-14.5 36.5q0 28 22 49t50 21q22 0 36 -14t14 -35q0 -28 -22 -50t-49 -22zM476 -7q-22 0 -36.5 14.5t-14.5 36.5q0 28 22 49t50 21q22 0 36 -14
t14 -35q0 -28 -22 -50t-49 -22z" />
    <glyph glyph-name="perthousand" unicode="&#x2030;" horiz-adv-x="1185" 
d="M224 393q-62 0 -100.5 42t-38.5 109q0 100 53.5 170t141.5 70q62 0 100 -41.5t38 -108.5q0 -98 -53.5 -169.5t-140.5 -71.5zM190 0h-74l541 781h74zM228 458q58 0 91.5 53t33.5 120q0 45 -22 67t-57 22q-59 0 -91.5 -52t-32.5 -118q0 -47 22 -69.5t56 -22.5zM557 -10
q-63 0 -101 42t-38 109q0 100 53.5 170t141.5 70q62 0 100 -41.5t38 -108.5q0 -98 -53.5 -169.5t-140.5 -71.5zM946 -10q-63 0 -101 42t-38 109q0 100 53.5 170t141.5 70q62 0 100 -41.5t38 -108.5q0 -98 -53.5 -169.5t-140.5 -71.5zM561 55q58 0 91.5 53t33.5 120
q0 45 -22.5 67t-56.5 22q-59 0 -91.5 -52t-32.5 -118q0 -47 22 -69.5t56 -22.5zM950 55q58 0 91.5 53t33.5 120q0 45 -22.5 67t-56.5 22q-59 0 -91.5 -52t-32.5 -118q0 -47 22 -69.5t56 -22.5z" />
    <glyph glyph-name="guilsinglleft" unicode="&#x2039;" horiz-adv-x="330" 
d="M264 182h-91l-108 183l173 184h92l-173 -184z" />
    <glyph glyph-name="guilsinglright" unicode="&#x203a;" horiz-adv-x="330" 
d="M124 182h-92l173 183l-108 184h92l108 -184z" />
    <glyph glyph-name="fraction" unicode="&#x2044;" horiz-adv-x="476" 
d="M58 0h-90l483 730h89z" />
    <glyph glyph-name="franc" unicode="&#x20a3;" horiz-adv-x="597" 
d="M140 0h-103l24 137h-60l11 65h60l93 528h471l-17 -99h-369l-37 -214h348l-17 -99h-348l-21 -116h228l-11 -65h-228z" />
    <glyph glyph-name="lira" unicode="&#x20a4;" horiz-adv-x="633" 
d="M536 0h-535l16 92h85l25 138h-74l12 65h73l18 99h-73l11 66h74q26 132 102 206t178 74q61 0 108 -31.5t69 -84.5l-89 -51q-13 32 -40.5 51t-62.5 19q-63 0 -107 -48t-61 -135h236l-10 -66h-237l-18 -99h237l-12 -65h-237l-24 -138h352z" />
    <glyph glyph-name="peseta" unicode="&#x20a7;" horiz-adv-x="675" 
d="M123 480h-70l8 46h70l36 204h277q100 0 155 -54.5t54 -149.5h60l-8 -46h-60q-24 -90 -101.5 -149.5t-180.5 -59.5h-174l-47 -271h-103zM254 640l-19 -114h309q-2 55 -33 84.5t-84 29.5h-173zM226 480l-21 -119h173q58 0 101.5 34t59.5 85h-313z" />
    <glyph glyph-name="Euro" unicode="&#x20ac;" horiz-adv-x="711" 
d="M357 -11q-115 0 -186 70.5t-77 191.5h-64l12 66h53q0 24 6 48q7 36 10 45h-52l11 66h63q48 122 143.5 193.5t212.5 71.5q77 0 142 -30t109 -80l-77 -60q-78 78 -191 78q-74 0 -139.5 -44.5t-101.5 -128.5h226l-10 -66h-244q-5 -16 -10 -45q-6 -34 -6 -48h242l-11 -66
h-224q7 -82 55.5 -125.5t122.5 -43.5q107 0 219 78l55 -61q-134 -110 -289 -110z" />
    <glyph glyph-name="uni2113" unicode="&#x2113;" horiz-adv-x="460" 
d="M197 -10q-75 0 -107.5 57t-16.5 137l16 90q-28 -2 -40 -2l12 73q15 0 41 2l45 259q14 79 66 126.5t122 47.5q63 0 98 -40t35 -103q0 -115 -86 -212t-209 -133l-18 -100q-10 -51 4.5 -85.5t54.5 -34.5q79 0 105 136h80q-17 -98 -67 -158t-135 -60zM228 606l-40 -227
q81 29 139.5 99.5t58.5 148.5q0 38 -18.5 58t-49.5 20q-36 0 -59 -28t-31 -71z" />
    <glyph glyph-name="uni2116" unicode="&#x2116;" horiz-adv-x="1143" 
d="M960 392q-65 0 -107.5 42.5t-42.5 104.5q0 81 58.5 138t140.5 57q65 0 107.5 -42.5t42.5 -104.5q0 -80 -58.5 -137.5t-140.5 -57.5zM127 0h-103l128 730h103l316 -543l95 543h103l-128 -730h-103l-316 543zM968 471q42 0 75.5 32.5t33.5 75.5q0 32 -21.5 53.5t-54.5 21.5
q-43 0 -76 -32.5t-33 -75.5q0 -32 21.5 -53.5t54.5 -21.5zM1098 238h-342l14 81h343z" />
    <glyph glyph-name="trademark" unicode="&#x2122;" horiz-adv-x="562" 
d="M185 550h-49l32 183h-71l9 47h191l-8 -47h-71zM352 550h-49l41 230h49l57 -123l99 123h49l-41 -230h-49l25 142l-79 -101h-32l-44 101z" />
    <glyph glyph-name="uni2126" unicode="&#x2126;" horiz-adv-x="846" 
d="M291 0h-281l16 92h143q-50 37 -78.5 96.5t-28.5 129.5q0 111 60 208.5t161 155t216 57.5q138 0 229.5 -86.5t91.5 -215.5q0 -102 -58 -196t-151 -149h143l-15 -92h-280l15 92q104 32 175.5 125t71.5 200q0 99 -64.5 162.5t-167.5 63.5q-133 0 -232.5 -98t-99.5 -229
q0 -80 41 -140.5t108 -83.5z" />
    <glyph glyph-name="estimated" unicode="&#x212e;" horiz-adv-x="623" 
d="M269 -12q-118 0 -184 83t-46 203q21 119 115 202t208 83t178 -84t44 -201q-1 -4 -2.5 -13t-2.5 -13h-403l-29 -166q52 -47 130 -47q55 0 108 24.5t92 67.5l35 -24q-47 -54 -111 -84.5t-132 -30.5zM215 468l-30 -172h264l30 169q-50 48 -126 48q-72 0 -138 -45z" />
    <glyph glyph-name="uni2150" unicode="&#x2150;" horiz-adv-x="758" 
d="M75 0h-74l541 781h74zM146 337h-63l67 381h-45l11 62h108zM503 0h-70l244 385h-225l10 59h298l-8 -48z" />
    <glyph glyph-name="uni2151" unicode="&#x2151;" horiz-adv-x="746" 
d="M75 0h-74l541 781h74zM146 337h-63l67 381h-45l11 62h108zM473 0h-79l137 140q-69 -1 -109 43.5t-28 110.5q11 65 67 111.5t123 46.5t105.5 -46.5t27.5 -111.5q-11 -55 -67 -110zM540 200q41 0 73.5 28t39.5 66q7 39 -16 66.5t-63 27.5q-41 0 -75 -28t-41 -66
q-8 -38 16.5 -66t65.5 -28z" />
    <glyph glyph-name="uni2152" unicode="&#x2152;" horiz-adv-x="1067" 
d="M75 0h-74l541 781h74zM146 337h-63l67 381h-45l11 62h108zM792 -7q-72 0 -113 46t-41 125q0 115 66 199.5t168 84.5q72 0 112.5 -45t40.5 -122q0 -115 -66 -201.5t-167 -86.5zM523 -1h-63l68 382h-45l11 62h107zM802 57q73 0 115 65.5t42 149.5q0 57 -27.5 84.5
t-71.5 27.5q-73 0 -115 -63.5t-42 -147.5q0 -59 28 -87.5t71 -28.5z" />
    <glyph glyph-name="onethird" unicode="&#x2153;" horiz-adv-x="719" 
d="M75 0h-74l541 781h74zM146 337h-63l67 381h-45l11 62h108zM485 -11q-51 0 -87 25t-48 64l61 23q8 -21 31 -34.5t52 -13.5q37 0 64.5 20t33.5 53q5 32 -16.5 54t-58.5 22h-23l10 61h23q29 0 53.5 19t29.5 43q4 28 -14 43.5t-46 15.5q-46 0 -74 -36l-50 26q21 32 58.5 51.5
t77.5 19.5q57 0 89.5 -31t23.5 -87q-10 -58 -70 -92q63 -37 50 -113q-10 -58 -60 -95.5t-110 -37.5z" />
    <glyph glyph-name="twothirds" unicode="&#x2154;" horiz-adv-x="873" 
d="M340 338h-297l8 47l205 163q57 45 64 90q7 35 -10.5 60.5t-57.5 25.5q-31 0 -57 -20t-38 -43l-51 18q20 47 64.5 77.5t94.5 30.5q61 0 95.5 -41.5t22.5 -107.5q-12 -73 -90 -132l-137 -107h195zM229 0h-74l541 781h74zM638 -11q-51 0 -87 25t-48 64l61 23q8 -21 31 -34.5
t53 -13.5q37 0 64 20t33 53q6 32 -16 54t-59 22h-23l11 61h22q30 0 54 18.5t29 43.5q5 28 -13.5 43.5t-46.5 15.5q-45 0 -74 -36l-50 26q21 31 59 51t77 20q57 0 89.5 -31t23.5 -87q-11 -59 -70 -92q63 -36 51 -113q-10 -58 -60.5 -95.5t-110.5 -37.5z" />
    <glyph glyph-name="uni2155" unicode="&#x2155;" horiz-adv-x="755" 
d="M75 0h-74l541 781h74zM146 337h-63l67 381h-45l11 62h108zM518 -9q-50 0 -85 28.5t-43 72.5l61 21q5 -25 27 -41t51 -16q38 0 69 26t39 64q7 38 -15 64.5t-61 26.5q-57 0 -94 -49h-57l63 255h271l-11 -61h-211l-29 -114q36 28 79 28q66 2 103 -41.5t26 -108.5
q-12 -63 -65.5 -109t-117.5 -46z" />
    <glyph glyph-name="uni2156" unicode="&#x2156;" horiz-adv-x="896" 
d="M340 338h-297l8 47l205 163q57 45 64 90q7 35 -10.5 60.5t-57.5 25.5q-31 0 -57 -20t-38 -43l-51 18q20 47 64.5 77.5t94.5 30.5q61 0 95.5 -41.5t22.5 -107.5q-12 -73 -90 -132l-137 -107h195zM229 0h-74l541 781h74zM659 -10q-50 0 -85 29t-43 74l61 21q5 -25 26.5 -41
t51.5 -16q38 0 69.5 26t38.5 64t-15 64.5t-61 26.5q-56 0 -94 -49h-57l63 255h271l-11 -62h-211l-30 -113q40 28 80 28q66 2 103 -41.5t25 -108.5q-11 -64 -64.5 -110.5t-117.5 -46.5z" />
    <glyph glyph-name="uni2157" unicode="&#x2157;" horiz-adv-x="904" 
d="M232 0h-73l541 781h73zM191 324q-52 0 -88 24.5t-47 63.5l61 23q7 -20 30.5 -34t52.5 -14q37 0 64.5 20t32.5 53q6 32 -16 54.5t-59 22.5h-22l10 60h22q30 0 54.5 19t28.5 43q5 28 -13 43.5t-47 15.5q-46 0 -73 -35l-51 25q21 31 59 51t78 20q56 0 88.5 -31t23.5 -86
q-11 -60 -69 -93q29 -16 43 -46t7 -66q-10 -58 -60 -95.5t-110 -37.5zM666 -9q-50 0 -85 28.5t-43 72.5l62 21q5 -24 26.5 -40.5t50.5 -16.5q39 0 70 26t38 64t-15 64.5t-61 26.5q-57 0 -94 -49h-56l62 255h271l-10 -61h-212l-29 -114q36 28 79 28q66 2 103 -41.5t26 -108.5
q-11 -63 -65 -109t-118 -46z" />
    <glyph glyph-name="uni2158" unicode="&#x2158;" horiz-adv-x="907" 
d="M236 0h-74l541 781h74zM315 336h-63l19 110h-225l12 63l259 271h76l-48 -271h30l-11 -63h-30zM315 696l-184 -187h151zM669 -9q-49 0 -84 28.5t-44 72.5l62 21q5 -25 27 -41t51 -16q38 0 69 26t39 64q7 38 -15 64.5t-61 26.5q-57 0 -94 -49h-57l62 255h271l-10 -61h-212
l-29 -114q37 28 79 28q66 2 103.5 -41.5t25.5 -108.5q-11 -63 -64.5 -109t-118.5 -46z" />
    <glyph glyph-name="uni2159" unicode="&#x2159;" horiz-adv-x="693" 
d="M75 0h-74l541 781h74zM146 337h-63l67 381h-45l11 62h108zM449 -11q-67 0 -106 47t-28 113q9 53 65 109l181 187h79l-138 -141q69 1 109 -44t28 -111q-11 -65 -67 -112.5t-123 -47.5zM459 55q41 0 75 28t41 66q7 39 -17.5 66.5t-66.5 27.5q-40 0 -72 -28t-39 -66
q-8 -38 15.5 -66t63.5 -28z" />
    <glyph glyph-name="uni215A" unicode="&#x215a;" horiz-adv-x="862" 
d="M217 0h-73l541 781h73zM190 329q-50 0 -85 28t-43 72l62 21q5 -25 27 -41t51 -16q38 0 69 26t38 64t-15 64.5t-61 26.5q-55 0 -94 -49h-56l62 255h271l-11 -62h-211l-29 -113q38 28 79 28q66 2 103 -41.5t26 -108.5q-11 -63 -65 -108.5t-118 -45.5zM617 -11
q-67 0 -106 47t-27 113q9 55 65 109l180 187h79l-138 -141q70 1 109.5 -44t28.5 -111q-12 -65 -68 -112.5t-123 -47.5zM627 55q41 0 75 27.5t42 66.5q7 39 -18 66.5t-66 27.5t-73.5 -28t-38.5 -66q-7 -38 16 -66t63 -28z" />
    <glyph glyph-name="oneeighth" unicode="&#x215b;" horiz-adv-x="736" 
d="M75 0h-74l541 781h74zM146 337h-63l67 381h-45l11 62h108zM493 -12q-65 0 -104 39t-28 99q12 75 89 112q-42 31 -32 88q9 52 53.5 86t101.5 34q56 0 89 -34t24 -86q-11 -57 -63 -88q63 -35 50 -111q-10 -59 -62.5 -99t-117.5 -40zM540 261q30 0 54 17.5t29 44.5
q4 27 -13.5 44t-47.5 17t-54 -17t-29 -44q-4 -27 13.5 -44.5t47.5 -17.5zM504 48q38 0 68.5 22.5t36.5 56.5t-16 56.5t-62 22.5q-39 0 -69.5 -22.5t-37.5 -56.5q-5 -35 17 -57t63 -22z" />
    <glyph glyph-name="threeeighths" unicode="&#x215c;" horiz-adv-x="894" 
d="M232 0h-73l541 781h73zM191 324q-52 0 -88 24.5t-47 63.5l61 23q7 -20 30.5 -34t52.5 -14q37 0 64.5 20t32.5 53q6 32 -16 54.5t-59 22.5h-22l10 60h22q30 0 54.5 19t28.5 43q5 28 -13 43.5t-47 15.5q-46 0 -73 -35l-51 25q21 31 59 51t78 20q56 0 88.5 -31t23.5 -86
q-11 -60 -69 -93q29 -16 43 -46t7 -66q-10 -58 -60 -95.5t-110 -37.5zM651 -12q-65 0 -104 39t-28 99q12 75 89 112q-42 31 -33 88q10 52 54.5 86t101.5 34q56 0 89 -34t23 -86q-9 -57 -62 -88q63 -35 50 -111q-10 -59 -62.5 -99t-117.5 -40zM698 261q30 0 54 17.5t28 44.5
q5 27 -12.5 44t-47.5 17t-54 -17t-29 -44q-4 -27 13.5 -44.5t47.5 -17.5zM661 48q39 0 69.5 22.5t36.5 56.5t-16 56.5t-62 22.5q-39 0 -70 -22.5t-37 -56.5q-5 -35 17 -57t62 -22z" />
    <glyph glyph-name="fiveeighths" unicode="&#x215d;" horiz-adv-x="879" 
d="M217 0h-73l541 781h73zM190 329q-50 0 -85 28t-43 72l62 21q5 -25 27 -41t51 -16q38 0 69 26t38 64t-15 64.5t-61 26.5q-55 0 -94 -49h-56l62 255h271l-11 -62h-211l-29 -113q38 28 79 28q66 2 103 -41.5t26 -108.5q-11 -63 -65 -108.5t-118 -45.5zM636 -12
q-65 0 -104 39t-29 99q14 76 90 112q-44 31 -33 88q9 52 54 86t102 34q56 0 88.5 -34t23.5 -86q-11 -57 -62 -88q64 -36 49 -111q-10 -59 -62 -99t-117 -40zM682 261q30 0 54.5 17.5t28.5 44.5q5 26 -13 43.5t-48 17.5t-54 -17t-28 -44t13 -44.5t47 -17.5zM646 48
q39 0 69.5 22.5t36.5 56.5q6 35 -16 57t-63 22q-38 0 -69 -22.5t-37 -56.5q-6 -35 16.5 -57t62.5 -22z" />
    <glyph glyph-name="seveneighths" unicode="&#x215e;" horiz-adv-x="768" 
d="M107 0h-74l541 781h74zM158 336h-69l232 385h-226l11 59h298l-9 -48zM525 -12q-65 0 -104 39t-28 99q12 75 89 112q-42 31 -32 88q9 52 53.5 86t101.5 34q56 0 89 -34t24 -86q-11 -57 -63 -88q63 -35 50 -111q-10 -59 -62.5 -99t-117.5 -40zM572 261q30 0 54 17.5
t29 44.5q4 27 -13.5 44t-47.5 17t-54 -17t-29 -44q-4 -27 13.5 -44.5t47.5 -17.5zM536 48q38 0 68.5 22.5t36.5 56.5t-16 56.5t-62 22.5q-39 0 -69.5 -22.5t-37.5 -56.5q-5 -35 17 -57t63 -22z" />
    <glyph glyph-name="arrowleft" unicode="&#x2190;" horiz-adv-x="785" 
d="M409 85h-114l-230 280l329 280h114l-281 -239h533l-15 -81h-533z" />
    <glyph glyph-name="arrowup" unicode="&#x2191;" horiz-adv-x="658" 
d="M324 22h-80l94 532l-282 -239l20 114l330 280l230 -280l-20 -114l-197 240z" />
    <glyph glyph-name="arrowright" unicode="&#x2192;" horiz-adv-x="793" 
d="M426 85h-114l283 240h-533l14 81h533l-198 239h114l231 -280z" />
    <glyph glyph-name="arrowdown" unicode="&#x2193;" horiz-adv-x="665" 
d="M617 302l-329 -280l-231 280l21 114l197 -240l94 533h81l-95 -533l283 240z" />
    <glyph glyph-name="arrowboth" unicode="&#x2194;" horiz-adv-x="986" 
d="M409 85h-114l-230 280l329 280h114l-281 -239h579l-198 239h114l231 -280l-330 -280h-114l283 240h-580z" />
    <glyph glyph-name="arrowupdn" unicode="&#x2195;" horiz-adv-x="658" 
d="M596 201l-330 -280l-230 280l20 114l198 -239l99 564l-282 -240l20 114l329 280l231 -280l-20 -114l-198 240l-99 -565l282 240z" />
    <glyph glyph-name="uni2196" unicode="&#x2196;" horiz-adv-x="613" 
d="M547 181l-68 -57l-310 377l-60 -339l-66 81l70 395h395l67 -80h-339z" />
    <glyph glyph-name="uni2197" unicode="&#x2197;" horiz-adv-x="613" 
d="M524 501l-442 -377l-48 57l443 377h-339l95 80h395l-69 -395l-94 -81z" />
    <glyph glyph-name="uni2198" unicode="&#x2198;" horiz-adv-x="613" 
d="M538 123h-396l-67 80h340l-311 377l67 57l311 -377l59 339l66 -81z" />
    <glyph glyph-name="uni2199" unicode="&#x2199;" horiz-adv-x="613" 
d="M418 123h-396l70 395l94 81l-59 -339l442 377l48 -57l-444 -377h339z" />
    <glyph glyph-name="partialdiff" unicode="&#x2202;" horiz-adv-x="590" 
d="M201 -8q-98 0 -145.5 78.5t-14.5 176.5q33 105 123.5 179t187.5 74q49 0 84.5 -23.5t48.5 -63.5q17 65 18.5 118.5t-24 87.5t-76.5 34q-75 0 -141 -57l-41 59q99 83 207 83q77 0 118.5 -52.5t41.5 -145.5q0 -75 -30 -174t-71 -174q-48 -92 -123 -146t-163 -54zM224 84
q61 0 118.5 48.5t78.5 114.5q22 68 -3.5 115.5t-90.5 47.5q-60 0 -118.5 -48t-78.5 -115q-22 -66 4.5 -114.5t89.5 -48.5z" />
    <glyph glyph-name="product" unicode="&#x220f;" horiz-adv-x="675" 
d="M66 -220h-88l167 950h545l-167 -950h-88l151 862h-368z" />
    <glyph glyph-name="summation" unicode="&#x2211;" horiz-adv-x="580" 
d="M445 -220h-484l16 88l340 415l-188 363l15 84h451l-15 -84h-343l188 -363l-341 -415h376z" />
    <glyph glyph-name="minus" unicode="&#x2212;" horiz-adv-x="574" 
d="M514 325h-435l14 81h435z" />
    <glyph glyph-name="uni2215" unicode="&#x2215;" horiz-adv-x="494" 
d="M56 0h-92l507 730h91z" />
    <glyph glyph-name="radical" unicode="&#x221a;" horiz-adv-x="618" 
d="M295 0h-87l-72 339h-69l14 80h124l64 -299l342 690h85z" />
    <glyph glyph-name="infinity" unicode="&#x221e;" horiz-adv-x="723" 
d="M194 185q-59 0 -97 38t-38 96q0 76 57 134t132 58q93 0 139 -98q79 98 168 98q59 0 97 -38t38 -96q0 -77 -55.5 -134.5t-132.5 -57.5q-96 0 -138 98q-81 -98 -170 -98zM210 262q33 0 60.5 21t58.5 65q-15 43 -35.5 64.5t-53.5 21.5q-38 0 -68 -30.5t-30 -70.5
q0 -31 18.5 -51t49.5 -20zM509 262q40 0 69.5 31.5t29.5 71.5q0 30 -19 49.5t-49 19.5q-59 0 -119 -86q16 -44 35.5 -65t52.5 -21z" />
    <glyph glyph-name="integral" unicode="&#x222b;" horiz-adv-x="384" 
d="M-81 -220l14 80q55 0 83.5 24.5t46.5 81.5l174 597q52 186 224 186l-14 -81q-55 0 -83.5 -24.5t-46.5 -80.5l-173 -597q-52 -186 -225 -186z" />
    <glyph glyph-name="approxequal" unicode="&#x2248;" horiz-adv-x="523" 
d="M374 323q-44 0 -99.5 37.5t-89.5 37.5q-56 0 -86 -66l-63 30q55 115 155 115q37 1 70 -17.5t62.5 -37.5t58.5 -19q57 0 87 65l62 -29q-27 -58 -68.5 -87t-88.5 -29zM343 152q-35 0 -67.5 19t-61.5 37.5t-58 18.5q-56 0 -88 -66l-62 30q55 115 155 115q47 1 102.5 -36.5
t87.5 -37.5q58 0 87 65l64 -29q-28 -58 -70 -87t-89 -29z" />
    <glyph glyph-name="notequal" unicode="&#x2260;" horiz-adv-x="533" 
d="M150 61h-95l92 162h-108l15 81h140l65 114h-185l14 80h218l98 172h95l-98 -172h122l-14 -80h-154l-66 -114h200l-14 -81h-232z" />
    <glyph glyph-name="lessequal" unicode="&#x2264;" horiz-adv-x="513" 
d="M466 287l-16 -89l-385 168l15 84l444 168l-15 -89l-335 -121zM425 57h-415l14 77h415z" />
    <glyph glyph-name="greaterequal" unicode="&#x2265;" horiz-adv-x="513" 
d="M480 366l-445 -168l16 89l335 121l-292 121l15 89l386 -168zM425 57h-415l14 77h415z" />
    <glyph glyph-name="uni2460" unicode="&#x2460;" horiz-adv-x="831" 
d="M365 -13q-138 0 -227 88.5t-89 222.5q0 114 63 217t167 164.5t219 61.5q138 0 227 -89t89 -222q0 -113 -63 -216t-167.5 -165t-218.5 -62zM374 36q98 0 188.5 54t145.5 143.5t55 187.5q0 116 -77.5 193.5t-195.5 77.5q-98 0 -188.5 -53.5t-146 -143t-55.5 -187.5
q0 -116 77.5 -194t196.5 -78zM427 143h-63l67 381h-45l11 62h108z" />
    <glyph glyph-name="uni2461" unicode="&#x2461;" horiz-adv-x="831" 
d="M365 -13q-138 0 -227 88.5t-89 222.5q0 114 63 217t167 164.5t219 61.5q138 0 227 -89t89 -222q0 -113 -63 -216t-167.5 -165t-218.5 -62zM374 36q98 0 188.5 54t145.5 143.5t55 187.5q0 116 -77.5 193.5t-195.5 77.5q-98 0 -188.5 -53.5t-146 -143t-55.5 -187.5
q0 -116 77.5 -194t196.5 -78zM541 140h-298l9 48l205 163q66 50 66 106q0 29 -17.5 49t-52.5 20q-31 0 -57 -20t-38 -43l-51 19q21 46 64.5 76.5t93.5 30.5q54 0 88.5 -32t34.5 -86q0 -90 -94 -163l-138 -106h196z" />
    <glyph glyph-name="uni2462" unicode="&#x2462;" horiz-adv-x="831" 
d="M365 -13q-138 0 -227 88.5t-89 222.5q0 114 63 217t167 164.5t219 61.5q138 0 227 -89t89 -222q0 -113 -63 -216t-167.5 -165t-218.5 -62zM374 36q98 0 188.5 54t145.5 143.5t55 187.5q0 116 -77.5 193.5t-195.5 77.5q-98 0 -188.5 -53.5t-146 -143t-55.5 -187.5
q0 -116 77.5 -194t196.5 -78zM393 137q-51 0 -87 24.5t-48 63.5l61 23q8 -21 31 -34.5t52 -13.5q41 0 70 24t29 61q0 28 -21.5 46t-55.5 18h-22l11 61h22q32 0 56 19t28 53q0 23 -18 36t-43 13q-45 0 -74 -36l-50 26q21 31 59 51t77 20q51 0 83 -25t32 -70q0 -73 -72 -115
q55 -33 52 -99q-4 -63 -56 -104.5t-116 -41.5z" />
    <glyph glyph-name="uni2463" unicode="&#x2463;" horiz-adv-x="831" 
d="M365 -13q-138 0 -227 88.5t-89 222.5q0 114 63 217t167 164.5t219 61.5q138 0 227 -89t89 -222q0 -113 -63 -216t-167.5 -165t-218.5 -62zM374 36q98 0 188.5 54t145.5 143.5t55 187.5q0 116 -77.5 193.5t-195.5 77.5q-98 0 -188.5 -53.5t-146 -143t-55.5 -187.5
q0 -116 77.5 -194t196.5 -78zM482 142h-63l19 110h-225l11 63l260 271h76l-48 -271h30l-11 -63h-30zM482 502l-184 -187h151z" />
    <glyph glyph-name="uni2464" unicode="&#x2464;" horiz-adv-x="831" 
d="M365 -13q-138 0 -227 88.5t-89 222.5q0 114 63 217t167 164.5t219 61.5q138 0 227 -89t89 -222q0 -113 -63 -216t-167.5 -165t-218.5 -62zM374 36q98 0 188.5 54t145.5 143.5t55 187.5q0 116 -77.5 193.5t-195.5 77.5q-98 0 -188.5 -53.5t-146 -143t-55.5 -187.5
q0 -116 77.5 -194t196.5 -78zM387 139q-49 0 -84 28t-44 72l62 21q5 -25 27 -41t51 -16q42 0 75.5 32t33.5 74q0 32 -21.5 53.5t-56.5 21.5q-56 0 -94 -49h-56l62 255h271l-10 -61h-212l-29 -113q40 28 86 28q56 0 90.5 -34.5t34.5 -88.5q0 -72 -57 -127t-129 -55z" />
    <glyph glyph-name="uni2465" unicode="&#x2465;" horiz-adv-x="831" 
d="M365 -13q-138 0 -227 88.5t-89 222.5q0 114 63 217t167 164.5t219 61.5q138 0 227 -89t89 -222q0 -113 -63 -216t-167.5 -165t-218.5 -62zM374 36q98 0 188.5 54t145.5 143.5t55 187.5q0 116 -77.5 193.5t-195.5 77.5q-98 0 -188.5 -53.5t-146 -143t-55.5 -187.5
q0 -116 77.5 -194t196.5 -78zM381 138q-60 0 -98 37.5t-38 93.5q0 71 51 122l195 201h79l-137 -141q57 1 98.5 -35.5t41.5 -92.5q0 -73 -59 -129t-133 -56zM390 202q46 0 82.5 33t36.5 76q0 34 -24.5 56.5t-61.5 22.5q-44 0 -78.5 -33.5t-34.5 -76.5q0 -33 22.5 -55.5
t57.5 -22.5z" />
    <glyph glyph-name="uni2466" unicode="&#x2466;" horiz-adv-x="831" 
d="M365 -13q-138 0 -227 88.5t-89 222.5q0 114 63 217t167 164.5t219 61.5q138 0 227 -89t89 -222q0 -113 -63 -216t-167.5 -165t-218.5 -62zM374 36q98 0 188.5 54t145.5 143.5t55 187.5q0 116 -77.5 193.5t-195.5 77.5q-98 0 -188.5 -53.5t-146 -143t-55.5 -187.5
q0 -116 77.5 -194t196.5 -78zM374 142h-69l232 385h-226l10 59h299l-9 -48z" />
    <glyph glyph-name="uni2467" unicode="&#x2467;" horiz-adv-x="831" 
d="M365 -13q-138 0 -227 88.5t-89 222.5q0 114 63 217t167 164.5t219 61.5q138 0 227 -89t89 -222q0 -113 -63 -216t-167.5 -165t-218.5 -62zM374 36q98 0 188.5 54t145.5 143.5t55 187.5q0 116 -77.5 193.5t-195.5 77.5q-98 0 -188.5 -53.5t-146 -143t-55.5 -187.5
q0 -116 77.5 -194t196.5 -78zM387 135q-58 0 -96 32t-38 82q0 44 25 80t66 56q-34 24 -34 68q0 59 47 99.5t110 40.5q50 0 82.5 -28t32.5 -71q0 -70 -65 -109q52 -29 52 -87q0 -68 -54.5 -115.5t-127.5 -47.5zM434 408q32 0 58 21.5t26 50.5q0 23 -17.5 37t-44.5 14
q-33 0 -58 -20.5t-25 -50.5q0 -23 17.5 -37.5t43.5 -14.5zM397 195q43 0 75 27t32 65q0 29 -21.5 47.5t-57.5 18.5q-42 0 -74.5 -27t-32.5 -66q0 -29 21.5 -47t57.5 -18z" />
    <glyph glyph-name="uni2468" unicode="&#x2468;" horiz-adv-x="831" 
d="M365 -13q-138 0 -227 88.5t-89 222.5q0 114 63 217t167 164.5t219 61.5q138 0 227 -89t89 -222q0 -113 -63 -216t-167.5 -165t-218.5 -62zM374 36q98 0 188.5 54t145.5 143.5t55 187.5q0 116 -77.5 193.5t-195.5 77.5q-98 0 -188.5 -53.5t-146 -143t-55.5 -187.5
q0 -116 77.5 -194t196.5 -78zM363 138h-79l138 141q-57 -1 -98.5 35t-41.5 92q0 74 59 130t133 56q60 0 98.5 -37.5t38.5 -94.5q0 -67 -52 -122zM431 339q44 0 79 33.5t35 76.5q0 33 -22.5 55.5t-57.5 22.5q-46 0 -82.5 -33t-36.5 -76q0 -33 24 -56t61 -23z" />
    <glyph glyph-name="uni24EA" unicode="&#x24ea;" horiz-adv-x="831" 
d="M365 -13q-138 0 -227 88.5t-89 222.5q0 114 63 217t167 164.5t219 61.5q138 0 227 -89t89 -222q0 -113 -63 -216t-167.5 -165t-218.5 -62zM374 36q98 0 188.5 54t145.5 143.5t55 187.5q0 116 -77.5 193.5t-195.5 77.5q-98 0 -188.5 -53.5t-146 -143t-55.5 -187.5
q0 -116 77.5 -194t196.5 -78zM394 137q-72 0 -113 46t-41 125q0 114 66 198.5t168 84.5q72 0 112.5 -45t40.5 -122q0 -114 -66 -200.5t-167 -86.5zM404 201q74 0 115.5 65.5t41.5 149.5q0 57 -27.5 84.5t-71.5 27.5q-72 0 -114.5 -64t-42.5 -147q0 -59 27.5 -87.5
t71.5 -28.5z" />
    <glyph glyph-name="uni24FF" unicode="&#x24ff;" horiz-adv-x="831" 
d="M365 -13q-138 0 -227 88.5t-89 222.5q0 114 63 217t167 164.5t219 61.5q138 0 227 -89t89 -222q0 -113 -63 -216t-167.5 -165t-218.5 -62zM394 137q102 0 167.5 87t65.5 200q0 77 -40.5 122t-112.5 45q-103 0 -168.5 -85t-65.5 -198q0 -79 41 -125t113 -46zM404 201
q-44 0 -71.5 28.5t-27.5 87.5q0 84 42.5 147.5t114.5 63.5q44 0 71.5 -27.5t27.5 -84.5q0 -86 -42 -150.5t-115 -64.5z" />
    <glyph glyph-name="lozenge" unicode="&#x25ca;" horiz-adv-x="576" 
d="M286 0h-91l-130 365l258 365h91l129 -365zM157 365l98 -278l197 278l-99 279z" />
    <glyph glyph-name="uni2776" unicode="&#x2776;" horiz-adv-x="831" 
d="M365 -13q-138 0 -227 88.5t-89 222.5q0 114 63 217t167 164.5t219 61.5q138 0 227 -89t89 -222q0 -113 -63 -216t-167.5 -165t-218.5 -62zM431 524l-67 -381h63l78 443h-108l-11 -62h45z" />
    <glyph glyph-name="uni2777" unicode="&#x2777;" horiz-adv-x="831" 
d="M365 -13q-145 0 -234.5 96.5t-79.5 239.5q7 110 71 206.5t165 154t211 57.5q156 0 247 -110.5t63 -265.5q-28 -157 -157.5 -267.5t-285.5 -110.5zM252 188l-9 -48h298l11 62h-196l138 106q78 61 91 133q12 63 -22.5 105.5t-97.5 42.5q-50 0 -93.5 -30.5t-64.5 -76.5
l51 -19q12 23 38 43t57 20q36 0 55 -22.5t14 -59.5q-6 -47 -65 -93z" />
    <glyph glyph-name="uni2778" unicode="&#x2778;" horiz-adv-x="831" 
d="M365 -13q-157 0 -247 110.5t-63 267.5q27 155 156.5 265.5t286.5 110.5q156 0 247 -110.5t63 -265.5q-28 -157 -157.5 -267.5t-285.5 -110.5zM393 137q64 0 116 41.5t56 104.5q3 67 -52 99q30 17 50 45t21 60q5 48 -27.5 76.5t-86.5 28.5q-39 0 -77 -20t-59 -51l50 -26
q29 36 74 36q25 0 43 -13t18 -36q0 -30 -26.5 -51t-57.5 -21h-22l-11 -61h22q34 0 55.5 -18t21.5 -46q0 -37 -29 -61t-70 -24q-29 0 -52 13.5t-31 34.5l-61 -23q12 -39 48 -63.5t87 -24.5z" />
    <glyph glyph-name="uni2779" unicode="&#x2779;" horiz-adv-x="831" 
d="M365 -13q-157 0 -247 110.5t-63 267.5q27 155 156.5 265.5t286.5 110.5q156 0 247 -110.5t63 -265.5q-28 -157 -157.5 -267.5t-285.5 -110.5zM438 252l-19 -110h63l19 110h30l11 63h-30l48 271h-76l-260 -271l-11 -63h225zM449 315h-151l184 187z" />
    <glyph glyph-name="uni277A" unicode="&#x277a;" horiz-adv-x="831" 
d="M365 -13q-157 0 -247 110.5t-63 267.5q27 155 156.5 265.5t286.5 110.5q156 0 247 -110.5t63 -265.5q-28 -157 -157.5 -267.5t-285.5 -110.5zM387 139q69 0 124.5 51t59.5 120q5 58 -29.5 96t-93.5 38q-48 0 -86 -28l29 113h212l10 61h-271l-62 -255h56q38 49 94 49
q35 0 56.5 -21.5t21.5 -53.5q0 -42 -33.5 -74t-75.5 -32q-29 0 -51 16t-27 41l-62 -21q9 -44 44 -72t84 -28z" />
    <glyph glyph-name="uni277B" unicode="&#x277b;" horiz-adv-x="831" 
d="M365 -13q-157 0 -247 110.5t-63 267.5q27 155 156.5 265.5t286.5 110.5q156 0 247 -110.5t63 -265.5q-28 -157 -157.5 -267.5t-285.5 -110.5zM381 138q74 0 133 56t59 129q0 57 -41.5 93t-98.5 35l137 141h-79l-195 -201q-51 -51 -51 -122q0 -56 38 -93.5t98 -37.5z
M390 202q-36 0 -59 23.5t-21 57.5q1 43 35.5 75t77.5 32q37 0 61.5 -22.5t24.5 -56.5q0 -43 -36.5 -76t-82.5 -33z" />
    <glyph glyph-name="uni277C" unicode="&#x277c;" horiz-adv-x="831" 
d="M365 -13q-157 0 -247 110.5t-63 267.5q27 155 156.5 265.5t286.5 110.5q156 0 247 -110.5t63 -265.5q-28 -157 -157.5 -267.5t-285.5 -110.5zM537 527l-232 -385h69l237 396l9 48h-299l-10 -59h226z" />
    <glyph glyph-name="uni277D" unicode="&#x277d;" horiz-adv-x="831" 
d="M365 -13q-157 0 -247 110.5t-63 267.5q27 155 156.5 265.5t286.5 110.5q156 0 247 -110.5t63 -265.5q-28 -157 -157.5 -267.5t-285.5 -110.5zM387 135q73 0 127.5 47.5t54.5 115.5q0 58 -52 87q65 39 65 109q0 43 -32.5 71t-82.5 28q-63 0 -110 -40.5t-47 -99.5
q0 -44 34 -68q-41 -20 -66 -56t-25 -80q0 -50 38 -82t96 -32zM434 408q-26 0 -43.5 14.5t-17.5 37.5q0 30 25 50.5t58 20.5q27 0 44.5 -14t17.5 -37q0 -29 -26 -50.5t-58 -21.5zM397 195q-36 0 -57.5 18t-21.5 47q0 39 32.5 66t74.5 27q36 0 57.5 -18.5t21.5 -47.5
q0 -38 -32 -65t-75 -27z" />
    <glyph glyph-name="uni277E" unicode="&#x277e;" horiz-adv-x="831" 
d="M365 -13q-157 0 -247 110.5t-63 267.5q27 155 156.5 265.5t286.5 110.5q156 0 247 -110.5t63 -265.5q-28 -157 -157.5 -267.5t-285.5 -110.5zM422 279l-138 -141h79l196 200q52 55 52 122q0 57 -38.5 94.5t-98.5 37.5q-74 0 -133 -56t-59 -130q0 -57 42 -92.5t98 -34.5z
M431 339q-37 0 -61 23t-24 56q0 43 36.5 76t82.5 33q35 0 57.5 -22.5t22.5 -55.5q0 -43 -35 -76.5t-79 -33.5z" />
    <glyph glyph-name="a.ss01" horiz-adv-x="677" 
d="M657 550l-76 -433q-2 -13 4 -21t19 -8h12l-15 -88h-40q-47 0 -66.5 25.5t-10.5 69.5l3 20q-37 -53 -98 -87.5t-127 -34.5q-97 0 -161.5 69.5t-64.5 170.5q0 129 93.5 227t222.5 98q64 0 116.5 -33t73.5 -86l25 111h90zM292 90q87 0 154.5 66t67.5 152q0 66 -44 110
t-112 44q-86 0 -153.5 -67t-67.5 -152q0 -66 43.5 -109.5t111.5 -43.5z" />
    <glyph glyph-name="d.ss01" horiz-adv-x="678" 
d="M699 780l-117 -663q-3 -13 3.5 -21t18.5 -8h12l-14 -88h-40q-93 0 -78 95l2 11q-38 -50 -97 -81.5t-127 -31.5q-97 0 -161.5 69.5t-64.5 170.5q0 130 92.5 227.5t223.5 97.5q63 0 115.5 -32t74.5 -83l59 337h98zM292 90q91 0 156.5 65.5t65.5 152.5q0 66 -44 110t-112 44
q-89 0 -155 -66.5t-66 -152.5q0 -66 43.5 -109.5t111.5 -43.5z" />
    <glyph glyph-name="l.ss01" horiz-adv-x="238" 
d="M161 0h-41q-49 0 -68.5 25t-11.5 70l121 685h97l-117 -663q-2 -13 4 -21t19 -8h12z" />
    <glyph glyph-name="m.ss01" horiz-adv-x="906" 
d="M693 558q93 0 136.5 -65t19.5 -201l-51 -292h-97l51 292q15 89 -11 129.5t-80 40.5q-51 0 -93.5 -41t-58.5 -129l-51 -292h-97l51 292q15 89 -11 129.5t-80 40.5q-53 0 -95.5 -46.5t-57.5 -135.5l-49 -280h-98l76 434q5 28 -23 28h-12l15 88h40q92 0 78 -92
q29 46 75.5 73t93.5 27q60 0 98 -28.5t50 -77.5q30 47 78 76.5t103 29.5z" />
    <glyph glyph-name="n.ss01" horiz-adv-x="622" 
d="M387 558q101 0 150.5 -70.5t25.5 -207.5l-49 -280h-97l49 280q15 89 -19 135.5t-98 46.5q-65 0 -115.5 -46t-65.5 -136l-49 -280h-98l76 434q5 28 -23 28h-12l15 88h40q94 0 77 -95l-1 -3q33 47 84 76.5t110 29.5z" />
    <glyph glyph-name="p.ss01" horiz-adv-x="678" 
d="M419 557q97 0 160 -68t63 -171q0 -133 -89.5 -229.5t-219.5 -96.5q-68 0 -121 32t-75 84l-57 -328h-99l116 654q5 28 -23 28h-12l15 88h40q47 0 66.5 -25t10.5 -70l-3 -19q37 53 98.5 87t129.5 34zM320 89q89 0 155 66t66 153q0 66 -43.5 109.5t-111.5 43.5
q-87 0 -154.5 -66t-67.5 -152q0 -66 44 -110t112 -44z" />
    <glyph glyph-name="r.ss01" horiz-adv-x="406" 
d="M389 553q21 0 41 -3l-37 -94q-5 1 -19 1q-77 0 -135 -48.5t-76 -154.5l-44 -254h-98l76 434q2 12 -4 20t-19 8h-12l15 88h40q87 0 79 -83q69 86 193 86z" />
    <glyph glyph-name="u.ss01" horiz-adv-x="622" 
d="M601 550l-76 -434q-2 -12 4 -20t19 -8h12l-15 -88h-39q-46 0 -66 25t-12 71v2q-33 -47 -83.5 -76.5t-109.5 -29.5q-101 0 -150.5 71t-25.5 208l49 279h98l-49 -279q-16 -90 18 -136t99 -46q64 0 114.5 46t66.5 136l49 279h97z" />
    <glyph glyph-name="A.ss02" horiz-adv-x="746" 
d="M85 0h-118l487 750h7l222 -750h-113l-49 177h-326zM424 546l-171 -272h244z" />
    <glyph glyph-name="N.ss02" horiz-adv-x="749" 
d="M615 -24h-7l-379 548l-92 -524h-103l132 754h7l380 -546l92 522h103z" />
    <glyph glyph-name="V.ss02" horiz-adv-x="721" 
d="M312 -24h-7l-216 754h115l143 -533l331 533h115z" />
    <glyph glyph-name="W.ss02" horiz-adv-x="1016" 
d="M251 -24h-7l-152 754h112l100 -520l286 544h6l93 -544l284 520h111l-417 -754h-7l-106 560z" />
    <glyph glyph-name="Z.ss02" horiz-adv-x="646" 
d="M555 0h-569v7l505 620h-371l18 103h540l-2 -7l-502 -620h399z" />
    <glyph glyph-name="R.ss02" horiz-adv-x="618" 
d="M606 498q-16 -96 -92.5 -159t-178.5 -68l211 -271h-127l-229 308l-53 -308h-103l128 730h228q112 0 172 -62.5t44 -169.5zM500 491q11 59 -24.5 98.5t-98.5 39.5h-130l-49 -276h131q64 0 112 40t59 98z" />
    <glyph glyph-name="v.ss02" horiz-adv-x="554" 
d="M228 -24h-7l-160 574h109l90 -375l220 375h110z" />
    <glyph glyph-name="w.ss02" horiz-adv-x="853" 
d="M222 -20h-7l-151 570h109l85 -362l218 386h7l82 -386l211 362h109l-351 -570h-7l-80 407z" />
    <glyph glyph-name="z.ss02" horiz-adv-x="579" 
d="M481 0h-478v7l402 453h-307l15 90h464l-1 -7l-392 -449h313z" />
    <glyph glyph-name="k.ss02" horiz-adv-x="530" 
d="M121 0h-97l137 780h97l-85 -481l255 251h111l-279 -270l214 -280h-118l-191 249z" />
    <glyph glyph-name="K.ss02" horiz-adv-x="620" 
d="M136 0h-102l128 730h102l-59 -333l339 333h112l-372 -369l270 -361h-125l-237 323z" />
    <glyph glyph-name="Iacute_J.loclNLD" horiz-adv-x="742" 
d="M263 810h-64l86 160h90zM743 810h-64l86 160h90zM137 0h-103l128 730h103zM388 -8q-104 0 -157 77l86 64q34 -39 88 -39q63 0 107.5 43t57.5 115l84 478h103l-84 -478q-21 -119 -100 -189.5t-185 -70.5z" />
    <glyph glyph-name="G.ss01" horiz-adv-x="814" 
d="M387 -13q-139 0 -232.5 92t-93.5 226q0 178 128.5 307t310.5 129q92 0 169 -41t116 -110l-99 -62q-29 49 -80 77.5t-115 28.5q-131 0 -226 -95t-95 -222q0 -96 63.5 -159t162.5 -63q74 0 139 31.5t109 87.5l23 129h-206l15 84h311l-43 -244q-62 -92 -155 -144t-202 -52z
" />
    <glyph glyph-name="Gbreve.ss01" horiz-adv-x="814" 
d="M504 817q-66 0 -103.5 41t-32.5 106h60q-5 -37 18 -62.5t63 -25.5q38 0 70 25t41 63h59q-14 -63 -63.5 -105t-111.5 -42zM387 -13q-139 0 -232.5 92t-93.5 226q0 178 128.5 307t310.5 129q92 0 169 -41t116 -110l-99 -62q-29 49 -80 77.5t-115 28.5q-131 0 -226 -95
t-95 -222q0 -96 63.5 -159t162.5 -63q74 0 139 31.5t109 87.5l23 129h-206l15 84h311l-43 -244q-62 -92 -155 -144t-202 -52z" />
    <glyph glyph-name="Gcaron.ss01" horiz-adv-x="814" 
d="M556 827h-86l-83 127h83l52 -76l79 76h83zM387 -13q-139 0 -232.5 92t-93.5 226q0 178 128.5 307t310.5 129q92 0 169 -41t116 -110l-99 -62q-29 49 -80 77.5t-115 28.5q-131 0 -226 -95t-95 -222q0 -96 63.5 -159t162.5 -63q74 0 139 31.5t109 87.5l23 129h-206l15 84
h311l-43 -244q-62 -92 -155 -144t-202 -52z" />
    <glyph glyph-name="Gcircumflex.ss01" horiz-adv-x="814" 
d="M454 827h-83l128 127h86l83 -127h-83l-52 76zM387 -13q-139 0 -232.5 92t-93.5 226q0 178 128.5 307t310.5 129q92 0 169 -41t116 -110l-99 -62q-29 49 -80 77.5t-115 28.5q-131 0 -226 -95t-95 -222q0 -96 63.5 -159t162.5 -63q74 0 139 31.5t109 87.5l23 129h-206
l15 84h311l-43 -244q-62 -92 -155 -144t-202 -52z" />
    <glyph glyph-name="uni0122.ss01" horiz-adv-x="814" 
d="M387 -13q-139 0 -232.5 92t-93.5 226q0 178 128.5 307t310.5 129q92 0 169 -41t116 -110l-99 -62q-29 49 -80 77.5t-115 28.5q-131 0 -226 -95t-95 -222q0 -96 63.5 -159t162.5 -63q74 0 139 31.5t109 87.5l23 129h-206l15 84h311l-43 -244q-62 -92 -155 -144t-202 -52z
M358 -205h-77l45 156h90z" />
    <glyph glyph-name="Gdotaccent.ss01" horiz-adv-x="814" 
d="M513 830q-22 0 -36.5 14.5t-14.5 35.5q0 28 22 49.5t50 21.5q21 0 35.5 -14.5t14.5 -34.5q0 -28 -22 -50t-49 -22zM387 -13q-139 0 -232.5 92t-93.5 226q0 178 128.5 307t310.5 129q92 0 169 -41t116 -110l-99 -62q-29 49 -80 77.5t-115 28.5q-131 0 -226 -95t-95 -222
q0 -96 63.5 -159t162.5 -63q74 0 139 31.5t109 87.5l23 129h-206l15 84h311l-43 -244q-62 -92 -155 -144t-202 -52z" />
    <glyph glyph-name="M.ss01" horiz-adv-x="909" 
d="M80 0h-106l278 730h105l84 -553l279 553h105l21 -730h-105l-25 540l-266 -540h-80l-75 540z" />
    <glyph glyph-name="uni1E3E.ss01" horiz-adv-x="909" 
d="M564 810h-64l87 160h89zM80 0h-106l278 730h105l84 -553l279 553h105l21 -730h-105l-25 540l-266 -540h-80l-75 540z" />
    <glyph glyph-name="W.ss01" horiz-adv-x="985" 
d="M287 0h-102l-86 730h107l68 -573l248 441h56l92 -441l270 573h106l-341 -730h-103l-83 424z" />
    <glyph glyph-name="Wacute.ss01" horiz-adv-x="985" 
d="M625 810h-64l86 160h90zM287 0h-102l-86 730h107l68 -573l248 441h56l92 -441l270 573h106l-341 -730h-103l-83 424z" />
    <glyph glyph-name="Wcircumflex.ss01" horiz-adv-x="985" 
d="M521 827h-83l129 127h86l83 -127h-83l-52 76zM287 0h-102l-86 730h107l68 -573l248 441h56l92 -441l270 573h106l-341 -730h-103l-83 424z" />
    <glyph glyph-name="Wdieresis.ss01" horiz-adv-x="985" 
d="M496 838q-19 0 -32 12.5t-13 31.5q0 24 19.5 42.5t43.5 18.5q19 0 31.5 -12.5t12.5 -29.5q0 -25 -19 -44t-43 -19zM690 838q-19 0 -31.5 12.5t-12.5 31.5q0 24 19 42.5t43 18.5q19 0 31.5 -12.5t12.5 -29.5q0 -25 -19 -44t-43 -19zM287 0h-102l-86 730h107l68 -573
l248 441h56l92 -441l270 573h106l-341 -730h-103l-83 424z" />
    <glyph glyph-name="Wgrave.ss01" horiz-adv-x="985" 
d="M608 810h-64l-56 160h89zM287 0h-102l-86 730h107l68 -573l248 441h56l92 -441l270 573h106l-341 -730h-103l-83 424z" />
    <glyph glyph-name="Aacute.ss02" horiz-adv-x="746" 
d="M498 810h-64l87 160h89zM85 0h-118l487 750h7l222 -750h-113l-49 177h-326zM424 546l-171 -272h244z" />
    <glyph glyph-name="Abreve.ss02" horiz-adv-x="746" 
d="M474 817q-64 0 -104.5 43.5t-32.5 103.5h60q-5 -37 18 -62.5t63 -25.5q38 0 70 25t41 63h59q-14 -63 -63 -105t-111 -42zM85 0h-118l487 750h7l222 -750h-113l-49 177h-326zM424 546l-171 -272h244z" />
    <glyph glyph-name="uni1EAE.ss02" horiz-adv-x="746" 
d="M520 943h-64l87 160h89zM472 788q-64 0 -104.5 43.5t-32.5 103.5h60q-5 -37 18 -62.5t63 -25.5q38 0 70 25t41 63h60q-14 -63 -63.5 -105t-111.5 -42zM85 0h-118l487 750h7l222 -750h-113l-49 177h-326zM424 546l-171 -272h244z" />
    <glyph glyph-name="uni1EB6.ss02" horiz-adv-x="746" 
d="M476 817q-64 0 -104.5 43.5t-32.5 103.5h60q-5 -37 18 -62.5t63 -25.5q38 0 70 25t41 63h59q-14 -63 -63 -105t-111 -42zM85 0h-118l487 750h7l222 -750h-113l-49 177h-326zM424 546l-171 -272h244zM297 -161q-22 0 -36 14.5t-14 35.5q0 28 22 49.5t50 21.5
q22 0 35.5 -14t13.5 -36q0 -28 -22 -49.5t-49 -21.5z" />
    <glyph glyph-name="uni1EB0.ss02" horiz-adv-x="746" 
d="M531 943h-64l-56 160h89zM473 788q-64 0 -104.5 43.5t-32.5 103.5h60q-5 -36 18.5 -62t62.5 -26q38 0 70 25.5t41 62.5h59q-14 -63 -63 -105t-111 -42zM85 0h-118l487 750h7l222 -750h-113l-49 177h-326zM424 546l-171 -272h244z" />
    <glyph glyph-name="uni1EB4.ss02" horiz-adv-x="746" 
d="M565 961q-28 0 -48.5 17.5t-35 34.5t-27.5 17q-31 0 -41 -58h-65q9 52 39 85t71 33q28 0 48 -17t34.5 -34t28.5 -17q28 0 38 57h66q-10 -55 -38.5 -86.5t-69.5 -31.5zM469 798q-64 0 -103.5 43.5t-30.5 103.5h59q-2 -41 20 -64.5t61 -23.5q38 0 70 25t42 63h59
q-14 -63 -64.5 -105t-112.5 -42zM85 0h-118l487 750h7l222 -750h-113l-49 177h-326zM424 546l-171 -272h244z" />
    <glyph glyph-name="uni01CD.ss02" horiz-adv-x="746" 
d="M513 827h-86l-84 127h83l53 -76l79 76h83zM85 0h-118l487 750h7l222 -750h-113l-49 177h-326zM424 546l-171 -272h244z" />
    <glyph glyph-name="Acircumflex.ss02" horiz-adv-x="746" 
d="M405 827h-83l128 127h86l84 -127h-83l-52 76zM85 0h-118l487 750h7l222 -750h-113l-49 177h-326zM424 546l-171 -272h244z" />
    <glyph glyph-name="uni1EA4.ss02" horiz-adv-x="746" 
d="M627 909h-64l87 160h89zM393 782h-83l128 128h86l84 -128h-83l-52 77zM85 0h-118l487 750h7l222 -750h-113l-49 177h-326zM424 546l-171 -272h244z" />
    <glyph glyph-name="uni1EAC.ss02" horiz-adv-x="746" 
d="M405 827h-83l128 127h86l84 -127h-83l-52 76zM85 0h-118l487 750h7l222 -750h-113l-49 177h-326zM424 546l-171 -272h244zM297 -161q-22 0 -36 14.5t-14 35.5q0 28 22 49.5t50 21.5q22 0 35.5 -14t13.5 -36q0 -28 -22 -49.5t-49 -21.5z" />
    <glyph glyph-name="uni1EA6.ss02" horiz-adv-x="746" 
d="M401 907h-63l-57 160h90zM397 784h-83l128 127h86l84 -127h-83l-52 76zM85 0h-118l487 750h7l222 -750h-113l-49 177h-326zM424 546l-171 -272h244z" />
    <glyph glyph-name="uni1EAA.ss02" horiz-adv-x="746" 
d="M558 933q-30 -2 -51 15t-35.5 35t-28.5 18q-31 0 -41 -57h-65q8 51 37 84t69 34q24 1 42 -9.5t27.5 -24t21 -24.5t23.5 -11q29 2 39 57h66q-10 -54 -37 -85t-67 -32zM392 786h-83l128 128h86l84 -128h-83l-53 77zM85 0h-118l487 750h7l222 -750h-113l-49 177h-326z
M424 546l-171 -272h244z" />
    <glyph glyph-name="Adieresis.ss02" horiz-adv-x="746" 
d="M376 838q-19 0 -31.5 12.5t-12.5 31.5q0 24 19 42.5t43 18.5q19 0 31.5 -12.5t12.5 -29.5q0 -25 -19 -44t-43 -19zM570 838q-19 0 -31.5 12.5t-12.5 31.5q0 24 19.5 42.5t43.5 18.5q19 0 31 -12.5t12 -29.5q0 -25 -19 -44t-43 -19zM85 0h-118l487 750h7l222 -750h-113
l-49 177h-326zM424 546l-171 -272h244z" />
    </font>
</defs>
</svg>
