<?xml version="1.0" standalone="no"?>
<!DOCTYPE svg PUBLIC "-//W3C//DTD SVG 1.1//EN" "http://www.w3.org/Graphics/SVG/1.1/DTD/svg11.dtd" >
<svg xmlns="http://www.w3.org/2000/svg" xmlns:xlink="http://www.w3.org/1999/xlink" version="1.1">
<metadata>
Created by FontForge 20201107 at Tue Jul 14 08:22:03 2020
 By 
Copyright (c) 2020 by Namela. All rights reserved.
</metadata>
<defs>
<font id="Madani-LightOblique" horiz-adv-x="687" >
  <font-face 
    font-family="Madani-LightOblique"
    font-weight="400"
    font-style="oblique"
    font-stretch="normal"
    units-per-em="1000"
    panose-1="0 0 4 0 0 0 0 0 0 0"
    ascent="775"
    descent="-225"
    x-height="550"
    cap-height="730"
    bbox="-319 -230 1155 1158"
    underline-thickness="50"
    underline-position="-75"
    slope="-10"
    unicode-range="U+0020-FB02"
  />
<missing-glyph horiz-adv-x="250" 
 />
    <glyph glyph-name="fi" unicode="fi" horiz-adv-x="515" 
d="M207 480l-85 -481l-75 1l84 480h-70l12 70h70l5 24q20 116 78.5 167.5t140.5 51.5q28 0 57 -9l-36 -69q-17 5 -32 5q-50 0 -84 -33t-48 -113l-5 -24h268l-97 -551l-75 1l84 480h-192zM460 612q-22 0 -35 15.5t-9 36.5q5 22 22.5 37t39.5 15q20 0 33 -15t9 -37
q-4 -21 -22 -36.5t-38 -15.5z" />
    <glyph glyph-name="fl" unicode="fl" horiz-adv-x="524" 
d="M207 480l-85 -481l-75 1l84 480h-70l12 70h70l5 24q20 115 84 167t152 52q73 0 145 -49l-131 -744h-76l123 699q-25 21 -77 21q-57 0 -93.5 -32.5t-50.5 -113.5l-5 -24h145l-12 -70h-145z" />
    <glyph glyph-name="f_f" unicode="ff" horiz-adv-x="617" 
d="M207 480l-85 -481l-75 1l84 480h-70l12 70h70l5 24q20 116 78.5 167.5t140.5 51.5q36 0 64 -10l-33 -68q-25 5 -38 5q-54 0 -88 -32.5t-48 -113.5l-5 -24h192l5 24q20 116 78.5 167.5t140.5 51.5q36 0 64 -10l-33 -68q-25 5 -38 5q-54 0 -88 -32.5t-48 -113.5l-5 -24h148
l-11 -70h-149l-85 -481l-75 1l84 480h-192z" />
    <glyph glyph-name="f_f_i" unicode="ffi" horiz-adv-x="783" 
d="M207 480l-85 -481l-75 1l84 480h-70l12 70h70l5 24q20 116 78.5 167.5t140.5 51.5q36 0 64 -10l-33 -68q-25 5 -38 5q-54 0 -88 -32.5t-48 -113.5l-5 -24h192l5 24q20 116 78.5 167.5t140.5 51.5q28 0 57 -9l-36 -69q-17 5 -32 5q-50 0 -84 -33t-48 -113l-5 -24h268
l-96 -550h-76l84 480h-192l-85 -481l-75 1l84 480h-192zM727 612q-22 0 -34.5 15.5t-8.5 36.5q4 22 21.5 37t39.5 15q21 0 33.5 -15t8.5 -37q-4 -21 -21.5 -36.5t-38.5 -15.5z" />
    <glyph glyph-name="f_f_j" unicode="ffj" horiz-adv-x="783" 
d="M439 -230q-38 0 -70 13l34 70q21 -8 41 -8q111 0 138 149l85 486h-192l-85 -481l-75 1l84 480h-192l-85 -481l-75 1l84 480h-70l12 70h70l5 24q20 116 78.5 167.5t140.5 51.5q36 0 64 -10l-33 -68q-25 5 -38 5q-54 0 -88 -32.5t-48 -113.5l-5 -24h192l5 24
q20 116 78.5 167.5t140.5 51.5q28 0 57 -9l-36 -69q-17 5 -32 5q-50 0 -84 -33t-48 -113l-5 -24h268l-97 -556q-21 -114 -79.5 -169t-139.5 -55zM727 612q-22 0 -34.5 15.5t-8.5 36.5q4 22 21.5 37t39.5 15q21 0 33.5 -15t8.5 -37q-4 -21 -21.5 -36.5t-38.5 -15.5z" />
    <glyph glyph-name="f_f_l" unicode="ffl" horiz-adv-x="792" 
d="M207 480l-85 -481l-75 1l84 480h-70l12 70h70l5 24q20 116 78.5 167.5t140.5 51.5q36 0 64 -10l-33 -68q-25 5 -38 5q-54 0 -88 -32.5t-48 -113.5l-5 -24h192l5 24q20 115 84 167t152 52q73 0 145 -49l-131 -744h-76l123 699q-27 21 -77 21q-57 0 -93.5 -32.5
t-50.5 -113.5l-5 -24h145l-12 -70h-145l-85 -481l-75 1l84 480h-192z" />
    <glyph glyph-name="f_j" unicode="fj" horiz-adv-x="515" 
d="M172 -230q-38 0 -70 13l34 70q19 -8 41 -8q110 0 137 149l85 486h-192l-85 -481l-75 1l84 480h-70l12 70h70l5 24q20 116 78.5 167.5t140.5 51.5q28 0 57 -9l-36 -69q-17 5 -32 5q-50 0 -84 -33t-48 -113l-5 -24h268l-97 -556q-21 -114 -79 -169t-139 -55zM460 612
q-22 0 -35 15.5t-9 36.5q5 22 22.5 37t39.5 15q20 0 33 -15t9 -37q-4 -21 -22 -36.5t-38 -15.5z" />
    <glyph glyph-name="t_t" unicode="tt" horiz-adv-x="672" 
d="M223 -8q-76 0 -115.5 50.5t-22.5 149.5l51 288h-75l12 70h77l40 180h66l-32 -180h218l39 180h66l-32 -180h135l-12 -70h-134l-51 -287q-11 -61 11.5 -94t71.5 -33q26 0 45 8l8 -69q-33 -13 -75 -13q-76 0 -115 50.5t-22 149.5l51 288h-216l-51 -287q-10 -61 12 -94
t71 -33q26 0 45 8l8 -69q-32 -13 -74 -13z" />
    <glyph glyph-name=".notdef" horiz-adv-x="250" 
 />
    <glyph glyph-name=".null" horiz-adv-x="0" 
 />
    <glyph glyph-name="uni000D" horiz-adv-x="333" 
 />
    <glyph glyph-name="space" unicode=" " horiz-adv-x="275" 
 />
    <glyph glyph-name="exclam" unicode="!" horiz-adv-x="242" 
d="M132 152h-65l95 578h78zM72 -7q-19 0 -31 12t-12 31q0 24 18.5 41.5t42.5 17.5q18 0 30 -12t12 -29q0 -24 -18.5 -42.5t-41.5 -18.5z" />
    <glyph glyph-name="quotedbl" unicode="&#x22;" horiz-adv-x="318" 
d="M160 528h-55l28 202h71zM302 528h-56l28 202h71z" />
    <glyph glyph-name="numbersign" unicode="#" horiz-adv-x="758" 
d="M192 79h-67l50 130h-134l25 65h133l71 182h-134l25 65h132l50 131h67l-50 -131h189l49 131h67l-49 -131h133l-25 -65h-132l-70 -182h132l-25 -65h-132l-49 -130h-67l49 130h-189zM336 456l-71 -182h190l70 182h-189z" />
    <glyph glyph-name="dollar" unicode="$" horiz-adv-x="601" 
d="M266 -78h-49l12 69q-140 12 -224 112l56 48q68 -79 180 -89l52 296q-93 32 -142.5 74t-45.5 114q4 80 74 136.5t182 60.5l12 66h49l-11 -67q134 -14 194 -114l-62 -40q-47 73 -144 85l-45 -255q112 -37 162.5 -86t35.5 -141q-16 -91 -91 -144t-183 -58zM307 434l43 243
q-76 -2 -128 -37t-52 -91q0 -43 35 -68t102 -47zM340 342l-49 -283q76 2 129.5 37.5t64.5 94.5t-26.5 90.5t-118.5 60.5z" />
    <glyph glyph-name="percent" unicode="%" horiz-adv-x="787" 
d="M217 392q-61 0 -95.5 39t-34.5 106q0 100 55.5 173t143.5 73q62 0 96 -38.5t34 -105.5q0 -98 -56 -172.5t-143 -74.5zM175 0h-62l541 781h62zM226 446q64 0 100 57t36 129q0 49 -24 73t-62 24q-64 0 -99.5 -56t-35.5 -127q0 -51 24 -75.5t61 -24.5zM542 -10
q-62 0 -96.5 39.5t-34.5 107.5q0 99 56.5 171.5t143.5 72.5q61 0 95.5 -38.5t34.5 -104.5q0 -99 -56 -173.5t-143 -74.5zM551 44q63 0 99 56.5t36 129.5q0 50 -23.5 73.5t-61.5 23.5q-64 0 -99.5 -56t-35.5 -128q0 -51 24 -75t61 -24z" />
    <glyph glyph-name="ampersand" unicode="&#x26;" horiz-adv-x="704" 
d="M286 -9q-121 0 -188.5 51t-61.5 137q3 77 52.5 125.5t135.5 84.5q-54 83 -51 156q5 91 74.5 145.5t167.5 54.5q83 0 134 -45t46 -116q-1 -26 -10.5 -49.5t-21.5 -41t-35.5 -35.5t-40 -29t-48.5 -26t-48.5 -21.5t-51.5 -20.5l174 -219q46 40 68.5 95t20.5 108l74 19
q-2 -175 -124 -279l64 -85h-98l-34 42q-88 -51 -198 -51zM299 420q10 4 35.5 13.5t36 13.5t32.5 13t32 15t26.5 16t24 19t16.5 20.5t13 24.5t4 28q1 44 -33.5 67.5t-81.5 23.5q-64 0 -108 -34.5t-45 -95.5q-2 -53 48 -124zM297 63q81 0 145 39l-178 226q-72 -29 -112 -62.5
t-41 -86.5q-2 -58 50 -87t136 -29z" />
    <glyph glyph-name="quotesingle" unicode="'" horiz-adv-x="176" 
d="M160 528h-55l28 202h71z" />
    <glyph glyph-name="parenleft" unicode="(" horiz-adv-x="311" 
d="M225 -110h-78q-45 48 -69.5 127.5t-24.5 175.5q0 167 68.5 331.5t182.5 255.5h78q-116 -86 -188 -252t-72 -330q0 -97 26.5 -178t76.5 -130z" />
    <glyph glyph-name="parenright" unicode=")" horiz-adv-x="312" 
d="M28 -110h-79q118 87 189 252t71 331q0 97 -26.5 177.5t-75.5 129.5h78q94 -103 94 -306q0 -169 -68.5 -331t-182.5 -253z" />
    <glyph glyph-name="asterisk" unicode="*" horiz-adv-x="402" 
d="M242 505l-106 -119l-38 32l107 117l-132 44l27 52l129 -47l25 146h54l-27 -145l147 45l7 -51l-146 -44l65 -118l-49 -31z" />
    <glyph glyph-name="plus" unicode="+" horiz-adv-x="535" 
d="M278 150h-65l32 183h-182l11 65h183l32 182h64l-32 -182h183l-11 -65h-183z" />
    <glyph glyph-name="comma" unicode="," horiz-adv-x="175" 
d="M22 -140h-55l67 229h71z" />
    <glyph glyph-name="hyphen" unicode="-" horiz-adv-x="440" 
d="M413 333h-365l11 65h365z" />
    <glyph glyph-name="period" unicode="." horiz-adv-x="172" 
d="M37 -5q-19 0 -31 12.5t-12 30.5q0 24 18.5 42t42.5 18q18 0 30 -12t12 -29q0 -25 -18.5 -43.5t-41.5 -18.5z" />
    <glyph glyph-name="slash" unicode="/" horiz-adv-x="480" 
d="M33 -110h-76l511 891h76z" />
    <glyph glyph-name="zero" unicode="0" horiz-adv-x="679" 
d="M295 -13q-105 0 -169.5 75t-64.5 203q0 121 40.5 228t123 177.5t190.5 70.5q105 0 169.5 -74t64.5 -200q0 -123 -39 -230t-121.5 -178.5t-193.5 -71.5zM303 63q82 0 145 62.5t93 151.5t30 183q0 100 -43.5 152.5t-118.5 52.5q-81 0 -144 -60.5t-94 -149t-31 -184.5
q0 -102 43.5 -155t119.5 -53z" />
    <glyph glyph-name="one" unicode="1" horiz-adv-x="301" 
d="M143 0h-76l115 658h-80l13 72h156z" />
    <glyph glyph-name="two" unicode="2" horiz-adv-x="596" 
d="M494 0h-512l10 58l362 272q137 100 137 209q0 60 -38 94.5t-99 34.5q-62 0 -115.5 -35t-80.5 -86l-66 25q36 74 111.5 123t158.5 49q91 0 148.5 -53t57.5 -141q0 -150 -165 -273l-281 -205h384z" />
    <glyph glyph-name="three" unicode="3" horiz-adv-x="596" 
d="M244 -14q-89 0 -155 41.5t-85 105.5l74 30q13 -43 60.5 -72t110.5 -29q84 0 144.5 49t60.5 122q0 56 -46 89.5t-115 33.5h-35l13 72h36q71 0 124 39.5t54 99.5q1 46 -36.5 75t-97.5 29q-45 0 -86.5 -18.5t-66.5 -47.5l-65 28q37 50 98 81t127 31q89 0 147.5 -46
t58.5 -121q0 -62 -39 -109t-103 -75q50 -21 79.5 -64t29.5 -96q0 -108 -83 -178t-204 -70z" />
    <glyph glyph-name="four" unicode="4" horiz-adv-x="570" 
d="M445 0h-76l32 185h-391l13 69l466 476h84l-83 -470h60l-13 -75h-60zM478 619l-365 -359h301z" />
    <glyph glyph-name="five" unicode="5" horiz-adv-x="589" 
d="M240 -10q-85 0 -148 46.5t-78 120.5l77 27q11 -52 53.5 -85t101.5 -33q91 0 156.5 64.5t66.5 151.5q2 67 -42.5 111.5t-114.5 44.5q-49 0 -98 -24t-81 -64h-76l93 380h454l-12 -72h-383l-52 -216q77 67 174 67q98 0 159 -65t56 -164q-5 -119 -93.5 -204.5t-212.5 -85.5z
" />
    <glyph glyph-name="six" unicode="6" horiz-adv-x="613" 
d="M264 -10q-97 0 -163 61t-66 153q0 59 24.5 116t68.5 99l308 311h98l-234 -233q103 27 186 -35.5t83 -171.5q0 -121 -91 -210.5t-214 -89.5zM269 66q87 0 154.5 65.5t67.5 150.5q0 66 -44 109.5t-114 43.5q-87 0 -154 -66.5t-67 -149.5q0 -66 44 -109.5t113 -43.5z" />
    <glyph glyph-name="seven" unicode="7" horiz-adv-x="574" 
d="M171 0h-90l423 658h-417l13 72h511l-10 -55z" />
    <glyph glyph-name="eight" unicode="8" horiz-adv-x="629" 
d="M265 -22q-102 0 -164.5 55t-62.5 139q0 78 51 139t130 91q-35 19 -56 53.5t-21 75.5q0 92 75 154.5t177 62.5q83 0 139 -46.5t56 -115.5q0 -59 -36.5 -107.5t-97.5 -76.5q51 -22 81.5 -65.5t30.5 -97.5q0 -112 -88 -186.5t-214 -74.5zM343 436q67 0 118 42t51 98
q0 44 -35.5 72.5t-91.5 28.5q-67 0 -117 -40t-50 -98q0 -44 35 -73.5t90 -29.5zM276 53q86 0 149.5 52.5t63.5 127.5q0 56 -44.5 93.5t-113.5 37.5q-84 0 -149 -53.5t-65 -126.5q0 -57 43 -94t116 -37z" />
    <glyph glyph-name="nine" unicode="9" horiz-adv-x="613" 
d="M208 0h-97l234 233q-103 -26 -186 36t-83 171q0 123 89.5 211.5t218.5 88.5q97 0 161.5 -62t64.5 -155q0 -121 -93 -211zM309 295q88 0 156 67t68 150q0 66 -44 109t-113 43q-91 0 -156.5 -64.5t-65.5 -151.5q0 -66 43.5 -109.5t111.5 -43.5z" />
    <glyph glyph-name="colon" unicode=":" horiz-adv-x="212" 
d="M134 433q-19 0 -30.5 12t-11.5 30q0 24 18.5 42t41.5 18q19 0 30.5 -12t11.5 -31q0 -24 -18.5 -41.5t-41.5 -17.5zM61 15q-19 0 -31 12.5t-12 30.5q0 24 18.5 42t42.5 18q18 0 30 -12.5t12 -30.5q0 -24 -18.5 -42t-41.5 -18z" />
    <glyph glyph-name="semicolon" unicode=";" horiz-adv-x="214" 
d="M140 433q-19 0 -31 12.5t-12 30.5q0 24 18.5 42t42.5 18q18 0 29.5 -12t11.5 -31q0 -24 -18 -42t-41 -18zM35 -140h-56l67 229h71z" />
    <glyph glyph-name="less" unicode="&#x3c;" horiz-adv-x="564" 
d="M500 206l-13 -71l-424 201l12 70l495 201l-12 -71l-407 -165z" />
    <glyph glyph-name="equal" unicode="=" horiz-adv-x="575" 
d="M529 423h-430l11 65h430zM495 234h-430l12 65h430z" />
    <glyph glyph-name="greater" unicode="&#x3e;" horiz-adv-x="564" 
d="M522 336l-494 -201l13 71l406 165l-348 165l12 71l423 -201z" />
    <glyph glyph-name="question" unicode="?" horiz-adv-x="561" 
d="M286 143h-78l7 41q17 96 109 160q78 54 116 102.5t38 108.5q0 50 -35 81t-91 31q-57 0 -106 -35.5t-75 -86.5l-66 27q37 76 106 124t148 48q87 0 142 -49t55 -128q0 -58 -26 -109t-62 -85.5t-95 -78.5q-35 -25 -55 -51t-26 -65zM222 -7q-19 0 -31 12t-12 31
q0 24 18.5 41.5t42.5 17.5q18 0 30 -12t12 -29q0 -24 -18.5 -42.5t-41.5 -18.5z" />
    <glyph glyph-name="at" unicode="@" horiz-adv-x="840" 
d="M370 -13q-138 0 -227 91t-89 225q0 181 130 309.5t313 128.5q145 0 233.5 -88.5t88.5 -222.5q0 -109 -58 -196.5t-143 -87.5q-46 0 -69.5 28t-22.5 77q-60 -65 -139 -65q-65 0 -109 45.5t-44 110.5q0 82 63 144.5t145 62.5q40 0 74 -17.5t51 -46.5l13 63h48l-48 -270
q-5 -39 7.5 -62t40.5 -23q61 -1 103.5 71t42.5 159q0 118 -76 196t-203 78q-162 0 -278.5 -114.5t-116.5 -275.5q0 -119 78.5 -197t199.5 -78q50 0 98 14l4 -43q-52 -16 -110 -16zM394 241q58 0 104 45t46 103q0 45 -30 74.5t-75 29.5q-58 0 -104 -44t-46 -103
q0 -45 29.5 -75t75.5 -30z" />
    <glyph glyph-name="A" unicode="A" horiz-adv-x="677" 
d="M61 0h-89l403 730h87l147 -730h-85l-43 211h-304zM401 623l-186 -337h255z" />
    <glyph glyph-name="B" unicode="B" horiz-adv-x="653" 
d="M333 0h-293l128 730h254q100 0 151.5 -53t37.5 -135q-18 -104 -121 -152q61 -18 91 -66.5t18 -116.5q-16 -91 -89 -149t-177 -58zM234 656l-42 -241l181 1q61 1 105.5 34t52.5 83q10 53 -21 88t-99 35h-177zM180 344l-48 -267h209q69 0 117.5 37.5t59.5 96.5
q10 58 -25 95.5t-97 37.5h-216z" />
    <glyph glyph-name="C" unicode="C" horiz-adv-x="775" 
d="M388 -11q-141 0 -232 90.5t-91 226.5q0 174 129.5 303.5t307.5 129.5q90 0 161.5 -38.5t114.5 -106.5l-72 -47q-32 51 -87 81t-123 30q-90 0 -171 -48.5t-129.5 -128.5t-48.5 -168q0 -105 69.5 -173.5t176.5 -68.5q71 0 137.5 31t115.5 85l69 -47q-62 -70 -147.5 -110.5
t-179.5 -40.5z" />
    <glyph glyph-name="D" unicode="D" horiz-adv-x="745" 
d="M265 0h-225l128 730h212q149 0 240.5 -87.5t91.5 -218.5q0 -178 -130 -301t-317 -123zM233 651l-101 -572h139q149 0 253 99t104 239q0 102 -68.5 168.5t-187.5 66.5z" />
    <glyph glyph-name="E" unicode="E" horiz-adv-x="596" 
d="M496 0h-456l128 730h446l-14 -75h-366l-43 -243h347l-13 -74h-347l-46 -261h377z" />
    <glyph glyph-name="F" unicode="F" horiz-adv-x="597" 
d="M119 0h-79l128 730h466l-14 -77h-387l-42 -244h366l-13 -78h-367z" />
    <glyph glyph-name="G" unicode="G" horiz-adv-x="846" 
d="M387 -11q-138 0 -230 91.5t-92 226.5q0 115 59 214.5t160.5 158.5t218.5 59q90 0 164.5 -39.5t114.5 -106.5l-77 -43q-33 50 -87.5 79t-121.5 29q-90 0 -171 -48.5t-129.5 -128.5t-48.5 -168q0 -105 69.5 -173.5t176.5 -68.5q119 0 207 72.5t115 190.5h-297l13 75h382
q0 -24 -4 -44q-30 -168 -144 -272t-278 -104z" />
    <glyph glyph-name="H" unicode="H" horiz-adv-x="738" 
d="M119 0h-79l128 730h79l-57 -326h403l57 326h80l-128 -730h-80l57 325h-403z" />
    <glyph glyph-name="I" unicode="I" horiz-adv-x="255" 
d="M119 0h-79l128 730h79z" />
    <glyph glyph-name="J" unicode="J" horiz-adv-x="494" 
d="M138 -7q-94 0 -146 66l65 51q36 -38 93 -38q68 0 118 47t63 124l86 487h80l-86 -487q-20 -114 -95.5 -182t-177.5 -68z" />
    <glyph glyph-name="K" unicode="K" horiz-adv-x="658" 
d="M119 0h-79l128 730h79l-66 -379l412 379h95l-319 -300l218 -430h-95l-187 360l-145 -130z" />
    <glyph glyph-name="L" unicode="L" horiz-adv-x="579" 
d="M506 0h-466l128 730h79l-114 -650h386z" />
    <glyph glyph-name="M" unicode="M" horiz-adv-x="939" 
d="M119 0h-79l128 730h86l207 -501l384 501h86l-128 -730h-80l106 599l-360 -470h-51l-193 470z" />
    <glyph glyph-name="N" unicode="N" horiz-adv-x="785" 
d="M119 0h-79l128 730h79l347 -591l104 591h80l-128 -730h-80l-347 593z" />
    <glyph glyph-name="O" unicode="O" horiz-adv-x="858" 
d="M388 -11q-141 0 -232 90.5t-91 226.5q0 115 55.5 214t156.5 159t225 60q141 0 232 -90.5t91 -225.5q0 -115 -55.5 -214t-156.5 -159.5t-225 -60.5zM393 71q145 0 247 103.5t102 242.5q0 103 -69.5 172t-176.5 69q-146 0 -247.5 -104t-101.5 -241q0 -105 69.5 -173.5
t176.5 -68.5z" />
    <glyph glyph-name="P" unicode="P" horiz-adv-x="643" 
d="M119 0h-79l128 730h262q112 0 171 -65.5t42 -159.5q-17 -95 -94.5 -160t-181.5 -65h-199zM233 652l-51 -294h189q72 0 126 43.5t65 103.5q11 61 -25.5 104t-112.5 43h-191z" />
    <glyph glyph-name="Q" unicode="Q" horiz-adv-x="863" 
d="M733 25l-59 -46l-53 78q-103 -68 -233 -68q-141 0 -232 90.5t-91 226.5q0 115 55.5 214t156.5 159t225 60q141 0 232 -90.5t91 -225.5q0 -93 -38 -177.5t-106 -144.5zM393 71q103 0 183 55l-65 96l56 41l63 -92q53 46 82.5 110.5t29.5 135.5q0 103 -69.5 172t-176.5 69
q-146 0 -247.5 -104t-101.5 -241q0 -105 69.5 -173.5t176.5 -68.5z" />
    <glyph glyph-name="R" unicode="R" horiz-adv-x="644" 
d="M119 0h-79l128 730h271q107 0 164 -65.5t40 -159.5q-14 -79 -74.5 -138.5t-142.5 -74.5l140 -292h-95l-132 280h-171zM233 652l-51 -294h195q71 0 122.5 43t62.5 104q11 60 -26 103.5t-108 43.5h-195z" />
    <glyph glyph-name="S" unicode="S" horiz-adv-x="611" 
d="M275 -9q-75 0 -143 27.5t-113 85.5l60 52q73 -90 203 -91q82 -1 134.5 38t52.5 107q0 46 -37 77.5t-90 51.5t-106 41.5t-90 61.5t-37 97q0 93 71.5 147.5t184.5 54.5q67 0 135 -29t100 -88l-63 -45q-21 39 -70 63t-103 25q-80 0 -127.5 -33t-47.5 -85q0 -40 37 -67.5
t90 -46.5t106 -41.5t90 -65.5t37 -106q0 -109 -76.5 -170.5t-197.5 -60.5z" />
    <glyph glyph-name="T" unicode="T" horiz-adv-x="594" 
d="M289 0h-79l114 653h-233l14 77h544l-14 -77h-231z" />
    <glyph glyph-name="U" unicode="U" horiz-adv-x="715" 
d="M526 69q-89 -78 -211 -78t-191 78t-46 209l80 452h79l-79 -451q-17 -100 28.5 -154t132.5 -54q88 0 155 54t85 154l79 451h80l-80 -452q-23 -132 -112 -209z" />
    <glyph glyph-name="V" unicode="V" horiz-adv-x="662" 
d="M324 0h-82l-149 730h87l123 -614l340 614h87z" />
    <glyph glyph-name="W" unicode="W" horiz-adv-x="1016" 
d="M283 0h-82l-98 730h83l81 -594l285 595h73l75 -595l290 594h84l-354 -730h-82l-73 594z" />
    <glyph glyph-name="X" unicode="X" horiz-adv-x="673" 
d="M72 0h-95l324 373l-186 357h95l156 -289l257 289h95l-312 -357l194 -373h-95l-163 304z" />
    <glyph glyph-name="Y" unicode="Y" horiz-adv-x="645" 
d="M314 0h-80l56 316l-195 414h92l159 -323l272 323h92l-341 -416z" />
    <glyph glyph-name="Z" unicode="Z" horiz-adv-x="641" 
d="M548 0h-551l13 79l536 573h-425l14 78h531l-14 -79l-536 -572h445z" />
    <glyph glyph-name="bracketleft" unicode="[" horiz-adv-x="307" 
d="M221 -110h-207l158 890h206l-11 -65h-137l-134 -760h137z" />
    <glyph glyph-name="backslash" unicode="\" horiz-adv-x="492" 
d="M393 -110h-76l-197 891h76z" />
    <glyph glyph-name="bracketright" unicode="]" horiz-adv-x="307" 
d="M156 -110h-207l12 65h137l134 760h-137l12 65h206z" />
    <glyph glyph-name="asciicircum" unicode="^" horiz-adv-x="465" 
d="M120 420h-75l234 310h67l124 -310h-74l-95 241z" />
    <glyph glyph-name="underscore" unicode="_" horiz-adv-x="540" 
d="M440 0h-436l11 65h434z" />
    <glyph glyph-name="grave" unicode="`" horiz-adv-x="237" 
d="M237 574h-52l-52 156h71z" />
    <glyph glyph-name="a" unicode="a" 
d="M269 -7q-98 0 -164 69t-66 169q0 129 95.5 227.5t225.5 98.5q72 0 129 -38.5t73 -96.5l25 128h71l-96 -550h-71l18 126q-36 -58 -102 -95.5t-138 -37.5zM290 69q96 0 171.5 73t75.5 169q0 73 -48.5 122t-124.5 49q-95 0 -170.5 -74.5t-75.5 -168.5q0 -73 48.5 -121.5
t123.5 -48.5z" />
    <glyph glyph-name="b" unicode="b" 
d="M324 -7q-70 0 -126.5 38t-71.5 95l-25 -126h-71l137 780h76l-63 -356q36 58 101.5 95.5t135.5 37.5q101 0 165.5 -69t64.5 -171q0 -135 -93.5 -229.5t-229.5 -94.5zM324 69q101 0 173.5 71t72.5 171q0 73 -48.5 122t-124.5 49q-96 0 -171.5 -74t-75.5 -169
q0 -73 49 -121.5t125 -48.5z" />
    <glyph glyph-name="c" unicode="c" horiz-adv-x="604" 
d="M285 -7q-104 0 -174.5 70t-70.5 171q0 132 97 227.5t231 95.5q70 0 127 -32.5t88 -88.5l-70 -41q-22 40 -61.5 62.5t-88.5 22.5q-96 0 -170.5 -73t-74.5 -167q0 -73 48.5 -121.5t123.5 -48.5q52 0 100.5 24.5t83.5 65.5l60 -46q-103 -121 -249 -121z" />
    <glyph glyph-name="d" unicode="d" 
d="M269 -7q-98 0 -164 69t-66 169q0 130 94 228t227 98q71 0 127.5 -38t72.5 -95l63 356h76l-137 -780h-71l18 126q-37 -59 -100.5 -96t-139.5 -37zM290 69q101 0 174 72.5t73 169.5q0 73 -48.5 122t-124.5 49q-99 0 -172.5 -73.5t-73.5 -169.5q0 -73 48.5 -121.5
t123.5 -48.5z" />
    <glyph glyph-name="e" unicode="e" horiz-adv-x="642" 
d="M293 -7q-109 0 -181 70t-72 171q0 131 94.5 227t229.5 96q116 0 183.5 -76t53.5 -193q-2 -16 -10 -51h-472q-1 -75 49.5 -123.5t127.5 -48.5q113 0 189 83l56 -41q-104 -114 -248 -114zM128 298h397q11 83 -34 135.5t-129 52.5q-85 0 -151 -53.5t-83 -134.5z" />
    <glyph glyph-name="f" unicode="f" horiz-adv-x="351" 
d="M210 480l-85 -481l-75 1l84 480h-70l12 70h70l4 24q20 116 79 167.5t141 51.5q35 0 63 -10l-32 -68q-25 5 -39 5q-53 0 -87.5 -32.5t-48.5 -113.5l-4 -24h148l-12 -70h-148z" />
    <glyph glyph-name="g" unicode="g" 
d="M231 -228q-70 0 -131 29.5t-91 79.5l64 43q24 -37 68.5 -57.5t97.5 -20.5q95 0 166.5 58t92.5 173l9 47q-37 -57 -101 -94t-137 -37q-100 0 -165 69.5t-65 168.5q0 130 93.5 228t227.5 98q72 0 129 -38.5t73 -96.5l25 128h71l-82 -465q-27 -156 -117 -234.5t-228 -78.5z
M290 69q96 0 171.5 73t75.5 169q0 73 -48.5 122t-124.5 49q-99 0 -172.5 -73.5t-73.5 -169.5q0 -73 48.5 -121.5t123.5 -48.5z" />
    <glyph glyph-name="h" unicode="h" horiz-adv-x="629" 
d="M106 0h-76l137 780h76l-59 -334q73 111 197 111q100 0 153.5 -71.5t30.5 -206.5l-49 -279h-76l49 279q17 99 -21 151t-111 52t-129 -51.5t-73 -151.5z" />
    <glyph glyph-name="i" unicode="i" horiz-adv-x="232" 
d="M176 612q-19 0 -31.5 12.5t-12.5 31.5q0 24 19 42t43 18q19 0 31 -12t12 -30q0 -24 -18.5 -43t-42.5 -19zM106 0h-76l96 550h76z" />
    <glyph glyph-name="j" unicode="j" horiz-adv-x="256" 
d="M200 612q-19 0 -31.5 12.5t-12.5 31.5q0 24 19 42t43 18q19 0 31 -12t12 -30q0 -24 -18.5 -43t-42.5 -19zM-90 -230q-38 0 -70 13l34 70q21 -8 41 -8q111 0 138 149l97 556h76l-97 -556q-21 -114 -79.5 -169t-139.5 -55z" />
    <glyph glyph-name="k" unicode="k" horiz-adv-x="573" 
d="M103 0h-73l137 780h73l-88 -499l320 269h93l-251 -217l186 -333h-90l-156 277l-120 -99z" />
    <glyph glyph-name="l" unicode="l" horiz-adv-x="231" 
d="M106 0h-76l137 780h76z" />
    <glyph glyph-name="m" unicode="m" horiz-adv-x="911" 
d="M106 0h-76l96 550h71l-13 -99q28 50 73.5 78t93.5 28q66 0 107.5 -36t47.5 -91q27 56 75 91.5t109 35.5q92 0 137.5 -64.5t21.5 -198.5l-51 -294h-76l51 294q18 98 -11.5 143t-89.5 45q-58 0 -105 -45t-64 -143l-51 -294h-76l51 294q18 98 -12 143t-89 45t-106.5 -51.5
t-64.5 -151.5z" />
    <glyph glyph-name="n" unicode="n" horiz-adv-x="629" 
d="M106 0h-76l96 550h71l-15 -106q75 113 200 113q100 0 153 -71.5t30 -206.5l-49 -279h-76l49 279q17 99 -21 151t-111 52t-129 -51.5t-73 -151.5z" />
    <glyph glyph-name="o" unicode="o" horiz-adv-x="652" 
d="M282 -7q-105 0 -173.5 69.5t-68.5 171.5q0 132 94.5 227.5t236.5 95.5q103 0 172 -69.5t69 -169.5q0 -132 -94.5 -228.5t-235.5 -96.5zM290 70q103 0 173.5 72.5t70.5 168.5q0 72 -48.5 120.5t-123.5 48.5q-104 0 -174 -71.5t-70 -168.5q0 -73 48 -121.5t124 -48.5z" />
    <glyph glyph-name="p" unicode="p" horiz-adv-x="681" 
d="M60 -220h-76l135 770h71l-19 -126q37 58 102.5 95.5t137.5 37.5q99 0 164.5 -68t65.5 -169q0 -132 -91.5 -229.5t-223.5 -97.5q-71 0 -130.5 38.5t-75.5 94.5zM317 69q100 0 173 73.5t73 169.5q0 73 -48.5 121.5t-124.5 48.5q-96 0 -171 -73.5t-75 -168.5
q0 -73 48.5 -122t124.5 -49z" />
    <glyph glyph-name="q" unicode="q" horiz-adv-x="694" 
d="M525 -220h-76l61 346q-37 -59 -98.5 -96t-136.5 -37q-102 0 -167 70t-65 170q0 131 95 227.5t228 96.5q71 0 127 -38t71 -95l25 126h71zM293 69q100 0 173.5 74.5t73.5 170.5q0 73 -49 120.5t-125 47.5q-100 0 -173 -73.5t-73 -169.5q0 -73 48.5 -121.5t124.5 -48.5z" />
    <glyph glyph-name="r" unicode="r" horiz-adv-x="394" 
d="M106 0h-76l96 549l71 1l-12 -96q64 98 197 98q25 0 37 -2l-29 -74q-6 1 -20 1q-81 0 -140 -51.5t-78 -160.5z" />
    <glyph glyph-name="s" unicode="s" horiz-adv-x="558" 
d="M252 -8q-67 0 -134.5 23.5t-102.5 72.5l60 49q21 -32 73.5 -52.5t110.5 -20.5q67 0 109.5 25.5t42.5 72.5q0 32 -33 52.5t-80.5 32.5t-95 26.5t-80.5 45t-33 77.5q0 76 59.5 118.5t160.5 42.5q63 0 122.5 -20.5t92.5 -69.5l-56 -46q-21 34 -68 50.5t-95 16.5
q-61 0 -100 -20.5t-39 -61.5q0 -29 33.5 -47.5t80.5 -30.5t94.5 -27.5t81 -47.5t33.5 -81q0 -87 -67 -133.5t-170 -46.5z" />
    <glyph glyph-name="t" unicode="t" horiz-adv-x="380" 
d="M222 -8q-84 0 -118.5 55.5t-18.5 144.5l51 288h-74l11 70h77l40 180h66l-32 -180h135l-12 -70h-135l-51 -287q-19 -127 83 -127q26 0 45 8l8 -69q-32 -13 -75 -13z" />
    <glyph glyph-name="u" unicode="u" horiz-adv-x="635" 
d="M249 -7q-97 0 -151 72t-31 206l49 279h76l-49 -279q-18 -99 20 -150.5t111 -51.5t129 51.5t74 150.5l49 279h76l-96 -550h-71l14 106q-76 -113 -200 -113z" />
    <glyph glyph-name="v" unicode="v" horiz-adv-x="551" 
d="M266 0h-77l-126 550h82l102 -439l255 439h82z" />
    <glyph glyph-name="w" unicode="w" horiz-adv-x="875" 
d="M242 0h-76l-98 550h81l75 -433l223 433h77l71 -433l227 433h81l-290 -550h-76l-72 430z" />
    <glyph glyph-name="x" unicode="x" horiz-adv-x="584" 
d="M70 0h-93l263 275l-167 275h93l137 -216l211 216h93l-263 -275l167 -275h-93l-136 217z" />
    <glyph glyph-name="y" unicode="y" horiz-adv-x="563" 
d="M25 -224q-50 0 -95 21l36 68q34 -16 69 -16q47 0 86 40t85 118l-130 543h82l101 -441l255 441h82l-314 -550q-70 -120 -127 -172t-130 -52z" />
    <glyph glyph-name="z" unicode="z" horiz-adv-x="576" 
d="M474 0h-468l10 60l425 420h-351l12 70h454l-10 -62l-420 -416h360z" />
    <glyph glyph-name="braceleft" unicode="{" horiz-adv-x="325" 
d="M248 -45l-11 -65q-78 0 -108.5 39t-18.5 117l28 159q9 45 -12 71.5t-66 26.5l12 65q39 0 71 23t41 75l28 158q12 67 56.5 111.5t125.5 44.5l-12 -65q-47 0 -69.5 -20.5t-30.5 -68.5l-28 -159q-14 -89 -86 -131q55 -42 40 -131l-29 -161q-8 -49 6.5 -69t62.5 -20z" />
    <glyph glyph-name="bar" unicode="|" horiz-adv-x="230" 
d="M60 -220h-65l168 950h64z" />
    <glyph glyph-name="braceright" unicode="}" horiz-adv-x="325" 
d="M-43 -110l11 65q47 0 70 21t31 68l28 161q16 88 87 131q-56 40 -41 131l29 159q8 49 -6.5 69t-62.5 20l11 65q79 0 109 -39t18 -117l-28 -158q-9 -44 12.5 -71t66.5 -27l-12 -65q-39 0 -71 -23t-42 -75l-28 -159q-12 -67 -56.5 -111.5t-125.5 -44.5z" />
    <glyph glyph-name="asciitilde" unicode="~" horiz-adv-x="515" 
d="M372 326q-37 0 -69.5 19.5t-63 39t-60.5 19.5q-61 0 -93 -69l-51 25q25 52 64 80t85 28q38 1 71.5 -18t63.5 -39t60 -20q61 0 93 69l51 -25q-26 -54 -66 -81.5t-85 -27.5z" />
    <glyph glyph-name="exclamdown" unicode="&#xa1;" horiz-adv-x="242" 
d="M153 455q-19 0 -31 12t-12 30q0 24 18.5 42t42.5 18q18 0 30 -12t12 -30q0 -24 -18.5 -42t-41.5 -18zM73 -221h-78l115 619h65z" />
    <glyph glyph-name="cent" unicode="&#xa2;" horiz-adv-x="603" 
d="M57 328q0 123 88 216.5t213 103.5l14 82h52l-14 -82q62 -5 112 -36.5t77 -82.5l-60 -35q-44 81 -141 87l-74 -426q100 6 173 91l53 -37q-45 -55 -107 -87.5t-132 -34.5l-15 -87h-52l16 91q-90 13 -146.5 79.5t-56.5 157.5zM123 331q0 -68 41 -116t108 -57l74 420
q-90 -12 -156.5 -84.5t-66.5 -162.5z" />
    <glyph glyph-name="sterling" unicode="&#xa3;" horiz-adv-x="635" 
d="M535 0h-531l13 72h87l41 232h-68l10 60h69l15 87q24 140 101.5 214t177.5 74q60 0 106 -30.5t68 -81.5l-70 -40q-15 35 -45.5 55.5t-71.5 20.5q-68 0 -119.5 -52.5t-70.5 -159.5l-15 -87h219l-10 -60h-220l-41 -232h367z" />
    <glyph glyph-name="currency" unicode="&#xa4;" horiz-adv-x="583" 
d="M152 181l-81 -68l-36 44l80 68q-32 55 -20 125q12 67 64 123l-57 69l52 43l56 -68q66 41 131 41q69 0 116 -42l82 69l36 -43l-81 -70q24 -46 23 -97q-3 -86 -67 -150l57 -68l-51 -44l-56 68q-65 -42 -133 -42q-70 0 -115 42zM277 198q70 0 125 53.5t55 123.5
q0 52 -36 87.5t-91 35.5q-63 0 -114 -44.5t-60 -107.5q-11 -62 24 -104.5t97 -43.5z" />
    <glyph glyph-name="yen" unicode="&#xa5;" horiz-adv-x="652" 
d="M314 0h-72l29 166h-209l10 60h210l15 91h-209l10 60h177l-180 353h87l166 -333l282 333h87l-305 -353h181l-11 -60h-213l-16 -91h214l-11 -60h-213z" />
    <glyph glyph-name="brokenbar" unicode="&#xa6;" horiz-adv-x="212" 
d="M161 398h-65l67 382h65zM52 -220h-65l67 382h65z" />
    <glyph glyph-name="section" unicode="&#xa7;" horiz-adv-x="473" 
d="M200 -7q-56 0 -105.5 24.5t-75.5 69.5l58 38q16 -29 51 -48t78 -19q57 0 90 26.5t33 65.5q0 29 -27 49t-65.5 32.5t-76.5 27t-65 41.5t-27 66q0 91 101 125q-59 33 -59 92q0 72 55 116.5t135 44.5q55 0 105.5 -24.5t74.5 -68.5l-54 -36q-16 28 -50.5 47.5t-77.5 19.5
q-52 0 -86.5 -25t-34.5 -65q0 -28 27 -48t65.5 -32.5t77.5 -27t66 -42t27 -67.5q0 -91 -103 -125q59 -33 59 -93q0 -74 -56 -119t-140 -45zM272 290q40 0 70 20.5t30 55.5q0 33 -45 57.5t-93 26.5q-39 1 -69.5 -19t-30.5 -56q0 -34 47 -59.5t91 -25.5z" />
    <glyph glyph-name="dieresis" unicode="&#xa8;" horiz-adv-x="323" 
d="M123 599q-16 0 -27 11t-11 27q0 22 16.5 38t37.5 16q17 0 27.5 -10.5t10.5 -27.5q0 -22 -16.5 -38t-37.5 -16zM315 599q-17 0 -28 11t-11 27q0 22 16.5 38t37.5 16q17 0 28 -11t11 -27q0 -21 -16.5 -37.5t-37.5 -16.5z" />
    <glyph glyph-name="copyright" unicode="&#xa9;" horiz-adv-x="842" 
d="M375 -13q-138 0 -229 92.5t-91 226.5q0 119 59.5 219.5t162 158t222.5 57.5q138 0 229.5 -92t91.5 -225q0 -180 -131 -308.5t-314 -128.5zM379 30q160 0 278 116.5t118 275.5q0 117 -79 196.5t-200 79.5q-161 0 -279 -115.5t-118 -275.5q0 -118 79 -197.5t201 -79.5z
M403 158q-76 0 -125.5 49.5t-49.5 123.5q0 95 74.5 167t170.5 72q50 0 90 -22t61 -61l-47 -32q-36 61 -112 61q-70 0 -125.5 -54.5t-55.5 -123.5q0 -54 35.5 -90t91.5 -36q78 0 136 65l38 -33q-78 -86 -182 -86z" />
    <glyph glyph-name="ordfeminine" unicode="&#xaa;" horiz-adv-x="366" 
d="M177 373q-51 0 -82.5 31.5t-22.5 80.5q9 50 51 81t101 31h97q8 42 -11.5 66t-61.5 24q-49 0 -96 -34l-34 30q63 56 145 56q63 0 94 -40t19 -112l-37 -208h-51l5 45q-43 -51 -116 -51zM193 422q41 0 72.5 20.5t37.5 50.5l10 58h-90q-37 0 -63.5 -17t-31.5 -47
q-5 -29 14.5 -47t50.5 -18z" />
    <glyph glyph-name="guillemotleft" unicode="&#xab;" horiz-adv-x="404" 
d="M199 196h-63l-67 169l126 169h64l-127 -169zM337 196h-63l-67 169l127 169h63l-127 -169z" />
    <glyph glyph-name="logicalnot" unicode="&#xac;" horiz-adv-x="536" 
d="M468 190h-65l25 143h-365l11 65h430z" />
    <glyph glyph-name="registered" unicode="&#xae;" horiz-adv-x="842" 
d="M375 -13q-138 0 -229 92.5t-91 226.5q0 119 59.5 219.5t162 158t222.5 57.5q138 0 229.5 -92t91.5 -225q0 -180 -131 -308.5t-314 -128.5zM379 30q160 0 278 116.5t118 275.5q0 117 -79 196.5t-200 79.5q-161 0 -279 -115.5t-118 -275.5q0 -118 79 -197.5t201 -79.5z
M329 175h-51l67 380h119q55 0 87.5 -28t32.5 -75q0 -52 -34.5 -90.5t-85.5 -48.5l84 -138h-64l-75 129h-57zM387 504l-27 -149h71q50 0 75 27.5t26 58.5q1 29 -20 46t-54 17h-71z" />
    <glyph glyph-name="macron" unicode="&#xaf;" horiz-adv-x="470" 
d="M479 636h-360l11 65h360z" />
    <glyph glyph-name="degree" unicode="&#xb0;" horiz-adv-x="284" 
d="M190 548q-45 0 -73.5 28.5t-28.5 71.5q0 57 44 100t101 43q45 0 73.5 -29t28.5 -72q0 -56 -44.5 -99t-100.5 -43zM199 597q34 0 59.5 25.5t25.5 59.5q0 26 -16.5 42.5t-43.5 16.5q-35 0 -60 -25t-25 -61q0 -26 16.5 -42t43.5 -16z" />
    <glyph glyph-name="plusminus" unicode="&#xb1;" horiz-adv-x="535" 
d="M290 223h-65l33 183h-182l11 64h182l32 183h65l-32 -183h183l-11 -64h-183zM449 86h-430l12 65h430z" />
    <glyph glyph-name="twosuperior" unicode="&#xb2;" horiz-adv-x="358" 
d="M344 406h-295l8 43l209 163q71 55 71 114q0 32 -19.5 54t-57.5 22q-35 0 -63 -22t-40 -48l-44 16q21 47 62.5 77t89.5 30q54 0 90.5 -34t36.5 -88q0 -85 -96 -158l-153 -117h211z" />
    <glyph glyph-name="threesuperior" unicode="&#xb3;" horiz-adv-x="356" 
d="M202 401q-51 0 -89 24t-50 62l52 20q8 -23 33 -38t57 -15q44 0 75.5 27t31.5 66q0 30 -23 50.5t-59 20.5h-22l10 52h21q35 0 63 24.5t28 56.5q0 25 -19.5 39t-47.5 14q-49 0 -80 -39l-41 23q48 68 126 68q49 0 83.5 -27.5t34.5 -73.5q0 -70 -75 -109q55 -30 55 -95
q0 -66 -48 -108t-116 -42z" />
    <glyph glyph-name="acute" unicode="&#xb4;" horiz-adv-x="202" 
d="M140 574h-52l88 156h71z" />
    <glyph glyph-name="uni00B5" unicode="&#xb5;" horiz-adv-x="632" 
d="M63 -220h-76l135 770h76l-49 -282q-18 -102 19 -154t113 -52q74 0 131 52.5t75 153.5l49 282h76l-96 -550h-76l16 91q-78 -104 -202 -104q-109 0 -138 92z" />
    <glyph glyph-name="paragraph" unicode="&#xb6;" horiz-adv-x="604" 
d="M306 -131h-45l71 403h-58q-99 0 -152.5 77t-34.5 177q19 105 100 179.5t177 74.5h252l-161 -911h-45l153 866h-104z" />
    <glyph glyph-name="periodcentered" unicode="&#xb7;" horiz-adv-x="176" 
d="M95 312q-20 0 -32 12.5t-12 31.5q0 25 19 44t44 19q19 0 31.5 -12.5t12.5 -31.5q0 -25 -19.5 -44t-43.5 -19z" />
    <glyph glyph-name="cedilla" unicode="&#xb8;" horiz-adv-x="237" 
d="M28 -220q-62 0 -91 25l29 46q7 -7 26 -13t38 -6q28 0 44.5 13.5t16.5 34.5q0 34 -58 34h-35l42 86h56l-25 -49q37 -4 56 -23t19 -48q0 -44 -34 -72t-84 -28z" />
    <glyph glyph-name="onesuperior" unicode="&#xb9;" horiz-adv-x="171" 
d="M139 406h-53l69 392h-45l9 52h98z" />
    <glyph glyph-name="ordmasculine" unicode="&#xba;" horiz-adv-x="445" 
d="M244 367q-69 0 -115 46.5t-46 113.5q0 86 63.5 149t152.5 63q69 0 115.5 -46.5t46.5 -112.5q0 -86 -64 -149.5t-153 -63.5zM248 423q63 0 109.5 46.5t46.5 106.5q0 46 -31 76.5t-79 30.5q-62 0 -108 -46t-46 -107q0 -46 30 -76.5t78 -30.5z" />
    <glyph glyph-name="guillemotright" unicode="&#xbb;" horiz-adv-x="404" 
d="M102 196h-63l127 169l-68 169h64l67 -169zM240 196h-63l127 169l-67 169h63l67 -169z" />
    <glyph glyph-name="onequarter" unicode="&#xbc;" horiz-adv-x="638" 
d="M59 0h-61l541 781h61zM137 336h-53l68 392h-45l10 52h98zM532 0h-53l20 114h-232l9 53l272 277h62l-49 -277h30l-9 -53h-30zM544 371l-204 -204h168z" />
    <glyph glyph-name="onehalf" unicode="&#xbd;" horiz-adv-x="727" 
d="M61 0h-62l541 781h62zM138 336h-53l69 392h-47l10 52h99zM634 0h-295l7 43l210 163q70 54 70 114q0 32 -19 54t-57 22q-35 0 -63 -22t-41 -48l-44 16q21 47 64 77t92 30q53 0 88 -33.5t35 -86.5q0 -88 -96 -160l-152 -117h210z" />
    <glyph glyph-name="threequarters" unicode="&#xbe;" horiz-adv-x="798" 
d="M220 0h-61l541 781h61zM196 324q-51 0 -90 24.5t-50 61.5l52 20q8 -23 33 -38t57 -15q44 0 75.5 26.5t31.5 67.5q0 30 -23 50t-59 20h-22l9 52h21q35 0 63.5 23.5t28.5 56.5q0 26 -19.5 40t-47.5 14q-49 0 -80 -39l-42 23q21 30 57.5 49t74.5 19q49 0 80.5 -26.5
t31.5 -70.5q0 -72 -74 -113q25 -14 40 -39.5t15 -56.5q0 -65 -48 -107t-115 -42zM693 0h-53l19 114h-232l10 53l272 277h62l-49 -277h30l-10 -53h-30zM705 371l-204 -204h168z" />
    <glyph glyph-name="questiondown" unicode="&#xbf;" horiz-adv-x="560" 
d="M321 448q-18 0 -30 12t-12 29q0 24 18 42.5t41 18.5q19 0 31.5 -12t12.5 -31q0 -24 -18.5 -41.5t-42.5 -17.5zM202 -201q-84 0 -141 50.5t-57 127.5q0 84 46 144t138 128q34 25 54 51t27 65l6 35h76l-7 -41q-17 -92 -108 -157q-77 -52 -115 -102.5t-38 -111.5
q0 -50 34.5 -81.5t91.5 -31.5t105.5 36t74.5 87l65 -27q-38 -76 -106 -124t-146 -48z" />
    <glyph glyph-name="Agrave" unicode="&#xc0;" horiz-adv-x="677" 
d="M452 812h-52l-53 156h72zM61 0h-89l403 730h87l147 -730h-85l-43 211h-304zM401 623l-186 -337h255z" />
    <glyph glyph-name="Aacute" unicode="&#xc1;" horiz-adv-x="677" 
d="M463 812h-53l88 156h72zM61 0h-89l403 730h87l147 -730h-85l-43 211h-304zM401 623l-186 -337h255z" />
    <glyph glyph-name="Acircumflex" unicode="&#xc2;" horiz-adv-x="677" 
d="M360 824h-70l128 125h72l85 -125h-70l-58 83zM61 0h-89l403 730h87l147 -730h-85l-43 211h-304zM401 623l-186 -337h255z" />
    <glyph glyph-name="Atilde" unicode="&#xc3;" horiz-adv-x="677" 
d="M508 830q-23 -2 -42 8.5t-29 24.5t-23 26t-25 12q-34 0 -46 -61h-54q8 49 35.5 80.5t64.5 32.5q23 1 41.5 -10t28 -25t22.5 -25.5t26 -11.5q33 0 43 61h55q-10 -52 -35.5 -81.5t-61.5 -30.5zM61 0h-89l403 730h87l147 -730h-85l-43 211h-304zM401 623l-186 -337h255z" />
    <glyph glyph-name="Adieresis" unicode="&#xc4;" horiz-adv-x="677" 
d="M346 844q-16 0 -27 11t-11 28q0 21 16.5 37t37.5 16q16 0 27 -10.5t11 -26.5q0 -22 -16.5 -38.5t-37.5 -16.5zM538 844q-17 0 -28 11t-11 28q0 21 16.5 37t37.5 16q17 0 28 -10.5t11 -26.5q0 -21 -17 -38t-37 -17zM61 0h-89l403 730h87l147 -730h-85l-43 211h-304z
M401 623l-186 -337h255z" />
    <glyph glyph-name="Aring" unicode="&#xc5;" horiz-adv-x="677" 
d="M518 813q-39 -32 -85 -32t-74 31.5t-20 77.5q9 47 48 78.5t85 31.5t73.5 -32t18.5 -78q-7 -46 -46 -77zM441 830q26 0 46 17.5t24 42.5q5 26 -9 43.5t-39 17.5t-45.5 -17.5t-25.5 -43.5q-4 -26 10 -43t39 -17zM61 0h-89l403 730h87l147 -730h-85l-43 211h-304zM401 623
l-186 -337h255z" />
    <glyph glyph-name="AE" unicode="&#xc6;" horiz-adv-x="940" 
d="M847 -1h-450l43 243h-256l-132 -242h-90l406 730h604l-13 -75h-367l-42 -241h346l-13 -74h-346l-47 -263h370zM408 655l-186 -338h231l60 338h-105z" />
    <glyph glyph-name="Ccedilla" unicode="&#xc7;" horiz-adv-x="775" 
d="M336 -220q-58 0 -87 25l29 46q7 -7 25.5 -13t37.5 -6q29 0 45.5 13.5t16.5 34.5q0 34 -58 34h-35l37 78q-125 13 -203.5 101t-78.5 213q0 174 129.5 303.5t307.5 129.5q90 0 161.5 -38.5t114.5 -106.5l-72 -47q-32 51 -87 81t-123 30q-90 0 -171 -48.5t-129.5 -128.5
t-48.5 -168q0 -105 69.5 -173.5t176.5 -68.5q71 0 137.5 31t115.5 85l69 -47q-60 -68 -141.5 -108t-172.5 -43l-18 -38q37 -4 56 -22t19 -46q0 -43 -36.5 -73t-85.5 -30z" />
    <glyph glyph-name="Egrave" unicode="&#xc8;" horiz-adv-x="596" 
d="M442 812h-52l-52 156h71zM496 0h-456l128 730h446l-14 -75h-366l-43 -243h347l-13 -74h-347l-46 -261h377z" />
    <glyph glyph-name="Eacute" unicode="&#xc9;" horiz-adv-x="596" 
d="M430 812h-52l88 156h71zM496 0h-456l128 730h446l-14 -75h-366l-43 -243h347l-13 -74h-347l-46 -261h377z" />
    <glyph glyph-name="Ecircumflex" unicode="&#xca;" horiz-adv-x="596" 
d="M344 828h-70l128 125h72l85 -125h-70l-58 83zM496 0h-456l128 730h446l-14 -75h-366l-43 -243h347l-13 -74h-347l-46 -261h377z" />
    <glyph glyph-name="Edieresis" unicode="&#xcb;" horiz-adv-x="596" 
d="M312 844q-17 0 -28 11t-11 28q0 21 16.5 37t37.5 16q17 0 28 -10.5t11 -26.5q0 -21 -17 -38t-37 -17zM503 844q-17 0 -28 11t-11 28q0 21 17 37t38 16q16 0 27 -10.5t11 -26.5q0 -21 -16.5 -38t-37.5 -17zM496 0h-456l128 730h446l-14 -75h-366l-43 -243h347l-13 -74
h-347l-46 -261h377z" />
    <glyph glyph-name="Igrave" unicode="&#xcc;" horiz-adv-x="255" 
d="M262 812h-53l-52 156h71zM119 0h-79l128 730h79z" />
    <glyph glyph-name="Iacute" unicode="&#xcd;" horiz-adv-x="252" 
d="M241 812h-52l88 156h71zM120 0h-80l128 730h80z" />
    <glyph glyph-name="Icircumflex" unicode="&#xce;" horiz-adv-x="255" 
d="M152 828h-70l129 125h72l84 -125h-70l-58 83zM122 0h-80l128 730h80z" />
    <glyph glyph-name="Idieresis" unicode="&#xcf;" horiz-adv-x="255" 
d="M147 844q-16 0 -27 11t-11 28q0 21 16.5 37t37.5 16q16 0 27 -10.5t11 -26.5q0 -22 -16.5 -38.5t-37.5 -16.5zM309 844q-17 0 -28 11t-11 28q0 21 16.5 37t37.5 16q17 0 28 -10.5t11 -26.5q0 -21 -16.5 -38t-37.5 -17zM123 0h-79l128 730h79z" />
    <glyph glyph-name="Eth" unicode="&#xd0;" horiz-adv-x="748" 
d="M268 0h-226l58 333h-50l12 65h50l58 332h213q148 0 240 -87.5t92 -218.5q0 -178 -130 -301t-317 -123zM180 333l-45 -254h139q148 0 252.5 99t104.5 239q0 101 -69 168t-187 67l-139 -1l-45 -253h251l-11 -65h-251z" />
    <glyph glyph-name="Ntilde" unicode="&#xd1;" horiz-adv-x="785" 
d="M550 830q-23 -2 -42 8.5t-29 24.5t-23 26t-25 12q-34 0 -46 -61h-54q8 49 35.5 80.5t64.5 32.5q23 1 41.5 -10t28 -25t22.5 -25.5t26 -11.5q33 0 43 61h55q-10 -52 -35.5 -81.5t-61.5 -30.5zM119 0h-79l128 730h79l347 -591l104 591h80l-128 -730h-80l-347 593z" />
    <glyph glyph-name="Ograve" unicode="&#xd2;" horiz-adv-x="858" 
d="M546 812h-52l-53 156h72zM388 -11q-141 0 -232 90.5t-91 226.5q0 115 55.5 214t156.5 159t225 60q141 0 232 -90.5t91 -225.5q0 -115 -55.5 -214t-156.5 -159.5t-225 -60.5zM393 71q145 0 247 103.5t102 242.5q0 103 -69.5 172t-176.5 69q-146 0 -247.5 -104t-101.5 -241
q0 -105 69.5 -173.5t176.5 -68.5z" />
    <glyph glyph-name="Oacute" unicode="&#xd3;" horiz-adv-x="858" 
d="M552 812h-53l88 156h72zM388 -11q-141 0 -232 90.5t-91 226.5q0 115 55.5 214t156.5 159t225 60q141 0 232 -90.5t91 -225.5q0 -115 -55.5 -214t-156.5 -159.5t-225 -60.5zM393 71q145 0 247 103.5t102 242.5q0 103 -69.5 172t-176.5 69q-146 0 -247.5 -104t-101.5 -241
q0 -105 69.5 -173.5t176.5 -68.5z" />
    <glyph glyph-name="Ocircumflex" unicode="&#xd4;" horiz-adv-x="858" 
d="M448 828h-70l129 125h72l84 -125h-70l-57 83zM388 -11q-141 0 -232 90.5t-91 226.5q0 115 55.5 214t156.5 159t225 60q141 0 232 -90.5t91 -225.5q0 -115 -55.5 -214t-156.5 -159.5t-225 -60.5zM393 71q145 0 247 103.5t102 242.5q0 103 -69.5 172t-176.5 69
q-146 0 -247.5 -104t-101.5 -241q0 -105 69.5 -173.5t176.5 -68.5z" />
    <glyph glyph-name="Otilde" unicode="&#xd5;" horiz-adv-x="858" 
d="M595 830q-23 -2 -42 8.5t-29.5 24.5t-23 26t-24.5 12q-35 0 -46 -61h-55q9 49 36.5 80.5t64.5 32.5q23 1 41.5 -10t28 -25t22.5 -25.5t26 -11.5q32 0 43 61h54q-9 -51 -35 -81t-61 -31zM388 -11q-141 0 -232 90.5t-91 226.5q0 115 55.5 214t156.5 159t225 60
q141 0 232 -90.5t91 -225.5q0 -115 -55.5 -214t-156.5 -159.5t-225 -60.5zM393 71q145 0 247 103.5t102 242.5q0 103 -69.5 172t-176.5 69q-146 0 -247.5 -104t-101.5 -241q0 -105 69.5 -173.5t176.5 -68.5z" />
    <glyph glyph-name="Odieresis" unicode="&#xd6;" horiz-adv-x="858" 
d="M423 844q-16 0 -27 11t-11 28q0 21 16.5 37t37.5 16q16 0 27 -10.5t11 -26.5q0 -22 -16.5 -38.5t-37.5 -16.5zM615 844q-17 0 -28 11t-11 28q0 21 16.5 37t37.5 16q17 0 28 -10.5t11 -26.5q0 -21 -16.5 -38t-37.5 -17zM388 -11q-141 0 -232 90.5t-91 226.5
q0 115 55.5 214t156.5 159t225 60q141 0 232 -90.5t91 -225.5q0 -115 -55.5 -214t-156.5 -159.5t-225 -60.5zM393 71q145 0 247 103.5t102 242.5q0 103 -69.5 172t-176.5 69q-146 0 -247.5 -104t-101.5 -241q0 -105 69.5 -173.5t176.5 -68.5z" />
    <glyph glyph-name="multiply" unicode="&#xd7;" horiz-adv-x="488" 
d="M431 224l-60 -53l-116 142l-167 -141l-43 52l166 141l-117 141l63 52l116 -141l166 142l42 -53l-166 -141z" />
    <glyph glyph-name="Oslash" unicode="&#xd8;" horiz-adv-x="861" 
d="M158 81l-89 -75l-38 45l90 77q-54 79 -54 178q0 115 55.5 214t157 159t225.5 60q139 0 229 -90l89 75l37 -45l-88 -75q56 -78 56 -181q0 -115 -55.5 -214t-157 -159.5t-225.5 -60.5q-140 0 -232 92zM189 186l477 405q-64 67 -167 67q-146 0 -247.5 -104t-101.5 -241
q0 -72 39 -127zM396 71q145 0 247 103.5t102 242.5q0 72 -40 130l-479 -408q65 -68 170 -68z" />
    <glyph glyph-name="Ugrave" unicode="&#xd9;" horiz-adv-x="715" 
d="M483 812h-52l-52 156h71zM308 -9q-121 0 -187 78t-43 209l80 452h79l-79 -451q-17 -100 28.5 -154t132.5 -54q88 0 155 54t85 154l79 451h80l-80 -452q-23 -131 -116.5 -209t-213.5 -78z" />
    <glyph glyph-name="Uacute" unicode="&#xda;" horiz-adv-x="715" 
d="M470 812h-52l88 156h71zM308 -9q-121 0 -187 78t-43 209l80 452h79l-79 -451q-17 -100 28.5 -154t132.5 -54q88 0 155 54t85 154l79 451h80l-80 -452q-23 -131 -116.5 -209t-213.5 -78z" />
    <glyph glyph-name="Ucircumflex" unicode="&#xdb;" horiz-adv-x="715" 
d="M376 828h-70l129 125h72l84 -125h-70l-58 83zM308 -9q-121 0 -187 78t-43 209l80 452h79l-79 -451q-17 -100 28.5 -154t132.5 -54q88 0 155 54t85 154l79 451h80l-80 -452q-23 -131 -116.5 -209t-213.5 -78z" />
    <glyph glyph-name="Udieresis" unicode="&#xdc;" horiz-adv-x="715" 
d="M366 844q-19 0 -30 13.5t-8 32.5q4 19 19.5 32.5t34.5 13.5t30 -13.5t7 -32.5q-3 -19 -18.5 -32.5t-34.5 -13.5zM558 844q-19 0 -30.5 13.5t-8.5 32.5q4 19 19.5 32.5t34.5 13.5t30 -13.5t7 -32.5q-3 -19 -18.5 -32.5t-33.5 -13.5zM308 -9q-121 0 -187 78t-43 209l80 452
h79l-79 -451q-17 -100 28.5 -154t132.5 -54q88 0 155 54t85 154l79 451h80l-80 -452q-23 -131 -116.5 -209t-213.5 -78z" />
    <glyph glyph-name="Yacute" unicode="&#xdd;" horiz-adv-x="645" 
d="M437 812h-53l88 156h71zM314 0h-80l56 316l-195 414h92l159 -323l272 323h92l-341 -416z" />
    <glyph glyph-name="Thorn" unicode="&#xde;" horiz-adv-x="657" 
d="M122 0h-80l128 730h80l-25 -140h197q92 0 147 -55t55 -138q0 -109 -82 -183t-197 -74h-199zM212 512l-52 -294h195q76 0 131 51t56 120q1 52 -35.5 87.5t-99.5 35.5h-195z" />
    <glyph glyph-name="germandbls" unicode="&#xdf;" horiz-adv-x="623" 
d="M320 -10q-41 0 -80.5 9t-56.5 21l13 72q52 -30 121 -30q72 0 124.5 49.5t52.5 120.5q0 36 -21.5 62.5t-48 39.5t-48 32.5t-21.5 42.5t13.5 42t32.5 34t38.5 31t33 41t13.5 57q0 46 -30 77t-84 31q-52 0 -96.5 -34t-58.5 -113l-101 -575h-74l103 586q16 96 79 150t156 54
q83 0 133.5 -49t50.5 -119q0 -38 -13.5 -69t-32 -49.5t-37.5 -32.5t-32.5 -26.5t-13.5 -24.5t21 -27.5t46 -31t46 -50t21 -79.5q0 -102 -72 -172t-177 -70z" />
    <glyph glyph-name="agrave" unicode="&#xe0;" 
d="M442 642h-53l-51 156h71zM269 -7q-98 0 -164 69t-66 169q0 129 95.5 227.5t225.5 98.5q72 0 129 -38.5t73 -96.5l25 128h71l-96 -550h-71l18 126q-36 -58 -102 -95.5t-138 -37.5zM290 69q96 0 171.5 73t75.5 169q0 73 -48.5 122t-124.5 49q-95 0 -170.5 -74.5
t-75.5 -168.5q0 -73 48.5 -121.5t123.5 -48.5z" />
    <glyph glyph-name="aacute" unicode="&#xe1;" 
d="M413 642h-53l89 156h71zM269 -7q-98 0 -164 69t-66 169q0 129 95.5 227.5t225.5 98.5q72 0 129 -38.5t73 -96.5l25 128h71l-96 -550h-71l18 126q-36 -58 -102 -95.5t-138 -37.5zM290 69q96 0 171.5 73t75.5 169q0 73 -48.5 122t-124.5 49q-95 0 -170.5 -74.5
t-75.5 -168.5q0 -73 48.5 -121.5t123.5 -48.5z" />
    <glyph glyph-name="acircumflex" unicode="&#xe2;" 
d="M333 658h-70l128 125h72l85 -125h-70l-58 83zM269 -7q-98 0 -164 69t-66 169q0 129 95.5 227.5t225.5 98.5q72 0 129 -38.5t73 -96.5l25 128h71l-96 -550h-71l18 126q-36 -58 -102 -95.5t-138 -37.5zM290 69q96 0 171.5 73t75.5 169q0 73 -48.5 122t-124.5 49
q-95 0 -170.5 -74.5t-75.5 -168.5q0 -73 48.5 -121.5t123.5 -48.5z" />
    <glyph glyph-name="atilde" unicode="&#xe3;" 
d="M476 660q-21 0 -39 11t-27.5 24.5t-21.5 24.5t-24 11q-35 0 -46 -61h-55q9 50 38.5 81.5t67.5 31.5q22 0 39 -11.5t26 -25t22 -24.5t26 -11q32 0 42 61h55q-10 -53 -37 -82.5t-66 -29.5zM269 -7q-98 0 -164 69t-66 169q0 129 95.5 227.5t225.5 98.5q72 0 129 -38.5
t73 -96.5l25 128h71l-96 -550h-71l18 126q-36 -58 -102 -95.5t-138 -37.5zM290 69q96 0 171.5 73t75.5 169q0 73 -48.5 122t-124.5 49q-95 0 -170.5 -74.5t-75.5 -168.5q0 -73 48.5 -121.5t123.5 -48.5z" />
    <glyph glyph-name="adieresis" unicode="&#xe4;" 
d="M311 674q-17 0 -28 11t-11 28q0 21 16.5 37t37.5 16q17 0 28 -10.5t11 -26.5q0 -21 -16.5 -38t-37.5 -17zM502 674q-17 0 -28 11t-11 28q0 21 17 37t38 16q16 0 27 -10.5t11 -26.5q0 -21 -17 -38t-37 -17zM269 -7q-98 0 -164 69t-66 169q0 129 95.5 227.5t225.5 98.5
q72 0 129 -38.5t73 -96.5l25 128h71l-96 -550h-71l18 126q-36 -58 -102 -95.5t-138 -37.5zM290 69q96 0 171.5 73t75.5 169q0 73 -48.5 122t-124.5 49q-95 0 -170.5 -74.5t-75.5 -168.5q0 -73 48.5 -121.5t123.5 -48.5z" />
    <glyph glyph-name="aring" unicode="&#xe5;" 
d="M386 611q-41 0 -69 26t-28 65q0 52 41 90t93 38q40 0 67.5 -26t27.5 -65q0 -52 -40.5 -90t-91.5 -38zM393 660q29 0 50 21t21 51q0 22 -13.5 35.5t-35.5 13.5q-29 0 -50 -21t-21 -51q0 -21 13.5 -35t35.5 -14zM269 -7q-98 0 -164 69t-66 169q0 129 95.5 227.5t225.5 98.5
q72 0 129 -38.5t73 -96.5l25 128h71l-96 -550h-71l18 126q-36 -58 -102 -95.5t-138 -37.5zM290 69q96 0 171.5 73t75.5 169q0 73 -48.5 122t-124.5 49q-95 0 -170.5 -74.5t-75.5 -168.5q0 -73 48.5 -121.5t123.5 -48.5z" />
    <glyph glyph-name="ae" unicode="&#xe6;" horiz-adv-x="1024" 
d="M213 -10q-94 0 -147 49t-40 125t80 122.5t171 46.5h185q13 72 -25 115t-116 43q-107 0 -180 -61l-41 42q102 87 240 87q75 0 124.5 -36t61.5 -99q44 64 111 99.5t138 35.5q104 0 167 -71t44 -176q-5 -27 -10 -45h-442q-15 -96 30.5 -152t128.5 -56q106 0 184 83l53 -37
q-48 -53 -114 -84t-132 -31q-82 0 -137 42t-73 111q-40 -73 -109 -113t-152 -40zM547 332h368q8 68 -34 111.5t-112 43.5q-77 0 -138.5 -47t-83.5 -108zM228 62q90 0 147.5 52.5t70.5 127.5l5 25h-180q-69 0 -113.5 -27.5t-52.5 -73.5q-8 -48 26 -76t97 -28z" />
    <glyph glyph-name="ccedilla" unicode="&#xe7;" horiz-adv-x="604" 
d="M232 -220q-58 0 -87 25l29 46q7 -7 25.5 -13t37.5 -6q29 0 45.5 13.5t16.5 34.5q0 34 -58 34h-35l40 84q-90 13 -148 79t-58 157q0 132 97 227.5t231 95.5q70 0 127 -32.5t88 -88.5l-70 -41q-22 40 -61.5 62.5t-88.5 22.5q-96 0 -170.5 -73t-74.5 -167q0 -73 48.5 -121.5
t123.5 -48.5q52 0 100.5 24.5t83.5 65.5l60 -46q-98 -114 -235 -120l-20 -43q38 -4 57 -23.5t18 -48.5q-2 -43 -38 -71t-84 -28z" />
    <glyph glyph-name="egrave" unicode="&#xe8;" horiz-adv-x="642" 
d="M421 642h-53l-51 156h71zM293 -7q-109 0 -181 70t-72 171q0 131 94.5 227t229.5 96q116 0 183.5 -76t53.5 -193q-2 -16 -10 -51h-472q-1 -75 49.5 -123.5t127.5 -48.5q113 0 189 83l56 -41q-104 -114 -248 -114zM128 298h397q11 83 -34 135.5t-129 52.5q-85 0 -151 -53.5
t-83 -134.5z" />
    <glyph glyph-name="eacute" unicode="&#xe9;" horiz-adv-x="642" 
d="M405 642h-52l89 156h71zM293 -7q-109 0 -181 70t-72 171q0 131 94.5 227t229.5 96q116 0 183.5 -76t53.5 -193q-2 -16 -10 -51h-472q-1 -75 49.5 -123.5t127.5 -48.5q113 0 189 83l56 -41q-104 -114 -248 -114zM128 298h397q11 83 -34 135.5t-129 52.5q-85 0 -151 -53.5
t-83 -134.5z" />
    <glyph glyph-name="ecircumflex" unicode="&#xea;" horiz-adv-x="642" 
d="M321 658h-70l129 125h72l84 -125h-70l-57 83zM293 -7q-109 0 -181 70t-72 171q0 131 94.5 227t229.5 96q116 0 183.5 -76t53.5 -193q-2 -16 -10 -51h-472q-1 -75 49.5 -123.5t127.5 -48.5q113 0 189 83l56 -41q-104 -114 -248 -114zM128 298h397q11 83 -34 135.5
t-129 52.5q-85 0 -151 -53.5t-83 -134.5z" />
    <glyph glyph-name="edieresis" unicode="&#xeb;" horiz-adv-x="642" 
d="M296 674q-17 0 -28 11t-11 28q0 21 16.5 37t37.5 16q17 0 28 -10.5t11 -26.5q0 -21 -17 -38t-37 -17zM487 674q-17 0 -28 11t-11 28q0 21 17 37t38 16q16 0 27 -10.5t11 -26.5q0 -21 -16.5 -38t-37.5 -17zM293 -7q-109 0 -181 70t-72 171q0 131 94.5 227t229.5 96
q116 0 183.5 -76t53.5 -193q-2 -16 -10 -51h-472q-1 -75 49.5 -123.5t127.5 -48.5q113 0 189 83l56 -41q-104 -114 -248 -114zM128 298h397q11 83 -34 135.5t-129 52.5q-85 0 -151 -53.5t-83 -134.5z" />
    <glyph glyph-name="igrave" unicode="&#xec;" horiz-adv-x="231" 
d="M205 642h-53l-51 156h71zM106 0h-76l96 550h76z" />
    <glyph glyph-name="iacute" unicode="&#xed;" horiz-adv-x="231" 
d="M204 642h-53l89 156h71zM106 0h-76l96 550h76z" />
    <glyph glyph-name="icircumflex" unicode="&#xee;" horiz-adv-x="231" 
d="M110 658h-70l129 125h72l84 -125h-70l-57 83zM106 0h-76l96 550h76z" />
    <glyph glyph-name="idieresis" unicode="&#xef;" horiz-adv-x="231" 
d="M110 678q-16 0 -26 10t-10 25q0 20 15 34.5t35 14.5q15 0 25 -9.5t10 -23.5q0 -21 -15 -36t-34 -15zM266 678q-16 0 -26 10t-10 25q0 20 15 34.5t35 14.5q15 0 25 -9.5t10 -23.5q0 -21 -15 -36t-34 -15zM107 0h-76l96 550h76z" />
    <glyph glyph-name="eth" unicode="&#xf0;" horiz-adv-x="565" 
d="M238 -10q-91 0 -149 54t-58 137q0 114 77.5 195t197.5 81q49 0 91 -26.5t55 -66.5q6 134 -67 231l-213 -104l-16 44l196 95q-55 56 -144 94l58 56q99 -41 163 -112l117 57l16 -45l-103 -50q75 -105 73 -260q-4 -167 -86 -273.5t-208 -106.5zM243 61q71 0 129.5 63.5
t58.5 131.5q0 57 -36.5 93.5t-94.5 36.5q-78 0 -136.5 -58t-58.5 -133q0 -57 39 -95.5t99 -38.5z" />
    <glyph glyph-name="ntilde" unicode="&#xf1;" horiz-adv-x="591" 
d="M428 660q-24 -2 -43 9t-29 25.5t-23 26t-26 10.5q-33 -2 -44 -61h-55q9 49 37 80.5t65 32.5q23 1 41.5 -10t28 -25.5t22.5 -26t27 -10.5q30 2 41 61h54q-9 -51 -35 -81t-61 -31zM81 0h-77l97 550h71l-15 -106q33 50 85.5 81.5t117.5 31.5q102 0 152.5 -71t27.5 -207
l-49 -279h-76l49 279q17 99 -21 151t-111 52t-129 -51.5t-73 -151.5z" />
    <glyph glyph-name="ograve" unicode="&#xf2;" horiz-adv-x="653" 
d="M421 642h-52l-52 156h72zM283 -7q-106 0 -174.5 69.5t-68.5 171.5q0 134 94.5 228.5t236.5 94.5q103 0 172 -69.5t69 -169.5q0 -133 -94 -229t-235 -96zM290 70q103 0 173.5 72.5t70.5 168.5q0 72 -48.5 120.5t-122.5 48.5q-104 0 -174.5 -71.5t-70.5 -168.5
q0 -73 48.5 -121.5t123.5 -48.5z" />
    <glyph glyph-name="oacute" unicode="&#xf3;" horiz-adv-x="653" 
d="M413 642h-53l89 156h71zM283 -7q-106 0 -174.5 69.5t-68.5 171.5q0 134 94.5 228.5t236.5 94.5q103 0 172 -69.5t69 -169.5q0 -133 -94 -229t-235 -96zM290 70q103 0 173.5 72.5t70.5 168.5q0 72 -48.5 120.5t-122.5 48.5q-104 0 -174.5 -71.5t-70.5 -168.5
q0 -73 48.5 -121.5t123.5 -48.5z" />
    <glyph glyph-name="ocircumflex" unicode="&#xf4;" horiz-adv-x="653" 
d="M322 658h-70l129 125h72l84 -125h-70l-57 83zM283 -7q-106 0 -174.5 69.5t-68.5 171.5q0 134 94.5 228.5t236.5 94.5q103 0 172 -69.5t69 -169.5q0 -133 -94 -229t-235 -96zM290 70q103 0 173.5 72.5t70.5 168.5q0 72 -48.5 120.5t-122.5 48.5q-104 0 -174.5 -71.5
t-70.5 -168.5q0 -73 48.5 -121.5t123.5 -48.5z" />
    <glyph glyph-name="otilde" unicode="&#xf5;" horiz-adv-x="653" 
d="M464 660q-23 -2 -42 8.5t-29 24.5t-22.5 26t-24.5 12q-36 0 -46 -61h-55q9 49 37 80.5t65 32.5q23 1 40.5 -10t27 -24.5t22.5 -25.5t26 -12q33 0 43 61h55q-9 -52 -35 -81.5t-62 -30.5zM283 -7q-106 0 -174.5 69.5t-68.5 171.5q0 134 94.5 228.5t236.5 94.5
q103 0 172 -69.5t69 -169.5q0 -133 -94 -229t-235 -96zM290 70q103 0 173.5 72.5t70.5 168.5q0 72 -48.5 120.5t-122.5 48.5q-104 0 -174.5 -71.5t-70.5 -168.5q0 -73 48.5 -121.5t123.5 -48.5z" />
    <glyph glyph-name="odieresis" unicode="&#xf6;" horiz-adv-x="653" 
d="M300 674q-17 0 -28 11t-11 28q0 21 17 37t38 16q16 0 27 -10.5t11 -26.5q0 -21 -17 -38t-37 -17zM491 674q-17 0 -28 11t-11 28q0 21 17 37t38 16q16 0 27 -10.5t11 -26.5q0 -21 -16.5 -38t-37.5 -17zM283 -7q-106 0 -174.5 69.5t-68.5 171.5q0 134 94.5 228.5
t236.5 94.5q103 0 172 -69.5t69 -169.5q0 -133 -94 -229t-235 -96zM290 70q103 0 173.5 72.5t70.5 168.5q0 72 -48.5 120.5t-122.5 48.5q-104 0 -174.5 -71.5t-70.5 -168.5q0 -73 48.5 -121.5t123.5 -48.5z" />
    <glyph glyph-name="divide" unicode="&#xf7;" horiz-adv-x="535" 
d="M302 468q-19 0 -31 12t-12 30q0 24 18.5 42t42.5 18q18 0 30 -12t12 -31q0 -23 -18.5 -41t-41.5 -18zM493 336h-430l11 59h430zM247 161q-19 0 -30.5 12t-11.5 30q0 24 18.5 42t42.5 18q18 0 29.5 -12t11.5 -31q0 -24 -18.5 -41.5t-41.5 -17.5z" />
    <glyph glyph-name="oslash" unicode="&#xf8;" horiz-adv-x="649" 
d="M107 64l-76 -65l-32 39l77 65q-37 61 -37 131q0 134 94 228.5t237 94.5q97 0 166 -64l82 70l30 -39l-80 -68q43 -62 43 -138q0 -133 -94 -229t-236 -96q-103 0 -174 71zM139 157l333 283q-46 43 -113 43q-104 0 -174.5 -71.5t-70.5 -166.5q0 -49 25 -88zM291 68
q102 0 173.5 71.5t71.5 167.5q0 53 -31 95l-335 -285q46 -49 121 -49z" />
    <glyph glyph-name="ugrave" unicode="&#xf9;" horiz-adv-x="635" 
d="M408 642h-52l-52 156h72zM246 -7q-101 0 -152 71.5t-27 206.5l49 279h76l-49 -279q-18 -99 20 -150.5t111 -51.5t129 51.5t74 150.5l49 279h76l-96 -550h-71l14 106q-33 -50 -86 -81.5t-117 -31.5z" />
    <glyph glyph-name="uacute" unicode="&#xfa;" horiz-adv-x="635" 
d="M377 644h-53l89 156h72zM246 -7q-101 0 -152 71.5t-27 206.5l49 279h76l-49 -279q-18 -99 20 -150.5t111 -51.5t129 51.5t74 150.5l49 279h76l-96 -550h-71l14 106q-33 -50 -86 -81.5t-117 -31.5z" />
    <glyph glyph-name="ucircumflex" unicode="&#xfb;" horiz-adv-x="635" 
d="M306 658h-70l128 125h72l85 -125h-70l-58 83zM246 -7q-101 0 -152 71.5t-27 206.5l49 279h76l-49 -279q-18 -99 20 -150.5t111 -51.5t129 51.5t74 150.5l49 279h76l-96 -550h-71l14 106q-33 -50 -86 -81.5t-117 -31.5z" />
    <glyph glyph-name="udieresis" unicode="&#xfc;" horiz-adv-x="635" 
d="M286 674q-19 0 -30.5 13.5t-8.5 32.5q5 20 20.5 33t34.5 13q18 0 29.5 -13.5t7.5 -32.5t-19.5 -32.5t-33.5 -13.5zM477 674q-19 0 -30.5 13.5t-7.5 32.5t19.5 32.5t34.5 13.5q18 0 29.5 -13.5t7.5 -32.5q-3 -19 -18.5 -32.5t-34.5 -13.5zM246 -7q-101 0 -152 71.5
t-27 206.5l49 279h76l-49 -279q-18 -99 20 -150.5t111 -51.5t129 51.5t74 150.5l49 279h76l-96 -550h-71l14 106q-33 -50 -86 -81.5t-117 -31.5z" />
    <glyph glyph-name="yacute" unicode="&#xfd;" horiz-adv-x="563" 
d="M350 642h-52l88 156h72zM25 -224q-50 0 -95 21l36 68q34 -16 69 -16q47 0 86 40t85 118l-130 543h82l101 -441l255 441h82l-314 -550q-70 -120 -127 -172t-130 -52z" />
    <glyph glyph-name="thorn" unicode="&#xfe;" horiz-adv-x="697" 
d="M72 -220h-77l177 1000h76l-61 -340q42 55 103.5 87t130.5 32q106 0 171 -69t65 -171q0 -135 -99.5 -233t-230.5 -98q-68 0 -121.5 33t-76.5 87zM330 65q97 0 173.5 75.5t76.5 169.5q0 74 -50 123.5t-126 49.5q-98 0 -173.5 -74.5t-75.5 -171.5q0 -74 49 -123t126 -49z
" />
    <glyph glyph-name="ydieresis" unicode="&#xff;" horiz-adv-x="563" 
d="M257 674q-17 0 -28 11t-11 28q0 21 17 37t38 16q16 0 27 -10.5t11 -26.5q0 -21 -16.5 -38t-37.5 -17zM448 674q-16 0 -27.5 11t-11.5 28q0 21 17 37t38 16q16 0 27 -10.5t11 -26.5q0 -21 -17 -38t-37 -17zM25 -224q-50 0 -95 21l36 68q34 -16 69 -16q47 0 84 37.5
t83 113.5l-126 550h82l101 -441l255 441h82l-314 -550q-70 -120 -127 -172t-130 -52z" />
    <glyph glyph-name="Amacron" unicode="&#x100;" horiz-adv-x="677" 
d="M622 858h-360l11 65h360zM61 0h-89l403 730h87l147 -730h-85l-43 211h-304zM401 623l-186 -337h255z" />
    <glyph glyph-name="amacron" unicode="&#x101;" 
d="M595 688h-360l11 65h360zM269 -7q-99 1 -164.5 69.5t-65.5 168.5q0 129 95.5 227.5t225.5 98.5q72 0 129 -38.5t73 -96.5l25 128h71l-96 -550h-71l18 126q-36 -58 -102 -95.5t-138 -37.5zM290 69q96 0 171.5 73t75.5 169q0 73 -48.5 122t-124.5 49q-95 0 -170.5 -74.5
t-75.5 -168.5q0 -73 48.5 -121.5t123.5 -48.5z" />
    <glyph glyph-name="Abreve" unicode="&#x102;" horiz-adv-x="677" 
d="M435 816q-63 0 -100.5 43.5t-29.5 104.5h50q-5 -41 21 -69t68 -28t76.5 28t45.5 69h50q-14 -62 -66.5 -105t-114.5 -43zM61 0h-89l403 730h87l147 -730h-85l-43 211h-304zM401 623l-186 -337h255z" />
    <glyph glyph-name="abreve" unicode="&#x103;" 
d="M410 646q-64 0 -104 43.5t-32 104.5h51q-1 -46 22.5 -71.5t65.5 -25.5q41 0 76.5 28t45.5 69h50q-14 -63 -63.5 -105.5t-111.5 -42.5zM269 -7q-98 0 -164 69t-66 169q0 129 95.5 227.5t225.5 98.5q72 0 129 -38.5t73 -96.5l25 128h71l-96 -550h-71l18 126
q-36 -58 -102 -95.5t-138 -37.5zM290 69q96 0 171.5 73t75.5 169q0 73 -48.5 122t-124.5 49q-95 0 -170.5 -74.5t-75.5 -168.5q0 -73 48.5 -121.5t123.5 -48.5z" />
    <glyph glyph-name="Aogonek" unicode="&#x104;" horiz-adv-x="677" 
d="M538 -219q-29 0 -48 19.5t-19 50.5q0 12 3.5 24.5t8.5 23.5t13 23t14.5 20.5t17 19l15.5 15.5t14 13.5t10 9.5h-42l-44 211h-304l-116 -211h-89l403 730h87l147 -730q-3 -3 -17 -18.5t-18 -20.5t-14.5 -17.5t-14.5 -19.5l-10 -17.5t-8 -19t-2 -16.5q0 -15 8.5 -25
t21.5 -10q27 0 51 26l19 -39q-36 -42 -87 -42zM401 623l-186 -337h255z" />
    <glyph glyph-name="aogonek" unicode="&#x105;" horiz-adv-x="686" 
d="M485 -208q-29 0 -48 19.5t-19 50.5q0 22 9.5 43.5t19.5 33.5t30.5 32.5t27.5 28.5h-14l18 126q-36 -58 -102 -95.5t-138 -37.5q-98 0 -164 69t-66 169q0 129 95.5 227.5t225.5 98.5q72 0 129 -38.5t73 -96.5l25 128h71l-96 -550h-11q-7 -8 -22 -24.5t-22.5 -25.5t-17 -22
t-13.5 -24t-4 -21q0 -15 8.5 -25.5t21.5 -10.5q28 0 50 26l20 -39q-36 -42 -87 -42zM290 69q96 0 171.5 73t75.5 169q0 73 -48.5 122t-124.5 49q-95 0 -170.5 -74.5t-75.5 -168.5q0 -73 48.5 -121.5t123.5 -48.5z" />
    <glyph glyph-name="Cacute" unicode="&#x106;" horiz-adv-x="775" 
d="M485 812h-53l88 156h72zM388 -11q-141 0 -232 90.5t-91 226.5q0 174 129.5 303.5t307.5 129.5q90 0 161.5 -38.5t114.5 -106.5l-72 -47q-32 51 -87 81t-123 30q-90 0 -171 -48.5t-129.5 -128.5t-48.5 -168q0 -105 69.5 -173.5t176.5 -68.5q71 0 137.5 31t115.5 85l69 -47
q-62 -70 -147.5 -110.5t-179.5 -40.5z" />
    <glyph glyph-name="cacute" unicode="&#x107;" horiz-adv-x="604" 
d="M396 642h-53l89 156h71zM285 -7q-104 0 -174.5 70t-70.5 171q0 132 97 227.5t231 95.5q70 0 127 -32.5t88 -88.5l-70 -41q-22 40 -61.5 62.5t-88.5 22.5q-96 0 -170.5 -73t-74.5 -167q0 -73 48.5 -121.5t123.5 -48.5q52 0 100.5 24.5t83.5 65.5l60 -46
q-103 -121 -249 -121z" />
    <glyph glyph-name="Ccircumflex" unicode="&#x108;" horiz-adv-x="775" 
d="M447 828h-70l129 125h72l84 -125h-70l-58 83zM388 -11q-141 0 -232 90.5t-91 226.5q0 174 129.5 303.5t307.5 129.5q90 0 161.5 -38.5t114.5 -106.5l-72 -47q-32 51 -87 81t-123 30q-90 0 -171 -48.5t-129.5 -128.5t-48.5 -168q0 -105 69.5 -173.5t176.5 -68.5
q71 0 137.5 31t115.5 85l69 -47q-62 -70 -147.5 -110.5t-179.5 -40.5z" />
    <glyph glyph-name="ccircumflex" unicode="&#x109;" horiz-adv-x="604" 
d="M317 658h-70l129 125h72l84 -125h-70l-58 83zM285 -7q-104 0 -174.5 70t-70.5 171q0 132 97 227.5t231 95.5q70 0 127 -32.5t88 -88.5l-70 -41q-22 40 -61.5 62.5t-88.5 22.5q-96 0 -170.5 -73t-74.5 -167q0 -73 48.5 -121.5t123.5 -48.5q52 0 100.5 24.5t83.5 65.5
l60 -46q-103 -121 -249 -121z" />
    <glyph glyph-name="Cdotaccent" unicode="&#x10a;" horiz-adv-x="775" 
d="M510 839q-19 0 -31 12t-12 31q0 24 18.5 41.5t42.5 17.5q18 0 30 -12t12 -29q0 -24 -18.5 -42.5t-41.5 -18.5zM388 -11q-141 0 -232 90.5t-91 226.5q0 174 129.5 303.5t307.5 129.5q90 0 161.5 -38.5t114.5 -106.5l-72 -47q-32 51 -87 81t-123 30q-90 0 -171 -48.5
t-129.5 -128.5t-48.5 -168q0 -105 69.5 -173.5t176.5 -68.5q71 0 137.5 31t115.5 85l69 -47q-62 -70 -147.5 -110.5t-179.5 -40.5z" />
    <glyph glyph-name="cdotaccent" unicode="&#x10b;" horiz-adv-x="604" 
d="M380 669q-19 0 -31 12t-12 31q0 24 18.5 41.5t42.5 17.5q18 0 30 -12t12 -29q0 -24 -18.5 -42.5t-41.5 -18.5zM285 -7q-104 0 -174.5 70t-70.5 171q0 132 97 227.5t231 95.5q70 0 127 -32.5t88 -88.5l-70 -41q-22 40 -61.5 62.5t-88.5 22.5q-96 0 -170.5 -73t-74.5 -167
q0 -73 48.5 -121.5t123.5 -48.5q52 0 100.5 24.5t83.5 65.5l60 -46q-103 -121 -249 -121z" />
    <glyph glyph-name="Ccaron" unicode="&#x10c;" horiz-adv-x="775" 
d="M545 828h-72l-85 125h70l58 -83l87 83h70zM388 -11q-141 0 -232 90.5t-91 226.5q0 174 129.5 303.5t307.5 129.5q90 0 161.5 -38.5t114.5 -106.5l-72 -47q-32 51 -87 81t-123 30q-90 0 -171 -48.5t-129.5 -128.5t-48.5 -168q0 -105 69.5 -173.5t176.5 -68.5
q71 0 137.5 31t115.5 85l69 -47q-62 -70 -147.5 -110.5t-179.5 -40.5z" />
    <glyph glyph-name="ccaron" unicode="&#x10d;" horiz-adv-x="604" 
d="M398 658h-72l-84 125h70l57 -83l88 83h70zM285 -7q-104 0 -174.5 70t-70.5 171q0 132 97 227.5t231 95.5q70 0 127 -32.5t88 -88.5l-70 -41q-22 40 -61.5 62.5t-88.5 22.5q-96 0 -170.5 -73t-74.5 -167q0 -73 48.5 -121.5t123.5 -48.5q52 0 100.5 24.5t83.5 65.5l60 -46
q-103 -121 -249 -121z" />
    <glyph glyph-name="Dcaron" unicode="&#x10e;" horiz-adv-x="745" 
d="M430 828h-72l-84 125h70l57 -83l88 83h70zM265 0h-225l128 730h212q149 0 240.5 -87.5t91.5 -218.5q0 -178 -130 -301t-317 -123zM233 651l-101 -572h139q149 0 253 99t104 239q0 102 -68.5 168.5t-187.5 66.5z" />
    <glyph glyph-name="dcaron" unicode="&#x10f;" horiz-adv-x="756" 
d="M269 -7q-98 0 -164 69t-66 169q0 130 94 228t227 98q71 0 127.5 -38t72.5 -95l63 356h76l-137 -780h-71l18 126q-37 -59 -100.5 -96t-139.5 -37zM786 578h-56l29 202h71zM290 69q101 0 174 72.5t73 169.5q0 73 -48.5 122t-124.5 49q-99 0 -172.5 -73.5t-73.5 -169.5
q0 -73 48.5 -121.5t123.5 -48.5z" />
    <glyph glyph-name="Dcroat" unicode="&#x110;" horiz-adv-x="748" 
d="M268 0h-226l58 333h-50l12 65h50l58 332h213q148 0 240 -87.5t92 -218.5q0 -178 -130 -301t-317 -123zM180 333l-45 -254h139q148 0 252.5 99t104.5 239q0 101 -69 168t-187 67l-139 -1l-45 -253h254l-11 -65h-254z" />
    <glyph glyph-name="dcroat" unicode="&#x111;" horiz-adv-x="686" 
d="M269 -7q-98 0 -164 69t-66 169q0 130 94 228t227 98q71 0 127.5 -38t72.5 -95l39 222h-225l10 55h225l14 79h76l-14 -79h59l-10 -55h-59l-113 -646h-71l18 126q-37 -59 -100.5 -96t-139.5 -37zM290 69q101 0 174 72.5t73 169.5q0 73 -48.5 122t-124.5 49
q-99 0 -172.5 -73.5t-73.5 -169.5q0 -73 48.5 -121.5t123.5 -48.5z" />
    <glyph glyph-name="Emacron" unicode="&#x112;" horiz-adv-x="596" 
d="M599 858h-360l11 65h360zM496 0h-456l128 730h446l-14 -75h-366l-43 -243h347l-13 -74h-347l-46 -261h377z" />
    <glyph glyph-name="emacron" unicode="&#x113;" horiz-adv-x="647" 
d="M576 688h-360l11 65h360zM293 -7q-109 0 -181 70t-72 171q0 131 94.5 227t229.5 96q116 0 183.5 -76t53.5 -193q-2 -16 -10 -51h-472q-1 -75 49.5 -123.5t127.5 -48.5q113 0 189 83l56 -41q-104 -114 -248 -114zM128 298h397q11 83 -34 135.5t-129 52.5q-85 0 -151 -53.5
t-83 -134.5z" />
    <glyph glyph-name="Ebreve" unicode="&#x114;" horiz-adv-x="596" 
d="M413 816q-63 0 -101 43.5t-30 104.5h51q-5 -41 20.5 -69t68.5 -28q41 0 76 28t45 69h51q-14 -62 -66.5 -105t-114.5 -43zM496 0h-456l128 730h446l-14 -75h-366l-43 -243h347l-13 -74h-347l-46 -261h377z" />
    <glyph glyph-name="ebreve" unicode="&#x115;" horiz-adv-x="642" 
d="M393 646q-64 0 -104.5 43.5t-32.5 104.5h51q-1 -46 22.5 -71.5t65.5 -25.5t76.5 28t45.5 69h51q-15 -63 -64.5 -105.5t-110.5 -42.5zM293 -7q-109 0 -181 70t-72 171q0 131 94.5 227t229.5 96q116 0 183.5 -76t53.5 -193q-2 -16 -10 -51h-472q-1 -75 49.5 -123.5
t127.5 -48.5q113 0 189 83l56 -41q-104 -114 -248 -114zM128 298h397q11 83 -34 135.5t-129 52.5q-85 0 -151 -53.5t-83 -134.5z" />
    <glyph glyph-name="Edotaccent" unicode="&#x116;" horiz-adv-x="596" 
d="M416 839q-19 0 -31 12t-12 31q0 24 18.5 41.5t42.5 17.5q18 0 30 -12t12 -29q0 -24 -18.5 -42.5t-41.5 -18.5zM496 0h-456l128 730h446l-14 -75h-366l-43 -243h347l-13 -74h-347l-46 -261h377z" />
    <glyph glyph-name="edotaccent" unicode="&#x117;" horiz-adv-x="642" 
d="M382 669q-19 0 -31.5 12t-12.5 31q0 24 18.5 41.5t42.5 17.5q18 0 30 -12t12 -29q0 -24 -18 -42.5t-41 -18.5zM293 -7q-109 0 -181 70t-72 171q0 131 94.5 227t229.5 96q116 0 183.5 -76t53.5 -193q-2 -16 -10 -51h-472q-1 -75 49.5 -123.5t127.5 -48.5q113 0 189 83
l56 -41q-104 -114 -248 -114zM128 298h397q11 83 -34 135.5t-129 52.5q-85 0 -151 -53.5t-83 -134.5z" />
    <glyph glyph-name="Eogonek" unicode="&#x118;" horiz-adv-x="610" 
d="M425 -219q-29 0 -48 19.5t-19 50.5q0 5 2 19q1 8 3.5 16.5t7 17t7.5 15t9.5 15.5t10 13.5t11.5 14.5t10.5 13t12 13t10.5 12h-402l128 730h446l-14 -75h-366l-43 -243h347l-13 -74h-347l-46 -261h377l-13 -77q-6 -7 -18.5 -21t-17.5 -20t-14 -17t-13 -17t-9 -14
t-7.5 -15.5t-3.5 -14.5q-1 -4 -1 -10q0 -15 8.5 -25t21.5 -10q27 0 51 26l19 -39q-36 -42 -87 -42z" />
    <glyph glyph-name="eogonek" unicode="&#x119;" horiz-adv-x="658" 
d="M469 -111q-30 0 -49 19.5t-19 50.5q0 25 19 63q-60 -29 -127 -29q-109 0 -181 70t-72 171q0 131 94.5 227t229.5 96q116 0 183.5 -76t53.5 -193q-2 -16 -10 -51h-472q-1 -75 49.5 -123.5t127.5 -48.5q113 0 189 83l55 -41q-84 -89 -84 -129q0 -15 8 -24.5t21 -9.5
q29 0 51 26l19 -39q-36 -42 -86 -42zM128 298h397q11 83 -34 135.5t-129 52.5q-85 0 -151 -53.5t-83 -134.5z" />
    <glyph glyph-name="Ecaron" unicode="&#x11a;" horiz-adv-x="596" 
d="M435 828h-72l-85 125h70l58 -83l87 83h70zM496 0h-456l128 730h446l-14 -75h-366l-43 -243h347l-13 -74h-347l-46 -261h377z" />
    <glyph glyph-name="ecaron" unicode="&#x11b;" horiz-adv-x="642" 
d="M415 658h-72l-85 125h70l58 -83l87 83h70zM293 -7q-109 0 -181 70t-72 171q0 131 94.5 227t229.5 96q116 0 183.5 -76t53.5 -193q-2 -16 -10 -51h-472q-1 -75 49.5 -123.5t127.5 -48.5q113 0 189 83l56 -41q-104 -114 -248 -114zM128 298h397q11 83 -34 135.5t-129 52.5
q-85 0 -151 -53.5t-83 -134.5z" />
    <glyph glyph-name="Gcircumflex" unicode="&#x11c;" horiz-adv-x="846" 
d="M449 828h-70l128 125h72l85 -125h-70l-58 83zM387 -11q-138 0 -230 91.5t-92 226.5q0 115 59 214.5t160.5 158.5t218.5 59q90 0 164.5 -39.5t114.5 -106.5l-77 -43q-33 50 -87.5 79t-121.5 29q-90 0 -171 -48.5t-129.5 -128.5t-48.5 -168q0 -105 69.5 -173.5t176.5 -68.5
q119 0 207 72.5t115 190.5h-297l13 75h382q0 -24 -4 -44q-30 -168 -144 -272t-278 -104z" />
    <glyph glyph-name="gcircumflex" unicode="&#x11d;" 
d="M321 658h-70l128 125h72l85 -125h-70l-58 83zM231 -228q-70 0 -131 29.5t-91 79.5l64 43q24 -37 68.5 -57.5t97.5 -20.5q95 0 166.5 58t92.5 173l9 47q-37 -57 -101 -94t-137 -37q-100 0 -165 69.5t-65 168.5q0 130 93.5 228t227.5 98q72 0 129 -38.5t73 -96.5l25 128h71
l-82 -465q-27 -156 -117 -234.5t-228 -78.5zM290 69q96 0 171.5 73t75.5 169q0 73 -48.5 122t-124.5 49q-99 0 -172.5 -73.5t-73.5 -169.5q0 -73 48.5 -121.5t123.5 -48.5z" />
    <glyph glyph-name="Gbreve" unicode="&#x11e;" horiz-adv-x="846" 
d="M516 816q-64 0 -104 43.5t-32 104.5h51q-5 -42 20.5 -69.5t68.5 -27.5q41 0 76 28t45 69h50q-14 -63 -63.5 -105.5t-111.5 -42.5zM387 -11q-138 0 -230 91.5t-92 226.5q0 115 59 214.5t160.5 158.5t218.5 59q90 0 164.5 -39.5t114.5 -106.5l-77 -43q-33 50 -87.5 79
t-121.5 29q-90 0 -171 -48.5t-129.5 -128.5t-48.5 -168q0 -105 69.5 -173.5t176.5 -68.5q119 0 207 72.5t115 190.5h-297l13 75h382q0 -24 -4 -44q-30 -168 -144 -272t-278 -104z" />
    <glyph glyph-name="gbreve" unicode="&#x11f;" 
d="M387 646q-63 0 -101.5 43.5t-30.5 104.5h50q-1 -46 22.5 -71.5t66.5 -25.5q41 0 76.5 28t45.5 69h50q-14 -63 -65.5 -105.5t-113.5 -42.5zM231 -228q-70 0 -131 29.5t-91 79.5l64 43q24 -37 68.5 -57.5t97.5 -20.5q95 0 166.5 58t92.5 173l9 47q-37 -57 -101 -94
t-137 -37q-100 0 -165 69.5t-65 168.5q0 130 93.5 228t227.5 98q72 0 129 -38.5t73 -96.5l25 128h71l-82 -465q-27 -156 -117 -234.5t-228 -78.5zM290 69q96 0 171.5 73t75.5 169q0 73 -48.5 122t-124.5 49q-99 0 -172.5 -73.5t-73.5 -169.5q0 -73 48.5 -121.5t123.5 -48.5z
" />
    <glyph glyph-name="Gdotaccent" unicode="&#x120;" horiz-adv-x="846" 
d="M515 839q-19 0 -31 12t-12 31q0 24 18.5 41.5t42.5 17.5q18 0 30 -12t12 -29q0 -24 -18.5 -42.5t-41.5 -18.5zM387 -11q-138 0 -230 91.5t-92 226.5q0 115 59 214.5t160.5 158.5t218.5 59q90 0 164.5 -39.5t114.5 -106.5l-77 -43q-33 50 -87.5 79t-121.5 29
q-90 0 -171 -48.5t-129.5 -128.5t-48.5 -168q0 -105 69.5 -173.5t176.5 -68.5q119 0 207 72.5t115 190.5h-297l13 75h382q0 -24 -4 -44q-30 -168 -144 -272t-278 -104z" />
    <glyph glyph-name="gdotaccent" unicode="&#x121;" 
d="M389 669q-19 0 -31 12t-12 31q0 24 18.5 41.5t42.5 17.5q18 0 30 -12t12 -29q0 -24 -18.5 -42.5t-41.5 -18.5zM231 -228q-70 0 -131 29.5t-91 79.5l64 43q24 -37 68.5 -57.5t97.5 -20.5q95 0 166.5 58t92.5 173l9 47q-37 -57 -101 -94t-137 -37q-100 0 -165 69.5
t-65 168.5q0 130 93.5 228t227.5 98q72 0 129 -38.5t73 -96.5l25 128h71l-82 -465q-27 -156 -117 -234.5t-228 -78.5zM290 69q96 0 171.5 73t75.5 169q0 73 -48.5 122t-124.5 49q-99 0 -172.5 -73.5t-73.5 -169.5q0 -73 48.5 -121.5t123.5 -48.5z" />
    <glyph glyph-name="uni0122" unicode="&#x122;" horiz-adv-x="846" 
d="M387 -11q-138 0 -230 91.5t-92 226.5q0 115 59 214.5t160.5 158.5t218.5 59q90 0 164.5 -39.5t114.5 -106.5l-77 -43q-33 50 -87.5 79t-121.5 29q-90 0 -171 -48.5t-129.5 -128.5t-48.5 -168q0 -105 69.5 -173.5t176.5 -68.5q119 0 207 72.5t115 190.5h-297l13 75h382
q0 -24 -4 -44q-30 -168 -144 -272t-278 -104zM358 -198h-62l45 151h71z" />
    <glyph glyph-name="uni0123" unicode="&#x123;" 
d="M422 651h-71l54 151h62zM231 -228q-70 0 -131 29.5t-91 79.5l64 43q24 -37 68.5 -57.5t97.5 -20.5q95 0 166.5 58t92.5 173l9 47q-37 -57 -101 -94t-137 -37q-100 0 -165 69.5t-65 168.5q0 130 93.5 228t227.5 98q72 0 129 -38.5t73 -96.5l25 128h71l-82 -465
q-27 -156 -117 -234.5t-228 -78.5zM290 69q96 0 171.5 73t75.5 169q0 73 -48.5 122t-124.5 49q-99 0 -172.5 -73.5t-73.5 -169.5q0 -73 48.5 -121.5t123.5 -48.5z" />
    <glyph glyph-name="Hcircumflex" unicode="&#x124;" horiz-adv-x="738" 
d="M397 828h-70l128 125h72l85 -125h-70l-58 83zM119 0h-79l128 730h79l-57 -326h403l57 326h80l-128 -730h-80l57 325h-403z" />
    <glyph glyph-name="hcircumflex" unicode="&#x125;" horiz-adv-x="632" 
d="M245 828h-70l129 125h72l84 -125h-70l-58 83zM109 0h-76l137 780h76l-59 -334q32 49 84.5 80t116.5 31q110 0 155 -76t25 -202l-49 -279h-76l49 279q15 93 -18.5 148t-113.5 55q-73 0 -129 -51.5t-73 -151.5z" />
    <glyph glyph-name="Hbar" unicode="&#x126;" horiz-adv-x="740" 
d="M121 0h-79l103 588h-37l10 57h37l15 85h79l-15 -85h403l15 85h80l-15 -85h36l-10 -57h-35l-104 -588h-80l57 325h-403zM225 588l-33 -184h403l33 184h-403z" />
    <glyph glyph-name="hbar" unicode="&#x127;" horiz-adv-x="629" 
d="M106 0h-76l113 644h-69l10 58h69l14 78h76l-14 -78h153l-10 -58h-153l-35 -198q32 49 84.5 80t116.5 31q110 0 155 -76t25 -202l-49 -279h-76l49 279q15 93 -18.5 148t-113.5 55q-73 0 -129 -51.5t-73 -151.5z" />
    <glyph glyph-name="Itilde" unicode="&#x128;" horiz-adv-x="255" 
d="M298 830q-24 -2 -43 9t-29 25t-22.5 26t-25.5 11q-34 0 -45 -61h-55q9 49 36.5 80.5t64.5 32.5q23 1 41.5 -10t28.5 -25t23 -26t27 -11q29 0 41 61h54q-9 -51 -34.5 -80.5t-61.5 -31.5zM119 0h-79l128 730h79z" />
    <glyph glyph-name="itilde" unicode="&#x129;" horiz-adv-x="231" 
d="M249 660q-27 0 -47.5 18t-36 35.5t-29.5 17.5q-34 0 -46 -61h-54q9 51 38 82t68 31q21 0 38.5 -11.5t26.5 -24.5t22 -24.5t26 -11.5q32 0 42 61h55q-10 -54 -37.5 -83t-65.5 -29zM106 0h-76l96 550h76z" />
    <glyph glyph-name="Imacron" unicode="&#x12a;" horiz-adv-x="255" 
d="M410 858h-360l11 65h360zM119 0h-79l128 730h79z" />
    <glyph glyph-name="imacron" unicode="&#x12b;" horiz-adv-x="231" 
d="M327 688h-275l11 65h275zM106 0h-76l96 550h76z" />
    <glyph glyph-name="Ibreve" unicode="&#x12c;" horiz-adv-x="254" 
d="M227 816q-64 0 -103.5 43.5t-31.5 104.5h51q-4 -41 21.5 -69t67.5 -28q41 0 76 28t45 69h51q-14 -63 -64 -105.5t-113 -42.5zM115 0h-80l128 730h80z" />
    <glyph glyph-name="ibreve" unicode="&#x12d;" horiz-adv-x="231" 
d="M191 664q-60 0 -94.5 36t-26.5 76h58q-4 -21 14.5 -38.5t52.5 -17.5q37 0 59 17.5t26 38.5h58q-7 -43 -48 -77.5t-99 -34.5zM106 0h-76l96 550h76z" />
    <glyph glyph-name="Iogonek" unicode="&#x12e;" horiz-adv-x="255" 
d="M54 -219q-34 0 -53 25.5t-12 63.5q3 17 9 32t17 30.5t17.5 23t22 24t19.5 20.5h-34l128 730h79l-128 -730q-40 -47 -56.5 -71t-20.5 -48q-3 -18 5.5 -31.5t23.5 -13.5q27 0 51 26l19 -39q-36 -42 -87 -42z" />
    <glyph glyph-name="iogonek" unicode="&#x12f;" horiz-adv-x="231" 
d="M176 612q-19 0 -31.5 12.5t-12.5 31.5q0 24 19 42t43 18q19 0 31 -12t12 -30q0 -24 -18.5 -43t-42.5 -19zM36 -219q-30 0 -49 19.5t-19 50.5q0 5 2 19q4 21 15.5 42t22 32.5t29.5 30.5t24 25h-31l96 550h76l-96 -550q-5 -5 -16.5 -18.5t-15.5 -18t-12.5 -15t-12 -15
t-9 -13t-8 -14t-5.5 -12.5t-4 -13v-10q0 -15 8 -25t21 -10q27 0 51 26l19 -39q-36 -42 -86 -42z" />
    <glyph glyph-name="Idotaccent" unicode="&#x130;" horiz-adv-x="260" 
d="M229 839q-19 0 -31 12t-12 31q0 24 18.5 41.5t42.5 17.5q18 0 30 -12t12 -29q0 -24 -18.5 -42.5t-41.5 -18.5zM122 0h-80l128 730h80z" />
    <glyph glyph-name="dotlessi" unicode="&#x131;" horiz-adv-x="231" 
d="M106 0h-76l96 550h76z" />
    <glyph glyph-name="IJ" unicode="&#x132;" horiz-adv-x="726" 
d="M119 0h-79l128 730h79zM370 -7q-94 0 -146 66l66 51q36 -38 93 -38q68 0 117 47t63 124l86 487h80l-86 -487q-20 -114 -95.5 -182t-177.5 -68z" />
    <glyph glyph-name="ij" unicode="&#x133;" horiz-adv-x="483" 
d="M176 612q-19 0 -31.5 12.5t-12.5 31.5q0 24 19 42t43 18q19 0 31 -12t12 -30q0 -24 -18.5 -43t-42.5 -19zM428 612q-19 0 -31.5 12.5t-12.5 31.5q0 24 19 42t43 18q18 0 30.5 -12t12.5 -30q0 -24 -18.5 -43t-42.5 -19zM106 0h-76l96 550h76zM138 -230q-38 0 -70 13l34 70
q19 -8 41 -8q111 0 137 149l98 556h76l-98 -556q-20 -114 -78.5 -169t-139.5 -55z" />
    <glyph glyph-name="Jcircumflex" unicode="&#x134;" horiz-adv-x="487" 
d="M333 828h-70l128 125h72l85 -125h-70l-58 83zM138 -7q-94 0 -146 66l65 51q36 -38 93 -38q68 0 118 47t63 124l86 487h80l-86 -487q-20 -114 -95.5 -182t-177.5 -68z" />
    <glyph glyph-name="jcircumflex" unicode="&#x135;" horiz-adv-x="256" 
d="M117 658h-70l128 125h72l85 -125h-70l-58 83zM-90 -230q-38 0 -70 13l34 70q21 -8 41 -8q111 0 138 149l97 556h76l-97 -556q-21 -114 -79.5 -169t-139.5 -55z" />
    <glyph glyph-name="uni0136" unicode="&#x136;" horiz-adv-x="658" 
d="M119 0h-79l128 730h79l-66 -379l412 379h95l-319 -300l218 -430h-95l-187 360l-145 -130zM261 -198h-62l45 151h71z" />
    <glyph glyph-name="uni0137" unicode="&#x137;" horiz-adv-x="573" 
d="M103 0h-73l137 780h73l-88 -499l320 269h93l-251 -217l186 -333h-90l-156 277l-120 -99zM213 -196h-61l44 151h72z" />
    <glyph glyph-name="kgreenlandic" unicode="&#x138;" horiz-adv-x="574" 
d="M103 0h-73l96 550h73l-46 -264l314 264h98l-250 -216l186 -334h-94l-154 276l-119 -98z" />
    <glyph glyph-name="Lacute" unicode="&#x139;" horiz-adv-x="579" 
d="M414 812h-52l88 156h71zM506 0h-466l128 730h79l-114 -650h386z" />
    <glyph glyph-name="lacute" unicode="&#x13a;" horiz-adv-x="231" 
d="M246 847h-53l88 156h71zM106 0h-76l137 780h76z" />
    <glyph glyph-name="uni013B" unicode="&#x13b;" horiz-adv-x="579" 
d="M506 0h-466l128 730h79l-114 -650h386zM244 -198h-61l44 151h71z" />
    <glyph glyph-name="uni013C" unicode="&#x13c;" horiz-adv-x="231" 
d="M106 0h-76l137 780h76zM40 -196h-62l45 151h71z" />
    <glyph glyph-name="Lcaron" unicode="&#x13d;" horiz-adv-x="586" 
d="M506 0h-466l128 730h79l-114 -650h386zM375 502h-55l87 228h71z" />
    <glyph glyph-name="lcaron" unicode="&#x13e;" horiz-adv-x="293" 
d="M324 580h-56l28 202h71zM106 0h-76l137 780h76z" />
    <glyph glyph-name="Ldot" unicode="&#x13f;" horiz-adv-x="579" 
d="M506 0h-466l128 730h79l-114 -650h386zM359 349q-19 0 -31 12t-12 31q0 24 18.5 41.5t42.5 17.5q18 0 30 -12t12 -30q0 -24 -18.5 -42t-41.5 -18z" />
    <glyph glyph-name="ldot" unicode="&#x140;" horiz-adv-x="307" 
d="M106 0h-76l137 780h76zM254 349q-19 0 -30.5 12t-11.5 31q0 24 18.5 41.5t42.5 17.5q18 0 29.5 -12t11.5 -30q0 -24 -18.5 -42t-41.5 -18z" />
    <glyph glyph-name="Lslash" unicode="&#x141;" horiz-adv-x="571" 
d="M498 0h-456l53 301l-66 -35l10 62l66 35l65 367h80l-56 -321l220 116l-11 -62l-221 -116l-47 -273h376z" />
    <glyph glyph-name="lslash" unicode="&#x142;" horiz-adv-x="251" 
d="M115 0h-76l60 338l-68 -35l11 62l67 35l67 380h76l-59 -336l67 35l-11 -62l-67 -36z" />
    <glyph glyph-name="Nacute" unicode="&#x143;" horiz-adv-x="785" 
d="M486 812h-52l88 156h71zM119 0h-79l128 730h79l347 -591l104 591h80l-128 -730h-80l-347 593z" />
    <glyph glyph-name="nacute" unicode="&#x144;" horiz-adv-x="629" 
d="M398 642h-53l89 156h71zM106 0h-76l96 550h71l-15 -106q33 50 85.5 81.5t117.5 31.5q102 0 152.5 -71t27.5 -207l-49 -279h-76l49 279q17 99 -21 151t-111 52t-129 -51.5t-73 -151.5z" />
    <glyph glyph-name="uni0145" unicode="&#x145;" horiz-adv-x="785" 
d="M119 0h-79l128 730h79l347 -591l104 591h80l-128 -730h-80l-347 593zM318 -196h-62l45 151h71z" />
    <glyph glyph-name="uni0146" unicode="&#x146;" horiz-adv-x="629" 
d="M106 0h-76l96 550h71l-15 -106q33 50 85.5 81.5t117.5 31.5q102 0 152.5 -71t27.5 -207l-49 -279h-76l49 279q17 99 -21 151t-111 52t-129 -51.5t-73 -151.5zM251 -196h-62l45 151h71z" />
    <glyph glyph-name="Ncaron" unicode="&#x147;" horiz-adv-x="785" 
d="M521 828h-72l-84 125h70l57 -83l88 83h70zM119 0h-79l128 730h79l347 -591l104 591h80l-128 -730h-80l-347 593z" />
    <glyph glyph-name="ncaron" unicode="&#x148;" horiz-adv-x="629" 
d="M424 658h-72l-84 125h70l57 -83l88 83h70zM106 0h-76l96 550h71l-15 -106q33 50 85.5 81.5t117.5 31.5q102 0 152.5 -71t27.5 -207l-49 -279h-76l49 279q17 99 -21 151t-111 52t-129 -51.5t-73 -151.5z" />
    <glyph glyph-name="napostrophe" unicode="&#x149;" horiz-adv-x="705" 
d="M84 394h-55l86 229h72zM182 0h-76l96 550h71l-15 -106q33 50 85.5 81.5t117.5 31.5q102 0 152.5 -71t27.5 -207l-49 -279h-76l49 279q17 99 -21 151t-111 52t-129 -51.5t-73 -151.5z" />
    <glyph glyph-name="Eng" unicode="&#x14a;" horiz-adv-x="785" 
d="M456 -140l14 81q63 0 93 71l-340 581l-104 -593h-79l128 730l79 -1l347 -590l104 591h80l-118 -669q-18 -98 -72 -149.5t-132 -51.5z" />
    <glyph glyph-name="eng" unicode="&#x14b;" horiz-adv-x="636" 
d="M330 -140l14 81q90 0 111 130l37 208q18 99 -20 151t-111 52t-129 -51.5t-74 -151.5l-49 -279h-76l96 550h71l-14 -106q33 50 85.5 81.5t117.5 31.5q101 0 152 -71t27 -207l-39 -224q-19 -97 -70.5 -146t-128.5 -49z" />
    <glyph glyph-name="Omacron" unicode="&#x14c;" horiz-adv-x="858" 
d="M710 858h-360l11 65h360zM388 -11q-141 0 -232 90.5t-91 226.5q0 115 55.5 214t156.5 159t225 60q141 0 232 -90.5t91 -225.5q0 -115 -55.5 -214t-156.5 -159.5t-225 -60.5zM393 71q145 0 247 103.5t102 242.5q0 103 -69.5 172t-176.5 69q-146 0 -247.5 -104t-101.5 -241
q0 -105 69.5 -173.5t176.5 -68.5z" />
    <glyph glyph-name="omacron" unicode="&#x14d;" horiz-adv-x="652" 
d="M578 688h-360l11 65h360zM282 -7q-105 0 -173.5 69.5t-68.5 171.5q0 132 94.5 227.5t236.5 95.5q103 0 172 -69.5t69 -169.5q0 -132 -94.5 -228.5t-235.5 -96.5zM290 70q103 0 173.5 72.5t70.5 168.5q0 72 -48.5 120.5t-123.5 48.5q-104 0 -174 -71.5t-70 -168.5
q0 -73 48 -121.5t124 -48.5z" />
    <glyph glyph-name="Obreve" unicode="&#x14e;" horiz-adv-x="858" 
d="M521 816q-63 0 -100.5 43.5t-29.5 104.5h50q-5 -41 21 -69t68 -28t76.5 28t45.5 69h50q-14 -62 -66.5 -105t-114.5 -43zM388 -11q-141 0 -232 90.5t-91 226.5q0 115 55.5 214t156.5 159t225 60q141 0 232 -90.5t91 -225.5q0 -115 -55.5 -214t-156.5 -159.5t-225 -60.5z
M393 71q145 0 247 103.5t102 242.5q0 103 -69.5 172t-176.5 69q-146 0 -247.5 -104t-101.5 -241q0 -105 69.5 -173.5t176.5 -68.5z" />
    <glyph glyph-name="obreve" unicode="&#x14f;" horiz-adv-x="653" 
d="M390 646q-64 0 -104 43.5t-32 104.5h51q-5 -45 20 -71t68 -26q41 0 76.5 28t45.5 69h51q-15 -63 -65 -105.5t-111 -42.5zM283 -7q-106 0 -174.5 69.5t-68.5 171.5q0 134 94.5 228.5t236.5 94.5q103 0 172 -69.5t69 -169.5q0 -133 -94 -229t-235 -96zM290 70
q103 0 173.5 72.5t70.5 168.5q0 72 -48.5 120.5t-122.5 48.5q-104 0 -174.5 -71.5t-70.5 -168.5q0 -73 48.5 -121.5t123.5 -48.5z" />
    <glyph glyph-name="Ohungarumlaut" unicode="&#x150;" horiz-adv-x="858" 
d="M431 794h-54l123 192h71zM616 794h-54l123 192h71zM388 -11q-141 0 -232 90.5t-91 226.5q0 115 55.5 214t156.5 159t225 60q141 0 232 -90.5t91 -225.5q0 -115 -55.5 -214t-156.5 -159.5t-225 -60.5zM393 71q145 0 247 103.5t102 242.5q0 103 -69.5 172t-176.5 69
q-146 0 -247.5 -104t-101.5 -241q0 -105 69.5 -173.5t176.5 -68.5z" />
    <glyph glyph-name="ohungarumlaut" unicode="&#x151;" horiz-adv-x="652" 
d="M297 624h-54l123 192h71zM482 624h-53l122 192h71zM282 -7q-105 0 -173.5 69.5t-68.5 171.5q0 132 94.5 227.5t236.5 95.5q103 0 172 -69.5t69 -169.5q0 -132 -94.5 -228.5t-235.5 -96.5zM290 70q103 0 173.5 72.5t70.5 168.5q0 72 -48.5 120.5t-123.5 48.5
q-104 0 -174 -71.5t-70 -168.5q0 -73 48 -121.5t124 -48.5z" />
    <glyph glyph-name="OE" unicode="&#x152;" horiz-adv-x="1015" 
d="M378 -11q-137 0 -225.5 92t-88.5 226q0 113 62.5 213t165.5 159.5t218 59.5q44 0 81 -9h441l-13 -75h-366l-43 -243h347l-14 -75h-346l-46 -260h376l-13 -77h-446q-46 -11 -90 -11zM393 71q40 0 80 14l98 559q-39 14 -75 14q-138 0 -244 -105t-106 -240
q0 -105 69.5 -173.5t177.5 -68.5z" />
    <glyph glyph-name="oe" unicode="&#x153;" horiz-adv-x="1128" 
d="M280 -7q-105 0 -173 67t-68 169q0 130 100.5 229t231.5 99q80 0 138 -43t78 -113q43 71 115 113.5t152 42.5q115 0 182.5 -79t50.5 -187q-1 -15 -11 -58h-468q-1 -72 50 -120t126 -48q107 0 186 81l56 -38q-49 -53 -114.5 -84t-134.5 -31q-85 0 -148 44t-83 114
q-43 -71 -114.5 -114.5t-151.5 -43.5zM617 298h390q17 71 -27 129.5t-131 58.5q-80 0 -147.5 -54.5t-84.5 -133.5zM288 70q95 0 170 73.5t75 167.5q0 72 -48.5 120.5t-123.5 48.5q-95 0 -169.5 -73t-74.5 -167q0 -73 48 -121.5t123 -48.5z" />
    <glyph glyph-name="Racute" unicode="&#x154;" horiz-adv-x="644" 
d="M400 810h-52l88 156h71zM119 0h-79l128 730h271q107 0 164 -65.5t40 -159.5q-14 -79 -74.5 -138.5t-142.5 -74.5l140 -292h-95l-132 280h-171zM233 652l-51 -294h195q71 0 122.5 43t62.5 104q11 60 -26 103.5t-108 43.5h-195z" />
    <glyph glyph-name="racute" unicode="&#x155;" horiz-adv-x="394" 
d="M276 642h-53l89 156h71zM106 0h-76l96 549l71 1l-12 -96q64 98 197 98q13 0 37 -2l-29 -74q-6 1 -20 1q-81 0 -140 -51.5t-78 -160.5z" />
    <glyph glyph-name="uni0156" unicode="&#x156;" horiz-adv-x="644" 
d="M119 0h-79l128 730h271q107 0 164 -65.5t40 -159.5q-14 -79 -74.5 -138.5t-142.5 -74.5l140 -292h-95l-132 280h-171zM233 652l-51 -294h195q71 0 122.5 43t62.5 104q11 60 -26 103.5t-108 43.5h-195zM209 -201h-60l80 157h71z" />
    <glyph glyph-name="uni0157" unicode="&#x157;" horiz-adv-x="394" 
d="M106 0h-76l96 549l71 1l-12 -96q64 98 197 98q25 0 37 -2l-29 -74q-6 1 -20 1q-81 0 -140 -51.5t-78 -160.5zM39 -196h-62l45 151h71z" />
    <glyph glyph-name="Rcaron" unicode="&#x158;" horiz-adv-x="644" 
d="M434 828h-72l-84 125h70l57 -83l88 83h70zM119 0h-79l128 730h271q107 0 164 -65.5t40 -159.5q-14 -79 -74.5 -138.5t-142.5 -74.5l140 -292h-95l-132 280h-171zM233 652l-51 -294h195q71 0 122.5 43t62.5 104q11 60 -26 103.5t-108 43.5h-195z" />
    <glyph glyph-name="rcaron" unicode="&#x159;" horiz-adv-x="397" 
d="M330 658h-72l-85 125h70l58 -83l87 83h70zM109 0h-76l96 549l71 1l-12 -96q31 47 83 72.5t115 25.5q25 0 37 -2l-29 -74q-6 1 -20 1q-81 0 -140 -51.5t-79 -160.5z" />
    <glyph glyph-name="Sacute" unicode="&#x15a;" horiz-adv-x="611" 
d="M391 812h-53l88 156h72zM275 -9q-75 0 -143 27.5t-113 85.5l60 52q73 -90 203 -91q82 -1 134.5 38t52.5 107q0 40 -26.5 69.5t-66.5 46t-87 36t-87 39t-66.5 55t-26.5 83.5q0 93 71.5 147.5t184.5 54.5q67 0 135 -29t100 -88l-63 -45q-21 39 -70 63t-103 25
q-80 0 -127.5 -34t-47.5 -86q0 -40 37 -67.5t90 -46.5t106 -41.5t90 -65t37 -104.5q0 -109 -76.5 -170.5t-197.5 -60.5z" />
    <glyph glyph-name="sacute" unicode="&#x15b;" horiz-adv-x="558" 
d="M336 642h-52l89 156h71zM252 -8q-67 0 -134.5 23.5t-102.5 72.5l60 49q21 -32 73.5 -52.5t110.5 -20.5q67 0 109.5 25.5t42.5 72.5q0 32 -33 52.5t-80.5 32.5t-95 26.5t-80.5 45t-33 77.5q0 76 59.5 118.5t160.5 42.5q63 0 122.5 -20.5t92.5 -69.5l-56 -46
q-21 34 -68 50.5t-95 16.5q-61 0 -100 -20.5t-39 -61.5q0 -29 33.5 -47.5t80.5 -30.5t94.5 -27.5t81 -47.5t33.5 -81q0 -87 -67 -133.5t-170 -46.5z" />
    <glyph glyph-name="Scircumflex" unicode="&#x15c;" horiz-adv-x="611" 
d="M317 828h-70l129 125h72l84 -125h-70l-58 83zM275 -9q-75 0 -143 27.5t-113 85.5l60 52q73 -90 203 -91q82 -1 134.5 38t52.5 107q0 40 -26.5 69.5t-66.5 46t-87 36t-87 39t-66.5 55t-26.5 83.5q0 93 71.5 147.5t184.5 54.5q67 0 135 -29t100 -88l-63 -45q-21 39 -70 63
t-103 25q-80 0 -127.5 -34t-47.5 -86q0 -40 37 -67.5t90 -46.5t106 -41.5t90 -65t37 -104.5q0 -109 -76.5 -170.5t-197.5 -60.5z" />
    <glyph glyph-name="scircumflex" unicode="&#x15d;" horiz-adv-x="558" 
d="M265 658h-70l129 125h72l84 -125h-70l-58 83zM252 -8q-67 0 -134.5 23.5t-102.5 72.5l60 49q21 -32 73.5 -52.5t110.5 -20.5q67 0 109.5 25.5t42.5 72.5q0 32 -33 52.5t-80.5 32.5t-95 26.5t-80.5 45t-33 77.5q0 76 59.5 118.5t160.5 42.5q63 0 122.5 -20.5t92.5 -69.5
l-56 -46q-21 34 -68 50.5t-95 16.5q-61 0 -100 -20.5t-39 -61.5q0 -29 33.5 -47.5t80.5 -30.5t94.5 -27.5t81 -47.5t33.5 -81q0 -87 -67 -133.5t-170 -46.5z" />
    <glyph glyph-name="Scedilla" unicode="&#x15e;" horiz-adv-x="611" 
d="M227 -220q-61 0 -90 25l29 46q7 -7 25.5 -13t37.5 -6q28 0 44.5 13.5t17.5 34.5q0 34 -59 34h-35l39 79q-142 14 -217 111l60 52q73 -90 203 -91q82 -1 134.5 38t52.5 107q0 40 -26.5 69.5t-66.5 46t-87 36t-87 39t-66.5 55t-26.5 83.5q0 93 71.5 147.5t184.5 54.5
q67 0 135 -29t100 -88l-63 -45q-21 39 -70 63t-103 25q-80 0 -127.5 -34t-47.5 -86q0 -40 37 -67.5t90 -46.5t106 -41.5t90 -65t37 -104.5q0 -105 -72 -166t-188 -65l-19 -40q37 -4 56.5 -22t19.5 -46q0 -43 -35.5 -73t-83.5 -30z" />
    <glyph glyph-name="scedilla" unicode="&#x15f;" horiz-adv-x="558" 
d="M213 -220q-28 0 -55 7.5t-38 17.5l28 46q21 -19 64 -19q28 0 44.5 13.5t16.5 34.5q0 34 -58 34h-35l37 80q-61 5 -116.5 28.5t-85.5 65.5l60 49q21 -32 73.5 -52.5t110.5 -20.5q67 0 109.5 25.5t42.5 72.5q0 32 -33 52.5t-80.5 32.5t-95 26.5t-80.5 45t-33 77.5
q0 76 59.5 118.5t160.5 42.5q63 0 122.5 -20.5t92.5 -69.5l-56 -46q-21 34 -68 50.5t-95 16.5q-61 0 -100 -20.5t-39 -61.5q0 -29 33.5 -47.5t80.5 -30.5t94.5 -27.5t81 -47.5t33.5 -81q0 -83 -61 -129t-157 -51l-18 -41q37 -4 56 -23.5t19 -48.5q0 -44 -33 -71.5t-82 -27.5
z" />
    <glyph glyph-name="Scaron" unicode="&#x160;" horiz-adv-x="611" 
d="M428 828h-72l-85 125h70l58 -83l87 83h70zM275 -9q-75 0 -143 27.5t-113 85.5l60 52q73 -90 203 -91q82 -1 134.5 38t52.5 107q0 40 -26.5 69.5t-66.5 46t-87 36t-87 39t-66.5 55t-26.5 83.5q0 93 71.5 147.5t184.5 54.5q67 0 135 -29t100 -88l-63 -45q-21 39 -70 63
t-103 25q-80 0 -127.5 -34t-47.5 -86q0 -40 37 -67.5t90 -46.5t106 -41.5t90 -65t37 -104.5q0 -109 -76.5 -170.5t-197.5 -60.5z" />
    <glyph glyph-name="scaron" unicode="&#x161;" horiz-adv-x="558" 
d="M381 658h-72l-84 125h70l58 -83l87 83h70zM252 -8q-67 0 -134.5 23.5t-102.5 72.5l60 49q21 -32 73.5 -52.5t110.5 -20.5q67 0 109.5 25.5t42.5 72.5q0 32 -33 52.5t-80.5 32.5t-95 26.5t-80.5 45t-33 77.5q0 76 59.5 118.5t160.5 42.5q63 0 122.5 -20.5t92.5 -69.5
l-56 -46q-21 34 -68 50.5t-95 16.5q-61 0 -100 -20.5t-39 -61.5q0 -29 33.5 -47.5t80.5 -30.5t94.5 -27.5t81 -47.5t33.5 -81q0 -87 -67 -133.5t-170 -46.5z" />
    <glyph glyph-name="uni0162" unicode="&#x162;" horiz-adv-x="594" 
d="M208 -220q-59 0 -87 26l29 45q7 -7 25.5 -13t37.5 -6q28 0 44.5 13.5t17.5 34.5q0 34 -59 34h-35l45 86h-16l114 653h-233l14 77h544l-14 -77h-231l-115 -653h-12l-23 -48q76 -9 76 -68q0 -43 -37 -73.5t-85 -30.5z" />
    <glyph glyph-name="uni0163" unicode="&#x163;" horiz-adv-x="380" 
d="M110 -220q-58 0 -87 25l29 46q7 -7 25.5 -13t37.5 -6q28 0 44.5 13t17.5 34q0 35 -59 35h-35l49 107q-70 51 -47 171l51 288h-74l11 70h77l40 180h66l-32 -180h135l-12 -70h-135l-51 -287q-19 -127 83 -127q26 0 45 8l8 -69q-34 -13 -69 -13q-22 0 -47 7l-25 -48
q37 -4 56.5 -22t19.5 -46q0 -43 -37 -73t-85 -30z" />
    <glyph glyph-name="Tcaron" unicode="&#x164;" horiz-adv-x="594" 
d="M431 828h-72l-85 125h70l58 -83l87 83h70zM289 0h-79l114 653h-233l14 77h544l-14 -77h-231z" />
    <glyph glyph-name="tcaron" unicode="&#x165;" horiz-adv-x="384" 
d="M347 613h-56l28 203h72zM222 -8q-84 0 -118.5 55.5t-18.5 144.5l51 288h-74l11 70h77l40 180h66l-32 -180h135l-12 -70h-135l-51 -287q-19 -127 83 -127q26 0 45 8l8 -69q-32 -13 -75 -13z" />
    <glyph glyph-name="Tbar" unicode="&#x166;" horiz-adv-x="594" 
d="M289 0h-79l54 312h-141l12 65h141l48 276h-233l14 77h544l-14 -77h-231l-49 -276h140l-12 -65h-139z" />
    <glyph glyph-name="tbar" unicode="&#x167;" horiz-adv-x="391" 
d="M225 -8q-77 0 -116 54t-24 132l18 98h-75l9 52h75l27 152h-75l12 70h76l40 180h66l-32 -180h135l-11 -70h-135l-27 -152h95l-9 -52h-94l-17 -94q-17 -116 84 -116q26 0 45 8l8 -69q-33 -13 -75 -13z" />
    <glyph glyph-name="Utilde" unicode="&#x168;" horiz-adv-x="715" 
d="M520 830q-24 -2 -43 9t-29 25t-22.5 26t-25.5 11q-33 -2 -45 -61h-54q8 49 35.5 80.5t64.5 32.5q24 1 42.5 -10t28 -25t22.5 -26t27 -11q31 2 41 61h55q-10 -51 -35.5 -80.5t-61.5 -31.5zM308 -9q-121 0 -187 78t-43 209l80 452h79l-79 -451q-17 -100 28.5 -154
t132.5 -54q88 0 155 54t85 154l79 451h80l-80 -452q-23 -131 -116.5 -209t-213.5 -78z" />
    <glyph glyph-name="utilde" unicode="&#x169;" horiz-adv-x="635" 
d="M450 660q-23 -2 -42 9.5t-29 25.5t-23 25.5t-26 10.5q-33 -2 -44 -61h-55q9 49 37 80.5t65 32.5q23 1 41 -10t27.5 -25t23 -26t27.5 -11q30 2 40 61h55q-9 -51 -34.5 -80.5t-62.5 -31.5zM246 -7q-101 0 -152 71.5t-27 206.5l49 279h76l-49 -279q-18 -99 20 -150.5
t111 -51.5t129 51.5t74 150.5l49 279h76l-96 -550h-71l14 106q-33 -50 -86 -81.5t-117 -31.5z" />
    <glyph glyph-name="Umacron" unicode="&#x16a;" horiz-adv-x="715" 
d="M641 858h-360l11 65h360zM308 -9q-126 0 -189 80t-41 207l80 452h79l-79 -451q-17 -95 26.5 -151.5t134.5 -56.5q88 0 155 54t85 154l79 451h80l-80 -452q-23 -131 -116.5 -209t-213.5 -78z" />
    <glyph glyph-name="umacron" unicode="&#x16b;" horiz-adv-x="635" 
d="M562 688h-360l11 65h360zM246 -7q-101 0 -152 71.5t-27 206.5l49 279h76l-49 -279q-18 -99 20 -150.5t111 -51.5t129 51.5t74 150.5l49 279h76l-96 -550h-71l14 106q-33 -50 -86 -81.5t-117 -31.5z" />
    <glyph glyph-name="Ubreve" unicode="&#x16c;" horiz-adv-x="715" 
d="M451 816q-63 0 -101 42.5t-30 105.5h51q-5 -41 20.5 -69t68.5 -28q41 0 76 28t45 69h50q-13 -62 -65.5 -105t-114.5 -43zM308 -9q-121 0 -187 78t-43 209l80 452h79l-79 -451q-17 -100 28.5 -154t132.5 -54q88 0 155 54t85 154l79 451h80l-80 -452q-23 -131 -116.5 -209
t-213.5 -78z" />
    <glyph glyph-name="ubreve" unicode="&#x16d;" horiz-adv-x="635" 
d="M374 646q-63 0 -100.5 43t-29.5 105h51q-5 -41 20 -69t68 -28q41 0 76.5 28t45.5 69h51q-15 -62 -67.5 -105t-114.5 -43zM246 -7q-101 0 -152 71.5t-27 206.5l49 279h76l-49 -279q-18 -99 20 -150.5t111 -51.5t129 51.5t74 150.5l49 279h76l-96 -550h-71l14 106
q-33 -50 -86 -81.5t-117 -31.5z" />
    <glyph glyph-name="Uring" unicode="&#x16e;" horiz-adv-x="715" 
d="M452 781q-46 0 -74 31.5t-20 77.5q9 47 47.5 78.5t84.5 31.5t74 -31.5t19 -78.5q-8 -46 -46.5 -77.5t-84.5 -31.5zM460 830q26 0 46 17.5t24 42.5q5 26 -9 43.5t-39 17.5t-45.5 -17.5t-25.5 -43.5q-4 -26 10 -43t39 -17zM308 -9q-121 0 -187 78t-43 209l80 452h79
l-79 -451q-17 -100 28.5 -154t132.5 -54q88 0 155 54t85 154l79 451h80l-80 -452q-23 -131 -116.5 -209t-213.5 -78z" />
    <glyph glyph-name="uring" unicode="&#x16f;" horiz-adv-x="635" 
d="M370 611q-46 0 -74 31.5t-20 77.5q9 47 48 78.5t85 31.5t73.5 -32t18.5 -78q-7 -46 -46 -77.5t-85 -31.5zM378 660q26 0 46 17.5t24 42.5q5 26 -9 43.5t-39 17.5t-45.5 -17.5t-25.5 -43.5q-4 -26 10 -43t39 -17zM246 -7q-101 0 -152 71.5t-27 206.5l49 279h76l-49 -279
q-18 -99 20 -150.5t111 -51.5t129 51.5t74 150.5l49 279h76l-96 -550h-71l14 106q-33 -50 -86 -81.5t-117 -31.5z" />
    <glyph glyph-name="Uhungarumlaut" unicode="&#x170;" horiz-adv-x="715" 
d="M368 794h-54l123 192h71zM553 794h-53l122 192h71zM308 -9q-126 0 -189 80t-41 207l80 452h79l-79 -451q-17 -95 26.5 -151.5t134.5 -56.5q88 0 155 54t85 154l79 451h80l-80 -452q-23 -131 -116.5 -209t-213.5 -78z" />
    <glyph glyph-name="uhungarumlaut" unicode="&#x171;" horiz-adv-x="635" 
d="M284 624h-54l123 192h71zM469 624h-54l123 192h71zM246 -7q-101 0 -152 71.5t-27 206.5l49 279h76l-49 -279q-18 -99 20 -150.5t111 -51.5t129 51.5t74 150.5l49 279h76l-96 -550h-71l14 106q-33 -50 -86 -81.5t-117 -31.5z" />
    <glyph glyph-name="Uogonek" unicode="&#x172;" horiz-adv-x="715" 
d="M413 -177q-29 0 -48 20t-19 51q0 47 51 110q-40 -13 -89 -13q-126 0 -189 80t-41 207l80 452h79l-79 -451q-17 -95 26.5 -151.5t134.5 -56.5q88 0 155 54t85 154l79 451h80l-80 -452q-28 -159 -156 -238q-59 -63 -72 -89q-10 -20 -10 -37q0 -16 8 -26t22 -10q27 0 51 26
l18 -39q-34 -42 -86 -42z" />
    <glyph glyph-name="uogonek" unicode="&#x173;" horiz-adv-x="629" 
d="M433 -219q-34 0 -53.5 25t-12.5 64q3 17 10 32.5t19 31t19.5 23.5t24 24t19.5 19h-27l15 106q-33 -49 -86 -81t-117 -32q-102 0 -153 71t-27 207l49 279h76l-49 -279q-17 -99 20.5 -150.5t110.5 -51.5t129.5 51.5t73.5 150.5l49 279h76l-96 -550q-5 -6 -14.5 -17
t-13.5 -15.5t-12 -14t-11.5 -14t-9 -12t-8 -12t-6 -11t-5 -12t-2.5 -11.5q-4 -18 4.5 -31.5t24.5 -13.5q28 0 50 26l19 -39q-36 -42 -86 -42z" />
    <glyph glyph-name="Wcircumflex" unicode="&#x174;" horiz-adv-x="1016" 
d="M534 828h-70l128 125h72l85 -125h-70l-58 83zM283 0h-82l-98 730h83l81 -594l285 595h73l75 -595l290 594h84l-354 -730h-82l-73 594z" />
    <glyph glyph-name="wcircumflex" unicode="&#x175;" horiz-adv-x="875" 
d="M433 658h-70l128 125h72l85 -125h-70l-58 83zM242 0h-76l-98 550h81l75 -433l223 433h77l71 -433l227 433h81l-290 -550h-76l-72 430z" />
    <glyph glyph-name="Ycircumflex" unicode="&#x176;" horiz-adv-x="645" 
d="M348 828h-70l128 125h72l85 -125h-70l-58 83zM314 0h-80l56 316l-195 414h92l159 -323l272 323h92l-341 -416z" />
    <glyph glyph-name="ycircumflex" unicode="&#x177;" horiz-adv-x="563" 
d="M277 658h-70l128 125h72l85 -125h-70l-58 83zM25 -224q-50 0 -95 21l36 68q34 -16 69 -16q47 0 86 40t85 118l-130 543h82l101 -441l255 441h82l-314 -550q-70 -120 -127 -172t-130 -52z" />
    <glyph glyph-name="Ydieresis" unicode="&#x178;" horiz-adv-x="645" 
d="M328 844q-17 0 -28 11t-11 28q0 21 17 37t38 16q16 0 27 -10.5t11 -26.5q0 -21 -17 -38t-37 -17zM519 844q-17 0 -28 11t-11 28q0 21 17 37t38 16q16 0 27 -10.5t11 -26.5q0 -21 -16.5 -38t-37.5 -17zM314 0h-80l56 316l-195 414h92l159 -323l272 323h92l-341 -416z" />
    <glyph glyph-name="Zacute" unicode="&#x179;" horiz-adv-x="641" 
d="M436 812h-52l88 156h71zM548 0h-551l13 79l536 573h-425l14 78h531l-14 -79l-536 -572h445z" />
    <glyph glyph-name="zacute" unicode="&#x17a;" horiz-adv-x="576" 
d="M347 642h-53l89 156h71zM474 0h-468l10 60l425 420h-351l12 70h454l-10 -62l-420 -416h360z" />
    <glyph glyph-name="Zdotaccent" unicode="&#x17b;" horiz-adv-x="641" 
d="M421 839q-19 0 -31.5 12t-12.5 31q0 24 18.5 41.5t42.5 17.5q18 0 30 -12t12 -29q0 -24 -18 -42.5t-41 -18.5zM548 0h-551l13 79l536 573h-425l14 78h531l-14 -79l-536 -572h445z" />
    <glyph glyph-name="zdotaccent" unicode="&#x17c;" horiz-adv-x="576" 
d="M358 669q-19 0 -31 12t-12 31q0 24 18.5 41.5t42.5 17.5q18 0 30 -12t12 -29q0 -24 -18.5 -42.5t-41.5 -18.5zM474 0h-468l10 60l425 420h-351l12 70h454l-10 -62l-420 -416h360z" />
    <glyph glyph-name="Zcaron" unicode="&#x17d;" horiz-adv-x="641" 
d="M451 828h-72l-84 125h70l58 -83l87 83h70zM548 0h-551l13 79l536 573h-425l14 78h531l-14 -79l-536 -572h445z" />
    <glyph glyph-name="zcaron" unicode="&#x17e;" horiz-adv-x="576" 
d="M392 658h-72l-85 125h70l58 -83l87 83h70zM474 0h-468l10 60l425 420h-351l12 70h454l-10 -62l-420 -416h360z" />
    <glyph glyph-name="longs" unicode="&#x17f;" horiz-adv-x="349" 
d="M206 574l-101 -575l-75 1l100 574q20 116 79 167.5t141 51.5q35 0 63 -10l-32 -68q-25 5 -39 5q-53 0 -87.5 -32.5t-48.5 -113.5z" />
    <glyph glyph-name="uni018F" unicode="&#x18f;" horiz-adv-x="805" 
d="M353 -10q-152 0 -232.5 107.5t-51.5 267.5q2 15 8 35h619q12 121 -54 193.5t-191 72.5q-63 0 -131.5 -24.5t-112.5 -65.5l-52 46q58 54 143 86t167 32q167 0 250 -104t54 -271q-29 -161 -145 -268t-271 -107zM365 64q111 0 199.5 75.5t118.5 190.5h-541
q-11 -115 50.5 -190.5t172.5 -75.5z" />
    <glyph glyph-name="florin" unicode="&#x192;" horiz-adv-x="424" 
d="M15 -13q-32 0 -64 10l32 69q27 -5 39 -5q54 0 88 32.5t48 113.5l49 274h-50l13 70h49l4 23q20 116 78.5 167.5t140.5 51.5q36 0 64 -10l-33 -68q-25 5 -38 5q-54 0 -88 -32.5t-48 -113.5l-4 -23h148l-12 -70h-148l-49 -274q-20 -116 -78.5 -168t-140.5 -52z" />
    <glyph glyph-name="uni019D" unicode="&#x19d;" horiz-adv-x="789" 
d="M-70 -140l14 81q88 0 111 125l117 664h80l347 -586l103 586h80l-128 -730h-80l-347 588l-93 -529q-19 -98 -72.5 -148.5t-131.5 -50.5z" />
    <glyph glyph-name="Ohorn" unicode="&#x1a0;" horiz-adv-x="858" 
d="M65 306q0 115 55.5 214t156.5 159t225 60q155 0 247 -107q17 3 31.5 15t17.5 29l15 85h51l-17 -97q-5 -27 -23.5 -46t-44.5 -28q46 -72 46 -167q0 -115 -55.5 -214t-156.5 -159.5t-225 -60.5q-141 0 -232 90.5t-91 226.5zM147 313q0 -105 69.5 -173.5t176.5 -68.5
q145 0 247 103.5t102 242.5q0 103 -69.5 172t-176.5 69q-146 0 -247.5 -104t-101.5 -241z" />
    <glyph glyph-name="ohorn" unicode="&#x1a1;" horiz-adv-x="652" 
d="M282 -7q-105 0 -173.5 69.5t-68.5 171.5q0 134 95 228.5t236 94.5q106 0 177 -76q40 15 45 43l14 85h52l-17 -97q-4 -21 -21 -41t-42 -31q33 -55 33 -122q0 -133 -94 -229t-236 -96zM290 70q103 0 173.5 72.5t70.5 168.5q0 72 -48.5 120.5t-123.5 48.5q-104 0 -174 -71.5
t-70 -168.5q0 -73 48 -121.5t124 -48.5z" />
    <glyph glyph-name="Uhorn" unicode="&#x1af;" horiz-adv-x="724" 
d="M308 -9q-121 0 -187 78t-43 209l80 452h79l-79 -451q-17 -100 28.5 -154t132.5 -54q88 0 155 54t85 154l79 451h57q32 0 39 33l12 67h51l-13 -78q-13 -65 -75 -74l-71 -400q-23 -131 -116.5 -209t-213.5 -78z" />
    <glyph glyph-name="uhorn" unicode="&#x1b0;" horiz-adv-x="630" 
d="M244 -7q-102 0 -153 71t-27 207l49 279h76l-49 -279q-17 -99 20.5 -150.5t110.5 -51.5t129.5 51.5t73.5 150.5l49 279h55q28 5 32 31l15 85h51l-16 -96q-9 -49 -68 -64l-89 -506h-71l15 106q-33 -49 -86 -81t-117 -32z" />
    <glyph glyph-name="uni01CD" unicode="&#x1cd;" horiz-adv-x="677" 
d="M474 828h-72l-84 125h70l58 -83l87 83h70zM61 0h-89l403 730h87l147 -730h-85l-43 211h-304zM401 623l-186 -337h255z" />
    <glyph glyph-name="uni01CE" unicode="&#x1ce;" 
d="M431 658h-72l-84 125h70l58 -83l87 83h70zM269 -7q-98 0 -164 69t-66 169q0 129 95.5 227.5t225.5 98.5q72 0 129 -38.5t73 -96.5l25 128h71l-96 -550h-71l18 126q-36 -58 -102 -95.5t-138 -37.5zM290 69q96 0 171.5 73t75.5 169q0 73 -48.5 122t-124.5 49
q-95 0 -170.5 -74.5t-75.5 -168.5q0 -73 48.5 -121.5t123.5 -48.5z" />
    <glyph glyph-name="uni01CF" unicode="&#x1cf;" horiz-adv-x="255" 
d="M261 828h-72l-85 125h70l58 -83l87 83h70zM120 0h-80l128 730h80z" />
    <glyph glyph-name="uni01D0" unicode="&#x1d0;" horiz-adv-x="231" 
d="M220 658h-72l-85 125h70l58 -83l87 83h70zM106 0h-76l96 550h76z" />
    <glyph glyph-name="uni01D1" unicode="&#x1d1;" horiz-adv-x="858" 
d="M550 828h-72l-85 125h70l58 -83l87 83h70zM388 -11q-141 0 -232 90.5t-91 226.5q0 115 55.5 214t156.5 159t225 60q141 0 232 -90.5t91 -225.5q0 -115 -55.5 -214t-156.5 -159.5t-225 -60.5zM393 71q145 0 247 103.5t102 242.5q0 103 -69.5 172t-176.5 69
q-146 0 -247.5 -104t-101.5 -241q0 -105 69.5 -173.5t176.5 -68.5z" />
    <glyph glyph-name="uni01D2" unicode="&#x1d2;" horiz-adv-x="653" 
d="M428 658h-72l-84 125h70l57 -83l88 83h70zM283 -7q-106 0 -174.5 69.5t-68.5 171.5q0 134 94.5 228.5t236.5 94.5q103 0 172 -69.5t69 -169.5q0 -133 -94 -229t-235 -96zM290 70q103 0 173.5 72.5t70.5 168.5q0 72 -48.5 120.5t-122.5 48.5q-104 0 -174.5 -71.5
t-70.5 -168.5q0 -73 48.5 -121.5t123.5 -48.5z" />
    <glyph glyph-name="uni01D3" unicode="&#x1d3;" horiz-adv-x="715" 
d="M491 828h-72l-84 125h70l57 -83l88 83h70zM306 -9q-121 0 -186 78t-42 209l80 452h79l-79 -451q-17 -100 28.5 -154t132.5 -54q88 0 155 54t85 154l79 451h80l-80 -452q-23 -132 -115 -209.5t-217 -77.5z" />
    <glyph glyph-name="uni01D4" unicode="&#x1d4;" horiz-adv-x="635" 
d="M414 658h-72l-84 125h70l57 -83l88 83h70zM246 -7q-101 0 -152 71.5t-27 206.5l49 279h76l-49 -279q-18 -99 20 -150.5t111 -51.5t129 51.5t74 150.5l49 279h76l-96 -550h-71l14 106q-33 -50 -86 -81.5t-117 -31.5z" />
    <glyph glyph-name="uni01D5" unicode="&#x1d5;" horiz-adv-x="715" 
d="M663 986h-360l11 64h360zM357 824q-19 0 -30.5 13.5t-7.5 32.5t19.5 32.5t34.5 13.5q18 0 29.5 -13.5t8.5 -32.5q-4 -19 -19.5 -32.5t-34.5 -13.5zM548 824q-19 0 -30 13.5t-7 32.5q3 19 18.5 32.5t34.5 13.5t30 -13.5t8 -32.5q-4 -19 -19.5 -32.5t-34.5 -13.5zM308 -9
q-121 0 -187 78t-43 209l80 452h79l-79 -451q-17 -100 28.5 -154t132.5 -54q88 0 155 54t85 154l79 451h80l-80 -452q-23 -131 -116.5 -209t-213.5 -78z" />
    <glyph glyph-name="uni01D6" unicode="&#x1d6;" horiz-adv-x="635" 
d="M586 814h-360l11 65h360zM280 652q-19 0 -30.5 13.5t-7.5 32.5q3 19 18.5 32.5t35.5 13.5q18 0 29.5 -13.5t7.5 -32.5t-19.5 -32.5t-33.5 -13.5zM471 652q-19 0 -30.5 13.5t-7.5 32.5t19.5 32.5t34.5 13.5q18 0 29.5 -13.5t8.5 -32.5q-5 -19 -20.5 -32.5t-33.5 -13.5z
M246 -7q-101 0 -152 71.5t-27 206.5l49 279h76l-49 -279q-18 -99 20 -150.5t111 -51.5t129 51.5t74 150.5l49 279h76l-96 -550h-71l14 106q-33 -50 -86 -81.5t-117 -31.5z" />
    <glyph glyph-name="uni01D7" unicode="&#x1d7;" horiz-adv-x="715" 
d="M505 932h-53l89 156h71zM353 787q-19 0 -30.5 13.5t-7.5 32.5q3 19 18.5 32.5t34.5 13.5t30.5 -13.5t7.5 -32.5t-19.5 -32.5t-33.5 -13.5zM544 787q-19 0 -30.5 13.5t-7.5 32.5t19.5 32.5t34.5 13.5q18 0 29.5 -13.5t8.5 -32.5q-5 -20 -20 -33t-34 -13zM308 -9
q-121 0 -187 78t-43 209l80 452h79l-79 -451q-17 -100 28.5 -154t132.5 -54q88 0 155 54t85 154l79 451h80l-80 -452q-23 -131 -116.5 -209t-213.5 -78z" />
    <glyph glyph-name="uni01D8" unicode="&#x1d8;" horiz-adv-x="635" 
d="M427 760h-52l88 156h71zM275 615q-19 0 -30 13.5t-7 32.5q3 19 19 32.5t35 13.5q18 0 29 -13.5t8 -32.5t-19 -32.5t-35 -13.5zM467 615q-19 0 -30 13.5t-8 32.5t19 32.5t35 13.5t30 -13.5t7 -32.5q-3 -19 -19 -32.5t-34 -13.5zM246 -7q-101 0 -152 71.5t-27 206.5l49 279
h76l-49 -279q-18 -99 20 -150.5t111 -51.5t129 51.5t74 150.5l49 279h76l-96 -550h-71l14 106q-33 -50 -86 -81.5t-117 -31.5z" />
    <glyph glyph-name="uni01D9" unicode="&#x1d9;" horiz-adv-x="715" 
d="M504 946h-72l-85 125h70l58 -83l87 83h70zM351 805q-19 0 -30 13.5t-7 32.5q3 19 18.5 32.5t35.5 13.5q18 0 29 -13.5t8 -32.5q-4 -19 -19.5 -32.5t-34.5 -13.5zM543 805q-19 0 -30.5 13.5t-7.5 32.5q3 19 19 32.5t35 13.5q18 0 29 -13.5t8 -32.5t-19 -32.5t-34 -13.5z
M308 -9q-121 0 -187 78t-43 209l80 452h79l-79 -451q-17 -100 28.5 -154t132.5 -54q88 0 155 54t85 154l79 451h80l-80 -452q-23 -131 -116.5 -209t-213.5 -78z" />
    <glyph glyph-name="uni01DA" unicode="&#x1da;" horiz-adv-x="635" 
d="M435 773h-72l-85 125h70l58 -83l87 83h70zM282 633q-19 0 -30 13.5t-8 32.5q4 19 20 32.5t35 13.5q18 0 29 -13.5t8 -32.5q-4 -19 -19.5 -32.5t-34.5 -13.5zM473 633q-19 0 -30 13.5t-7 32.5q3 19 19 32.5t35 13.5q18 0 29 -13.5t8 -32.5t-19 -32.5t-35 -13.5zM246 -7
q-101 0 -152 71.5t-27 206.5l49 279h76l-49 -279q-18 -99 20 -150.5t111 -51.5t129 51.5t74 150.5l49 279h76l-96 -550h-71l14 106q-33 -50 -86 -81.5t-117 -31.5z" />
    <glyph glyph-name="uni01DB" unicode="&#x1db;" horiz-adv-x="715" 
d="M496 932h-53l-52 156h71zM344 787q-20 0 -31 13.5t-7 32.5q3 19 18.5 32.5t34.5 13.5t30.5 -13.5t7.5 -32.5t-19.5 -32.5t-33.5 -13.5zM535 787q-19 0 -30.5 13.5t-7.5 32.5t19.5 32.5t34.5 13.5q18 0 29.5 -13.5t7.5 -32.5t-19.5 -32.5t-33.5 -13.5zM308 -9
q-121 0 -187 78t-43 209l80 452h79l-79 -451q-17 -100 28.5 -154t132.5 -54q88 0 155 54t85 154l79 451h80l-80 -452q-23 -131 -116.5 -209t-213.5 -78z" />
    <glyph glyph-name="uni01DC" unicode="&#x1dc;" horiz-adv-x="635" 
d="M427 760h-52l-52 156h71zM275 615q-19 0 -30 13.5t-7 32.5q3 19 19 32.5t35 13.5q18 0 29 -13.5t8 -32.5t-19 -32.5t-35 -13.5zM467 615q-19 0 -30 13.5t-8 32.5t19 32.5t35 13.5t30 -13.5t7 -32.5q-3 -19 -19 -32.5t-34 -13.5zM246 -7q-101 0 -152 71.5t-27 206.5
l49 279h76l-49 -279q-18 -99 20 -150.5t111 -51.5t129 51.5t74 150.5l49 279h76l-96 -550h-71l14 106q-33 -50 -86 -81.5t-117 -31.5z" />
    <glyph glyph-name="uni01DE" unicode="&#x1de;" horiz-adv-x="677" 
d="M642 979h-360l11 65h360zM336 817q-16 0 -27 11t-11 28q0 21 17 37t38 16q16 0 26.5 -10.5t10.5 -27.5q0 -22 -16.5 -38t-37.5 -16zM528 817q-17 0 -28 11t-11 28q0 21 17 37t38 16q16 0 26.5 -10.5t10.5 -27.5q0 -21 -16.5 -37.5t-36.5 -16.5zM61 0h-89l403 730h87
l147 -730h-85l-43 211h-304zM401 623l-186 -337h255z" />
    <glyph glyph-name="uni01DF" unicode="&#x1df;" horiz-adv-x="672" 
d="M612 814h-360l10 65h360zM306 652q-17 0 -28 11t-11 27q0 22 16.5 38t37.5 16q17 0 27.5 -11t10.5 -27q0 -22 -16.5 -38t-36.5 -16zM497 652q-17 0 -28 11t-11 27q0 21 17 37.5t38 16.5q16 0 27 -11t11 -27q0 -21 -16.5 -37.5t-37.5 -16.5zM265 -7q-99 0 -164.5 68.5
t-65.5 169.5q0 129 95.5 227.5t225.5 98.5q72 0 128.5 -38.5t72.5 -96.5l25 128h71l-96 -550h-71l19 126q-37 -58 -103 -95.5t-137 -37.5zM286 69q96 0 171.5 73t75.5 169q0 73 -49 122t-125 49q-95 0 -170.5 -74.5t-75.5 -168.5q0 -73 49 -121.5t124 -48.5z" />
    <glyph glyph-name="uni01E2" unicode="&#x1e2;" horiz-adv-x="940" 
d="M738 858h-360l11 65h360zM847 -1h-450l43 243h-256l-132 -242h-90l406 730h604l-13 -75h-367l-42 -241h346l-13 -74h-346l-47 -263h370zM408 655l-186 -338h231l60 338h-105z" />
    <glyph glyph-name="uni01E3" unicode="&#x1e3;" horiz-adv-x="1024" 
d="M792 688h-360l18 65h360zM213 -10q-94 0 -147 49t-40 125t80 122.5t171 46.5h185q13 72 -25 115t-116 43q-107 0 -180 -61l-41 42q102 87 240 87q75 0 124.5 -36t61.5 -99q44 64 111 99.5t138 35.5q104 0 167 -71t44 -176q-5 -27 -10 -45h-442q-15 -96 30.5 -152
t128.5 -56q106 0 184 83l53 -37q-48 -53 -114 -84t-132 -31q-82 0 -137 42t-73 111q-40 -73 -109 -113t-152 -40zM547 332h368q8 68 -34 111.5t-112 43.5q-77 0 -138.5 -47t-83.5 -108zM228 62q90 0 147.5 52.5t70.5 127.5l5 25h-180q-69 0 -113.5 -27.5t-52.5 -73.5
q-8 -48 26 -76t97 -28z" />
    <glyph glyph-name="Gcaron" unicode="&#x1e6;" horiz-adv-x="846" 
d="M547 828h-72l-85 125h70l58 -83l87 83h70zM387 -11q-138 0 -230 91.5t-92 226.5q0 115 59 214.5t160.5 158.5t218.5 59q90 0 164.5 -39.5t114.5 -106.5l-77 -43q-33 50 -87.5 79t-121.5 29q-90 0 -171 -48.5t-129.5 -128.5t-48.5 -168q0 -105 69.5 -173.5t176.5 -68.5
q119 0 207 72.5t115 190.5h-297l13 75h382q0 -24 -4 -44q-30 -168 -144 -272t-278 -104z" />
    <glyph glyph-name="gcaron" unicode="&#x1e7;" 
d="M422 658h-72l-84 125h70l57 -83l88 83h70zM231 -228q-70 0 -131 29.5t-91 79.5l64 43q24 -37 68.5 -57.5t97.5 -20.5q95 0 166.5 58t92.5 173l9 47q-37 -57 -101 -94t-137 -37q-100 0 -165 69.5t-65 168.5q0 130 93.5 228t227.5 98q72 0 129 -38.5t73 -96.5l25 128h71
l-82 -465q-27 -156 -117 -234.5t-228 -78.5zM290 69q96 0 171.5 73t75.5 169q0 73 -48.5 122t-124.5 49q-99 0 -172.5 -73.5t-73.5 -169.5q0 -73 48.5 -121.5t123.5 -48.5z" />
    <glyph glyph-name="uni01EA" unicode="&#x1ea;" horiz-adv-x="858" 
d="M467 -187q-30 0 -49 19.5t-19 50.5q0 47 53 111q-35 -5 -64 -5q-141 0 -232 90.5t-91 226.5q0 115 55.5 214t156.5 159t225 60q141 0 232 -90.5t91 -225.5q0 -143 -85 -258.5t-223 -156.5q-49 -55 -58 -80q-5 -14 -5 -26q0 -15 8 -24.5t21 -9.5q27 0 51 26l18 -39
q-34 -42 -85 -42zM393 71q145 0 247 103.5t102 242.5q0 103 -69.5 172t-176.5 69q-146 0 -247.5 -104t-101.5 -241q0 -105 69.5 -173.5t176.5 -68.5z" />
    <glyph glyph-name="uni01EB" unicode="&#x1eb;" horiz-adv-x="652" 
d="M322 -193q-29 0 -47.5 19.5t-18.5 50.5q0 50 51 117q-4 0 -12 -0.5t-13 -0.5q-105 0 -173.5 69.5t-68.5 171.5q0 132 94.5 227.5t236.5 95.5q103 0 172 -69.5t69 -169.5q0 -108 -67 -196.5t-175 -115.5q-60 -72 -60 -109q0 -35 29 -35q28 0 51 25l19 -38q-34 -42 -87 -42
zM290 70q103 0 173.5 72.5t70.5 168.5q0 72 -48.5 120.5t-123.5 48.5q-104 0 -174 -71.5t-70 -168.5q0 -73 48 -121.5t124 -48.5z" />
    <glyph glyph-name="Aringacute" unicode="&#x1fa;" horiz-adv-x="677" 
d="M521 973h-52l88 156h71zM424 740q-41 0 -69 26.5t-28 65.5q0 52 40 90t92 38q41 0 69 -27t28 -67q0 -52 -40 -89t-92 -37zM431 789q29 0 50 21t21 51q0 21 -14 35.5t-36 14.5q-29 0 -50 -22t-21 -52q0 -21 14 -34.5t36 -13.5zM61 0h-89l403 730h87l147 -730h-85l-43 211
h-304zM401 623l-186 -337h255z" />
    <glyph glyph-name="aringacute" unicode="&#x1fb;" 
d="M488 831h-52l88 156h71zM388 599q-41 0 -68 25.5t-27 64.5q0 53 41 91t94 38q41 0 67.5 -25.5t26.5 -65.5q0 -52 -41 -90t-93 -38zM397 648q29 0 50 21t21 51q0 21 -14 35t-36 14q-29 0 -50 -22t-21 -51q0 -21 13.5 -34.5t36.5 -13.5zM269 -7q-98 0 -164 69t-66 169
q0 129 95.5 227.5t225.5 98.5q72 0 129 -38.5t73 -96.5l25 128h71l-96 -550h-71l18 126q-36 -58 -102 -95.5t-138 -37.5zM290 69q96 0 171.5 73t75.5 169q0 73 -48.5 122t-124.5 49q-95 0 -170.5 -74.5t-75.5 -168.5q0 -73 48.5 -121.5t123.5 -48.5z" />
    <glyph glyph-name="AEacute" unicode="&#x1fc;" horiz-adv-x="940" 
d="M555 812h-53l88 156h71zM847 -1h-450l43 243h-256l-132 -242h-90l406 730h604l-13 -75h-367l-42 -241h346l-13 -74h-346l-47 -263h370zM408 655l-186 -338h231l60 338h-105z" />
    <glyph glyph-name="aeacute" unicode="&#x1fd;" horiz-adv-x="1024" 
d="M579 642h-53l89 156h71zM213 -10q-94 0 -147 49t-40 125t80 122.5t171 46.5h185q13 72 -25 115t-116 43q-107 0 -180 -61l-41 42q102 87 240 87q75 0 124.5 -36t61.5 -99q44 64 111 99.5t138 35.5q104 0 167 -71t44 -176q-5 -27 -10 -45h-442q-15 -96 30.5 -152
t128.5 -56q106 0 184 83l53 -37q-48 -53 -114 -84t-132 -31q-82 0 -137 42t-73 111q-40 -73 -109 -113t-152 -40zM547 332h368q8 68 -34 111.5t-112 43.5q-77 0 -138.5 -47t-83.5 -108zM228 62q90 0 147.5 52.5t70.5 127.5l5 25h-180q-69 0 -113.5 -27.5t-52.5 -73.5
q-8 -48 26 -76t97 -28z" />
    <glyph glyph-name="Oslashacute" unicode="&#x1fe;" horiz-adv-x="861" 
d="M507 812h-52l88 156h71zM390 -11q-140 0 -232 92l-89 -75l-38 45l90 77q-54 79 -54 178q0 115 55.5 214t157 159t225.5 60q139 0 229 -90l89 75l37 -45l-88 -75q56 -78 56 -181q0 -115 -55.5 -214t-157 -159.5t-225.5 -60.5zM189 186l477 405q-64 67 -167 67
q-146 0 -247.5 -104t-101.5 -241q0 -72 39 -127zM396 71q145 0 247 103.5t102 242.5q0 75 -40 130l-479 -408q65 -68 170 -68z" />
    <glyph glyph-name="oslashacute" unicode="&#x1ff;" horiz-adv-x="656" 
d="M403 642h-53l89 156h71zM284 -7q-106 0 -174 70l-75 -64l-33 39l77 64q-37 56 -37 130q0 135 95.5 230t235.5 95q100 0 167 -64l81 70l31 -39l-80 -68q42 -59 42 -135q0 -134 -95 -231t-235 -97zM138 153l342 291q-46 43 -114 43q-106 0 -178.5 -72.5t-74.5 -171.5
q0 -51 25 -90zM290 63q105 0 178 73.5t75 171.5q0 56 -31 98l-343 -293q47 -50 121 -50z" />
    <glyph glyph-name="uni0218" unicode="&#x218;" horiz-adv-x="611" 
d="M275 -9q-75 0 -143 27.5t-113 85.5l60 52q73 -90 203 -91q82 -1 134.5 38t52.5 107q0 40 -26.5 69.5t-66.5 46t-87 36t-87 39t-66.5 55t-26.5 83.5q0 93 71.5 147.5t184.5 54.5q67 0 135 -29t100 -88l-63 -45q-21 39 -70 63t-103 25q-80 0 -127.5 -34t-47.5 -86
q0 -40 37 -67.5t90 -46.5t106 -41.5t90 -65t37 -104.5q0 -109 -76.5 -170.5t-197.5 -60.5zM238 -198h-61l44 151h71z" />
    <glyph glyph-name="uni0219" unicode="&#x219;" horiz-adv-x="558" 
d="M252 -8q-67 0 -134.5 23.5t-102.5 72.5l60 49q21 -32 73.5 -52.5t110.5 -20.5q67 0 109.5 25.5t42.5 72.5q0 32 -33 52.5t-80.5 32.5t-95 26.5t-80.5 45t-33 77.5q0 76 59.5 118.5t160.5 42.5q63 0 122.5 -20.5t92.5 -69.5l-56 -46q-21 34 -68 50.5t-95 16.5
q-61 0 -100 -20.5t-39 -61.5q0 -29 33.5 -47.5t80.5 -30.5t94.5 -27.5t81 -47.5t33.5 -81q0 -87 -67 -133.5t-170 -46.5zM212 -196h-61l44 151h72z" />
    <glyph glyph-name="uni021A" unicode="&#x21a;" horiz-adv-x="594" 
d="M289 0h-79l114 653h-233l14 77h544l-14 -77h-231zM232 -196h-62l45 151h71z" />
    <glyph glyph-name="uni021B" unicode="&#x21b;" horiz-adv-x="380" 
d="M222 -8q-84 0 -118.5 55.5t-18.5 144.5l51 288h-74l11 70h77l40 180h66l-32 -180h135l-12 -70h-135l-51 -287q-19 -127 83 -127q26 0 45 8l8 -69q-32 -13 -75 -13zM117 -196h-62l45 151h71z" />
    <glyph glyph-name="uni0228" unicode="&#x228;" horiz-adv-x="596" 
d="M200 -220q-61 0 -90 25l29 46q7 -7 25.5 -13t37.5 -6q28 0 45 13.5t17 34.5q0 34 -59 34h-35l42 86h-172l128 730h446l-14 -75h-366l-43 -243h347l-13 -74h-347l-46 -261h377l-13 -77h-228l-25 -49q37 -4 56.5 -22.5t19.5 -47.5q0 -45 -34 -73t-85 -28z" />
    <glyph glyph-name="uni0229" unicode="&#x229;" horiz-adv-x="642" 
d="M242 -220q-58 0 -87 25l29 46q7 -7 25.5 -13t37.5 -6q29 0 45.5 13.5t16.5 34.5q0 34 -58 34h-36l39 83q-94 12 -154 78.5t-60 158.5q0 131 94.5 227t229.5 96q116 0 183.5 -76t53.5 -193q-2 -16 -10 -51h-472q-1 -75 49.5 -123.5t127.5 -48.5q113 0 189 83l56 -41
q-97 -107 -232 -113l-21 -43q37 -4 56.5 -22t19.5 -46q0 -43 -36.5 -73t-85.5 -30zM128 298h397q11 83 -34 135.5t-129 52.5q-85 0 -151 -53.5t-83 -134.5z" />
    <glyph glyph-name="uni022A" unicode="&#x22a;" horiz-adv-x="858" 
d="M718 974h-360l11 65h360zM412 817q-16 0 -27 11t-11 28q0 21 17 37t38 16q16 0 26.5 -11t10.5 -27q0 -21 -16.5 -37.5t-37.5 -16.5zM603 817q-16 0 -27 11t-11 28q0 21 17 37t38 16q16 0 26.5 -10.5t10.5 -27.5q0 -22 -16.5 -38t-37.5 -16zM388 -11q-141 0 -232 90.5
t-91 226.5q0 115 55.5 214t156.5 159t225 60q141 0 232 -90.5t91 -225.5q0 -115 -55.5 -214t-156.5 -159.5t-225 -60.5zM393 71q145 0 247 103.5t102 242.5q0 103 -69.5 172t-176.5 69q-146 0 -247.5 -104t-101.5 -241q0 -105 69.5 -173.5t176.5 -68.5z" />
    <glyph glyph-name="uni022B" unicode="&#x22b;" horiz-adv-x="652" 
d="M600 814h-360l11 65h360zM294 652q-17 0 -28 11t-11 27q0 21 17 37.5t38 16.5q16 0 27 -11t11 -27q0 -21 -16.5 -37.5t-37.5 -16.5zM485 652q-16 0 -27.5 11t-11.5 27q0 21 17 37.5t38 16.5q17 0 27.5 -11t10.5 -27q0 -21 -16.5 -37.5t-37.5 -16.5zM282 -7
q-105 0 -173.5 69.5t-68.5 171.5q0 134 95 228.5t236 94.5q103 0 172 -69.5t69 -169.5q0 -133 -94 -229t-236 -96zM290 70q103 0 173.5 72.5t70.5 168.5q0 72 -48.5 120.5t-123.5 48.5q-104 0 -174 -71.5t-70 -168.5q0 -73 48 -121.5t124 -48.5z" />
    <glyph glyph-name="uni0232" unicode="&#x232;" horiz-adv-x="645" 
d="M598 861h-360l11 64h360zM314 0h-80l56 316l-195 414h92l159 -323l272 323h92l-341 -416z" />
    <glyph glyph-name="uni0233" unicode="&#x233;" horiz-adv-x="563" 
d="M534 688h-360l11 65h360zM25 -224q-50 0 -95 21l36 68q34 -16 69 -16q47 0 84 37.5t83 113.5l-126 550h82l101 -441l255 441h82l-314 -550q-70 -120 -127 -172t-130 -52z" />
    <glyph glyph-name="uni0237" unicode="&#x237;" horiz-adv-x="237" 
d="M-90 -230q-38 0 -70 13l34 70q21 -8 41 -8q111 0 138 149l97 556h76l-97 -556q-21 -114 -79.5 -169t-139.5 -55z" />
    <glyph glyph-name="uni0259" unicode="&#x259;" horiz-adv-x="641" 
d="M277 -7q-119 0 -187 81t-47 200q3 15 9 41h471q2 73 -48.5 121.5t-129.5 48.5q-110 0 -187 -82l-55 39q48 53 113.5 84t135.5 31q123 0 195 -85t51 -200q-20 -117 -112 -198t-209 -81zM282 65q81 0 148 54.5t84 131.5h-397q-13 -76 34 -131t131 -55z" />
    <glyph glyph-name="uni0272" unicode="&#x272;" horiz-adv-x="623" 
d="M-83 -140l13 74q89 0 112 130l85 486h71l-14 -106q32 50 85 81.5t117 31.5q102 0 153 -71t27 -207l-49 -279h-76l49 279q17 99 -20.5 151t-110.5 52t-129.5 -51.5t-73.5 -151.5l-39 -216q-18 -101 -69.5 -152t-130.5 -51z" />
    <glyph glyph-name="circumflex" unicode="&#x2c6;" horiz-adv-x="325" 
d="M148 605h-70l129 125h72l84 -125h-70l-58 83z" />
    <glyph glyph-name="caron" unicode="&#x2c7;" horiz-adv-x="325" 
d="M257 605h-72l-85 125h70l58 -83l87 83h70z" />
    <glyph glyph-name="breve" unicode="&#x2d8;" horiz-adv-x="352" 
d="M242 633q-64 0 -102.5 43t-30.5 104h51q-5 -41 20.5 -69t68.5 -28q41 0 75 28t44 69h53q-14 -63 -64.5 -105t-114.5 -42z" />
    <glyph glyph-name="dotaccent" unicode="&#x2d9;" horiz-adv-x="141" 
d="M129 600q-19 0 -31 12t-12 31q0 23 19 41t42 18q18 0 29.5 -12t11.5 -30q0 -24 -18 -42t-41 -18z" />
    <glyph glyph-name="ring" unicode="&#x2da;" horiz-adv-x="265" 
d="M183 563q-41 0 -68 25t-27 65q0 52 41 90.5t93 38.5q41 0 68 -25.5t27 -64.5q0 -53 -41 -91t-93 -38zM192 612q29 0 50 21t21 51q0 22 -14 35.5t-36 13.5q-29 0 -50 -21t-21 -51q0 -21 14 -35t36 -14z" />
    <glyph glyph-name="ogonek" unicode="&#x2db;" horiz-adv-x="200" 
d="M14 -219q-30 0 -49 19.5t-19 50.5q0 5 2 19q9 49 76 123q4 5 6 7h54q-6 -8 -20.5 -24.5t-20 -22.5t-15 -18.5t-13 -19.5l-8 -16t-5.5 -18q-1 -4 -1 -10q0 -15 8.5 -25t21.5 -10q27 0 51 26l18 -39q-36 -42 -86 -42z" />
    <glyph glyph-name="tilde" unicode="&#x2dc;" horiz-adv-x="338" 
d="M301 618q-23 -2 -42 8.5t-29 24.5t-22.5 26t-25.5 12q-34 0 -45 -61h-54q8 49 35.5 80.5t64.5 32.5q23 1 41.5 -10t27.5 -25t22 -25.5t26 -11.5q33 0 43 61h55q-9 -52 -35 -81.5t-62 -30.5z" />
    <glyph glyph-name="hungarumlaut" unicode="&#x2dd;" horiz-adv-x="456" 
d="M164 588h-54l124 192h71zM349 588h-54l124 192h71z" />
    <glyph glyph-name="hookabovecomb" unicode="&#x309;" horiz-adv-x="0" 
d="M-113 661l8 44q72 0 79 42q3 18 -9 29t-38 11q-47 0 -70 -19l-13 46q37 25 96 25q46 0 71 -25.5t18 -63.5t-45 -63.5t-97 -25.5z" />
    <glyph glyph-name="uni031B" unicode="&#x31b;" horiz-adv-x="0" 
d="M-101 582l9 52q18 0 35.5 11.5t20.5 30.5l15 86h52l-18 -97q-6 -39 -41 -61t-73 -22z" />
    <glyph glyph-name="uni0326" unicode="&#x326;" horiz-adv-x="0" 
d="M-161 -183h-62l45 151h71z" />
    <glyph glyph-name="uni0394" unicode="&#x394;" horiz-adv-x="732" 
d="M659 0h-682l11 65l428 665h61l193 -665zM430 642l-371 -577h539z" />
    <glyph glyph-name="uni03A9" unicode="&#x3a9;" horiz-adv-x="852" 
d="M294 0h-280l12 72h159q-56 38 -87.5 102t-31.5 140q0 172 130 298t308 126q138 0 228.5 -86.5t90.5 -215.5q0 -108 -64 -208t-164 -156h159l-12 -72h-280l12 72q114 33 192.5 132.5t78.5 215.5q0 106 -69.5 174.5t-179.5 68.5q-146 0 -251 -104.5t-105 -246.5
q0 -86 45.5 -151.5t120.5 -88.5z" />
    <glyph glyph-name="uni03BC" unicode="&#x3bc;" horiz-adv-x="632" 
d="M63 -220h-76l135 770h76l-49 -282q-6 -32 -6 -59q0 -73 37 -110t101 -37q74 0 131 52.5t75 153.5l49 282h76l-96 -550h-76l16 91q-78 -104 -202 -104q-109 0 -138 92z" />
    <glyph glyph-name="uni1E04" unicode="&#x1e04;" horiz-adv-x="653" 
d="M333 0h-293l128 730h254q100 0 151.5 -53t37.5 -135q-18 -104 -121 -152q61 -18 91 -66.5t18 -116.5q-16 -91 -89 -149t-177 -58zM234 656l-42 -241l181 1q61 1 105.5 34t52.5 83q10 53 -21 88t-99 35h-177zM180 344l-48 -267h209q69 0 117.5 37.5t59.5 96.5
q10 58 -25 95.5t-97 37.5h-216zM240 -159q-19 0 -30.5 12t-11.5 31q0 24 18.5 42t41.5 18q18 0 30 -12.5t12 -30.5q0 -24 -18.5 -42t-41.5 -18z" />
    <glyph glyph-name="uni1E05" unicode="&#x1e05;" 
d="M324 -7q-70 0 -126.5 38t-71.5 95l-25 -126h-71l137 780h76l-63 -356q36 58 101.5 95.5t135.5 37.5q101 0 165.5 -69t64.5 -171q0 -135 -93.5 -229.5t-229.5 -94.5zM324 69q101 0 173.5 71t72.5 171q0 73 -48.5 122t-124.5 49q-96 0 -171.5 -74t-75.5 -169
q0 -73 49 -121.5t125 -48.5zM292 -163q-19 0 -31 12.5t-12 30.5q0 24 18.5 42t42.5 18q18 0 30 -12t12 -31q0 -24 -18.5 -42t-41.5 -18z" />
    <glyph glyph-name="uni1E0C" unicode="&#x1e0c;" horiz-adv-x="745" 
d="M265 0h-225l128 730h212q149 0 240.5 -87.5t91.5 -218.5q0 -178 -130 -301t-317 -123zM233 651l-101 -572h139q149 0 253 99t104 239q0 102 -68.5 168.5t-187.5 66.5zM235 -156q-19 0 -31 12t-12 31q0 23 19 41t42 18q18 0 29.5 -12t11.5 -30q0 -24 -18 -42t-41 -18z" />
    <glyph glyph-name="uni1E0D" unicode="&#x1e0d;" 
d="M269 -7q-98 0 -164 69t-66 169q0 130 94 228t227 98q71 0 127.5 -38t72.5 -95l63 356h76l-137 -780h-71l18 126q-37 -59 -100.5 -96t-139.5 -37zM290 69q101 0 174 72.5t73 169.5q0 73 -48.5 122t-124.5 49q-99 0 -172.5 -73.5t-73.5 -169.5q0 -73 48.5 -121.5
t123.5 -48.5zM250 -163q-19 0 -31 12.5t-12 30.5q0 24 18.5 42t42.5 18q18 0 30 -12t12 -31q0 -24 -18.5 -42t-41.5 -18z" />
    <glyph glyph-name="uni1E0E" unicode="&#x1e0e;" horiz-adv-x="745" 
d="M265 0h-225l128 730h212q149 0 240.5 -87.5t91.5 -218.5q0 -178 -130 -301t-317 -123zM233 651l-101 -572h139q149 0 253 99t104 239q0 102 -68.5 168.5t-187.5 66.5zM389 -138h-360l12 65h360z" />
    <glyph glyph-name="uni1E0F" unicode="&#x1e0f;" 
d="M269 -7q-98 0 -164 69t-66 169q0 130 94 228t227 98q71 0 127.5 -38t72.5 -95l63 356h76l-137 -780h-71l18 126q-37 -59 -100.5 -96t-139.5 -37zM290 69q101 0 174 72.5t73 169.5q0 73 -48.5 122t-124.5 49q-99 0 -172.5 -73.5t-73.5 -169.5q0 -73 48.5 -121.5
t123.5 -48.5zM437 -138h-360l11 65h360z" />
    <glyph glyph-name="uni1E12" unicode="&#x1e12;" horiz-adv-x="745" 
d="M265 0h-225l128 730h212q149 0 240.5 -87.5t91.5 -218.5q0 -178 -130 -301t-317 -123zM233 651l-101 -572h139q149 0 253 99t104 239q0 102 -68.5 168.5t-187.5 66.5zM153 -168h-70l129 125h72l84 -125h-70l-58 83z" />
    <glyph glyph-name="uni1E13" unicode="&#x1e13;" horiz-adv-x="672" 
d="M266 -7q-98 0 -164 69t-66 169q0 130 94 228t226 98q71 0 128 -38t73 -95l62 356h76l-137 -780h-71l19 126q-38 -59 -101.5 -96t-138.5 -37zM287 69q100 0 173 72.5t73 169.5q0 73 -48.5 122t-124.5 49q-99 0 -172.5 -73.5t-73.5 -169.5q0 -73 48.5 -121.5t124.5 -48.5z
M179 -168h-70l129 125h72l84 -125h-70l-58 83z" />
    <glyph glyph-name="uni1E24" unicode="&#x1e24;" horiz-adv-x="738" 
d="M119 0h-79l128 730h79l-57 -326h403l57 326h80l-128 -730h-80l57 325h-403zM294 -158q-19 0 -31 12.5t-12 30.5q0 24 18.5 42t42.5 18q18 0 29.5 -12t11.5 -31q0 -24 -18 -42t-41 -18z" />
    <glyph glyph-name="uni1E25" unicode="&#x1e25;" horiz-adv-x="629" 
d="M106 0h-76l137 780h76l-59 -334q32 49 84.5 80t116.5 31q110 0 155 -76t25 -202l-49 -279h-76l49 279q15 93 -18.5 148t-113.5 55q-73 0 -129 -51.5t-73 -151.5zM219 -163q-19 0 -31 12.5t-12 30.5q0 24 18.5 42t42.5 18q19 0 30.5 -12t11.5 -31q0 -24 -18.5 -42
t-41.5 -18z" />
    <glyph glyph-name="uni1E2E" unicode="&#x1e2e;" horiz-adv-x="254" 
d="M273 925h-53l89 156h71zM121 780q-17 0 -27.5 11t-10.5 28q0 21 16.5 37t37.5 16q17 0 27.5 -11t10.5 -27q0 -21 -16.5 -37.5t-37.5 -16.5zM312 780q-16 0 -27 11t-11 28q0 21 17 37t38 16q16 0 26.5 -11t10.5 -27q0 -21 -16.5 -37.5t-37.5 -16.5zM115 0h-79l128 730h79z
" />
    <glyph glyph-name="uni1E2F" unicode="&#x1e2f;" horiz-adv-x="231" 
d="M241 795h-53l89 156h71zM106 658q-16 0 -25.5 10t-9.5 25q0 20 15 34.5t35 14.5q15 0 24.5 -10t9.5 -25q0 -20 -15 -34.5t-34 -14.5zM262 658q-16 0 -25.5 10t-9.5 25q0 20 15 34.5t35 14.5q15 0 24.5 -10t9.5 -25q0 -20 -15 -34.5t-34 -14.5zM106 0h-76l96 550h76z" />
    <glyph glyph-name="uni1E36" unicode="&#x1e36;" horiz-adv-x="579" 
d="M506 0h-466l128 730h79l-114 -650h386zM215 -163q-19 0 -31 12.5t-12 30.5q0 24 18.5 42t42.5 18q18 0 30 -12t12 -31q0 -24 -18.5 -42t-41.5 -18z" />
    <glyph glyph-name="uni1E37" unicode="&#x1e37;" horiz-adv-x="231" 
d="M106 0h-76l137 780h76zM38 -163q-19 0 -31 12.5t-12 30.5q0 24 19 42t43 18q18 0 29.5 -12t11.5 -31q0 -24 -18.5 -42t-41.5 -18z" />
    <glyph glyph-name="uni1E3C" unicode="&#x1e3c;" horiz-adv-x="579" 
d="M506 0h-466l128 730h79l-114 -650h386zM127 -168h-70l128 125h72l85 -125h-70l-58 83z" />
    <glyph glyph-name="uni1E3D" unicode="&#x1e3d;" horiz-adv-x="231" 
d="M106 0h-76l137 780h76zM-33 -168h-71l129 125h72l85 -125h-70l-58 83z" />
    <glyph glyph-name="uni1E3E" unicode="&#x1e3e;" horiz-adv-x="939" 
d="M559 812h-53l88 156h72zM119 0h-79l128 730h86l207 -501l384 501h86l-128 -730h-80l106 599l-360 -470h-51l-193 470z" />
    <glyph glyph-name="uni1E3F" unicode="&#x1e3f;" horiz-adv-x="911" 
d="M530 642h-53l89 156h71zM106 0h-76l96 550h71l-13 -99q28 50 75.5 78t96.5 28q67 0 105.5 -35.5t44.5 -91.5q27 55 77 91t112 36q91 0 134.5 -64t19.5 -199l-51 -294h-76l51 294q18 98 -11.5 143t-89.5 45q-58 0 -105 -45t-64 -143l-51 -294h-76l51 294q18 98 -12 143
t-89 45t-106.5 -51.5t-64.5 -151.5z" />
    <glyph glyph-name="uni1E44" unicode="&#x1e44;" horiz-adv-x="785" 
d="M501 839q-19 0 -31.5 12t-12.5 31q0 24 18.5 41.5t42.5 17.5q18 0 30.5 -12t12.5 -29q0 -24 -18.5 -42.5t-41.5 -18.5zM119 0h-79l128 730h79l347 -591l104 591h80l-128 -730h-80l-347 593z" />
    <glyph glyph-name="uni1E45" unicode="&#x1e45;" horiz-adv-x="629" 
d="M391 669q-19 0 -31 12t-12 31q0 24 18.5 41.5t42.5 17.5q18 0 30 -12t12 -29q0 -24 -18.5 -42.5t-41.5 -18.5zM106 0h-76l96 550h71l-15 -106q33 50 85.5 81.5t117.5 31.5q110 0 155 -76t25 -202l-49 -279h-76l49 279q15 93 -18.5 148t-113.5 55q-73 0 -129 -51.5
t-73 -151.5z" />
    <glyph glyph-name="uni1E46" unicode="&#x1e46;" horiz-adv-x="785" 
d="M119 0h-79l128 730h79l347 -591l104 591h80l-128 -730h-80l-347 593zM311 -163q-18 0 -30 12.5t-12 30.5q0 24 18.5 42t42.5 18q18 0 29.5 -12t11.5 -31q0 -24 -18.5 -42t-41.5 -18z" />
    <glyph glyph-name="uni1E47" unicode="&#x1e47;" horiz-adv-x="629" 
d="M106 0h-76l96 550h71l-15 -106q33 50 85.5 81.5t117.5 31.5q102 0 152.5 -71t27.5 -207l-49 -279h-76l49 279q17 99 -21 151t-111 52t-129 -51.5t-73 -151.5zM245 -160q-21 0 -33.5 15t-8.5 36t21.5 36t38.5 15q20 0 32.5 -15t8.5 -36t-21.5 -36t-37.5 -15z" />
    <glyph glyph-name="uni1E4A" unicode="&#x1e4a;" horiz-adv-x="785" 
d="M119 0h-79l128 730h79l347 -591l104 591h80l-128 -730h-80l-347 593zM242 -179h-70l129 125h72l84 -125h-70l-58 83z" />
    <glyph glyph-name="uni1E4B" unicode="&#x1e4b;" horiz-adv-x="629" 
d="M106 0h-76l96 550h71l-15 -106q33 50 85.5 81.5t117.5 31.5q102 0 152.5 -71t27.5 -207l-49 -279h-76l49 279q17 99 -21 151t-111 52t-129 -51.5t-73 -151.5zM170 -168h-70l128 125h72l85 -125h-70l-58 83z" />
    <glyph glyph-name="uni1E4C" unicode="&#x1e4c;" horiz-adv-x="858" 
d="M584 996h-53l88 156h71zM596 822q-23 -2 -42 9t-29 25t-23 26t-25 12q-34 0 -46 -62h-54q8 49 36 80.5t64 32.5q23 1 41.5 -10t28 -24.5t22.5 -25.5t26 -12q33 0 43 62h54q-9 -51 -35 -81t-61 -32zM388 -11q-141 0 -232 90.5t-91 226.5q0 115 55.5 214t156.5 159t225 60
q141 0 232 -90.5t91 -225.5q0 -115 -55.5 -214t-156.5 -159.5t-225 -60.5zM393 71q145 0 247 103.5t102 242.5q0 103 -69.5 172t-176.5 69q-146 0 -247.5 -104t-101.5 -241q0 -105 69.5 -173.5t176.5 -68.5z" />
    <glyph glyph-name="uni1E4D" unicode="&#x1e4d;" horiz-adv-x="652" 
d="M435 765h-52l88 156h71zM450 614q-21 0 -39 11t-27.5 25t-21.5 25t-24 11q-35 0 -46 -62h-55q9 50 38 81.5t67 31.5q22 0 39 -11.5t26.5 -24.5t22.5 -24.5t26 -11.5q32 0 42 62h55q-10 -54 -37 -83.5t-66 -29.5zM282 -7q-105 0 -173.5 69.5t-68.5 171.5q0 132 94.5 227.5
t236.5 95.5q103 0 172 -69.5t69 -169.5q0 -132 -94.5 -228.5t-235.5 -96.5zM290 70q103 0 173.5 72.5t70.5 168.5q0 72 -48.5 120.5t-123.5 48.5q-104 0 -174 -71.5t-70 -168.5q0 -73 48 -121.5t124 -48.5z" />
    <glyph glyph-name="uni1E50" unicode="&#x1e50;" horiz-adv-x="858" 
d="M564 917h-53l-13 156h71zM700 802h-360l12 65h360zM388 -11q-141 0 -232 90.5t-91 226.5q0 115 55.5 214t156.5 159t225 60q141 0 232 -90.5t91 -225.5q0 -115 -55.5 -214t-156.5 -159.5t-225 -60.5zM393 71q145 0 247 103.5t102 242.5q0 103 -69.5 172t-176.5 69
q-146 0 -247.5 -104t-101.5 -241q0 -105 69.5 -173.5t176.5 -68.5z" />
    <glyph glyph-name="uni1E51" unicode="&#x1e51;" horiz-adv-x="652" 
d="M430 745h-52l-53 156h72zM567 630h-360l12 65h360zM282 -7q-105 0 -173.5 69.5t-68.5 171.5q0 132 94.5 227.5t236.5 95.5q103 0 172 -69.5t69 -169.5q0 -132 -94.5 -228.5t-235.5 -96.5zM290 70q103 0 173.5 72.5t70.5 168.5q0 72 -48.5 120.5t-123.5 48.5
q-104 0 -174 -71.5t-70 -168.5q0 -73 48 -121.5t124 -48.5z" />
    <glyph glyph-name="uni1E52" unicode="&#x1e52;" horiz-adv-x="858" 
d="M542 920h-53l88 156h71zM701 805h-360l11 65h360zM388 -11q-141 0 -232 90.5t-91 226.5q0 115 55.5 214t156.5 159t225 60q141 0 232 -90.5t91 -225.5q0 -115 -55.5 -214t-156.5 -159.5t-225 -60.5zM393 71q145 0 247 103.5t102 242.5q0 103 -69.5 172t-176.5 69
q-146 0 -247.5 -104t-101.5 -241q0 -105 69.5 -173.5t176.5 -68.5z" />
    <glyph glyph-name="uni1E53" unicode="&#x1e53;" horiz-adv-x="652" 
d="M408 745h-52l88 156h71zM567 630h-360l12 65h360zM282 -7q-105 0 -173.5 69.5t-68.5 171.5q0 132 94.5 227.5t236.5 95.5q103 0 172 -69.5t69 -169.5q0 -132 -94.5 -228.5t-235.5 -96.5zM290 70q103 0 173.5 72.5t70.5 168.5q0 72 -48.5 120.5t-123.5 48.5
q-104 0 -174 -71.5t-70 -168.5q0 -73 48 -121.5t124 -48.5z" />
    <glyph glyph-name="uni1E62" unicode="&#x1e62;" horiz-adv-x="611" 
d="M275 -9q-75 0 -143 27.5t-113 85.5l60 52q73 -90 203 -91q82 -1 134.5 38t52.5 107q0 40 -26.5 69.5t-66.5 46t-87 36t-87 39t-66.5 55t-26.5 83.5q0 93 71.5 147.5t184.5 54.5q67 0 135 -29t100 -88l-63 -45q-21 39 -70 63t-103 25q-80 0 -127.5 -34t-47.5 -86
q0 -40 37 -67.5t90 -46.5t106 -41.5t90 -65t37 -104.5q0 -109 -76.5 -170.5t-197.5 -60.5zM228 -163q-19 0 -31 12.5t-12 30.5q0 24 18.5 42t42.5 18q18 0 30 -12t12 -31q0 -24 -18.5 -42t-41.5 -18z" />
    <glyph glyph-name="uni1E63" unicode="&#x1e63;" horiz-adv-x="558" 
d="M252 -8q-67 0 -134.5 23.5t-102.5 72.5l60 49q21 -32 73.5 -52.5t110.5 -20.5q67 0 109.5 25.5t42.5 72.5q0 32 -33 52.5t-80.5 32.5t-95 26.5t-80.5 45t-33 77.5q0 76 59.5 118.5t160.5 42.5q63 0 122.5 -20.5t92.5 -69.5l-56 -46q-21 34 -68 50.5t-95 16.5
q-61 0 -100 -20.5t-39 -61.5q0 -29 33.5 -47.5t80.5 -30.5t94.5 -27.5t81 -47.5t33.5 -81q0 -87 -67 -133.5t-170 -46.5zM201 -163q-18 0 -30 12.5t-12 30.5q0 24 18.5 42t42.5 18q18 0 29.5 -12t11.5 -31q0 -24 -18.5 -42t-41.5 -18z" />
    <glyph glyph-name="uni1E6C" unicode="&#x1e6c;" horiz-adv-x="594" 
d="M289 0h-79l114 653h-233l14 77h544l-14 -77h-231zM221 -163q-19 0 -31 12.5t-12 30.5q0 24 18.5 42t42.5 18q19 0 30.5 -12t11.5 -31q0 -24 -18.5 -42t-41.5 -18z" />
    <glyph glyph-name="uni1E6D" unicode="&#x1e6d;" horiz-adv-x="380" 
d="M222 -8q-84 0 -118.5 55.5t-18.5 144.5l51 288h-74l11 70h77l40 180h66l-32 -180h135l-12 -70h-135l-51 -287q-19 -127 83 -127q26 0 45 8l8 -69q-32 -13 -75 -13zM98 -163q-18 0 -30 12.5t-12 30.5q0 24 18.5 42t42.5 18q18 0 29.5 -12t11.5 -31q0 -24 -18.5 -42
t-41.5 -18z" />
    <glyph glyph-name="uni1E6E" unicode="&#x1e6e;" horiz-adv-x="594" 
d="M289 0h-79l114 653h-233l14 77h544l-14 -77h-231zM404 -138h-360l12 65h360z" />
    <glyph glyph-name="uni1E6F" unicode="&#x1e6f;" horiz-adv-x="384" 
d="M222 -8q-84 0 -118.5 55.5t-18.5 144.5l51 288h-74l11 70h77l40 180h66l-32 -180h135l-12 -70h-135l-51 -287q-19 -127 83 -127q26 0 45 8l8 -69q-32 -13 -75 -13zM288 -148h-360l11 65h361z" />
    <glyph glyph-name="uni1E70" unicode="&#x1e70;" horiz-adv-x="594" 
d="M289 0h-79l114 653h-233l14 77h544l-14 -77h-231zM144 -175h-70l129 125h72l84 -125h-70l-58 83z" />
    <glyph glyph-name="uni1E71" unicode="&#x1e71;" horiz-adv-x="380" 
d="M222 -8q-84 0 -118.5 55.5t-18.5 144.5l51 288h-74l11 70h77l40 180h66l-32 -180h135l-12 -70h-135l-51 -287q-19 -127 83 -127q26 0 45 8l8 -69q-32 -13 -75 -13zM24 -168h-70l129 125h72l84 -125h-70l-57 83z" />
    <glyph glyph-name="Wgrave" unicode="&#x1e80;" horiz-adv-x="1016" 
d="M621 812h-52l-52 156h71zM283 0h-82l-98 730h83l81 -594l285 595h73l75 -595l290 594h84l-354 -730h-82l-73 594z" />
    <glyph glyph-name="wgrave" unicode="&#x1e81;" horiz-adv-x="875" 
d="M526 642h-53l-51 156h71zM242 0h-76l-98 550h81l75 -433l223 433h77l71 -433l227 433h81l-290 -550h-76l-72 430z" />
    <glyph glyph-name="Wacute" unicode="&#x1e82;" horiz-adv-x="1016" 
d="M627 812h-52l88 156h71zM283 0h-82l-98 730h83l81 -594l285 595h73l75 -595l290 594h84l-354 -730h-82l-73 594z" />
    <glyph glyph-name="wacute" unicode="&#x1e83;" horiz-adv-x="875" 
d="M529 642h-53l89 156h71zM242 0h-76l-98 550h81l75 -433l223 433h77l71 -433l227 433h81l-290 -550h-76l-72 430z" />
    <glyph glyph-name="Wdieresis" unicode="&#x1e84;" horiz-adv-x="1016" 
d="M514 844q-17 0 -28 11t-11 28q0 21 17 37t38 16q16 0 27 -10.5t11 -26.5q0 -21 -17 -38t-37 -17zM705 844q-17 0 -28 11t-11 28q0 21 17 37t38 16q16 0 27 -10.5t11 -26.5q0 -21 -16.5 -38t-37.5 -17zM283 0h-82l-98 730h83l81 -594l285 595h73l75 -595l290 594h84
l-354 -730h-82l-73 594z" />
    <glyph glyph-name="wdieresis" unicode="&#x1e85;" horiz-adv-x="875" 
d="M413 674q-17 0 -28 11t-11 28q0 21 17 37t38 16q16 0 27 -10.5t11 -26.5q0 -21 -16.5 -38t-37.5 -17zM604 674q-16 0 -27 11t-11 28q0 21 16.5 37t37.5 16q16 0 27 -10.5t11 -26.5q0 -22 -16.5 -38.5t-37.5 -16.5zM242 0h-76l-98 550h81l75 -433l223 433h77l71 -433
l227 433h81l-290 -550h-76l-72 430z" />
    <glyph glyph-name="uni1E92" unicode="&#x1e92;" horiz-adv-x="641" 
d="M548 0h-551l13 79l536 573h-425l14 78h531l-14 -79l-536 -572h445zM244 -163q-19 0 -31 12.5t-12 30.5q0 24 18.5 42t42.5 18q18 0 30 -12t12 -31q0 -24 -18.5 -42t-41.5 -18z" />
    <glyph glyph-name="uni1E93" unicode="&#x1e93;" horiz-adv-x="576" 
d="M474 0h-468l10 60l425 420h-351l12 70h454l-10 -62l-420 -416h360zM211 -163q-18 0 -30 12.5t-12 30.5q0 24 18.5 42t42.5 18q18 0 29.5 -12t11.5 -31q0 -24 -18.5 -42t-41.5 -18z" />
    <glyph glyph-name="Germandbls" unicode="&#x1e9e;" horiz-adv-x="633" 
d="M326 -10q-41 0 -78.5 9t-53.5 21l12 72q54 -30 122 -30q73 0 125 50t52 121q0 33 -13.5 59t-41 44.5t-42.5 26t-45 19.5l6 36l153 181q-33 71 -140 71q-26 0 -51 -6.5t-52 -22t-47 -47t-28 -75.5l-91 -519h-73l92 530q18 99 89 153.5t173 54.5q164 0 208 -116l-6 -34
l-149 -170q2 -1 14.5 -7.5t18.5 -10t19 -11.5t20 -15t18 -17.5t17.5 -22t13 -25.5t9.5 -31t3 -36q0 -105 -74.5 -178.5t-179.5 -73.5z" />
    <glyph glyph-name="uni1EA0" unicode="&#x1ea0;" horiz-adv-x="677" 
d="M61 0h-89l403 730h87l147 -730h-85l-43 211h-304zM401 623l-186 -337h255zM264 -151q-19 0 -30.5 12t-11.5 30q0 24 18.5 42t42.5 18q18 0 29.5 -12t11.5 -31q0 -24 -18 -41.5t-42 -17.5z" />
    <glyph glyph-name="uni1EA1" unicode="&#x1ea1;" 
d="M269 -7q-98 0 -164 69t-66 169q0 129 95.5 227.5t225.5 98.5q72 0 129 -38.5t73 -96.5l25 128h71l-96 -550h-71l18 126q-36 -58 -102 -95.5t-138 -37.5zM290 69q96 0 171.5 73t75.5 169q0 73 -48.5 122t-124.5 49q-95 0 -170.5 -74.5t-75.5 -168.5q0 -73 48.5 -121.5
t123.5 -48.5zM248 -163q-18 0 -30 12.5t-12 30.5q0 24 18.5 42t42.5 18q18 0 29.5 -12t11.5 -31q0 -24 -18.5 -42t-41.5 -18z" />
    <glyph glyph-name="uni1EA2" unicode="&#x1ea2;" horiz-adv-x="677" 
d="M407 801l7 44q70 0 79 42q3 18 -9.5 29t-38.5 11q-45 0 -70 -19l-12 46q38 25 96 25q46 0 71 -25.5t18 -63.5t-44.5 -63.5t-96.5 -25.5zM61 0h-89l403 730h87l147 -730h-85l-43 211h-304zM401 623l-186 -337h255z" />
    <glyph glyph-name="uni1EA3" unicode="&#x1ea3;" 
d="M359 631l7 44q71 0 80 42q3 18 -9.5 29t-38.5 11q-47 0 -70 -19l-13 46q38 25 96 25q47 0 72 -26t17 -63q-6 -38 -44 -63.5t-97 -25.5zM269 -7q-98 0 -164 69t-66 169q0 129 95.5 227.5t225.5 98.5q72 0 129 -38.5t73 -96.5l25 128h71l-96 -550h-71l18 126
q-36 -58 -102 -95.5t-138 -37.5zM290 69q96 0 171.5 73t75.5 169q0 73 -48.5 122t-124.5 49q-95 0 -170.5 -74.5t-75.5 -168.5q0 -73 48.5 -121.5t123.5 -48.5z" />
    <glyph glyph-name="uni1EA4" unicode="&#x1ea4;" horiz-adv-x="679" 
d="M581 910h-53l89 156h71zM358 785h-70l129 125h72l84 -125h-70l-57 83zM61 0h-89l403 730h87l147 -730h-85l-43 211h-304zM401 623l-186 -337h255z" />
    <glyph glyph-name="uni1EA5" unicode="&#x1ea5;" horiz-adv-x="684" 
d="M523 745h-52l88 156h71zM301 620h-70l128 125h72l85 -125h-70l-58 83zM269 -7q-98 0 -164 69t-66 169q0 129 95.5 227.5t225.5 98.5q72 0 129 -38.5t73 -96.5l25 128h71l-96 -550h-71l18 126q-36 -58 -102 -95.5t-138 -37.5zM290 69q96 0 171.5 73t75.5 169
q0 73 -48.5 122t-124.5 49q-95 0 -170.5 -74.5t-75.5 -168.5q0 -73 48.5 -121.5t123.5 -48.5z" />
    <glyph glyph-name="uni1EA6" unicode="&#x1ea6;" horiz-adv-x="680" 
d="M363 908h-53l-52 156h71zM346 787h-70l128 125h72l85 -125h-70l-58 83zM61 0h-89l403 730h87l147 -730h-85l-43 211h-304zM401 623l-186 -337h255z" />
    <glyph glyph-name="uni1EA7" unicode="&#x1ea7;" 
d="M338 743h-52l-52 156h71zM321 622h-70l129 125h72l84 -125h-70l-58 83zM269 -7q-98 0 -164 69t-66 169q0 129 95.5 227.5t225.5 98.5q72 0 129 -38.5t73 -96.5l25 128h71l-96 -550h-71l18 126q-36 -58 -102 -95.5t-138 -37.5zM290 69q96 0 171.5 73t75.5 169
q0 73 -48.5 122t-124.5 49q-95 0 -170.5 -74.5t-75.5 -168.5q0 -73 48.5 -121.5t123.5 -48.5z" />
    <glyph glyph-name="uni1EA8" unicode="&#x1ea8;" horiz-adv-x="677" 
d="M523 900l8 44q72 0 79 42q3 18 -9.5 29t-38.5 11q-46 0 -69 -19l-13 46q38 25 96 25q46 0 70.5 -25.5t18.5 -63.5q-7 -38 -45 -63.5t-97 -25.5zM353 783h-70l128 125h72l85 -125h-70l-58 83zM61 0h-89l403 730h87l147 -730h-85l-43 211h-304zM401 623l-186 -337h255z" />
    <glyph glyph-name="uni1EA9" unicode="&#x1ea9;" 
d="M482 730l8 44q70 0 79 42q3 18 -9.5 29t-38.5 11q-45 0 -70 -19l-12 46q37 25 96 25q46 0 70.5 -25.5t18.5 -63.5q-7 -38 -45 -63.5t-97 -25.5zM312 613h-70l128 125h72l85 -125h-70l-58 83zM269 -7q-98 0 -164 69t-66 169q0 129 95.5 227.5t225.5 98.5q72 0 129 -38.5
t73 -96.5l25 128h71l-96 -550h-71l18 126q-36 -58 -102 -95.5t-138 -37.5zM290 69q96 0 171.5 73t75.5 169q0 73 -48.5 122t-124.5 49q-95 0 -170.5 -74.5t-75.5 -168.5q0 -73 48.5 -121.5t123.5 -48.5z" />
    <glyph glyph-name="uni1EAA" unicode="&#x1eaa;" horiz-adv-x="677" 
d="M530 934q-23 -2 -42 8.5t-29 24.5t-22.5 26t-25.5 12q-34 0 -45 -61h-55q9 49 37 80.5t64 32.5q23 1 41 -10t27.5 -25t22.5 -26t26 -12q33 0 43 62h55q-9 -52 -35 -81.5t-62 -30.5zM355 791h-70l128 125h72l85 -125h-70l-59 83zM61 0h-89l403 730h87l147 -730h-85
l-43 211h-304zM401 623l-186 -337h255z" />
    <glyph glyph-name="uni1EAB" unicode="&#x1eab;" 
d="M487 769q-22 0 -39.5 11t-27.5 24.5t-22 24.5t-24 11q-34 0 -45 -61h-55q9 50 38 81.5t67 31.5q22 0 39 -11.5t26.5 -25t22.5 -25t26 -11.5q32 0 42 62h54q-9 -53 -36.5 -82.5t-65.5 -29.5zM317 626h-70l129 125h72l84 -125h-70l-58 83zM269 -7q-98 0 -164 69t-66 169
q0 129 95.5 227.5t225.5 98.5q72 0 129 -38.5t73 -96.5l25 128h71l-96 -550h-71l18 126q-36 -58 -102 -95.5t-138 -37.5zM290 69q96 0 171.5 73t75.5 169q0 73 -48.5 122t-124.5 49q-95 0 -170.5 -74.5t-75.5 -168.5q0 -73 48.5 -121.5t123.5 -48.5z" />
    <glyph glyph-name="uni1EAC" unicode="&#x1eac;" horiz-adv-x="677" 
d="M364 828h-70l128 125h72l85 -125h-70l-58 83zM61 0h-89l403 730h87l147 -730h-85l-43 211h-304zM401 623l-186 -337h255zM264 -151q-19 0 -30.5 12t-11.5 30q0 24 18.5 42t42.5 18q18 0 29.5 -12t11.5 -31q0 -24 -18 -41.5t-42 -17.5z" />
    <glyph glyph-name="uni1EAD" unicode="&#x1ead;" 
d="M328 658h-70l128 125h72l85 -125h-70l-58 83zM269 -7q-98 0 -164 69t-66 169q0 129 95.5 227.5t225.5 98.5q72 0 129 -38.5t73 -96.5l25 128h71l-96 -550h-71l18 126q-36 -58 -102 -95.5t-138 -37.5zM290 69q96 0 171.5 73t75.5 169q0 73 -48.5 122t-124.5 49
q-95 0 -170.5 -74.5t-75.5 -168.5q0 -73 48.5 -121.5t123.5 -48.5zM248 -163q-18 0 -30 12.5t-12 30.5q0 24 18.5 42t42.5 18q18 0 29.5 -12t11.5 -31q0 -24 -18.5 -42t-41.5 -18z" />
    <glyph glyph-name="uni1EAE" unicode="&#x1eae;" horiz-adv-x="677" 
d="M477 924h-52l88 156h71zM429 771q-64 0 -101.5 43t-29.5 104h51q-5 -41 20.5 -69t68.5 -28q41 0 76 28t45 69h51q-14 -62 -66.5 -104.5t-114.5 -42.5zM61 0h-89l403 730h87l147 -730h-85l-43 211h-304zM401 623l-186 -337h255z" />
    <glyph glyph-name="uni1EAF" unicode="&#x1eaf;" 
d="M447 779h-52l88 156h71zM405 626q-64 0 -104 43t-32 104h50q-5 -41 21 -69t68 -28q41 0 76.5 28t45.5 69h50q-14 -63 -63.5 -105t-111.5 -42zM269 -7q-98 0 -164 69t-66 169q0 129 95.5 227.5t225.5 98.5q72 0 129 -38.5t73 -96.5l25 128h71l-96 -550h-71l18 126
q-36 -58 -102 -95.5t-138 -37.5zM290 69q96 0 171.5 73t75.5 169q0 73 -48.5 122t-124.5 49q-95 0 -170.5 -74.5t-75.5 -168.5q0 -73 48.5 -121.5t123.5 -48.5z" />
    <glyph glyph-name="uni1EB0" unicode="&#x1eb0;" horiz-adv-x="677" 
d="M488 922h-52l-52 156h71zM428 769q-63 0 -101 43t-30 104h51q-5 -40 21 -68.5t68 -28.5q41 0 76 28t45 69h51q-14 -62 -66.5 -104.5t-114.5 -42.5zM61 0h-89l403 730h87l147 -730h-85l-43 211h-304zM401 623l-186 -337h255z" />
    <glyph glyph-name="uni1EB1" unicode="&#x1eb1;" 
d="M441 779h-53l-52 156h71zM386 626q-64 0 -102.5 43t-30.5 104h51q-5 -41 20 -69t68 -28q42 0 77 28t45 69h50q-14 -62 -65.5 -104.5t-112.5 -42.5zM269 -7q-98 0 -164 69t-66 169q0 129 95.5 227.5t225.5 98.5q72 0 129 -38.5t73 -96.5l25 128h71l-96 -550h-71l18 126
q-36 -58 -102 -95.5t-138 -37.5zM290 69q96 0 171.5 73t75.5 169q0 73 -48.5 122t-124.5 49q-95 0 -170.5 -74.5t-75.5 -168.5q0 -73 48.5 -121.5t123.5 -48.5z" />
    <glyph glyph-name="uni1EB2" unicode="&#x1eb2;" horiz-adv-x="677" 
d="M434 919l8 45q72 0 79 42q3 18 -9.5 29t-38.5 11q-43 0 -70 -20l-12 46q37 26 96 26q46 0 70.5 -26t18.5 -64q-7 -38 -45 -63.5t-97 -25.5zM427 763q-63 0 -100.5 42.5t-30.5 105.5h51q-5 -41 20.5 -69t68.5 -28q41 0 76 28t45 69h51q-14 -62 -66.5 -105t-114.5 -43z
M61 0h-89l403 730h87l147 -730h-85l-43 211h-304zM401 623l-186 -337h255z" />
    <glyph glyph-name="uni1EB3" unicode="&#x1eb3;" 
d="M390 769l8 45q72 0 79 42q3 18 -9 29t-38 11q-19 0 -40 -6.5t-30 -13.5l-13 46q35 26 95 26q47 0 72 -26t18 -64t-45 -63.5t-97 -25.5zM385 613q-64 0 -102 43t-30 105h51q-5 -41 20.5 -69t67.5 -28t77 28t45 69h50q-14 -63 -65.5 -105.5t-113.5 -42.5zM269 -7
q-98 0 -164 69t-66 169q0 129 95.5 227.5t225.5 98.5q72 0 129 -38.5t73 -96.5l25 128h71l-96 -550h-71l18 126q-36 -58 -102 -95.5t-138 -37.5zM290 69q96 0 171.5 73t75.5 169q0 73 -48.5 122t-124.5 49q-95 0 -170.5 -74.5t-75.5 -168.5q0 -73 48.5 -121.5t123.5 -48.5z
" />
    <glyph glyph-name="uni1EB4" unicode="&#x1eb4;" horiz-adv-x="677" 
d="M545 944q-30 -3 -51 15t-36.5 37t-30.5 19q-36 0 -46 -61h-55q9 49 36.5 80.5t64.5 32.5q29 2 49.5 -16t36 -37t31.5 -19q33 0 43 61h55q-9 -52 -35 -81.5t-62 -30.5zM439 780q-63 0 -100.5 43.5t-29.5 104.5h50q-5 -41 21 -69t68 -28q41 0 76.5 28t45.5 69h50
q-14 -62 -66.5 -105t-114.5 -43zM61 0h-89l403 730h87l147 -730h-85l-43 211h-304zM401 623l-186 -337h255z" />
    <glyph glyph-name="uni1EB5" unicode="&#x1eb5;" 
d="M489 799q-21 0 -39 11t-27.5 24.5t-21.5 24.5t-24 11q-36 0 -46 -61h-54q9 51 37.5 82t67.5 31q22 0 39 -11t26.5 -25t22 -25t25.5 -11q32 0 42 61h55q-10 -53 -37 -82.5t-66 -29.5zM393 635q-64 0 -103 43.5t-31 104.5h51q-1 -46 22.5 -71.5t65.5 -25.5q41 0 76.5 28
t45.5 69h50q-14 -63 -64.5 -105.5t-112.5 -42.5zM269 -7q-98 0 -164 69t-66 169q0 129 95.5 227.5t225.5 98.5q72 0 129 -38.5t73 -96.5l25 128h71l-96 -550h-71l18 126q-36 -58 -102 -95.5t-138 -37.5zM290 69q96 0 171.5 73t75.5 169q0 73 -48.5 122t-124.5 49
q-95 0 -170.5 -74.5t-75.5 -168.5q0 -73 48.5 -121.5t123.5 -48.5z" />
    <glyph glyph-name="uni1EB6" unicode="&#x1eb6;" horiz-adv-x="677" 
d="M435 816q-63 0 -101 43.5t-30 104.5h51q-5 -41 20.5 -69t68.5 -28q41 0 76 28t45 69h51q-14 -62 -66.5 -105t-114.5 -43zM61 0h-89l403 730h87l147 -730h-85l-43 211h-304zM401 623l-186 -337h255zM264 -151q-19 0 -30.5 12t-11.5 30q0 24 18.5 42t42.5 18q18 0 29.5 -12
t11.5 -31q0 -24 -18 -41.5t-42 -17.5z" />
    <glyph glyph-name="uni1EB7" unicode="&#x1eb7;" 
d="M398 646q-64 0 -104.5 43.5t-32.5 104.5h51q-1 -46 22.5 -71.5t65.5 -25.5t76.5 28t45.5 69h51q-15 -63 -64.5 -105.5t-110.5 -42.5zM269 -7q-98 0 -164 69t-66 169q0 129 95.5 227.5t225.5 98.5q72 0 129 -38.5t73 -96.5l25 128h71l-96 -550h-71l18 126
q-36 -58 -102 -95.5t-138 -37.5zM290 69q96 0 171.5 73t75.5 169q0 73 -48.5 122t-124.5 49q-95 0 -170.5 -74.5t-75.5 -168.5q0 -73 48.5 -121.5t123.5 -48.5zM248 -163q-18 0 -30 12.5t-12 30.5q0 24 18.5 42t42.5 18q18 0 29.5 -12t11.5 -31q0 -24 -18.5 -42t-41.5 -18z
" />
    <glyph glyph-name="uni1EB8" unicode="&#x1eb8;" horiz-adv-x="596" 
d="M496 0h-456l128 730h446l-14 -75h-366l-43 -243h347l-13 -74h-347l-46 -261h377zM216 -156q-19 0 -31 12t-12 31q0 23 19 41t42 18q18 0 30 -12t12 -30q0 -24 -18.5 -42t-41.5 -18z" />
    <glyph glyph-name="uni1EB9" unicode="&#x1eb9;" horiz-adv-x="642" 
d="M293 -7q-109 0 -181 70t-72 171q0 131 94.5 227t229.5 96q116 0 183.5 -76t53.5 -193q-2 -16 -10 -51h-472q-1 -75 49.5 -123.5t127.5 -48.5q113 0 189 83l56 -41q-104 -114 -248 -114zM128 298h397q11 83 -34 135.5t-129 52.5q-85 0 -151 -53.5t-83 -134.5zM235 -163
q-19 0 -31 12.5t-12 30.5q0 24 18.5 42t42.5 18q18 0 30 -12t12 -31q0 -24 -18.5 -42t-41.5 -18z" />
    <glyph glyph-name="uni1EBA" unicode="&#x1eba;" horiz-adv-x="596" 
d="M356 801l7 44q70 0 79 42q3 18 -9.5 29t-38.5 11q-45 0 -70 -19l-12 46q38 25 96 25q46 0 71 -25.5t18 -63.5t-44.5 -63.5t-96.5 -25.5zM496 0h-456l128 730h446l-14 -75h-366l-43 -243h347l-13 -74h-347l-46 -261h377z" />
    <glyph glyph-name="uni1EBB" unicode="&#x1ebb;" horiz-adv-x="641" 
d="M350 631l7 44q71 0 80 42q3 18 -10 29t-38 11q-47 0 -70 -19l-13 46q38 25 96 25q46 0 71 -25.5t18 -63.5q-7 -39 -44.5 -64t-96.5 -25zM293 -7q-109 0 -181 70t-72 171q0 131 94.5 227t229.5 96q116 0 183.5 -76t53.5 -193q-2 -16 -10 -51h-472q-1 -75 49.5 -123.5
t127.5 -48.5q113 0 189 83l56 -41q-104 -114 -248 -114zM128 298h397q11 83 -34 135.5t-129 52.5q-85 0 -151 -53.5t-83 -134.5z" />
    <glyph glyph-name="uni1EBC" unicode="&#x1ebc;" horiz-adv-x="596" 
d="M456 830q-23 -2 -42 8.5t-29 24.5t-22.5 26t-24.5 12q-35 0 -46 -61h-55q9 49 36.5 80.5t64.5 32.5q23 1 41.5 -10t28 -25t22 -25.5t26.5 -11.5q32 0 42 61h55q-9 -52 -35 -81.5t-62 -30.5zM496 0h-456l128 730h446l-14 -75h-366l-43 -243h347l-13 -74h-347l-46 -261h377
z" />
    <glyph glyph-name="uni1EBD" unicode="&#x1ebd;" horiz-adv-x="642" 
d="M445 660q-22 0 -39.5 11t-27.5 24.5t-22 24.5t-24 11q-34 0 -46 -61h-54q9 51 38 82t68 31q21 0 38.5 -11.5t26.5 -25t22 -24.5t26 -11q32 0 42 61h55q-10 -54 -37.5 -83t-65.5 -29zM293 -7q-109 0 -181 70t-72 171q0 131 94.5 227t229.5 96q116 0 183.5 -76t53.5 -193
q-2 -16 -10 -51h-472q-1 -75 49.5 -123.5t127.5 -48.5q113 0 189 83l56 -41q-104 -114 -248 -114zM128 298h397q11 83 -34 135.5t-129 52.5q-85 0 -151 -53.5t-83 -134.5z" />
    <glyph glyph-name="uni1EBE" unicode="&#x1ebe;" horiz-adv-x="613" 
d="M541 910h-53l88 156h72zM318 785h-70l129 125h72l84 -125h-70l-58 83zM496 0h-456l128 730h446l-14 -75h-366l-43 -243h347l-13 -74h-347l-46 -261h377z" />
    <glyph glyph-name="uni1EBF" unicode="&#x1ebf;" horiz-adv-x="645" 
d="M500 745h-53l88 156h72zM277 620h-70l129 125h72l84 -125h-70l-58 83zM293 -7q-109 0 -181 70t-72 171q0 131 94.5 227t229.5 96q116 0 183.5 -76t53.5 -193q-2 -16 -10 -51h-472q-1 -75 49.5 -123.5t127.5 -48.5q113 0 189 83l56 -41q-104 -114 -248 -114zM128 298h397
q11 83 -34 135.5t-129 52.5q-85 0 -151 -53.5t-83 -134.5z" />
    <glyph glyph-name="uni1EC0" unicode="&#x1ec0;" horiz-adv-x="622" 
d="M382 908h-53l-52 156h71zM365 787h-70l128 125h72l85 -125h-70l-58 83zM521 0h-456l128 730h446l-13 -75h-366l-43 -243h347l-13 -74h-347l-46 -261h376z" />
    <glyph glyph-name="uni1EC1" unicode="&#x1ec1;" horiz-adv-x="650" 
d="M339 743h-52l-53 156h72zM322 622h-70l128 125h72l85 -125h-70l-58 83zM293 -7q-109 0 -181 70t-72 171q0 131 94.5 227t229.5 96q116 0 183.5 -76t53.5 -193q-2 -16 -10 -51h-472q-1 -75 49.5 -123.5t127.5 -48.5q113 0 189 83l56 -41q-104 -114 -248 -114zM128 298h397
q11 83 -34 135.5t-129 52.5q-85 0 -151 -53.5t-83 -134.5z" />
    <glyph glyph-name="uni1EC2" unicode="&#x1ec2;" horiz-adv-x="599" 
d="M490 900l8 44q72 0 79 42q4 18 -9 29t-38 11q-47 0 -70 -19l-13 46q38 25 96 25q46 0 71 -25.5t18 -63.5q-6 -38 -44.5 -63.5t-97.5 -25.5zM320 783h-70l128 125h72l85 -125h-70l-58 83zM496 0h-456l128 730h446l-14 -75h-366l-43 -243h347l-13 -74h-347l-46 -261h377z
" />
    <glyph glyph-name="uni1EC3" unicode="&#x1ec3;" horiz-adv-x="642" 
d="M461 735l8 44q72 0 79 42q4 18 -9 29t-38 11q-47 0 -70 -19l-13 46q38 25 96 25q46 0 71 -25.5t18 -63.5q-6 -38 -44.5 -63.5t-97.5 -25.5zM291 618h-70l128 125h72l85 -125h-70l-58 83zM293 -7q-109 0 -181 70t-72 171q0 131 94.5 227t229.5 96q116 0 183.5 -76
t53.5 -193q-2 -16 -10 -51h-472q-1 -75 49.5 -123.5t127.5 -48.5q113 0 189 83l56 -41q-104 -114 -248 -114zM128 298h397q11 83 -34 135.5t-129 52.5q-85 0 -151 -53.5t-83 -134.5z" />
    <glyph glyph-name="uni1EC4" unicode="&#x1ec4;" horiz-adv-x="596" 
d="M503 934q-21 0 -39 11t-27.5 24.5t-21.5 24.5t-24 11q-34 0 -45 -61h-55q9 50 38 81.5t67 31.5q27 0 47 -18.5t35 -36.5t31 -18q31 0 43 62h54q-9 -53 -36.5 -82.5t-66.5 -29.5zM334 791h-70l129 125h72l84 -125h-70l-58 83zM496 0h-456l128 730h446l-14 -75h-366
l-43 -243h347l-13 -74h-347l-46 -261h377z" />
    <glyph glyph-name="uni1EC5" unicode="&#x1ec5;" horiz-adv-x="642" 
d="M477 769q-21 0 -39 11t-27.5 24.5t-21.5 24.5t-24 11q-16 0 -28.5 -16t-16.5 -45h-55q9 50 38 81.5t67 31.5q22 0 39 -11.5t26.5 -25t22 -25t25.5 -11.5q32 0 42 62h55q-9 -53 -36.5 -82.5t-66.5 -29.5zM308 626h-70l129 125h72l84 -125h-70l-58 83zM293 -7
q-109 0 -181 70t-72 171q0 131 94.5 227t229.5 96q116 0 183.5 -76t53.5 -193q-2 -16 -10 -51h-472q-1 -75 49.5 -123.5t127.5 -48.5q113 0 189 83l56 -41q-104 -114 -248 -114zM128 298h397q11 83 -34 135.5t-129 52.5q-85 0 -151 -53.5t-83 -134.5z" />
    <glyph glyph-name="uni1EC6" unicode="&#x1ec6;" horiz-adv-x="596" 
d="M343 828h-70l129 125h72l84 -125h-70l-57 83zM496 0h-456l128 730h446l-14 -75h-366l-43 -243h347l-13 -74h-347l-46 -261h377zM216 -156q-19 0 -31 12t-12 31q0 23 19 41t42 18q18 0 30 -12t12 -30q0 -24 -18.5 -42t-41.5 -18z" />
    <glyph glyph-name="uni1EC7" unicode="&#x1ec7;" horiz-adv-x="642" 
d="M306 658h-70l129 125h72l84 -125h-70l-58 83zM293 -7q-109 0 -181 70t-72 171q0 131 94.5 227t229.5 96q116 0 183.5 -76t53.5 -193q-2 -16 -10 -51h-472q-1 -75 49.5 -123.5t127.5 -48.5q113 0 189 83l56 -41q-104 -114 -248 -114zM128 298h397q11 83 -34 135.5
t-129 52.5q-85 0 -151 -53.5t-83 -134.5zM235 -163q-19 0 -31 12.5t-12 30.5q0 24 18.5 42t42.5 18q18 0 30 -12t12 -31q0 -24 -18.5 -42t-41.5 -18z" />
    <glyph glyph-name="uni1EC8" unicode="&#x1ec8;" horiz-adv-x="256" 
d="M192 801l7 44q71 0 80 42q3 18 -9.5 29t-38.5 11q-47 0 -70 -19l-13 46q38 25 96 25q46 0 71 -25.5t18 -63.5q-6 -38 -44 -63.5t-97 -25.5zM122 0h-80l128 730h80z" />
    <glyph glyph-name="uni1EC9" unicode="&#x1ec9;" horiz-adv-x="231" 
d="M138 631l8 44q70 0 79 42q3 18 -9.5 29t-38.5 11q-45 0 -70 -19l-12 46q37 25 95 25q47 0 72 -26t17 -63q-6 -38 -44 -63.5t-97 -25.5zM106 0h-76l96 550h76z" />
    <glyph glyph-name="uni1ECA" unicode="&#x1eca;" horiz-adv-x="254" 
d="M116 0h-79l128 730h79zM49 -163q-18 0 -30 12.5t-12 30.5q0 24 18.5 42t42.5 18q18 0 29.5 -12t11.5 -31q0 -24 -18.5 -42t-41.5 -18z" />
    <glyph glyph-name="uni1ECB" unicode="&#x1ecb;" horiz-adv-x="232" 
d="M176 612q-19 0 -31.5 12.5t-12.5 31.5q0 24 19 42t43 18q19 0 31 -12t12 -30q0 -24 -18.5 -43t-42.5 -19zM106 0h-76l96 550h76zM39 -163q-19 0 -31 12.5t-12 30.5q0 24 19 42t43 18q18 0 29.5 -12t11.5 -31q0 -24 -18.5 -42t-41.5 -18z" />
    <glyph glyph-name="uni1ECC" unicode="&#x1ecc;" horiz-adv-x="858" 
d="M388 -11q-141 0 -232 90.5t-91 226.5q0 115 55.5 214t156.5 159t225 60q141 0 232 -90.5t91 -225.5q0 -115 -55.5 -214t-156.5 -159.5t-225 -60.5zM393 71q145 0 247 103.5t102 242.5q0 103 -69.5 172t-176.5 69q-146 0 -247.5 -104t-101.5 -241q0 -105 69.5 -173.5
t176.5 -68.5zM341 -163q-18 0 -30 12.5t-12 30.5q0 24 18.5 42t42.5 18q18 0 29.5 -12t11.5 -31q0 -24 -18.5 -42t-41.5 -18z" />
    <glyph glyph-name="uni1ECD" unicode="&#x1ecd;" horiz-adv-x="652" 
d="M282 -7q-105 0 -173.5 69.5t-68.5 171.5q0 134 95 228.5t236 94.5q103 0 172 -69.5t69 -169.5q0 -133 -94 -229t-236 -96zM290 70q103 0 173.5 72.5t70.5 168.5q0 72 -48.5 120.5t-123.5 48.5q-104 0 -174 -71.5t-70 -168.5q0 -73 48 -121.5t124 -48.5zM247 -163
q-18 0 -30 12.5t-12 30.5q0 24 18.5 42t42.5 18q18 0 29.5 -12t11.5 -31q0 -24 -18.5 -42t-41.5 -18z" />
    <glyph glyph-name="uni1ECE" unicode="&#x1ece;" horiz-adv-x="856" 
d="M485 801l7 44q71 0 80 42q3 18 -9.5 29t-38.5 11q-47 0 -70 -19l-13 46q38 25 96 25q46 0 71 -25.5t18 -63.5q-6 -38 -44 -63.5t-97 -25.5zM381 -11q-143 0 -233.5 95t-82.5 234q3 83 38.5 160t93.5 134.5t139 92t170 34.5q142 0 233 -94.5t83 -232.5q-4 -111 -62.5 -208
t-159 -156t-219.5 -59zM392 71q143 0 244.5 101t103.5 238q3 106 -66.5 177t-178.5 71q-144 0 -245 -101.5t-104 -236.5q-3 -107 67 -178t179 -71z" />
    <glyph glyph-name="uni1ECF" unicode="&#x1ecf;" horiz-adv-x="652" 
d="M360 631l7 44q70 0 79 42q3 18 -9.5 29t-38.5 11q-45 0 -70 -19l-12 46q38 25 96 25q46 0 71 -25.5t18 -63.5t-44.5 -63.5t-96.5 -25.5zM282 -7q-105 0 -173.5 69.5t-68.5 171.5q0 132 94.5 227.5t236.5 95.5q103 0 172 -69.5t69 -169.5q0 -132 -94.5 -228.5
t-235.5 -96.5zM290 70q103 0 173.5 72.5t70.5 168.5q0 72 -48.5 120.5t-123.5 48.5q-104 0 -174 -71.5t-70 -168.5q0 -73 48 -121.5t124 -48.5z" />
    <glyph glyph-name="uni1ED0" unicode="&#x1ed0;" horiz-adv-x="858" 
d="M641 910h-52l88 156h71zM419 785h-70l128 125h72l85 -125h-70l-58 83zM388 -11q-141 0 -232 90.5t-91 226.5q0 115 55.5 214t156.5 159t225 60q141 0 232 -90.5t91 -225.5q0 -115 -55.5 -214t-156.5 -159.5t-225 -60.5zM393 71q145 0 247 103.5t102 242.5
q0 103 -69.5 172t-176.5 69q-146 0 -247.5 -104t-101.5 -241q0 -105 69.5 -173.5t176.5 -68.5z" />
    <glyph glyph-name="uni1ED1" unicode="&#x1ed1;" horiz-adv-x="652" 
d="M510 745h-53l88 156h72zM287 620h-70l129 125h72l84 -125h-70l-58 83zM282 -7q-105 0 -173.5 69.5t-68.5 171.5q0 134 95 228.5t236 94.5q103 0 172 -69.5t69 -169.5q0 -133 -94 -229t-236 -96zM290 70q103 0 173.5 72.5t70.5 168.5q0 72 -48.5 120.5t-123.5 48.5
q-104 0 -174 -71.5t-70 -168.5q0 -73 48 -121.5t124 -48.5z" />
    <glyph glyph-name="uni1ED2" unicode="&#x1ed2;" horiz-adv-x="858" 
d="M451 908h-53l-52 156h71zM434 787h-70l128 125h72l85 -125h-70l-58 83zM388 -11q-141 0 -232 90.5t-91 226.5q0 115 55.5 214t156.5 159t225 60q141 0 232 -90.5t91 -225.5q0 -115 -55.5 -214t-156.5 -159.5t-225 -60.5zM393 71q145 0 247 103.5t102 242.5
q0 103 -69.5 172t-176.5 69q-146 0 -247.5 -104t-101.5 -241q0 -105 69.5 -173.5t176.5 -68.5z" />
    <glyph glyph-name="uni1ED3" unicode="&#x1ed3;" horiz-adv-x="652" 
d="M363 743h-52l-53 156h72zM346 622h-70l128 125h72l85 -125h-70l-58 83zM282 -7q-105 0 -173.5 69.5t-68.5 171.5q0 134 95 228.5t236 94.5q103 0 172 -69.5t69 -169.5q0 -133 -94 -229t-236 -96zM290 70q103 0 173.5 72.5t70.5 168.5q0 72 -48.5 120.5t-123.5 48.5
q-104 0 -174 -71.5t-70 -168.5q0 -73 48 -121.5t124 -48.5z" />
    <glyph glyph-name="uni1ED4" unicode="&#x1ed4;" horiz-adv-x="856" 
d="M573 900l8 44q72 0 79 42q3 18 -9.5 29t-38.5 11q-46 0 -69 -19l-13 46q38 25 96 25q46 0 70.5 -25.5t18.5 -63.5q-7 -38 -45 -63.5t-97 -25.5zM403 783h-70l128 125h72l85 -125h-70l-58 83zM381 -11q-143 0 -233.5 95t-82.5 234q3 83 38.5 160t93.5 134.5t139 92
t170 34.5q142 0 233 -94.5t83 -232.5q-4 -111 -62.5 -208t-159 -156t-219.5 -59zM392 71q143 0 244.5 101t103.5 238q3 106 -66.5 177t-178.5 71q-144 0 -245 -101.5t-104 -236.5q-3 -107 67 -178t179 -71z" />
    <glyph glyph-name="uni1ED5" unicode="&#x1ed5;" horiz-adv-x="652" 
d="M457 735l8 44q72 0 79 42q4 18 -9 29t-38 11q-47 0 -70 -19l-13 46q38 25 96 25q46 0 71 -25.5t18 -63.5q-6 -38 -44.5 -63.5t-97.5 -25.5zM287 618h-70l128 125h72l85 -125h-70l-58 83zM282 -7q-105 0 -173.5 69.5t-68.5 171.5q0 132 94.5 227.5t236.5 95.5
q103 0 172 -69.5t69 -169.5q0 -132 -94.5 -228.5t-235.5 -96.5zM290 70q103 0 173.5 72.5t70.5 168.5q0 72 -48.5 120.5t-123.5 48.5q-104 0 -174 -71.5t-70 -168.5q0 -73 48 -121.5t124 -48.5z" />
    <glyph glyph-name="uni1ED6" unicode="&#x1ed6;" horiz-adv-x="858" 
d="M598 934q-27 0 -47.5 18t-35.5 35.5t-30 17.5q-33 0 -45 -61h-54q9 51 37.5 82t67.5 31q27 0 47 -18.5t35 -36.5t31 -18q32 0 42 62h55q-10 -53 -37 -82.5t-66 -29.5zM429 791h-70l128 125h72l85 -125h-70l-59 83zM388 -11q-141 0 -232 90.5t-91 226.5q0 115 55.5 214
t156.5 159t225 60q141 0 232 -90.5t91 -225.5q0 -115 -55.5 -214t-156.5 -159.5t-225 -60.5zM393 71q145 0 247 103.5t102 242.5q0 103 -69.5 172t-176.5 69q-146 0 -247.5 -104t-101.5 -241q0 -105 69.5 -173.5t176.5 -68.5z" />
    <glyph glyph-name="uni1ED7" unicode="&#x1ed7;" horiz-adv-x="652" 
d="M476 769q-21 0 -39 11t-27.5 24.5t-22 24.5t-24.5 11q-34 0 -45 -61h-54q9 51 37.5 82t67.5 31q22 0 39 -11.5t26.5 -25t22 -25t25.5 -11.5q32 0 42 62h55q-10 -53 -37 -82.5t-66 -29.5zM306 626h-70l129 125h72l84 -125h-70l-58 83zM282 -7q-105 0 -173.5 69.5
t-68.5 171.5q0 134 95 228.5t236 94.5q103 0 172 -69.5t69 -169.5q0 -133 -94 -229t-236 -96zM290 70q103 0 173.5 72.5t70.5 168.5q0 72 -48.5 120.5t-123.5 48.5q-104 0 -174 -71.5t-70 -168.5q0 -73 48 -121.5t124 -48.5z" />
    <glyph glyph-name="uni1ED8" unicode="&#x1ed8;" horiz-adv-x="858" 
d="M443 828h-70l128 125h72l85 -125h-70l-58 83zM388 -11q-141 0 -232 90.5t-91 226.5q0 115 55.5 214t156.5 159t225 60q141 0 232 -90.5t91 -225.5q0 -115 -55.5 -214t-156.5 -159.5t-225 -60.5zM393 71q145 0 247 103.5t102 242.5q0 103 -69.5 172t-176.5 69
q-146 0 -247.5 -104t-101.5 -241q0 -105 69.5 -173.5t176.5 -68.5zM341 -163q-18 0 -30 12.5t-12 30.5q0 24 18.5 42t42.5 18q18 0 29.5 -12t11.5 -31q0 -24 -18.5 -42t-41.5 -18z" />
    <glyph glyph-name="uni1ED9" unicode="&#x1ed9;" horiz-adv-x="653" 
d="M320 658h-70l128 125h72l85 -125h-70l-58 83zM283 -7q-106 0 -174.5 69.5t-68.5 171.5q0 134 94.5 228.5t236.5 94.5q103 0 172 -69.5t69 -169.5q0 -133 -94 -229t-235 -96zM290 70q103 0 173.5 72.5t70.5 168.5q0 72 -48.5 120.5t-122.5 48.5q-104 0 -174.5 -71.5
t-70.5 -168.5q0 -73 48.5 -121.5t123.5 -48.5zM247 -163q-18 0 -30 12.5t-12 30.5q0 24 18.5 42t42.5 18q18 0 29.5 -12t11.5 -31q0 -24 -18.5 -42t-41.5 -18z" />
    <glyph glyph-name="uni1EDA" unicode="&#x1eda;" horiz-adv-x="858" 
d="M519 812h-53l88 156h72zM388 -11q-141 0 -232 90.5t-91 226.5q0 115 55.5 214t156.5 159t225 60q155 0 247 -107q17 3 31.5 15t17.5 29l15 85h51l-17 -97q-5 -27 -23.5 -46t-44.5 -28q46 -72 46 -167q0 -115 -55.5 -214t-156.5 -159.5t-225 -60.5zM393 71
q145 0 247 103.5t102 242.5q0 103 -69.5 172t-176.5 69q-146 0 -247.5 -104t-101.5 -241q0 -105 69.5 -173.5t176.5 -68.5z" />
    <glyph glyph-name="uni1EDB" unicode="&#x1edb;" horiz-adv-x="652" 
d="M406 642h-53l89 156h71zM282 -7q-105 0 -173.5 69.5t-68.5 171.5q0 134 95 228.5t236 94.5q106 0 177 -76q40 15 45 43l14 85h52l-17 -97q-4 -21 -21 -41t-42 -31q33 -55 33 -122q0 -133 -94 -229t-236 -96zM290 70q103 0 173.5 72.5t70.5 168.5q0 72 -48.5 120.5
t-123.5 48.5q-104 0 -174 -71.5t-70 -168.5q0 -73 48 -121.5t124 -48.5z" />
    <glyph glyph-name="uni1EDC" unicode="&#x1edc;" horiz-adv-x="858" 
d="M538 812h-52l-53 156h72zM388 -11q-141 0 -232 90.5t-91 226.5q0 115 55.5 214t156.5 159t225 60q155 0 247 -107q17 3 31.5 15t17.5 29l15 85h51l-17 -97q-5 -27 -23.5 -46t-44.5 -28q46 -72 46 -167q0 -115 -55.5 -214t-156.5 -159.5t-225 -60.5zM393 71
q145 0 247 103.5t102 242.5q0 103 -69.5 172t-176.5 69q-146 0 -247.5 -104t-101.5 -241q0 -105 69.5 -173.5t176.5 -68.5z" />
    <glyph glyph-name="uni1EDD" unicode="&#x1edd;" horiz-adv-x="652" 
d="M430 642h-52l-52 156h72zM282 -7q-105 0 -173.5 69.5t-68.5 171.5q0 134 95 228.5t236 94.5q106 0 177 -76q40 15 45 43l14 85h52l-17 -97q-4 -21 -21 -41t-42 -31q33 -55 33 -122q0 -133 -94 -229t-236 -96zM290 70q103 0 173.5 72.5t70.5 168.5q0 72 -48.5 120.5
t-123.5 48.5q-104 0 -174 -71.5t-70 -168.5q0 -73 48 -121.5t124 -48.5z" />
    <glyph glyph-name="uni1EDE" unicode="&#x1ede;" horiz-adv-x="858" 
d="M492 801l7 44q70 0 79 42q3 18 -9.5 29t-38.5 11q-45 0 -70 -19l-12 46q38 25 96 25q46 0 71 -25.5t18 -63.5t-44.5 -63.5t-96.5 -25.5zM388 -11q-141 0 -232 90.5t-91 226.5q0 115 55.5 214t156.5 159t225 60q155 0 247 -107q17 3 31.5 15t17.5 29l15 85h51l-17 -97
q-5 -27 -23.5 -46t-44.5 -28q46 -72 46 -167q0 -115 -55.5 -214t-156.5 -159.5t-225 -60.5zM393 71q145 0 247 103.5t102 242.5q0 103 -69.5 172t-176.5 69q-146 0 -247.5 -104t-101.5 -241q0 -105 69.5 -173.5t176.5 -68.5z" />
    <glyph glyph-name="uni1EDF" unicode="&#x1edf;" horiz-adv-x="652" 
d="M360 631l7 44q71 0 80 42q3 18 -9.5 29t-38.5 11q-47 0 -70 -19l-13 46q38 25 96 25q47 0 72 -26t17 -63q-6 -38 -44 -63.5t-97 -25.5zM282 -7q-105 0 -173.5 69.5t-68.5 171.5q0 134 95 228.5t236 94.5q106 0 177 -76q40 15 45 43l14 85h52l-17 -97q-4 -21 -21 -41
t-42 -31q33 -55 33 -122q0 -133 -94 -229t-236 -96zM290 70q103 0 173.5 72.5t70.5 168.5q0 72 -48.5 120.5t-123.5 48.5q-104 0 -174 -71.5t-70 -168.5q0 -73 48 -121.5t124 -48.5z" />
    <glyph glyph-name="uni1EE0" unicode="&#x1ee0;" horiz-adv-x="858" 
d="M587 830q-23 -2 -42 8.5t-29 24.5t-23 26t-25 12q-36 0 -46 -61h-55q9 49 36.5 80.5t64.5 32.5q23 1 41.5 -10t28 -24.5t22.5 -25.5t26 -12q32 0 43 61h54q-9 -51 -35 -81t-61 -31zM388 -11q-141 0 -232 90.5t-91 226.5q0 115 55.5 214t156.5 159t225 60q155 0 247 -107
q17 3 31.5 15t17.5 29l15 85h51l-17 -97q-5 -27 -23.5 -46t-44.5 -28q46 -72 46 -167q0 -115 -55.5 -214t-156.5 -159.5t-225 -60.5zM393 71q145 0 247 103.5t102 242.5q0 103 -69.5 172t-176.5 69q-146 0 -247.5 -104t-101.5 -241q0 -105 69.5 -173.5t176.5 -68.5z" />
    <glyph glyph-name="uni1EE1" unicode="&#x1ee1;" horiz-adv-x="652" 
d="M459 660q-22 0 -39.5 11t-27.5 24.5t-22 24.5t-24 11q-16 0 -28.5 -15.5t-17.5 -45.5h-55q10 51 39 82t67 31q27 0 46.5 -18t35 -36t31.5 -18q32 0 43 61h54q-10 -53 -37 -82.5t-65 -29.5zM282 -7q-105 0 -173.5 69.5t-68.5 171.5q0 134 95 228.5t236 94.5q106 0 177 -76
q40 15 45 43l14 85h52l-17 -97q-4 -21 -21 -41t-42 -31q33 -55 33 -122q0 -133 -94 -229t-236 -96zM290 70q103 0 173.5 72.5t70.5 168.5q0 72 -48.5 120.5t-123.5 48.5q-104 0 -174 -71.5t-70 -168.5q0 -73 48 -121.5t124 -48.5z" />
    <glyph glyph-name="uni1EE2" unicode="&#x1ee2;" horiz-adv-x="858" 
d="M388 -11q-141 0 -232 90.5t-91 226.5q0 115 55.5 214t156.5 159t225 60q155 0 247 -107q17 3 31.5 15t17.5 29l15 85h51l-17 -97q-5 -27 -23.5 -46t-44.5 -28q46 -72 46 -167q0 -115 -55.5 -214t-156.5 -159.5t-225 -60.5zM393 71q145 0 247 103.5t102 242.5
q0 103 -69.5 172t-176.5 69q-146 0 -247.5 -104t-101.5 -241q0 -105 69.5 -173.5t176.5 -68.5zM351 -163q-19 0 -31 12.5t-12 30.5q0 24 18.5 42t42.5 18q18 0 30 -12t12 -31q0 -24 -18.5 -42t-41.5 -18z" />
    <glyph glyph-name="uni1EE3" unicode="&#x1ee3;" horiz-adv-x="652" 
d="M40 234q0 134 95 228.5t236 94.5q106 0 177 -76q40 15 45 43l14 85h52l-17 -97q-4 -21 -21 -41t-42 -31q33 -55 33 -122q0 -133 -94 -229t-236 -96q-105 0 -173.5 69.5t-68.5 171.5zM118 240q0 -73 48 -121.5t124 -48.5q103 0 173.5 72.5t70.5 168.5q0 72 -48.5 120.5
t-123.5 48.5q-104 0 -174 -71.5t-70 -168.5zM248 -163q-19 0 -31 12.5t-12 30.5q0 24 18.5 42t42.5 18q19 0 30.5 -12t11.5 -31q0 -24 -18.5 -42t-41.5 -18z" />
    <glyph glyph-name="uni1EE4" unicode="&#x1ee4;" horiz-adv-x="715" 
d="M308 -9q-121 0 -187 78t-43 209l80 452h79l-79 -451q-17 -100 28.5 -154t132.5 -54q88 0 155 54t85 154l79 451h80l-80 -452q-23 -131 -116.5 -209t-213.5 -78zM281 -163q-21 0 -33 15t-9 37q4 21 22 36t39 15q20 0 32.5 -15t8.5 -36q-4 -22 -21.5 -37t-38.5 -15z" />
    <glyph glyph-name="uni1EE5" unicode="&#x1ee5;" horiz-adv-x="635" 
d="M246 -7q-101 0 -152 71.5t-27 206.5l49 279h76l-49 -279q-18 -99 20 -150.5t111 -51.5t129 51.5t74 150.5l49 279h76l-96 -550h-71l14 106q-33 -50 -86 -81.5t-117 -31.5zM234 -163q-21 0 -33 15t-9 37q4 21 22 36t39 15q20 0 32.5 -15t8.5 -36q-4 -22 -21.5 -37
t-38.5 -15z" />
    <glyph glyph-name="uni1EE6" unicode="&#x1ee6;" horiz-adv-x="715" 
d="M402 801l7 44q71 0 80 42q3 18 -10 29t-38 11q-47 0 -70 -19l-13 46q38 25 96 25q46 0 71 -25.5t18 -63.5q-7 -39 -44.5 -64t-96.5 -25zM308 -9q-121 0 -187 78t-43 209l80 452h79l-79 -451q-17 -100 28.5 -154t132.5 -54q88 0 155 54t85 154l79 451h80l-80 -452
q-23 -131 -116.5 -209t-213.5 -78z" />
    <glyph glyph-name="uni1EE7" unicode="&#x1ee7;" horiz-adv-x="635" 
d="M345 631l7 44q71 0 80 42q3 18 -9.5 29t-38.5 11q-47 0 -70 -19l-13 46q38 25 96 25q47 0 72 -26t17 -63q-6 -38 -44 -63.5t-97 -25.5zM246 -7q-101 0 -152 71.5t-27 206.5l49 279h76l-49 -279q-18 -99 20 -150.5t111 -51.5t129 51.5t74 150.5l49 279h76l-96 -550h-71
l14 106q-33 -50 -86 -81.5t-117 -31.5z" />
    <glyph glyph-name="uni1EE8" unicode="&#x1ee8;" horiz-adv-x="724" 
d="M454 812h-52l88 156h71zM308 -9q-121 0 -187 78t-43 209l80 452h79l-79 -451q-17 -100 28.5 -154t132.5 -54q88 0 155 54t85 154l79 451h57q32 0 39 33l12 67h51l-13 -78q-13 -65 -75 -74l-71 -400q-23 -131 -116.5 -209t-213.5 -78z" />
    <glyph glyph-name="uni1EE9" unicode="&#x1ee9;" horiz-adv-x="630" 
d="M388 642h-53l89 156h71zM244 -7q-102 0 -153 71t-27 207l49 279h76l-49 -279q-17 -99 20.5 -150.5t110.5 -51.5t129.5 51.5t73.5 150.5l49 279h55q28 5 32 31l15 85h51l-16 -96q-9 -49 -68 -64l-89 -506h-71l15 106q-33 -49 -86 -81t-117 -32z" />
    <glyph glyph-name="uni1EEA" unicode="&#x1eea;" horiz-adv-x="724" 
d="M486 812h-52l-52 156h71zM308 -9q-121 0 -187 78t-43 209l80 452h79l-79 -451q-17 -100 28.5 -154t132.5 -54q88 0 155 54t85 154l79 451h57q32 0 39 33l12 67h51l-13 -78q-13 -65 -75 -74l-71 -400q-23 -131 -116.5 -209t-213.5 -78z" />
    <glyph glyph-name="uni1EEB" unicode="&#x1eeb;" horiz-adv-x="630" 
d="M413 642h-52l-52 156h72zM244 -7q-102 0 -153 71t-27 207l49 279h76l-49 -279q-17 -99 20.5 -150.5t110.5 -51.5t129.5 51.5t73.5 150.5l49 279h55q28 5 32 31l15 85h51l-16 -96q-9 -49 -68 -64l-89 -506h-71l15 106q-33 -49 -86 -81t-117 -32z" />
    <glyph glyph-name="uni1EEC" unicode="&#x1eec;" horiz-adv-x="724" 
d="M430 801l7 44q71 0 80 42q3 18 -10 29t-38 11q-47 0 -70 -19l-13 46q38 25 96 25q46 0 71 -25.5t18 -63.5q-7 -39 -44.5 -64t-96.5 -25zM308 -9q-121 0 -187 78t-43 209l80 452h79l-79 -451q-17 -100 28.5 -154t132.5 -54q88 0 155 54t85 154l79 451h57q32 0 39 33l12 67
h51l-13 -78q-13 -65 -75 -74l-71 -400q-23 -131 -116.5 -209t-213.5 -78z" />
    <glyph glyph-name="uni1EED" unicode="&#x1eed;" horiz-adv-x="630" 
d="M343 631l7 44q70 0 79 42q3 18 -9.5 29t-38.5 11q-45 0 -70 -19l-12 46q38 25 96 25q46 0 71 -25.5t18 -63.5t-44.5 -63.5t-96.5 -25.5zM244 -7q-102 0 -153 71t-27 207l49 279h76l-49 -279q-17 -99 20.5 -150.5t110.5 -51.5t129.5 51.5t73.5 150.5l49 279h55q28 5 32 31
l15 85h51l-16 -96q-9 -49 -68 -64l-89 -506h-71l15 106q-33 -49 -86 -81t-117 -32z" />
    <glyph glyph-name="uni1EEE" unicode="&#x1eee;" horiz-adv-x="724" 
d="M531 830q-23 -2 -42 8.5t-29 24.5t-22.5 26t-24.5 12q-36 0 -46 -61h-55q9 49 36.5 80.5t64.5 32.5q23 1 41 -10t27.5 -24.5t22.5 -25.5t26 -12q33 0 43 61h55q-9 -52 -35 -81.5t-62 -30.5zM308 -9q-126 0 -189 80t-41 207l80 452h79l-79 -451q-17 -95 26.5 -151.5
t134.5 -56.5q88 0 155 54t85 154l79 451h57q32 0 39 33l12 67h51l-13 -78q-13 -65 -75 -74l-71 -400q-23 -131 -116.5 -209t-213.5 -78z" />
    <glyph glyph-name="uni1EEF" unicode="&#x1eef;" horiz-adv-x="630" 
d="M441 660q-23 -2 -42 9.5t-29 25.5t-23 25.5t-26 10.5q-33 -2 -44 -61h-55q9 49 37 80.5t65 32.5q23 1 41 -10t27.5 -25t23 -26t27.5 -11q30 2 40 61h55q-9 -51 -34.5 -80.5t-62.5 -31.5zM244 -7q-102 0 -153 71t-27 207l49 279h76l-49 -279q-17 -99 20.5 -150.5
t110.5 -51.5t129.5 51.5t73.5 150.5l49 279h55q28 5 32 31l15 85h51l-16 -96q-9 -49 -68 -64l-89 -506h-71l15 106q-33 -49 -86 -81t-117 -32z" />
    <glyph glyph-name="uni1EF0" unicode="&#x1ef0;" horiz-adv-x="724" 
d="M308 -9q-121 0 -187 78t-43 209l80 452h79l-79 -451q-17 -100 28.5 -154t132.5 -54q88 0 155 54t85 154l79 451h57q32 0 39 33l12 67h51l-13 -78q-13 -65 -75 -74l-71 -400q-23 -131 -116.5 -209t-213.5 -78zM281 -163q-21 0 -33 15t-9 37q4 21 22 36t39 15
q20 0 32.5 -15t8.5 -36q-4 -22 -21.5 -37t-38.5 -15z" />
    <glyph glyph-name="uni1EF1" unicode="&#x1ef1;" horiz-adv-x="630" 
d="M244 -7q-102 0 -153 71t-27 207l49 279h76l-49 -279q-17 -99 20.5 -150.5t110.5 -51.5t129.5 51.5t73.5 150.5l49 279h55q28 5 32 31l15 85h51l-16 -96q-9 -49 -68 -64l-89 -506h-71l15 106q-33 -49 -86 -81t-117 -32zM260 -163q-22 0 -34 15t-8 37q3 21 21 36t39 15
q20 0 32.5 -15t8.5 -36q-4 -22 -21.5 -37t-37.5 -15z" />
    <glyph glyph-name="Ygrave" unicode="&#x1ef2;" horiz-adv-x="645" 
d="M440 812h-53l-52 156h71zM314 0h-80l56 316l-195 414h92l159 -323l272 323h92l-341 -416z" />
    <glyph glyph-name="ygrave" unicode="&#x1ef3;" horiz-adv-x="563" 
d="M397 642h-52l-52 156h71zM25 -224q-50 0 -95 21l36 68q34 -16 69 -16q47 0 86 40t85 118l-130 543h82l101 -441l255 441h82l-314 -550q-70 -120 -127 -172t-130 -52z" />
    <glyph glyph-name="uni1EF4" unicode="&#x1ef4;" horiz-adv-x="645" 
d="M314 0h-80l56 316l-195 414h92l159 -323l272 323h92l-341 -416zM244 -163q-18 0 -30 12.5t-12 30.5q0 24 18.5 42t42.5 18q18 0 29.5 -12t11.5 -31q0 -24 -18.5 -42t-41.5 -18z" />
    <glyph glyph-name="uni1EF4" unicode="&#x1ef5;" horiz-adv-x="645" 
d="M314 0h-80l56 316l-195 414h92l159 -323l272 323h92l-341 -416zM244 -163q-18 0 -30 12.5t-12 30.5q0 24 18.5 42t42.5 18q18 0 29.5 -12t11.5 -31q0 -24 -18.5 -42t-41.5 -18z" />
    <glyph glyph-name="uni1EF6" unicode="&#x1ef6;" horiz-adv-x="645" 
d="M388 801l7 44q71 0 80 42q3 18 -10 29t-38 11q-47 0 -70 -19l-13 46q38 25 96 25q46 0 71 -25.5t18 -63.5q-7 -39 -44.5 -64t-96.5 -25zM314 0h-80l56 316l-195 414h92l159 -323l272 323h92l-341 -416z" />
    <glyph glyph-name="uni1EF7" unicode="&#x1ef7;" horiz-adv-x="563" 
d="M317 631l7 44q70 0 79 42q3 18 -9.5 29t-38.5 11q-45 0 -70 -19l-12 46q38 25 96 25q46 0 71 -25.5t18 -63.5t-44.5 -63.5t-96.5 -25.5zM25 -224q-50 0 -95 21l36 68q34 -16 69 -16q47 0 86 40t85 118l-130 543h82l101 -441l255 441h82l-314 -550q-70 -120 -127 -172
t-130 -52z" />
    <glyph glyph-name="uni1EF8" unicode="&#x1ef8;" horiz-adv-x="645" 
d="M492 830q-23 -2 -42 8.5t-29 24.5t-22.5 26t-24.5 12q-35 0 -46 -61h-55q9 49 36.5 80.5t64.5 32.5q23 1 41.5 -10t28 -25t22 -25.5t26.5 -11.5q32 0 42 61h55q-9 -52 -35 -81.5t-62 -30.5zM314 0h-80l56 316l-195 414h92l159 -323l272 323h92l-341 -416z" />
    <glyph glyph-name="uni1EF9" unicode="&#x1ef9;" horiz-adv-x="563" 
d="M421 660q-23 -2 -42 8.5t-29 24.5t-22.5 26t-24.5 12q-36 0 -46 -61h-55q9 49 37 80.5t65 32.5q23 1 40.5 -10t27 -24.5t22.5 -25.5t26 -12q33 0 43 61h55q-9 -52 -35 -81.5t-62 -30.5zM25 -224q-50 0 -95 21l36 68q34 -16 69 -16q47 0 86 40t85 118l-130 543h82
l101 -441l255 441h82l-314 -550q-70 -120 -127 -172t-130 -52z" />
    <glyph glyph-name="endash" unicode="&#x2013;" horiz-adv-x="497" 
d="M464 286h-427l12 65h426z" />
    <glyph glyph-name="emdash" unicode="&#x2014;" horiz-adv-x="983" 
d="M952 296h-913l10 55h912z" />
    <glyph glyph-name="quoteleft" unicode="&#x2018;" horiz-adv-x="223" 
d="M164 502h-72l103 228h55z" />
    <glyph glyph-name="quoteright" unicode="&#x2019;" horiz-adv-x="168" 
d="M120 502h-55l86 228h72z" />
    <glyph glyph-name="quotesinglbase" unicode="&#x201a;" horiz-adv-x="203" 
d="M35 -140h-56l67 229h71z" />
    <glyph glyph-name="quotedblleft" unicode="&#x201c;" horiz-adv-x="364" 
d="M164 502h-72l103 228h55zM305 502h-71l102 228h55z" />
    <glyph glyph-name="quotedblright" unicode="&#x201d;" horiz-adv-x="364" 
d="M147 502h-55l87 228h71zM289 502h-55l86 228h71z" />
    <glyph glyph-name="quotedblbase" unicode="&#x201e;" horiz-adv-x="344" 
d="M35 -140h-56l67 229h71zM176 -140h-55l66 229h72z" />
    <glyph glyph-name="dagger" unicode="&#x2020;" horiz-adv-x="574" 
d="M276 0h-74l90 516h-193l12 69h193l35 195h74l-34 -195h192l-11 -69h-193z" />
    <glyph glyph-name="daggerdbl" unicode="&#x2021;" horiz-adv-x="550" 
d="M262 0h-71l41 239h-182l12 67h182l38 210h-183l11 67h183l35 197h71l-35 -197h184l-11 -67h-184l-37 -210h183l-12 -67h-183z" />
    <glyph glyph-name="bullet" unicode="&#x2022;" horiz-adv-x="404" 
d="M197 188q-56 0 -92.5 35.5t-36.5 89.5q0 73 56 127t127 54q56 0 91.5 -35.5t35.5 -89.5q0 -74 -55.5 -127.5t-125.5 -53.5z" />
    <glyph glyph-name="ellipsis" unicode="&#x2026;" horiz-adv-x="590" 
d="M37 -5q-19 0 -31 12.5t-12 30.5q0 24 18.5 42t42.5 18q18 0 30 -12t12 -29q0 -25 -18.5 -43.5t-41.5 -18.5zM246 -5q-19 0 -31 12.5t-12 30.5q0 24 18.5 42t42.5 18q18 0 30 -12t12 -29q0 -25 -18.5 -43.5t-41.5 -18.5zM455 -5q-19 0 -31 12.5t-12 30.5q0 24 18.5 42
t42.5 18q18 0 30 -12t12 -29q0 -25 -18.5 -43.5t-41.5 -18.5z" />
    <glyph glyph-name="perthousand" unicode="&#x2030;" horiz-adv-x="1178" 
d="M223 392q-61 0 -98.5 41t-37.5 108q0 101 53 171.5t141 70.5q62 0 99 -41t37 -107q0 -99 -53.5 -171t-140.5 -72zM182 0h-61l541 781h61zM226 446q64 0 100 57t36 129q0 50 -24 73.5t-62 23.5q-63 0 -99 -56t-36 -127q0 -51 24 -75.5t61 -24.5zM548 -10q-62 0 -99.5 41
t-37.5 108q0 101 53.5 171.5t141.5 70.5q61 0 98 -41t37 -107q0 -98 -53 -170.5t-140 -72.5zM937 -10q-62 0 -99.5 41t-37.5 108q0 101 53.5 171.5t141.5 70.5q61 0 98 -41t37 -107q0 -98 -53 -170.5t-140 -72.5zM551 44q63 0 99.5 57t36.5 129q0 49 -24.5 73t-62.5 24
q-63 0 -98.5 -56t-35.5 -127q0 -51 24 -75.5t61 -24.5zM940 44q63 0 99.5 57t36.5 129q0 49 -24.5 73t-62.5 24q-63 0 -98.5 -56t-35.5 -127q0 -51 24 -75.5t61 -24.5z" />
    <glyph glyph-name="guilsinglleft" unicode="&#x2039;" horiz-adv-x="320" 
d="M251 183h-75l-107 182l172 183h75l-172 -183z" />
    <glyph glyph-name="guilsinglright" unicode="&#x203a;" horiz-adv-x="320" 
d="M111 183h-75l172 182l-107 183h74l108 -183z" />
    <glyph glyph-name="fraction" unicode="&#x2044;" horiz-adv-x="461" 
d="M42 0h-73l483 730h72z" />
    <glyph glyph-name="franc" unicode="&#x20a3;" horiz-adv-x="600" 
d="M122 0h-80l26 148h-60l9 55h60l93 527h466l-14 -77h-386l-43 -244h367l-14 -78h-366l-23 -128h245l-9 -55h-246z" />
    <glyph glyph-name="lira" unicode="&#x20a4;" horiz-adv-x="635" 
d="M535 0h-531l13 72h87l28 159h-72l10 55h72l20 115h-72l9 54h73q25 134 100 209t178 75q60 0 106 -30.5t68 -81.5l-70 -40q-15 35 -45.5 55.5t-71.5 20.5q-71 0 -120.5 -54.5t-68.5 -153.5h263l-9 -54h-264l-20 -115h263l-9 -55h-264l-28 -159h367z" />
    <glyph glyph-name="peseta" unicode="&#x20a7;" horiz-adv-x="677" 
d="M128 485h-73l7 42h74l35 203h276q97 0 150.5 -54t52.5 -149h64l-7 -42h-65q-23 -88 -99 -146.5t-175 -58.5h-196l-49 -280h-80zM238 659l-22 -132h350q-1 64 -36.5 98t-96.5 34h-195zM208 485l-24 -134h195q65 0 115 38.5t66 95.5h-352z" />
    <glyph glyph-name="Euro" unicode="&#x20ac;" horiz-adv-x="715" 
d="M358 -11q-117 0 -187.5 72t-75.5 196h-62l10 55h53q0 17 6 53q10 44 12 51h-53l10 55h61q48 125 144 197.5t214 72.5q77 0 142 -30t109 -80l-61 -47q-78 85 -203 85q-82 0 -155.5 -51.5t-112.5 -146.5h249l-9 -55h-262q-6 -17 -12 -51q-6 -29 -6 -53h261l-9 -55h-248
q5 -94 60 -144.5t137 -50.5q118 0 234 85l43 -48q-134 -110 -289 -110z" />
    <glyph glyph-name="uni2113" unicode="&#x2113;" horiz-adv-x="456" 
d="M194 -10q-73 0 -103 57.5t-14 136.5l16 94q-28 -2 -40 -2l10 59q21 0 41 3l47 272q14 77 64 123.5t117 46.5q62 0 95.5 -39.5t33.5 -101.5q0 -117 -88 -215t-213 -132l-18 -103q-10 -56 6 -94.5t60 -38.5q92 0 119 152h64q-17 -97 -64.5 -157.5t-132.5 -60.5zM216 610
l-44 -249q91 29 157 106.5t66 163.5q0 43 -20.5 65.5t-57.5 22.5q-39 0 -65.5 -31t-35.5 -78z" />
    <glyph glyph-name="uni2116" unicode="&#x2116;" horiz-adv-x="1140" 
d="M960 398q-63 0 -104.5 41.5t-41.5 101.5q0 79 58 135.5t137 56.5q63 0 104.5 -41.5t41.5 -101.5q0 -78 -58 -135t-137 -57zM109 0h-79l128 730h79l350 -588l103 588h80l-128 -730h-80l-349 588zM966 462q48 0 85.5 36.5t37.5 84.5q0 36 -24 60.5t-62 24.5
q-48 0 -85 -36.5t-37 -84.5q0 -36 24 -60.5t61 -24.5zM1098 258h-335l11 65h335z" />
    <glyph glyph-name="trademark" unicode="&#x2122;" horiz-adv-x="560" 
d="M183 550h-44l33 188h-73l8 42h190l-8 -42h-73zM347 550h-44l41 230h44l59 -130l103 130h44l-41 -230h-44l27 150l-85 -109h-29l-48 109z" />
    <glyph glyph-name="uni2126" unicode="&#x2126;" horiz-adv-x="852" 
d="M294 0h-281l12 72h160q-56 38 -88 101.5t-32 139.5q0 112 60.5 210.5t161.5 156.5t215 58q137 0 228.5 -87.5t91.5 -217.5q0 -108 -63.5 -206.5t-164.5 -154.5h160l-12 -72h-280l12 72q114 33 192.5 132.5t78.5 215.5q0 106 -69.5 174.5t-180.5 68.5q-141 0 -248 -105.5
t-107 -245.5q0 -86 45.5 -151.5t120.5 -88.5z" />
    <glyph glyph-name="estimated" unicode="&#x212e;" horiz-adv-x="626" 
d="M272 -12q-118 0 -184 82.5t-45 203.5q20 118 113.5 201.5t206.5 83.5q114 0 177 -84t43 -201l-6 -27h-404l-29 -163q54 -51 136 -51q55 0 107 24t91 66l33 -23q-46 -52 -109 -82t-130 -30zM212 466l-31 -172h274l29 168q-50 53 -129 53q-74 0 -143 -49z" />
    <glyph glyph-name="uni2150" unicode="&#x2150;" horiz-adv-x="741" 
d="M59 0h-61l541 781h61zM137 336h-53l68 392h-45l10 52h98zM477 0h-59l253 394h-234l9 50h295l-8 -43z" />
    <glyph glyph-name="uni2151" unicode="&#x2151;" horiz-adv-x="732" 
d="M59 0h-61l541 781h61zM137 336h-53l68 392h-45l10 52h98zM449 0h-67l140 139q-73 -3 -115 42t-30 113q11 64 67 110.5t123 46.5t105.5 -46t27.5 -111q-11 -59 -70 -113zM522 190q45 0 81 31t44 73t-18 72.5t-70 30.5q-46 0 -83.5 -30.5t-45.5 -72.5q-8 -43 19 -73.5
t73 -30.5z" />
    <glyph glyph-name="uni2152" unicode="&#x2152;" horiz-adv-x="1048" 
d="M59 0h-61l541 781h61zM137 336h-53l68 392h-45l10 52h98zM772 -8q-72 0 -112.5 46t-40.5 124q0 115 65.5 199.5t167.5 84.5q71 0 111 -44.5t40 -121.5q0 -115 -65 -201.5t-166 -86.5zM502 -1h-52l69 392h-45l9 52h98zM781 46q78 0 122.5 68.5t44.5 158.5q0 61 -30 90.5
t-76 29.5q-77 0 -122.5 -67t-45.5 -157q0 -63 30 -93t77 -30z" />
    <glyph glyph-name="onethird" unicode="&#x2153;" horiz-adv-x="705" 
d="M59 0h-61l541 781h61zM137 336h-53l68 392h-45l10 52h98zM471 -11q-51 0 -86 24t-47 63l51 20q8 -23 33 -38t57 -15q40 0 69.5 22t36.5 58q6 35 -17 59.5t-63 24.5h-22l8 51h22q33 0 59 21t31 48q6 31 -13.5 48.5t-51.5 17.5q-50 0 -81 -39l-41 23q21 30 57.5 49t74.5 19
q55 0 87 -31.5t23 -84.5q-10 -59 -72 -95q30 -16 44.5 -46t7.5 -68q-10 -57 -59 -94t-108 -37z" />
    <glyph glyph-name="twothirds" unicode="&#x2154;" horiz-adv-x="864" 
d="M339 337h-295l7 43l209 163q61 47 69 96q7 37 -12 65.5t-63 28.5q-35 0 -63 -22.5t-40 -47.5l-44 16q21 46 64.5 76.5t92.5 30.5q61 0 95.5 -41t22.5 -106q-13 -73 -92 -133l-152 -117h210zM218 0h-62l541 781h62zM629 -11q-50 0 -85.5 24t-47.5 63l51 20q8 -23 33 -38
t57 -15q40 0 69.5 22t36.5 58q6 35 -17 59.5t-63 24.5h-22l9 51h21q33 0 59 21t32 48q5 31 -14.5 48.5t-51.5 17.5q-50 0 -81 -39l-41 23q21 30 57.5 49t74.5 19q55 0 87 -31.5t23 -84.5q-10 -59 -72 -95q30 -16 44.5 -46t7.5 -68q-10 -57 -59 -94t-108 -37z" />
    <glyph glyph-name="uni2155" unicode="&#x2155;" horiz-adv-x="744" 
d="M59 0h-61l541 781h61zM137 336h-53l68 392h-45l10 52h98zM504 -9q-49 0 -84 28.5t-44 72.5l52 18q6 -28 29.5 -46t56.5 -18q42 0 77 29t42 71q8 42 -16.5 71t-67.5 29q-63 0 -104 -57h-48l62 254h271l-9 -52h-221l-32 -128q41 33 90 33q65 1 102.5 -42.5t26.5 -107.5
q-12 -64 -65.5 -109.5t-117.5 -45.5z" />
    <glyph glyph-name="uni2156" unicode="&#x2156;" horiz-adv-x="892" 
d="M339 337h-295l7 43l209 163q61 47 69 96q7 37 -12 65.5t-63 28.5q-35 0 -63 -22.5t-40 -47.5l-44 16q21 46 64.5 76.5t92.5 30.5q61 0 95.5 -41t22.5 -106q-13 -73 -92 -133l-152 -117h210zM218 0h-62l541 781h62zM652 -10q-50 0 -85 29t-43 74l52 18q5 -28 28.5 -46
t56.5 -18q43 0 77.5 29t41.5 71q8 41 -16.5 70.5t-67.5 29.5q-61 0 -104 -57h-48l63 254h271l-10 -53h-220l-33 -127q43 33 91 33q65 1 102 -42.5t26 -107.5t-65 -110.5t-117 -46.5z" />
    <glyph glyph-name="uni2157" unicode="&#x2157;" horiz-adv-x="897" 
d="M220 0h-61l541 781h61zM189 324q-50 0 -85.5 24t-47.5 62l52 20q8 -23 33 -38t57 -15q40 0 69.5 22t35.5 58q7 35 -16.5 59.5t-63.5 24.5h-22l9 52h21q33 0 59.5 21t31.5 47q5 31 -14.5 48.5t-51.5 17.5q-49 0 -80 -39l-42 23q21 30 57.5 49t74.5 19q55 0 87 -31t23 -85
q-10 -60 -72 -94q30 -16 44.5 -46t8.5 -68q-10 -57 -59.5 -94t-108.5 -37zM657 -9q-50 0 -85 28.5t-43 72.5l52 18q5 -28 28.5 -46t56.5 -18q43 0 77 29t42 71t-16.5 71t-67.5 29q-63 0 -104 -57h-48l62 254h271l-9 -52h-220l-33 -128q41 33 91 33q65 1 102 -42.5t26 -107.5
t-64.5 -109.5t-117.5 -45.5z" />
    <glyph glyph-name="uni2158" unicode="&#x2158;" horiz-adv-x="899" 
d="M222 0h-61l541 781h61zM314 336h-53l19 114h-232l10 53l272 277h62l-49 -277h30l-10 -53h-30zM326 707l-205 -204h169zM659 -9q-50 0 -85 28.5t-43 72.5l52 18q5 -28 28.5 -46t56.5 -18q43 0 77.5 29t42.5 71q8 41 -16.5 70.5t-67.5 29.5q-65 0 -104 -57h-49l62 254h271
l-8 -52h-221l-33 -128q42 33 91 33q65 1 102 -42.5t26 -107.5t-64.5 -109.5t-117.5 -45.5z" />
    <glyph glyph-name="uni2159" unicode="&#x2159;" horiz-adv-x="684" 
d="M59 0h-61l541 781h61zM137 336h-53l68 392h-45l10 52h98zM437 -10q-67 0 -106 46.5t-28 112.5q10 56 70 112l183 183h67l-141 -140q73 3 115 -42t30 -113q-11 -65 -67 -112t-123 -47zM445 45q45 0 83 31t46 73q8 43 -19.5 73.5t-73.5 30.5q-44 0 -80 -31t-44 -73t18 -73
t70 -31z" />
    <glyph glyph-name="uni215A" unicode="&#x215a;" horiz-adv-x="860" 
d="M207 0h-61l541 781h61zM192 330q-50 0 -85 27.5t-44 71.5l53 18q6 -28 30 -46t56 -18q42 0 76.5 29.5t42.5 70.5q7 42 -17.5 71t-67.5 29q-62 0 -103 -57h-48l61 254h271l-9 -52h-221l-32 -127q42 32 90 32q65 2 102.5 -42t26.5 -108q-11 -63 -64.5 -108t-117.5 -45z
M612 -10q-67 0 -106 47t-27 112q8 53 69 112l183 183h67l-141 -140q73 3 115.5 -42t30.5 -113q-12 -65 -68 -112t-123 -47zM620 45q45 0 83 31t46 73q8 43 -19.5 73.5t-73.5 30.5q-44 0 -80 -31.5t-43 -72.5q-8 -42 17.5 -73t69.5 -31z" />
    <glyph glyph-name="oneeighth" unicode="&#x215b;" horiz-adv-x="721" 
d="M59 0h-61l541 781h61zM137 336h-53l68 392h-45l10 52h98zM477 -11q-65 0 -103.5 38t-28.5 97q14 79 95 114q-47 31 -36 91q9 50 53 83t99 33t87.5 -33t23.5 -83q-10 -58 -67 -91q31 -16 46 -45t8 -67q-10 -59 -61.5 -98t-115.5 -39zM523 259q32 0 59 19t32 48t-15 48
t-52 19q-33 0 -59.5 -19t-31.5 -48t14.5 -48t52.5 -19zM486 39q42 0 75 25t40 62q6 37 -18.5 61t-67.5 24q-42 0 -75.5 -24.5t-40.5 -60.5q-7 -38 17.5 -62.5t69.5 -24.5z" />
    <glyph glyph-name="threeeighths" unicode="&#x215c;" horiz-adv-x="882" 
d="M220 0h-61l541 781h61zM189 324q-50 0 -85.5 24t-47.5 62l52 20q8 -23 33 -38t57 -15q40 0 69.5 22t35.5 58q7 35 -16.5 59.5t-63.5 24.5h-22l9 52h21q33 0 59.5 21t31.5 47q5 31 -14.5 48.5t-51.5 17.5q-49 0 -80 -39l-42 23q21 30 57.5 49t74.5 19q55 0 87 -31t23 -85
q-10 -60 -72 -94q30 -16 44.5 -46t8.5 -68q-10 -57 -59.5 -94t-108.5 -37zM638 -11q-65 0 -103.5 38t-27.5 97q6 38 31 68t63 46q-47 31 -36 91q9 50 53 83t100 33q55 0 87 -33t23 -83q-10 -57 -66 -91q31 -16 45.5 -45t7.5 -67q-10 -59 -61.5 -98t-115.5 -39zM684 259
q33 0 59.5 19t31.5 48t-14.5 48t-52.5 19t-59.5 -19t-31.5 -48t14.5 -48t52.5 -19zM647 39q42 0 75 25t40 62t-17.5 61t-68.5 24q-42 0 -75.5 -24.5t-40.5 -60.5q-6 -38 18 -62.5t69 -24.5z" />
    <glyph glyph-name="fiveeighths" unicode="&#x215d;" horiz-adv-x="869" 
d="M207 0h-61l541 781h61zM192 330q-50 0 -85 27.5t-44 71.5l53 18q6 -28 30 -46t56 -18q42 0 76.5 29.5t42.5 70.5q7 42 -17.5 71t-67.5 29q-62 0 -103 -57h-48l61 254h271l-9 -52h-221l-32 -127q42 32 90 32q65 2 102.5 -42t26.5 -108q-11 -63 -64.5 -108t-117.5 -45z
M625 -11q-65 0 -103.5 38t-28.5 97q14 79 95 114q-47 31 -36 91q9 50 53 83t99 33t87.5 -33t23.5 -83q-10 -58 -67 -91q31 -16 46 -45t8 -67q-10 -59 -61.5 -98t-115.5 -39zM671 259q32 0 59 19t32 48t-15 48t-52 19q-33 0 -59.5 -19t-31.5 -48t14.5 -48t52.5 -19zM634 39
q42 0 75 25t40 62q6 37 -18.5 61t-67.5 24q-42 0 -75.5 -24.5t-40.5 -60.5q-7 -38 17.5 -62.5t69.5 -24.5z" />
    <glyph glyph-name="seveneighths" unicode="&#x215e;" horiz-adv-x="754" 
d="M92 0h-61l541 781h61zM152 336h-59l239 394h-234l9 50h294l-8 -43zM510 -11q-65 0 -103.5 38t-28.5 97q14 79 95 114q-47 31 -36 91q9 50 53 83t99 33t87.5 -33t23.5 -83q-10 -58 -67 -91q31 -16 46 -45t8 -67q-10 -59 -61.5 -98t-115.5 -39zM556 259q32 0 59 19t32 48
t-15 48t-52 19q-33 0 -59.5 -19t-31.5 -48t14.5 -48t52.5 -19zM519 39q42 0 75 25t40 62q6 37 -18.5 61t-67.5 24q-42 0 -75.5 -24.5t-40.5 -60.5q-7 -38 17.5 -62.5t69.5 -24.5z" />
    <glyph glyph-name="arrowleft" unicode="&#x2190;" horiz-adv-x="790" 
d="M390 85h-91l-230 280l329 280h91l-290 -247h560l-11 -65h-561z" />
    <glyph glyph-name="arrowup" unicode="&#x2191;" horiz-adv-x="665" 
d="M320 23h-65l100 560l-292 -247l16 92l330 280l230 -280l-16 -92l-204 248z" />
    <glyph glyph-name="arrowright" unicode="&#x2192;" horiz-adv-x="795" 
d="M426 85h-92l293 248h-562l12 65h560l-204 247h92l231 -280z" />
    <glyph glyph-name="arrowdown" unicode="&#x2193;" horiz-adv-x="670" 
d="M620 303l-329 -280l-231 280l16 91l204 -247l99 561h65l-100 -562l292 248z" />
    <glyph glyph-name="arrowboth" unicode="&#x2194;" horiz-adv-x="949" 
d="M390 85h-91l-230 280l329 280h91l-290 -247h594l-204 247h92l231 -280l-330 -280h-92l293 248h-596z" />
    <glyph glyph-name="arrowupdn" unicode="&#x2195;" horiz-adv-x="665" 
d="M604 223l-330 -280l-230 280l16 92l204 -247l102 584l-290 -247l16 92l329 280l231 -280l-16 -92l-205 248l-103 -586l292 248z" />
    <glyph glyph-name="uni2196" unicode="&#x2196;" horiz-adv-x="613" 
d="M541 170l-54 -46l-327 396l-61 -349l-54 64l70 396h396l53 -64h-350z" />
    <glyph glyph-name="uni2197" unicode="&#x2197;" horiz-adv-x="613" 
d="M539 520l-465 -396l-39 46l466 397h-350l76 64h396l-70 -396l-75 -64z" />
    <glyph glyph-name="uni2198" unicode="&#x2198;" horiz-adv-x="613" 
d="M534 123h-396l-54 65h351l-327 397l54 45l327 -396l61 350l53 -65z" />
    <glyph glyph-name="uni2199" unicode="&#x2199;" horiz-adv-x="613" 
d="M422 123h-396l69 396l76 65l-61 -350l465 396l39 -45l-467 -397h350z" />
    <glyph glyph-name="partialdiff" unicode="&#x2202;" horiz-adv-x="595" 
d="M203 -8q-98 0 -145.5 78.5t-14.5 176.5q33 105 123 179t187 74q54 0 93 -27.5t52 -73.5q16 55 20 102t-4 85t-34.5 60t-69.5 22q-83 0 -153 -61l-34 48q99 83 207 83q77 0 118.5 -52.5t41.5 -145.5q0 -74 -29 -170t-69 -173q-48 -95 -124 -150t-165 -55zM221 66
q68 0 132 54t86 127q25 75 -4 127.5t-101 52.5q-67 0 -131 -53t-87 -127q-24 -72 6 -126.5t99 -54.5z" />
    <glyph glyph-name="product" unicode="&#x220f;" horiz-adv-x="685" 
d="M53 -220h-70l167 950h545l-167 -950h-70l155 880h-406z" />
    <glyph glyph-name="summation" unicode="&#x2211;" horiz-adv-x="580" 
d="M441 -220h-476l13 70l352 433l-194 380l12 67h443l-12 -67h-357l194 -380l-354 -433h391z" />
    <glyph glyph-name="minus" unicode="&#x2212;" horiz-adv-x="573" 
d="M512 333h-430l11 65h430z" />
    <glyph glyph-name="uni2215" unicode="&#x2215;" horiz-adv-x="482" 
d="M41 0h-74l506 730h74z" />
    <glyph glyph-name="radical" unicode="&#x221a;" horiz-adv-x="605" 
d="M281 0h-70l-76 354h-62l11 65h107l69 -323l354 714h68z" />
    <glyph glyph-name="infinity" unicode="&#x221e;" horiz-adv-x="729" 
d="M195 186q-59 0 -96 37.5t-37 94.5q0 75 56 132t130 57q95 0 140 -105q79 105 171 105q59 0 95.5 -37.5t36.5 -94.5q0 -76 -55 -132.5t-131 -56.5q-96 0 -137 105q-81 -105 -173 -105zM206 248q38 0 68.5 24.5t65.5 74.5q-16 48 -39 72.5t-60 24.5q-44 0 -78 -34.5
t-34 -80.5q0 -35 21 -58t56 -23zM512 248q45 0 79 36t34 82q0 34 -21.5 56t-56.5 22q-37 0 -68 -24t-66 -73q19 -51 40.5 -75t58.5 -24z" />
    <glyph glyph-name="integral" unicode="&#x222b;" horiz-adv-x="376" 
d="M-80 -220l12 65q56 0 84.5 25t46.5 83l180 616q25 87 74.5 130.5t132.5 43.5l-11 -65q-56 0 -84.5 -25.5t-46.5 -83.5l-180 -616q-25 -86 -75 -129.5t-133 -43.5z" />
    <glyph glyph-name="approxequal" unicode="&#x2248;" horiz-adv-x="515" 
d="M372 329q-44 0 -100.5 39t-92.5 39q-60 0 -92 -69l-51 25q26 53 65 80.5t83 27.5q47 1 104 -38.5t92 -39.5q61 0 93 69l50 -24q-26 -54 -66 -81.5t-85 -27.5zM344 168q-36 0 -69 19.5t-63 39t-61 19.5q-60 0 -93 -69l-51 25q26 53 65 80.5t83 27.5q38 1 71.5 -18.5
t64 -39.5t60.5 -20q61 0 93 69l52 -24q-27 -54 -67 -81.5t-85 -27.5z" />
    <glyph glyph-name="notequal" unicode="&#x2260;" horiz-adv-x="535" 
d="M143 67h-75l95 167h-118l12 65h144l71 124h-193l11 65h219l102 176h75l-101 -176h135l-11 -65h-161l-72 -124h211l-12 -65h-236z" />
    <glyph glyph-name="lessequal" unicode="&#x2264;" horiz-adv-x="515" 
d="M461 270l-12 -71l-380 170l12 69l440 170l-12 -71l-352 -133zM426 68h-410l11 62h410z" />
    <glyph glyph-name="greaterequal" unicode="&#x2265;" horiz-adv-x="515" 
d="M479 369l-440 -170l12 71l353 134l-305 133l12 71l380 -170zM426 68h-410l11 62h410z" />
    <glyph glyph-name="uni2460" unicode="&#x2460;" horiz-adv-x="838" 
d="M369 -13q-138 0 -227 88.5t-89 222.5q0 114 63 217t167 164.5t219 61.5q138 0 227 -89t89 -222q0 -113 -63 -216t-167.5 -165t-218.5 -62zM377 30q75 0 147.5 33t127 86.5t88 126t33.5 146.5q0 117 -79 196.5t-200 79.5q-100 0 -192 -54.5t-148.5 -145.5t-56.5 -191
q0 -118 79 -197.5t201 -79.5zM424 142h-53l69 392h-45l9 52h98z" />
    <glyph glyph-name="uni2461" unicode="&#x2461;" horiz-adv-x="838" 
d="M369 -13q-138 0 -227 88.5t-89 222.5q0 114 63 217t167 164.5t219 61.5q138 0 227 -89t89 -222q0 -113 -63 -216t-167.5 -165t-218.5 -62zM377 30q75 0 147.5 33t127 86.5t88 126t33.5 146.5q0 117 -79 196.5t-200 79.5q-100 0 -192 -54.5t-148.5 -145.5t-56.5 -191
q0 -118 79 -197.5t201 -79.5zM543 140h-295l8 43l209 163q71 55 71 114q0 32 -19 54t-58 22q-35 0 -63.5 -22.5t-39.5 -47.5l-44 16q20 46 63.5 76.5t93.5 30.5q53 0 87 -32t34 -86q0 -92 -96 -162l-152 -117h210z" />
    <glyph glyph-name="uni2462" unicode="&#x2462;" horiz-adv-x="838" 
d="M369 -13q-138 0 -227 88.5t-89 222.5q0 114 63 217t167 164.5t219 61.5q138 0 227 -89t89 -222q0 -113 -63 -216t-167.5 -165t-218.5 -62zM377 30q75 0 147.5 33t127 86.5t88 126t33.5 146.5q0 117 -79 196.5t-200 79.5q-100 0 -192 -54.5t-148.5 -145.5t-56.5 -191
q0 -118 79 -197.5t201 -79.5zM397 137q-51 0 -86 24t-47 62l51 20q8 -24 32.5 -38.5t57.5 -14.5q45 0 76 26.5t31 67.5q0 30 -23 50t-59 20h-21l9 51h21q36 0 61.5 21.5t29.5 59.5q0 26 -19 40t-47 14q-50 0 -81 -39l-41 23q21 30 57.5 49t74.5 19q49 0 80.5 -25.5
t31.5 -69.5q0 -73 -74 -116q56 -31 54 -97q-3 -63 -54 -105t-115 -42z" />
    <glyph glyph-name="uni2463" unicode="&#x2463;" horiz-adv-x="838" 
d="M369 -13q-138 0 -227 88.5t-89 222.5q0 114 63 217t167 164.5t219 61.5q138 0 227 -89t89 -222q0 -113 -63 -216t-167.5 -165t-218.5 -62zM377 30q75 0 147.5 33t127 86.5t88 126t33.5 146.5q0 117 -79 196.5t-200 79.5q-100 0 -192 -54.5t-148.5 -145.5t-56.5 -191
q0 -118 79 -197.5t201 -79.5zM481 142h-53l19 114h-232l10 53l272 277h62l-49 -277h30l-10 -53h-30zM493 513l-205 -204h169z" />
    <glyph glyph-name="uni2464" unicode="&#x2464;" horiz-adv-x="838" 
d="M369 -13q-138 0 -227 88.5t-89 222.5q0 114 63 217t167 164.5t219 61.5q138 0 227 -89t89 -222q0 -113 -63 -216t-167.5 -165t-218.5 -62zM377 30q75 0 147.5 33t127 86.5t88 126t33.5 146.5q0 117 -79 196.5t-200 79.5q-100 0 -192 -54.5t-148.5 -145.5t-56.5 -191
q0 -118 79 -197.5t201 -79.5zM391 139q-50 0 -85 28t-43 72l52 18q6 -28 29.5 -46t56.5 -18q47 0 84 35t37 82q0 35 -24 59t-62 24q-63 0 -104 -57h-48l61 254h271l-8 -52h-221l-33 -127q43 32 96 32q56 0 91 -34.5t35 -88.5q0 -71 -56.5 -126t-128.5 -55z" />
    <glyph glyph-name="uni2465" unicode="&#x2465;" horiz-adv-x="838" 
d="M369 -13q-138 0 -227 88.5t-89 222.5q0 114 63 217t167 164.5t219 61.5q138 0 227 -89t89 -222q0 -113 -63 -216t-167.5 -165t-218.5 -62zM377 30q75 0 147.5 33t127 86.5t88 126t33.5 146.5q0 117 -79 196.5t-200 79.5q-100 0 -192 -54.5t-148.5 -145.5t-56.5 -191
q0 -118 79 -197.5t201 -79.5zM383 139q-60 0 -98 37t-38 93q0 71 52 123l200 199h68l-141 -141q59 4 104 -32.5t45 -95.5q0 -73 -59 -128t-133 -55zM390 192q51 0 91 36.5t40 84.5q0 37 -26.5 62t-68.5 25q-48 0 -86.5 -37t-38.5 -85q0 -37 25 -61.5t64 -24.5z" />
    <glyph glyph-name="uni2466" unicode="&#x2466;" horiz-adv-x="838" 
d="M369 -13q-138 0 -227 88.5t-89 222.5q0 114 63 217t167 164.5t219 61.5q138 0 227 -89t89 -222q0 -113 -63 -216t-167.5 -165t-218.5 -62zM377 30q75 0 147.5 33t127 86.5t88 126t33.5 146.5q0 117 -79 196.5t-200 79.5q-100 0 -192 -54.5t-148.5 -145.5t-56.5 -191
q0 -118 79 -197.5t201 -79.5zM372 142h-58l238 394h-234l9 50h294l-7 -43z" />
    <glyph glyph-name="uni2467" unicode="&#x2467;" horiz-adv-x="838" 
d="M369 -13q-138 0 -227 88.5t-89 222.5q0 114 63 217t167 164.5t219 61.5q138 0 227 -89t89 -222q0 -113 -63 -216t-167.5 -165t-218.5 -62zM377 30q75 0 147.5 33t127 86.5t88 126t33.5 146.5q0 117 -79 196.5t-200 79.5q-100 0 -192 -54.5t-148.5 -145.5t-56.5 -191
q0 -118 79 -197.5t201 -79.5zM391 136q-57 0 -95 31t-38 81q0 45 26.5 81.5t69.5 55.5q-38 26 -38 71q0 57 46.5 96.5t108.5 39.5q50 0 81 -26.5t31 -69.5q0 -34 -18.5 -63.5t-49.5 -47.5q56 -28 56 -89q0 -67 -54 -113.5t-126 -46.5zM438 406q35 0 63 23t28 55
q0 25 -19 40.5t-48 15.5q-36 0 -64 -22.5t-28 -54.5q0 -25 19 -41t49 -16zM400 186q46 0 81 29.5t35 71.5q0 32 -23.5 51.5t-62.5 19.5q-46 0 -81.5 -29.5t-35.5 -70.5q0 -32 23.5 -52t63.5 -20z" />
    <glyph glyph-name="uni2468" unicode="&#x2468;" horiz-adv-x="838" 
d="M369 -13q-138 0 -227 88.5t-89 222.5q0 114 63 217t167 164.5t219 61.5q138 0 227 -89t89 -222q0 -113 -63 -216t-167.5 -165t-218.5 -62zM377 30q75 0 147.5 33t127 86.5t88 126t33.5 146.5q0 117 -79 196.5t-200 79.5q-100 0 -192 -54.5t-148.5 -145.5t-56.5 -191
q0 -118 79 -197.5t201 -79.5zM361 139h-68l142 140q-60 -4 -104.5 32.5t-44.5 94.5q0 73 59 129t133 56q60 0 98.5 -37.5t38.5 -93.5q0 -68 -53 -123zM434 329q49 0 87.5 37t38.5 85q0 37 -25 61.5t-64 24.5q-51 0 -91 -36.5t-40 -84.5q0 -37 26.5 -62t67.5 -25z" />
    <glyph glyph-name="uni24EA" unicode="&#x24ea;" horiz-adv-x="838" 
d="M369 -13q-138 0 -227 88.5t-89 222.5q0 114 63 217t167 164.5t219 61.5q138 0 227 -89t89 -222q0 -113 -63 -216t-167.5 -165t-218.5 -62zM377 30q75 0 147.5 33t127 86.5t88 126t33.5 146.5q0 117 -79 196.5t-200 79.5q-100 0 -192 -54.5t-148.5 -145.5t-56.5 -191
q0 -118 79 -197.5t201 -79.5zM399 137q-72 0 -112.5 45.5t-40.5 124.5q0 115 65.5 199.5t167.5 84.5q71 0 111 -45t40 -121q0 -115 -65 -201.5t-166 -86.5zM406 191q79 0 123.5 69t44.5 159q0 60 -29.5 89.5t-76.5 29.5q-77 0 -122.5 -68t-45.5 -156q0 -63 29.5 -93
t76.5 -30z" />
    <glyph glyph-name="uni24FF" unicode="&#x24ff;" horiz-adv-x="838" 
d="M369 -13q-138 0 -227 88.5t-89 222.5q0 114 63 217t167 164.5t219 61.5q138 0 227 -89t89 -222q0 -113 -63 -216t-167.5 -165t-218.5 -62zM399 137q102 0 166.5 87t64.5 201q0 76 -40 121t-111 45q-103 0 -168 -85.5t-65 -198.5q0 -79 40.5 -124.5t112.5 -45.5zM406 191
q-47 0 -76.5 30t-29.5 93q0 89 45.5 156.5t122.5 67.5q47 0 76.5 -29.5t29.5 -89.5q0 -91 -45 -159.5t-123 -68.5z" />
    <glyph glyph-name="lozenge" unicode="&#x25ca;" horiz-adv-x="565" 
d="M272 0h-74l-129 365l257 365h74l129 -365zM142 365l105 -295l209 295l-105 295z" />
    <glyph glyph-name="uni2776" unicode="&#x2776;" horiz-adv-x="838" 
d="M369 -13q-138 0 -227 88.5t-89 222.5q0 114 63 217t167 164.5t219 61.5q138 0 227 -89t89 -222q0 -113 -63 -216t-167.5 -165t-218.5 -62zM440 534l-69 -392h53l78 444h-98l-9 -52h45z" />
    <glyph glyph-name="uni2777" unicode="&#x2777;" horiz-adv-x="838" 
d="M369 -13q-143 0 -232.5 94t-82.5 234q7 169 142 297.5t306 128.5q156 0 247 -110.5t63 -265.5q-28 -157 -157.5 -267.5t-285.5 -110.5zM256 183l-8 -43h295l9 52h-210l152 117q82 60 93 133q13 62 -21.5 104.5t-96.5 42.5q-50 0 -93.5 -30.5t-63.5 -76.5l44 -16
q11 25 39.5 47.5t63.5 22.5q41 0 61 -25t15 -67q-9 -52 -70 -98z" />
    <glyph glyph-name="uni2778" unicode="&#x2778;" horiz-adv-x="838" 
d="M369 -13q-157 0 -247 110.5t-63 267.5q27 155 156.5 265.5t286.5 110.5q156 0 247 -110.5t63 -265.5q-28 -157 -157.5 -267.5t-285.5 -110.5zM397 137q64 0 115 42t54 105q2 66 -54 97q32 18 52 47.5t21 62.5q4 46 -27.5 73.5t-83.5 27.5q-38 0 -74.5 -19t-57.5 -49
l41 -23q31 39 81 39q28 0 47 -14t19 -40q0 -33 -28 -57t-63 -24h-21l-9 -51h21q36 0 59 -20t23 -50q0 -41 -31 -67.5t-76 -26.5q-33 0 -57.5 14.5t-32.5 38.5l-51 -20q12 -38 47 -62t86 -24z" />
    <glyph glyph-name="uni2779" unicode="&#x2779;" horiz-adv-x="838" 
d="M369 -13q-157 0 -247 110.5t-63 267.5q27 155 156.5 265.5t286.5 110.5q156 0 247 -110.5t63 -265.5q-28 -157 -157.5 -267.5t-285.5 -110.5zM447 256l-19 -114h53l19 114h30l10 53h-30l49 277h-62l-272 -277l-10 -53h232zM457 309h-169l205 204z" />
    <glyph glyph-name="uni277A" unicode="&#x277a;" horiz-adv-x="838" 
d="M369 -13q-157 0 -247 110.5t-63 267.5q27 155 156.5 265.5t286.5 110.5q156 0 247 -110.5t63 -265.5q-28 -157 -157.5 -267.5t-285.5 -110.5zM391 139q70 0 125.5 52t58.5 121q3 57 -32 94t-93 37q-53 0 -96 -32l33 127h221l8 52h-271l-61 -254h48q41 57 104 57
q38 0 62 -24t24 -59q0 -47 -37 -82t-84 -35q-33 0 -56.5 18t-29.5 46l-52 -18q8 -44 43 -72t85 -28z" />
    <glyph glyph-name="uni277B" unicode="&#x277b;" horiz-adv-x="838" 
d="M369 -13q-157 0 -247 110.5t-63 267.5q27 155 156.5 265.5t286.5 110.5q156 0 247 -110.5t63 -265.5q-28 -157 -157.5 -267.5t-285.5 -110.5zM383 139q74 0 133 55t59 128q0 60 -45 96t-104 32l141 141h-68l-200 -199q-52 -52 -52 -123q0 -56 38 -93t98 -37zM390 192
q-39 0 -64.5 25.5t-24.5 62.5q1 48 39 84t86 36q42 0 68.5 -25t26.5 -62q0 -48 -40 -84.5t-91 -36.5z" />
    <glyph glyph-name="uni277C" unicode="&#x277c;" horiz-adv-x="838" 
d="M369 -13q-157 0 -247 110.5t-63 267.5q27 155 156.5 265.5t286.5 110.5q156 0 247 -110.5t63 -265.5q-28 -157 -157.5 -267.5t-285.5 -110.5zM552 536l-238 -394h58l242 401l7 43h-294l-9 -50h234z" />
    <glyph glyph-name="uni277D" unicode="&#x277d;" horiz-adv-x="838" 
d="M369 -13q-157 0 -247 110.5t-63 267.5q27 155 156.5 265.5t286.5 110.5q156 0 247 -110.5t63 -265.5q-28 -157 -157.5 -267.5t-285.5 -110.5zM391 136q72 0 126 46.5t54 113.5q0 61 -56 89q31 18 49.5 47.5t18.5 63.5q0 43 -31 69.5t-81 26.5q-62 0 -108.5 -39.5
t-46.5 -96.5q0 -45 38 -71q-43 -19 -69.5 -55.5t-26.5 -81.5q0 -50 38 -81t95 -31zM438 406q-30 0 -49 16t-19 41q0 32 28 54.5t64 22.5q29 0 48 -15.5t19 -40.5q0 -32 -28 -55t-63 -23zM400 186q-40 0 -63.5 20t-23.5 52q0 41 35.5 70.5t81.5 29.5q39 0 62.5 -19.5
t23.5 -51.5q0 -42 -35 -71.5t-81 -29.5z" />
    <glyph glyph-name="uni277E" unicode="&#x277e;" horiz-adv-x="838" 
d="M369 -13q-157 0 -247 110.5t-63 267.5q27 155 156.5 265.5t286.5 110.5q156 0 247 -110.5t63 -265.5q-28 -157 -157.5 -267.5t-285.5 -110.5zM435 279l-142 -140h68l201 198q53 55 53 123q0 56 -38.5 93.5t-98.5 37.5q-74 0 -133 -56t-59 -129q0 -59 45 -95t104 -32z
M434 329q-41 0 -67.5 25t-26.5 62q0 48 40 84.5t91 36.5q39 0 64 -24.5t25 -61.5q0 -48 -38.5 -85t-87.5 -37z" />
    <glyph glyph-name="a.ss01" horiz-adv-x="682" 
d="M658 550l-79 -452q-3 -13 3.5 -20.5t18.5 -7.5h12l-11 -70h-31q-41 0 -58.5 23t-9.5 60l7 42q-38 -58 -104 -95t-137 -37q-98 0 -164 69t-66 169q0 129 95.5 227.5t225.5 98.5q69 0 125.5 -37t76.5 -94l25 124h71zM290 69q96 0 171.5 73t75.5 169q0 73 -48.5 122
t-124.5 49q-95 0 -170.5 -74.5t-75.5 -168.5q0 -73 48.5 -121.5t123.5 -48.5z" />
    <glyph glyph-name="d.ss01" horiz-adv-x="683" 
d="M700 780l-121 -682q-5 -28 23 -28h12l-11 -70h-31q-41 0 -58 22.5t-11 60.5l6 33q-38 -54 -102.5 -88.5t-137.5 -34.5q-98 0 -164 69t-66 169q0 130 94 228t227 98q68 0 124.5 -35.5t77.5 -91.5l62 350h76zM290 69q101 0 174 72.5t73 169.5q0 73 -48.5 122t-124.5 49
q-99 0 -172.5 -73.5t-73.5 -169.5q0 -73 48.5 -121.5t123.5 -48.5z" />
    <glyph glyph-name="l.ss01" horiz-adv-x="226" 
d="M146 0h-32q-42 0 -60 23t-10 60l123 697h76l-121 -682q-5 -28 23 -28h12z" />
    <glyph glyph-name="m.ss01" horiz-adv-x="906" 
d="M690 557q91 0 134.5 -64t19.5 -199l-51 -294h-76l51 294q18 98 -11.5 143t-89.5 45q-58 0 -105 -45t-64 -143l-51 -294h-76l51 294q18 98 -12 143t-89 45t-106.5 -51.5t-64.5 -151.5l-49 -279h-76l79 453q2 12 -4 19.5t-19 7.5h-12l12 70h31q39 0 56.5 -22.5t11.5 -61.5
l-2 -13q30 49 77.5 76.5t95.5 27.5q64 0 103 -32t48 -85q29 52 79 84.5t109 32.5z" />
    <glyph glyph-name="n.ss01" horiz-adv-x="624" 
d="M380 557q102 0 152.5 -71t27.5 -207l-49 -279h-76l49 279q17 99 -21 151t-111 52t-129 -51.5t-73 -151.5l-49 -279h-76l79 453q2 12 -4 19.5t-19 7.5h-12l12 70h31q39 0 56.5 -22.5t11.5 -61.5l-4 -21q34 49 87.5 80.5t116.5 31.5z" />
    <glyph glyph-name="p.ss01" horiz-adv-x="683" 
d="M416 557q98 0 162.5 -68t64.5 -169q0 -132 -92 -229.5t-224 -97.5q-72 0 -128.5 36.5t-76.5 92.5l-60 -342h-77l119 673q2 12 -4 19.5t-19 7.5h-12l12 70h31q41 0 58 -23t10 -60l-7 -42q38 57 104 94.5t139 37.5zM319 69q100 0 173 73.5t73 169.5q0 73 -49 121.5
t-124 48.5q-96 0 -171.5 -73.5t-75.5 -168.5q0 -73 49 -122t125 -49z" />
    <glyph glyph-name="r.ss01" horiz-adv-x="392" 
d="M377 552q26 0 37 -2l-29 -74q-5 1 -20 1q-81 0 -140 -51.5t-78 -160.5l-46 -265h-76l79 453q2 12 -4 19.5t-19 7.5h-12l12 70h31q39 0 56.5 -22.5t11.5 -61.5l-1 -5q69 91 198 91z" />
    <glyph glyph-name="u.ss01" horiz-adv-x="624" 
d="M599 550l-79 -453q-2 -12 4 -19.5t18 -7.5h13l-12 -70h-31q-40 0 -57.5 22.5t-10.5 61.5l4 21q-34 -49 -87.5 -80.5t-116.5 -31.5q-102 0 -153 71t-27 207l49 279h76l-49 -279q-17 -99 20.5 -150.5t110.5 -51.5t129.5 51.5t73.5 150.5l49 279h76z" />
    <glyph glyph-name="A.ss02" horiz-adv-x="748" 
d="M62 0h-90l483 750h6l219 -750h-88l-56 201h-348zM431 589l-197 -313h283z" />
    <glyph glyph-name="N.ss02" horiz-adv-x="754" 
d="M614 -23h-6l-389 592l-100 -569h-79l132 753h6l389 -591l100 568h80z" />
    <glyph glyph-name="V.ss02" horiz-adv-x="718" 
d="M310 -23h-7l-210 753h88l156 -580l360 580h88z" />
    <glyph glyph-name="W.ss02" horiz-adv-x="1008" 
d="M249 -23h-6l-147 753h86l106 -564l298 587h5l90 -587l305 564h86l-412 -753h-6l-98 594z" />
    <glyph glyph-name="Z.ss02" horiz-adv-x="645" 
d="M551 0h-563v6l538 644h-401l14 80h533l-1 -6l-536 -644h429z" />
    <glyph glyph-name="R.ss02" horiz-adv-x="613" 
d="M598 503q-17 -96 -96 -159.5t-182 -63.5h-23l238 -280h-101l-260 313l-55 -313h-79l128 730h223q107 0 165 -62t42 -165zM380 652h-147l-53 -306h147q72 0 124.5 45t64.5 108q12 65 -27 109t-109 44z" />
    <glyph glyph-name="v.ss02" horiz-adv-x="544" 
d="M223 -23h-7l-153 573h85l100 -413l244 413h85z" />
    <glyph glyph-name="w.ss02" horiz-adv-x="841" 
d="M215 -20h-6l-142 570h84l91 -402l228 425h6l78 -425l232 402h84l-342 -570h-6l-77 434z" />
    <glyph glyph-name="z.ss02" horiz-adv-x="579" 
d="M477 0h-471v6l430 473h-333l11 71h459v-6l-424 -470h341z" />
    <glyph glyph-name="k.ss02" horiz-adv-x="521" 
d="M106 0h-76l137 780h76l-86 -483l277 253h90l-299 -271l236 -279h-96l-215 253z" />
    <glyph glyph-name="K.ss02" horiz-adv-x="613" 
d="M119 0h-79l128 730h79l-60 -340l365 340h90l-395 -370l296 -360h-101l-266 328z" />
    <glyph glyph-name="Iacute_J.loclNLD" horiz-adv-x="719" 
d="M251 812h-52l88 156h71zM721 812h-53l88 156h71zM119 0h-79l128 730h79zM370 -7q-94 0 -146 66l66 51q35 -38 93 -38q68 0 117.5 47t62.5 124l86 487h80l-86 -487q-20 -114 -95.5 -182t-177.5 -68z" />
    <glyph glyph-name="G.ss01" horiz-adv-x="821" 
d="M388 -13q-139 0 -231.5 91.5t-92.5 225.5q0 177 129.5 307t311.5 130q92 0 168 -41t115 -111l-76 -48q-31 54 -87 85.5t-126 31.5q-143 0 -247 -103.5t-104 -241.5q0 -105 69.5 -174t177.5 -69q81 0 153.5 36t121.5 100l27 152h-222l12 68h303l-43 -245
q-62 -91 -156 -142.5t-203 -51.5z" />
    <glyph glyph-name="Gbreve.ss01" horiz-adv-x="821" 
d="M507 816q-64 0 -102 42t-33 106h51q-5 -41 21 -69t68 -28q41 0 76 28t45 69h51q-14 -63 -64.5 -105.5t-112.5 -42.5zM388 -13q-139 0 -231.5 91.5t-92.5 225.5q0 177 129.5 307t311.5 130q92 0 168 -41t115 -111l-76 -48q-31 54 -87 85.5t-126 31.5q-143 0 -247 -103.5
t-104 -241.5q0 -105 69.5 -174t177.5 -69q81 0 153.5 36t121.5 100l27 152h-222l12 68h303l-43 -245q-62 -91 -156 -142.5t-203 -51.5z" />
    <glyph glyph-name="Gcaron.ss01" horiz-adv-x="821" 
d="M556 828h-72l-84 125h70l58 -83l87 83h70zM388 -13q-139 0 -231.5 91.5t-92.5 225.5q0 177 129.5 307t311.5 130q92 0 168 -41t115 -111l-76 -48q-31 54 -87 85.5t-126 31.5q-143 0 -247 -103.5t-104 -241.5q0 -105 69.5 -174t177.5 -69q81 0 153.5 36t121.5 100l27 152
h-222l12 68h303l-43 -245q-62 -91 -156 -142.5t-203 -51.5z" />
    <glyph glyph-name="Gcircumflex.ss01" horiz-adv-x="821" 
d="M450 828h-70l129 125h72l84 -125h-70l-58 83zM388 -13q-139 0 -231.5 91.5t-92.5 225.5q0 177 129.5 307t311.5 130q92 0 168 -41t115 -111l-76 -48q-31 54 -87 85.5t-126 31.5q-143 0 -247 -103.5t-104 -241.5q0 -105 69.5 -174t177.5 -69q81 0 153.5 36t121.5 100
l27 152h-222l12 68h303l-43 -245q-62 -91 -156 -142.5t-203 -51.5z" />
    <glyph glyph-name="uni0122.ss01" horiz-adv-x="821" 
d="M388 -13q-139 0 -231.5 91.5t-92.5 225.5q0 177 129.5 307t311.5 130q92 0 168 -41t115 -111l-76 -48q-31 54 -87 85.5t-126 31.5q-143 0 -247 -103.5t-104 -241.5q0 -105 69.5 -174t177.5 -69q81 0 153.5 36t121.5 100l27 152h-222l12 68h303l-43 -245
q-62 -91 -156 -142.5t-203 -51.5zM357 -198h-61l44 151h71z" />
    <glyph glyph-name="Gdotaccent.ss01" horiz-adv-x="821" 
d="M521 839q-19 0 -31 12t-12 31q0 24 18.5 41.5t42.5 17.5q18 0 30 -12t12 -29q0 -24 -18.5 -42.5t-41.5 -18.5zM388 -13q-139 0 -231.5 91.5t-92.5 225.5q0 177 129.5 307t311.5 130q92 0 168 -41t115 -111l-76 -48q-31 54 -87 85.5t-126 31.5q-143 0 -247 -103.5
t-104 -241.5q0 -105 69.5 -174t177.5 -69q81 0 153.5 36t121.5 100l27 152h-222l12 68h303l-43 -245q-62 -91 -156 -142.5t-203 -51.5z" />
    <glyph glyph-name="M.ss01" horiz-adv-x="903" 
d="M59 0h-82l285 730h82l86 -588l294 588h81l30 -730h-82l-31 582l-285 -582h-62l-81 582z" />
    <glyph glyph-name="uni1E3E.ss01" horiz-adv-x="903" 
d="M549 812h-52l88 156h71zM59 0h-82l285 730h82l86 -588l294 588h81l30 -730h-82l-31 582l-285 -582h-62l-81 582z" />
    <glyph glyph-name="W.ss01" horiz-adv-x="976" 
d="M270 0h-80l-87 730h82l74 -608l263 473h46l95 -473l288 608h82l-344 -730h-79l-89 458z" />
    <glyph glyph-name="Wacute.ss01" horiz-adv-x="976" 
d="M614 812h-52l88 156h71zM270 0h-80l-87 730h82l74 -608l263 473h46l95 -473l288 608h82l-344 -730h-79l-89 458z" />
    <glyph glyph-name="Wcircumflex.ss01" horiz-adv-x="976" 
d="M509 828h-70l129 125h72l84 -125h-70l-58 83zM270 0h-80l-87 730h82l74 -608l263 473h46l95 -473l288 608h82l-344 -730h-79l-89 458z" />
    <glyph glyph-name="Wdieresis.ss01" horiz-adv-x="976" 
d="M494 844q-17 0 -28 11t-11 28q0 21 16.5 37t37.5 16q17 0 28 -10.5t11 -26.5q0 -21 -17 -38t-37 -17zM685 844q-17 0 -28 11t-11 28q0 21 17 37t38 16q16 0 27 -10.5t11 -26.5q0 -21 -16.5 -38t-37.5 -17zM270 0h-80l-87 730h82l74 -608l263 473h46l95 -473l288 608h82
l-344 -730h-79l-89 458z" />
    <glyph glyph-name="Wgrave.ss01" horiz-adv-x="976" 
d="M596 812h-52l-52 156h71zM270 0h-80l-87 730h82l74 -608l263 473h46l95 -473l288 608h82l-344 -730h-79l-89 458z" />
    <glyph glyph-name="Aacute.ss02" horiz-adv-x="748" 
d="M494 812h-53l88 156h71zM62 0h-90l483 750h6l219 -750h-88l-56 201h-348zM431 589l-197 -313h283z" />
    <glyph glyph-name="Abreve.ss02" horiz-adv-x="748" 
d="M474 816q-64 0 -104.5 43.5t-32.5 104.5h51q-5 -41 21 -69t68 -28q41 0 76 28t45 69h51q-14 -63 -64 -105.5t-111 -42.5zM62 0h-90l483 750h6l219 -750h-88l-56 201h-348zM431 589l-197 -313h283z" />
    <glyph glyph-name="uni1EAE.ss02" horiz-adv-x="748" 
d="M515 944h-53l88 156h71zM472 790q-64 0 -104 43.5t-32 104.5h51q-5 -41 20.5 -69t68.5 -28q41 0 76 28t45 69h51q-14 -63 -64 -105.5t-112 -42.5zM62 0h-90l483 750h6l219 -750h-88l-56 201h-348zM431 589l-197 -313h283z" />
    <glyph glyph-name="uni1EB6.ss02" horiz-adv-x="748" 
d="M476 816q-64 0 -104 43.5t-32 104.5h50q-5 -41 21 -69t68 -28t76.5 28t45.5 69h50q-14 -63 -63.5 -105.5t-111.5 -42.5zM62 0h-90l483 750h6l219 -750h-88l-56 201h-348zM431 589l-197 -313h283zM299 -151q-19 0 -30.5 12t-11.5 30q0 24 18.5 42t42.5 18q18 0 29.5 -12
t11.5 -31q0 -24 -18 -41.5t-42 -17.5z" />
    <glyph glyph-name="uni1EB0.ss02" horiz-adv-x="748" 
d="M525 944h-52l-53 156h72zM473 791q-64 0 -104 43t-32 104h51q-5 -41 21 -69t68 -28q41 0 76 28t45 69h51q-14 -63 -64 -105t-112 -42zM62 0h-90l483 750h6l219 -750h-88l-56 201h-348zM431 589l-197 -313h283z" />
    <glyph glyph-name="uni1EB4.ss02" horiz-adv-x="748" 
d="M567 964q-22 0 -39.5 11t-27.5 24.5t-22 24.5t-24 11q-35 0 -45 -61h-55q9 50 38 81.5t67 31.5q22 0 39 -11.5t26.5 -24.5t22.5 -24.5t26 -11.5q31 0 42 61h54q-9 -53 -36.5 -82.5t-65.5 -29.5zM470 800q-64 0 -103 43.5t-31 104.5h51q-1 -46 22.5 -71.5t65.5 -25.5
t76.5 28t45.5 69h51q-15 -63 -66 -105.5t-112 -42.5zM62 0h-90l483 750h6l219 -750h-88l-56 201h-348zM431 589l-197 -313h283z" />
    <glyph glyph-name="uni01CD.ss02" horiz-adv-x="748" 
d="M506 828h-72l-84 125h70l58 -83l87 83h70zM62 0h-90l483 750h6l219 -750h-88l-56 201h-348zM431 589l-197 -313h283z" />
    <glyph glyph-name="Acircumflex.ss02" horiz-adv-x="748" 
d="M399 828h-70l129 125h72l84 -125h-70l-57 83zM62 0h-90l483 750h6l219 -750h-88l-56 201h-348zM431 589l-197 -313h283z" />
    <glyph glyph-name="uni1EA4.ss02" horiz-adv-x="748" 
d="M609 910h-53l89 156h71zM386 785h-70l129 125h72l84 -125h-70l-57 83zM62 0h-90l483 750h6l219 -750h-88l-56 201h-348zM431 589l-197 -313h283z" />
    <glyph glyph-name="uni1EAC.ss02" horiz-adv-x="748" 
d="M399 828h-70l129 125h72l84 -125h-70l-57 83zM62 0h-90l483 750h6l219 -750h-88l-56 201h-348zM431 589l-197 -313h283zM299 -151q-19 0 -30.5 12t-11.5 30q0 24 18.5 42t42.5 18q18 0 29.5 -12t11.5 -31q0 -24 -18 -41.5t-42 -17.5z" />
    </font>
</defs>
</svg>
