<?xml version="1.0" standalone="no"?>
<!DOCTYPE svg PUBLIC "-//W3C//DTD SVG 1.1//EN" "http://www.w3.org/Graphics/SVG/1.1/DTD/svg11.dtd" >
<svg xmlns="http://www.w3.org/2000/svg" xmlns:xlink="http://www.w3.org/1999/xlink" version="1.1">
<metadata>
Created by FontForge 20201107 at Tue Jul 14 08:22:26 2020
 By 
Copyright (c) 2020 by Namela. All rights reserved.
</metadata>
<defs>
<font id="MadaniUprightVariable" horiz-adv-x="637" >
  <font-face 
    font-family="MadaniUprightVariable"
    font-weight="400"
    font-stretch="normal"
    units-per-em="1000"
    panose-1="0 0 5 0 0 0 0 0 0 0"
    ascent="776"
    descent="-224"
    x-height="550"
    cap-height="730"
    bbox="-410 -228 1130 1147"
    underline-thickness="50"
    underline-position="-75"
    unicode-range="U+0020-FB02"
  />
<missing-glyph horiz-adv-x="250" 
 />
    <glyph glyph-name="fi" unicode="fi" horiz-adv-x="472" 
d="M133 -1l-33 1v517h-70v33h70v30q0 77 20 124t55 67t83 20q10 0 23.5 -2t24.5 -5l-10 -31q-22 5 -38 5q-60 0 -92.5 -39t-32.5 -139v-30h251v-551l-33 1v517h-218v-518zM366 624q-13 0 -23 10t-10 23q0 14 10 23.5t23 9.5t22.5 -10t9.5 -23t-9.5 -23t-22.5 -10z" />
    <glyph glyph-name="fl" unicode="fl" horiz-adv-x="485" 
d="M133 -1l-33 1v517h-70v33h70v30q0 77 21 124t58.5 67t90.5 20q38 0 70.5 -12.5t54.5 -29.5l-1 -749h-33l1 733q-14 11 -39 18t-53 7q-67 0 -102 -38.5t-35 -139.5v-30h161v-33h-161v-518z" />
    <glyph glyph-name="f_f" unicode="ff" horiz-adv-x="567" 
d="M133 -1l-33 1v517h-70v33h70v30q0 77 20 124t55 67t83 20q20 0 48 -7l-10 -31q-2 1 -4.5 1t-5.5 1q-15 3 -28 3q-60 0 -92.5 -39t-32.5 -139v-30h218v30q0 77 20 124t55 67t83 20q20 0 48 -7l-10 -31q-2 1 -4.5 1t-5.5 1q-15 3 -28 3q-60 0 -92.5 -39t-32.5 -139v-30h161
v-33h-161v-518l-33 1v517h-218v-518z" />
    <glyph glyph-name="f_f_i" unicode="ffi" horiz-adv-x="722" 
d="M133 -1l-33 1v517h-70v33h70v30q0 77 20 124t55 67t83 20q20 0 48 -7l-10 -31q-2 1 -4.5 1t-5.5 1q-15 3 -28 3q-60 0 -92.5 -39t-32.5 -139v-30h218v30q0 77 20 124t55 67t83 20q10 0 23.5 -2t24.5 -5l-10 -31q-22 5 -38 5q-60 0 -92.5 -39t-32.5 -139v-30h251v-550h-33
v517h-218v-518l-33 1v517h-218v-518zM616 624q-13 0 -23 10t-10 23q0 14 10 23.5t23 9.5t22.5 -10t9.5 -23t-9.5 -23t-22.5 -10z" />
    <glyph glyph-name="f_f_j" unicode="ffj" horiz-adv-x="722" 
d="M480 -228q-30 0 -57 11l11 31q21 -9 46 -9q59 0 90.5 40.5t31.5 121.5v550h-218v-518l-33 1v517h-218v-518l-33 1v517h-70v33h70v30q0 77 20 124t55 67t83 20q20 0 48 -7l-10 -31q-2 1 -4.5 1t-5.5 1q-15 3 -28 3q-60 0 -92.5 -39t-32.5 -139v-30h218v30q0 77 20 124
t55 67t83 20q10 0 23.5 -2t24.5 -5l-10 -31q-22 5 -38 5q-60 0 -92.5 -39t-32.5 -139v-30h251v-583q0 -96 -42 -145.5t-113 -49.5zM616 624q-13 0 -23 10t-10 23q0 14 10 23.5t23 9.5t22.5 -10t9.5 -23t-9.5 -23t-22.5 -10z" />
    <glyph glyph-name="f_f_l" unicode="ffl" horiz-adv-x="736" 
d="M133 -1l-33 1v517h-70v33h70v30q0 77 20 124t55 67t83 20q20 0 48 -7l-10 -31q-2 1 -4.5 1t-5.5 1q-15 3 -28 3q-60 0 -92.5 -39t-32.5 -139v-30h218v30q0 77 21 124t58.5 67t90.5 20q34 0 69 -12.5t56 -29.5l-1 -749h-33l1 733q-15 10 -38.5 17.5t-53.5 7.5
q-67 0 -102 -38.5t-35 -139.5v-30h161v-33h-161v-518l-33 1v517h-218v-518z" />
    <glyph glyph-name="f_j" unicode="fj" horiz-adv-x="472" 
d="M229 -228q-30 0 -57 11l11 31q21 -9 46 -9q59 0 90.5 40.5t31.5 121.5v550h-218v-518l-33 1v517h-70v33h70v30q0 77 20 124t55 67t83 20q10 0 23.5 -2t24.5 -5l-10 -31q-22 5 -38 5q-60 0 -92.5 -39t-32.5 -139v-30h251v-583q0 -96 -42 -145.5t-113 -49.5zM366 624
q-13 0 -23 10t-10 23q0 14 10 23.5t23 9.5t22.5 -10t9.5 -23t-9.5 -23t-22.5 -10z" />
    <glyph glyph-name="t_t" unicode="tt" horiz-adv-x="622" 
d="M254 -7q-66 0 -107 46.5t-41 126.5v351h-76v33h76v180h33v-180h238v180h33v-180h141v-33h-141v-349q0 -67 31.5 -104.5t83.5 -37.5q26 0 47 9l10 -31q-27 -11 -57 -11q-66 0 -107 46.5t-41 126.5v351h-238v-349q0 -67 31.5 -104.5t83.5 -37.5q26 0 47 9l10 -31
q-27 -11 -57 -11z" />
    <glyph glyph-name=".notdef" horiz-adv-x="250" 
 />
    <glyph glyph-name=".null" horiz-adv-x="0" 
 />
    <glyph glyph-name="uni000D" horiz-adv-x="333" 
 />
    <glyph glyph-name="space" unicode=" " horiz-adv-x="280" 
 />
    <glyph glyph-name="exclam" unicode="!" horiz-adv-x="225" 
d="M131 730l-2 -598h-32l-2 598h36zM90 57q10 9 23 9t22.5 -10t9.5 -23t-9.5 -23t-22.5 -10t-23 10t-10 23q0 14 10 24z" />
    <glyph glyph-name="quotedbl" unicode="&#x22;" horiz-adv-x="270" 
d="M175 730h35l-2 -180h-31zM60 730h35l-2 -180h-31z" />
    <glyph glyph-name="numbersign" unicode="#" horiz-adv-x="762" 
d="M67 258h147l45 214h-148l7 33h147l30 144h34l-30 -144h222l29 144h35l-29 -144h146l-7 -33h-146l-44 -214h146l-7 -33h-146l-29 -144h-35l29 144h-221l-30 -144h-34l30 144h-148zM248 258h222l44 214h-221z" />
    <glyph glyph-name="dollar" unicode="$" horiz-adv-x="644" 
d="M79 123q97 -92 231 -99v355q-74 23 -121 44.5t-78 59t-31 94.5q0 45 26.5 82.5t78.5 60.5t125 24v65h33v-66q61 -5 121.5 -33.5t101.5 -81.5l-28 -19q-35 42 -85.5 68.5t-109.5 31.5v-305q79 -25 129 -48t83.5 -64.5t33.5 -106.5q0 -60 -32.5 -103.5t-88 -67
t-125.5 -25.5v-67h-33v68q-70 3 -134 29t-121 80zM343 23q94 2 153 45.5t59 116.5q0 52 -28 86.5t-71.5 55t-112.5 42.5v-346zM140 502q26 -31 66.5 -49.5t103.5 -38.5v296q-89 -1 -142.5 -38.5t-53.5 -94.5q0 -45 26 -75z" />
    <glyph glyph-name="percent" unicode="%" horiz-adv-x="776" 
d="M441 289q19 43 55 67t84 24t83 -24t54 -67.5t19 -101.5q0 -59 -19 -103.5t-54 -69t-83 -24.5t-84 24.5t-55 69t-19 103.5q0 58 19 102zM59 689q19 43 55 67t84 24t83 -24t54 -67.5t19 -101.5q0 -59 -19 -103.5t-54 -69t-83 -24.5t-84 24.5t-55 69t-19 103.5q0 58 19 102z
M455 188q0 -85 36 -125t88 -40q53 0 88.5 40t35.5 125q0 82 -35.5 120.5t-88.5 38.5q-52 0 -88 -39t-36 -120zM109 463q36 -40 88 -40q53 0 88.5 40t35.5 125q0 82 -35.5 120.5t-88.5 38.5q-52 0 -88 -39t-36 -120q0 -85 36 -125zM572 781h37l-404 -781h-37z" />
    <glyph glyph-name="ampersand" unicode="&#x26;" horiz-adv-x="688" 
d="M105 304q44 43 124 76q-45 52 -69.5 95t-24.5 105q0 49 27 86.5t72.5 58t99.5 20.5q55 0 101 -21.5t72.5 -59.5t26.5 -85q0 -53 -31.5 -90t-77 -60.5t-120.5 -52.5l-20 -8l267 -270q49 48 61.5 101t12.5 89q0 32 -7 63l31 12q8 -40 8 -78q0 -43 -15 -101t-68 -110l73 -74
h-46l-52 53q-83 -62 -210 -62q-85 0 -148 24.5t-97.5 70.5t-34.5 108q0 67 45 110zM163 68q70 -44 178 -44q114 0 185 53l-274 277q-76 -32 -117.5 -68t-41.5 -92q0 -83 70 -126zM193 482q24 -42 67 -88q8 3 16.5 6.5t16.5 6.5q71 27 111.5 47.5t68.5 51t28 73.5
q0 45 -24.5 75t-63 44t-78.5 14q-43 0 -81 -15t-62 -45t-24 -73q0 -56 25 -97z" />
    <glyph glyph-name="quotesingle" unicode="'" horiz-adv-x="155" 
d="M62 550l-2 180h35l-2 -180h-31z" />
    <glyph glyph-name="parenleft" unicode="(" horiz-adv-x="290" 
d="M106 593q45 122 120 187h44q-51 -40 -91.5 -110t-63 -157.5t-22.5 -178.5q0 -90 22.5 -177.5t63 -157.5t91.5 -109h-44q-75 64 -120.5 186t-45.5 259q0 136 46 258z" />
    <glyph glyph-name="parenright" unicode=")" horiz-adv-x="290" 
d="M64 780q75 -65 120.5 -187t45.5 -258q0 -137 -45.5 -259t-120.5 -186h-44q51 39 91.5 109t63 157.5t22.5 177.5q0 91 -22.5 178.5t-63 157.5t-91.5 110h44z" />
    <glyph glyph-name="asterisk" unicode="*" horiz-adv-x="395" 
d="M104 392l-26 19l93 129l-151 49l10 31l151 -49v159h33v-158l151 48l10 -31l-151 -49l93 -129l-26 -19l-93 129z" />
    <glyph glyph-name="plus" unicode="+" horiz-adv-x="540" 
d="M253 382v193h33v-193h194v-33h-194v-194h-33v194h-193v33h193z" />
    <glyph glyph-name="comma" unicode="," horiz-adv-x="140" 
d="M40 -140l25 198h35l-30 -198h-30z" />
    <glyph glyph-name="hyphen" unicode="-" horiz-adv-x="480" 
d="M60 349v33h360v-33h-360z" />
    <glyph glyph-name="period" unicode="." horiz-adv-x="145" 
d="M50 57q10 9 23 9t22.5 -10t9.5 -23t-9.5 -23t-22.5 -10t-23 10t-10 23q0 14 10 24z" />
    <glyph glyph-name="slash" unicode="/" horiz-adv-x="450" 
d="M30 -110l354 891h36l-354 -891h-36z" />
    <glyph glyph-name="zero" unicode="0" horiz-adv-x="683" 
d="M60 365q0 116 36 201t100 130t146 45t145.5 -45t99.5 -130t36 -201q0 -115 -36 -200.5t-100 -131.5t-145 -46q-82 0 -146 46t-100 131.5t-36 200.5zM126 178q33 -79 90 -118.5t127 -39.5q69 0 125 39.5t89 118t33 190.5q0 108 -33 184.5t-89.5 116t-124.5 39.5
q-70 0 -126.5 -39.5t-90 -116t-33.5 -184.5q0 -112 33 -190z" />
    <glyph glyph-name="one" unicode="1" horiz-adv-x="293" 
d="M140 0v697h-100v33h133v-730h-33z" />
    <glyph glyph-name="two" unicode="2" horiz-adv-x="598" 
d="M371 314q53 43 83.5 93t30.5 105q0 60 -26 105.5t-71 69.5t-100 24q-75 0 -132.5 -43t-78.5 -104l-31 12q15 46 51 84.5t85 61t103 22.5q65 0 118.5 -28.5t84 -81t30.5 -120.5q0 -64 -32.5 -119.5t-90.5 -103.5l-309 -258h452v-33h-503v34z" />
    <glyph glyph-name="three" unicode="3" horiz-adv-x="596" 
d="M67 138q24 -51 85.5 -85t136.5 -34q61 0 110 23t76.5 64.5t27.5 93.5t-30.5 92t-80.5 62t-107 22h-32v33h32q52 0 95 19.5t68.5 53.5t25.5 76q0 44 -24.5 79.5t-68.5 55t-98 19.5q-56 0 -103 -23t-70 -59l-30 14q29 45 83.5 73t117.5 28t114.5 -23t81.5 -65.5t30 -97.5
q0 -56 -34 -100t-90 -66q69 -23 111 -74.5t42 -119.5q0 -63 -33 -111.5t-89.5 -75t-125.5 -26.5q-86 0 -153.5 39.5t-99.5 100.5z" />
    <glyph glyph-name="four" unicode="4" horiz-adv-x="564" 
d="M30 235l427 495h27v-495h60v-33h-60v-202h-33v202h-421v33zM451 235v437l-377 -437h377z" />
    <glyph glyph-name="five" unicode="5" horiz-adv-x="589" 
d="M71 169q24 -65 82 -105.5t130 -40.5q62 0 114.5 30.5t83 82.5t30.5 114t-30.5 114.5t-83 83t-114.5 30.5t-117.5 -31t-84.5 -81h-33l25 364h452v-33h-421l-19 -271q37 40 89.5 62.5t108.5 22.5q71 0 131 -35t95 -95t35 -131q0 -70 -35 -130t-95 -95t-131 -35
q-82 0 -148.5 46.5t-94.5 121.5z" />
    <glyph glyph-name="six" unicode="6" horiz-adv-x="621" 
d="M50 250q0 50 18 96t51 81l268 303h44l-207 -234q43 16 87 16q37 0 96.5 -19t111.5 -87t52 -156q0 -70 -35 -130t-95 -95t-131 -35q-70 0 -130 35t-95 95t-35 130zM114 137q30 -53 82.5 -83.5t113.5 -30.5q62 0 114.5 30.5t83 82.5t30.5 114t-30.5 114.5t-83 83
t-114.5 30.5t-114 -30.5t-82.5 -83t-30.5 -114.5q0 -61 31 -113z" />
    <glyph glyph-name="seven" unicode="7" horiz-adv-x="581" 
d="M166 0l328 697h-464v33h501v-33l-328 -697h-37z" />
    <glyph glyph-name="eight" unicode="8" horiz-adv-x="631" 
d="M106 329q45 55 117 79q-54 22 -86.5 65.5t-32.5 97.5q0 50 28.5 90.5t77 64t106.5 23.5t106.5 -23.5t77 -64t28.5 -90.5q0 -54 -32.5 -97.5t-86.5 -65.5q72 -24 117 -79.5t45 -124.5q0 -63 -32 -114t-90 -80.5t-133 -29.5t-133.5 29.5t-90.5 80.5t-32 114q0 69 46 125z
M121 107q28 -44 79 -69t116 -25t115.5 25t78.5 68.5t28 96.5q0 51 -30 94t-81 68t-111 25q-61 0 -112 -25t-81 -68t-30 -94q0 -53 28 -96zM137 570q0 -40 23.5 -73.5t64.5 -53.5t90 -20t90.5 19.5t65.5 53.5t24 74q0 42 -24 75t-65 52t-91 19t-90.5 -18.5t-64 -52
t-23.5 -75.5z" />
    <glyph glyph-name="nine" unicode="9" horiz-adv-x="621" 
d="M50 480q0 70 35 130t95 95t131 35q70 0 130 -35t95 -95t35 -130q0 -50 -18 -96t-51 -81l-268 -303h-44l207 234q-43 -16 -87 -16q-37 0 -96.5 19t-111.5 87t-52 156zM114 366q30 -53 82.5 -83.5t114.5 -30.5t114 30.5t82.5 83t30.5 114.5q0 61 -30.5 113.5t-83 83
t-113.5 30.5q-62 0 -114.5 -30.5t-83 -82.5t-30.5 -114t31 -114z" />
    <glyph glyph-name="colon" unicode=":" horiz-adv-x="185" 
d="M70 77q10 9 23 9t22.5 -10t9.5 -23t-9.5 -23t-22.5 -10t-23 10t-10 23q0 14 10 24zM70 521q10 9 23 9t22.5 -10t9.5 -23t-9.5 -23t-22.5 -10t-23 10t-10 23q0 14 10 24z" />
    <glyph glyph-name="semicolon" unicode=";" horiz-adv-x="193" 
d="M85 58h35l-30 -198h-30zM78 521q10 9 23 9t22.5 -10t9.5 -23t-9.5 -23t-22.5 -10t-23 10t-10 23q0 14 10 24z" />
    <glyph glyph-name="less" unicode="&#x3c;" horiz-adv-x="570" 
d="M60 391l450 198v-36l-409 -180l409 -180v-36l-450 198v36z" />
    <glyph glyph-name="equal" unicode="=" horiz-adv-x="540" 
d="M60 434v33h420v-33h-420zM480 288v-33h-420v33h420z" />
    <glyph glyph-name="greater" unicode="&#x3e;" horiz-adv-x="570" 
d="M510 391v-36l-450 -198v36l409 180l-409 180v36z" />
    <glyph glyph-name="question" unicode="?" horiz-adv-x="558" 
d="M109 660q32 39 77 61.5t96 22.5q59 0 108.5 -26.5t78.5 -73t29 -105.5q0 -77 -35 -132t-113 -120q-30 -26 -45.5 -53.5t-15.5 -71.5v-41h-33v41q0 43 16.5 80.5t56.5 69.5q77 61 106.5 114t29.5 111q0 49 -23.5 89t-65.5 62.5t-94 22.5q-69 0 -120.5 -44.5t-70.5 -106.5
l-31 11q16 50 49 89zM250 57q10 9 23 9t22.5 -10t9.5 -23t-9.5 -23t-22.5 -10t-23 10t-10 23q0 14 10 24z" />
    <glyph glyph-name="at" unicode="@" horiz-adv-x="853" 
d="M50 365q0 102 50.5 188.5t137 137t189.5 50.5q102 0 188.5 -50.5t137 -137t50.5 -188.5q0 -49 -17 -99t-50 -81.5t-79 -31.5h-6q-41 2 -68 31.5t-28 80.5q-25 -35 -64 -56t-83 -21q-49 0 -90.5 24.5t-65.5 66t-24 89.5q0 49 24 90.5t65.5 65.5t90.5 24q44 0 83 -20.5
t64 -55.5v77h33v-277q0 -39 17.5 -62.5t44.5 -24.5h3q40 0 66.5 29.5t38.5 72t12 79.5q0 91 -46 170t-124.5 125.5t-172.5 46.5q-95 0 -174 -46.5t-124.5 -125t-45.5 -170.5q0 -95 46.5 -174.5t126 -125.5t171.5 -46q48 0 98 15l9 -32q-49 -16 -107 -16q-103 0 -189.5 51
t-137 137.5t-50.5 189.5zM281 295q19 -34 53 -54t74 -20q39 0 73 20t54 54t20 73q0 40 -20 74t-54 53.5t-73 19.5q-40 0 -74 -19.5t-53.5 -53.5t-19.5 -74q0 -39 20 -73z" />
    <glyph glyph-name="A" unicode="A" horiz-adv-x="680" 
d="M30 0l291 730h38l291 -730h-35l-101 252h-348l-100 -252h-36zM501 285l-161 402l-160 -402h321z" />
    <glyph glyph-name="B" unicode="B" horiz-adv-x="657" 
d="M349 730q65 0 112 -24.5t71.5 -67t24.5 -93.5q0 -55 -28.5 -95.5t-78.5 -61.5q71 -15 114 -65.5t43 -122.5q0 -57 -27.5 -102.5t-78 -71.5t-116.5 -26h-285v730h249zM133 365v-332h251q57 0 100 21.5t66.5 59.5t23.5 86q0 47 -23.5 84.5t-64.5 59t-91 21.5h-262zM133 398
h216q51 0 90.5 19t62 52t22.5 75q0 65 -45 109t-130 44h-216v-299z" />
    <glyph glyph-name="C" unicode="C" horiz-adv-x="770" 
d="M60 365q0 100 50 185.5t135.5 135.5t186.5 50q87 0 163 -37.5t128 -103.5l-26 -20q-47 60 -116.5 94t-148.5 34q-92 0 -170 -45t-123.5 -122.5t-45.5 -169.5q0 -94 45.5 -172t123.5 -123.5t170 -45.5q82 0 153.5 36.5t117.5 100.5l27 -19q-51 -70 -129.5 -110.5
t-168.5 -40.5q-101 0 -186.5 50t-135.5 136t-50 187z" />
    <glyph glyph-name="D" unicode="D" horiz-adv-x="750" 
d="M100 0v730h207q110 0 197.5 -49t136.5 -132t49 -183q0 -101 -47 -185t-134 -132.5t-202 -48.5h-207zM307 33q107 0 186.5 45t121.5 121.5t42 168.5q0 88 -44 163.5t-124 120.5t-182 45h-174v-664h174z" />
    <glyph glyph-name="E" unicode="E" horiz-adv-x="606" 
d="M536 730v-33h-403v-305h383v-33h-383v-326h413v-33h-446v730h436z" />
    <glyph glyph-name="F" unicode="F" horiz-adv-x="606" 
d="M556 730v-33h-423v-305h403v-33h-403v-359h-33v730h456z" />
    <glyph glyph-name="G" unicode="G" horiz-adv-x="853" 
d="M60 365q0 100 50 185.5t135.5 135.5t186.5 50q88 0 165 -39t129 -106l-27 -18q-47 60 -117 95t-150 35q-92 0 -170 -45t-123.5 -122.5t-45.5 -169.5q0 -94 45.5 -172t123.5 -123.5t170 -45.5q96 0 170 42.5t115.5 119t42.5 174.5h-345v33h377q1 -9 1 -29
q0 -107 -45.5 -192t-127.5 -133t-188 -48q-101 0 -186.5 50t-135.5 136t-50 187z" />
    <glyph glyph-name="H" unicode="H" horiz-adv-x="750" 
d="M133 730v-347h484v347h33v-730h-33v350h-484v-350h-33v730h33z" />
    <glyph glyph-name="I" unicode="I" horiz-adv-x="233" 
d="M100 0v730h33v-730h-33z" />
    <glyph glyph-name="J" unicode="J" horiz-adv-x="470" 
d="M60 64q47 -36 109 -36q79 0 128.5 54t49.5 144v504h33v-504q0 -68 -27 -120.5t-75 -81.5t-109 -29q-35 0 -68.5 11t-60.5 32z" />
    <glyph glyph-name="K" unicode="K" horiz-adv-x="660" 
d="M133 730v-432l419 432h46l-287 -296l319 -434h-42l-301 409l-154 -159v-250h-33v730h33z" />
    <glyph glyph-name="L" unicode="L" horiz-adv-x="586" 
d="M100 0v730h33v-697h423v-33h-456z" />
    <glyph glyph-name="M" unicode="M" horiz-adv-x="950" 
d="M142 730l333 -563l333 563h42v-730h-33v681l-326 -552h-32l-326 552v-681h-33v730h42z" />
    <glyph glyph-name="N" unicode="N" horiz-adv-x="800" 
d="M133 730l534 -676v676h33v-730h-33l-534 678v-678h-33v730h33z" />
    <glyph glyph-name="O" unicode="O" horiz-adv-x="863" 
d="M60 365q0 100 50 185.5t135.5 135.5t186.5 50t186 -50t135 -135.5t50 -185.5q0 -101 -50 -187t-135 -136t-186 -50t-186.5 50t-135.5 136t-50 187zM139 194q45 -78 123 -123.5t170 -45.5t169.5 45.5t123 123.5t45.5 172q0 92 -45.5 169.5t-123 122.5t-169.5 45t-170 -45
t-123.5 -122.5t-45.5 -169.5q0 -94 46 -172z" />
    <glyph glyph-name="P" unicode="P" horiz-adv-x="649" 
d="M373 730q64 0 115.5 -29t81 -78.5t29.5 -108.5t-29.5 -108.5t-81 -78.5t-115.5 -29h-240v-298h-33v730h273zM133 331h240q57 0 101 25.5t68 67.5t24 90t-24 90t-68 67.5t-101 25.5h-240v-366z" />
    <glyph glyph-name="Q" unicode="Q" horiz-adv-x="868" 
d="M110 551q50 85 135.5 135t186.5 50t186 -50t135 -135.5t50 -185.5q0 -77 -29 -145.5t-81 -119.5l75 -87l-24 -22l-75 87q-49 -41 -109.5 -63.5t-127.5 -22.5q-101 0 -186.5 50t-135.5 136t-50 187q0 100 50 186zM93 366q0 -94 45.5 -172t123.5 -123.5t170 -45.5
q61 0 116 20.5t99 57.5l-82 95l25 21l82 -94q46 47 72 109t26 132q0 92 -45.5 169.5t-123 122.5t-169.5 45t-170 -45t-123.5 -122.5t-45.5 -169.5z" />
    <glyph glyph-name="R" unicode="R" horiz-adv-x="648" 
d="M100 0v730h273q64 0 115.5 -29t81 -78.5t29.5 -108.5q0 -55 -26 -102.5t-72 -77.5t-105 -35l212 -299h-43l-211 298h-221v-298h-33zM373 331q57 0 101 25.5t68 67.5t24 90t-24 90t-68 67.5t-101 25.5h-240v-366h240z" />
    <glyph glyph-name="S" unicode="S" horiz-adv-x="610" 
d="M78 127q47 -47 105 -73t131 -27h4q88 0 146 43.5t58 119.5q0 55 -30 90t-74.5 54t-118.5 42q-75 22 -121.5 42.5t-78 57.5t-31.5 96q0 46 26.5 84t78.5 60.5t124 22.5q63 0 129.5 -28t108.5 -88l-26 -20q-32 46 -89 74t-119 29q-60 0 -105.5 -17t-70 -47.5t-24.5 -69.5
q0 -48 27.5 -78t68 -47.5t112.5 -39.5q81 -24 129.5 -46t82.5 -63t34 -108q0 -62 -32 -106.5t-86.5 -67t-118.5 -22.5h-6q-71 1 -135 26.5t-122 83.5z" />
    <glyph glyph-name="T" unicode="T" horiz-adv-x="594" 
d="M30 730h534v-33h-250v-697h-33v697h-251v33z" />
    <glyph glyph-name="U" unicode="U" horiz-adv-x="730" 
d="M123 730v-450q0 -82 31.5 -139t85 -85.5t121.5 -28.5q69 0 124.5 28.5t88.5 85.5t33 139v450h33v-451q0 -88 -36.5 -152.5t-99 -98.5t-138.5 -34q-78 0 -140.5 34t-99 98.5t-36.5 152.5v451h33z" />
    <glyph glyph-name="V" unicode="V" horiz-adv-x="660" 
d="M20 730h36l274 -687l275 687h35l-291 -730h-38z" />
    <glyph glyph-name="W" unicode="W" horiz-adv-x="1013" 
d="M30 730h35l216 -674l208 674h35l208 -674l216 674h35l-234 -730h-35l-207 673l-208 -673h-35z" />
    <glyph glyph-name="X" unicode="X" horiz-adv-x="649" 
d="M30 0l273 372l-263 358h41l244 -330l243 330h41l-263 -358l273 -372h-41l-253 344l-254 -344h-41z" />
    <glyph glyph-name="Y" unicode="Y" horiz-adv-x="640" 
d="M61 730l259 -371l259 371h41l-284 -406v-324h-33v326l-283 404h41z" />
    <glyph glyph-name="Z" unicode="Z" horiz-adv-x="641" 
d="M50 0v33l489 664h-479v33h521v-33l-490 -664h500v-33h-541z" />
    <glyph glyph-name="bracketleft" unicode="[" horiz-adv-x="295" 
d="M275 780v-33h-152v-824h152v-33h-185v890h185z" />
    <glyph glyph-name="backslash" unicode="\" horiz-adv-x="470" 
d="M394 -110l-354 891h36l354 -891h-36z" />
    <glyph glyph-name="bracketright" unicode="]" horiz-adv-x="295" 
d="M205 780v-890h-185v33h152v824h-152v33h185z" />
    <glyph glyph-name="asciicircum" unicode="^" horiz-adv-x="440" 
d="M20 430l181 300h38l181 -300h-39l-161 268l-161 -268h-39z" />
    <glyph glyph-name="underscore" unicode="_" horiz-adv-x="550" 
d="M60 0v33h429l1 -33h-430z" />
    <glyph glyph-name="grave" unicode="`" horiz-adv-x="220" 
d="M130 582l-70 148h35l65 -148h-30z" />
    <glyph glyph-name="a" unicode="a" horiz-adv-x="701" 
d="M50 274q0 76 38 140.5t102 102.5t140 38q82 0 151.5 -45t96.5 -113v153h33v-550h-33v149q-27 -66 -96.5 -110.5t-151.5 -44.5q-76 0 -140 37.5t-102 102t-38 140.5zM117 151q33 -57 90 -90.5t123 -33.5q67 0 124 33.5t90.5 90t33.5 123.5t-33.5 124t-90.5 90.5t-124 33.5
q-66 0 -123 -33.5t-90.5 -90.5t-33.5 -124t34 -123z" />
    <glyph glyph-name="b" unicode="b" horiz-adv-x="701" 
d="M90 0v780h33v-383q27 68 96.5 113t151.5 45q76 0 140 -38t102 -102.5t38 -140.5t-38 -140.5t-102 -102t-140 -37.5q-82 0 -151.5 44.5t-96.5 110.5v-149h-33zM123 274q0 -67 33.5 -123.5t90.5 -90t124 -33.5q66 0 123 33.5t90.5 90t33.5 123.5t-33.5 124t-90.5 90.5
t-123 33.5q-67 0 -124 -33.5t-90.5 -90.5t-33.5 -124z" />
    <glyph glyph-name="c" unicode="c" horiz-adv-x="612" 
d="M50 276q0 76 37.5 140.5t102 102t141.5 37.5q69 0 129.5 -32t99.5 -87l-28 -19q-34 49 -87 77t-114 28q-67 0 -124 -33.5t-90.5 -90t-33.5 -123.5t33.5 -124t90.5 -90.5t124 -33.5q62 0 115.5 29t87.5 79l28 -18q-38 -57 -99 -90t-132 -33q-77 0 -141.5 38t-102 102.5
t-37.5 140.5z" />
    <glyph glyph-name="d" unicode="d" horiz-adv-x="701" 
d="M50 274q0 76 38 140.5t102 102.5t140 38q82 0 151.5 -45t96.5 -113v383h33v-780h-33v149q-27 -66 -96.5 -110.5t-151.5 -44.5q-76 0 -140 37.5t-102 102t-38 140.5zM117 151q33 -57 90 -90.5t123 -33.5q67 0 124 33.5t90.5 90t33.5 123.5t-33.5 124t-90.5 90.5t-124 33.5
q-66 0 -123 -33.5t-90.5 -90.5t-33.5 -124t34 -123z" />
    <glyph glyph-name="e" unicode="e" horiz-adv-x="651" 
d="M50 276q0 76 37 140.5t100.5 102t138.5 37.5q79 0 141.5 -37.5t98 -101.5t35.5 -141q0 -11 -2 -31h-514q8 -60 43.5 -110t90.5 -78.5t118 -28.5q61 0 115 27.5t88 74.5l29 -17q-39 -54 -100 -86t-132 -32q-78 0 -144 38t-104.5 102.5t-38.5 140.5zM568 278
q0 67 -31.5 123t-86.5 89t-124 33q-65 0 -121 -33t-89 -89.5t-33 -122.5h485z" />
    <glyph glyph-name="f" unicode="f" horiz-adv-x="316" 
d="M30 550h70v30q0 77 20 124t55 67t83 20q20 0 48 -7l-10 -31q-2 1 -4.5 1t-5.5 1q-15 3 -28 3q-60 0 -92.5 -39t-32.5 -139v-30h161v-33h-161v-518l-33 1v517h-70v33z" />
    <glyph glyph-name="g" unicode="g" horiz-adv-x="701" 
d="M88 415q38 64 102 102t140 38q82 0 151.5 -45t96.5 -113v153h33v-465q0 -103 -38.5 -172.5t-104 -103t-148.5 -33.5q-70 0 -130.5 29t-99.5 79l26 20q34 -44 88.5 -69.5t115.5 -25.5q74 0 132 29t92 90.5t34 156.5v64q-27 -66 -96.5 -110.5t-151.5 -44.5q-76 0 -140 37.5
t-102 102t-38 140.5t38 141zM117 151q33 -57 90 -90.5t123 -33.5q67 0 124 33.5t90.5 90t33.5 123.5t-33.5 124t-90.5 90.5t-124 33.5q-66 0 -123 -33.5t-90.5 -90.5t-33.5 -124t34 -123z" />
    <glyph glyph-name="h" unicode="h" 
d="M90 780h33v-353q24 56 76.5 92t126.5 36q67 0 120.5 -31.5t84.5 -94t31 -151.5v-278h-33v278q0 81 -27 135.5t-72.5 81.5t-103.5 27t-103.5 -27t-72.5 -81.5t-27 -135.5v-278h-33v780z" />
    <glyph glyph-name="i" unicode="i" horiz-adv-x="213" 
d="M123 550v-550h-33v550h33zM84 681q10 9 23 9t22.5 -10t9.5 -23t-9.5 -23t-22.5 -10t-23 10t-10 23q0 14 10 24z" />
    <glyph glyph-name="j" unicode="j" horiz-adv-x="232" 
d="M-59 -186q21 -9 46 -9q59 0 90.5 40.5t31.5 121.5v583h33v-583q0 -96 -42 -145.5t-113 -49.5q-30 0 -57 11zM93 657q0 14 10 23.5t23 9.5t22.5 -10t9.5 -23t-9.5 -23t-22.5 -10t-23 10t-10 23z" />
    <glyph glyph-name="k" unicode="k" horiz-adv-x="565" 
d="M123 780v-543l326 313h48l-220 -212l258 -338h-42l-240 315l-130 -124v-191h-33v780h33z" />
    <glyph glyph-name="l" unicode="l" horiz-adv-x="213" 
d="M90 0v780h33v-780h-33z" />
    <glyph glyph-name="m" unicode="m" horiz-adv-x="916" 
d="M90 550h33v-113q19 56 65 87t98 31q74 0 120.5 -41t60.5 -105q14 63 61 104.5t117 41.5q87 0 141.5 -63t54.5 -194v-298h-33v298q0 118 -45 171t-118 53q-70 0 -116.5 -54t-46.5 -170v-298h-33v298q0 118 -45 171t-118 53q-46 0 -83 -27t-58.5 -82t-21.5 -135v-278h-33
v550z" />
    <glyph glyph-name="n" unicode="n" 
d="M90 550h33v-123q24 56 76.5 92t126.5 36q67 0 120.5 -31.5t84.5 -94t31 -151.5v-278h-33v278q0 81 -27 135.5t-72.5 81.5t-103.5 27t-103.5 -27t-72.5 -81.5t-27 -135.5v-278h-33v550z" />
    <glyph glyph-name="o" unicode="o" horiz-adv-x="661" 
d="M50 276q0 76 37.5 140.5t102 102t141.5 37.5q76 0 140 -37.5t102 -102t38 -140.5t-38 -140.5t-102 -102.5t-140 -38q-77 0 -141.5 38t-102 102.5t-37.5 140.5zM117 152q33 -57 90 -90.5t124 -33.5q66 0 123 33.5t90.5 90.5t33.5 124t-33.5 123.5t-90.5 90t-123 33.5
q-67 0 -124 -33.5t-90.5 -90t-33.5 -123.5t34 -124z" />
    <glyph glyph-name="p" unicode="p" horiz-adv-x="701" 
d="M123 550v-149q27 66 96.5 110.5t151.5 44.5q76 0 140 -37.5t102 -102t38 -140.5t-38 -140.5t-102 -102.5t-140 -38q-82 0 -151.5 45t-96.5 113v-373h-33v770h33zM123 276q0 -67 33.5 -124t90.5 -90.5t124 -33.5q66 0 123 33.5t90.5 90.5t33.5 124t-33.5 123.5t-90.5 90
t-123 33.5q-67 0 -124 -33.5t-90.5 -90t-33.5 -123.5z" />
    <glyph glyph-name="q" unicode="q" horiz-adv-x="701" 
d="M88 417q38 64 102 101.5t140 37.5q82 0 151.5 -44.5t96.5 -110.5v149h33v-770h-33v373q-27 -68 -96.5 -113t-151.5 -45q-76 0 -140 38t-102 102.5t-38 140.5t38 141zM117 152q33 -57 90 -90.5t123 -33.5q67 0 124 33.5t90.5 90.5t33.5 124t-33.5 123.5t-90.5 90
t-124 33.5q-66 0 -123 -33.5t-90.5 -90t-33.5 -123.5t34 -124z" />
    <glyph glyph-name="r" unicode="r" horiz-adv-x="375" 
d="M123 550v-107q26 52 75.5 80.5t113.5 28.5h4q11 0 29 -2l-7 -33q-14 2 -23 2h-3q-86 0 -137.5 -58.5t-51.5 -173.5v-287h-33v549z" />
    <glyph glyph-name="s" unicode="s" horiz-adv-x="560" 
d="M80 115q29 -38 87 -62.5t125 -24.5q79 0 129.5 34t50.5 91q0 39 -25.5 62.5t-63 35.5t-101.5 25q-70 15 -109.5 28t-68 40.5t-28.5 73.5q0 39 24.5 70t69.5 49t105 18q56 0 112.5 -20.5t97.5 -69.5l-24 -23q-32 41 -82 60.5t-103 19.5q-72 0 -119.5 -27.5t-47.5 -77.5
q0 -33 23.5 -53.5t58 -31.5t95.5 -24q71 -16 114.5 -30.5t74 -45t30.5 -80.5q0 -52 -30.5 -87.5t-79.5 -52.5t-104 -17q-63 0 -128 23t-108 75z" />
    <glyph glyph-name="t" unicode="t" horiz-adv-x="351" 
d="M30 550h76v180h33v-180h141v-33h-141v-349q0 -67 31.5 -104.5t83.5 -37.5q26 0 47 9l10 -31q-27 -11 -57 -11q-66 0 -107 46.5t-41 126.5v351h-76v33z" />
    <glyph glyph-name="u" unicode="u" 
d="M108 550v-278q0 -81 27 -135.5t72.5 -81.5t103.5 -27t103.5 27t72.5 81.5t27 135.5v278h33v-550h-33v123q-24 -56 -76.5 -92t-126.5 -36q-67 0 -120.5 31.5t-84.5 94t-31 151.5v278h33z" />
    <glyph glyph-name="v" unicode="v" horiz-adv-x="544" 
d="M20 550h36l216 -508l216 508h36l-234 -550h-36z" />
    <glyph glyph-name="w" unicode="w" horiz-adv-x="860" 
d="M25 550h35l180 -500l173 500h34l173 -500l180 500h35l-198 -550h-35l-172 499l-172 -499h-35z" />
    <glyph glyph-name="x" unicode="x" horiz-adv-x="561" 
d="M30 0l229 275l-229 275h43l208 -249l207 249h43l-229 -275l229 -275h-43l-207 249l-208 -249h-43z" />
    <glyph glyph-name="y" unicode="y" horiz-adv-x="560" 
d="M33 -168q18 -9 37.5 -14t40.5 -5q36 0 63 23t46 58t48 100q0 2 0.5 3.5t1.5 2.5l-234 550h36l216 -508l216 508h36l-234 -550q-37 -84 -62 -128t-56.5 -68t-76.5 -24q-26 0 -46.5 5t-44.5 16z" />
    <glyph glyph-name="z" unicode="z" horiz-adv-x="583" 
d="M509 550v-33l-406 -484h420v-33h-463v33l405 484h-405v33h449z" />
    <glyph glyph-name="braceleft" unicode="{" horiz-adv-x="303" 
d="M60 352q42 0 72.5 26t30.5 85v182q0 56 22.5 95.5t97.5 39.5v-33q-50 0 -68.5 -23.5t-18.5 -75.5v-184q0 -50 -19 -81.5t-49 -46.5q68 -36 68 -129v-185q0 -52 18.5 -75.5t68.5 -23.5v-33q-75 0 -97.5 39.5t-22.5 95.5v183q0 59 -30.5 85t-72.5 26v33z" />
    <glyph glyph-name="bar" unicode="|" horiz-adv-x="213" 
d="M90 -220v950h33v-950h-33z" />
    <glyph glyph-name="braceright" unicode="}" horiz-adv-x="303" 
d="M20 747v33q75 0 97.5 -39.5t22.5 -95.5v-182q0 -59 30.5 -85t72.5 -26v-33q-42 0 -72.5 -26t-30.5 -85v-183q0 -56 -22.5 -95.5t-97.5 -39.5v33q50 0 68.5 23.5t18.5 75.5v185q0 93 68 129q-30 15 -49 46.5t-19 81.5v184q0 52 -18.5 75.5t-68.5 23.5z" />
    <glyph glyph-name="asciitilde" unicode="~" horiz-adv-x="500" 
d="M67 434q31 24 71 24h5q30 0 56 -11t59 -33q35 -22 56 -30.5t42 -8.5q8 0 17 1q26 3 46 22t31 53l30 -15q-14 -42 -42 -66t-64 -28q-10 -1 -19 -1q-24 0 -47.5 9.5t-62.5 33.5q-31 21 -54.5 31t-48.5 10h-5q-30 -1 -52.5 -19.5t-34.5 -56.5l-30 15q15 46 47 70z" />
    <glyph glyph-name="exclamdown" unicode="&#xa1;" horiz-adv-x="225" 
d="M97 418h32l2 -639h-36zM90 541q10 9 23 9t22.5 -10t9.5 -23t-9.5 -23t-22.5 -10t-23 10t-10 23q0 14 10 24z" />
    <glyph glyph-name="cent" unicode="&#xa2;" horiz-adv-x="622" 
d="M50 366q0 75 35.5 138.5t96.5 102.5t135 43v80h33v-79q67 -4 125 -36.5t95 -85.5l-28 -18q-33 46 -83 74.5t-109 32.5v-505q59 4 110.5 34t84.5 78l27 -19q-37 -55 -95.5 -88.5t-126.5 -37.5v-80h-33v81q-74 4 -135 43.5t-96.5 103t-35.5 138.5zM83 366q0 -65 31 -121.5
t84.5 -91.5t118.5 -39v503q-65 -4 -118.5 -39t-84.5 -91t-31 -121z" />
    <glyph glyph-name="sterling" unicode="&#xa3;" horiz-adv-x="640" 
d="M150 33v271h-70v33h70v113q0 96 29.5 160.5t79 96t112.5 31.5q57 0 106.5 -29t80.5 -77l-28 -17q-26 41 -68 65.5t-91 24.5q-83 0 -135.5 -63t-52.5 -192v-113h247v-33h-247v-271h397v-33h-520v33h90z" />
    <glyph glyph-name="currency" unicode="&#xa4;" horiz-adv-x="571" 
d="M125 213q-24 28 -37 63.5t-13 73.5t13.5 73t37.5 62l-65 65l23 24l65 -65q60 49 135 49q76 0 136 -50l66 66l25 -24l-66 -66q50 -60 50 -135q0 -39 -13 -74t-37 -62l65 -65l-23 -24l-65 65q-28 -24 -63.5 -37t-73.5 -13t-73 13t-62 37l-65 -65l-25 24zM133 260
q23 -41 62.5 -65t88.5 -24q48 0 89 24t65 65t24 89q0 47 -24 87t-65 64t-89 24q-49 0 -88.5 -23.5t-62.5 -64t-23 -87.5q0 -49 23 -89z" />
    <glyph glyph-name="yen" unicode="&#xa5;" horiz-adv-x="642" 
d="M20 730h42l259 -371l259 371h42l-266 -380h204v-33h-222v-101h222v-33h-222v-183h-34v183h-217v33h217v101h-217v33h199z" />
    <glyph glyph-name="brokenbar" unicode="&#xa6;" horiz-adv-x="193" 
d="M80 398v382h33v-382h-33zM113 162v-382h-33v382h33z" />
    <glyph glyph-name="section" unicode="&#xa7;" horiz-adv-x="466" 
d="M81 110q25 -33 69.5 -55.5t94.5 -22.5q64 0 98.5 27t34.5 69q0 34 -20.5 55.5t-51 34.5t-81.5 28q-56 17 -89.5 31.5t-56.5 41t-23 67.5t24.5 68t65.5 37q-43 19 -67 47t-24 72q0 42 22 71.5t59.5 44.5t83.5 15q53 0 105.5 -24t85.5 -67l-26 -20q-25 33 -69.5 55.5
t-94.5 22.5q-64 0 -98.5 -27t-34.5 -69q0 -34 20.5 -55.5t51 -34.5t81.5 -28q56 -17 89.5 -31.5t56.5 -41t23 -67.5t-24.5 -68t-65.5 -37q43 -19 67 -47t24 -72q0 -42 -22 -71.5t-59.5 -44.5t-83.5 -15q-53 0 -105.5 24t-85.5 67zM108 338q19 -20 47.5 -32t75.5 -26
q19 -5 38 -5q15 0 39.5 4.5t46.5 23.5t22 50q0 29 -19 49t-47.5 32t-75.5 26q-19 5 -38 5q-15 0 -39.5 -4.5t-46.5 -23.5t-22 -50q0 -29 19 -49z" />
    <glyph glyph-name="dieresis" unicode="&#xa8;" horiz-adv-x="290" 
d="M20 647q0 14 10 23.5t23 9.5t22.5 -10t9.5 -23t-9.5 -23t-22.5 -10t-23 10t-10 23zM205 647q0 14 10 23.5t23 9.5t22.5 -10t9.5 -23t-9.5 -23t-22.5 -10t-23 10t-10 23z" />
    <glyph glyph-name="copyright" unicode="&#xa9;" horiz-adv-x="853" 
d="M101 554q50 86 136.5 136.5t189.5 50.5q102 0 188.5 -50.5t137 -137t50.5 -188.5q0 -103 -50.5 -189.5t-137 -137.5t-188.5 -51q-103 0 -189.5 51t-137 137.5t-50.5 189.5q0 102 51 189zM129 192q46 -80 125.5 -127t172.5 -47q92 0 171.5 47t126 127t46.5 173
q0 92 -46.5 171.5t-126 126.5t-171.5 47q-93 0 -172 -47t-126 -126.5t-47 -171.5q0 -93 47 -173zM219 365q0 56 28 103t76 75t104 28q50 0 93.5 -22.5t72.5 -61.5l-26 -19q-24 33 -61 52t-79 19q-47 0 -87.5 -23.5t-64 -63.5t-23.5 -87q0 -48 23.5 -88.5t64 -64t87.5 -23.5
q43 0 80.5 20.5t61.5 54.5l27 -20q-29 -40 -73.5 -63.5t-95.5 -23.5q-57 0 -104.5 28t-75.5 75.5t-28 104.5z" />
    <glyph glyph-name="ordfeminine" unicode="&#xaa;" horiz-adv-x="374" 
d="M78 567q38 30 98 30h112q0 51 -27 79t-77 28q-30 0 -57 -11t-48 -28l-26 20q24 25 58.5 39.5t74.5 14.5q42 0 73 -17t48 -49t17 -75v-219h-36v50q-18 -26 -49 -41t-72 -15q-52 0 -89.5 31t-37.5 81q0 51 38 82zM103 430q27 -22 66 -22q51 0 85 24.5t34 61.5v68h-111
q-46 0 -74 -20.5t-28 -55.5t28 -56z" />
    <glyph glyph-name="guillemotleft" unicode="&#xab;" horiz-adv-x="369" 
d="M177 365l94 164h38l-94 -164l94 -164h-38zM154 529h38l-94 -164l94 -164h-38l-94 164z" />
    <glyph glyph-name="logicalnot" unicode="&#xac;" horiz-adv-x="540" 
d="M447 202v147h-387v33h420v-180h-33z" />
    <glyph glyph-name="registered" unicode="&#xae;" horiz-adv-x="853" 
d="M50 365q0 102 50.5 188.5t137 137t189.5 50.5q102 0 188.5 -50.5t137 -137t50.5 -188.5q0 -103 -50.5 -189.5t-137 -137.5t-188.5 -51q-103 0 -189.5 51t-137 137.5t-50.5 189.5zM129 192q46 -80 125.5 -127t172.5 -47q92 0 171.5 47t126 127t46.5 173q0 92 -46.5 171.5
t-126 126.5t-171.5 47q-93 0 -172 -47t-126 -126.5t-47 -171.5q0 -93 47 -173zM415 555q60 0 98 -34t38 -89q0 -47 -31 -79.5t-79 -37.5l123 -140h-45l-117 137h-62v-137h-33v380h108zM340 522v-177h75q54 0 78.5 26.5t24.5 60.5q0 43 -29.5 66.5t-73.5 23.5h-75z" />
    <glyph glyph-name="macron" unicode="&#xaf;" horiz-adv-x="470" 
d="M60 662v33h350v-33h-350z" />
    <glyph glyph-name="degree" unicode="&#xb0;" horiz-adv-x="280" 
d="M20 671q0 50 35 85t85 35q32 0 60 -16t44 -44t16 -60t-16 -60t-44 -44t-60 -16q-33 0 -60.5 16t-43.5 43.5t-16 60.5zM54 670q0 -36 24.5 -61t61.5 -25t61.5 25t24.5 61q0 38 -24.5 63t-61.5 25t-61.5 -25t-24.5 -63z" />
    <glyph glyph-name="plusminus" unicode="&#xb1;" horiz-adv-x="540" 
d="M253 442v193h33v-193h194v-33h-194v-194h-33v194h-193v33h193zM60 134h420v-33h-420v33z" />
    <glyph glyph-name="twosuperior" unicode="&#xb2;" horiz-adv-x="360" 
d="M218 602q60 53 60 108q0 45 -28 78.5t-81 33.5q-42 0 -69.5 -27t-35.5 -56l-31 11q12 46 50 75.5t86 29.5q39 0 71.5 -18t51.5 -51t19 -76q0 -37 -20 -71t-53 -63l-158 -137h240v-33h-290v33z" />
    <glyph glyph-name="threesuperior" unicode="&#xb3;" horiz-adv-x="352" 
d="M60 496q14 -27 44.5 -44.5t68.5 -17.5q46 0 76 26t30 68q0 41 -31.5 70t-76.5 29h-20v33h19q40 0 65.5 25.5t25.5 56.5q0 38 -26.5 59t-64.5 21q-27 0 -50 -12.5t-36 -33.5l-27 18q17 27 47 44t65 17q53 0 89 -31t36 -81q0 -31 -16 -57t-44 -41q35 -16 56.5 -47.5
t21.5 -70.5q0 -37 -19 -65.5t-51 -44.5t-70 -16q-48 0 -86 23t-56 58z" />
    <glyph glyph-name="acute" unicode="&#xb4;" horiz-adv-x="140" 
d="M20 582l65 148h35l-70 -148h-30z" />
    <glyph glyph-name="uni00B5" unicode="&#xb5;" horiz-adv-x="597" 
d="M93 550v-282q0 -123 55.5 -186t149.5 -63q58 0 105 27.5t74.5 83.5t27.5 138v282h32v-550h-32v113q-29 -61 -83 -94t-126 -33q-68 0 -120.5 31t-82.5 91v-328h-33v770h33z" />
    <glyph glyph-name="paragraph" unicode="&#xb6;" horiz-adv-x="613" 
d="M50 526q0 69 31 127.5t84.5 92.5t116.5 34h241v-911h-33v878h-114v-878h-33v403h-61q-63 0 -116.5 34t-84.5 92.5t-31 127.5z" />
    <glyph glyph-name="periodcentered" unicode="&#xb7;" horiz-adv-x="145" 
d="M50 389q9 9 23 9t23 -9t9 -23t-9 -23.5t-23 -9.5t-23.5 9.5t-9.5 23.5t10 23z" />
    <glyph glyph-name="cedilla" unicode="&#xb8;" horiz-adv-x="224" 
d="M36 -164q8 -8 29.5 -15.5t42.5 -7.5q29 0 46 14t17 36q0 24 -19.5 38t-58.5 14h-35l28 85h35l-17 -52q48 -3 74 -26t26 -58q0 -23 -11.5 -42.5t-33.5 -30.5t-52 -11q-24 0 -48.5 8t-38.5 20z" />
    <glyph glyph-name="onesuperior" unicode="&#xb9;" horiz-adv-x="158" 
d="M65 406v411h-45v33h78v-444h-33z" />
    <glyph glyph-name="ordmasculine" unicode="&#xba;" horiz-adv-x="452" 
d="M40 553q0 50 25 93t67.5 68t93.5 25q50 0 93 -25t68 -68t25 -93t-25 -93t-68 -68t-93 -25q-51 0 -93.5 25t-67.5 68t-25 93zM73 553q0 -41 20 -76t55 -56t77 -21t77.5 21t56 56t20.5 76t-20.5 76t-56 56t-77.5 21t-77 -21t-55 -56t-20 -76z" />
    <glyph glyph-name="guillemotright" unicode="&#xbb;" horiz-adv-x="369" 
d="M177 201l94 164l-94 164h38l94 -164l-94 -164h-38zM60 529h38l94 -164l-94 -164h-38l94 164z" />
    <glyph glyph-name="onequarter" unicode="&#xbc;" horiz-adv-x="605" 
d="M265 123v33l247 288h33v-288h30v-33h-30v-123h-33v123h-247zM39 0l404 781h37l-404 -781h-37zM512 156v238l-204 -238h204zM108 780v-444h-33v411h-45v33h78z" />
    <glyph glyph-name="onehalf" unicode="&#xbd;" horiz-adv-x="704" 
d="M552 196q60 53 60 108q0 45 -28 78.5t-81 33.5q-42 0 -69.5 -27t-35.5 -56l-31 11q12 46 50 75.5t86 29.5q39 0 71.5 -18t51.5 -51t19 -76q0 -37 -20 -71t-53 -63l-158 -137h240v-33h-290v33zM443 781h37l-404 -781h-37zM30 747v33h78v-444h-33v411h-45z" />
    <glyph glyph-name="threequarters" unicode="&#xbe;" horiz-adv-x="773" 
d="M680 444h33v-288h30v-33h-30v-123h-33v123h-247v33zM65 420q14 -27 44.5 -44.5t68.5 -17.5q46 0 76 26t30 68q0 41 -31.5 70t-76.5 29h-20v33h19q40 0 65.5 25.5t25.5 56.5q0 38 -26.5 59t-64.5 21q-27 0 -50 -12.5t-36 -33.5l-27 18q17 27 47 44t65 17q53 0 89 -31
t36 -81q0 -31 -16 -57t-44 -41q35 -16 56.5 -47.5t21.5 -70.5q0 -37 -19 -65.5t-51 -44.5t-70 -16q-48 0 -86 23t-56 58zM611 781h37l-404 -781h-37zM476 156h204v238z" />
    <glyph glyph-name="questiondown" unicode="&#xbf;" horiz-adv-x="558" 
d="M60 11q0 77 35 132t113 120q30 26 45.5 53.5t15.5 71.5v41h33v-41q0 -43 -16.5 -80.5t-56.5 -69.5q-77 -61 -106.5 -114t-29.5 -111q0 -49 23.5 -89t65.5 -62.5t94 -22.5q69 0 120.5 44.5t70.5 106.5l31 -11q-16 -50 -48.5 -89t-77.5 -61.5t-96 -22.5q-59 0 -108.5 26.5
t-78.5 73t-29 105.5zM263 540q9 10 22 10q14 0 23.5 -9.5t9.5 -23.5q0 -13 -9.5 -23t-23.5 -10q-13 0 -22.5 10t-9.5 23t10 23z" />
    <glyph glyph-name="Agrave" unicode="&#xc0;" horiz-adv-x="680" 
d="M321 730h38l291 -730h-35l-101 252h-348l-100 -252h-36zM501 285l-161 402l-160 -402h321zM277 964l65 -148h-30l-70 148h35z" />
    <glyph glyph-name="Aacute" unicode="&#xc1;" horiz-adv-x="680" 
d="M321 730h38l291 -730h-35l-101 252h-348l-100 -252h-36zM501 285l-161 402l-160 -402h321zM392 964h35l-70 -148h-30z" />
    <glyph glyph-name="Acircumflex" unicode="&#xc2;" horiz-adv-x="680" 
d="M30 0l291 730h38l291 -730h-35l-101 252h-348l-100 -252h-36zM501 285l-161 402l-160 -402h321zM314 950h44l108 -120h-44l-86 96l-86 -96h-44z" />
    <glyph glyph-name="Atilde" unicode="&#xc3;" horiz-adv-x="680" 
d="M321 730h38l291 -730h-35l-101 252h-348l-100 -252h-36zM180 285h321l-161 402zM223 918q20 27 50 29h7q20 0 35 -10t38 -33q17 -18 30 -27t27 -9h3q16 1 26 18.5t10 51.5h33q0 -47 -18.5 -73.5t-47.5 -28.5q-5 -1 -10 -1q-19 0 -36 11t-40 34q-18 18 -29.5 26t-22.5 8
h-3q-18 -1 -29 -19.5t-11 -50.5h-33q0 46 21 74z" />
    <glyph glyph-name="Adieresis" unicode="&#xc4;" horiz-adv-x="680" 
d="M321 730h38l291 -730h-35l-101 252h-348l-100 -252h-36zM501 285l-161 402l-160 -402h321zM402 890q0 14 10 23.5t23 9.5t22.5 -10t9.5 -23t-9.5 -23t-22.5 -10t-23 10t-10 23zM217 890q0 14 10 23.5t23 9.5t22.5 -10t9.5 -23t-9.5 -23t-22.5 -10t-23 10t-10 23z" />
    <glyph glyph-name="Aring" unicode="&#xc5;" horiz-adv-x="680" 
d="M321 730h38l291 -730h-35l-101 252h-348l-100 -252h-36zM501 285l-161 402l-160 -402h321zM235 890q0 44 31.5 75.5t75.5 31.5t75.5 -31.5t31.5 -75.5t-31.5 -75t-75.5 -31t-75.5 31t-31.5 75zM269 890q0 -32 21 -53t52 -21t52 21t21 53t-21 53.5t-52 21.5t-52 -21.5
t-21 -53.5z" />
    <glyph glyph-name="AE" unicode="&#xc6;" horiz-adv-x="951" 
d="M30 0l296 730h575v-34h-403v-300h383v-34h-383v-330h403v-33h-436v273h-287l-109 -272h-39zM191 305h274v391h-117z" />
    <glyph glyph-name="Ccedilla" unicode="&#xc7;" horiz-adv-x="770" 
d="M60 365q0 100 50 185.5t135.5 135.5t186.5 50q87 0 163 -37.5t128 -103.5l-26 -20q-47 60 -116.5 94t-148.5 34q-92 0 -170 -45t-123.5 -122.5t-45.5 -169.5q0 -94 45.5 -172t123.5 -123.5t170 -45.5q82 0 153.5 36.5t117.5 100.5l27 -19q-52 -72 -131.5 -111.5
t-169.5 -39.5l-14 -44q48 -3 74 -26t26 -58q0 -23 -11.5 -42.5t-33.5 -30.5t-52 -11q-24 0 -48.5 8t-38.5 20l16 28q8 -8 29.5 -15.5t42.5 -7.5q29 0 46 14t17 36q0 24 -19.5 38t-58.5 14h-35l26 79q-93 9 -170 60.5t-121 133.5t-44 177z" />
    <glyph glyph-name="Egrave" unicode="&#xc8;" horiz-adv-x="606" 
d="M536 730v-33h-403v-305h383v-33h-383v-326h413v-33h-446v730h436zM278 964l65 -148h-30l-70 148h35z" />
    <glyph glyph-name="Eacute" unicode="&#xc9;" horiz-adv-x="606" 
d="M536 730v-33h-403v-305h383v-33h-383v-326h413v-33h-446v730h436zM367 964h35l-70 -148h-30z" />
    <glyph glyph-name="Ecircumflex" unicode="&#xca;" horiz-adv-x="606" 
d="M536 730v-33h-403v-305h383v-33h-383v-326h413v-33h-446v730h436zM303 950h44l108 -120h-44l-86 96l-86 -96h-44z" />
    <glyph glyph-name="Edieresis" unicode="&#xcb;" horiz-adv-x="606" 
d="M536 730v-33h-403v-305h383v-33h-383v-326h413v-33h-446v730h436zM199 914q10 9 23 9t22.5 -10t9.5 -23t-9.5 -23t-22.5 -10t-23 10t-10 23q0 14 10 24zM374 890q0 14 10 23.5t23 9.5t22.5 -10t9.5 -23t-9.5 -23t-22.5 -10t-23 10t-10 23z" />
    <glyph glyph-name="Igrave" unicode="&#xcc;" horiz-adv-x="233" 
d="M100 0v730h33v-730h-33zM103 816l-70 148h35l65 -148h-30z" />
    <glyph glyph-name="Iacute" unicode="&#xcd;" horiz-adv-x="233" 
d="M100 0v730h33v-730h-33zM99 816l65 148h35l-70 -148h-30z" />
    <glyph glyph-name="Icircumflex" unicode="&#xce;" horiz-adv-x="233" 
d="M100 730h33v-730h-33v730zM94 950h44l108 -120h-44l-86 96l-86 -96h-44z" />
    <glyph glyph-name="Idieresis" unicode="&#xcf;" horiz-adv-x="233" 
d="M133 730v-730h-33v730h33zM21 914q10 9 23 9t22.5 -10t9.5 -23t-9.5 -23t-22.5 -10t-23 10t-10 23q0 14 10 24zM156 890q0 14 10 23.5t23 9.5t22.5 -10t9.5 -23t-9.5 -23t-22.5 -10t-23 10t-10 23z" />
    <glyph glyph-name="Eth" unicode="&#xd0;" horiz-adv-x="750" 
d="M100 0v349h-50v33h50v348h207q110 0 197.5 -49t136.5 -132t49 -183q0 -101 -47 -185t-134 -132.5t-202 -48.5h-207zM307 34q106 0 185.5 44.5t121.5 121t42 168.5q0 88 -44 163t-123.5 120t-181.5 45h-173v-314h300v-33h-300v-315h173z" />
    <glyph glyph-name="Ntilde" unicode="&#xd1;" horiz-adv-x="800" 
d="M100 0v730h33l534 -676v676h33v-730h-33l-534 678v-678h-33zM459 836q-25 -3 -43.5 8.5t-42.5 35.5q-18 18 -30 26.5t-25 7.5q-18 -1 -29 -19.5t-11 -50.5h-33q0 46 20.5 73.5t50.5 29.5q24 2 40.5 -9t39.5 -34q17 -18 30.5 -27.5t29.5 -8.5t26 18.5t10 51.5h33
q0 -47 -18.5 -73.5t-47.5 -28.5z" />
    <glyph glyph-name="Ograve" unicode="&#xd2;" horiz-adv-x="863" 
d="M432 -8q-101 0 -186.5 50t-135.5 136t-50 187q0 100 50 185.5t135.5 135.5t186.5 50t186 -50t135 -135.5t50 -185.5q0 -101 -50 -187t-135 -136t-186 -50zM432 25q92 0 169.5 45.5t123 123.5t45.5 172q0 92 -45.5 169.5t-123 122.5t-169.5 45t-170 -45t-123.5 -122.5
t-45.5 -169.5q0 -94 45.5 -172t123.5 -123.5t170 -45.5zM417 816l-70 148h35l65 -148h-30z" />
    <glyph glyph-name="Oacute" unicode="&#xd3;" horiz-adv-x="863" 
d="M432 -8q-101 0 -186.5 50t-135.5 136t-50 187q0 100 50 185.5t135.5 135.5t186.5 50t186 -50t135 -135.5t50 -185.5q0 -101 -50 -187t-135 -136t-186 -50zM432 25q92 0 169.5 45.5t123 123.5t45.5 172q0 92 -45.5 169.5t-123 122.5t-169.5 45t-170 -45t-123.5 -122.5
t-45.5 -169.5q0 -94 45.5 -172t123.5 -123.5t170 -45.5zM420 816l65 148h35l-70 -148h-30z" />
    <glyph glyph-name="Ocircumflex" unicode="&#xd4;" horiz-adv-x="863" 
d="M432 -8q-101 0 -186.5 50t-135.5 136t-50 187q0 100 50 185.5t135.5 135.5t186.5 50t186 -50t135 -135.5t50 -185.5q0 -101 -50 -187t-135 -136t-186 -50zM432 25q92 0 169.5 45.5t123 123.5t45.5 172q0 92 -45.5 169.5t-123 122.5t-169.5 45t-170 -45t-123.5 -122.5
t-45.5 -169.5q0 -94 45.5 -172t123.5 -123.5t170 -45.5zM294 830l108 120h44l108 -120h-44l-86 96l-86 -96h-44z" />
    <glyph glyph-name="Otilde" unicode="&#xd5;" horiz-adv-x="863" 
d="M432 -8q-101 0 -186.5 50t-135.5 136t-50 187q0 100 50 185.5t135.5 135.5t186.5 50t186 -50t135 -135.5t50 -185.5q0 -101 -50 -187t-135 -136t-186 -50zM432 25q92 0 169.5 45.5t123 123.5t45.5 172q0 92 -45.5 169.5t-123 122.5t-169.5 45t-170 -45t-123.5 -122.5
t-45.5 -169.5q0 -94 45.5 -172t123.5 -123.5t170 -45.5zM502 836q-25 -3 -44 9t-42 35q-18 18 -30 26.5t-25 7.5q-18 -1 -29 -19.5t-11 -50.5h-33q0 46 20.5 73.5t50.5 29.5q24 2 40.5 -9t39.5 -34q17 -18 30.5 -27.5t29.5 -8.5t26 18.5t10 51.5h33q0 -47 -18.5 -73.5
t-47.5 -28.5z" />
    <glyph glyph-name="Odieresis" unicode="&#xd6;" horiz-adv-x="863" 
d="M432 -8q-101 0 -186.5 50t-135.5 136t-50 187q0 100 50 185.5t135.5 135.5t186.5 50t186 -50t135 -135.5t50 -185.5q0 -101 -50 -187t-135 -136t-186 -50zM432 25q92 0 169.5 45.5t123 123.5t45.5 172q0 92 -45.5 169.5t-123 122.5t-169.5 45t-170 -45t-123.5 -122.5
t-45.5 -169.5q0 -94 45.5 -172t123.5 -123.5t170 -45.5zM333 857q-13 0 -23 10t-10 23q0 14 10 23.5t23 9.5t22.5 -10t9.5 -23t-9.5 -23t-22.5 -10zM518 857q-13 0 -23 10t-10 23q0 14 10 23.5t23 9.5t22.5 -10t9.5 -23t-9.5 -23t-22.5 -10z" />
    <glyph glyph-name="multiply" unicode="&#xd7;" horiz-adv-x="469" 
d="M386 190l-151 152l-151 -151l-24 23l151 151l-151 151l24 23l151 -150l151 151l23 -24l-151 -151l151 -151z" />
    <glyph glyph-name="Oslash" unicode="&#xd8;" horiz-adv-x="863" 
d="M432 -7q-72 0 -136.5 25.5t-114.5 72.5l-74 -74l-24 23l74 74q-46 51 -71.5 116t-25.5 136q0 100 50 185.5t135.5 135.5t186.5 50q72 0 136.5 -25.5t114.5 -72.5l74 74l23 -23l-74 -74q46 -51 71.5 -115t25.5 -135q0 -101 -50 -187t-135 -136t-186 -50zM432 26
q92 0 169.5 45.5t123 123.5t45.5 172q0 64 -23 122t-64 104l-479 -479q46 -42 104.5 -65t123.5 -23zM660 616q-46 42 -104.5 65t-123.5 23q-93 0 -170.5 -45t-123 -122.5t-45.5 -169.5q0 -66 23 -125t64 -105z" />
    <glyph glyph-name="Ugrave" unicode="&#xd9;" horiz-adv-x="730" 
d="M366 -6q-78 0 -140.5 34t-99 98.5t-36.5 152.5v451h33v-450q0 -82 31.5 -139t85 -85.5t121.5 -28.5q69 0 124.5 28.5t88.5 85.5t33 139v450h33v-451q0 -88 -36.5 -152.5t-99 -98.5t-138.5 -34zM351 816l-70 148h35l65 -148h-30z" />
    <glyph glyph-name="Uacute" unicode="&#xda;" horiz-adv-x="730" 
d="M366 -6q-78 0 -140.5 34t-99 98.5t-36.5 152.5v451h33v-450q0 -82 31.5 -139t85 -85.5t121.5 -28.5q69 0 124.5 28.5t88.5 85.5t33 139v450h33v-451q0 -88 -36.5 -152.5t-99 -98.5t-138.5 -34zM343 816l65 148h35l-70 -148h-30z" />
    <glyph glyph-name="Ucircumflex" unicode="&#xdb;" horiz-adv-x="730" 
d="M366 -6q-78 0 -140.5 34t-99 98.5t-36.5 152.5v451h33v-450q0 -82 31.5 -139t85 -85.5t121.5 -28.5q69 0 124.5 28.5t88.5 85.5t33 139v450h33v-451q0 -88 -36.5 -152.5t-99 -98.5t-138.5 -34zM224 830l108 120h44l108 -120h-44l-86 96l-86 -96h-44z" />
    <glyph glyph-name="Udieresis" unicode="&#xdc;" horiz-adv-x="730" 
d="M366 -6q-78 0 -140.5 34t-99 98.5t-36.5 152.5v451h33v-450q0 -82 31.5 -139t85 -85.5t121.5 -28.5q69 0 124.5 28.5t88.5 85.5t33 139v450h33v-451q0 -88 -36.5 -152.5t-99 -98.5t-138.5 -34zM273 857q-13 0 -23 10t-10 23q0 14 10 23.5t23 9.5t22.5 -10t9.5 -23
t-9.5 -23t-22.5 -10zM458 857q-13 0 -23 10t-10 23q0 14 10 23.5t23 9.5t22.5 -10t9.5 -23t-9.5 -23t-22.5 -10z" />
    <glyph glyph-name="Yacute" unicode="&#xdd;" horiz-adv-x="640" 
d="M303 0v326l-283 404h41l259 -371l259 371h41l-284 -406v-324h-33zM297 816l65 148h35l-70 -148h-30z" />
    <glyph glyph-name="Thorn" unicode="&#xde;" horiz-adv-x="659" 
d="M100 0v730h33v-149h240q64 0 115.5 -29t81 -78.5t29.5 -108.5t-29.5 -108.5t-81 -78.5t-115.5 -29h-240v-149h-33zM373 182q57 0 101 25.5t68 67.5t24 90t-24 90t-68 67.5t-101 25.5h-240v-366h240z" />
    <glyph glyph-name="germandbls" unicode="&#xdf;" horiz-adv-x="612" 
d="M353 -10q-43 0 -83 10t-59 23v37q33 -19 65 -28t77 -9q41 0 81.5 18.5t67.5 57t27 96.5q0 43 -16 71.5t-37.5 44.5t-56.5 35q-36 19 -53 34t-17 40q0 20 10.5 33.5t33.5 33.5q30 26 45.5 49t15.5 62q0 41 -20 77.5t-56.5 59t-83.5 22.5q-35 0 -71.5 -15.5t-63 -55
t-26.5 -105.5v-581h-33v584q0 63 26 109.5t70.5 71.5t97.5 25q57 0 101 -27.5t68 -72t24 -92.5t-19.5 -78t-53.5 -59q-17 -14 -24.5 -23t-7.5 -18q0 -11 12 -20t37 -23q38 -19 64.5 -39.5t46.5 -55.5t20 -87q0 -56 -26.5 -103t-74 -74.5t-108.5 -27.5z" />
    <glyph glyph-name="agrave" unicode="&#xe0;" horiz-adv-x="701" 
d="M330 -6q-76 0 -140 37.5t-102 102t-38 140.5t38 140.5t102 102.5t140 38q82 0 151.5 -45t96.5 -113v153h33v-550h-33v149q-27 -66 -96.5 -110.5t-151.5 -44.5zM330 27q67 0 124 33.5t90.5 90t33.5 123.5t-33.5 124t-90.5 90.5t-124 33.5q-66 0 -123 -33.5t-90.5 -90.5
t-33.5 -124t33.5 -123.5t90.5 -90t123 -33.5zM341 646l-70 148h35l65 -148h-30z" />
    <glyph glyph-name="aacute" unicode="&#xe1;" horiz-adv-x="701" 
d="M330 -6q-76 0 -140 37.5t-102 102t-38 140.5t38 140.5t102 102.5t140 38q82 0 151.5 -45t96.5 -113v153h33v-550h-33v149q-27 -66 -96.5 -110.5t-151.5 -44.5zM330 27q67 0 124 33.5t90.5 90t33.5 123.5t-33.5 124t-90.5 90.5t-124 33.5q-66 0 -123 -33.5t-90.5 -90.5
t-33.5 -124t33.5 -123.5t90.5 -90t123 -33.5zM317 646l65 148h35l-70 -148h-30z" />
    <glyph glyph-name="acircumflex" unicode="&#xe2;" horiz-adv-x="701" 
d="M330 -6q-76 0 -140 37.5t-102 102t-38 140.5t38 140.5t102 102.5t140 38q82 0 151.5 -45t96.5 -113v153h33v-550h-33v149q-27 -66 -96.5 -110.5t-151.5 -44.5zM330 27q67 0 124 33.5t90.5 90t33.5 123.5t-33.5 124t-90.5 90.5t-124 33.5q-66 0 -123 -33.5t-90.5 -90.5
t-33.5 -124t33.5 -123.5t90.5 -90t123 -33.5zM210 660l108 120h44l108 -120h-44l-86 96l-86 -96h-44z" />
    <glyph glyph-name="atilde" unicode="&#xe3;" horiz-adv-x="701" 
d="M330 -6q-76 0 -140 37.5t-102 102t-38 140.5t38 140.5t102 102.5t140 38q82 0 151.5 -45t96.5 -113v153h33v-550h-33v149q-27 -66 -96.5 -110.5t-151.5 -44.5zM330 27q67 0 124 33.5t90.5 90t33.5 123.5t-33.5 124t-90.5 90.5t-124 33.5q-66 0 -123 -33.5t-90.5 -90.5
t-33.5 -124t33.5 -123.5t90.5 -90t123 -33.5zM421 666q-25 -3 -43.5 9t-42.5 35q-18 18 -30 26.5t-25 7.5q-18 -1 -29 -19.5t-11 -50.5h-33q0 46 20 73.5t51 29.5q24 2 41.5 -9.5t38.5 -33.5q17 -18 30.5 -27.5t29.5 -8.5t26 18.5t10 51.5h33q0 -47 -18.5 -73t-47.5 -29z
" />
    <glyph glyph-name="adieresis" unicode="&#xe4;" horiz-adv-x="701" 
d="M330 -6q-76 0 -140 37.5t-102 102t-38 140.5t38 140.5t102 102.5t140 38q82 0 151.5 -45t96.5 -113v153h33v-550h-33v149q-27 -66 -96.5 -110.5t-151.5 -44.5zM330 27q67 0 124 33.5t90.5 90t33.5 123.5t-33.5 124t-90.5 90.5t-124 33.5q-66 0 -123 -33.5t-90.5 -90.5
t-33.5 -124t33.5 -123.5t90.5 -90t123 -33.5zM244 687q-13 0 -23 10t-10 23q0 14 10 23.5t23 9.5t22.5 -10t9.5 -23t-9.5 -23t-22.5 -10zM429 687q-13 0 -23 10t-10 23q0 14 10 23.5t23 9.5t22.5 -10t9.5 -23t-9.5 -23t-22.5 -10z" />
    <glyph glyph-name="aring" unicode="&#xe5;" horiz-adv-x="701" 
d="M330 -6q-76 0 -140 37.5t-102 102t-38 140.5t38 140.5t102 102.5t140 38q82 0 151.5 -45t96.5 -113v153h33v-550h-33v149q-27 -66 -96.5 -110.5t-151.5 -44.5zM330 27q67 0 124 33.5t90.5 90t33.5 123.5t-33.5 124t-90.5 90.5t-124 33.5q-66 0 -123 -33.5t-90.5 -90.5
t-33.5 -124t33.5 -123.5t90.5 -90t123 -33.5zM336 614q-44 0 -75.5 31t-31.5 75t31.5 75.5t75.5 31.5t75.5 -31.5t31.5 -75.5t-31.5 -75t-75.5 -31zM336 646q31 0 52 21t21 53t-21 53.5t-52 21.5t-52 -21.5t-21 -53.5t21 -53t52 -21z" />
    <glyph glyph-name="ae" unicode="&#xe6;" horiz-adv-x="1060" 
d="M261 -10q-59 0 -107 21t-76 60t-28 90t27 89t78 58.5t122 20.5h215q0 90 -54 143.5t-147 53.5q-59 0 -111 -19.5t-85 -53.5l-25 22q38 39 96.5 61.5t127.5 22.5q84 0 145 -44.5t80 -118.5q33 76 102.5 119.5t151.5 43.5q64 0 119.5 -30t89 -84t33.5 -122v-14t-1 -14h-487
q0 -84 31.5 -145.5t86 -94t122.5 -32.5q59 0 111 27.5t87 76.5l28 -18q-40 -56 -99 -87.5t-126 -31.5q-91 0 -160 50t-97 132q-24 -87 -91 -134.5t-159 -47.5zM262 23q75 0 127 33t77.5 88t25.5 121v31h-221q-86 0 -137 -36.5t-51 -97.5q0 -62 50.5 -100.5t128.5 -38.5z
M982 328q-1 57 -30.5 102.5t-77 70.5t-101.5 25q-64 0 -116.5 -28.5t-85.5 -74.5t-41 -95h452z" />
    <glyph glyph-name="ccedilla" unicode="&#xe7;" horiz-adv-x="612" 
d="M333 -220q-24 0 -48.5 8t-38.5 20l16 28q8 -8 29.5 -15.5t42.5 -7.5q29 0 46 14t17 36q0 24 -19.5 38t-58.5 14h-35l27 81q-72 5 -132 43.5t-94.5 101t-34.5 135.5q0 76 37.5 140.5t102 102t141.5 37.5q69 0 129.5 -32t99.5 -87l-28 -19q-34 49 -87 77t-114 28
q-67 0 -124 -33.5t-90.5 -90t-33.5 -123.5t33.5 -124t90.5 -90.5t124 -33.5q62 0 115.5 29t87.5 79l28 -18q-36 -53 -93 -86t-124 -37l-15 -47q48 -3 74 -26t26 -58q0 -23 -11.5 -42.5t-33.5 -30.5t-52 -11z" />
    <glyph glyph-name="egrave" unicode="&#xe8;" horiz-adv-x="651" 
d="M337 -5q-78 0 -144 38t-104.5 102.5t-38.5 140.5t37 140.5t100.5 102t138.5 37.5q79 0 141.5 -37.5t98 -101.5t35.5 -141q0 -11 -2 -31h-514q8 -60 43.5 -110t90.5 -78.5t118 -28.5q61 0 115 27.5t88 74.5l29 -17q-39 -54 -100 -86t-132 -32zM568 278q0 67 -31.5 123
t-86.5 89t-124 33q-65 0 -121 -33t-89 -89.5t-33 -122.5h485zM323 646l-70 148h35l65 -148h-30z" />
    <glyph glyph-name="eacute" unicode="&#xe9;" horiz-adv-x="651" 
d="M337 -5q-78 0 -144 38t-104.5 102.5t-38.5 140.5t37 140.5t100.5 102t138.5 37.5q79 0 141.5 -37.5t98 -101.5t35.5 -141q0 -11 -2 -31h-514q8 -60 43.5 -110t90.5 -78.5t118 -28.5q61 0 115 27.5t88 74.5l29 -17q-39 -54 -100 -86t-132 -32zM568 278q0 67 -31.5 123
t-86.5 89t-124 33q-65 0 -121 -33t-89 -89.5t-33 -122.5h485zM306 646l65 148h35l-70 -148h-30z" />
    <glyph glyph-name="ecircumflex" unicode="&#xea;" horiz-adv-x="651" 
d="M337 -5q-78 0 -144 38t-104.5 102.5t-38.5 140.5t37 140.5t100.5 102t138.5 37.5q79 0 141.5 -37.5t98 -101.5t35.5 -141q0 -11 -2 -31h-514q8 -60 43.5 -110t90.5 -78.5t118 -28.5q61 0 115 27.5t88 74.5l29 -17q-39 -54 -100 -86t-132 -32zM568 278q0 67 -31.5 123
t-86.5 89t-124 33q-65 0 -121 -33t-89 -89.5t-33 -122.5h485zM202 660l108 120h44l108 -120h-44l-86 96l-86 -96h-44z" />
    <glyph glyph-name="edieresis" unicode="&#xeb;" horiz-adv-x="651" 
d="M337 -5q-78 0 -144 38t-104.5 102.5t-38.5 140.5t37 140.5t100.5 102t138.5 37.5q79 0 141.5 -37.5t98 -101.5t35.5 -141q0 -11 -2 -31h-514q8 -60 43.5 -110t90.5 -78.5t118 -28.5q61 0 115 27.5t88 74.5l29 -17q-39 -54 -100 -86t-132 -32zM568 278q0 67 -31.5 123
t-86.5 89t-124 33q-65 0 -121 -33t-89 -89.5t-33 -122.5h485zM232 687q-13 0 -23 10t-10 23q0 14 10 23.5t23 9.5t22.5 -10t9.5 -23t-9.5 -23t-22.5 -10zM417 687q-13 0 -23 10t-10 23q0 14 10 23.5t23 9.5t22.5 -10t9.5 -23t-9.5 -23t-22.5 -10z" />
    <glyph glyph-name="igrave" unicode="&#xec;" horiz-adv-x="213" 
d="M90 0v550h33v-550h-33zM89 646l-70 148h35l65 -148h-30z" />
    <glyph glyph-name="iacute" unicode="&#xed;" horiz-adv-x="213" 
d="M90 0v550h33v-550h-33zM93 646l65 148h35l-70 -148h-30z" />
    <glyph glyph-name="icircumflex" unicode="&#xee;" horiz-adv-x="213" 
d="M90 0v550h33v-550h-33zM-24 660l108 120h44l108 -120h-44l-86 96l-86 -96h-44z" />
    <glyph glyph-name="idieresis" unicode="&#xef;" horiz-adv-x="213" 
d="M90 0v550h33v-550h-33zM35 687q-13 0 -23 10t-10 23q0 14 10 23.5t23 9.5t22.5 -10t9.5 -23t-9.5 -23t-22.5 -10zM180 687q-13 0 -23 10t-10 23q0 14 10 23.5t23 9.5t22.5 -10t9.5 -23t-9.5 -23t-22.5 -10z" />
    <glyph glyph-name="eth" unicode="&#xf0;" horiz-adv-x="575" 
d="M294 -10q-73 0 -128.5 31.5t-85.5 86.5t-30 121q0 65 32.5 117.5t88.5 82.5t123 30q62 0 115.5 -34.5t78.5 -88.5q-18 170 -127 284l-226 -120l-15 29l216 115q-73 66 -183 109l22 27q113 -44 193 -119l109 58l15 -30l-99 -53q66 -72 99.5 -168t32.5 -215q0 -78 -31 -138
t-83.5 -92.5t-116.5 -32.5zM288 21q54 0 99 27t71 73.5t26 101.5t-26.5 101.5t-71.5 74.5t-98 28q-58 0 -105 -27.5t-73.5 -74t-26.5 -102.5q0 -55 27.5 -101t74.5 -73.5t103 -27.5z" />
    <glyph glyph-name="ntilde" unicode="&#xf1;" horiz-adv-x="592" 
d="M60 0v550h33v-123q24 56 76.5 92t126.5 36q67 0 120.5 -31.5t84.5 -94t31 -151.5v-278h-33v278q0 81 -27 135.5t-72.5 81.5t-103.5 27t-103.5 -27t-72.5 -81.5t-27 -135.5v-278h-33zM362 666q-25 -3 -43.5 9t-42.5 35q-18 18 -30 26.5t-25 7.5q-18 -1 -29 -19.5
t-11 -50.5h-33q0 46 20.5 73.5t50.5 29.5q24 2 40.5 -9t39.5 -34q17 -18 30.5 -27.5t29.5 -8.5t26 18.5t10 51.5h33q0 -47 -18.5 -73.5t-47.5 -28.5z" />
    <glyph glyph-name="ograve" unicode="&#xf2;" horiz-adv-x="661" 
d="M331 -5q-77 0 -141.5 38t-102 102.5t-37.5 140.5t37.5 140.5t102 102t141.5 37.5q76 0 140 -37.5t102 -102t38 -140.5t-38 -140.5t-102 -102.5t-140 -38zM331 28q66 0 123 33.5t90.5 90.5t33.5 124t-33.5 123.5t-90.5 90t-123 33.5q-67 0 -124 -33.5t-90.5 -90
t-33.5 -123.5t33.5 -124t90.5 -90.5t124 -33.5zM321 646l-70 148h35l65 -148h-30z" />
    <glyph glyph-name="oacute" unicode="&#xf3;" horiz-adv-x="661" 
d="M331 -5q-77 0 -141.5 38t-102 102.5t-37.5 140.5t37.5 140.5t102 102t141.5 37.5q76 0 140 -37.5t102 -102t38 -140.5t-38 -140.5t-102 -102.5t-140 -38zM331 28q66 0 123 33.5t90.5 90.5t33.5 124t-33.5 123.5t-90.5 90t-123 33.5q-67 0 -124 -33.5t-90.5 -90
t-33.5 -123.5t33.5 -124t90.5 -90.5t124 -33.5zM317 646l65 148h35l-70 -148h-30z" />
    <glyph glyph-name="ocircumflex" unicode="&#xf4;" horiz-adv-x="661" 
d="M331 -5q-77 0 -141.5 38t-102 102.5t-37.5 140.5t37.5 140.5t102 102t141.5 37.5q76 0 140 -37.5t102 -102t38 -140.5t-38 -140.5t-102 -102.5t-140 -38zM331 28q66 0 123 33.5t90.5 90.5t33.5 124t-33.5 123.5t-90.5 90t-123 33.5q-67 0 -124 -33.5t-90.5 -90
t-33.5 -123.5t33.5 -124t90.5 -90.5t124 -33.5zM204 660l108 120h44l108 -120h-44l-86 96l-86 -96h-44z" />
    <glyph glyph-name="otilde" unicode="&#xf5;" horiz-adv-x="661" 
d="M331 -5q-77 0 -141.5 38t-102 102.5t-37.5 140.5t37.5 140.5t102 102t141.5 37.5q76 0 140 -37.5t102 -102t38 -140.5t-38 -140.5t-102 -102.5t-140 -38zM331 28q66 0 123 33.5t90.5 90.5t33.5 124t-33.5 123.5t-90.5 90t-123 33.5q-67 0 -124 -33.5t-90.5 -90
t-33.5 -123.5t33.5 -124t90.5 -90.5t124 -33.5zM405 666q-25 -3 -44 9t-42 35q-18 18 -30 26.5t-25 7.5q-18 -1 -29 -19.5t-11 -50.5h-33q0 46 20.5 73.5t50.5 29.5q24 2 40.5 -9t39.5 -34q17 -18 30.5 -27.5t29.5 -8.5t26 18.5t10 51.5h33q0 -47 -18.5 -73.5t-47.5 -28.5z
" />
    <glyph glyph-name="odieresis" unicode="&#xf6;" horiz-adv-x="661" 
d="M331 -5q-77 0 -141.5 38t-102 102.5t-37.5 140.5t37.5 140.5t102 102t141.5 37.5q76 0 140 -37.5t102 -102t38 -140.5t-38 -140.5t-102 -102.5t-140 -38zM331 28q66 0 123 33.5t90.5 90.5t33.5 124t-33.5 123.5t-90.5 90t-123 33.5q-67 0 -124 -33.5t-90.5 -90
t-33.5 -123.5t33.5 -124t90.5 -90.5t124 -33.5zM239 687q-13 0 -23 10t-10 23q0 14 10 23.5t23 9.5t22.5 -10t9.5 -23t-9.5 -23t-22.5 -10zM424 687q-13 0 -23 10t-10 23q0 14 10 23.5t23 9.5t22.5 -10t9.5 -23t-9.5 -23t-22.5 -10z" />
    <glyph glyph-name="divide" unicode="&#xf7;" horiz-adv-x="540" 
d="M60 349v33h420v-33h-420zM270 203q-13 0 -23 10t-10 23q0 14 10 23.5t23 9.5t22.5 -10t9.5 -23t-9.5 -23t-22.5 -10zM270 462q-13 0 -23 10t-10 23q0 14 10 23.5t23 9.5t22.5 -10t9.5 -23t-9.5 -23t-22.5 -10z" />
    <glyph glyph-name="oslash" unicode="&#xf8;" horiz-adv-x="669" 
d="M334 0q-54 0 -102.5 18.5t-86.5 52.5l-61 -61l-23 23l61 61q-34 39 -53 88t-19 103q0 77 37.5 142t103 103.5t143.5 38.5q54 0 103 -19t88 -54l62 62l21 -23l-61 -61q34 -39 53 -87.5t19 -101.5q0 -77 -38.5 -142.5t-104 -104t-142.5 -38.5zM332 33q69 0 127.5 34
t92.5 92t34 127q0 46 -16.5 88t-46.5 76l-355 -356q33 -29 75 -45t89 -16zM332 536q-69 0 -126 -33.5t-90 -91t-33 -125.5q0 -48 16 -91.5t46 -77.5l356 355q-34 31 -77.5 47.5t-91.5 16.5z" />
    <glyph glyph-name="ugrave" unicode="&#xf9;" 
d="M311 -5q-67 0 -120.5 31.5t-84.5 94t-31 151.5v278h33v-278q0 -81 27 -135.5t72.5 -81.5t103.5 -27t103.5 27t72.5 81.5t27 135.5v278h33v-550h-33v123q-24 -56 -76.5 -92t-126.5 -36zM301 646l-70 148h35l65 -148h-30z" />
    <glyph glyph-name="uacute" unicode="&#xfa;" 
d="M311 -5q-67 0 -120.5 31.5t-84.5 94t-31 151.5v278h33v-278q0 -81 27 -135.5t72.5 -81.5t103.5 -27t103.5 27t72.5 81.5t27 135.5v278h33v-550h-33v123q-24 -56 -76.5 -92t-126.5 -36zM261 646l65 148h35l-70 -148h-30z" />
    <glyph glyph-name="ucircumflex" unicode="&#xfb;" 
d="M311 -5q-67 0 -120.5 31.5t-84.5 94t-31 151.5v278h33v-278q0 -81 27 -135.5t72.5 -81.5t103.5 -27t103.5 27t72.5 81.5t27 135.5v278h33v-550h-33v123q-24 -56 -76.5 -92t-126.5 -36zM181 660l108 120h44l108 -120h-44l-86 96l-86 -96h-44z" />
    <glyph glyph-name="udieresis" unicode="&#xfc;" 
d="M311 -5q-67 0 -120.5 31.5t-84.5 94t-31 151.5v278h33v-278q0 -81 27 -135.5t72.5 -81.5t103.5 -27t103.5 27t72.5 81.5t27 135.5v278h33v-550h-33v123q-24 -56 -76.5 -92t-126.5 -36zM219 687q-13 0 -23 10t-10 23q0 14 10 23.5t23 9.5t22.5 -10t9.5 -23t-9.5 -23
t-22.5 -10zM404 687q-13 0 -23 10t-10 23q0 14 10 23.5t23 9.5t22.5 -10t9.5 -23t-9.5 -23t-22.5 -10z" />
    <glyph glyph-name="yacute" unicode="&#xfd;" horiz-adv-x="560" 
d="M111 -220q-26 0 -46.5 5t-44.5 16l13 31q18 -9 37.5 -14t40.5 -5q36 0 63 23t46 58t48 100q0 2 0.5 3.5t1.5 2.5l-234 550h36l216 -508l216 508h36l-234 -550q-37 -84 -62 -128t-56.5 -68t-76.5 -24zM240 646l65 148h35l-70 -148h-30z" />
    <glyph glyph-name="thorn" unicode="&#xfe;" horiz-adv-x="711" 
d="M90 -220v1000h33v-372q37 69 104.5 110t148.5 41q77 0 142.5 -38t104 -103.5t38.5 -143.5t-38.5 -143.5t-104 -104t-142.5 -38.5q-81 0 -148.5 41.5t-104.5 110.5v-360h-33zM376 21q68 0 126 34t92 92.5t34 126.5t-34 126t-92 92t-126 34q-69 0 -127 -34t-92 -92
t-34 -126t34 -126.5t92 -92.5t127 -34z" />
    <glyph glyph-name="ydieresis" unicode="&#xff;" horiz-adv-x="560" 
d="M111 -220q-26 0 -46.5 5t-44.5 16l13 31q18 -9 37.5 -14t40.5 -5q36 0 63 23t46 58t48 100q0 2 0.5 3.5t1.5 2.5l-234 550h36l216 -508l216 508h36l-234 -550q-37 -84 -62 -128t-56.5 -68t-76.5 -24zM188 687q-13 0 -23 10t-10 23q0 14 10 23.5t23 9.5t22.5 -10t9.5 -23
t-9.5 -23t-22.5 -10zM373 687q-13 0 -23 10t-10 23q0 14 10 23.5t23 9.5t22.5 -10t9.5 -23t-9.5 -23t-22.5 -10z" />
    <glyph glyph-name="Amacron" unicode="&#x100;" horiz-adv-x="680" 
d="M30 0l291 730h38l291 -730h-35l-101 252h-348l-100 -252h-36zM180 285h321l-161 402zM165 874v33h350v-33h-350z" />
    <glyph glyph-name="amacron" unicode="&#x101;" horiz-adv-x="701" 
d="M330 -6q-76 0 -140 37.5t-102 102t-38 140.5t38 140.5t102 102.5t140 38q82 0 151.5 -45t96.5 -113v153h33v-550h-33v149q-27 -66 -96.5 -110.5t-151.5 -44.5zM330 27q67 0 124 33.5t90.5 90t33.5 123.5t-33.5 124t-90.5 90.5t-124 33.5q-66 0 -123 -33.5t-90.5 -90.5
t-33.5 -124t33.5 -123.5t90.5 -90t123 -33.5zM166 704v33h350v-33h-350z" />
    <glyph glyph-name="Abreve" unicode="&#x102;" horiz-adv-x="680" 
d="M30 0l291 730h38l291 -730h-35l-101 252h-348l-100 -252h-36zM180 285h321l-161 402zM343 816q-41 0 -76 20t-56.5 53.5t-24.5 74.5h33q4 -48 39.5 -81.5t84.5 -33.5q48 0 83 33.5t39 81.5h33q-3 -41 -24.5 -74.5t-56 -53.5t-74.5 -20z" />
    <glyph glyph-name="abreve" unicode="&#x103;" horiz-adv-x="701" 
d="M330 -6q-76 0 -140 37.5t-102 102t-38 140.5t38 140.5t102 102.5t140 38q82 0 151.5 -45t96.5 -113v153h33v-550h-33v149q-27 -66 -96.5 -110.5t-151.5 -44.5zM330 27q67 0 124 33.5t90.5 90t33.5 123.5t-33.5 124t-90.5 90.5t-124 33.5q-66 0 -123 -33.5t-90.5 -90.5
t-33.5 -124t33.5 -123.5t90.5 -90t123 -33.5zM342 646q-41 0 -76 20t-56.5 53.5t-24.5 74.5h33q4 -48 39.5 -81.5t84.5 -33.5q48 0 83 33.5t39 81.5h33q-3 -41 -24.5 -74.5t-56 -53.5t-74.5 -20z" />
    <glyph glyph-name="Aogonek" unicode="&#x104;" horiz-adv-x="680" 
d="M625 -218q-32 0 -54.5 24.5t-22.5 60.5q0 40 23.5 72.5t51.5 58.5l3 2h-9l-103 252h-348l-100 -252h-36l291 730h38l291 -730q-4 -6 -8 -11.5t-8 -10.5q-29 -41 -41 -63.5t-12 -46.5q0 -22 12.5 -37.5t31.5 -15.5q35 0 57 32l19 -26q-14 -20 -32.5 -29.5t-43.5 -9.5z
M180 285h321l-161 402z" />
    <glyph glyph-name="aogonek" unicode="&#x105;" horiz-adv-x="698" 
d="M586 -207q-32 0 -54.5 24.5t-22.5 60.5q0 26 12 46.5t35 46.5q6 7 12 14.5t11 14.5h-1v149q-27 -66 -96.5 -110.5t-151.5 -44.5q-76 0 -140 37.5t-102 102t-38 140.5t38 140.5t102 102.5t140 38q82 0 151.5 -45t96.5 -113v153h33v-550h-3q-7 -10 -13 -18.5t-12 -16.5
q-23 -31 -32 -48t-9 -38q0 -22 12.5 -37.5t31.5 -15.5q35 0 57 32l19 -26q-14 -20 -32.5 -29.5t-43.5 -9.5zM330 27q67 0 124 33.5t90.5 90t33.5 123.5t-33.5 124t-90.5 90.5t-124 33.5q-66 0 -123 -33.5t-90.5 -90.5t-33.5 -124t33.5 -123.5t90.5 -90t123 -33.5z" />
    <glyph glyph-name="Cacute" unicode="&#x106;" horiz-adv-x="770" 
d="M432 -8q-101 0 -186.5 50t-135.5 136t-50 187q0 100 50 185.5t135.5 135.5t186.5 50q87 0 163 -37.5t128 -103.5l-26 -20q-47 60 -116.5 94t-148.5 34q-92 0 -170 -45t-123.5 -122.5t-45.5 -169.5q0 -94 45.5 -172t123.5 -123.5t170 -45.5q82 0 153.5 36.5t117.5 100.5
l27 -19q-51 -70 -129.5 -110.5t-168.5 -40.5zM343 816l65 148h35l-70 -148h-30z" />
    <glyph glyph-name="cacute" unicode="&#x107;" horiz-adv-x="612" 
d="M331 -5q-77 0 -141.5 38t-102 102.5t-37.5 140.5t37.5 140.5t102 102t141.5 37.5q69 0 129.5 -32t99.5 -87l-28 -19q-34 49 -87 77t-114 28q-67 0 -124 -33.5t-90.5 -90t-33.5 -123.5t33.5 -124t90.5 -90.5t124 -33.5q62 0 115.5 29t87.5 79l28 -18q-38 -57 -99 -90
t-132 -33zM296 646l65 148h35l-70 -148h-30z" />
    <glyph glyph-name="Ccircumflex" unicode="&#x108;" horiz-adv-x="770" 
d="M432 -8q-101 0 -186.5 50t-135.5 136t-50 187q0 100 50 185.5t135.5 135.5t186.5 50q87 0 163 -37.5t128 -103.5l-26 -20q-47 60 -116.5 94t-148.5 34q-92 0 -170 -45t-123.5 -122.5t-45.5 -169.5q0 -94 45.5 -172t123.5 -123.5t170 -45.5q82 0 153.5 36.5t117.5 100.5
l27 -19q-51 -70 -129.5 -110.5t-168.5 -40.5zM296 830l108 120h44l108 -120h-44l-86 96l-86 -96h-44z" />
    <glyph glyph-name="ccircumflex" unicode="&#x109;" horiz-adv-x="612" 
d="M331 -5q-77 0 -141.5 38t-102 102.5t-37.5 140.5t37.5 140.5t102 102t141.5 37.5q69 0 129.5 -32t99.5 -87l-28 -19q-34 49 -87 77t-114 28q-67 0 -124 -33.5t-90.5 -90t-33.5 -123.5t33.5 -124t90.5 -90.5t124 -33.5q62 0 115.5 29t87.5 79l28 -18q-38 -57 -99 -90
t-132 -33zM197 660l108 120h44l108 -120h-44l-86 96l-86 -96h-44z" />
    <glyph glyph-name="Cdotaccent" unicode="&#x10a;" horiz-adv-x="770" 
d="M432 -8q-101 0 -186.5 50t-135.5 136t-50 187q0 100 50 185.5t135.5 135.5t186.5 50q87 0 163 -37.5t128 -103.5l-26 -20q-47 60 -116.5 94t-148.5 34q-92 0 -170 -45t-123.5 -122.5t-45.5 -169.5q0 -94 45.5 -172t123.5 -123.5t170 -45.5q82 0 153.5 36.5t117.5 100.5
l27 -19q-51 -70 -129.5 -110.5t-168.5 -40.5zM418 857q-13 0 -23 10t-10 23q0 14 10 23.5t23 9.5t22.5 -10t9.5 -23t-9.5 -23t-22.5 -10z" />
    <glyph glyph-name="cdotaccent" unicode="&#x10b;" horiz-adv-x="612" 
d="M331 -5q-77 0 -141.5 38t-102 102.5t-37.5 140.5t37.5 140.5t102 102t141.5 37.5q69 0 129.5 -32t99.5 -87l-28 -19q-34 49 -87 77t-114 28q-67 0 -124 -33.5t-90.5 -90t-33.5 -123.5t33.5 -124t90.5 -90.5t124 -33.5q62 0 115.5 29t87.5 79l28 -18q-38 -57 -99 -90
t-132 -33zM317 687q-13 0 -23 10t-10 23q0 14 10 23.5t23 9.5t22.5 -10t9.5 -23t-9.5 -23t-22.5 -10z" />
    <glyph glyph-name="Ccaron" unicode="&#x10c;" horiz-adv-x="770" 
d="M432 -8q-101 0 -186.5 50t-135.5 136t-50 187q0 100 50 185.5t135.5 135.5t186.5 50q87 0 163 -37.5t128 -103.5l-26 -20q-47 60 -116.5 94t-148.5 34q-92 0 -170 -45t-123.5 -122.5t-45.5 -169.5q0 -94 45.5 -172t123.5 -123.5t170 -45.5q82 0 153.5 36.5t117.5 100.5
l27 -19q-51 -70 -129.5 -110.5t-168.5 -40.5zM391 830l-108 120h44l86 -96l86 96h44l-108 -120h-44z" />
    <glyph glyph-name="ccaron" unicode="&#x10d;" horiz-adv-x="612" 
d="M331 -5q-77 0 -141.5 38t-102 102.5t-37.5 140.5t37.5 140.5t102 102t141.5 37.5q69 0 129.5 -32t99.5 -87l-28 -19q-34 49 -87 77t-114 28q-67 0 -124 -33.5t-90.5 -90t-33.5 -123.5t33.5 -124t90.5 -90.5t124 -33.5q62 0 115.5 29t87.5 79l28 -18q-38 -57 -99 -90
t-132 -33zM274 660l-108 120h44l86 -96l86 96h44l-108 -120h-44z" />
    <glyph glyph-name="Dcaron" unicode="&#x10e;" horiz-adv-x="750" 
d="M100 0v730h207q110 0 197.5 -49t136.5 -132t49 -183q0 -102 -47 -185.5t-134 -132t-202 -48.5h-207zM307 33q107 0 186.5 45t121.5 121.5t42 168.5q0 88 -44 163.5t-124 120.5t-182 45h-174v-664h174zM281 830l-108 120h44l86 -96l86 96h44l-108 -120h-44z" />
    <glyph glyph-name="dcaron" unicode="&#x10f;" horiz-adv-x="734" 
d="M330 -6q-76 0 -140 37.5t-102 102t-38 140.5t38 140.5t102 102.5t140 38q82 0 151.5 -45t96.5 -113v383h33v-780h-33v149q-27 -66 -96.5 -110.5t-151.5 -44.5zM330 27q67 0 124 33.5t90.5 90t33.5 123.5t-33.5 124t-90.5 90.5t-124 33.5q-66 0 -123 -33.5t-90.5 -90.5
t-33.5 -124t33.5 -123.5t90.5 -90t123 -33.5zM681 600l-2 180h35l-2 -180h-31z" />
    <glyph glyph-name="Dcroat" unicode="&#x110;" horiz-adv-x="750" 
d="M100 0v349h-50v33h50v348h207q110 0 197.5 -49t136.5 -132t49 -183q0 -101 -47 -185t-134 -132.5t-202 -48.5h-207zM307 34q106 0 185.5 44.5t121.5 121t42 168.5q0 88 -44 163t-123.5 120t-181.5 45h-173v-314h300v-33h-300v-315h173z" />
    <glyph glyph-name="dcroat" unicode="&#x111;" horiz-adv-x="702" 
d="M330 -6q-76 0 -140 37.5t-102 102t-38 140.5t38 140.5t102 102.5t140 38q82 0 151.5 -45t96.5 -113v265h-256v33h256v85h33v-85h61v-33h-61v-662h-33v149q-27 -66 -96.5 -110.5t-151.5 -44.5zM330 27q67 0 124 33.5t90.5 90t33.5 123.5t-33.5 124t-90.5 90.5t-124 33.5
q-66 0 -123 -33.5t-90.5 -90.5t-33.5 -124t33.5 -123.5t90.5 -90t123 -33.5z" />
    <glyph glyph-name="Emacron" unicode="&#x112;" horiz-adv-x="606" 
d="M100 0v730h436v-33h-403v-305h383v-33h-383v-326h413v-33h-446zM148 874v33h350v-33h-350z" />
    <glyph glyph-name="emacron" unicode="&#x113;" horiz-adv-x="651" 
d="M337 -5q-78 0 -144 38t-104.5 102.5t-38.5 140.5t37 140.5t100.5 102t138.5 37.5q79 0 141.5 -37.5t98 -101.5t35.5 -141q0 -11 -2 -31h-514q8 -60 43.5 -110t90.5 -78.5t118 -28.5q61 0 115 27.5t88 74.5l29 -17q-39 -54 -100 -86t-132 -32zM568 278q0 67 -31.5 123
t-86.5 89t-124 33q-65 0 -121 -33t-89 -89.5t-33 -122.5h485zM151 704v33h350v-33h-350z" />
    <glyph glyph-name="Ebreve" unicode="&#x114;" horiz-adv-x="606" 
d="M100 0v730h436v-33h-403v-305h383v-33h-383v-326h413v-33h-446zM330 816q-41 0 -76 20t-56.5 53.5t-24.5 74.5h33q4 -48 39.5 -81.5t84.5 -33.5q48 0 83 33.5t39 81.5h33q-3 -41 -24.5 -74.5t-56 -53.5t-74.5 -20z" />
    <glyph glyph-name="ebreve" unicode="&#x115;" horiz-adv-x="651" 
d="M337 -5q-78 0 -144 38t-104.5 102.5t-38.5 140.5t37 140.5t100.5 102t138.5 37.5q79 0 141.5 -37.5t98 -101.5t35.5 -141q0 -11 -2 -31h-514q8 -60 43.5 -110t90.5 -78.5t118 -28.5q61 0 115 27.5t88 74.5l29 -17q-39 -54 -100 -86t-132 -32zM568 278q0 67 -31.5 123
t-86.5 89t-124 33q-65 0 -121 -33t-89 -89.5t-33 -122.5h485zM327 646q-41 0 -76 20t-56.5 53.5t-24.5 74.5h33q4 -48 39.5 -81.5t84.5 -33.5q48 0 83 33.5t39 81.5h33q-3 -41 -24.5 -74.5t-56 -53.5t-74.5 -20z" />
    <glyph glyph-name="Edotaccent" unicode="&#x116;" horiz-adv-x="606" 
d="M100 0v730h436v-33h-403v-305h383v-33h-383v-326h413v-33h-446zM324 857q-13 0 -23 10t-10 23q0 14 10 23.5t23 9.5t22.5 -10t9.5 -23t-9.5 -23t-22.5 -10z" />
    <glyph glyph-name="edotaccent" unicode="&#x117;" horiz-adv-x="651" 
d="M337 -5q-78 0 -144 38t-104.5 102.5t-38.5 140.5t37 140.5t100.5 102t138.5 37.5q79 0 141.5 -37.5t98 -101.5t35.5 -141q0 -11 -2 -31h-514q8 -60 43.5 -110t90.5 -78.5t118 -28.5q61 0 115 27.5t88 74.5l29 -17q-39 -54 -100 -86t-132 -32zM568 278q0 67 -31.5 123
t-86.5 89t-124 33q-65 0 -121 -33t-89 -89.5t-33 -122.5h485zM314 687q-13 0 -23 10t-10 23q0 14 10 23.5t23 9.5t22.5 -10t9.5 -23t-9.5 -23t-22.5 -10z" />
    <glyph glyph-name="Eogonek" unicode="&#x118;" horiz-adv-x="625" 
d="M521 -218q-32 0 -54.5 24.5t-22.5 60.5q0 31 13 56.5t38 61.5q3 4 6 7.5t5 7.5h-406v730h436v-33h-403v-305h383v-33h-383v-326h413v-33q-4 -6 -8 -11.5t-8 -10.5q-29 -41 -41 -63.5t-12 -46.5q0 -22 12.5 -37.5t31.5 -15.5q35 0 57 32l19 -26q-14 -20 -32.5 -29.5
t-43.5 -9.5z" />
    <glyph glyph-name="eogonek" unicode="&#x119;" horiz-adv-x="670" 
d="M544 -105q-32 0 -54.5 24.5t-22.5 60.5q0 27 11 52q-63 -37 -141 -37t-144 38t-104.5 102.5t-38.5 140.5t37 140.5t100.5 102t138.5 37.5q79 0 141.5 -37.5t98 -101.5t35.5 -141q0 -11 -2 -31h-514q8 -60 43.5 -110t90.5 -78.5t118 -28.5q61 0 115 27.5t88 74.5l29 -17
l-13 -18q-35 -48 -45.5 -69.5t-10.5 -44.5q0 -22 12.5 -37.5t31.5 -15.5q35 0 57 32l19 -26q-14 -20 -32.5 -29.5t-43.5 -9.5zM568 278q0 67 -31.5 123t-86.5 89t-124 33q-65 0 -121 -33t-89 -89.5t-33 -122.5h485z" />
    <glyph glyph-name="Ecaron" unicode="&#x11a;" horiz-adv-x="606" 
d="M100 0v730h436v-33h-403v-305h383v-33h-383v-326h413v-33h-446zM279 830l-108 120h44l86 -96l86 96h44l-108 -120h-44z" />
    <glyph glyph-name="ecaron" unicode="&#x11b;" horiz-adv-x="651" 
d="M337 -5q-78 0 -144 38t-104.5 102.5t-38.5 140.5t37 140.5t100.5 102t138.5 37.5q79 0 141.5 -37.5t98 -101.5t35.5 -141q0 -11 -2 -31h-514q8 -60 43.5 -110t90.5 -78.5t118 -28.5q61 0 115 27.5t88 74.5l29 -17q-39 -54 -100 -86t-132 -32zM568 278q0 67 -31.5 123
t-86.5 89t-124 33q-65 0 -121 -33t-89 -89.5t-33 -122.5h485zM291 660l-108 120h44l86 -96l86 96h44l-108 -120h-44z" />
    <glyph glyph-name="Gcircumflex" unicode="&#x11c;" horiz-adv-x="853" 
d="M432 -8q-101 0 -186.5 50t-135.5 136t-50 187q0 100 50 185.5t135.5 135.5t186.5 50q88 0 165 -39t129 -106l-27 -18q-47 60 -117 95t-150 35q-92 0 -170 -45t-123.5 -122.5t-45.5 -169.5q0 -94 45.5 -172t123.5 -123.5t170 -45.5q96 0 170 42.5t115.5 119t42.5 174.5
h-345v33h377q1 -9 1 -29q0 -107 -45.5 -192t-127.5 -133t-188 -48zM297 830l108 120h44l108 -120h-44l-86 96l-86 -96h-44z" />
    <glyph glyph-name="gcircumflex" unicode="&#x11d;" horiz-adv-x="701" 
d="M320 -224q-70 0 -130.5 29t-99.5 79l26 20q34 -44 88.5 -69.5t115.5 -25.5q74 0 132 29t92 90.5t34 156.5v64q-27 -66 -96.5 -110.5t-151.5 -44.5q-76 0 -140 37.5t-102 102t-38 140.5t38 140.5t102 102.5t140 38q82 0 151.5 -45t96.5 -113v153h33v-465
q0 -103 -38.5 -172.5t-104 -103t-148.5 -33.5zM330 27q67 0 124 33.5t90.5 90t33.5 123.5t-33.5 124t-90.5 90.5t-124 33.5q-66 0 -123 -33.5t-90.5 -90.5t-33.5 -124t33.5 -123.5t90.5 -90t123 -33.5zM201 660l108 120h44l108 -120h-44l-86 96l-86 -96h-44z" />
    <glyph glyph-name="Gbreve" unicode="&#x11e;" horiz-adv-x="853" 
d="M432 -8q-101 0 -186.5 50t-135.5 136t-50 187q0 100 50 185.5t135.5 135.5t186.5 50q88 0 165 -39t129 -106l-27 -18q-47 60 -117 95t-150 35q-92 0 -170 -45t-123.5 -122.5t-45.5 -169.5q0 -94 45.5 -172t123.5 -123.5t170 -45.5q96 0 170 42.5t115.5 119t42.5 174.5
h-345v33h377q1 -9 1 -29q0 -107 -45.5 -192t-127.5 -133t-188 -48zM415 816q-41 0 -76 20t-56.5 53.5t-24.5 74.5h33q4 -48 39.5 -81.5t84.5 -33.5q48 0 83 33.5t39 81.5h33q-3 -41 -24.5 -74.5t-56 -53.5t-74.5 -20z" />
    <glyph glyph-name="gbreve" unicode="&#x11f;" horiz-adv-x="701" 
d="M320 -224q-70 0 -130.5 29t-99.5 79l26 20q34 -44 88.5 -69.5t115.5 -25.5q74 0 132 29t92 90.5t34 156.5v64q-27 -66 -96.5 -110.5t-151.5 -44.5q-76 0 -140 37.5t-102 102t-38 140.5t38 140.5t102 102.5t140 38q82 0 151.5 -45t96.5 -113v153h33v-465
q0 -103 -38.5 -172.5t-104 -103t-148.5 -33.5zM330 27q67 0 124 33.5t90.5 90t33.5 123.5t-33.5 124t-90.5 90.5t-124 33.5q-66 0 -123 -33.5t-90.5 -90.5t-33.5 -124t33.5 -123.5t90.5 -90t123 -33.5zM324 646q-41 0 -76 20t-56.5 53.5t-24.5 74.5h33q4 -48 39.5 -81.5
t84.5 -33.5q48 0 83 33.5t39 81.5h33q-3 -41 -24.5 -74.5t-56 -53.5t-74.5 -20z" />
    <glyph glyph-name="Gdotaccent" unicode="&#x120;" horiz-adv-x="853" 
d="M432 -8q-101 0 -186.5 50t-135.5 136t-50 187q0 100 50 185.5t135.5 135.5t186.5 50q88 0 165 -39t129 -106l-27 -18q-47 60 -117 95t-150 35q-92 0 -170 -45t-123.5 -122.5t-45.5 -169.5q0 -94 45.5 -172t123.5 -123.5t170 -45.5q96 0 170 42.5t115.5 119t42.5 174.5
h-345v33h377q1 -9 1 -29q0 -107 -45.5 -192t-127.5 -133t-188 -48zM415 857q-13 0 -23 10t-10 23q0 14 10 23.5t23 9.5t22.5 -10t9.5 -23t-9.5 -23t-22.5 -10z" />
    <glyph glyph-name="gdotaccent" unicode="&#x121;" horiz-adv-x="701" 
d="M320 -224q-70 0 -130.5 29t-99.5 79l26 20q34 -44 88.5 -69.5t115.5 -25.5q74 0 132 29t92 90.5t34 156.5v64q-27 -66 -96.5 -110.5t-151.5 -44.5q-76 0 -140 37.5t-102 102t-38 140.5t38 140.5t102 102.5t140 38q82 0 151.5 -45t96.5 -113v153h33v-465
q0 -103 -38.5 -172.5t-104 -103t-148.5 -33.5zM330 27q67 0 124 33.5t90.5 90t33.5 123.5t-33.5 124t-90.5 90.5t-124 33.5q-66 0 -123 -33.5t-90.5 -90.5t-33.5 -124t33.5 -123.5t90.5 -90t123 -33.5zM324 687q-13 0 -23 10t-10 23q0 14 10 23.5t23 9.5t22.5 -10t9.5 -23
t-9.5 -23t-22.5 -10z" />
    <glyph glyph-name="uni0122" unicode="&#x122;" horiz-adv-x="853" 
d="M432 -8q-101 0 -186.5 50t-135.5 136t-50 187q0 100 50 185.5t135.5 135.5t186.5 50q88 0 165 -39t129 -106l-27 -18q-47 60 -117 95t-150 35q-92 0 -170 -45t-123.5 -122.5t-45.5 -169.5q0 -94 45.5 -172t123.5 -123.5t170 -45.5q96 0 170 42.5t115.5 119t42.5 174.5
h-345v33h377q1 -9 1 -29q0 -107 -45.5 -192t-127.5 -133t-188 -48zM400 -185l18 140h35l-21 -140h-32z" />
    <glyph glyph-name="uni0123" unicode="&#x123;" horiz-adv-x="701" 
d="M320 -224q-70 0 -130.5 29t-99.5 79l26 20q34 -44 88.5 -69.5t115.5 -25.5q74 0 132 29t92 90.5t34 156.5v64q-27 -66 -96.5 -110.5t-151.5 -44.5q-76 0 -140 37.5t-102 102t-38 140.5t38 140.5t102 102.5t140 38q82 0 151.5 -45t96.5 -113v153h33v-465
q0 -103 -38.5 -172.5t-104 -103t-148.5 -33.5zM330 27q67 0 124 33.5t90.5 90t33.5 123.5t-33.5 124t-90.5 90.5t-124 33.5q-66 0 -123 -33.5t-90.5 -90.5t-33.5 -124t33.5 -123.5t90.5 -90t123 -33.5zM305 650l21 140h32l-18 -140h-35z" />
    <glyph glyph-name="Hcircumflex" unicode="&#x124;" horiz-adv-x="750" 
d="M100 0v730h33v-347h484v347h33v-730h-33v350h-484v-350h-33zM247 830l108 120h44l108 -120h-44l-86 96l-86 -96h-44z" />
    <glyph glyph-name="hcircumflex" unicode="&#x125;" horiz-adv-x="641" 
d="M94 0v780h33v-353q24 56 76.5 92t126.5 36q67 0 120.5 -31.5t84.5 -94t31 -151.5v-278h-33v278q0 81 -27 135.5t-72.5 81.5t-103.5 27t-103.5 -27t-72.5 -81.5t-27 -135.5v-278h-33zM90 830l108 120h44l108 -120h-44l-86 96l-86 -96h-44z" />
    <glyph glyph-name="Hbar" unicode="&#x126;" horiz-adv-x="750" 
d="M100 0v607h-30v33h30v90h33v-90h484v90h33v-90h30v-33h-30v-607h-33v350h-484v-350h-33zM133 383h484v224h-484v-224z" />
    <glyph glyph-name="hbar" unicode="&#x127;" 
d="M90 0v662h-73v33h73v85h33v-85h160v-33h-160v-235q24 56 76.5 92t126.5 36q67 0 120.5 -31.5t84.5 -94t31 -151.5v-278h-33v278q0 81 -27 135.5t-72.5 81.5t-103.5 27t-103.5 -27t-72.5 -81.5t-27 -135.5v-278h-33z" />
    <glyph glyph-name="Itilde" unicode="&#x128;" horiz-adv-x="233" 
d="M100 0v730h33v-730h-33zM191 836q-25 -3 -43.5 8.5t-42.5 35.5q-18 18 -30 26.5t-25 7.5q-18 -1 -29 -19.5t-11 -50.5h-33q0 46 20 73.5t51 29.5q24 2 41.5 -9.5t38.5 -33.5q17 -18 30.5 -27.5t29.5 -8.5t26 18.5t10 51.5h33q0 -47 -18.5 -73t-47.5 -29z" />
    <glyph glyph-name="itilde" unicode="&#x129;" horiz-adv-x="213" 
d="M90 0v550h33v-550h-33zM181 666q-25 -3 -44 9t-42 35q-18 18 -30 26.5t-25 7.5q-18 -1 -29 -19.5t-11 -50.5h-33q0 46 20 73.5t51 29.5q24 2 41.5 -9.5t38.5 -33.5q17 -18 30.5 -27.5t29.5 -8.5t26 18.5t10 51.5h33q0 -47 -18.5 -73t-47.5 -29z" />
    <glyph glyph-name="Imacron" unicode="&#x12a;" horiz-adv-x="233" 
d="M100 0v730h33v-730h-33zM-59 874v33h350v-33h-350z" />
    <glyph glyph-name="imacron" unicode="&#x12b;" horiz-adv-x="213" 
d="M90 0v550h33v-550h-33zM-18 704v33h250v-33h-250z" />
    <glyph glyph-name="Ibreve" unicode="&#x12c;" horiz-adv-x="232" 
d="M100 0v730h33v-730h-33zM117 816q-41 0 -76 20t-56.5 53.5t-24.5 74.5h33q4 -48 39.5 -81.5t84.5 -33.5q48 0 83 33.5t39 81.5h33q-3 -41 -24.5 -74.5t-56 -53.5t-74.5 -20z" />
    <glyph glyph-name="ibreve" unicode="&#x12d;" horiz-adv-x="213" 
d="M90 0v550h33v-550h-33zM108 670q-34 0 -61 16t-42 39.5t-15 44.5h33q0 -14 10 -29.5t29.5 -26.5t45.5 -11q29 0 47.5 11.5t27 27.5t8.5 28h33q0 -21 -14.5 -44.5t-41 -39.5t-60.5 -16z" />
    <glyph glyph-name="Iogonek" unicode="&#x12e;" horiz-adv-x="233" 
d="M115 -218q-32 0 -54.5 24.5t-22.5 60.5t13.5 61t39.5 55q4 4 7.5 8.5t6.5 8.5h-5v730h33v-730l-7 -10q-31 -45 -43 -70t-12 -52q0 -22 12.5 -37.5t31.5 -15.5q35 0 57 32l19 -26q-14 -20 -32.5 -29.5t-43.5 -9.5z" />
    <glyph glyph-name="iogonek" unicode="&#x12f;" horiz-adv-x="213" 
d="M98 -218q-32 0 -54.5 24.5t-22.5 60.5q0 33 14.5 57.5t39.5 51.5l10 12l10 12h-5v550h33v-550q-4 -6 -8 -11.5t-8 -10.5q-29 -41 -41 -63.5t-12 -46.5q0 -22 12.5 -37.5t31.5 -15.5q35 0 57 32l19 -26q-14 -20 -33 -29.5t-43 -9.5zM107 624q-13 0 -23 10t-10 23
q0 14 10 23.5t23 9.5t22.5 -10t9.5 -23t-9.5 -23t-22.5 -10z" />
    <glyph glyph-name="Idotaccent" unicode="&#x130;" horiz-adv-x="233" 
d="M100 0v730h33v-730h-33zM117 857q-13 0 -23 10t-10 23q0 14 10 23.5t23 9.5t22.5 -10t9.5 -23t-9.5 -23t-22.5 -10z" />
    <glyph glyph-name="dotlessi" unicode="&#x131;" horiz-adv-x="213" 
d="M90 0v550h33v-550h-33z" />
    <glyph glyph-name="IJ" unicode="&#x132;" horiz-adv-x="683" 
d="M382 -5q-35 0 -68.5 11t-60.5 32l20 26q47 -36 109 -36q79 0 128.5 54t49.5 144v504h33v-504q0 -68 -27 -120.5t-75 -81.5t-109 -29zM100 0v730h33v-730h-33z" />
    <glyph glyph-name="ij" unicode="&#x133;" horiz-adv-x="431" 
d="M186 -228q-30 0 -57 11l11 31q21 -9 46 -9q59 0 90.5 40.5t31.5 121.5v583h33v-583q0 -96 -42 -145.5t-113 -49.5zM90 0v550h33v-550h-33zM107 624q-13 0 -23 10t-10 23q0 14 10 23.5t23 9.5t22.5 -10t9.5 -23t-9.5 -23t-22.5 -10zM325 624q-13 0 -23 10t-10 23
q0 14 10 23.5t23 9.5t22.5 -10t9.5 -23t-9.5 -23t-22.5 -10z" />
    <glyph glyph-name="Jcircumflex" unicode="&#x134;" horiz-adv-x="461" 
d="M169 -5q-35 0 -68.5 11t-60.5 32l20 26q47 -36 109 -36q79 0 128.5 54t49.5 144v504h33v-504q0 -68 -27 -120.5t-75 -81.5t-109 -29zM155 830l108 120h44l108 -120h-44l-86 96l-86 -96h-44z" />
    <glyph glyph-name="jcircumflex" unicode="&#x135;" horiz-adv-x="232" 
d="M-13 -228q-30 0 -57 11l11 31q21 -9 46 -9q59 0 90.5 40.5t31.5 121.5v583h33v-583q0 -96 -42 -145.5t-113 -49.5zM-9 660l108 120h44l108 -120h-44l-86 96l-86 -96h-44z" />
    <glyph glyph-name="uni0136" unicode="&#x136;" horiz-adv-x="660" 
d="M100 0v730h33v-432l419 432h46l-287 -296l319 -434h-42l-301 409l-154 -159v-250h-33zM296 -185l18 140h35l-21 -140h-32z" />
    <glyph glyph-name="uni0137" unicode="&#x137;" horiz-adv-x="565" 
d="M90 0v780h33v-543l326 313h48l-220 -212l258 -338h-42l-240 315l-130 -124v-191h-33zM256 -185l18 140h35l-21 -140h-32z" />
    <glyph glyph-name="kgreenlandic" unicode="&#x138;" horiz-adv-x="565" 
d="M90 0v550h33v-313l326 313h48l-220 -212l258 -338h-42l-240 315l-130 -124v-191h-33z" />
    <glyph glyph-name="Lacute" unicode="&#x139;" horiz-adv-x="586" 
d="M100 0v730h33v-697h423v-33h-456zM278 816l65 148h35l-70 -148h-30z" />
    <glyph glyph-name="lacute" unicode="&#x13a;" horiz-adv-x="213" 
d="M90 0v780h33v-780h-33zM90 851l65 148h35l-70 -148h-30z" />
    <glyph glyph-name="uni013B" unicode="&#x13b;" horiz-adv-x="586" 
d="M100 0v730h33v-697h423v-33h-456zM291 -185l18 140h35l-21 -140h-32z" />
    <glyph glyph-name="uni013C" unicode="&#x13c;" horiz-adv-x="213" 
d="M90 0v780h33v-780h-33zM71 -185l18 140h35l-21 -140h-32z" />
    <glyph glyph-name="Lcaron" unicode="&#x13d;" horiz-adv-x="586" 
d="M100 0v730h33v-697h423v-33h-456zM259 532l45 198h35l-50 -198h-30z" />
    <glyph glyph-name="lcaron" unicode="&#x13e;" horiz-adv-x="234" 
d="M90 0v780h33v-780h-33zM181 603l-2 180h35l-2 -180h-31z" />
    <glyph glyph-name="Ldot" unicode="&#x13f;" horiz-adv-x="586" 
d="M100 0v730h33v-697h423v-33h-456zM316 367q-13 0 -23 10t-10 23q0 14 10 23.5t23 9.5t22.5 -10t9.5 -23t-9.5 -23t-22.5 -10z" />
    <glyph glyph-name="ldot" unicode="&#x140;" horiz-adv-x="248" 
d="M90 0v780h33v-780h-33zM196 367q-13 0 -23 10t-10 23q0 14 10 23.5t23 9.5t22.5 -10t9.5 -23t-9.5 -23t-22.5 -10z" />
    <glyph glyph-name="Lslash" unicode="&#x141;" horiz-adv-x="566" 
d="M100 0v314l-60 -35v37l60 35v379h33v-360l235 136v-37l-235 -136v-299h403v-34h-436z" />
    <glyph glyph-name="lslash" unicode="&#x142;" horiz-adv-x="213" 
d="M90 0v354l-60 -35v37l60 35v389h33v-371l60 35v-37l-60 -35v-372h-33z" />
    <glyph glyph-name="Nacute" unicode="&#x143;" horiz-adv-x="800" 
d="M100 0v730h33l534 -676v676h33v-730h-33l-534 678v-678h-33zM358 816l65 148h35l-70 -148h-30z" />
    <glyph glyph-name="nacute" unicode="&#x144;" 
d="M90 0v550h33v-123q24 56 76.5 92t126.5 36q67 0 120.5 -31.5t84.5 -94t31 -151.5v-278h-33v278q0 81 -27 135.5t-72.5 81.5t-103.5 27t-103.5 -27t-72.5 -81.5t-27 -135.5v-278h-33zM299 646l65 148h35l-70 -148h-30z" />
    <glyph glyph-name="uni0145" unicode="&#x145;" horiz-adv-x="800" 
d="M100 0v730h33l534 -676v676h33v-730h-33l-534 678v-678h-33zM365 -185l18 140h35l-21 -140h-32z" />
    <glyph glyph-name="uni0146" unicode="&#x146;" 
d="M90 0v550h33v-123q24 56 76.5 92t126.5 36q67 0 120.5 -31.5t84.5 -94t31 -151.5v-278h-33v278q0 81 -27 135.5t-72.5 81.5t-103.5 27t-103.5 -27t-72.5 -81.5t-27 -135.5v-278h-33zM300 -185l18 140h35l-21 -140h-32z" />
    <glyph glyph-name="Ncaron" unicode="&#x147;" horiz-adv-x="800" 
d="M100 0v730h33l534 -676v676h33v-730h-33l-534 678v-678h-33zM368 830l-108 120h44l86 -96l86 96h44l-108 -120h-44z" />
    <glyph glyph-name="ncaron" unicode="&#x148;" 
d="M90 0v550h33v-123q24 56 76.5 92t126.5 36q67 0 120.5 -31.5t84.5 -94t31 -151.5v-278h-33v278q0 81 -27 135.5t-72.5 81.5t-103.5 27t-103.5 -27t-72.5 -81.5t-27 -135.5v-278h-33zM304 660l-108 120h44l86 -96l86 96h44l-108 -120h-44z" />
    <glyph glyph-name="napostrophe" unicode="&#x149;" horiz-adv-x="674" 
d="M127 0v550h33v-123q24 56 76.5 92t126.5 36q67 0 120.5 -31.5t84.5 -94t31 -151.5v-278h-33v278q0 81 -27 135.5t-72.5 81.5t-103.5 27t-103.5 -27t-72.5 -81.5t-27 -135.5v-278h-33zM10 404l45 198h35l-50 -198h-30z" />
    <glyph glyph-name="Eng" unicode="&#x14a;" horiz-adv-x="800" 
d="M575 -81q71 0 87 87l-529 672v-678h-33v730l33 -2l534 -674v676h33v-675q-1 -57 -16 -96t-42.5 -58t-66.5 -19v37z" />
    <glyph glyph-name="eng" unicode="&#x14b;" 
d="M437 -81q45 0 68.5 36t23.5 107v216q0 81 -27 135.5t-72.5 81.5t-103.5 27t-103.5 -27t-72.5 -81.5t-27 -135.5v-278h-33v550h33v-123q24 56 76.5 92t126.5 36q67 0 120.5 -31.5t84.5 -94t31 -151.5v-225q-1 -85 -33.5 -128t-91.5 -43v37z" />
    <glyph glyph-name="Omacron" unicode="&#x14c;" horiz-adv-x="863" 
d="M432 -8q-101 0 -186.5 50t-135.5 136t-50 187q0 100 50 185.5t135.5 135.5t186.5 50t186 -50t135 -135.5t50 -185.5q0 -101 -50 -187t-135 -136t-186 -50zM432 25q92 0 169.5 45.5t123 123.5t45.5 172q0 92 -45.5 169.5t-123 122.5t-169.5 45t-170 -45t-123.5 -122.5
t-45.5 -169.5q0 -94 45.5 -172t123.5 -123.5t170 -45.5zM257 874v33h350v-33h-350z" />
    <glyph glyph-name="omacron" unicode="&#x14d;" horiz-adv-x="661" 
d="M331 -5q-77 0 -141.5 38t-102 102.5t-37.5 140.5t37.5 140.5t102 102t141.5 37.5q76 0 140 -37.5t102 -102t38 -140.5t-38 -140.5t-102 -102.5t-140 -38zM331 28q66 0 123 33.5t90.5 90.5t33.5 124t-33.5 123.5t-90.5 90t-123 33.5q-67 0 -124 -33.5t-90.5 -90
t-33.5 -123.5t33.5 -124t90.5 -90.5t124 -33.5zM156 704v33h350v-33h-350z" />
    <glyph glyph-name="Obreve" unicode="&#x14e;" horiz-adv-x="863" 
d="M432 -8q-101 0 -186.5 50t-135.5 136t-50 187q0 100 50 185.5t135.5 135.5t186.5 50t186 -50t135 -135.5t50 -185.5q0 -101 -50 -187t-135 -136t-186 -50zM432 25q92 0 169.5 45.5t123 123.5t45.5 172q0 92 -45.5 169.5t-123 122.5t-169.5 45t-170 -45t-123.5 -122.5
t-45.5 -169.5q0 -94 45.5 -172t123.5 -123.5t170 -45.5zM432 816q-41 0 -76 20t-56.5 53.5t-24.5 74.5h33q4 -48 39.5 -81.5t84.5 -33.5q48 0 83 33.5t39 81.5h33q-3 -41 -24.5 -74.5t-56 -53.5t-74.5 -20z" />
    <glyph glyph-name="obreve" unicode="&#x14f;" horiz-adv-x="661" 
d="M331 -5q-77 0 -141.5 38t-102 102.5t-37.5 140.5t37.5 140.5t102 102t141.5 37.5q76 0 140 -37.5t102 -102t38 -140.5t-38 -140.5t-102 -102.5t-140 -38zM331 28q66 0 123 33.5t90.5 90.5t33.5 124t-33.5 123.5t-90.5 90t-123 33.5q-67 0 -124 -33.5t-90.5 -90
t-33.5 -123.5t33.5 -124t90.5 -90.5t124 -33.5zM326 646q-41 0 -76 20t-56.5 53.5t-24.5 74.5h33q4 -48 39.5 -81.5t84.5 -33.5q48 0 83 33.5t39 81.5h33q-3 -41 -24.5 -74.5t-56 -53.5t-74.5 -20z" />
    <glyph glyph-name="Ohungarumlaut" unicode="&#x150;" horiz-adv-x="863" 
d="M432 -8q-101 0 -186.5 50t-135.5 136t-50 187q0 100 50 185.5t135.5 135.5t186.5 50t186 -50t135 -135.5t50 -185.5q0 -101 -50 -187t-135 -136t-186 -50zM432 25q92 0 169.5 45.5t123 123.5t45.5 172q0 92 -45.5 169.5t-123 122.5t-169.5 45t-170 -45t-123.5 -122.5
t-45.5 -169.5q0 -94 45.5 -172t123.5 -123.5t170 -45.5zM305 794l95 192h40l-100 -192h-35zM479 794l95 192h40l-100 -192h-35z" />
    <glyph glyph-name="ohungarumlaut" unicode="&#x151;" horiz-adv-x="661" 
d="M331 -5q-77 0 -141.5 38t-102 102.5t-37.5 140.5t37.5 140.5t102 102t141.5 37.5q76 0 140 -37.5t102 -102t38 -140.5t-38 -140.5t-102 -102.5t-140 -38zM331 28q66 0 123 33.5t90.5 90.5t33.5 124t-33.5 123.5t-90.5 90t-123 33.5q-67 0 -124 -33.5t-90.5 -90
t-33.5 -123.5t33.5 -124t90.5 -90.5t124 -33.5zM206 624l95 192h40l-100 -192h-35zM380 624l95 192h40l-100 -192h-35z" />
    <glyph glyph-name="OE" unicode="&#x152;" horiz-adv-x="1010" 
d="M432 -8q-101 0 -186.5 50t-135.5 136t-50 187q0 100 50 185.5t135.5 135.5t186.5 50q38 0 72 -6h436v-33h-403v-305h383v-33h-383v-326h413v-33h-441q-40 -8 -77 -8zM432 25q35 0 72 8v662q-37 8 -72 8q-92 0 -170 -45t-123.5 -122.5t-45.5 -169.5q0 -94 45.5 -172
t123.5 -123.5t170 -45.5z" />
    <glyph glyph-name="oe" unicode="&#x153;" horiz-adv-x="1180" 
d="M331 -5q-77 0 -141.5 38t-102 102.5t-37.5 140.5t37.5 140.5t102 102t141.5 37.5q90 0 162 -51.5t102 -134.5q29 83 100 134.5t160 51.5q79 0 141.5 -37.5t98 -101.5t35.5 -141q0 -11 -2 -31h-514q8 -60 43.5 -110t90.5 -78.5t118 -28.5q61 0 115 27.5t88 74.5l29 -17
q-39 -54 -100 -86t-132 -32q-93 0 -167 52.5t-104 135.5q-29 -83 -101.5 -135.5t-162.5 -52.5zM331 28q66 0 123 33.5t90.5 90.5t33.5 124t-33.5 123.5t-90.5 90t-123 33.5q-67 0 -124 -33.5t-90.5 -90t-33.5 -123.5t33.5 -124t90.5 -90.5t124 -33.5zM1097 278
q0 67 -31.5 123t-86.5 89t-124 33q-65 0 -121 -33t-89 -89.5t-33 -122.5h485z" />
    <glyph glyph-name="Racute" unicode="&#x154;" horiz-adv-x="648" 
d="M100 0v730h273q64 0 115.5 -29t81 -78.5t29.5 -108.5q0 -55 -26 -102.5t-72 -77.5t-105 -35l212 -299h-43l-211 298h-221v-298h-33zM373 331q57 0 101 25.5t68 67.5t24 90t-24 90t-68 67.5t-101 25.5h-240v-366h240zM263 816l65 148h35l-70 -148h-30z" />
    <glyph glyph-name="racute" unicode="&#x155;" horiz-adv-x="375" 
d="M90 0v549l33 1v-107q22 51 73.5 79.5t119.5 28.5q20 0 29 -1l-7 -33q-7 1 -23 1q-88 0 -140 -58t-52 -173v-287h-33zM168 646l65 148h35l-70 -148h-30z" />
    <glyph glyph-name="uni0156" unicode="&#x156;" horiz-adv-x="648" 
d="M100 0v730h273q64 0 115.5 -29t81 -78.5t29.5 -108.5q0 -55 -26 -102.5t-72 -77.5t-105 -35l212 -299h-43l-211 298h-221v-298h-33zM373 331q57 0 101 25.5t68 67.5t24 90t-24 90t-68 67.5t-101 25.5h-240v-366h240zM242 -189l65 148h35l-70 -148h-30z" />
    <glyph glyph-name="uni0157" unicode="&#x157;" horiz-adv-x="375" 
d="M90 0v549l33 1v-107q22 51 73.5 79.5t119.5 28.5q20 0 29 -1l-7 -33q-7 1 -23 1q-88 0 -140 -58t-52 -173v-287h-33zM70 -185l18 140h35l-21 -140h-32z" />
    <glyph glyph-name="Rcaron" unicode="&#x158;" horiz-adv-x="648" 
d="M100 0v730h273q64 0 115.5 -29t81 -78.5t29.5 -108.5q0 -55 -26 -102.5t-72 -77.5t-105 -35l212 -299h-43l-211 298h-221v-298h-33zM373 331q57 0 101 25.5t68 67.5t24 90t-24 90t-68 67.5t-101 25.5h-240v-366h240zM272 830l-108 120h44l86 -96l86 96h44l-108 -120h-44z
" />
    <glyph glyph-name="rcaron" unicode="&#x159;" horiz-adv-x="380" 
d="M95 0v549l33 1v-107q22 51 73.5 79.5t119.5 28.5q20 0 29 -1l-7 -33q-7 1 -23 1q-88 0 -140 -58t-52 -173v-287h-33zM198 660l-108 120h44l86 -96l86 96h44l-108 -120h-44z" />
    <glyph glyph-name="Sacute" unicode="&#x15a;" horiz-adv-x="610" 
d="M312 -6q-71 1 -135 26.5t-122 83.5l23 23q47 -47 105 -73t131 -27q91 -1 149.5 43t58.5 120q0 55 -30 90t-74.5 54t-118.5 42q-75 22 -121.5 42.5t-78 57.5t-31.5 96q0 46 26.5 84t78.5 60.5t124 22.5q63 0 129.5 -28t108.5 -88l-26 -20q-32 46 -89 74t-119 29
q-60 0 -105.5 -17t-70 -47.5t-24.5 -69.5q0 -48 27.5 -78t68 -47.5t112.5 -39.5q81 -24 129.5 -46t82.5 -63t34 -108q0 -62 -32 -106.5t-87.5 -67.5t-123.5 -22zM253 816l65 148h35l-70 -148h-30z" />
    <glyph glyph-name="sacute" unicode="&#x15b;" horiz-adv-x="560" 
d="M291 -5q-63 0 -128 23t-108 75l25 22q29 -38 87 -62.5t125 -24.5q79 0 129.5 34t50.5 91q0 39 -25.5 62.5t-63 35.5t-101.5 25q-70 15 -109.5 28t-68 40.5t-28.5 73.5q0 39 24.5 70t69.5 49t105 18q55 0 110 -21.5t100 -68.5l-24 -23q-37 40 -85 60t-100 20
q-72 0 -119.5 -27.5t-47.5 -77.5q0 -33 23.5 -53.5t58 -31.5t95.5 -24q71 -16 114.5 -30.5t74 -45t30.5 -80.5q0 -52 -30.5 -87.5t-79.5 -52.5t-104 -17zM230 646l65 148h35l-70 -148h-30z" />
    <glyph glyph-name="Scircumflex" unicode="&#x15c;" horiz-adv-x="610" 
d="M312 -6q-71 1 -135 26.5t-122 83.5l23 23q47 -47 105 -73t131 -27q91 -1 149.5 43t58.5 120q0 55 -30 90t-74.5 54t-118.5 42q-75 22 -121.5 42.5t-78 57.5t-31.5 96q0 46 26.5 84t78.5 60.5t124 22.5q63 0 129.5 -28t108.5 -88l-26 -20q-32 46 -89 74t-119 29
q-60 0 -105.5 -17t-70 -47.5t-24.5 -69.5q0 -48 27.5 -78t68 -47.5t112.5 -39.5q81 -24 129.5 -46t82.5 -63t34 -108q0 -62 -32 -106.5t-87.5 -67.5t-123.5 -22zM163 830l108 120h44l108 -120h-44l-86 96l-86 -96h-44z" />
    <glyph glyph-name="scircumflex" unicode="&#x15d;" horiz-adv-x="560" 
d="M291 -5q-63 0 -128 23t-108 75l25 22q29 -38 87 -62.5t125 -24.5q79 0 129.5 34t50.5 91q0 39 -25.5 62.5t-63 35.5t-101.5 25q-70 15 -109.5 28t-68 40.5t-28.5 73.5q0 39 24.5 70t69.5 49t105 18q55 0 110 -21.5t100 -68.5l-24 -23q-37 40 -85 60t-100 20
q-72 0 -119.5 -27.5t-47.5 -77.5q0 -33 23.5 -53.5t58 -31.5t95.5 -24q71 -16 114.5 -30.5t74 -45t30.5 -80.5q0 -52 -30.5 -87.5t-79.5 -52.5t-104 -17zM142 660l108 120h44l108 -120h-44l-86 96l-86 -96h-44z" />
    <glyph glyph-name="Scedilla" unicode="&#x15e;" horiz-adv-x="610" 
d="M303 -220q-24 0 -48.5 8t-38.5 20l16 28q8 -8 29.5 -15.5t42.5 -7.5q29 0 46 14t17 36q0 24 -19.5 38t-58.5 14h-35l27 81q-128 10 -226 108l23 23q47 -47 105 -73t131 -27q91 -1 149.5 43t58.5 120q0 55 -30 90t-74.5 54t-118.5 42q-75 22 -121.5 42.5t-78 57.5
t-31.5 96q0 46 26.5 84t78.5 60.5t124 22.5q63 0 129.5 -28t108.5 -88l-26 -20q-32 46 -89 74t-119 29q-60 0 -105.5 -17t-70 -47.5t-24.5 -69.5q0 -48 27.5 -78t68 -47.5t112.5 -39.5q81 -24 129.5 -46t82.5 -63t34 -108q0 -61 -31.5 -105.5t-86.5 -67.5t-122 -23l-15 -46
q48 -3 74 -26t26 -58q0 -23 -11.5 -42.5t-33.5 -30.5t-52 -11z" />
    <glyph glyph-name="scedilla" unicode="&#x15f;" horiz-adv-x="560" 
d="M275 -220q-24 0 -48.5 8t-38.5 20l16 28q8 -8 29.5 -15.5t42.5 -7.5q29 0 46 14t17 36q0 24 -19.5 38t-58.5 14h-35l27 82q-57 6 -109 29t-89 67l25 22q29 -38 87 -62.5t125 -24.5q79 0 129.5 34t50.5 91q0 39 -25.5 62.5t-63 35.5t-101.5 25q-70 15 -109.5 28t-68 40.5
t-28.5 73.5q0 39 24.5 70t69.5 49t105 18q55 0 110 -21.5t100 -68.5l-24 -23q-37 40 -85 60t-100 20q-72 0 -119.5 -27.5t-47.5 -77.5q0 -33 23.5 -53.5t58 -31.5t95.5 -24q71 -16 114.5 -30.5t74 -45t30.5 -80.5q0 -72 -60.5 -114.5t-157.5 -42.5l-15 -47q48 -3 74 -26
t26 -58q0 -23 -11.5 -42.5t-33.5 -30.5t-52 -11z" />
    <glyph glyph-name="Scaron" unicode="&#x160;" horiz-adv-x="610" 
d="M312 -6q-71 1 -135 26.5t-122 83.5l23 23q47 -47 105 -73t131 -27q91 -1 149.5 43t58.5 120q0 55 -30 90t-74.5 54t-118.5 42q-75 22 -121.5 42.5t-78 57.5t-31.5 96q0 46 26.5 84t78.5 60.5t124 22.5q63 0 129.5 -28t108.5 -88l-26 -20q-32 46 -89 74t-119 29
q-60 0 -105.5 -17t-70 -47.5t-24.5 -69.5q0 -48 27.5 -78t68 -47.5t112.5 -39.5q81 -24 129.5 -46t82.5 -63t34 -108q0 -62 -32 -106.5t-87.5 -67.5t-123.5 -22zM271 830l-108 120h44l86 -96l86 96h44l-108 -120h-44z" />
    <glyph glyph-name="scaron" unicode="&#x161;" horiz-adv-x="560" 
d="M291 -5q-63 0 -128 23t-108 75l25 22q29 -38 87 -62.5t125 -24.5q79 0 129.5 34t50.5 91q0 39 -25.5 62.5t-63 35.5t-101.5 25q-70 15 -109.5 28t-68 40.5t-28.5 73.5q0 39 24.5 70t69.5 49t105 18q55 0 110 -21.5t100 -68.5l-24 -23q-37 40 -85 60t-100 20
q-72 0 -119.5 -27.5t-47.5 -77.5q0 -33 23.5 -53.5t58 -31.5t95.5 -24q71 -16 114.5 -30.5t74 -45t30.5 -80.5q0 -52 -30.5 -87.5t-79.5 -52.5t-104 -17zM258 660l-108 120h44l86 -96l86 96h44l-108 -120h-44z" />
    <glyph glyph-name="uni0162" unicode="&#x162;" horiz-adv-x="594" 
d="M301 -220q-24 0 -48.5 8t-38.5 20l16 28q8 -8 29.5 -15.5t42.5 -7.5q29 0 46 14t17 36q0 24 -19.5 38t-58.5 14h-35l28 85h1v697h-251v33h534v-33h-250v-697h1l-17 -52q48 -3 74 -26t26 -58q0 -23 -11.5 -42.5t-33.5 -30.5t-52 -11z" />
    <glyph glyph-name="uni0163" unicode="&#x163;" horiz-adv-x="351" 
d="M190 -220q-24 0 -48.5 8t-38.5 20l16 28q8 -8 29.5 -15.5t42.5 -7.5q29 0 46 14t17 36q0 24 -19.5 38t-58.5 14h-35l34 104q-33 21 -51 58t-18 89v351h-76v33h76v180h33v-180h141v-33h-141v-349q0 -67 31.5 -104.5t83.5 -37.5q26 0 47 9l10 -31q-33 -13 -57 -11
q-23 1 -49 10l-18 -55q48 -3 74 -26t26 -58q0 -23 -11.5 -42.5t-33.5 -30.5t-52 -11z" />
    <glyph glyph-name="Tcaron" unicode="&#x164;" horiz-adv-x="594" 
d="M281 0v697h-251v33h534v-33h-250v-697h-33zM275 830l-108 120h44l86 -96l86 96h44l-108 -120h-44z" />
    <glyph glyph-name="tcaron" unicode="&#x165;" horiz-adv-x="351" 
d="M254 -7q-66 0 -107 46.5t-41 126.5v351h-76v33h76v180h33v-180h141v-33h-141v-349q0 -67 31.5 -104.5t83.5 -37.5q26 0 47 9l10 -31q-27 -11 -57 -11zM200 615l-2 180h35l-2 -180h-31z" />
    <glyph glyph-name="Tbar" unicode="&#x166;" horiz-adv-x="594" 
d="M281 0v339h-159v33h159v325h-251v33h534v-33h-250v-325h158v-33h-158v-339h-33z" />
    <glyph glyph-name="tbar" unicode="&#x167;" horiz-adv-x="361" 
d="M254 -7q-43 0 -76.5 20.5t-52.5 60t-19 92.5v125h-76v33h76v193h-76v33h76v180h33v-180h141v-33h-141v-193h102v-33h-102v-123q0 -67 31.5 -104.5t83.5 -37.5q26 0 47 9l10 -31q-27 -11 -57 -11z" />
    <glyph glyph-name="Utilde" unicode="&#x168;" horiz-adv-x="730" 
d="M366 -6q-78 0 -140.5 34t-99 98.5t-36.5 152.5v451h33v-450q0 -82 31.5 -139t85 -85.5t121.5 -28.5q69 0 124.5 28.5t88.5 85.5t33 139v450h33v-451q0 -88 -36.5 -152.5t-99 -98.5t-138.5 -34zM428 836q-25 -3 -44 9t-42 35q-18 18 -30 26.5t-25 7.5q-18 -1 -29 -19.5
t-11 -50.5h-33q0 46 20 73.5t51 29.5q24 2 41.5 -9.5t38.5 -33.5q17 -18 30.5 -27.5t29.5 -8.5t26 18.5t10 51.5h33q0 -47 -18.5 -73t-47.5 -29z" />
    <glyph glyph-name="utilde" unicode="&#x169;" 
d="M311 -5q-67 0 -120.5 31.5t-84.5 94t-31 151.5v278h33v-278q0 -81 27 -135.5t72.5 -81.5t103.5 -27t103.5 27t72.5 81.5t27 135.5v278h33v-550h-33v123q-24 -56 -76.5 -92t-126.5 -36zM385 666q-25 -3 -43.5 9t-42.5 35q-18 18 -30 26.5t-25 7.5q-18 -1 -29 -19.5
t-11 -50.5h-33q0 46 20 73.5t51 29.5q24 2 41.5 -9.5t38.5 -33.5q17 -18 30.5 -27.5t29.5 -8.5t26 18.5t10 51.5h33q0 -47 -18.5 -73t-47.5 -29z" />
    <glyph glyph-name="Umacron" unicode="&#x16a;" horiz-adv-x="730" 
d="M366 -6q-78 0 -140.5 34t-99 98.5t-36.5 152.5v451h33v-450q0 -82 31.5 -139t85 -85.5t121.5 -28.5q69 0 124.5 28.5t88.5 85.5t33 139v450h33v-451q0 -88 -36.5 -152.5t-99 -98.5t-138.5 -34zM193 874v33h350v-33h-350z" />
    <glyph glyph-name="umacron" unicode="&#x16b;" 
d="M311 -5q-67 0 -120.5 31.5t-84.5 94t-31 151.5v278h33v-278q0 -81 27 -135.5t72.5 -81.5t103.5 -27t103.5 27t72.5 81.5t27 135.5v278h33v-550h-33v123q-24 -56 -76.5 -92t-126.5 -36zM134 704v33h350v-33h-350z" />
    <glyph glyph-name="Ubreve" unicode="&#x16c;" horiz-adv-x="730" 
d="M366 -6q-78 0 -140.5 34t-99 98.5t-36.5 152.5v451h33v-450q0 -82 31.5 -139t85 -85.5t121.5 -28.5q69 0 124.5 28.5t88.5 85.5t33 139v450h33v-451q0 -88 -36.5 -152.5t-99 -98.5t-138.5 -34zM363 816q-41 0 -76 20t-56.5 53.5t-24.5 74.5h33q4 -48 39.5 -81.5
t84.5 -33.5q48 0 83 33.5t39 81.5h33q-3 -41 -24.5 -74.5t-56 -53.5t-74.5 -20z" />
    <glyph glyph-name="ubreve" unicode="&#x16d;" 
d="M311 -5q-67 0 -120.5 31.5t-84.5 94t-31 151.5v278h33v-278q0 -81 27 -135.5t72.5 -81.5t103.5 -27t103.5 27t72.5 81.5t27 135.5v278h33v-550h-33v123q-24 -56 -76.5 -92t-126.5 -36zM311 646q-41 0 -76 20t-56.5 53.5t-24.5 74.5h33q4 -48 39.5 -81.5t84.5 -33.5
q48 0 83 33.5t39 81.5h33q-3 -41 -24.5 -74.5t-56 -53.5t-74.5 -20z" />
    <glyph glyph-name="Uring" unicode="&#x16e;" horiz-adv-x="730" 
d="M366 -6q-78 0 -140.5 34t-99 98.5t-36.5 152.5v451h33v-450q0 -82 31.5 -139t85 -85.5t121.5 -28.5q69 0 124.5 28.5t88.5 85.5t33 139v450h33v-451q0 -88 -36.5 -152.5t-99 -98.5t-138.5 -34zM368 784q-44 0 -75.5 31t-31.5 75t31.5 75.5t75.5 31.5t75.5 -31.5
t31.5 -75.5t-31.5 -75t-75.5 -31zM368 816q31 0 52 21t21 53t-21 53.5t-52 21.5t-52 -21.5t-21 -53.5t21 -53t52 -21z" />
    <glyph glyph-name="uring" unicode="&#x16f;" 
d="M311 -5q-67 0 -120.5 31.5t-84.5 94t-31 151.5v278h33v-278q0 -81 27 -135.5t72.5 -81.5t103.5 -27t103.5 27t72.5 81.5t27 135.5v278h33v-550h-33v123q-24 -56 -76.5 -92t-126.5 -36zM311 614q-44 0 -75.5 31t-31.5 75t31.5 75.5t75.5 31.5t75.5 -31.5t31.5 -75.5
t-31.5 -75t-75.5 -31zM311 646q31 0 52 21t21 53t-21 53.5t-52 21.5t-52 -21.5t-21 -53.5t21 -53t52 -21z" />
    <glyph glyph-name="Uhungarumlaut" unicode="&#x170;" horiz-adv-x="730" 
d="M366 -6q-78 0 -140.5 34t-99 98.5t-36.5 152.5v451h33v-450q0 -82 31.5 -139t85 -85.5t121.5 -28.5q69 0 124.5 28.5t88.5 85.5t33 139v450h33v-451q0 -88 -36.5 -152.5t-99 -98.5t-138.5 -34zM244 794l95 192h40l-100 -192h-35zM418 794l95 192h40l-100 -192h-35z" />
    <glyph glyph-name="uhungarumlaut" unicode="&#x171;" 
d="M311 -5q-67 0 -120.5 31.5t-84.5 94t-31 151.5v278h33v-278q0 -81 27 -135.5t72.5 -81.5t103.5 -27t103.5 27t72.5 81.5t27 135.5v278h33v-550h-33v123q-24 -56 -76.5 -92t-126.5 -36zM187 624l95 192h40l-100 -192h-35zM361 624l95 192h40l-100 -192h-35z" />
    <glyph glyph-name="Uogonek" unicode="&#x172;" horiz-adv-x="730" 
d="M503 -176q-32 0 -54.5 24.5t-22.5 60.5q0 27 10.5 51t28.5 50q-48 -16 -99 -16q-78 0 -140.5 34t-99 98.5t-36.5 152.5v451h33v-450q0 -82 31.5 -139t85 -85.5t121.5 -28.5q69 0 124.5 28.5t88.5 85.5t33 139v450h33v-451q0 -80 -29.5 -140.5t-82.5 -96.5q-4 -6 -8 -11.5
t-8 -10.5q-29 -41 -41 -63.5t-12 -46.5q0 -22 12.5 -37.5t31.5 -15.5q35 0 57 32l19 -26q-14 -20 -32.5 -29.5t-43.5 -9.5z" />
    <glyph glyph-name="uogonek" unicode="&#x173;" 
d="M522 -218q-32 0 -54.5 24.5t-22.5 60.5q0 35 15.5 60t43.5 55l16 18h-6v123q-24 -56 -76.5 -92t-126.5 -36q-67 0 -120.5 31.5t-84.5 94t-31 151.5v278h33v-278q0 -81 27 -135.5t72.5 -81.5t103.5 -27t103.5 27t72.5 81.5t27 135.5v278h33v-550q-4 -6 -8 -11.5t-8 -10.5
q-29 -41 -41 -63.5t-12 -46.5q0 -22 12.5 -37.5t31.5 -15.5q35 0 57 32l19 -26q-14 -20 -32.5 -29.5t-43.5 -9.5z" />
    <glyph glyph-name="Wcircumflex" unicode="&#x174;" horiz-adv-x="1013" 
d="M264 0l-234 730h35l216 -674l208 674h35l208 -674l216 674h35l-234 -730h-35l-207 673l-208 -673h-35zM377 830l108 120h44l108 -120h-44l-86 96l-86 -96h-44z" />
    <glyph glyph-name="wcircumflex" unicode="&#x175;" horiz-adv-x="860" 
d="M223 0l-198 550h35l180 -500l173 500h34l173 -500l180 500h35l-198 -550h-35l-172 499l-172 -499h-35zM300 660l108 120h44l108 -120h-44l-86 96l-86 -96h-44z" />
    <glyph glyph-name="Ycircumflex" unicode="&#x176;" horiz-adv-x="640" 
d="M303 0v326l-283 404h41l259 -371l259 371h41l-284 -406v-324h-33zM190 830l108 120h44l108 -120h-44l-86 96l-86 -96h-44z" />
    <glyph glyph-name="ycircumflex" unicode="&#x177;" horiz-adv-x="560" 
d="M111 -220q-26 0 -46.5 5t-44.5 16l13 31q18 -9 37.5 -14t40.5 -5q36 0 63 23t46 58t48 100q0 2 0.5 3.5t1.5 2.5l-234 550h36l216 -508l216 508h36l-234 -550q-37 -84 -62 -128t-56.5 -68t-76.5 -24zM150 660l108 120h44l108 -120h-44l-86 96l-86 -96h-44z" />
    <glyph glyph-name="Ydieresis" unicode="&#x178;" horiz-adv-x="640" 
d="M303 0v326l-283 404h41l259 -371l259 371h41l-284 -406v-324h-33zM228 857q-13 0 -23 10t-10 23q0 14 10 23.5t23 9.5t22.5 -10t9.5 -23t-9.5 -23t-22.5 -10zM413 857q-13 0 -23 10t-10 23q0 14 10 23.5t23 9.5t22.5 -10t9.5 -23t-9.5 -23t-22.5 -10z" />
    <glyph glyph-name="Zacute" unicode="&#x179;" horiz-adv-x="641" 
d="M50 0v33l489 664h-479v33h521v-33l-490 -664h500v-33h-541zM301 816l65 148h35l-70 -148h-30z" />
    <glyph glyph-name="zacute" unicode="&#x17a;" horiz-adv-x="583" 
d="M60 0v33l405 484h-405v33h449v-33l-406 -484h420v-33h-463zM242 646l65 148h35l-70 -148h-30z" />
    <glyph glyph-name="Zdotaccent" unicode="&#x17b;" horiz-adv-x="641" 
d="M50 0v33l489 664h-479v33h521v-33l-490 -664h500v-33h-541zM314 857q-13 0 -23 10t-10 23q0 14 10 23.5t23 9.5t22.5 -10t9.5 -23t-9.5 -23t-22.5 -10z" />
    <glyph glyph-name="zdotaccent" unicode="&#x17c;" horiz-adv-x="583" 
d="M60 0v33l405 484h-405v33h449v-33l-406 -484h420v-33h-463zM292 687q-13 0 -23 10t-10 23q0 14 10 23.5t23 9.5t22.5 -10t9.5 -23t-9.5 -23t-22.5 -10z" />
    <glyph glyph-name="Zcaron" unicode="&#x17d;" horiz-adv-x="641" 
d="M50 0v33l489 664h-479v33h521v-33l-490 -664h500v-33h-541zM289 830l-108 120h44l86 -96l86 96h44l-108 -120h-44z" />
    <glyph glyph-name="zcaron" unicode="&#x17e;" horiz-adv-x="583" 
d="M60 0v33l405 484h-405v33h449v-33l-406 -484h420v-33h-463zM270 660l-108 120h44l86 -96l86 96h44l-108 -120h-44z" />
    <glyph glyph-name="longs" unicode="&#x17f;" horiz-adv-x="326" 
d="M123 -1l-33 1v580q0 77 20 124t55 67t83 20q20 0 48 -7l-10 -31q-2 1 -4.5 1t-5.5 1q-7 1 -14.5 2t-13.5 1q-60 0 -92.5 -39t-32.5 -139v-581z" />
    <glyph glyph-name="uni018F" unicode="&#x18f;" horiz-adv-x="820" 
d="M410 -10q-100 0 -180 49.5t-125 135t-45 190.5v8.5v8.5h667q-3 97 -46 171t-118 114.5t-173 40.5q-74 0 -147.5 -28.5t-116.5 -76.5l-26 20q49 54 128.5 85.5t161.5 31.5q110 0 194 -47.5t130 -132.5t46 -195q0 -105 -45 -190.5t-125 -135t-180 -49.5zM410 22
q88 0 159 42.5t113 117.5t45 167h-634q3 -92 45 -167t113 -117.5t159 -42.5z" />
    <glyph glyph-name="florin" unicode="&#x192;" horiz-adv-x="399" 
d="M58 -10q-20 0 -48 7l10 31q22 -5 38 -5q60 0 92.5 39t32.5 139v317h-49v33h49v29q0 77 20 124t55 67t83 20q20 0 48 -7l-10 -31q-2 1 -4.5 1t-5.5 1q-7 1 -14.5 2t-13.5 1q-60 0 -92.5 -39t-32.5 -139v-29h161v-33h-161v-317q0 -77 -20 -124t-55 -67t-83 -20z" />
    <glyph glyph-name="uni019D" unicode="&#x19d;" horiz-adv-x="800" 
d="M8 -81q45 0 68.5 36t23.5 107v668h33l534 -676v676h33v-730h-33l-534 678v-627q-1 -56 -16 -94t-42.5 -56.5t-66.5 -18.5v37z" />
    <glyph glyph-name="Ohorn" unicode="&#x1a0;" horiz-adv-x="863" 
d="M432 -8q-101 0 -186.5 50t-135.5 136t-50 187q0 100 50 185.5t135.5 135.5t186.5 50q75 0 142.5 -28t118.5 -79q18 2 32.5 15t14.5 31v87h33v-88q0 -26 -16 -44.5t-41 -25.5q41 -50 64 -111t23 -128q0 -101 -50 -187t-135 -136t-186 -50zM432 25q92 0 169.5 45.5
t123 123.5t45.5 172q0 92 -45.5 169.5t-123 122.5t-169.5 45t-170 -45t-123.5 -122.5t-45.5 -169.5q0 -94 45.5 -172t123.5 -123.5t170 -45.5z" />
    <glyph glyph-name="ohorn" unicode="&#x1a1;" horiz-adv-x="661" 
d="M331 -5q-77 0 -141.5 38t-102 102.5t-37.5 140.5t37.5 140.5t102 102t141.5 37.5q57 0 108 -21.5t90 -60.5q17 4 29.5 16.5t12.5 28.5v87h33v-88q0 -25 -15 -43t-38 -26q29 -36 44.5 -80.5t15.5 -92.5q0 -76 -38 -140.5t-102 -102.5t-140 -38zM331 28q66 0 123 33.5
t90.5 90.5t33.5 124t-33.5 123.5t-90.5 90t-123 33.5q-67 0 -124 -33.5t-90.5 -90t-33.5 -123.5t33.5 -124t90.5 -90.5t124 -33.5z" />
    <glyph glyph-name="Uhorn" unicode="&#x1af;" horiz-adv-x="730" 
d="M366 -6q-78 0 -140.5 34t-99 98.5t-36.5 152.5v451h33v-450q0 -82 31.5 -139t85 -85.5t121.5 -28.5q69 0 124.5 28.5t88.5 85.5t33 139v450h20q18 0 25.5 10t7.5 27v62h33v-63q0 -30 -13 -47.5t-40 -20.5v-419q0 -88 -36.5 -152.5t-99 -98.5t-138.5 -34z" />
    <glyph glyph-name="uhorn" unicode="&#x1b0;" 
d="M311 -5q-67 0 -120.5 31.5t-84.5 94t-31 151.5v278h33v-278q0 -81 27 -135.5t72.5 -81.5t103.5 -27t103.5 27t72.5 81.5t27 135.5v278h31q26 6 26 32v87h33v-88q0 -25 -15.5 -39t-41.5 -18v-524h-33v123q-24 -56 -76.5 -92t-126.5 -36z" />
    <glyph glyph-name="uni01CD" unicode="&#x1cd;" horiz-adv-x="680" 
d="M30 0l291 730h38l291 -730h-35l-101 252h-348l-100 -252h-36zM180 285h321l-161 402zM319 830l-108 120h44l86 -96l86 96h44l-108 -120h-44z" />
    <glyph glyph-name="uni01CE" unicode="&#x1ce;" horiz-adv-x="701" 
d="M330 -6q-76 0 -140 37.5t-102 102t-38 140.5t38 140.5t102 102.5t140 38q82 0 151.5 -45t96.5 -113v153h33v-550h-33v149q-27 -66 -96.5 -110.5t-151.5 -44.5zM330 27q67 0 124 33.5t90.5 90t33.5 123.5t-33.5 124t-90.5 90.5t-124 33.5q-66 0 -123 -33.5t-90.5 -90.5
t-33.5 -124t33.5 -123.5t90.5 -90t123 -33.5zM309 660l-108 120h44l86 -96l86 96h44l-108 -120h-44z" />
    <glyph glyph-name="uni01CF" unicode="&#x1cf;" horiz-adv-x="233" 
d="M100 0v730h33v-730h-33zM94 830l-108 120h44l86 -96l86 96h44l-108 -120h-44z" />
    <glyph glyph-name="uni01D0" unicode="&#x1d0;" horiz-adv-x="213" 
d="M90 0v550h33v-550h-33zM85 660l-108 120h44l86 -96l86 96h44l-108 -120h-44z" />
    <glyph glyph-name="uni01D1" unicode="&#x1d1;" horiz-adv-x="863" 
d="M432 -8q-101 0 -186.5 50t-135.5 136t-50 187q0 100 50 185.5t135.5 135.5t186.5 50t186 -50t135 -135.5t50 -185.5q0 -101 -50 -187t-135 -136t-186 -50zM432 25q92 0 169.5 45.5t123 123.5t45.5 172q0 92 -45.5 169.5t-123 122.5t-169.5 45t-170 -45t-123.5 -122.5
t-45.5 -169.5q0 -94 45.5 -172t123.5 -123.5t170 -45.5zM397 830l-108 120h44l86 -96l86 96h44l-108 -120h-44z" />
    <glyph glyph-name="uni01D2" unicode="&#x1d2;" horiz-adv-x="661" 
d="M331 -5q-77 0 -141.5 38t-102 102.5t-37.5 140.5t37.5 140.5t102 102t141.5 37.5q76 0 140 -37.5t102 -102t38 -140.5t-38 -140.5t-102 -102.5t-140 -38zM331 28q66 0 123 33.5t90.5 90.5t33.5 124t-33.5 123.5t-90.5 90t-123 33.5q-67 0 -124 -33.5t-90.5 -90
t-33.5 -123.5t33.5 -124t90.5 -90.5t124 -33.5zM309 660l-108 120h44l86 -96l86 96h44l-108 -120h-44z" />
    <glyph glyph-name="uni01D3" unicode="&#x1d3;" horiz-adv-x="730" 
d="M366 -6q-78 0 -140.5 34t-99 98.5t-36.5 152.5v451h33v-450q0 -82 31.5 -139t85 -85.5t121.5 -28.5q69 0 124.5 28.5t88.5 85.5t33 139v450h33v-451q0 -88 -36.5 -152.5t-99 -98.5t-138.5 -34zM343 830l-108 120h44l86 -96l86 96h44l-108 -120h-44z" />
    <glyph glyph-name="uni01D4" unicode="&#x1d4;" 
d="M311 -5q-67 0 -120.5 31.5t-84.5 94t-31 151.5v278h33v-278q0 -81 27 -135.5t72.5 -81.5t103.5 -27t103.5 27t72.5 81.5t27 135.5v278h33v-550h-33v123q-24 -56 -76.5 -92t-126.5 -36zM289 660l-108 120h44l86 -96l86 96h44l-108 -120h-44z" />
    <glyph glyph-name="uni01D5" unicode="&#x1d5;" horiz-adv-x="730" 
d="M366 -6q-78 0 -140.5 34t-99 98.5t-36.5 152.5v451h33v-450q0 -82 31.5 -139t85 -85.5t121.5 -28.5q69 0 124.5 28.5t88.5 85.5t33 139v450h33v-451q0 -88 -36.5 -152.5t-99 -98.5t-138.5 -34zM270 835q-13 0 -23 10t-10 23q0 14 10 23.5t23 9.5t22.5 -10t9.5 -23
t-9.5 -23t-22.5 -10zM455 835q-13 0 -23 10t-10 23q0 14 10 23.5t23 9.5t22.5 -10t9.5 -23t-9.5 -23t-22.5 -10zM190 981v33h350v-33h-350z" />
    <glyph glyph-name="uni01D6" unicode="&#x1d6;" 
d="M311 -5q-67 0 -120.5 31.5t-84.5 94t-31 151.5v278h33v-278q0 -81 27 -135.5t72.5 -81.5t103.5 -27t103.5 27t72.5 81.5t27 135.5v278h33v-550h-33v123q-24 -56 -76.5 -92t-126.5 -36zM216 671q-13 0 -23 10t-10 23q0 14 10 23.5t23 9.5t22.5 -10t9.5 -23t-9.5 -23
t-22.5 -10zM401 671q-13 0 -23 10t-10 23q0 14 10 23.5t23 9.5t22.5 -10t9.5 -23t-9.5 -23t-22.5 -10zM136 817v33h350v-33h-350z" />
    <glyph glyph-name="uni01D7" unicode="&#x1d7;" horiz-adv-x="730" 
d="M366 -6q-78 0 -140.5 34t-99 98.5t-36.5 152.5v451h33v-450q0 -82 31.5 -139t85 -85.5t121.5 -28.5q69 0 124.5 28.5t88.5 85.5t33 139v450h33v-451q0 -88 -36.5 -152.5t-99 -98.5t-138.5 -34zM273 790q-13 0 -23 10t-10 23q0 14 10 23.5t23 9.5t22.5 -10t9.5 -23
t-9.5 -23t-22.5 -10zM458 790q-13 0 -23 10t-10 23q0 14 10 23.5t23 9.5t22.5 -10t9.5 -23t-9.5 -23t-22.5 -10zM354 911l65 148h35l-70 -148h-30z" />
    <glyph glyph-name="uni01D8" unicode="&#x1d8;" 
d="M311 -5q-67 0 -120.5 31.5t-84.5 94t-31 151.5v278h33v-278q0 -81 27 -135.5t72.5 -81.5t103.5 -27t103.5 27t72.5 81.5t27 135.5v278h33v-550h-33v123q-24 -56 -76.5 -92t-126.5 -36zM219 626q-13 0 -23 10t-10 23q0 14 10 23.5t23 9.5t22.5 -10t9.5 -23t-9.5 -23
t-22.5 -10zM404 626q-13 0 -23 10t-10 23q0 14 10 23.5t23 9.5t22.5 -10t9.5 -23t-9.5 -23t-22.5 -10zM300 747l65 148h35l-70 -148h-30z" />
    <glyph glyph-name="uni01D9" unicode="&#x1d9;" horiz-adv-x="730" 
d="M366 -6q-78 0 -140.5 34t-99 98.5t-36.5 152.5v451h33v-450q0 -82 31.5 -139t85 -85.5t121.5 -28.5q69 0 124.5 28.5t88.5 85.5t33 139v450h33v-451q0 -88 -36.5 -152.5t-99 -98.5t-138.5 -34zM267 809q-13 0 -23 10t-10 23q0 14 10 23.5t23 9.5t22.5 -10t9.5 -23
t-9.5 -23t-22.5 -10zM452 809q-13 0 -23 10t-10 23q0 14 10 23.5t23 9.5t22.5 -10t9.5 -23t-9.5 -23t-22.5 -10zM332 922l-108 120h44l86 -96l86 96h44l-108 -120h-44z" />
    <glyph glyph-name="uni01DA" unicode="&#x1da;" 
d="M311 -5q-67 0 -120.5 31.5t-84.5 94t-31 151.5v278h33v-278q0 -81 27 -135.5t72.5 -81.5t103.5 -27t103.5 27t72.5 81.5t27 135.5v278h33v-550h-33v123q-24 -56 -76.5 -92t-126.5 -36zM224 644q-13 0 -23 10t-10 23q0 14 10 23.5t23 9.5t22.5 -10t9.5 -23t-9.5 -23
t-22.5 -10zM409 644q-13 0 -23 10t-10 23q0 14 10 23.5t23 9.5t22.5 -10t9.5 -23t-9.5 -23t-22.5 -10zM289 757l-108 120h44l86 -96l86 96h44l-108 -120h-44z" />
    <glyph glyph-name="uni01DB" unicode="&#x1db;" horiz-adv-x="730" 
d="M366 -6q-78 0 -140.5 34t-99 98.5t-36.5 152.5v451h33v-450q0 -82 31.5 -139t85 -85.5t121.5 -28.5q69 0 124.5 28.5t88.5 85.5t33 139v450h33v-451q0 -88 -36.5 -152.5t-99 -98.5t-138.5 -34zM261 790q-13 0 -23 10t-10 23q0 14 10 23.5t23 9.5t22.5 -10t9.5 -23
t-9.5 -23t-22.5 -10zM446 790q-13 0 -23 10t-10 23q0 14 10 23.5t23 9.5t22.5 -10t9.5 -23t-9.5 -23t-22.5 -10zM342 911l-70 148h35l65 -148h-30z" />
    <glyph glyph-name="uni01DC" unicode="&#x1dc;" 
d="M311 -5q-67 0 -120.5 31.5t-84.5 94t-31 151.5v278h33v-278q0 -81 27 -135.5t72.5 -81.5t103.5 -27t103.5 27t72.5 81.5t27 135.5v278h33v-550h-33v123q-24 -56 -76.5 -92t-126.5 -36zM219 626q-13 0 -23 10t-10 23q0 14 10 23.5t23 9.5t22.5 -10t9.5 -23t-9.5 -23
t-22.5 -10zM404 626q-13 0 -23 10t-10 23q0 14 10 23.5t23 9.5t22.5 -10t9.5 -23t-9.5 -23t-22.5 -10zM300 747l-70 148h35l65 -148h-30z" />
    <glyph glyph-name="uni01DE" unicode="&#x1de;" horiz-adv-x="680" 
d="M30 0l291 730h38l291 -730h-35l-101 252h-348l-100 -252h-36zM180 285h321l-161 402zM244 836q-13 0 -23 10t-10 23q0 14 10 23.5t23 9.5t22.5 -10t9.5 -23t-9.5 -23t-22.5 -10zM429 836q-13 0 -23 10t-10 23q0 14 10 23.5t23 9.5t22.5 -10t9.5 -23t-9.5 -23t-22.5 -10z
M164 982v33h350v-33h-350z" />
    <glyph glyph-name="uni01DF" unicode="&#x1df;" horiz-adv-x="701" 
d="M330 -6q-76 0 -140 37.5t-102 102t-38 140.5t38 140.5t102 102.5t140 38q82 0 151.5 -45t96.5 -113v153h33v-550h-33v149q-27 -66 -96.5 -110.5t-151.5 -44.5zM330 27q67 0 124 33.5t90.5 90t33.5 123.5t-33.5 124t-90.5 90.5t-124 33.5q-66 0 -123 -33.5t-90.5 -90.5
t-33.5 -124t33.5 -123.5t90.5 -90t123 -33.5zM249 671q-13 0 -23 10t-10 23q0 14 10 23.5t23 9.5t22.5 -10t9.5 -23t-9.5 -23t-22.5 -10zM434 671q-13 0 -23 10t-10 23q0 14 10 23.5t23 9.5t22.5 -10t9.5 -23t-9.5 -23t-22.5 -10zM169 817v33h350v-33h-350z" />
    <glyph glyph-name="uni01E2" unicode="&#x1e2;" horiz-adv-x="951" 
d="M465 -1v273h-287l-109 -272h-39l296 730h575v-34h-403v-300h383v-34h-383v-330h403v-33h-436zM191 305h274v391h-117zM291 874v33h350v-33h-350z" />
    <glyph glyph-name="uni01E3" unicode="&#x1e3;" horiz-adv-x="1060" 
d="M261 -10q-59 0 -107 21t-76 60t-28 90t27 89t78 58.5t122 20.5h215q0 90 -54 143.5t-147 53.5q-59 0 -111 -19.5t-85 -53.5l-25 22q38 39 96.5 61.5t127.5 22.5q84 0 145 -44.5t80 -118.5q33 76 102.5 119.5t151.5 43.5q64 0 119.5 -30t89 -84t33.5 -122v-14t-1 -14h-487
q0 -84 31.5 -145.5t86 -94t122.5 -32.5q59 0 111 27.5t87 76.5l28 -18q-40 -56 -99 -87.5t-126 -31.5q-91 0 -160 50t-97 132q-24 -87 -91 -134.5t-159 -47.5zM262 23q75 0 127 33t77.5 88t25.5 121v31h-221q-86 0 -137 -36.5t-51 -97.5q0 -62 50.5 -100.5t128.5 -38.5z
M982 328q-1 57 -30.5 102.5t-77 70.5t-101.5 25q-64 0 -116.5 -28.5t-85.5 -74.5t-41 -95h452zM358 704v33h350v-33h-350z" />
    <glyph glyph-name="Gcaron" unicode="&#x1e6;" horiz-adv-x="853" 
d="M432 -8q-101 0 -186.5 50t-135.5 136t-50 187q0 100 50 185.5t135.5 135.5t186.5 50q88 0 165 -39t129 -106l-27 -18q-47 60 -117 95t-150 35q-92 0 -170 -45t-123.5 -122.5t-45.5 -169.5q0 -94 45.5 -172t123.5 -123.5t170 -45.5q96 0 170 42.5t115.5 119t42.5 174.5
h-345v33h377q1 -9 1 -29q0 -107 -45.5 -192t-127.5 -133t-188 -48zM392 830l-108 120h44l86 -96l86 96h44l-108 -120h-44z" />
    <glyph glyph-name="gcaron" unicode="&#x1e7;" horiz-adv-x="701" 
d="M320 -224q-70 0 -130.5 29t-99.5 79l26 20q34 -44 88.5 -69.5t115.5 -25.5q74 0 132 29t92 90.5t34 156.5v64q-27 -66 -96.5 -110.5t-151.5 -44.5q-76 0 -140 37.5t-102 102t-38 140.5t38 140.5t102 102.5t140 38q82 0 151.5 -45t96.5 -113v153h33v-465
q0 -103 -38.5 -172.5t-104 -103t-148.5 -33.5zM330 27q67 0 124 33.5t90.5 90t33.5 123.5t-33.5 124t-90.5 90.5t-124 33.5q-66 0 -123 -33.5t-90.5 -90.5t-33.5 -124t33.5 -123.5t90.5 -90t123 -33.5zM301 660l-108 120h44l86 -96l86 96h44l-108 -120h-44z" />
    <glyph glyph-name="uni01EA" unicode="&#x1ea;" horiz-adv-x="863" 
d="M545 -187q-32 0 -54.5 24.5t-22.5 60.5q0 26 11 50.5t29 51.5q-40 -8 -76 -8q-101 0 -186.5 50t-135.5 136t-50 187q0 100 50 185.5t135.5 135.5t186.5 50t186 -50t135 -135.5t50 -185.5q0 -80 -31 -150.5t-87 -122.5t-127 -78l-2 -3q-30 -42 -42.5 -65t-12.5 -47
q0 -22 12.5 -37.5t31.5 -15.5q35 0 57 32l19 -26q-14 -20 -32.5 -29.5t-43.5 -9.5zM432 25q92 0 169.5 45.5t123 123.5t45.5 172q0 92 -45.5 169.5t-123 122.5t-169.5 45t-170 -45t-123.5 -122.5t-45.5 -169.5q0 -94 45.5 -172t123.5 -123.5t170 -45.5z" />
    <glyph glyph-name="uni01EB" unicode="&#x1eb;" horiz-adv-x="661" 
d="M394 -193q-32 0 -54.5 24.5t-22.5 60.5q0 27 11.5 52.5t30.5 51.5q-7 -1 -14 -1h-14q-77 0 -141.5 38t-102 102.5t-37.5 140.5t37.5 140.5t102 102t141.5 37.5q76 0 140 -37.5t102 -102t38 -140.5q0 -63 -26.5 -119t-73.5 -96t-106 -56l-2 -3q-29 -41 -41 -63.5
t-12 -45.5q0 -22 12.5 -37.5t31.5 -15.5q35 0 57 32l19 -26q-14 -20 -32.5 -29.5t-43.5 -9.5zM331 28q66 0 123 33.5t90.5 90.5t33.5 124t-33.5 123.5t-90.5 90t-123 33.5q-67 0 -124 -33.5t-90.5 -90t-33.5 -123.5t33.5 -124t90.5 -90.5t124 -33.5z" />
    <glyph glyph-name="Aringacute" unicode="&#x1fa;" horiz-adv-x="680" 
d="M30 0l291 730h38l291 -730h-35l-101 252h-348l-100 -252h-36zM180 285h321l-161 402zM340 740q-44 0 -75.5 31t-31.5 75t31.5 75.5t75.5 31.5t75.5 -31.5t31.5 -75.5t-31.5 -75t-75.5 -31zM340 772q31 0 52 21t21 53t-21 53.5t-52 21.5t-52 -21.5t-21 -53.5t21 -53
t52 -21zM352 963l65 148h35l-70 -148h-30z" />
    <glyph glyph-name="aringacute" unicode="&#x1fb;" horiz-adv-x="701" 
d="M330 -6q-76 0 -140 37.5t-102 102t-38 140.5t38 140.5t102.5 102.5t139.5 38q82 0 151.5 -45t96.5 -113v153h33v-550h-33v149q-27 -66 -96.5 -110.5t-151.5 -44.5zM330 27q67 0 124 33.5t90.5 90t33.5 123.5t-33.5 124t-90.5 90.5t-124 33.5q-66 0 -123 -33.5
t-90.5 -90.5t-33.5 -124t33.5 -123.5t90.5 -90t123 -33.5zM333 605q-44 0 -75.5 31t-31.5 75t31.5 75.5t75.5 31.5q29 0 53.5 -14.5t39 -39t14.5 -53.5t-14.5 -53t-39 -38.5t-53.5 -14.5zM333 637q31 0 52 21t21 53t-21 53.5t-52 21.5t-52 -21.5t-21 -53.5t21 -53t52 -21z
M345 828l65 148h35l-70 -148h-30z" />
    <glyph glyph-name="AEacute" unicode="&#x1fc;" horiz-adv-x="951" 
d="M465 -1v273h-287l-109 -272h-39l296 730h575v-34h-403v-300h383v-34h-383v-330h403v-33h-436zM191 305h274v391h-117zM441 816l65 148h35l-70 -148h-30z" />
    <glyph glyph-name="aeacute" unicode="&#x1fd;" horiz-adv-x="1060" 
d="M261 -10q-59 0 -107 21t-76 60t-28 90t27 89t78 58.5t122 20.5h215q0 90 -54 143.5t-147 53.5q-59 0 -111 -19.5t-85 -53.5l-25 22q38 39 96.5 61.5t127.5 22.5q84 0 145 -44.5t80 -118.5q33 76 102.5 119.5t151.5 43.5q64 0 119.5 -30t89 -84t33.5 -122v-14t-1 -14h-487
q0 -84 31.5 -145.5t86 -94t122.5 -32.5q59 0 111 27.5t87 76.5l28 -18q-40 -56 -99 -87.5t-126 -31.5q-91 0 -160 50t-97 132q-24 -87 -91 -134.5t-159 -47.5zM262 23q75 0 127 33t77.5 88t25.5 121v31h-221q-86 0 -137 -36.5t-51 -97.5q0 -62 50.5 -100.5t128.5 -38.5z
M982 328q-1 57 -30.5 102.5t-77 70.5t-101.5 25q-64 0 -116.5 -28.5t-85.5 -74.5t-41 -95h452zM480 646l65 148h35l-70 -148h-30z" />
    <glyph glyph-name="Oslashacute" unicode="&#x1fe;" horiz-adv-x="863" 
d="M432 -7q-72 0 -136.5 25.5t-114.5 72.5l-74 -74l-24 23l74 74q-46 51 -71.5 116t-25.5 136q0 100 50 185.5t135.5 135.5t186.5 50q72 0 136.5 -25.5t114.5 -72.5l74 74l23 -23l-74 -74q46 -51 71.5 -115t25.5 -135q0 -101 -50 -187t-135 -136t-186 -50zM432 26
q92 0 169.5 45.5t123 123.5t45.5 172q0 64 -23 122t-64 104l-479 -479q46 -42 104.5 -65t123.5 -23zM660 616q-46 42 -104.5 65t-123.5 23q-93 0 -170.5 -45t-123 -122.5t-45.5 -169.5q0 -66 23 -125t64 -105zM377 816l65 148h35l-70 -148h-30z" />
    <glyph glyph-name="oslashacute" unicode="&#x1ff;" horiz-adv-x="669" 
d="M334 0q-54 0 -102.5 18.5t-86.5 52.5l-61 -61l-23 23l61 61q-34 39 -53 88t-19 103q0 77 37.5 142t103 103.5t143.5 38.5q54 0 103 -19t88 -54l62 62l21 -23l-61 -61q34 -39 53 -87.5t19 -101.5q0 -77 -38.5 -142.5t-104 -104t-142.5 -38.5zM332 33q69 0 127.5 34
t92.5 92t34 127q0 46 -16.5 88t-46.5 76l-355 -356q33 -29 75 -45t89 -16zM332 536q-69 0 -126 -33.5t-90 -91t-33 -125.5q0 -48 16 -91.5t46 -77.5l356 355q-34 31 -77.5 47.5t-91.5 16.5zM305 646l65 148h35l-70 -148h-30z" />
    <glyph glyph-name="uni0218" unicode="&#x218;" horiz-adv-x="610" 
d="M312 -6q-71 1 -135 26.5t-122 83.5l23 23q47 -47 105 -73t131 -27q91 -1 149.5 43t58.5 120q0 55 -30 90t-74.5 54t-118.5 42q-75 22 -121.5 42.5t-78 57.5t-31.5 96q0 46 26.5 84t78.5 60.5t124 22.5q63 0 129.5 -28t108.5 -88l-26 -20q-32 46 -89 74t-119 29
q-60 0 -105.5 -17t-70 -47.5t-24.5 -69.5q0 -48 27.5 -78t68 -47.5t112.5 -39.5q81 -24 129.5 -46t82.5 -63t34 -108q0 -62 -32 -106.5t-87.5 -67.5t-123.5 -22zM279 -185l18 140h35l-21 -140h-32z" />
    <glyph glyph-name="uni0219" unicode="&#x219;" horiz-adv-x="560" 
d="M291 -5q-63 0 -128 23t-108 75l25 22q29 -38 87 -62.5t125 -24.5q79 0 129.5 34t50.5 91q0 39 -25.5 62.5t-63 35.5t-101.5 25q-70 15 -109.5 28t-68 40.5t-28.5 73.5q0 39 24.5 70t69.5 49t105 18q55 0 110 -21.5t100 -68.5l-24 -23q-37 40 -85 60t-100 20
q-72 0 -119.5 -27.5t-47.5 -77.5q0 -33 23.5 -53.5t58 -31.5t95.5 -24q71 -16 114.5 -30.5t74 -45t30.5 -80.5q0 -52 -30.5 -87.5t-79.5 -52.5t-104 -17zM254 -185l18 140h35l-21 -140h-32z" />
    <glyph glyph-name="uni021A" unicode="&#x21a;" horiz-adv-x="594" 
d="M281 0v697h-251v33h534v-33h-250v-697h-33zM271 -185l18 140h35l-21 -140h-32z" />
    <glyph glyph-name="uni021B" unicode="&#x21b;" horiz-adv-x="351" 
d="M254 -7q-66 0 -107 46.5t-41 126.5v351h-76v33h76v180h33v-180h141v-33h-141v-349q0 -67 31.5 -104.5t83.5 -37.5q26 0 47 9l10 -31q-27 -11 -57 -11zM144 -185l18 140h35l-21 -140h-32z" />
    <glyph glyph-name="uni0228" unicode="&#x228;" horiz-adv-x="606" 
d="M291 -220q-24 0 -48.5 8t-38.5 20l16 28q8 -8 29.5 -15.5t42.5 -7.5q29 0 46 14t17 36q0 24 -19.5 38t-58.5 14h-35l28 85h-170v730h436v-33h-403v-305h383v-33h-383v-326h413v-33h-241l-17 -52q48 -3 74 -26t26 -58q0 -23 -11.5 -42.5t-33.5 -30.5t-52 -11z" />
    <glyph glyph-name="uni0229" unicode="&#x229;" horiz-adv-x="651" 
d="M321 -220q-24 0 -48.5 8t-38.5 20l16 28q8 -8 29.5 -15.5t42.5 -7.5q29 0 46 14t17 36q0 24 -19.5 38t-58.5 14h-35l27 82q-70 9 -127 48.5t-89.5 100t-32.5 130.5q0 76 37 140.5t100.5 102t138.5 37.5q79 0 141.5 -37.5t98 -101.5t35.5 -141q0 -11 -2 -31h-514
q8 -60 43.5 -110t90.5 -78.5t118 -28.5q61 0 115 27.5t88 74.5l29 -17q-40 -56 -102 -87t-134 -31l-15 -47q48 -3 74 -26t26 -58q0 -23 -11.5 -42.5t-33.5 -30.5t-52 -11zM568 278q0 67 -31.5 123t-86.5 89t-124 33q-65 0 -121 -33t-89 -89.5t-33 -122.5h485z" />
    <glyph glyph-name="uni022A" unicode="&#x22a;" horiz-adv-x="863" 
d="M432 -8q-101 0 -186.5 50t-135.5 136t-50 187q0 100 50 185.5t135.5 135.5t186.5 50t186 -50t135 -135.5t50 -185.5q0 -101 -50 -187t-135 -136t-186 -50zM432 25q92 0 169.5 45.5t123 123.5t45.5 172q0 92 -45.5 169.5t-123 122.5t-169.5 45t-170 -45t-123.5 -122.5
t-45.5 -169.5q0 -94 45.5 -172t123.5 -123.5t170 -45.5zM321 836q-13 0 -23 10t-10 23q0 14 10 23.5t23 9.5t22.5 -10t9.5 -23t-9.5 -23t-22.5 -10zM506 836q-13 0 -23 10t-10 23q0 14 10 23.5t23 9.5t22.5 -10t9.5 -23t-9.5 -23t-22.5 -10zM241 982v33h350v-33h-350z" />
    <glyph glyph-name="uni022B" unicode="&#x22b;" horiz-adv-x="661" 
d="M331 -5q-77 0 -141.5 38t-102 102.5t-37.5 140.5t37.5 140.5t102 102t141.5 37.5q76 0 140 -37.5t102 -102t38 -140.5t-38 -140.5t-102 -102.5t-140 -38zM331 28q66 0 123 33.5t90.5 90.5t33.5 124t-33.5 123.5t-90.5 90t-123 33.5q-67 0 -124 -33.5t-90.5 -90
t-33.5 -123.5t33.5 -124t90.5 -90.5t124 -33.5zM236 671q-13 0 -23 10t-10 23q0 14 10 23.5t23 9.5t22.5 -10t9.5 -23t-9.5 -23t-22.5 -10zM421 671q-13 0 -23 10t-10 23q0 14 10 23.5t23 9.5t22.5 -10t9.5 -23t-9.5 -23t-22.5 -10zM156 817v33h350v-33h-350z" />
    <glyph glyph-name="uni0232" unicode="&#x232;" horiz-adv-x="640" 
d="M303 0v326l-283 404h41l259 -371l259 371h41l-284 -406v-324h-33zM132 874v33h350v-33h-350z" />
    <glyph glyph-name="uni0233" unicode="&#x233;" horiz-adv-x="560" 
d="M111 -220q-26 0 -46.5 5t-44.5 16l13 31q18 -9 37.5 -14t40.5 -5q36 0 63 23t46 58t48 100q0 2 0.5 3.5t1.5 2.5l-234 550h36l216 -508l216 508h36l-234 -550q-37 -84 -62 -128t-56.5 -68t-76.5 -24zM105 704v33h350v-33h-350z" />
    <glyph glyph-name="uni0237" unicode="&#x237;" horiz-adv-x="222" 
d="M-13 -228q-30 0 -57 11l11 31q21 -9 46 -9q59 0 90.5 40.5t31.5 121.5v583h33v-583q0 -96 -42 -145.5t-113 -49.5z" />
    <glyph glyph-name="uni0259" unicode="&#x259;" horiz-adv-x="651" 
d="M325 -5q-79 0 -141.5 37.5t-98 101.5t-35.5 141q0 11 2 31h514q-8 60 -43.5 110t-90.5 78.5t-118 28.5q-61 0 -115 -27.5t-88 -74.5l-29 17q39 54 100 86t132 32q78 0 144 -38t104.5 -102.5t38.5 -140.5t-37 -140.5t-100.5 -102t-138.5 -37.5zM325 28q65 0 121 33
t89 89.5t33 122.5h-485q0 -67 31.5 -123t86.5 -89t124 -33z" />
    <glyph glyph-name="uni0272" unicode="&#x272;" horiz-adv-x="639" 
d="M0 -81q45 0 68.5 36t23.5 107v488h33v-123q24 56 76.5 92t126.5 36q67 0 120.5 -31.5t84.5 -94t31 -151.5v-278h-33v278q0 81 -27 135.5t-72.5 81.5t-103.5 27t-103.5 -27t-72.5 -81.5t-27 -135.5v-216q0 -89 -32.5 -134.5t-92.5 -45.5v37z" />
    <glyph glyph-name="circumflex" unicode="&#x2c6;" horiz-adv-x="300" 
d="M20 610l108 120h44l108 -120h-44l-86 96l-86 -96h-44z" />
    <glyph glyph-name="caron" unicode="&#x2c7;" horiz-adv-x="300" 
d="M128 610l-108 120h44l86 -96l86 96h44l-108 -120h-44z" />
    <glyph glyph-name="breve" unicode="&#x2d8;" horiz-adv-x="352" 
d="M177 632q-41 0 -76 20t-56.5 53.5t-24.5 74.5h33q4 -48 39.5 -81.5t84.5 -33.5q48 0 83 33.5t39 81.5h33q-3 -41 -24.5 -74.5t-56 -53.5t-74.5 -20z" />
    <glyph glyph-name="dotaccent" unicode="&#x2d9;" horiz-adv-x="105" 
d="M53 612q-13 0 -23 10t-10 23q0 14 10 23.5t23 9.5t22.5 -10t9.5 -23t-9.5 -23t-22.5 -10z" />
    <glyph glyph-name="ring" unicode="&#x2da;" horiz-adv-x="254" 
d="M127 567q-44 0 -75.5 31t-31.5 75t31.5 75.5t75.5 31.5t75.5 -31.5t31.5 -75.5t-31.5 -75t-75.5 -31zM127 599q31 0 52 21t21 53t-21 53.5t-52 21.5t-52 -21.5t-21 -53.5t21 -53t52 -21z" />
    <glyph glyph-name="ogonek" unicode="&#x2db;" horiz-adv-x="193" 
d="M97 -218q-32 0 -54.5 24.5t-22.5 60.5q0 31 13 56.5t38 61.5q3 4 6 7.5t5 7.5h40q-4 -6 -8 -11.5t-8 -10.5q-29 -41 -41 -63.5t-12 -46.5q0 -22 12.5 -37.5t31.5 -15.5q35 0 57 32l19 -26q-14 -20 -32.5 -29.5t-43.5 -9.5z" />
    <glyph glyph-name="tilde" unicode="&#x2dc;" horiz-adv-x="320" 
d="M234 628q-25 -3 -44 9t-42 35q-18 18 -30 26.5t-25 7.5q-18 -1 -29 -19.5t-11 -50.5h-33q0 46 20.5 73.5t50.5 29.5q24 2 40.5 -9t39.5 -34q17 -18 30.5 -27.5t29.5 -8.5t26 18.5t10 51.5h33q0 -47 -18.5 -73.5t-47.5 -28.5z" />
    <glyph glyph-name="hungarumlaut" unicode="&#x2dd;" horiz-adv-x="429" 
d="M234 588l95 192h40l-100 -192h-35zM60 588l95 192h40l-100 -192h-35z" />
    <glyph glyph-name="hookabovecomb" unicode="&#x309;" horiz-adv-x="0" 
d="M-171 699q39 0 58.5 14t19.5 38q0 22 -17 36t-46 14q-21 0 -42.5 -7.5t-29.5 -15.5l-16 28q14 12 38.5 20t48.5 8q30 0 52 -11t33.5 -30.5t11.5 -42.5q0 -37 -29 -60.5t-82 -23.5v33z" />
    <glyph glyph-name="uni031B" unicode="&#x31b;" horiz-adv-x="0" 
d="M-149 628q21 0 38.5 13.5t17.5 33.5v87h33v-88q0 -23 -13 -40t-33.5 -26t-42.5 -9v29z" />
    <glyph glyph-name="uni0326" unicode="&#x326;" horiz-adv-x="0" 
d="M-113 -177l18 140h35l-21 -140h-32z" />
    <glyph glyph-name="uni0394" unicode="&#x394;" horiz-adv-x="742" 
d="M30 0v33l325 697h32l325 -697v-33h-682zM66 33h610l-305 653z" />
    <glyph glyph-name="uni03A9" unicode="&#x3a9;" horiz-adv-x="863" 
d="M67 0v33h191q-90 47 -144 136t-54 197q0 100 50 185.5t135.5 135.5t186.5 50t186 -50t135 -135.5t50 -185.5q0 -108 -54.5 -197t-144.5 -136h191v-33h-280v33q73 18 131 66.5t91 118t33 149.5q0 92 -45.5 169.5t-123 122.5t-169.5 45q-93 0 -170.5 -45t-123 -122.5
t-45.5 -169.5q0 -79 33 -148.5t90.5 -118.5t130.5 -67v-33h-280z" />
    <glyph glyph-name="uni03BC" unicode="&#x3bc;" horiz-adv-x="657" 
d="M90 -220v770h33v-282q0 -123 55.5 -186t149.5 -63q58 0 105 27.5t74.5 83.5t27.5 138v282h32v-550h-32v113q-29 -61 -83 -94t-126 -33q-68 0 -120.5 31t-82.5 91v-328h-33z" />
    <glyph glyph-name="uni1E04" unicode="&#x1e04;" horiz-adv-x="657" 
d="M322 -133q-13 0 -23 9.5t-10 23.5q0 13 10 23t23 10t22.5 -10t9.5 -23t-9.5 -23t-22.5 -10zM100 0v730h249q65 0 112 -24.5t71.5 -67t24.5 -93.5q0 -55 -28.5 -95.5t-78.5 -61.5q71 -15 114 -65.5t43 -122.5q0 -57 -27.5 -102.5t-78 -71.5t-116.5 -26h-285zM384 33
q57 0 100 21.5t66.5 59.5t23.5 86q0 47 -23.5 84.5t-64.5 59t-91 21.5h-262v-332h251zM349 398q51 0 90.5 19t62 52t22.5 75q0 65 -45 109t-130 44h-216v-299h216z" />
    <glyph glyph-name="uni1E05" unicode="&#x1e05;" horiz-adv-x="701" 
d="M371 -6q-82 0 -151.5 44.5t-96.5 110.5v-149h-33v780h33v-383q27 68 96.5 113t151.5 45q76 0 140 -38t102 -102.5t38 -140.5t-38 -140.5t-102 -102t-140 -37.5zM371 27q66 0 123 33.5t90.5 90t33.5 123.5t-33.5 124t-90.5 90.5t-123 33.5q-67 0 -124 -33.5t-90.5 -90.5
t-33.5 -124t33.5 -123.5t90.5 -90t124 -33.5zM379 -133q-13 0 -23 9.5t-10 23.5q0 13 10 23t23 10t22.5 -10t9.5 -23t-9.5 -23t-22.5 -10z" />
    <glyph glyph-name="uni1E0C" unicode="&#x1e0c;" horiz-adv-x="750" 
d="M100 0v730h207q110 0 197.5 -49t136.5 -132t49 -183q0 -101 -47 -185t-134 -132.5t-202 -48.5h-207zM307 33q107 0 186.5 45t121.5 121.5t42 168.5q0 88 -44 163.5t-124 120.5t-182 45h-174v-664h174zM321 -133q-13 0 -23 9.5t-10 23.5q0 13 10 23t23 10t22.5 -10
t9.5 -23t-9.5 -23t-22.5 -10z" />
    <glyph glyph-name="uni1E0D" unicode="&#x1e0d;" horiz-adv-x="701" 
d="M330 -6q-76 0 -140 37.5t-102 102t-38 140.5t38 140.5t102 102.5t140 38q82 0 151.5 -45t96.5 -113v383h33v-780h-33v149q-27 -66 -96.5 -110.5t-151.5 -44.5zM330 27q67 0 124 33.5t90.5 90t33.5 123.5t-33.5 124t-90.5 90.5t-124 33.5q-66 0 -123 -33.5t-90.5 -90.5
t-33.5 -124t33.5 -123.5t90.5 -90t123 -33.5zM334 -133q-13 0 -23 9.5t-10 23.5q0 13 10 23t23 10t22.5 -10t9.5 -23t-9.5 -23t-22.5 -10z" />
    <glyph glyph-name="uni1E0E" unicode="&#x1e0e;" horiz-adv-x="750" 
d="M100 0v730h207q110 0 197.5 -49t136.5 -132t49 -183q0 -101 -47 -185t-134 -132.5t-202 -48.5h-207zM307 33q107 0 186.5 45t121.5 121.5t42 168.5q0 88 -44 163.5t-124 120.5t-182 45h-174v-664h174zM110 -117v33h350v-33h-350z" />
    <glyph glyph-name="uni1E0F" unicode="&#x1e0f;" horiz-adv-x="701" 
d="M330 -6q-76 0 -140 37.5t-102 102t-38 140.5t38 140.5t102 102.5t140 38q82 0 151.5 -45t96.5 -113v383h33v-780h-33v149q-27 -66 -96.5 -110.5t-151.5 -44.5zM330 27q67 0 124 33.5t90.5 90t33.5 123.5t-33.5 124t-90.5 90.5t-124 33.5q-66 0 -123 -33.5t-90.5 -90.5
t-33.5 -124t33.5 -123.5t90.5 -90t123 -33.5zM161 -117v33h350v-33h-350z" />
    <glyph glyph-name="uni1E12" unicode="&#x1e12;" horiz-adv-x="750" 
d="M100 0v730h207q110 0 197.5 -49t136.5 -132t49 -183q0 -101 -47 -185t-134 -132.5t-202 -48.5h-207zM307 33q107 0 186.5 45t121.5 121.5t42 168.5q0 88 -44 163.5t-124 120.5t-182 45h-174v-664h174zM183 -160l108 120h44l108 -120h-44l-86 96l-86 -96h-44z" />
    <glyph glyph-name="uni1E13" unicode="&#x1e13;" horiz-adv-x="686" 
d="M330 -6q-76 0 -140 37.5t-102 102t-38 140.5t38 140.5t102 102.5t140 38q82 0 151.5 -45t96.5 -113v383h33v-780h-33v149q-27 -66 -96.5 -110.5t-151.5 -44.5zM330 27q67 0 124 33.5t90.5 90t33.5 123.5t-33.5 124t-90.5 90.5t-124 33.5q-66 0 -123 -33.5t-90.5 -90.5
t-33.5 -124t33.5 -123.5t90.5 -90t123 -33.5zM213 -160l108 120h44l108 -120h-44l-86 96l-86 -96h-44z" />
    <glyph glyph-name="uni1E24" unicode="&#x1e24;" horiz-adv-x="750" 
d="M100 0v730h33v-347h484v347h33v-730h-33v350h-484v-350h-33zM376 -133q-13 0 -23 9.5t-10 23.5q0 13 10 23t23 10t22.5 -10t9.5 -23t-9.5 -23t-22.5 -10z" />
    <glyph glyph-name="uni1E25" unicode="&#x1e25;" 
d="M90 0v780h33v-353q24 56 76.5 92t126.5 36q67 0 120.5 -31.5t84.5 -94t31 -151.5v-278h-33v278q0 81 -27 135.5t-72.5 81.5t-103.5 27t-103.5 -27t-72.5 -81.5t-27 -135.5v-278h-33zM299 -133q-13 0 -23 9.5t-10 23.5q0 13 10 23t23 10t22.5 -10t9.5 -23t-9.5 -23
t-22.5 -10z" />
    <glyph glyph-name="uni1E2E" unicode="&#x1e2e;" horiz-adv-x="233" 
d="M100 0v730h33v-730h-33zM25 791q-13 0 -23 10t-10 23q0 14 10 23.5t23 9.5t22.5 -10t9.5 -23t-9.5 -23t-22.5 -10zM210 791q-13 0 -23 10t-10 23q0 14 10 23.5t23 9.5t22.5 -10t9.5 -23t-9.5 -23t-22.5 -10zM106 912l65 148h35l-70 -148h-30z" />
    <glyph glyph-name="uni1E2F" unicode="&#x1e2f;" horiz-adv-x="213" 
d="M90 0v550h33v-550h-33zM35 667q-13 0 -23 10t-10 23q0 14 10 23.5t23 9.5t22.5 -10t9.5 -23t-9.5 -23t-22.5 -10zM180 667q-13 0 -23 10t-10 23q0 14 10 23.5t23 9.5t22.5 -10t9.5 -23t-9.5 -23t-22.5 -10zM98 787l65 148h35l-70 -148h-30z" />
    <glyph glyph-name="uni1E36" unicode="&#x1e36;" horiz-adv-x="586" 
d="M100 0v730h33v-697h423v-33h-456zM296 -133q-13 0 -23 9.5t-10 23.5q0 13 10 23t23 10t22.5 -10t9.5 -23t-9.5 -23t-22.5 -10z" />
    <glyph glyph-name="uni1E37" unicode="&#x1e37;" horiz-adv-x="213" 
d="M90 0v780h33v-780h-33zM107 -133q-13 0 -23 9.5t-10 23.5q0 13 10 23t23 10t22.5 -10t9.5 -23t-9.5 -23t-22.5 -10z" />
    <glyph glyph-name="uni1E3C" unicode="&#x1e3c;" horiz-adv-x="586" 
d="M100 0v730h33v-697h423v-33h-456zM147 -160l108 120h44l108 -120h-44l-86 96l-86 -96h-44z" />
    <glyph glyph-name="uni1E3D" unicode="&#x1e3d;" horiz-adv-x="213" 
d="M90 0v780h33v-780h-33zM-23 -160l108 120h44l108 -120h-44l-86 96l-86 -96h-44z" />
    <glyph glyph-name="uni1E3E" unicode="&#x1e3e;" horiz-adv-x="950" 
d="M100 0v730h42l333 -563l333 563h42v-730h-33v681l-326 -552h-32l-326 552v-681h-33zM423 816l65 148h35l-70 -148h-30z" />
    <glyph glyph-name="uni1E3F" unicode="&#x1e3f;" horiz-adv-x="916" 
d="M90 0v550h33v-113q19 56 65 87t98 31q74 0 120.5 -41t60.5 -105q14 63 61 104.5t117 41.5q87 0 141.5 -63t54.5 -194v-298h-33v298q0 118 -45 171t-118 53q-70 0 -116.5 -54t-46.5 -170v-298h-33v298q0 118 -45 171t-118 53q-46 0 -83 -27t-58.5 -82t-21.5 -135v-278h-33
zM416 646l65 148h35l-70 -148h-30z" />
    <glyph glyph-name="uni1E44" unicode="&#x1e44;" horiz-adv-x="800" 
d="M100 0v730h33l534 -676v676h33v-730h-33l-534 678v-678h-33zM408 857q-13 0 -23 10t-10 23q0 14 10 23.5t23 9.5t22.5 -10t9.5 -23t-9.5 -23t-22.5 -10z" />
    <glyph glyph-name="uni1E45" unicode="&#x1e45;" 
d="M90 0v550h33v-123q24 56 76.5 92t126.5 36q67 0 120.5 -31.5t84.5 -94t31 -151.5v-278h-33v278q0 81 -27 135.5t-72.5 81.5t-103.5 27t-103.5 -27t-72.5 -81.5t-27 -135.5v-278h-33zM327 687q-13 0 -23 10t-10 23q0 14 10 23.5t23 9.5t22.5 -10t9.5 -23t-9.5 -23
t-22.5 -10z" />
    <glyph glyph-name="uni1E46" unicode="&#x1e46;" horiz-adv-x="800" 
d="M100 0v730h33l534 -676v676h33v-730h-33l-534 678v-678h-33zM401 -133q-13 0 -23 9.5t-10 23.5q0 13 10 23t23 10t22.5 -10t9.5 -23t-9.5 -23t-22.5 -10z" />
    <glyph glyph-name="uni1E47" unicode="&#x1e47;" 
d="M90 0v550h33v-123q24 56 76.5 92t126.5 36q67 0 120.5 -31.5t84.5 -94t31 -151.5v-278h-33v278q0 81 -27 135.5t-72.5 81.5t-103.5 27t-103.5 -27t-72.5 -81.5t-27 -135.5v-278h-33zM327 -133q-13 0 -23 9.5t-10 23.5q0 13 10 23t23 10t22.5 -10t9.5 -23t-9.5 -23
t-22.5 -10z" />
    <glyph glyph-name="uni1E4A" unicode="&#x1e4a;" horiz-adv-x="800" 
d="M100 0v730h33l534 -676v676h33v-730h-33l-534 678v-678h-33zM279 -175l108 120h44l108 -120h-44l-86 96l-86 -96h-44z" />
    <glyph glyph-name="uni1E4B" unicode="&#x1e4b;" 
d="M90 0v550h33v-123q24 56 76.5 92t126.5 36q67 0 120.5 -31.5t84.5 -94t31 -151.5v-278h-33v278q0 81 -27 135.5t-72.5 81.5t-103.5 27t-103.5 -27t-72.5 -81.5t-27 -135.5v-278h-33zM196 -160l108 120h44l108 -120h-44l-86 96l-86 -96h-44z" />
    <glyph glyph-name="uni1E4C" unicode="&#x1e4c;" horiz-adv-x="863" 
d="M432 -8q-101 0 -186.5 50t-135.5 136t-50 187q0 100 50 185.5t135.5 135.5t186.5 50t186 -50t135 -135.5t50 -185.5q0 -101 -50 -187t-135 -136t-186 -50zM432 25q92 0 169.5 45.5t123 123.5t45.5 172q0 92 -45.5 169.5t-123 122.5t-169.5 45t-170 -45t-123.5 -122.5
t-45.5 -169.5q0 -94 45.5 -172t123.5 -123.5t170 -45.5zM506 836q-25 -3 -43.5 8.5t-42.5 35.5q-18 18 -30 26.5t-25 7.5q-18 -1 -29 -19.5t-11 -50.5h-33q0 46 20.5 73.5t50.5 29.5q24 2 40.5 -9t39.5 -34q17 -18 30.5 -27.5t29.5 -8.5t26 18.5t10 51.5h33
q0 -47 -18.5 -73.5t-47.5 -28.5zM418 999l65 148h35l-70 -148h-30z" />
    <glyph glyph-name="uni1E4D" unicode="&#x1e4d;" horiz-adv-x="661" 
d="M331 -5q-77 0 -141.5 38t-102 102.5t-37.5 140.5t37.5 140.5t102 102t141.5 37.5q76 0 140 -37.5t102 -102t38 -140.5t-38 -140.5t-102 -102.5t-140 -38zM331 28q66 0 123 33.5t90.5 90.5t33.5 124t-33.5 123.5t-90.5 90t-123 33.5q-67 0 -124 -33.5t-90.5 -90
t-33.5 -123.5t33.5 -124t90.5 -90.5t124 -33.5zM405 620q-25 -3 -44 9t-42 35q-18 18 -30 26.5t-25 7.5q-18 -1 -29 -19.5t-11 -50.5h-33q0 46 20 73.5t51 29.5q24 2 41.5 -9.5t38.5 -33.5q17 -18 30.5 -27.5t29.5 -8.5t26 18.5t10 51.5h33q0 -47 -18.5 -73t-47.5 -29z
M317 759l65 148h35l-70 -148h-30z" />
    <glyph glyph-name="uni1E50" unicode="&#x1e50;" horiz-adv-x="863" 
d="M432 -8q-101 0 -186.5 50t-135.5 136t-50 187q0 100 50 185.5t135.5 135.5t186.5 50t186 -50t135 -135.5t50 -185.5q0 -101 -50 -187t-135 -136t-186 -50zM432 25q92 0 169.5 45.5t123 123.5t45.5 172q0 92 -45.5 169.5t-123 122.5t-169.5 45t-170 -45t-123.5 -122.5
t-45.5 -169.5q0 -94 45.5 -172t123.5 -123.5t170 -45.5zM257 809v33h350v-33h-350zM412 893l-70 148h35l65 -148h-30z" />
    <glyph glyph-name="uni1E51" unicode="&#x1e51;" horiz-adv-x="661" 
d="M331 -5q-77 0 -141.5 38t-102 102.5t-37.5 140.5t37.5 140.5t102 102t141.5 37.5q76 0 140 -37.5t102 -102t38 -140.5t-38 -140.5t-102 -102.5t-140 -38zM331 28q66 0 123 33.5t90.5 90.5t33.5 124t-33.5 123.5t-90.5 90t-123 33.5q-67 0 -124 -33.5t-90.5 -90
t-33.5 -123.5t33.5 -124t90.5 -90.5t124 -33.5zM156 644v33h350v-33h-350zM311 728l-70 148h35l65 -148h-30z" />
    <glyph glyph-name="uni1E52" unicode="&#x1e52;" horiz-adv-x="863" 
d="M432 -8q-101 0 -186.5 50t-135.5 136t-50 187q0 100 50 185.5t135.5 135.5t186.5 50t186 -50t135 -135.5t50 -185.5q0 -101 -50 -187t-135 -136t-186 -50zM432 25q92 0 169.5 45.5t123 123.5t45.5 172q0 92 -45.5 169.5t-123 122.5t-169.5 45t-170 -45t-123.5 -122.5
t-45.5 -169.5q0 -94 45.5 -172t123.5 -123.5t170 -45.5zM257 809v33h350v-33h-350zM382 893l65 148h35l-70 -148h-30z" />
    <glyph glyph-name="uni1E53" unicode="&#x1e53;" horiz-adv-x="661" 
d="M331 -5q-77 0 -141.5 38t-102 102.5t-37.5 140.5t37.5 140.5t102 102t141.5 37.5q76 0 140 -37.5t102 -102t38 -140.5t-38 -140.5t-102 -102.5t-140 -38zM331 28q66 0 123 33.5t90.5 90.5t33.5 124t-33.5 123.5t-90.5 90t-123 33.5q-67 0 -124 -33.5t-90.5 -90
t-33.5 -123.5t33.5 -124t90.5 -90.5t124 -33.5zM156 644v33h350v-33h-350zM281 728l65 148h35l-70 -148h-30z" />
    <glyph glyph-name="uni1E62" unicode="&#x1e62;" horiz-adv-x="610" 
d="M312 -6q-71 1 -135 26.5t-122 83.5l23 23q47 -47 105 -73t131 -27q91 -1 149.5 43t58.5 120q0 55 -30 90t-74.5 54t-118.5 42q-75 22 -121.5 42.5t-78 57.5t-31.5 96q0 46 26.5 84t78.5 60.5t124 22.5q63 0 129.5 -28t108.5 -88l-26 -20q-32 46 -89 74t-119 29
q-60 0 -105.5 -17t-70 -47.5t-24.5 -69.5q0 -48 27.5 -78t68 -47.5t112.5 -39.5q81 -24 129.5 -46t82.5 -63t34 -108q0 -62 -32 -106.5t-87.5 -67.5t-123.5 -22zM306 -133q-13 0 -23 9.5t-10 23.5q0 13 10 23t23 10t22.5 -10t9.5 -23t-9.5 -23t-22.5 -10z" />
    <glyph glyph-name="uni1E63" unicode="&#x1e63;" horiz-adv-x="560" 
d="M291 -5q-63 0 -128 23t-108 75l25 22q29 -38 87 -62.5t125 -24.5q79 0 129.5 34t50.5 91q0 39 -25.5 62.5t-63 35.5t-101.5 25q-70 15 -109.5 28t-68 40.5t-28.5 73.5q0 39 24.5 70t69.5 49t105 18q55 0 110 -21.5t100 -68.5l-24 -23q-37 40 -85 60t-100 20
q-72 0 -119.5 -27.5t-47.5 -77.5q0 -33 23.5 -53.5t58 -31.5t95.5 -24q71 -16 114.5 -30.5t74 -45t30.5 -80.5q0 -52 -30.5 -87.5t-79.5 -52.5t-104 -17zM281 -133q-13 0 -23 9.5t-10 23.5q0 13 10 23t23 10t22.5 -10t9.5 -23t-9.5 -23t-22.5 -10z" />
    <glyph glyph-name="uni1E6C" unicode="&#x1e6c;" horiz-adv-x="594" 
d="M281 0v697h-251v33h534v-33h-250v-697h-33zM298 -133q-13 0 -23 9.5t-10 23.5q0 13 10 23t23 10t22.5 -10t9.5 -23t-9.5 -23t-22.5 -10z" />
    <glyph glyph-name="uni1E6D" unicode="&#x1e6d;" horiz-adv-x="351" 
d="M254 -7q-66 0 -107 46.5t-41 126.5v351h-76v33h76v180h33v-180h141v-33h-141v-349q0 -67 31.5 -104.5t83.5 -37.5q26 0 47 9l10 -31q-27 -11 -57 -11zM161 -133q-13 0 -23 9.5t-10 23.5q0 13 10 23t23 10t22.5 -10t9.5 -23t-9.5 -23t-22.5 -10z" />
    <glyph glyph-name="uni1E6E" unicode="&#x1e6e;" horiz-adv-x="594" 
d="M281 0v697h-251v33h534v-33h-250v-697h-33zM122 -117v33h350v-33h-350z" />
    <glyph glyph-name="uni1E6F" unicode="&#x1e6f;" horiz-adv-x="430" 
d="M288 -7q-66 0 -107 46.5t-41 126.5v351h-76v33h76v180h33v-180h141v-33h-141v-349q0 -67 31.5 -104.5t83.5 -37.5q26 0 47 9l10 -31q-27 -11 -57 -11zM30 -127v33h350v-33h-350z" />
    <glyph glyph-name="uni1E70" unicode="&#x1e70;" horiz-adv-x="594" 
d="M281 0v697h-251v33h534v-33h-250v-697h-33zM165 -170l108 120h44l108 -120h-44l-86 96l-86 -96h-44z" />
    <glyph glyph-name="uni1E71" unicode="&#x1e71;" horiz-adv-x="351" 
d="M254 -7q-66 0 -107 46.5t-41 126.5v351h-76v33h76v180h33v-180h141v-33h-141v-349q0 -67 31.5 -104.5t83.5 -37.5q26 0 47 9l10 -31q-27 -11 -57 -11zM30 -160l108 120h44l108 -120h-44l-86 96l-86 -96h-44z" />
    <glyph glyph-name="Wgrave" unicode="&#x1e80;" horiz-adv-x="1013" 
d="M264 0l-234 730h35l216 -674l208 674h35l208 -674l216 674h35l-234 -730h-35l-207 673l-208 -673h-35zM477 816l-70 148h35l65 -148h-30z" />
    <glyph glyph-name="wgrave" unicode="&#x1e81;" horiz-adv-x="860" 
d="M223 0l-198 550h35l180 -500l173 500h34l173 -500l180 500h35l-198 -550h-35l-172 499l-172 -499h-35zM413 646l-70 148h35l65 -148h-30z" />
    <glyph glyph-name="Wacute" unicode="&#x1e82;" horiz-adv-x="1013" 
d="M264 0l-234 730h35l216 -674l208 674h35l208 -674l216 674h35l-234 -730h-35l-207 673l-208 -673h-35zM487 816l65 148h35l-70 -148h-30z" />
    <glyph glyph-name="wacute" unicode="&#x1e83;" horiz-adv-x="860" 
d="M223 0l-198 550h35l180 -500l173 500h34l173 -500l180 500h35l-198 -550h-35l-172 499l-172 -499h-35zM410 646l65 148h35l-70 -148h-30z" />
    <glyph glyph-name="Wdieresis" unicode="&#x1e84;" horiz-adv-x="1013" 
d="M264 0l-234 730h35l216 -674l208 674h35l208 -674l216 674h35l-234 -730h-35l-207 673l-208 -673h-35zM415 857q-13 0 -23 10t-10 23q0 14 10 23.5t23 9.5t22.5 -10t9.5 -23t-9.5 -23t-22.5 -10zM600 857q-13 0 -23 10t-10 23q0 14 10 23.5t23 9.5t22.5 -10t9.5 -23
t-9.5 -23t-22.5 -10z" />
    <glyph glyph-name="wdieresis" unicode="&#x1e85;" horiz-adv-x="860" 
d="M223 0l-198 550h35l180 -500l173 500h34l173 -500l180 500h35l-198 -550h-35l-172 499l-172 -499h-35zM338 687q-13 0 -23 10t-10 23q0 14 10 23.5t23 9.5t22.5 -10t9.5 -23t-9.5 -23t-22.5 -10zM523 687q-13 0 -23 10t-10 23q0 14 10 23.5t23 9.5t22.5 -10t9.5 -23
t-9.5 -23t-22.5 -10z" />
    <glyph glyph-name="uni1E92" unicode="&#x1e92;" horiz-adv-x="641" 
d="M50 0v33l489 664h-479v33h521v-33l-490 -664h500v-33h-541zM314 -133q-13 0 -23 9.5t-10 23.5q0 13 10 23t23 10t22.5 -10t9.5 -23t-9.5 -23t-22.5 -10z" />
    <glyph glyph-name="uni1E93" unicode="&#x1e93;" horiz-adv-x="583" 
d="M60 0v33l405 484h-405v33h449v-33l-406 -484h420v-33h-463zM292 -133q-13 0 -23 9.5t-10 23.5q0 13 10 23t23 10t22.5 -10t9.5 -23t-9.5 -23t-22.5 -10z" />
    <glyph glyph-name="Germandbls" unicode="&#x1e9e;" horiz-adv-x="616" 
d="M357 -10q-43 0 -83 10t-59 23v37q33 -19 65 -28t77 -9q41 0 81.5 18.5t67.5 57t27 96.5q0 59 -29 98.5t-65.5 59.5t-81.5 37l-4 2v28l137 202q-26 43 -70.5 63t-107.5 20q-71 0 -125 -40.5t-54 -141.5v-523h-33v526q0 68 25 115.5t72.5 72t114.5 24.5q75 0 129 -27
t84 -77v-24l-135 -195l12 -6q43 -20 77 -42.5t60.5 -65.5t26.5 -106q0 -56 -26.5 -103t-74 -74.5t-108.5 -27.5z" />
    <glyph glyph-name="uni1EA0" unicode="&#x1ea0;" horiz-adv-x="680" 
d="M30 0l291 730h38l291 -730h-35l-101 252h-348l-100 -252h-36zM180 285h321l-161 402zM341 -133q-13 0 -23 9.5t-10 23.5q0 13 10 23t23 10t22.5 -10t9.5 -23t-9.5 -23t-22.5 -10z" />
    <glyph glyph-name="uni1EA1" unicode="&#x1ea1;" horiz-adv-x="701" 
d="M330 -6q-76 0 -140 37.5t-102 102t-38 140.5t38 140.5t102 102.5t140 38q82 0 151.5 -45t96.5 -113v153h33v-550h-33v149q-27 -66 -96.5 -110.5t-151.5 -44.5zM330 27q67 0 124 33.5t90.5 90t33.5 123.5t-33.5 124t-90.5 90.5t-124 33.5q-66 0 -123 -33.5t-90.5 -90.5
t-33.5 -124t33.5 -123.5t90.5 -90t123 -33.5zM331 -133q-13 0 -23 9.5t-10 23.5q0 13 10 23t23 10t22.5 -10t9.5 -23t-9.5 -23t-22.5 -10z" />
    <glyph glyph-name="uni1EA2" unicode="&#x1ea2;" horiz-adv-x="680" 
d="M30 0l291 730h38l291 -730h-35l-101 252h-348l-100 -252h-36zM180 285h321l-161 402zM321 839q39 0 58.5 14t19.5 38q0 22 -17 36t-46 14q-21 0 -42.5 -7.5t-29.5 -15.5l-16 28q14 12 38.5 20t48.5 8q30 0 52 -11t33.5 -30.5t11.5 -42.5q0 -37 -29 -60.5t-82 -23.5v33z
" />
    <glyph glyph-name="uni1EA3" unicode="&#x1ea3;" horiz-adv-x="701" 
d="M330 -6q-76 0 -140 37.5t-102 102t-38 140.5t38 140.5t102 102.5t140 38q82 0 151.5 -45t96.5 -113v153h33v-550h-33v149q-27 -66 -96.5 -110.5t-151.5 -44.5zM330 27q67 0 124 33.5t90.5 90t33.5 123.5t-33.5 124t-90.5 90.5t-124 33.5q-66 0 -123 -33.5t-90.5 -90.5
t-33.5 -124t33.5 -123.5t90.5 -90t123 -33.5zM307 669q39 0 58.5 14t19.5 38q0 22 -17 36t-46 14q-21 0 -42.5 -7.5t-29.5 -15.5l-16 28q14 12 38.5 20t48.5 8q30 0 52 -11t33.5 -30.5t11.5 -42.5q0 -37 -29 -60.5t-82 -23.5v33z" />
    <glyph glyph-name="uni1EA4" unicode="&#x1ea4;" horiz-adv-x="680" 
d="M30 0l291 730h38l291 -730h-35l-101 252h-348l-100 -252h-36zM180 285h321l-161 402zM210 792l108 120h44l108 -120h-44l-86 96l-86 -96h-44zM403 911l65 148h35l-70 -148h-30z" />
    <glyph glyph-name="uni1EA5" unicode="&#x1ea5;" horiz-adv-x="701" 
d="M330 -6q-76 0 -140 37.5t-102 102t-38 140.5t38 140.5t102 102.5t140 38q82 0 151.5 -45t96.5 -113v153h33v-550h-33v149q-27 -66 -96.5 -110.5t-151.5 -44.5zM330 27q67 0 124 33.5t90.5 90t33.5 123.5t-33.5 124t-90.5 90.5t-124 33.5q-66 0 -123 -33.5t-90.5 -90.5
t-33.5 -124t33.5 -123.5t90.5 -90t123 -33.5zM194 627l108 120h44l108 -120h-44l-86 96l-86 -96h-44zM387 746l65 148h35l-70 -148h-30z" />
    <glyph glyph-name="uni1EA6" unicode="&#x1ea6;" horiz-adv-x="680" 
d="M30 0l291 730h38l291 -730h-35l-101 252h-348l-100 -252h-36zM180 285h321l-161 402zM196 793l108 120h44l108 -120h-44l-86 96l-86 -96h-44zM232 909l-70 148h35l65 -148h-30z" />
    <glyph glyph-name="uni1EA7" unicode="&#x1ea7;" horiz-adv-x="701" 
d="M330 -6q-76 0 -140 37.5t-102 102t-38 140.5t38 140.5t102 102.5t140 38q82 0 151.5 -45t96.5 -113v153h33v-550h-33v149q-27 -66 -96.5 -110.5t-151.5 -44.5zM330 27q67 0 124 33.5t90.5 90t33.5 123.5t-33.5 124t-90.5 90.5t-124 33.5q-66 0 -123 -33.5t-90.5 -90.5
t-33.5 -124t33.5 -123.5t90.5 -90t123 -33.5zM191 628l108 120h44l108 -120h-44l-86 96l-86 -96h-44zM227 744l-70 148h35l65 -148h-30z" />
    <glyph glyph-name="uni1EA8" unicode="&#x1ea8;" horiz-adv-x="680" 
d="M30 0l291 730h38l291 -730h-35l-101 252h-348l-100 -252h-36zM180 285h321l-161 402zM206 787l108 120h44l108 -120h-44l-86 96l-86 -96h-44zM403 929q39 0 58.5 14t19.5 38q0 22 -17 36t-46 14q-21 0 -42.5 -7.5t-29.5 -15.5l-16 28q14 12 38.5 20t48.5 8q30 0 52 -11
t33.5 -30.5t11.5 -42.5q0 -37 -29 -60.5t-82 -23.5v33z" />
    <glyph glyph-name="uni1EA9" unicode="&#x1ea9;" horiz-adv-x="701" 
d="M330 -6q-76 0 -140 37.5t-102 102t-38 140.5t38 140.5t102 102.5t140 38q82 0 151.5 -45t96.5 -113v153h33v-550h-33v149q-27 -66 -96.5 -110.5t-151.5 -44.5zM330 27q67 0 124 33.5t90.5 90t33.5 123.5t-33.5 124t-90.5 90.5t-124 33.5q-66 0 -123 -33.5t-90.5 -90.5
t-33.5 -124t33.5 -123.5t90.5 -90t123 -33.5zM197 622l108 120h44l108 -120h-44l-86 96l-86 -96h-44zM394 764q39 0 58.5 14t19.5 38q0 22 -17 36t-46 14q-21 0 -42.5 -7.5t-29.5 -15.5l-16 28q14 12 38.5 20t48.5 8q30 0 52 -11t33.5 -30.5t11.5 -42.5q0 -37 -29 -60.5
t-82 -23.5v33z" />
    <glyph glyph-name="uni1EAA" unicode="&#x1eaa;" horiz-adv-x="680" 
d="M30 0l291 730h38l291 -730h-35l-101 252h-348l-100 -252h-36zM180 285h321l-161 402zM206 800l108 120h44l108 -120h-44l-86 96l-86 -96h-44zM420 935q-25 -3 -44 9t-42 35q-18 18 -30 26.5t-25 7.5q-18 -1 -29 -19.5t-11 -50.5h-33q0 46 20.5 73.5t50.5 29.5
q24 2 40.5 -9t39.5 -34q17 -18 30.5 -27.5t29.5 -8.5t26 18.5t10 51.5h33q0 -47 -18.5 -73.5t-47.5 -28.5z" />
    <glyph glyph-name="uni1EAB" unicode="&#x1eab;" horiz-adv-x="701" 
d="M330 -6q-76 0 -140 37.5t-102 102t-38 140.5t38 140.5t102 102.5t140 38q82 0 151.5 -45t96.5 -113v153h33v-550h-33v149q-27 -66 -96.5 -110.5t-151.5 -44.5zM330 27q67 0 124 33.5t90.5 90t33.5 123.5t-33.5 124t-90.5 90.5t-124 33.5q-66 0 -123 -33.5t-90.5 -90.5
t-33.5 -124t33.5 -123.5t90.5 -90t123 -33.5zM201 635l108 120h44l108 -120h-44l-86 96l-86 -96h-44zM415 770q-25 -3 -44 9t-42 35q-18 18 -30 26.5t-25 7.5q-18 -1 -29 -19.5t-11 -50.5h-33q0 46 20 73.5t51 29.5q24 2 41.5 -9.5t38.5 -33.5q17 -18 30.5 -27.5t29.5 -8.5
t26 18.5t10 51.5h33q0 -47 -18.5 -73t-47.5 -29z" />
    <glyph glyph-name="uni1EAC" unicode="&#x1eac;" horiz-adv-x="680" 
d="M30 0l291 730h38l291 -730h-35l-101 252h-348l-100 -252h-36zM180 285h321l-161 402zM341 -133q-13 0 -23 9.5t-10 23.5q0 13 10 23t23 10t22.5 -10t9.5 -23t-9.5 -23t-22.5 -10zM210 830l108 120h44l108 -120h-44l-86 96l-86 -96h-44z" />
    <glyph glyph-name="uni1EAD" unicode="&#x1ead;" horiz-adv-x="701" 
d="M330 -6q-76 0 -140 37.5t-102 102t-38 140.5t38 140.5t102 102.5t140 38q82 0 151.5 -45t96.5 -113v153h33v-550h-33v149q-27 -66 -96.5 -110.5t-151.5 -44.5zM330 27q67 0 124 33.5t90.5 90t33.5 123.5t-33.5 124t-90.5 90.5t-124 33.5q-66 0 -123 -33.5t-90.5 -90.5
t-33.5 -124t33.5 -123.5t90.5 -90t123 -33.5zM211 660l108 120h44l108 -120h-44l-86 96l-86 -96h-44zM331 -133q-13 0 -23 9.5t-10 23.5q0 13 10 23t23 10t22.5 -10t9.5 -23t-9.5 -23t-22.5 -10z" />
    <glyph glyph-name="uni1EAE" unicode="&#x1eae;" horiz-adv-x="680" 
d="M30 0l291 730h38l291 -730h-35l-101 252h-348l-100 -252h-36zM180 285h321l-161 402zM342 776q-41 0 -76 20t-56.5 53.5t-24.5 74.5h33q4 -48 39.5 -81.5t84.5 -33.5q48 0 83 33.5t39 81.5h33q-3 -41 -24.5 -74.5t-56 -53.5t-74.5 -20zM321 926l65 148h35l-70 -148h-30z
" />
    <glyph glyph-name="uni1EAF" unicode="&#x1eaf;" horiz-adv-x="701" 
d="M330 -6q-76 0 -140 37.5t-102 102t-38 140.5t38 140.5t102 102.5t140 38q82 0 151.5 -45t96.5 -113v153h33v-550h-33v149q-27 -66 -96.5 -110.5t-151.5 -44.5zM330 27q67 0 124 33.5t90.5 90t33.5 123.5t-33.5 124t-90.5 90.5t-124 33.5q-66 0 -123 -33.5t-90.5 -90.5
t-33.5 -124t33.5 -123.5t90.5 -90t123 -33.5zM342 631q-41 0 -76 20t-56.5 53.5t-24.5 74.5h33q4 -48 39.5 -81.5t84.5 -33.5q48 0 83 33.5t39 81.5h33q-3 -41 -24.5 -74.5t-56 -53.5t-74.5 -20zM321 781l65 148h35l-70 -148h-30z" />
    <glyph glyph-name="uni1EB0" unicode="&#x1eb0;" horiz-adv-x="680" 
d="M30 0l291 730h38l291 -730h-35l-101 252h-348l-100 -252h-36zM180 285h321l-161 402zM338 776q-41 0 -76 20t-56.5 53.5t-24.5 74.5h33q4 -48 39.5 -81.5t84.5 -33.5q48 0 83 33.5t39 81.5h33q-3 -41 -24.5 -74.5t-56 -53.5t-74.5 -20zM329 926l-70 148h35l65 -148h-30z
" />
    <glyph glyph-name="uni1EB1" unicode="&#x1eb1;" horiz-adv-x="701" 
d="M330 -6q-76 0 -140 37.5t-102 102t-38 140.5t38 140.5t102 102.5t140 38q82 0 151.5 -45t96.5 -113v153h33v-550h-33v149q-27 -66 -96.5 -110.5t-151.5 -44.5zM330 27q67 0 124 33.5t90.5 90t33.5 123.5t-33.5 124t-90.5 90.5t-124 33.5q-66 0 -123 -33.5t-90.5 -90.5
t-33.5 -124t33.5 -123.5t90.5 -90t123 -33.5zM322 631q-41 0 -76 20t-56.5 53.5t-24.5 74.5h33q4 -48 39.5 -81.5t84.5 -33.5q48 0 83 33.5t39 81.5h33q-3 -41 -24.5 -74.5t-56 -53.5t-74.5 -20zM309 781l-70 148h35l65 -148h-30z" />
    <glyph glyph-name="uni1EB2" unicode="&#x1eb2;" horiz-adv-x="680" 
d="M30 0l291 730h38l291 -730h-35l-101 252h-348l-100 -252h-36zM180 285h321l-161 402zM342 765q-41 0 -76 20t-56.5 53.5t-24.5 74.5h33q4 -48 39.5 -81.5t84.5 -33.5q48 0 83 33.5t39 81.5h33q-3 -41 -24.5 -74.5t-56 -53.5t-74.5 -20zM327 951q39 0 58.5 14t19.5 38
q0 22 -17 36t-46 14q-21 0 -42.5 -7.5t-29.5 -15.5l-16 28q14 12 38.5 20t48.5 8q30 0 52 -11t33.5 -30.5t11.5 -42.5q0 -37 -29 -60.5t-82 -23.5v33z" />
    <glyph glyph-name="uni1EB3" unicode="&#x1eb3;" horiz-adv-x="701" 
d="M330 -6q-76 0 -140 37.5t-102 102t-38 140.5t38 140.5t102 102.5t140 38q82 0 151.5 -45t96.5 -113v153h33v-550h-33v149q-27 -66 -96.5 -110.5t-151.5 -44.5zM330 27q67 0 124 33.5t90.5 90t33.5 123.5t-33.5 124t-90.5 90.5t-124 33.5q-66 0 -123 -33.5t-90.5 -90.5
t-33.5 -124t33.5 -123.5t90.5 -90t123 -33.5zM322 620q-41 0 -76 20t-56.5 53.5t-24.5 74.5h33q4 -48 39.5 -81.5t84.5 -33.5q48 0 83 33.5t39 81.5h33q-3 -41 -24.5 -74.5t-56 -53.5t-74.5 -20zM307 806q39 0 58.5 14t19.5 38q0 22 -17 36t-46 14q-21 0 -42.5 -7.5
t-29.5 -15.5l-16 28q14 12 38.5 20t48.5 8q30 0 52 -11t33.5 -30.5t11.5 -42.5q0 -37 -29 -60.5t-82 -23.5v33z" />
    <glyph glyph-name="uni1EB4" unicode="&#x1eb4;" horiz-adv-x="680" 
d="M30 0l291 730h38l291 -730h-35l-101 252h-348l-100 -252h-36zM180 285h321l-161 402zM351 786q-41 0 -76 20t-56.5 53.5t-24.5 74.5h33q4 -48 39.5 -81.5t84.5 -33.5q48 0 83 33.5t39 81.5h33q-3 -41 -24.5 -74.5t-56 -53.5t-74.5 -20zM431 949q-25 -3 -43.5 8.5
t-42.5 35.5q-18 18 -30 26.5t-25 7.5q-18 -1 -29 -19.5t-11 -50.5h-33q0 46 20.5 73.5t50.5 29.5q24 2 40.5 -9t39.5 -34q17 -18 30.5 -27.5t29.5 -8.5t26 18.5t10 51.5h33q0 -47 -18.5 -73.5t-47.5 -28.5z" />
    <glyph glyph-name="uni1EB5" unicode="&#x1eb5;" horiz-adv-x="701" 
d="M330 -6q-76 0 -140 37.5t-102 102t-38 140.5t38 140.5t102 102.5t140 38q82 0 151.5 -45t96.5 -113v153h33v-550h-33v149q-27 -66 -96.5 -110.5t-151.5 -44.5zM330 27q67 0 124 33.5t90.5 90t33.5 123.5t-33.5 124t-90.5 90.5t-124 33.5q-66 0 -123 -33.5t-90.5 -90.5
t-33.5 -124t33.5 -123.5t90.5 -90t123 -33.5zM322 641q-41 0 -76 20t-56.5 53.5t-24.5 74.5h33q4 -48 39.5 -81.5t84.5 -33.5q48 0 83 33.5t39 81.5h33q-3 -41 -24.5 -74.5t-56 -53.5t-74.5 -20zM402 804q-25 -3 -44 9t-42 35q-18 18 -30 26.5t-25 7.5q-18 -1 -29 -19.5
t-11 -50.5h-33q0 46 20 73.5t51 29.5q24 2 41.5 -9.5t38.5 -33.5q17 -18 30.5 -27.5t29.5 -8.5t26 18.5t10 51.5h33q0 -47 -18.5 -73t-47.5 -29z" />
    <glyph glyph-name="uni1EB6" unicode="&#x1eb6;" horiz-adv-x="680" 
d="M30 0l291 730h38l291 -730h-35l-101 252h-348l-100 -252h-36zM180 285h321l-161 402zM341 -133q-13 0 -23 9.5t-10 23.5q0 13 10 23t23 10t22.5 -10t9.5 -23t-9.5 -23t-22.5 -10zM341 816q-41 0 -76 20t-56.5 53.5t-24.5 74.5h33q4 -48 39.5 -81.5t84.5 -33.5
q48 0 83 33.5t39 81.5h33q-3 -41 -24.5 -74.5t-56 -53.5t-74.5 -20z" />
    <glyph glyph-name="uni1EB7" unicode="&#x1eb7;" horiz-adv-x="701" 
d="M330 -6q-76 0 -140 37.5t-102 102t-38 140.5t38 140.5t102 102.5t140 38q82 0 151.5 -45t96.5 -113v153h33v-550h-33v149q-27 -66 -96.5 -110.5t-151.5 -44.5zM330 27q67 0 124 33.5t90.5 90t33.5 123.5t-33.5 124t-90.5 90.5t-124 33.5q-66 0 -123 -33.5t-90.5 -90.5
t-33.5 -124t33.5 -123.5t90.5 -90t123 -33.5zM332 646q-41 0 -76 20t-56.5 53.5t-24.5 74.5h33q4 -48 39.5 -81.5t84.5 -33.5q48 0 83 33.5t39 81.5h33q-3 -41 -24.5 -74.5t-56 -53.5t-74.5 -20zM331 -133q-13 0 -23 9.5t-10 23.5q0 13 10 23t23 10t22.5 -10t9.5 -23
t-9.5 -23t-22.5 -10z" />
    <glyph glyph-name="uni1EB8" unicode="&#x1eb8;" horiz-adv-x="606" 
d="M100 0v730h436v-33h-403v-305h383v-33h-383v-326h413v-33h-446zM291 -133q-13 0 -23 9.5t-10 23.5q0 13 10 23t23 10t22.5 -10t9.5 -23t-9.5 -23t-22.5 -10z" />
    <glyph glyph-name="uni1EB9" unicode="&#x1eb9;" horiz-adv-x="651" 
d="M337 -5q-78 0 -144 38t-104.5 102.5t-38.5 140.5t37 140.5t100.5 102t138.5 37.5q79 0 141.5 -37.5t98 -101.5t35.5 -141q0 -11 -2 -31h-514q8 -60 43.5 -110t90.5 -78.5t118 -28.5q61 0 115 27.5t88 74.5l29 -17q-39 -54 -100 -86t-132 -32zM568 278q0 67 -31.5 123
t-86.5 89t-124 33q-65 0 -121 -33t-89 -89.5t-33 -122.5h485zM314 -133q-13 0 -23 9.5t-10 23.5q0 13 10 23t23 10t22.5 -10t9.5 -23t-9.5 -23t-22.5 -10z" />
    <glyph glyph-name="uni1EBA" unicode="&#x1eba;" horiz-adv-x="606" 
d="M100 0v730h436v-33h-403v-305h383v-33h-383v-326h413v-33h-446zM277 839q39 0 58.5 14t19.5 38q0 22 -17 36t-46 14q-21 0 -42.5 -7.5t-29.5 -15.5l-16 28q14 12 38.5 20t48.5 8q30 0 52 -11t33.5 -30.5t11.5 -42.5q0 -37 -29 -60.5t-82 -23.5v33z" />
    <glyph glyph-name="uni1EBB" unicode="&#x1ebb;" horiz-adv-x="651" 
d="M337 -5q-78 0 -144 38t-104.5 102.5t-38.5 140.5t37 140.5t100.5 102t138.5 37.5q79 0 141.5 -37.5t98 -101.5t35.5 -141q0 -11 -2 -31h-514q8 -60 43.5 -110t90.5 -78.5t118 -28.5q61 0 115 27.5t88 74.5l29 -17q-39 -54 -100 -86t-132 -32zM568 278q0 67 -31.5 123
t-86.5 89t-124 33q-65 0 -121 -33t-89 -89.5t-33 -122.5h485zM299 669q39 0 58.5 14t19.5 38q0 22 -17 36t-46 14q-21 0 -42.5 -7.5t-29.5 -15.5l-16 28q14 12 38.5 20t48.5 8q30 0 52 -11t33.5 -30.5t11.5 -42.5q0 -37 -29 -60.5t-82 -23.5v33z" />
    <glyph glyph-name="uni1EBC" unicode="&#x1ebc;" horiz-adv-x="606" 
d="M100 0v730h436v-33h-403v-305h383v-33h-383v-326h413v-33h-446zM365 836q-25 -3 -44 9t-42 35q-18 18 -30 26.5t-25 7.5q-18 -1 -29 -19.5t-11 -50.5h-33q0 46 20.5 73.5t50.5 29.5q24 2 40.5 -9t39.5 -34q17 -18 30.5 -27.5t29.5 -8.5t26 18.5t10 51.5h33
q0 -47 -18.5 -73.5t-47.5 -28.5z" />
    <glyph glyph-name="uni1EBD" unicode="&#x1ebd;" horiz-adv-x="651" 
d="M337 -5q-78 0 -144 38t-104.5 102.5t-38.5 140.5t37 140.5t100.5 102t138.5 37.5q79 0 141.5 -37.5t98 -101.5t35.5 -141q0 -11 -2 -31h-514q8 -60 43.5 -110t90.5 -78.5t118 -28.5q61 0 115 27.5t88 74.5l29 -17q-39 -54 -100 -86t-132 -32zM568 278q0 67 -31.5 123
t-86.5 89t-124 33q-65 0 -121 -33t-89 -89.5t-33 -122.5h485zM387 666q-25 -3 -44 9t-42 35q-18 18 -30 26.5t-25 7.5q-18 -1 -29 -19.5t-11 -50.5h-33q0 46 20 73.5t51 29.5q24 2 41.5 -9.5t38.5 -33.5q17 -18 30.5 -27.5t29.5 -8.5t26 18.5t10 51.5h33q0 -47 -18.5 -73
t-47.5 -29z" />
    <glyph glyph-name="uni1EBE" unicode="&#x1ebe;" horiz-adv-x="606" 
d="M100 0v730h436v-33h-403v-305h383v-33h-383v-326h413v-33h-446zM184 792l108 120h44l108 -120h-44l-86 96l-86 -96h-44zM377 911l65 148h35l-70 -148h-30z" />
    <glyph glyph-name="uni1EBF" unicode="&#x1ebf;" horiz-adv-x="651" 
d="M337 -5q-78 0 -144 38t-104.5 102.5t-38.5 140.5t37 140.5t100.5 102t138.5 37.5q79 0 141.5 -37.5t98 -101.5t35.5 -141q0 -11 -2 -31h-514q8 -60 43.5 -110t90.5 -78.5t118 -28.5q61 0 115 27.5t88 74.5l29 -17q-39 -54 -100 -86t-132 -32zM568 278q0 67 -31.5 123
t-86.5 89t-124 33q-65 0 -121 -33t-89 -89.5t-33 -122.5h485zM167 627l108 120h44l108 -120h-44l-86 96l-86 -96h-44zM360 746l65 148h35l-70 -148h-30z" />
    <glyph glyph-name="uni1EC0" unicode="&#x1ec0;" horiz-adv-x="606" 
d="M100 0v730h436v-33h-403v-305h383v-33h-383v-326h413v-33h-446zM201 793l108 120h44l108 -120h-44l-86 96l-86 -96h-44zM237 909l-70 148h35l65 -148h-30z" />
    <glyph glyph-name="uni1EC1" unicode="&#x1ec1;" horiz-adv-x="651" 
d="M337 -5q-78 0 -144 38t-104.5 102.5t-38.5 140.5t37 140.5t100.5 102t138.5 37.5q79 0 141.5 -37.5t98 -101.5t35.5 -141q0 -11 -2 -31h-514q8 -60 43.5 -110t90.5 -78.5t118 -28.5q61 0 115 27.5t88 74.5l29 -17q-39 -54 -100 -86t-132 -32zM568 278q0 67 -31.5 123
t-86.5 89t-124 33q-65 0 -121 -33t-89 -89.5t-33 -122.5h485zM193 628l108 120h44l108 -120h-44l-86 96l-86 -96h-44zM229 744l-70 148h35l65 -148h-30z" />
    <glyph glyph-name="uni1EC2" unicode="&#x1ec2;" horiz-adv-x="606" 
d="M100 0v730h436v-33h-403v-305h383v-33h-383v-326h413v-33h-446zM185 787l108 120h44l108 -120h-44l-86 96l-86 -96h-44zM382 929q39 0 58.5 14t19.5 38q0 22 -17 36t-46 14q-21 0 -42.5 -7.5t-29.5 -15.5l-16 28q14 12 38.5 20t48.5 8q30 0 52 -11t33.5 -30.5t11.5 -42.5
q0 -37 -29 -60.5t-82 -23.5v33z" />
    <glyph glyph-name="uni1EC3" unicode="&#x1ec3;" horiz-adv-x="651" 
d="M337 -5q-78 0 -144 38t-104.5 102.5t-38.5 140.5t37 140.5t100.5 102t138.5 37.5q79 0 141.5 -37.5t98 -101.5t35.5 -141q0 -11 -2 -31h-514q8 -60 43.5 -110t90.5 -78.5t118 -28.5q61 0 115 27.5t88 74.5l29 -17q-39 -54 -100 -86t-132 -32zM568 278q0 67 -31.5 123
t-86.5 89t-124 33q-65 0 -121 -33t-89 -89.5t-33 -122.5h485zM189 622l108 120h44l108 -120h-44l-86 96l-86 -96h-44zM386 764q39 0 58.5 14t19.5 38q0 22 -17 36t-46 14q-21 0 -42.5 -7.5t-29.5 -15.5l-16 28q14 12 38.5 20t48.5 8q30 0 52 -11t33.5 -30.5t11.5 -42.5
q0 -37 -29 -60.5t-82 -23.5v33z" />
    <glyph glyph-name="uni1EC4" unicode="&#x1ec4;" horiz-adv-x="606" 
d="M100 0v730h436v-33h-403v-305h383v-33h-383v-326h413v-33h-446zM193 800l108 120h44l108 -120h-44l-86 96l-86 -96h-44zM407 935q-25 -3 -44 9t-42 35q-18 18 -30 26.5t-25 7.5q-18 -1 -29 -19.5t-11 -50.5h-33q0 46 20 73.5t51 29.5q24 2 41.5 -9.5t38.5 -33.5
q17 -18 30.5 -27.5t29.5 -8.5t26 18.5t10 51.5h33q0 -47 -18.5 -73t-47.5 -29z" />
    <glyph glyph-name="uni1EC5" unicode="&#x1ec5;" horiz-adv-x="651" 
d="M337 -5q-78 0 -144 38t-104.5 102.5t-38.5 140.5t37 140.5t100.5 102t138.5 37.5q79 0 141.5 -37.5t98 -101.5t35.5 -141q0 -11 -2 -31h-514q8 -60 43.5 -110t90.5 -78.5t118 -28.5q61 0 115 27.5t88 74.5l29 -17q-39 -54 -100 -86t-132 -32zM568 278q0 67 -31.5 123
t-86.5 89t-124 33q-65 0 -121 -33t-89 -89.5t-33 -122.5h485zM193 635l108 120h44l108 -120h-44l-86 96l-86 -96h-44zM407 770q-25 -3 -43.5 9t-42.5 35q-18 18 -30 26.5t-25 7.5q-18 -1 -29 -19.5t-11 -50.5h-33q0 46 20 73.5t51 29.5q24 2 41.5 -9.5t38.5 -33.5
q17 -18 30.5 -27.5t29.5 -8.5t26 18.5t10 51.5h33q0 -47 -18.5 -73t-47.5 -29z" />
    <glyph glyph-name="uni1EC6" unicode="&#x1ec6;" horiz-adv-x="606" 
d="M100 0v730h436v-33h-403v-305h383v-33h-383v-326h413v-33h-446zM291 -133q-13 0 -23 9.5t-10 23.5q0 13 10 23t23 10t22.5 -10t9.5 -23t-9.5 -23t-22.5 -10zM195 830l108 120h44l108 -120h-44l-86 96l-86 -96h-44z" />
    <glyph glyph-name="uni1EC7" unicode="&#x1ec7;" horiz-adv-x="651" 
d="M337 -5q-78 0 -144 38t-104.5 102.5t-38.5 140.5t37 140.5t100.5 102t138.5 37.5q79 0 141.5 -37.5t98 -101.5t35.5 -141q0 -11 -2 -31h-514q8 -60 43.5 -110t90.5 -78.5t118 -28.5q61 0 115 27.5t88 74.5l29 -17q-39 -54 -100 -86t-132 -32zM568 278q0 67 -31.5 123
t-86.5 89t-124 33q-65 0 -121 -33t-89 -89.5t-33 -122.5h485zM183 660l108 120h44l108 -120h-44l-86 96l-86 -96h-44zM314 -133q-13 0 -23 9.5t-10 23.5q0 13 10 23t23 10t22.5 -10t9.5 -23t-9.5 -23t-22.5 -10z" />
    <glyph glyph-name="uni1EC8" unicode="&#x1ec8;" horiz-adv-x="233" 
d="M100 0v730h33v-730h-33zM97 839q39 0 58.5 14t19.5 38q0 22 -17 36t-46 14q-21 0 -42.5 -7.5t-29.5 -15.5l-16 28q14 12 38.5 20t48.5 8q30 0 52 -11t33.5 -30.5t11.5 -42.5q0 -37 -29 -60.5t-82 -23.5v33z" />
    <glyph glyph-name="uni1EC9" unicode="&#x1ec9;" horiz-adv-x="213" 
d="M90 0v550h33v-550h-33zM73 669q39 0 58.5 14t19.5 38q0 22 -17 36t-46 14q-21 0 -42.5 -7.5t-29.5 -15.5l-16 28q14 12 38.5 20t48.5 8q30 0 52 -11t33.5 -30.5t11.5 -42.5q0 -37 -29 -60.5t-82 -23.5v33z" />
    <glyph glyph-name="uni1ECA" unicode="&#x1eca;" horiz-adv-x="233" 
d="M100 0v730h33v-730h-33zM117 -133q-13 0 -23 9.5t-10 23.5q0 13 10 23t23 10t22.5 -10t9.5 -23t-9.5 -23t-22.5 -10z" />
    <glyph glyph-name="uni1ECB" unicode="&#x1ecb;" horiz-adv-x="213" 
d="M90 0v550h33v-550h-33zM107 -133q-13 0 -23 9.5t-10 23.5q0 13 10 23t23 10t22.5 -10t9.5 -23t-9.5 -23t-22.5 -10zM107 624q-13 0 -23 10t-10 23q0 14 10 23.5t23 9.5t22.5 -10t9.5 -23t-9.5 -23t-22.5 -10z" />
    <glyph glyph-name="uni1ECC" unicode="&#x1ecc;" horiz-adv-x="863" 
d="M432 -8q-101 0 -186.5 50t-135.5 136t-50 187q0 100 50 185.5t135.5 135.5t186.5 50t186 -50t135 -135.5t50 -185.5q0 -101 -50 -187t-135 -136t-186 -50zM432 25q92 0 169.5 45.5t123 123.5t45.5 172q0 92 -45.5 169.5t-123 122.5t-169.5 45t-170 -45t-123.5 -122.5
t-45.5 -169.5q0 -94 45.5 -172t123.5 -123.5t170 -45.5zM420 -133q-13 0 -23 9.5t-10 23.5q0 13 10 23t23 10t22.5 -10t9.5 -23t-9.5 -23t-22.5 -10z" />
    <glyph glyph-name="uni1ECD" unicode="&#x1ecd;" horiz-adv-x="661" 
d="M331 -5q-77 0 -141.5 38t-102 102.5t-37.5 140.5t37.5 140.5t102 102t141.5 37.5q76 0 140 -37.5t102 -102t38 -140.5t-38 -140.5t-102 -102.5t-140 -38zM331 28q66 0 123 33.5t90.5 90.5t33.5 124t-33.5 123.5t-90.5 90t-123 33.5q-67 0 -124 -33.5t-90.5 -90
t-33.5 -123.5t33.5 -124t90.5 -90.5t124 -33.5zM331 -133q-13 0 -23 9.5t-10 23.5q0 13 10 23t23 10t22.5 -10t9.5 -23t-9.5 -23t-22.5 -10z" />
    <glyph glyph-name="uni1ECE" unicode="&#x1ece;" horiz-adv-x="863" 
d="M432 -8q-101 0 -186.5 50t-135.5 136t-50 187q0 100 50 185.5t135.5 135.5t186.5 50t186 -50t135 -135.5t50 -185.5q0 -101 -50 -187t-135 -136t-186 -50zM432 25q92 0 169.5 45.5t123 123.5t45.5 172q0 92 -45.5 169.5t-123 122.5t-169.5 45t-170 -45t-123.5 -122.5
t-45.5 -169.5q0 -94 45.5 -172t123.5 -123.5t170 -45.5zM405 839q39 0 58.5 14t19.5 38q0 22 -17 36t-46 14q-21 0 -42.5 -7.5t-29.5 -15.5l-16 28q14 12 38.5 20t48.5 8q30 0 52 -11t33.5 -30.5t11.5 -42.5q0 -37 -29 -60.5t-82 -23.5v33z" />
    <glyph glyph-name="uni1ECF" unicode="&#x1ecf;" horiz-adv-x="661" 
d="M331 -5q-77 0 -141.5 38t-102 102.5t-37.5 140.5t37.5 140.5t102 102t141.5 37.5q76 0 140 -37.5t102 -102t38 -140.5t-38 -140.5t-102 -102.5t-140 -38zM331 28q66 0 123 33.5t90.5 90.5t33.5 124t-33.5 123.5t-90.5 90t-123 33.5q-67 0 -124 -33.5t-90.5 -90
t-33.5 -123.5t33.5 -124t90.5 -90.5t124 -33.5zM312 669q39 0 58.5 14t19.5 38q0 22 -17 36t-46 14q-21 0 -42.5 -7.5t-29.5 -15.5l-16 28q14 12 38.5 20t48.5 8q30 0 52 -11t33.5 -30.5t11.5 -42.5q0 -37 -29 -60.5t-82 -23.5v33z" />
    <glyph glyph-name="uni1ED0" unicode="&#x1ed0;" horiz-adv-x="863" 
d="M432 -8q-101 0 -186.5 50t-135.5 136t-50 187q0 100 50 185.5t135.5 135.5t186.5 50t186 -50t135 -135.5t50 -185.5q0 -101 -50 -187t-135 -136t-186 -50zM432 25q92 0 169.5 45.5t123 123.5t45.5 172q0 92 -45.5 169.5t-123 122.5t-169.5 45t-170 -45t-123.5 -122.5
t-45.5 -169.5q0 -94 45.5 -172t123.5 -123.5t170 -45.5zM273 792l108 120h44l108 -120h-44l-86 96l-86 -96h-44zM466 911l65 148h35l-70 -148h-30z" />
    <glyph glyph-name="uni1ED1" unicode="&#x1ed1;" horiz-adv-x="661" 
d="M331 -5q-77 0 -141.5 38t-102 102.5t-37.5 140.5t37.5 140.5t102 102t141.5 37.5q76 0 140 -37.5t102 -102t38 -140.5t-38 -140.5t-102 -102.5t-140 -38zM331 28q66 0 123 33.5t90.5 90.5t33.5 124t-33.5 123.5t-90.5 90t-123 33.5q-67 0 -124 -33.5t-90.5 -90
t-33.5 -123.5t33.5 -124t90.5 -90.5t124 -33.5zM184 627l108 120h44l108 -120h-44l-86 96l-86 -96h-44zM377 746l65 148h35l-70 -148h-30z" />
    <glyph glyph-name="uni1ED2" unicode="&#x1ed2;" horiz-adv-x="863" 
d="M432 -8q-101 0 -186.5 50t-135.5 136t-50 187q0 100 50 185.5t135.5 135.5t186.5 50t186 -50t135 -135.5t50 -185.5q0 -101 -50 -187t-135 -136t-186 -50zM432 25q92 0 169.5 45.5t123 123.5t45.5 172q0 92 -45.5 169.5t-123 122.5t-169.5 45t-170 -45t-123.5 -122.5
t-45.5 -169.5q0 -94 45.5 -172t123.5 -123.5t170 -45.5zM289 793l108 120h44l108 -120h-44l-86 96l-86 -96h-44zM325 909l-70 148h35l65 -148h-30z" />
    <glyph glyph-name="uni1ED3" unicode="&#x1ed3;" horiz-adv-x="661" 
d="M331 -5q-77 0 -141.5 38t-102 102.5t-37.5 140.5t37.5 140.5t102 102t141.5 37.5q76 0 140 -37.5t102 -102t38 -140.5t-38 -140.5t-102 -102.5t-140 -38zM331 28q66 0 123 33.5t90.5 90.5t33.5 124t-33.5 123.5t-90.5 90t-123 33.5q-67 0 -124 -33.5t-90.5 -90
t-33.5 -123.5t33.5 -124t90.5 -90.5t124 -33.5zM218 628l108 120h44l108 -120h-44l-86 96l-86 -96h-44zM254 744l-70 148h35l65 -148h-30z" />
    <glyph glyph-name="uni1ED4" unicode="&#x1ed4;" horiz-adv-x="863" 
d="M432 -8q-101 0 -186.5 50t-135.5 136t-50 187q0 100 50 185.5t135.5 135.5t186.5 50t186 -50t135 -135.5t50 -185.5q0 -101 -50 -187t-135 -136t-186 -50zM432 25q92 0 169.5 45.5t123 123.5t45.5 172q0 92 -45.5 169.5t-123 122.5t-169.5 45t-170 -45t-123.5 -122.5
t-45.5 -169.5q0 -94 45.5 -172t123.5 -123.5t170 -45.5zM265 787l108 120h44l108 -120h-44l-86 96l-86 -96h-44zM462 929q39 0 58.5 14t19.5 38q0 22 -17 36t-46 14q-21 0 -42.5 -7.5t-29.5 -15.5l-16 28q14 12 38.5 20t48.5 8q30 0 52 -11t33.5 -30.5t11.5 -42.5
q0 -37 -29 -60.5t-82 -23.5v33z" />
    <glyph glyph-name="uni1ED5" unicode="&#x1ed5;" horiz-adv-x="661" 
d="M331 -5q-77 0 -141.5 38t-102 102.5t-37.5 140.5t37.5 140.5t102 102t141.5 37.5q76 0 140 -37.5t102 -102t38 -140.5t-38 -140.5t-102 -102.5t-140 -38zM331 28q66 0 123 33.5t90.5 90.5t33.5 124t-33.5 123.5t-90.5 90t-123 33.5q-67 0 -124 -33.5t-90.5 -90
t-33.5 -123.5t33.5 -124t90.5 -90.5t124 -33.5zM177 622l108 120h44l108 -120h-44l-86 96l-86 -96h-44zM374 764q39 0 58.5 14t19.5 38q0 22 -17 36t-46 14q-21 0 -42.5 -7.5t-29.5 -15.5l-16 28q14 12 38.5 20t48.5 8q30 0 52 -11t33.5 -30.5t11.5 -42.5q0 -37 -29 -60.5
t-82 -23.5v33z" />
    <glyph glyph-name="uni1ED6" unicode="&#x1ed6;" horiz-adv-x="863" 
d="M432 -8q-101 0 -186.5 50t-135.5 136t-50 187q0 100 50 185.5t135.5 135.5t186.5 50t186 -50t135 -135.5t50 -185.5q0 -101 -50 -187t-135 -136t-186 -50zM432 25q92 0 169.5 45.5t123 123.5t45.5 172q0 92 -45.5 169.5t-123 122.5t-169.5 45t-170 -45t-123.5 -122.5
t-45.5 -169.5q0 -94 45.5 -172t123.5 -123.5t170 -45.5zM279 800l108 120h44l108 -120h-44l-86 96l-86 -96h-44zM493 935q-25 -3 -44 9t-42 35q-18 18 -30 26.5t-25 7.5q-18 -1 -29 -19.5t-11 -50.5h-33q0 46 20 73.5t51 29.5q24 2 41.5 -9.5t38.5 -33.5q17 -18 30.5 -27.5
t29.5 -8.5t26 18.5t10 51.5h33q0 -47 -18.5 -73t-47.5 -29z" />
    <glyph glyph-name="uni1ED7" unicode="&#x1ed7;" horiz-adv-x="661" 
d="M331 -5q-77 0 -141.5 38t-102 102.5t-37.5 140.5t37.5 140.5t102 102t141.5 37.5q76 0 140 -37.5t102 -102t38 -140.5t-38 -140.5t-102 -102.5t-140 -38zM331 28q66 0 123 33.5t90.5 90.5t33.5 124t-33.5 123.5t-90.5 90t-123 33.5q-67 0 -124 -33.5t-90.5 -90
t-33.5 -123.5t33.5 -124t90.5 -90.5t124 -33.5zM191 635l108 120h44l108 -120h-44l-86 96l-86 -96h-44zM405 770q-25 -3 -44 9t-42 35q-18 18 -30 26.5t-25 7.5q-18 -1 -29 -19.5t-11 -50.5h-33q0 46 20 73.5t51 29.5q24 2 41.5 -9.5t38.5 -33.5q17 -18 30.5 -27.5
t29.5 -8.5t26 18.5t10 51.5h33q0 -47 -18.5 -73t-47.5 -29z" />
    <glyph glyph-name="uni1ED8" unicode="&#x1ed8;" horiz-adv-x="863" 
d="M432 -8q-101 0 -186.5 50t-135.5 136t-50 187q0 100 50 185.5t135.5 135.5t186.5 50t186 -50t135 -135.5t50 -185.5q0 -101 -50 -187t-135 -136t-186 -50zM432 25q92 0 169.5 45.5t123 123.5t45.5 172q0 92 -45.5 169.5t-123 122.5t-169.5 45t-170 -45t-123.5 -122.5
t-45.5 -169.5q0 -94 45.5 -172t123.5 -123.5t170 -45.5zM289 830l108 120h44l108 -120h-44l-86 96l-86 -96h-44zM420 -133q-13 0 -23 9.5t-10 23.5q0 13 10 23t23 10t22.5 -10t9.5 -23t-9.5 -23t-22.5 -10z" />
    <glyph glyph-name="uni1ED9" unicode="&#x1ed9;" horiz-adv-x="661" 
d="M331 -5q-77 0 -141.5 38t-102 102.5t-37.5 140.5t37.5 140.5t102 102t141.5 37.5q76 0 140 -37.5t102 -102t38 -140.5t-38 -140.5t-102 -102.5t-140 -38zM331 28q66 0 123 33.5t90.5 90.5t33.5 124t-33.5 123.5t-90.5 90t-123 33.5q-67 0 -124 -33.5t-90.5 -90
t-33.5 -123.5t33.5 -124t90.5 -90.5t124 -33.5zM201 660l108 120h44l108 -120h-44l-86 96l-86 -96h-44zM331 -133q-13 0 -23 9.5t-10 23.5q0 13 10 23t23 10t22.5 -10t9.5 -23t-9.5 -23t-22.5 -10z" />
    <glyph glyph-name="uni1EDA" unicode="&#x1eda;" horiz-adv-x="863" 
d="M432 -8q-101 0 -186.5 50t-135.5 136t-50 187q0 100 50 185.5t135.5 135.5t186.5 50q75 0 142.5 -28t118.5 -79q18 2 32.5 15t14.5 31v87h33v-88q0 -26 -16 -44.5t-41 -25.5q41 -50 64 -111t23 -128q0 -101 -50 -187t-135 -136t-186 -50zM432 25q92 0 169.5 45.5
t123 123.5t45.5 172q0 92 -45.5 169.5t-123 122.5t-169.5 45t-170 -45t-123.5 -122.5t-45.5 -169.5q0 -94 45.5 -172t123.5 -123.5t170 -45.5zM382 816l65 148h35l-70 -148h-30z" />
    <glyph glyph-name="uni1EDB" unicode="&#x1edb;" horiz-adv-x="661" 
d="M331 -5q-77 0 -141.5 38t-102 102.5t-37.5 140.5t37.5 140.5t102 102t141.5 37.5q57 0 108 -21.5t90 -60.5q17 4 29.5 16.5t12.5 28.5v87h33v-88q0 -25 -15 -43t-38 -26q29 -36 44.5 -80.5t15.5 -92.5q0 -76 -38 -140.5t-102 -102.5t-140 -38zM331 28q66 0 123 33.5
t90.5 90.5t33.5 124t-33.5 123.5t-90.5 90t-123 33.5q-67 0 -124 -33.5t-90.5 -90t-33.5 -123.5t33.5 -124t90.5 -90.5t124 -33.5zM311 646l65 148h35l-70 -148h-30z" />
    <glyph glyph-name="uni1EDC" unicode="&#x1edc;" horiz-adv-x="863" 
d="M432 -8q-101 0 -186.5 50t-135.5 136t-50 187q0 100 50 185.5t135.5 135.5t186.5 50q75 0 142.5 -28t118.5 -79q18 2 32.5 15t14.5 31v87h33v-88q0 -26 -16 -44.5t-41 -25.5q41 -50 64 -111t23 -128q0 -101 -50 -187t-135 -136t-186 -50zM432 25q92 0 169.5 45.5
t123 123.5t45.5 172q0 92 -45.5 169.5t-123 122.5t-169.5 45t-170 -45t-123.5 -122.5t-45.5 -169.5q0 -94 45.5 -172t123.5 -123.5t170 -45.5zM402 816l-70 148h35l65 -148h-30z" />
    <glyph glyph-name="uni1EDD" unicode="&#x1edd;" horiz-adv-x="661" 
d="M331 -5q-77 0 -141.5 38t-102 102.5t-37.5 140.5t37.5 140.5t102 102t141.5 37.5q57 0 108 -21.5t90 -60.5q17 4 29.5 16.5t12.5 28.5v87h33v-88q0 -25 -15 -43t-38 -26q29 -36 44.5 -80.5t15.5 -92.5q0 -76 -38 -140.5t-102 -102.5t-140 -38zM331 28q66 0 123 33.5
t90.5 90.5t33.5 124t-33.5 123.5t-90.5 90t-123 33.5q-67 0 -124 -33.5t-90.5 -90t-33.5 -123.5t33.5 -124t90.5 -90.5t124 -33.5zM331 646l-70 148h35l65 -148h-30z" />
    <glyph glyph-name="uni1EDE" unicode="&#x1ede;" horiz-adv-x="863" 
d="M432 -8q-101 0 -186.5 50t-135.5 136t-50 187q0 100 50 185.5t135.5 135.5t186.5 50q75 0 142.5 -28t118.5 -79q18 2 32.5 15t14.5 31v87h33v-88q0 -26 -16 -44.5t-41 -25.5q41 -50 64 -111t23 -128q0 -101 -50 -187t-135 -136t-186 -50zM432 25q92 0 169.5 45.5
t123 123.5t45.5 172q0 92 -45.5 169.5t-123 122.5t-169.5 45t-170 -45t-123.5 -122.5t-45.5 -169.5q0 -94 45.5 -172t123.5 -123.5t170 -45.5zM413 839q39 0 58.5 14t19.5 38q0 22 -17 36t-46 14q-21 0 -42.5 -7.5t-29.5 -15.5l-16 28q14 12 38.5 20t48.5 8q30 0 52 -11
t33.5 -30.5t11.5 -42.5q0 -37 -29 -60.5t-82 -23.5v33z" />
    <glyph glyph-name="uni1EDF" unicode="&#x1edf;" horiz-adv-x="661" 
d="M331 -5q-77 0 -141.5 38t-102 102.5t-37.5 140.5t37.5 140.5t102 102t141.5 37.5q57 0 108 -21.5t90 -60.5q17 4 29.5 16.5t12.5 28.5v87h33v-88q0 -25 -15 -43t-38 -26q29 -36 44.5 -80.5t15.5 -92.5q0 -76 -38 -140.5t-102 -102.5t-140 -38zM331 28q66 0 123 33.5
t90.5 90.5t33.5 124t-33.5 123.5t-90.5 90t-123 33.5q-67 0 -124 -33.5t-90.5 -90t-33.5 -123.5t33.5 -124t90.5 -90.5t124 -33.5zM312 669q39 0 58.5 14t19.5 38q0 22 -17 36t-46 14q-21 0 -42.5 -7.5t-29.5 -15.5l-16 28q14 12 38.5 20t48.5 8q30 0 52 -11t33.5 -30.5
t11.5 -42.5q0 -37 -29 -60.5t-82 -23.5v33z" />
    <glyph glyph-name="uni1EE0" unicode="&#x1ee0;" horiz-adv-x="863" 
d="M432 -8q-101 0 -186.5 50t-135.5 136t-50 187q0 100 50 185.5t135.5 135.5t186.5 50q75 0 142.5 -28t118.5 -79q18 2 32.5 15t14.5 31v87h33v-88q0 -26 -16 -44.5t-41 -25.5q41 -50 64 -111t23 -128q0 -101 -50 -187t-135 -136t-186 -50zM432 25q92 0 169.5 45.5
t123 123.5t45.5 172q0 92 -45.5 169.5t-123 122.5t-169.5 45t-170 -45t-123.5 -122.5t-45.5 -169.5q0 -94 45.5 -172t123.5 -123.5t170 -45.5zM493 836q-25 -3 -44 9t-42 35q-18 18 -30 26.5t-25 7.5q-18 -1 -29 -19.5t-11 -50.5h-33q0 46 20.5 73.5t50.5 29.5q24 2 40.5 -9
t39.5 -34q17 -18 30.5 -27.5t29.5 -8.5t26 18.5t10 51.5h33q0 -47 -18.5 -73.5t-47.5 -28.5z" />
    <glyph glyph-name="uni1EE1" unicode="&#x1ee1;" horiz-adv-x="661" 
d="M331 -5q-77 0 -141.5 38t-102 102.5t-37.5 140.5t37.5 140.5t102 102t141.5 37.5q57 0 108 -21.5t90 -60.5q17 4 29.5 16.5t12.5 28.5v87h33v-88q0 -25 -15 -43t-38 -26q29 -36 44.5 -80.5t15.5 -92.5q0 -76 -38 -140.5t-102 -102.5t-140 -38zM331 28q66 0 123 33.5
t90.5 90.5t33.5 124t-33.5 123.5t-90.5 90t-123 33.5q-67 0 -124 -33.5t-90.5 -90t-33.5 -123.5t33.5 -124t90.5 -90.5t124 -33.5zM405 666q-25 -3 -44 9t-42 35q-18 18 -30 26.5t-25 7.5q-18 -1 -29 -19.5t-11 -50.5h-33q0 46 20 73.5t51 29.5q24 2 41.5 -9.5t38.5 -33.5
q17 -18 30.5 -27.5t29.5 -8.5t26 18.5t10 51.5h33q0 -47 -18.5 -73t-47.5 -29z" />
    <glyph glyph-name="uni1EE2" unicode="&#x1ee2;" horiz-adv-x="863" 
d="M432 -8q-101 0 -186.5 50t-135.5 136t-50 187q0 100 50 185.5t135.5 135.5t186.5 50q75 0 142.5 -28t118.5 -79q18 2 32.5 15t14.5 31v87h33v-88q0 -26 -16 -44.5t-41 -25.5q41 -50 64 -111t23 -128q0 -101 -50 -187t-135 -136t-186 -50zM432 25q92 0 169.5 45.5
t123 123.5t45.5 172q0 92 -45.5 169.5t-123 122.5t-169.5 45t-170 -45t-123.5 -122.5t-45.5 -169.5q0 -94 45.5 -172t123.5 -123.5t170 -45.5zM432 -133q-13 0 -23 9.5t-10 23.5q0 13 10 23t23 10t22.5 -10t9.5 -23t-9.5 -23t-22.5 -10z" />
    <glyph glyph-name="uni1EE3" unicode="&#x1ee3;" horiz-adv-x="661" 
d="M331 -5q-77 0 -141.5 38t-102 102.5t-37.5 140.5t37.5 140.5t102 102t141.5 37.5q57 0 108 -21.5t90 -60.5q17 4 29.5 16.5t12.5 28.5v87h33v-88q0 -25 -15 -43t-38 -26q29 -36 44.5 -80.5t15.5 -92.5q0 -76 -38 -140.5t-102 -102.5t-140 -38zM331 28q66 0 123 33.5
t90.5 90.5t33.5 124t-33.5 123.5t-90.5 90t-123 33.5q-67 0 -124 -33.5t-90.5 -90t-33.5 -123.5t33.5 -124t90.5 -90.5t124 -33.5zM331 -133q-13 0 -23 9.5t-10 23.5q0 13 10 23t23 10t22.5 -10t9.5 -23t-9.5 -23t-22.5 -10z" />
    <glyph glyph-name="uni1EE4" unicode="&#x1ee4;" horiz-adv-x="730" 
d="M366 -6q-78 0 -140.5 34t-99 98.5t-36.5 152.5v451h33v-450q0 -82 31.5 -139t85 -85.5t121.5 -28.5q69 0 124.5 28.5t88.5 85.5t33 139v450h33v-451q0 -88 -36.5 -152.5t-99 -98.5t-138.5 -34zM366 -133q-13 0 -23 9.5t-10 23.5q0 13 10 23t23 10t22.5 -10t9.5 -23
t-9.5 -23t-22.5 -10z" />
    <glyph glyph-name="uni1EE5" unicode="&#x1ee5;" 
d="M311 -5q-67 0 -120.5 31.5t-84.5 94t-31 151.5v278h33v-278q0 -81 27 -135.5t72.5 -81.5t103.5 -27t103.5 27t72.5 81.5t27 135.5v278h33v-550h-33v123q-24 -56 -76.5 -92t-126.5 -36zM312 -133q-13 0 -23 9.5t-10 23.5q0 13 10 23t23 10t22.5 -10t9.5 -23t-9.5 -23
t-22.5 -10z" />
    <glyph glyph-name="uni1EE6" unicode="&#x1ee6;" horiz-adv-x="730" 
d="M366 -6q-78 0 -140.5 34t-99 98.5t-36.5 152.5v451h33v-450q0 -82 31.5 -139t85 -85.5t121.5 -28.5q69 0 124.5 28.5t88.5 85.5t33 139v450h33v-451q0 -88 -36.5 -152.5t-99 -98.5t-138.5 -34zM324 839q39 0 58.5 14t19.5 38q0 22 -17 36t-46 14q-21 0 -42.5 -7.5
t-29.5 -15.5l-16 28q14 12 38.5 20t48.5 8q30 0 52 -11t33.5 -30.5t11.5 -42.5q0 -37 -29 -60.5t-82 -23.5v33z" />
    <glyph glyph-name="uni1EE7" unicode="&#x1ee7;" 
d="M311 -5q-67 0 -120.5 31.5t-84.5 94t-31 151.5v278h33v-278q0 -81 27 -135.5t72.5 -81.5t103.5 -27t103.5 27t72.5 81.5t27 135.5v278h33v-550h-33v123q-24 -56 -76.5 -92t-126.5 -36zM291 669q39 0 58.5 14t19.5 38q0 22 -17 36t-46 14q-21 0 -42.5 -7.5t-29.5 -15.5
l-16 28q14 12 38.5 20t48.5 8q30 0 52 -11t33.5 -30.5t11.5 -42.5q0 -37 -29 -60.5t-82 -23.5v33z" />
    <glyph glyph-name="uni1EE8" unicode="&#x1ee8;" horiz-adv-x="730" 
d="M366 -6q-78 0 -140.5 34t-99 98.5t-36.5 152.5v451h33v-450q0 -82 31.5 -139t85 -85.5t121.5 -28.5q69 0 124.5 28.5t88.5 85.5t33 139v450h20q18 0 25.5 10t7.5 27v62h33v-63q0 -30 -13 -47.5t-40 -20.5v-419q0 -88 -36.5 -152.5t-99 -98.5t-138.5 -34zM324 816l65 148
h35l-70 -148h-30z" />
    <glyph glyph-name="uni1EE9" unicode="&#x1ee9;" 
d="M311 -5q-67 0 -120.5 31.5t-84.5 94t-31 151.5v278h33v-278q0 -81 27 -135.5t72.5 -81.5t103.5 -27t103.5 27t72.5 81.5t27 135.5v278h31q26 6 26 32v87h33v-88q0 -25 -15.5 -39t-41.5 -18v-524h-33v123q-24 -56 -76.5 -92t-126.5 -36zM280 646l65 148h35l-70 -148h-30z
" />
    <glyph glyph-name="uni1EEA" unicode="&#x1eea;" horiz-adv-x="730" 
d="M366 -6q-78 0 -140.5 34t-99 98.5t-36.5 152.5v451h33v-450q0 -82 31.5 -139t85 -85.5t121.5 -28.5q69 0 124.5 28.5t88.5 85.5t33 139v450h20q18 0 25.5 10t7.5 27v62h33v-63q0 -30 -13 -47.5t-40 -20.5v-419q0 -88 -36.5 -152.5t-99 -98.5t-138.5 -34zM354 816l-70 148
h35l65 -148h-30z" />
    <glyph glyph-name="uni1EEB" unicode="&#x1eeb;" 
d="M311 -5q-67 0 -120.5 31.5t-84.5 94t-31 151.5v278h33v-278q0 -81 27 -135.5t72.5 -81.5t103.5 -27t103.5 27t72.5 81.5t27 135.5v278h31q26 6 26 32v87h33v-88q0 -25 -15.5 -39t-41.5 -18v-524h-33v123q-24 -56 -76.5 -92t-126.5 -36zM310 646l-70 148h35l65 -148h-30z
" />
    <glyph glyph-name="uni1EEC" unicode="&#x1eec;" horiz-adv-x="730" 
d="M366 -6q-78 0 -140.5 34t-99 98.5t-36.5 152.5v451h33v-450q0 -82 31.5 -139t85 -85.5t121.5 -28.5q69 0 124.5 28.5t88.5 85.5t33 139v450h20q18 0 25.5 10t7.5 27v62h33v-63q0 -30 -13 -47.5t-40 -20.5v-419q0 -88 -36.5 -152.5t-99 -98.5t-138.5 -34zM350 839
q39 0 58.5 14t19.5 38q0 22 -17 36t-46 14q-21 0 -42.5 -7.5t-29.5 -15.5l-16 28q14 12 38.5 20t48.5 8q30 0 52 -11t33.5 -30.5t11.5 -42.5q0 -37 -29 -60.5t-82 -23.5v33z" />
    <glyph glyph-name="uni1EED" unicode="&#x1eed;" 
d="M311 -5q-67 0 -120.5 31.5t-84.5 94t-31 151.5v278h33v-278q0 -81 27 -135.5t72.5 -81.5t103.5 -27t103.5 27t72.5 81.5t27 135.5v278h31q26 6 26 32v87h33v-88q0 -25 -15.5 -39t-41.5 -18v-524h-33v123q-24 -56 -76.5 -92t-126.5 -36zM291 669q39 0 58.5 14t19.5 38
q0 22 -17 36t-46 14q-21 0 -42.5 -7.5t-29.5 -15.5l-16 28q14 12 38.5 20t48.5 8q30 0 52 -11t33.5 -30.5t11.5 -42.5q0 -37 -29 -60.5t-82 -23.5v33z" />
    <glyph glyph-name="uni1EEE" unicode="&#x1eee;" horiz-adv-x="730" 
d="M366 -6q-78 0 -140.5 34t-99 98.5t-36.5 152.5v451h33v-450q0 -82 31.5 -139t85 -85.5t121.5 -28.5q69 0 124.5 28.5t88.5 85.5t33 139v450h20q18 0 25.5 10t7.5 27v62h33v-63q0 -30 -13 -47.5t-40 -20.5v-419q0 -88 -36.5 -152.5t-99 -98.5t-138.5 -34zM438 836
q-25 -3 -44 9t-42 35q-18 18 -30 26.5t-25 7.5q-18 -1 -29 -19.5t-11 -50.5h-33q0 46 20.5 73.5t50.5 29.5q24 2 40.5 -9t39.5 -34q17 -18 30.5 -27.5t29.5 -8.5t26 18.5t10 51.5h33q0 -47 -18.5 -73.5t-47.5 -28.5z" />
    <glyph glyph-name="uni1EEF" unicode="&#x1eef;" 
d="M311 -5q-67 0 -120.5 31.5t-84.5 94t-31 151.5v278h33v-278q0 -81 27 -135.5t72.5 -81.5t103.5 -27t103.5 27t72.5 81.5t27 135.5v278h31q26 6 26 32v87h33v-88q0 -25 -15.5 -39t-41.5 -18v-524h-33v123q-24 -56 -76.5 -92t-126.5 -36zM384 666q-25 -3 -43.5 9t-42.5 35
q-18 18 -30 26.5t-25 7.5q-18 -1 -29 -19.5t-11 -50.5h-33q0 46 20 73.5t51 29.5q24 2 41.5 -9.5t38.5 -33.5q17 -18 30.5 -27.5t29.5 -8.5t26 18.5t10 51.5h33q0 -47 -18.5 -73t-47.5 -29z" />
    <glyph glyph-name="uni1EF0" unicode="&#x1ef0;" horiz-adv-x="730" 
d="M366 -6q-78 0 -140.5 34t-99 98.5t-36.5 152.5v451h33v-450q0 -82 31.5 -139t85 -85.5t121.5 -28.5q69 0 124.5 28.5t88.5 85.5t33 139v450h20q18 0 25.5 10t7.5 27v62h33v-63q0 -30 -13 -47.5t-40 -20.5v-419q0 -88 -36.5 -152.5t-99 -98.5t-138.5 -34zM366 -133
q-13 0 -23 9.5t-10 23.5q0 13 10 23t23 10t22.5 -10t9.5 -23t-9.5 -23t-22.5 -10z" />
    <glyph glyph-name="uni1EF1" unicode="&#x1ef1;" 
d="M311 -5q-67 0 -120.5 31.5t-84.5 94t-31 151.5v278h33v-278q0 -81 27 -135.5t72.5 -81.5t103.5 -27t103.5 27t72.5 81.5t27 135.5v278h31q26 6 26 32v87h33v-88q0 -25 -15.5 -39t-41.5 -18v-524h-33v123q-24 -56 -76.5 -92t-126.5 -36zM340 -133q-13 0 -23 9.5t-10 23.5
q0 13 10 23t23 10t22.5 -10t9.5 -23t-9.5 -23t-22.5 -10z" />
    <glyph glyph-name="Ygrave" unicode="&#x1ef2;" horiz-adv-x="640" 
d="M303 0v326l-283 404h41l259 -371l259 371h41l-284 -406v-324h-33zM299 816l-70 148h35l65 -148h-30z" />
    <glyph glyph-name="ygrave" unicode="&#x1ef3;" horiz-adv-x="560" 
d="M111 -220q-26 0 -46.5 5t-44.5 16l13 31q18 -9 37.5 -14t40.5 -5q36 0 63 23t46 58t48 100q0 2 0.5 3.5t1.5 2.5l-234 550h36l216 -508l216 508h36l-234 -550q-37 -84 -62 -128t-56.5 -68t-76.5 -24zM300 646l-70 148h35l65 -148h-30z" />
    <glyph glyph-name="uni1EF4" unicode="&#x1ef4;" horiz-adv-x="640" 
d="M303 0v326l-283 404h41l259 -371l259 371h41l-284 -406v-324h-33zM321 -133q-13 0 -23 9.5t-10 23.5q0 13 10 23t23 10t22.5 -10t9.5 -23t-9.5 -23t-22.5 -10z" />
    <glyph glyph-name="uni1EF4" unicode="&#x1ef5;" horiz-adv-x="640" 
d="M303 0v326l-283 404h41l259 -371l259 371h41l-284 -406v-324h-33zM321 -133q-13 0 -23 9.5t-10 23.5q0 13 10 23t23 10t22.5 -10t9.5 -23t-9.5 -23t-22.5 -10z" />
    <glyph glyph-name="uni1EF6" unicode="&#x1ef6;" horiz-adv-x="640" 
d="M303 0v326l-283 404h41l259 -371l259 371h41l-284 -406v-324h-33zM301 839q39 0 58.5 14t19.5 38q0 22 -17 36t-46 14q-21 0 -42.5 -7.5t-29.5 -15.5l-16 28q14 12 38.5 20t48.5 8q30 0 52 -11t33.5 -30.5t11.5 -42.5q0 -37 -29 -60.5t-82 -23.5v33z" />
    <glyph glyph-name="uni1EF7" unicode="&#x1ef7;" horiz-adv-x="560" 
d="M111 -220q-26 0 -46.5 5t-44.5 16l13 31q18 -9 37.5 -14t40.5 -5q36 0 63 23t46 58t48 100q0 2 0.5 3.5t1.5 2.5l-234 550h36l216 -508l216 508h36l-234 -550q-37 -84 -62 -128t-56.5 -68t-76.5 -24zM261 669q39 0 58.5 14t19.5 38q0 22 -17 36t-46 14q-21 0 -42.5 -7.5
t-29.5 -15.5l-16 28q14 12 38.5 20t48.5 8q30 0 52 -11t33.5 -30.5t11.5 -42.5q0 -37 -29 -60.5t-82 -23.5v33z" />
    <glyph glyph-name="uni1EF8" unicode="&#x1ef8;" horiz-adv-x="640" 
d="M303 0v326l-283 404h41l259 -371l259 371h41l-284 -406v-324h-33zM394 836q-25 -3 -43.5 8.5t-42.5 35.5q-18 18 -30 26.5t-25 7.5q-18 -1 -29 -19.5t-11 -50.5h-33q0 46 20.5 73.5t50.5 29.5q24 2 40.5 -9t39.5 -34q17 -18 30.5 -27.5t29.5 -8.5t26 18.5t10 51.5h33
q0 -47 -18.5 -73.5t-47.5 -28.5z" />
    <glyph glyph-name="uni1EF9" unicode="&#x1ef9;" horiz-adv-x="560" 
d="M111 -220q-26 0 -46.5 5t-44.5 16l13 31q18 -9 37.5 -14t40.5 -5q36 0 63 23t46 58t48 100q0 2 0.5 3.5t1.5 2.5l-234 550h36l216 -508l216 508h36l-234 -550q-37 -84 -62 -128t-56.5 -68t-76.5 -24zM354 666q-25 -3 -44 9t-42 35q-18 18 -30 26.5t-25 7.5
q-18 -1 -29 -19.5t-11 -50.5h-33q0 46 20.5 73.5t50.5 29.5q24 2 40.5 -9t39.5 -34q17 -18 30.5 -27.5t29.5 -8.5t26 18.5t10 51.5h33q0 -47 -18.5 -73.5t-47.5 -28.5z" />
    <glyph glyph-name="endash" unicode="&#x2013;" horiz-adv-x="507" 
d="M40 308v33h426l1 -33h-427z" />
    <glyph glyph-name="emdash" unicode="&#x2014;" horiz-adv-x="993" 
d="M40 308v33h912l1 -33h-913z" />
    <glyph glyph-name="quoteleft" unicode="&#x2018;" horiz-adv-x="200" 
d="M60 532l50 198h30l-45 -198h-35z" />
    <glyph glyph-name="quoteright" unicode="&#x2019;" horiz-adv-x="140" 
d="M30 532l45 198h35l-50 -198h-30z" />
    <glyph glyph-name="quotesinglbase" unicode="&#x201a;" horiz-adv-x="180" 
d="M60 -140l25 198h35l-30 -198h-30z" />
    <glyph glyph-name="quotedblleft" unicode="&#x201c;" horiz-adv-x="315" 
d="M175 532l50 198h30l-45 -198h-35zM60 532l50 198h30l-45 -198h-35z" />
    <glyph glyph-name="quotedblright" unicode="&#x201d;" horiz-adv-x="315" 
d="M175 532l45 198h35l-50 -198h-30zM60 532l45 198h35l-50 -198h-30z" />
    <glyph glyph-name="quotedblbase" unicode="&#x201e;" horiz-adv-x="295" 
d="M175 -140l25 198h35l-30 -198h-30zM60 -140l25 198h35l-30 -198h-30z" />
    <glyph glyph-name="dagger" unicode="&#x2020;" horiz-adv-x="581" 
d="M274 0v534h-209v33h209v213h33v-213h208l1 -33h-209v-534h-33z" />
    <glyph glyph-name="daggerdbl" unicode="&#x2021;" horiz-adv-x="550" 
d="M258 0v255h-193v33h193v246h-193v33h193v213h33v-213h194v-33h-194v-246h194v-33h-194v-255h-33z" />
    <glyph glyph-name="bullet" unicode="&#x2022;" horiz-adv-x="385" 
d="M193 188q-42 0 -77 20.5t-55.5 55.5t-20.5 77t20.5 77t55.5 55.5t77 20.5t77 -20.5t55 -55.5t20 -77t-20 -77t-55 -55.5t-77 -20.5z" />
    <glyph glyph-name="ellipsis" unicode="&#x2026;" horiz-adv-x="535" 
d="M463 0q-13 0 -23 10t-10 23q0 14 10 23.5t23 9.5t22.5 -10t9.5 -23t-9.5 -23t-22.5 -10zM73 0q-13 0 -23 10t-10 23q0 14 10 23.5t23 9.5t22.5 -10t9.5 -23t-9.5 -23t-22.5 -10zM268 0q-13 0 -23 10t-10 23q0 14 10 23.5t23 9.5t22.5 -10t9.5 -23t-9.5 -23t-22.5 -10z
" />
    <glyph glyph-name="perthousand" unicode="&#x2030;" horiz-adv-x="1164" 
d="M177 0l404 781h37l-404 -781h-37zM198 390q-48 0 -84 24.5t-55 69t-19 103.5q0 58 19 101.5t55 67.5t84 24t83 -24t54 -67.5t19 -101.5q0 -59 -19 -103.5t-54 -69t-83 -24.5zM197 423q53 0 88.5 40t35.5 125q0 82 -35.5 120.5t-88.5 38.5q-52 0 -88 -39t-36 -120
q0 -85 36 -125t88 -40zM579 -10q-48 0 -84 24.5t-55 69t-19 103.5q0 58 19 101.5t55 67.5t84 24t83 -24t54 -67.5t19 -101.5q0 -59 -19 -103.5t-54 -69t-83 -24.5zM578 23q53 0 88.5 40t35.5 125q0 82 -35.5 120.5t-88.5 38.5q-52 0 -88 -39t-36 -120q0 -85 36 -125t88 -40z
M968 -10q-48 0 -84 24.5t-55 69t-19 103.5q0 58 19 101.5t55 67.5t84 24t83 -24t54 -67.5t19 -101.5q0 -59 -19 -103.5t-54 -69t-83 -24.5zM967 23q53 0 88.5 40t35.5 125q0 82 -35.5 120.5t-88.5 38.5q-52 0 -88 -39t-36 -120q0 -85 36 -125t88 -40z" />
    <glyph glyph-name="guilsinglleft" unicode="&#x2039;" horiz-adv-x="300" 
d="M199 185l-139 180l139 180h41l-138 -180l138 -180h-41z" />
    <glyph glyph-name="guilsinglright" unicode="&#x203a;" horiz-adv-x="300" 
d="M60 185l138 180l-138 180h41l139 -180l-139 -180h-41z" />
    <glyph glyph-name="fraction" unicode="&#x2044;" horiz-adv-x="431" 
d="M20 0l354 730h37l-354 -730h-37z" />
    <glyph glyph-name="franc" unicode="&#x20a3;" horiz-adv-x="606" 
d="M100 0v171h-60v33h60v526h456v-33h-423v-305h403v-33h-403v-155h280v-33h-280v-171h-33z" />
    <glyph glyph-name="lira" unicode="&#x20a4;" horiz-adv-x="640" 
d="M60 0v33h90v202h-70v33h70v146h-70v33h70q0 91 27 156.5t76.5 100t117.5 34.5q57 0 106.5 -29t80.5 -77l-28 -17q-26 41 -68 65.5t-91 24.5q-89 0 -138.5 -67.5t-49.5 -190.5h317v-33h-317v-146h317v-33h-317v-202h397v-33h-520z" />
    <glyph glyph-name="peseta" unicode="&#x20a7;" horiz-adv-x="712" 
d="M50 496v32h80v202h273q62 0 112 -27t80 -73t34 -102h73v-32h-74q-4 -55 -34.5 -100.5t-80 -71.5t-110.5 -26h-240v-298h-33v496h-80zM403 331q53 0 95 22.5t67 60t30 82.5h-432v-165h240zM595 528q-4 45 -28.5 83.5t-67 62t-96.5 23.5h-240v-169h432z" />
    <glyph glyph-name="Euro" unicode="&#x20ac;" horiz-adv-x="722" 
d="M412 -11q-79 0 -144.5 34t-109 97.5t-59.5 148.5h-59v33h54q-4 27 -4 63q0 16 1 32t3 31h-54v33h59q16 85 59.5 148.5t109 97.5t144.5 34q77 0 147 -30t123 -80l-25 -22q-42 43 -108 71t-137 28q-65 0 -123 -28t-99.5 -83.5t-57.5 -135.5h295l1 -33h-301l-3 -31
q-1 -8 -1 -16v-16q0 -36 4 -63h300l1 -33h-296q16 -80 57.5 -135.5t99 -83.5t123.5 -28q76 0 138 28.5t108 70.5l24 -22q-53 -50 -123 -80t-147 -30z" />
    <glyph glyph-name="uni2113" unicode="&#x2113;" horiz-adv-x="448" 
d="M239 -10q-61 0 -100 51.5t-39 142.5v103q-21 -3 -40 -3v33q20 0 40 3v298q0 49 17 85.5t48 56.5t71 20q50 0 84.5 -26.5t51.5 -68.5t16 -90q-1 -79 -37.5 -142t-94 -103.5t-123.5 -56.5v-110q0 -65 26.5 -112t82.5 -47q68 0 90.5 55t22.5 129h33q0 -96 -33 -157t-116 -61
zM133 327q61 16 112 56.5t80.5 96t29.5 115.5q0 73 -33.5 112.5t-87.5 39.5q-49 0 -75 -37t-26 -92v-291z" />
    <glyph glyph-name="uni2116" unicode="&#x2116;" horiz-adv-x="1133" 
d="M90 0v730h33l536 -677v677h33v-730h-33l-536 677v-677h-33zM773 297v33h320v-33h-320zM933 410q-44 0 -80.5 21.5t-58 58.5t-21.5 80q0 44 21.5 80.5t58 58t80.5 21.5q43 0 80 -21.5t58.5 -58t21.5 -80.5q0 -43 -21.5 -80t-58.5 -58.5t-80 -21.5zM933 444q34 0 63 17
t46 46t17 63t-17 62.5t-46 45.5t-63 17q-52 0 -88.5 -36.5t-36.5 -88.5q0 -34 17 -63t45.5 -46t62.5 -17z" />
    <glyph glyph-name="trademark" unicode="&#x2122;" horiz-adv-x="556" 
d="M257 550v230h33l87 -144l86 144h33v-230h-33v166l-75 -125h-23l-75 125v-166h-33zM97 550v198h-77v32h187v-32h-77v-198h-33z" />
    <glyph glyph-name="uni2126" unicode="&#x2126;" horiz-adv-x="863" 
d="M67 0v33h191q-90 47 -144 136t-54 197q0 100 50 185.5t135.5 135.5t186.5 50t186 -50t135 -135.5t50 -185.5q0 -108 -54.5 -197t-144.5 -136h191v-33h-280v33q73 18 131 66.5t91 118t33 149.5q0 92 -45.5 169.5t-123 122.5t-169.5 45q-93 0 -170.5 -45t-123 -122.5
t-45.5 -169.5q0 -79 33 -148.5t90.5 -118.5t130.5 -67v-33h-280z" />
    <glyph glyph-name="estimated" unicode="&#x212e;" horiz-adv-x="631" 
d="M329 -12q-78 0 -142 38.5t-100.5 104t-36.5 143.5t35.5 143.5t96.5 103.5t134 38q72 0 133 -38t96.5 -103.5t35.5 -143.5q0 -19 -1 -28h-408v-158q65 -59 157 -59q53 0 100 23.5t79 63.5l35 -21q-37 -50 -92.5 -78.5t-121.5 -28.5zM172 290h291v168q-30 28 -68 44t-79 16
t-77.5 -14.5t-66.5 -41.5v-172z" />
    <glyph glyph-name="uni2150" unicode="&#x2150;" horiz-adv-x="707" 
d="M39 0l404 781h37l-404 -781h-37zM75 336v411h-45v33h78v-444h-33zM437 0l198 411h-250v33h287v-33l-198 -411h-37z" />
    <glyph glyph-name="uni2151" unicode="&#x2151;" horiz-adv-x="704" 
d="M39 0l404 781h37l-404 -781h-37zM75 336v411h-45v33h78v-444h-33zM530 139q-52 -6 -95.5 13t-69 56.5t-25.5 84.5q0 42 22 78t59 57t81 21t81.5 -21t59 -57t21.5 -78q0 -33 -14.5 -61t-42.5 -58l-158 -174h-44zM505 170q35 0 64 17t45.5 45.5t16.5 60.5q0 33 -17 61.5
t-46 45t-63 16.5q-36 0 -66 -16.5t-48 -45t-18 -61.5t18 -61.5t48 -45t66 -16.5z" />
    <glyph glyph-name="uni2152" unicode="&#x2152;" horiz-adv-x="1010" 
d="M39 0l404 781h37l-404 -781h-37zM75 336v411h-45v33h78v-444h-33zM478 -1v411h-45v33h78v-444h-33zM783 -10q-56 0 -97.5 28.5t-64 80t-22.5 120.5q0 67 22.5 118t64 79t97.5 28t97 -28t63 -79t22 -118q0 -69 -22 -120.5t-63 -80t-97 -28.5zM782 23q64 0 107 48t43 149
q0 97 -43 144t-107 47t-107 -47t-43 -144q0 -101 43 -149t107 -48z" />
    <glyph glyph-name="onethird" unicode="&#x2153;" horiz-adv-x="677" 
d="M39 0l404 781h37l-404 -781h-37zM75 336v411h-45v33h78v-444h-33zM492 -10q-48 0 -86 23t-56 58l30 14q14 -27 44.5 -44.5t68.5 -17.5q46 0 76 26t30 68q0 41 -31.5 70t-76.5 29h-20v33h19q40 0 65.5 25.5t25.5 56.5q0 38 -26.5 59t-64.5 21q-27 0 -50 -12.5t-36 -33.5
l-27 18q17 27 47 44t65 17q53 0 89 -31t36 -81q0 -31 -16 -57t-44 -41q35 -16 56.5 -47.5t21.5 -70.5q0 -37 -19 -65.5t-51 -44.5t-70 -16z" />
    <glyph glyph-name="twothirds" unicode="&#x2154;" horiz-adv-x="845" 
d="M207 0l404 781h37l-404 -781h-37zM35 336v33l188 163q60 53 60 108q0 45 -28 78.5t-81 33.5q-42 0 -69.5 -27t-35.5 -56l-31 11q12 46 50 75.5t86 29.5q39 0 71.5 -18t51.5 -51t19 -76q0 -37 -20 -71t-53 -63l-158 -137h240v-33h-290zM660 -10q-48 0 -86 23t-56 58l30 14
q14 -27 44.5 -44.5t68.5 -17.5q46 0 76 26t30 68q0 41 -31.5 70t-76.5 29h-20v33h19q40 0 65.5 25.5t25.5 56.5q0 38 -26.5 59t-64.5 21q-27 0 -50 -12.5t-36 -33.5l-27 18q17 27 47 44t65 17q53 0 89 -31t36 -81q0 -31 -16 -57t-44 -41q35 -16 56.5 -47.5t21.5 -70.5
q0 -37 -19 -65.5t-51 -44.5t-70 -16z" />
    <glyph glyph-name="uni2155" unicode="&#x2155;" horiz-adv-x="722" 
d="M39 0l404 781h37l-404 -781h-37zM75 336v411h-45v33h78v-444h-33zM528 -8q-50 0 -90 28t-56 72l31 11q12 -34 44 -55.5t71 -21.5q50 0 85.5 35t35.5 84t-35.5 83.5t-85.5 34.5q-35 0 -63.5 -18.5t-44.5 -47.5l-3 -6h-32l17 251h271v-33h-239l-12 -156q45 43 106 43
q42 0 77.5 -20.5t56 -55t20.5 -75.5t-20.5 -76.5t-56 -56t-77.5 -20.5z" />
    <glyph glyph-name="uni2156" unicode="&#x2156;" horiz-adv-x="882" 
d="M207 0l404 781h37l-404 -781h-37zM35 336v33l188 163q60 53 60 108q0 45 -28 78.5t-81 33.5q-42 0 -69.5 -27t-35.5 -56l-31 11q12 46 50 75.5t86 29.5q39 0 71.5 -18t51.5 -51t19 -76q0 -37 -20 -71t-53 -63l-158 -137h240v-33h-290zM688 -9q-50 0 -90 29t-56 73l31 11
q12 -34 44 -55.5t71 -21.5q50 0 85.5 35t35.5 84t-35.5 83.5t-85.5 34.5q-35 0 -63.5 -18.5t-44.5 -47.5l-3 -6h-32l17 251h271v-33h-239l-12 -156q45 43 106 43q42 0 77.5 -20.5t56 -55t20.5 -75.5t-21 -77t-56 -57t-77 -21z" />
    <glyph glyph-name="uni2157" unicode="&#x2157;" horiz-adv-x="882" 
d="M207 0l404 781h37l-404 -781h-37zM177 325q-48 0 -86 23t-56 58l30 14q14 -27 44.5 -44.5t68.5 -17.5q46 0 76 26t30 68q0 41 -31.5 70t-76.5 29h-20v33h19q40 0 65.5 25.5t25.5 56.5q0 38 -26.5 59t-64.5 21q-27 0 -50 -12.5t-36 -33.5l-27 18q17 27 47 44t65 17
q53 0 89 -31t36 -81q0 -31 -16 -57t-44 -41q35 -16 56.5 -47.5t21.5 -70.5q0 -37 -19 -65.5t-51 -44.5t-70 -16zM688 -8q-50 0 -90 28t-56 72l31 11q12 -34 44 -55.5t71 -21.5q50 0 85.5 35t35.5 84t-35.5 83.5t-85.5 34.5q-35 0 -63.5 -18.5t-44.5 -47.5l-3 -6h-32l17 251
h271v-33h-239l-12 -156q45 43 106 43q42 0 77.5 -20.5t56 -55t20.5 -75.5t-20.5 -76.5t-56 -56t-77.5 -20.5z" />
    <glyph glyph-name="uni2158" unicode="&#x2158;" horiz-adv-x="882" 
d="M207 0l404 781h37l-404 -781h-37zM267 335v123h-247v33l247 288h33v-288h30v-33h-30v-123h-33zM63 491h204v238zM688 -8q-50 0 -90 28t-56 72l31 11q12 -34 44 -55.5t71 -21.5q50 0 85.5 35t35.5 84t-35.5 83.5t-85.5 34.5q-35 0 -63.5 -18.5t-44.5 -47.5l-3 -6h-32
l17 251h271v-33h-239l-12 -156q45 43 106 43q42 0 77.5 -20.5t56 -55t20.5 -75.5t-20.5 -76.5t-56 -56t-77.5 -20.5z" />
    <glyph glyph-name="uni2159" unicode="&#x2159;" horiz-adv-x="666" 
d="M39 0l404 781h37l-404 -781h-37zM75 336v411h-45v33h78v-444h-33zM464 -8q-44 0 -81.5 21t-59 57.5t-21.5 78.5q0 32 15 61t42 58l158 174h44l-125 -139q52 6 95.5 -13t69 -56.5t25.5 -84.5q0 -42 -22 -78t-59 -57.5t-81 -21.5zM461 26q36 0 66 16.5t48 45t18 61.5
t-18 61.5t-48 45t-66 16.5q-35 0 -64 -17t-45.5 -45.5t-16.5 -60.5q0 -33 17 -61.5t46 -45t63 -16.5z" />
    <glyph glyph-name="uni215A" unicode="&#x215a;" horiz-adv-x="860" 
d="M203 0l404 781h37l-404 -781h-37zM191 331q-50 0 -90 27.5t-56 71.5l31 11q12 -34 44 -55.5t71 -21.5q50 0 85.5 35t35.5 84t-35.5 83.5t-85.5 34.5q-35 0 -63.5 -18.5t-44.5 -47.5l-3 -6h-32l17 251h271v-33h-239l-12 -155q45 42 106 42q42 0 77.5 -20.5t56 -55
t20.5 -75.5t-20.5 -76t-56 -55.5t-77.5 -20.5zM658 -8q-44 0 -81.5 21t-59 57.5t-21.5 78.5q0 32 15 60t42 59l158 174h44l-125 -139q52 6 95.5 -13t69 -56.5t25.5 -84.5q0 -42 -22 -78t-59 -57.5t-81 -21.5zM655 26q36 0 66 16.5t48 45t18 61.5t-18 61.5t-48 45t-66 16.5
q-35 0 -64 -17t-45.5 -45.5t-16.5 -60.5q0 -33 17 -61.5t46 -45t63 -16.5z" />
    <glyph glyph-name="oneeighth" unicode="&#x215b;" horiz-adv-x="689" 
d="M39 0l404 781h37l-404 -781h-37zM75 336v411h-45v33h78v-444h-33zM494 -10q-41 0 -75.5 16t-55.5 46t-21 68q0 41 22.5 72.5t60.5 47.5q-28 14 -43.5 38t-15.5 56q0 31 17 56.5t46 39.5t64 14t63.5 -14t45.5 -39.5t17 -56.5q0 -30 -15.5 -54.5t-42.5 -39.5
q38 -15 60.5 -46t22.5 -71q0 -38 -20 -68.5t-54.5 -47.5t-75.5 -17zM494 23q49 0 83 28.5t34 71.5t-33.5 71t-84.5 28q-49 0 -83.5 -28.5t-34.5 -70.5q0 -44 33.5 -72t85.5 -28zM493 255q38 0 65.5 22t27.5 56t-27.5 56t-65.5 22q-39 0 -66.5 -22t-27.5 -56t27.5 -56
t66.5 -22z" />
    <glyph glyph-name="threeeighths" unicode="&#x215c;" horiz-adv-x="857" 
d="M207 0l404 781h37l-404 -781h-37zM177 325q-48 0 -86 23t-56 58l30 14q14 -27 44.5 -44.5t68.5 -17.5q46 0 76 26t30 68q0 41 -31.5 70t-76.5 29h-20v33h19q40 0 65.5 25.5t25.5 56.5q0 38 -26.5 59t-64.5 21q-27 0 -50 -12.5t-36 -33.5l-27 18q17 27 47 44t65 17
q53 0 89 -31t36 -81q0 -31 -16 -57t-44 -41q35 -16 56.5 -47.5t21.5 -70.5q0 -37 -19 -65.5t-51 -44.5t-70 -16zM662 -10q-41 0 -75.5 16t-55.5 46t-21 68q0 41 22.5 72.5t60.5 47.5q-28 14 -43.5 38t-15.5 56q0 31 17 56.5t46 39.5t64 14t63.5 -14t45.5 -39.5t17 -56.5
q0 -30 -15.5 -54.5t-42.5 -39.5q38 -15 60.5 -46t22.5 -71q0 -38 -20 -68.5t-54.5 -47.5t-75.5 -17zM662 23q49 0 83 28.5t34 71.5t-33.5 71t-84.5 28q-49 0 -83.5 -28.5t-34.5 -70.5q0 -44 33.5 -72t85.5 -28zM661 255q38 0 65.5 22t27.5 56t-27.5 56t-65.5 22
q-39 0 -66.5 -22t-27.5 -56t27.5 -56t66.5 -22z" />
    <glyph glyph-name="fiveeighths" unicode="&#x215d;" horiz-adv-x="853" 
d="M203 0l404 781h37l-404 -781h-37zM191 331q-50 0 -90 27.5t-56 71.5l31 11q12 -34 44 -55.5t71 -21.5q50 0 85.5 35t35.5 84t-35.5 83.5t-85.5 34.5q-35 0 -63.5 -18.5t-44.5 -47.5l-3 -6h-32l17 251h271v-33h-239l-12 -155q45 42 106 42q42 0 77.5 -20.5t56 -55
t20.5 -75.5t-20.5 -76t-56 -55.5t-77.5 -20.5zM658 -10q-41 0 -75.5 16t-55.5 46t-21 68q0 41 22.5 72.5t60.5 47.5q-28 14 -43.5 38t-15.5 56q0 31 17 56.5t46 39.5t64 14t63.5 -14t45.5 -39.5t17 -56.5q0 -30 -15.5 -54.5t-42.5 -39.5q38 -15 60.5 -46t22.5 -71
q0 -38 -20 -68.5t-54.5 -47.5t-75.5 -17zM658 23q49 0 83 28.5t34 71.5t-33.5 71t-84.5 28q-49 0 -83.5 -28.5t-34.5 -70.5q0 -44 33.5 -72t85.5 -28zM657 255q38 0 65.5 22t27.5 56t-27.5 56t-65.5 22q-39 0 -66.5 -22t-27.5 -56t27.5 -56t66.5 -22z" />
    <glyph glyph-name="seveneighths" unicode="&#x215e;" horiz-adv-x="724" 
d="M74 0l404 781h37l-404 -781h-37zM92 336l179 411h-251v33h287v-33l-179 -411h-36zM529 -10q-41 0 -75.5 16t-55.5 46t-21 68q0 41 22.5 72.5t60.5 47.5q-28 14 -43.5 38t-15.5 56q0 31 17 56.5t46 39.5t64 14t63.5 -14t45.5 -39.5t17 -56.5q0 -30 -15.5 -54.5
t-42.5 -39.5q38 -15 60.5 -46t22.5 -71q0 -38 -20 -68.5t-54.5 -47.5t-75.5 -17zM529 23q49 0 83 28.5t34 71.5t-33.5 71t-84.5 28q-49 0 -83.5 -28.5t-34.5 -70.5q0 -44 33.5 -72t85.5 -28zM528 255q38 0 65.5 22t27.5 56t-27.5 56t-65.5 22q-39 0 -66.5 -22t-27.5 -56
t27.5 -56t66.5 -22z" />
    <glyph glyph-name="arrowleft" unicode="&#x2190;" horiz-adv-x="800" 
d="M340 85l-280 280l280 280h47l-263 -263h616v-33h-617l264 -264h-47z" />
    <glyph glyph-name="arrowup" unicode="&#x2191;" horiz-adv-x="680" 
d="M323 25v616l-263 -263v47l280 280l280 -280v-47l-264 264v-617h-33z" />
    <glyph glyph-name="arrowright" unicode="&#x2192;" horiz-adv-x="800" 
d="M413 85l264 264h-617v33h616l-263 263h47l280 -280l-280 -280h-47z" />
    <glyph glyph-name="arrowdown" unicode="&#x2193;" horiz-adv-x="680" 
d="M340 25l-280 280v47l263 -263v616h33v-617l264 264v-47z" />
    <glyph glyph-name="arrowboth" unicode="&#x2194;" horiz-adv-x="874" 
d="M340 85l-280 280l280 280h47l-263 -263h626l-263 263h47l280 -280l-280 -280h-47l264 264h-628l264 -264h-47z" />
    <glyph glyph-name="arrowupdn" unicode="&#x2195;" horiz-adv-x="680" 
d="M340 -12l-280 280v47l263 -263v626l-263 -263v47l280 280l280 -280v-47l-264 264v-628l264 264v-47z" />
    <glyph glyph-name="uni2196" unicode="&#x2196;" horiz-adv-x="612" 
d="M528 125l-435 435v-372l-33 33v396h396l33 -33h-373l436 -436z" />
    <glyph glyph-name="uni2197" unicode="&#x2197;" horiz-adv-x="612" 
d="M84 125l-24 23l436 436h-373l33 33h396v-396l-33 -33v372z" />
    <glyph glyph-name="uni2198" unicode="&#x2198;" horiz-adv-x="612" 
d="M156 125l-33 33h373l-436 436l24 23l435 -435v372l33 -33v-396h-396z" />
    <glyph glyph-name="uni2199" unicode="&#x2199;" horiz-adv-x="612" 
d="M60 125v396l33 33v-372l435 435l24 -23l-436 -436h373l-33 -33h-396z" />
    <glyph glyph-name="partialdiff" unicode="&#x2202;" horiz-adv-x="602" 
d="M252 -8q-61 0 -110.5 34.5t-74 93.5t-15.5 127t48.5 126.5t98 92.5t122.5 34t113.5 -35t72.5 -93q12 92 -1 166t-53 117t-106 43q-52 0 -90.5 -17t-73.5 -53l-23 27q44 43 89.5 63t102.5 20q73 0 122 -47.5t68 -132.5t4 -193q-6 -46 -14 -85.5t-19 -73.5
q-31 -99 -100 -156.5t-161 -57.5zM257 32q54 0 102.5 30t81.5 79.5t40 105.5q7 58 -11 107t-58 78t-96 29q-53 0 -102 -29t-82 -78.5t-40 -106.5q-8 -58 11.5 -107.5t60 -78.5t93.5 -29z" />
    <glyph glyph-name="product" unicode="&#x220f;" horiz-adv-x="705" 
d="M80 -220v950h545v-950h-33v917h-479v-917h-33z" />
    <glyph glyph-name="summation" unicode="&#x2211;" horiz-adv-x="580" 
d="M60 -220v33l296 470l-278 414v33h426v-33h-386l278 -414l-297 -470h421v-33h-460z" />
    <glyph glyph-name="minus" unicode="&#x2212;" horiz-adv-x="540" 
d="M60 349v33h420v-33h-420z" />
    <glyph glyph-name="uni2215" unicode="&#x2215;" horiz-adv-x="456" 
d="M20 0l378 730h38l-378 -730h-38z" />
    <glyph glyph-name="radical" unicode="&#x221a;" horiz-adv-x="580" 
d="M265 0l-150 386h-50v33h73l144 -370l243 761h35l-259 -810h-36z" />
    <glyph glyph-name="infinity" unicode="&#x221e;" horiz-adv-x="719" 
d="M201 188q-42 0 -76.5 21t-54.5 56.5t-20 78.5q0 42 20 77.5t54.5 56.5t76.5 21q54 0 91.5 -31t67.5 -88q29 57 66.5 88t91.5 31q42 0 76.5 -21t54.5 -56.5t20 -77.5q0 -43 -20 -78.5t-54.5 -56.5t-76.5 -21q-54 0 -91.5 31t-66.5 88q-30 -57 -67.5 -88t-91.5 -31z
M200 221q47 0 77.5 29.5t64.5 93.5q-31 61 -63 91.5t-79 30.5q-49 0 -83 -35.5t-34 -85.5q0 -51 33.5 -87.5t83.5 -36.5zM519 221q50 0 83.5 36.5t33.5 87.5q0 50 -34 85.5t-83 35.5q-47 0 -79 -30.5t-63 -91.5q34 -64 64.5 -93.5t77.5 -29.5z" />
    <glyph glyph-name="integral" unicode="&#x222b;" horiz-adv-x="359" 
d="M10 -187q58 0 82 27t32 88l78 654q8 75 41 111.5t106 36.5v-33q-58 0 -82 -27t-32 -88l-78 -654q-8 -75 -41 -111.5t-106 -36.5v33z" />
    <glyph glyph-name="approxequal" unicode="&#x2248;" horiz-adv-x="500" 
d="M374 342q-36 -4 -63 7t-66 35q-31 21 -55.5 31.5t-52.5 9.5q-30 -1 -52.5 -19.5t-34.5 -56.5l-30 15q15 46 46.5 70t71.5 24q33 1 60 -10.5t60 -33.5q35 -22 59.5 -32t55.5 -6q26 3 46 22t31 53l30 -15q-14 -42 -42 -66t-64 -28zM374 201q-36 -4 -63 7t-66 35
q-31 21 -55.5 31.5t-52.5 9.5q-30 -1 -52.5 -19.5t-34.5 -56.5l-30 15q15 46 46.5 70t71.5 24q33 1 60 -10.5t60 -33.5q35 -22 59.5 -32t55.5 -6q26 3 46 22t31 53l30 -15q-14 -42 -42 -66t-64 -28z" />
    <glyph glyph-name="notequal" unicode="&#x2260;" horiz-adv-x="540" 
d="M129 78l70 177h-139v33h152l58 146h-210v33h223l74 186h36l-74 -186h161v-33h-174l-58 -146h232v-33h-245l-70 -177h-36z" />
    <glyph glyph-name="lessequal" unicode="&#x2264;" horiz-adv-x="520" 
d="M460 202l-400 175v36l400 175v-36l-359 -157l359 -157v-36zM60 90v33h400v-33h-400z" />
    <glyph glyph-name="greaterequal" unicode="&#x2265;" horiz-adv-x="520" 
d="M60 202v36l359 157l-359 157v36l400 -175v-36zM60 90v33h400v-33h-400z" />
    <glyph glyph-name="uni2460" unicode="&#x2460;" horiz-adv-x="853" 
d="M427 -13q-103 0 -189.5 51t-137 137.5t-50.5 189.5q0 102 50.5 188.5t137 137t189.5 50.5q102 0 188.5 -50.5t137 -137t50.5 -188.5q0 -103 -50.5 -189.5t-137 -137.5t-188.5 -51zM427 18q92 0 171.5 47t126 127t46.5 173q0 92 -46.5 171.5t-126 126.5t-171.5 47
q-93 0 -172 -47t-126 -126.5t-47 -171.5q0 -93 46.5 -173t126 -127t172.5 -47zM409 142v411h-45v33h78v-444h-33z" />
    <glyph glyph-name="uni2461" unicode="&#x2461;" horiz-adv-x="853" 
d="M427 -13q-103 0 -189.5 51t-137 137.5t-50.5 189.5q0 102 50.5 188.5t137 137t189.5 50.5q102 0 188.5 -50.5t137 -137t50.5 -188.5q0 -103 -50.5 -189.5t-137 -137.5t-188.5 -51zM427 18q92 0 171.5 47t126 127t46.5 173q0 92 -46.5 171.5t-126 126.5t-171.5 47
q-93 0 -172 -47t-126 -126.5t-47 -171.5q0 -93 46.5 -173t126 -127t172.5 -47zM282 140v33l188 163q27 24 43.5 52t16.5 56q0 45 -28 78.5t-81 33.5q-42 0 -69.5 -27t-35.5 -56l-31 11q12 46 50 75.5t86 29.5q39 0 71.5 -18t51.5 -51t19 -76q0 -37 -20.5 -71.5t-52.5 -62.5
l-158 -137h240v-33h-290z" />
    <glyph glyph-name="uni2462" unicode="&#x2462;" horiz-adv-x="853" 
d="M427 -13q-103 0 -189.5 51t-137 137.5t-50.5 189.5q0 102 50.5 188.5t137 137t189.5 50.5q102 0 188.5 -50.5t137 -137t50.5 -188.5q0 -103 -50.5 -189.5t-137 -137.5t-188.5 -51zM427 18q92 0 171.5 47t126 127t46.5 173q0 92 -46.5 171.5t-126 126.5t-171.5 47
q-93 0 -172 -47t-126 -126.5t-47 -171.5q0 -93 46.5 -173t126 -127t172.5 -47zM428 137q-48 0 -86 23t-56 58l30 14q14 -27 44.5 -44.5t68.5 -17.5q46 0 76 26t30 68q0 41 -31.5 70t-77.5 29h-19v33h19q40 0 65.5 25.5t25.5 56.5q0 38 -26.5 59t-64.5 21q-27 0 -50 -12.5
t-36 -33.5l-27 18q17 27 47 44t65 17q53 0 89 -31t36 -81q0 -31 -16 -57t-44 -41q35 -16 56.5 -47.5t21.5 -70.5q0 -37 -19 -65.5t-51 -44.5t-70 -16z" />
    <glyph glyph-name="uni2463" unicode="&#x2463;" horiz-adv-x="853" 
d="M427 -13q-103 0 -189.5 51t-137 137.5t-50.5 189.5q0 102 50.5 188.5t137 137t189.5 50.5q102 0 188.5 -50.5t137 -137t50.5 -188.5q0 -103 -50.5 -189.5t-137 -137.5t-188.5 -51zM427 18q92 0 171.5 47t126 127t46.5 173q0 92 -46.5 171.5t-126 126.5t-171.5 47
q-93 0 -172 -47t-126 -126.5t-47 -171.5q0 -93 46.5 -173t126 -127t172.5 -47zM469 142v123h-247v33l247 288h33v-288h30v-33h-30v-123h-33zM265 298h204v238z" />
    <glyph glyph-name="uni2464" unicode="&#x2464;" horiz-adv-x="853" 
d="M427 -13q-103 0 -189.5 51t-137 137.5t-50.5 189.5q0 102 50.5 188.5t137 137t189.5 50.5q102 0 188.5 -50.5t137 -137t50.5 -188.5q0 -103 -50.5 -189.5t-137 -137.5t-188.5 -51zM427 18q92 0 171.5 47t126 127t46.5 173q0 92 -46.5 171.5t-126 126.5t-171.5 47
q-93 0 -172 -47t-126 -126.5t-47 -171.5q0 -93 46.5 -173t126 -127t172.5 -47zM423 140q-50 0 -90 27.5t-56 71.5l31 11q12 -34 44 -55.5t71 -21.5q50 0 85.5 35t35.5 84t-35.5 83.5t-85.5 34.5q-35 0 -63.5 -18.5t-44.5 -47.5l-3 -6h-32l17 251h271v-33h-239l-12 -155
q45 42 106 42q42 0 77.5 -20.5t56 -55t20.5 -75.5t-20.5 -76t-56 -55.5t-77.5 -20.5z" />
    <glyph glyph-name="uni2465" unicode="&#x2465;" horiz-adv-x="853" 
d="M427 -13q-103 0 -189.5 51t-137 137.5t-50.5 189.5q0 102 50.5 188.5t137 137t189.5 50.5q102 0 188.5 -50.5t137 -137t50.5 -188.5q0 -103 -50.5 -189.5t-137 -137.5t-188.5 -51zM427 18q92 0 171.5 47t126 127t46.5 173q0 92 -46.5 171.5t-126 126.5t-171.5 47
q-93 0 -172 -47t-126 -126.5t-47 -171.5q0 -93 46.5 -173t126 -127t172.5 -47zM411 140q-44 0 -81.5 21t-59 57t-21.5 78q0 57 35 97l178 196h44l-125 -140q49 5 93.5 -13t71.5 -55t27 -85q0 -42 -22 -78t-59 -57t-81 -21zM408 173q36 0 66 16.5t48 45t18 61.5t-18 61.5
t-48 45t-66 16.5q-34 0 -63 -16.5t-46 -45t-17 -61.5t17 -61.5t46 -45t63 -16.5z" />
    <glyph glyph-name="uni2466" unicode="&#x2466;" horiz-adv-x="853" 
d="M427 -13q-103 0 -189.5 51t-137 137.5t-50.5 189.5q0 102 50.5 188.5t137 137t189.5 50.5q102 0 188.5 -50.5t137 -137t50.5 -188.5q0 -103 -50.5 -189.5t-137 -137.5t-188.5 -51zM427 18q92 0 171.5 47t126 127t46.5 173q0 92 -46.5 171.5t-126 126.5t-171.5 47
q-93 0 -172 -47t-126 -126.5t-47 -171.5q0 -93 46.5 -173t126 -127t172.5 -47zM355 142l179 411h-251v33h287v-33l-179 -411h-36z" />
    <glyph glyph-name="uni2467" unicode="&#x2467;" horiz-adv-x="853" 
d="M427 -13q-103 0 -189.5 51t-137 137.5t-50.5 189.5q0 102 50.5 188.5t137 137t189.5 50.5q102 0 188.5 -50.5t137 -137t50.5 -188.5q0 -103 -50.5 -189.5t-137 -137.5t-188.5 -51zM427 18q92 0 171.5 47t126 127t46.5 173q0 92 -46.5 171.5t-126 126.5t-171.5 47
q-93 0 -172 -47t-126 -126.5t-47 -171.5q0 -93 46.5 -173t126 -127t172.5 -47zM424 137q-41 0 -75.5 16t-55.5 46t-21 68q0 41 22.5 72.5t60.5 47.5q-28 14 -43.5 38t-15.5 56q0 31 17 56.5t46 39.5t64 14t63.5 -14t45.5 -39.5t17 -56.5q0 -30 -15.5 -54.5t-42.5 -39.5
q38 -15 60.5 -46t22.5 -71q0 -38 -20 -68.5t-54.5 -47.5t-75.5 -17zM424 170q49 0 83 28.5t34 71.5t-33.5 71t-84.5 28q-49 0 -83.5 -28.5t-34.5 -70.5q0 -44 33.5 -72t85.5 -28zM423 402q38 0 65.5 22t27.5 56t-27.5 56t-65.5 22q-39 0 -66.5 -22t-27.5 -56t27.5 -56
t66.5 -22z" />
    </font>
</defs>
</svg>
