<?xml version="1.0" standalone="no"?>
<!DOCTYPE svg PUBLIC "-//W3C//DTD SVG 1.1//EN" "http://www.w3.org/Graphics/SVG/1.1/DTD/svg11.dtd" >
<svg xmlns="http://www.w3.org/2000/svg" xmlns:xlink="http://www.w3.org/1999/xlink" version="1.1">
<metadata>
Created by FontForge 20201107 at Tue Jul 14 08:22:19 2020
 By 
Copyright (c) 2020 by Namela. All rights reserved.
</metadata>
<defs>
<font id="Madani-BoldOblique" horiz-adv-x="658" >
  <font-face 
    font-family="Madani-BoldOblique"
    font-weight="400"
    font-style="oblique"
    font-stretch="normal"
    units-per-em="1000"
    panose-1="0 0 8 0 0 0 0 0 0 0"
    ascent="773"
    descent="-227"
    x-height="550"
    cap-height="730"
    bbox="-427 -242 1169 1191"
    underline-thickness="50"
    underline-position="-75"
    slope="-10"
    unicode-range="U+0020-FB02"
  />
<missing-glyph horiz-adv-x="250" 
 />
    <glyph glyph-name="fi" unicode="fi" horiz-adv-x="602" 
d="M270 407l-71 -407l-162 1l71 406h-70l25 143h70l2 11q22 121 96.5 179t171.5 58q37 0 78 -13l-76 -145q-11 3 -24 3q-31 0 -54 -21t-30 -61l-2 -11h302l-96 -550h-162l71 407h-140zM523 588q-37 0 -59 26.5t-15 63.5q7 38 38 64.5t68 26.5t59 -27t15 -64t-38 -63.5
t-68 -26.5z" />
    <glyph glyph-name="fl" unicode="fl" horiz-adv-x="602" 
d="M270 407l-71 -407l-162 1l71 406h-70l25 143h70l2 11q15 81 65 137t109 78t122 22q85 0 197 -65l-127 -733h-162l111 631q-19 12 -57 12q-36 0 -62.5 -21t-33.5 -61l-2 -11h113l-25 -143h-113z" />
    <glyph glyph-name="f_f" unicode="ff" horiz-adv-x="716" 
d="M270 407l-71 -407l-162 1l71 406h-70l25 143h70l2 11q22 121 96.5 179t171.5 58q57 0 97 -17l-66 -143q-37 5 -41 5q-81 0 -96 -82l-2 -11h140l2 11q22 121 96.5 179t171.5 58q57 0 97 -17l-66 -143q-38 5 -41 5q-81 0 -96 -82l-2 -11h123l-25 -143h-123l-71 -407l-162 1
l71 406h-140z" />
    <glyph glyph-name="f_f_i" unicode="ffi" horiz-adv-x="904" 
d="M270 407l-71 -407l-162 1l71 406h-70l25 143h70l2 11q22 121 96.5 179t171.5 58q57 0 97 -17l-66 -143q-37 5 -41 5q-81 0 -96 -82l-2 -11h140l2 11q22 121 96.5 179t171.5 58q37 0 78 -13l-76 -145q-11 3 -24 3q-31 0 -54 -21t-30 -61l-2 -11h302l-96 -550h-162l71 407
h-140l-71 -407l-162 1l71 406h-140zM825 588q-37 0 -59 26.5t-15 63.5q7 38 38 64.5t68 26.5t59 -27t15 -64t-38 -63.5t-68 -26.5z" />
    <glyph glyph-name="f_f_j" unicode="ffj" horiz-adv-x="904" 
d="M536 -234q-58 0 -100 18l68 148q16 -6 35 -6q89 0 110 122l63 359h-140l-71 -407l-162 1l71 406h-140l-71 -407l-162 1l71 406h-70l25 143h70l2 11q22 121 96.5 179t171.5 58q57 0 97 -17l-66 -143q-37 5 -41 5q-81 0 -96 -82l-2 -11h140l2 11q22 121 96.5 179t171.5 58
q37 0 78 -13l-76 -145q-11 3 -24 3q-31 0 -54 -21t-30 -61l-2 -11h302l-88 -502q-14 -78 -42 -135t-66 -88t-79 -45t-88 -14zM825 588q-37 0 -59 26.5t-15 63.5q7 38 38 64.5t68 26.5t59 -27t15 -64t-38 -63.5t-68 -26.5z" />
    <glyph glyph-name="f_f_l" unicode="ffl" horiz-adv-x="904" 
d="M270 407l-71 -407l-162 1l71 406h-70l25 143h70l2 11q22 121 96.5 179t171.5 58q57 0 97 -17l-66 -143q-37 5 -41 5q-81 0 -96 -82l-2 -11h140l2 11q15 81 65 137t109 78t122 22q85 0 197 -65l-127 -733h-162l111 631q-19 12 -57 12q-36 0 -62.5 -21t-33.5 -61l-2 -11
h113l-25 -143h-113l-71 -407l-162 1l71 406h-140z" />
    <glyph glyph-name="f_j" unicode="fj" horiz-adv-x="602" 
d="M235 -234q-58 0 -100 18l68 148q17 -6 35 -6q89 0 110 122l62 359h-140l-71 -407l-162 1l71 406h-70l25 143h70l2 11q22 121 96.5 179t171.5 58q37 0 78 -13l-76 -145q-11 3 -24 3q-31 0 -54 -21t-30 -61l-2 -11h302l-87 -502q-14 -78 -42 -135t-66 -88t-79 -45t-88 -14z
M523 588q-37 0 -59 26.5t-15 63.5q7 38 38 64.5t68 26.5t59 -27t15 -64t-38 -63.5t-68 -26.5z" />
    <glyph glyph-name="t_t" unicode="tt" horiz-adv-x="771" 
d="M260 -11q-46 0 -81.5 12t-64 41.5t-36 78.5t2.5 122l29 164h-72l25 143h78l56 180h132l-32 -180h178l55 180h132l-32 -180h122l-25 -143h-122l-28 -163q-17 -99 69 -99q18 0 37 6l16 -144q-48 -18 -106 -18q-46 0 -81.5 12t-64 41.5t-36 78.5t2.5 122l29 164h-171
l-28 -163q-17 -99 68 -99q18 0 38 6l15 -144q-47 -18 -105 -18z" />
    <glyph glyph-name=".notdef" horiz-adv-x="250" 
 />
    <glyph glyph-name=".null" horiz-adv-x="0" 
 />
    <glyph glyph-name="uni000D" horiz-adv-x="333" 
 />
    <glyph glyph-name="space" unicode=" " horiz-adv-x="265" 
 />
    <glyph glyph-name="exclam" unicode="!" horiz-adv-x="275" 
d="M136 730h163l-110 -537h-132zM44 123q32 31 73 31q31 0 51.5 -20.5t20.5 -51.5q0 -41 -32 -72.5t-72 -31.5q-32 0 -52.5 20.5t-20.5 52.5q0 41 32 72z" />
    <glyph glyph-name="quotedbl" unicode="&#x22;" horiz-adv-x="413" 
d="M311 730h144l-62 -247h-106zM118 730h143l-62 -247h-105z" />
    <glyph glyph-name="numbersign" unicode="#" horiz-adv-x="750" 
d="M20 176l50 129h104l47 120h-105l50 128h102l39 104h132l-40 -104h124l39 104h132l-39 -104h107l-50 -128h-105l-46 -120h105l-50 -129h-103l-39 -102h-131l39 102h-124l-39 -102h-131l39 102h-107zM306 305h124l46 120h-125z" />
    <glyph glyph-name="dollar" unicode="$" horiz-adv-x="576" 
d="M110 206q46 -54 111 -69l32 179q-93 34 -132.5 79t-39.5 104q0 17 3 36q11 83 80 140.5t164 66.5l12 67h83l-12 -69q117 -17 179 -113l-124 -81q-29 40 -80 55l-27 -156q105 -35 145 -80.5t40 -106.5q0 -22 -4 -46q-17 -93 -88.5 -153t-172.5 -69l-12 -68h-83l12 72
q-129 20 -200 117zM304 131q90 7 102 73q1 6 1 12q0 22 -17 38t-59 33zM229 501q17 -15 51 -28l25 137q-43 -4 -68.5 -23t-25.5 -49q0 -23 18 -37z" />
    <glyph glyph-name="percent" unicode="%" horiz-adv-x="806" 
d="M428 140q0 99 59 170.5t147 71.5q63 0 99.5 -39.5t36.5 -107.5q0 -98 -58.5 -171.5t-146.5 -73.5q-64 0 -100.5 40.5t-36.5 109.5zM137 717q58 71 146 71q63 0 99.5 -40t36.5 -108q0 -97 -58.5 -170.5t-146.5 -73.5q-63 0 -99.5 40.5t-36.5 108.5q0 100 59 172zM98 0
l541 781h110l-541 -781h-110zM541 103q15 -17 39 -17q43 0 68 42t25 91q0 67 -57 67q-44 0 -67.5 -41t-23.5 -91q0 -35 16 -51zM174 560q0 -35 15.5 -51.5t39.5 -16.5q44 0 68 41t24 92q0 34 -15.5 50.5t-40.5 16.5q-44 0 -67.5 -41t-23.5 -91z" />
    <glyph glyph-name="ampersand" unicode="&#x26;" horiz-adv-x="713" 
d="M19 211q21 121 159 192q-34 59 -34 115q0 16 3 32q15 87 93 141t176 54t144 -47.5t46 -109.5q0 -19 -4 -40q-21 -119 -189 -202l85 -119q41 47 41 101v5l155 32q-9 -157 -119 -259l70 -106h-201l-16 21q-74 -30 -159 -30q-134 0 -194 53t-60 126q0 20 4 41zM206 157
q33 -16 89 -16q26 0 52 8l-90 126q-72 -33 -75.5 -53t-3.5 -25q0 -27 28 -40zM336 468q35 15 52.5 24t34 23t19.5 30q1 5 1 9q0 19 -16 31.5t-40 12.5q-26 0 -48.5 -13.5t-26.5 -39.5q-1 -4 -1 -8q0 -26 25 -69z" />
    <glyph glyph-name="quotesingle" unicode="'" horiz-adv-x="219" 
d="M199 483h-105l24 247h143z" />
    <glyph glyph-name="parenleft" unicode="(" horiz-adv-x="354" 
d="M42 178q0 173 63 337t179 265h146q-117 -103 -181 -268t-64 -341q0 -170 88 -281h-146q-85 104 -85 288z" />
    <glyph glyph-name="parenright" unicode=")" horiz-adv-x="355" 
d="M127 157q63 164 63 341q0 169 -88 282h146q85 -106 85 -290q0 -173 -63 -336.5t-179 -263.5h-147q119 103 183 267z" />
    <glyph glyph-name="asterisk" unicode="*" horiz-adv-x="415" 
d="M243 472l-86 -99l-68 58l90 94l-109 33l47 94l105 -42l17 120h98l-26 -120l121 40l13 -92l-121 -33l56 -95l-88 -57z" />
    <glyph glyph-name="plus" unicode="+" horiz-adv-x="525" 
d="M42 301l23 128h161l28 161h128l-28 -161h161l-23 -128h-161l-28 -161h-129l29 161h-161z" />
    <glyph glyph-name="comma" unicode="," horiz-adv-x="245" 
d="M72 -140h-105l80 290h143z" />
    <glyph glyph-name="hyphen" unicode="-" horiz-adv-x="440" 
d="M412 301h-375l23 128h375z" />
    <glyph glyph-name="period" unicode="." horiz-adv-x="225" 
d="M20 131q32 31 73 31q32 0 52.5 -20.5t20.5 -51.5q0 -41 -32 -72.5t-72 -31.5q-33 0 -53.5 20.5t-20.5 52.5q0 41 32 72z" />
    <glyph glyph-name="slash" unicode="/" horiz-adv-x="539" 
d="M102 -110h-155l511 891h155z" />
    <glyph glyph-name="zero" unicode="0" horiz-adv-x="662" 
d="M62 409q14 68 42.5 128.5t69.5 106t98.5 71.5t125.5 26q108 0 178 -76.5t70 -202.5q0 -92 -22 -175.5t-64 -151t-110.5 -108t-153.5 -40.5q-108 0 -178 76.5t-70 204.5q0 73 14 141zM215 281q0 -131 95 -131q53 0 93.5 50.5t58 116.5t17.5 132q0 129 -94 129
q-54 0 -94.5 -49.5t-58 -115t-17.5 -132.5z" />
    <glyph glyph-name="one" unicode="1" horiz-adv-x="357" 
d="M219 0h-162l102 579h-80l26 151h242z" />
    <glyph glyph-name="two" unicode="2" horiz-adv-x="592" 
d="M-9 107l314 255q54 43 80 75.5t26 72.5q0 34 -22 53t-58 19q-35 0 -65.5 -20.5t-47.5 -49.5l-141 51q36 78 115 129.5t166 51.5q97 0 157.5 -55.5t60.5 -150.5q0 -155 -164 -284l-137 -103h254l-26 -151h-531z" />
    <glyph glyph-name="three" unicode="3" horiz-adv-x="591" 
d="M149 212q9 -27 39.5 -45.5t69.5 -18.5q52 0 86 28t34 70q0 34 -28.5 51.5t-76.5 17.5h-41l27 150h44q38 0 67.5 18t32.5 51v2q0 24 -19 38t-51 14q-53 0 -84 -34l-141 57q37 60 104.5 97.5t141.5 37.5q95 0 156 -46t61 -129q0 -107 -113 -176q37 -23 59.5 -62.5
t22.5 -86.5q0 -116 -80.5 -188t-209.5 -72q-94 0 -166 44t-91 116z" />
    <glyph glyph-name="four" unicode="4" horiz-adv-x="583" 
d="M-3 150l25 142l371 438h197l-74 -421h60l-28 -159h-60l-26 -150h-162l26 150h-329zM354 309l37 204l-185 -204h148z" />
    <glyph glyph-name="five" unicode="5" horiz-adv-x="586" 
d="M170 213q6 -27 31.5 -44t58.5 -17q49 0 85.5 33t40.5 80v8q0 35 -23.5 60t-63.5 25q-55 0 -94 -41h-162l102 413h458l-26 -151h-306l-25 -105q48 32 104 32q102 0 152 -61.5t50 -139.5q0 -21 -3 -44q-16 -117 -101.5 -194t-202.5 -77q-89 0 -157.5 46t-83.5 120z" />
    <glyph glyph-name="six" unicode="6" horiz-adv-x="594" 
d="M98 402l283 329h198l-206 -232q80 -5 135.5 -64.5t55.5 -145.5q0 -125 -88 -212t-215 -87q-101 0 -171 60t-70 153q0 113 78 199zM186 234q0 -36 24.5 -59t63.5 -23q48 0 86 34.5t38 80.5q0 35 -25 58.5t-65 23.5q-49 0 -85.5 -35t-36.5 -80z" />
    <glyph glyph-name="seven" unicode="7" horiz-adv-x="559" 
d="M203 0h-189l368 579h-328l26 151h531l-17 -98z" />
    <glyph glyph-name="eight" unicode="8" horiz-adv-x="622" 
d="M62 301q37 54 101 88q-48 42 -48 110q0 106 80.5 176.5t191.5 70.5q89 0 150.5 -51t61.5 -128q0 -109 -100 -178q77 -51 77 -140q0 -119 -89.5 -196.5t-228.5 -77.5q-105 0 -169.5 57.5t-64.5 145.5q0 68 38 123zM194 209q0 -33 25.5 -55t66.5 -22q49 0 86.5 31t37.5 74
q0 32 -26.5 53.5t-65.5 21.5q-48 0 -86 -31t-38 -72zM296 479q18 -16 48 -16q37 0 65 23t28 55q0 25 -19.5 41t-49.5 16q-37 0 -64 -23t-27 -55q0 -25 19 -41z" />
    <glyph glyph-name="nine" unicode="9" horiz-adv-x="594" 
d="M47 0l206 232q-80 5 -135.5 64.5t-55.5 145.5q0 126 88.5 212.5t221.5 86.5q101 0 167.5 -60t66.5 -154q0 -116 -76 -198l-283 -329h-200zM253 405q24 -23 63 -23q49 0 86.5 35t37.5 80q0 35 -25 58.5t-63 23.5q-50 0 -87 -34t-37 -81q0 -36 25 -59z" />
    <glyph glyph-name="colon" unicode=":" horiz-adv-x="266" 
d="M12 78q0 41 32 72t73 31q31 0 52 -20.5t21 -51.5q0 -41 -32 -72.5t-72 -31.5q-32 0 -53 21t-21 52zM77 441q0 42 31.5 73t72.5 31q32 0 52.5 -20.5t20.5 -52.5q0 -41 -32 -71.5t-72 -30.5q-32 0 -52.5 20t-20.5 51z" />
    <glyph glyph-name="semicolon" unicode=";" horiz-adv-x="257" 
d="M-36 -140l80 290h144l-118 -290h-106zM76 445q0 41 32.5 71.5t72.5 30.5q32 0 52.5 -20t20.5 -51q0 -41 -31.5 -72.5t-71.5 -31.5q-33 0 -54 20.5t-21 52.5z" />
    <glyph glyph-name="less" unicode="&#x3c;" horiz-adv-x="552" 
d="M507 231l-25 -140l-440 206l24 139l513 206l-24 -139l-339 -136z" />
    <glyph glyph-name="equal" unicode="=" horiz-adv-x="566" 
d="M530 401h-450l22 128h450zM493 191h-451l24 129h450z" />
    <glyph glyph-name="greater" unicode="&#x3e;" horiz-adv-x="552" 
d="M519 297l-514 -206l25 140l339 136l-291 136l24 139l441 -206z" />
    <glyph glyph-name="question" unicode="?" horiz-adv-x="560" 
d="M196 696q71 48 154 48q98 0 157.5 -53.5t59.5 -140.5q0 -78 -38.5 -130t-120.5 -111q-69 -50 -77 -99l-4 -24h-163l8 42q9 55 39.5 93.5t85.5 77.5q59 42 80.5 68t21.5 57q0 26 -19 41t-49 15q-65 0 -105 -64l-136 57q35 75 106 123zM169 123q32 31 72 31
q32 0 52.5 -20.5t20.5 -51.5q0 -41 -32 -72.5t-72 -31.5q-33 0 -53.5 20.5t-20.5 52.5q0 41 33 72z" />
    <glyph glyph-name="at" unicode="@" horiz-adv-x="810" 
d="M169 612q129 129 310 129q145 0 235 -88.5t90 -222.5q0 -118 -63 -208.5t-160 -90.5q-43 0 -73.5 24.5t-38.5 66.5q-46 -41 -105 -41q-63 0 -105 47t-42 113q0 84 60 146.5t142 62.5q67 0 98 -39l12 36h79l-45 -257q-1 -12 -1 -22q0 -60 51 -60h2q50 0 85 66t35 144
q0 110 -70.5 183t-188.5 73q-151 0 -260 -107t-109 -256q0 -109 73.5 -182.5t186.5 -73.5q42 0 91 13l7 -65q-52 -16 -110 -16q-138 0 -227 89.5t-89 223.5q0 182 130 312zM332 301q20 -20 50 -20q39 0 69 30t30 69q0 29 -19.5 48.5t-49.5 19.5q-39 0 -69.5 -29.5
t-30.5 -67.5q0 -30 20 -50z" />
    <glyph glyph-name="A" unicode="A" horiz-adv-x="672" 
d="M323 730h186l115 -730h-186l-16 128h-215l-60 -128h-195zM282 288h121l-25 206z" />
    <glyph glyph-name="B" unicode="B" horiz-adv-x="644" 
d="M15 0l128 730h273q104 0 157.5 -47t53.5 -113q0 -16 -3 -34q-15 -85 -93 -142q80 -46 80 -135q0 -19 -3 -39q-17 -97 -98 -158.5t-192 -61.5h-303zM217 166h123q38 0 62 18.5t29 49.5q1 7 1 14q0 21 -16.5 37t-49.5 16h-125zM267 450l109 1q30 2 50 18t24 41q1 6 1 12
q0 20 -15 35.5t-50 15.5h-98z" />
    <glyph glyph-name="C" unicode="C" horiz-adv-x="773" 
d="M109 529q56 99 156.5 157t222.5 58q95 0 168.5 -39t116.5 -108l-159 -103q-48 73 -141 73q-94 0 -167.5 -72t-73.5 -165q0 -72 48 -120t122 -48q95 0 167 72l150 -101q-61 -70 -146.5 -109.5t-185.5 -39.5q-149 0 -242 93.5t-93 235.5q0 117 57 216z" />
    <glyph glyph-name="D" unicode="D" horiz-adv-x="731" 
d="M15 0l128 730h231q150 0 244 -89t94 -220q0 -180 -126.5 -300.5t-317.5 -120.5h-253zM217 170h69q102 0 172.5 68t70.5 164q0 70 -46.5 114.5t-127.5 44.5l-69 -1z" />
    <glyph glyph-name="E" unicode="E" horiz-adv-x="576" 
d="M491 0h-476l128 730h466l-28 -158h-294l-21 -121h273l-27 -156h-273l-23 -129h304z" />
    <glyph glyph-name="F" unicode="F" horiz-adv-x="580" 
d="M187 0h-172l128 730h486l-30 -166h-313l-22 -122h294l-29 -166h-294z" />
    <glyph glyph-name="G" unicode="G" horiz-adv-x="829" 
d="M179 621q126 123 309 123q92 0 171.5 -40.5t119.5 -107.5l-171 -93q-48 64 -135 64q-94 0 -167.5 -72t-73.5 -165q0 -72 48 -120t122 -48q66 0 116 31.5t74 86.5h-201l28 158h393q0 -42 -5 -73q-30 -173 -143 -277t-278 -104q-141 0 -237.5 95t-96.5 235q0 183 127 307z
" />
    <glyph glyph-name="H" unicode="H" horiz-adv-x="713" 
d="M143 730h173l-50 -283h241l50 283h173l-128 -730h-173l47 274h-241l-47 -274h-173z" />
    <glyph glyph-name="I" unicode="I" horiz-adv-x="298" 
d="M188 0h-173l128 730h173z" />
    <glyph glyph-name="J" unicode="J" horiz-adv-x="542" 
d="M126 202q26 -42 75 -42q45 0 76 32.5t40 85.5l79 452h174l-80 -452q-24 -134 -111 -211t-206 -77q-66 0 -117 29t-77 81z" />
    <glyph glyph-name="K" unicode="K" horiz-adv-x="653" 
d="M143 730h173l-48 -273l247 273h193l-279 -307l168 -423h-200l-103 262l-73 -72l-33 -190h-173z" />
    <glyph glyph-name="L" unicode="L" horiz-adv-x="564" 
d="M501 0h-486l128 730h173l-98 -557h312z" />
    <glyph glyph-name="M" unicode="M" horiz-adv-x="916" 
d="M143 730h175l154 -378l286 378h175l-128 -730h-173l76 434l-231 -305h-90l-123 305l-76 -434h-173z" />
    <glyph glyph-name="N" unicode="N" horiz-adv-x="755" 
d="M143 730h173l209 -422l74 422h174l-128 -730h-174l-209 422l-74 -422h-173z" />
    <glyph glyph-name="O" unicode="O" horiz-adv-x="843" 
d="M176 619q123 125 312 125q149 0 242 -93.5t93 -235.5q0 -180 -124 -305.5t-312 -125.5q-149 0 -242 93.5t-93 235.5q0 180 124 306zM280 210q48 -48 122 -48q96 0 168 71.5t72 166.5q0 71 -48 119t-121 48q-97 0 -169 -71.5t-72 -165.5q0 -72 48 -120z" />
    <glyph glyph-name="P" unicode="P" horiz-adv-x="630" 
d="M143 730h264q128 0 186 -62t58 -138q0 -20 -4 -43q-19 -105 -100 -174.5t-201 -69.5h-116l-42 -243h-173zM260 412h103q43 0 71.5 21t32 41t3.5 27q0 24 -18.5 42t-62.5 18h-103z" />
    <glyph glyph-name="Q" unicode="Q" horiz-adv-x="848" 
d="M176 619q123 125 312 125q149 0 242 -93.5t93 -235.5q0 -175 -117 -297l50 -70l-122 -92l-49 74q-92 -46 -198 -46q-149 0 -242 93.5t-93 235.5q0 180 124 306zM280 210q48 -48 122 -48q48 0 85 21l-57 86l110 81l55 -78q47 55 47 128q0 71 -48 119t-121 48
q-97 0 -169 -71.5t-72 -165.5q0 -72 48 -120z" />
    <glyph glyph-name="R" unicode="R" horiz-adv-x="635" 
d="M143 730h267q126 0 183.5 -62t57.5 -137q0 -21 -4 -44q-12 -69 -57 -125t-111 -84l98 -278h-197l-78 243h-72l-42 -243h-173zM260 412h105q43 0 70.5 21t33.5 54q1 7 1 14q0 23 -18 41.5t-61 18.5h-105z" />
    <glyph glyph-name="S" unicode="S" horiz-adv-x="607" 
d="M132 213q61 -72 153 -72q46 0 73.5 18.5t27.5 51.5q0 26 -30.5 45.5t-73.5 37t-86 41t-73.5 67t-30.5 104.5q0 110 74.5 174t196.5 64q72 0 140.5 -30t105.5 -89l-137 -95q-16 27 -48.5 42t-66.5 16q-42 0 -67.5 -15.5t-25.5 -42.5q0 -23 30.5 -41.5t74 -35.5t87 -40
t74 -67.5t30.5 -105.5q0 -118 -79.5 -187t-208.5 -69q-80 0 -152.5 30t-113.5 90z" />
    <glyph glyph-name="T" unicode="T" horiz-adv-x="594" 
d="M95 730h564l-29 -166h-195l-99 -564h-173l98 564h-195z" />
    <glyph glyph-name="U" unicode="U" horiz-adv-x="685" 
d="M53 277l80 453h173l-80 -453q-3 -15 -3 -28q0 -37 23.5 -64t75.5 -27q51 0 89.5 31.5t48.5 87.5l79 453h174l-80 -453q-23 -132 -112 -212.5t-215 -80.5q-127 0 -192.5 72.5t-65.5 162.5q0 28 5 58z" />
    <glyph glyph-name="V" unicode="V" horiz-adv-x="667" 
d="M268 730l64 -467l227 467h190l-378 -730h-171l-122 730h190z" />
    <glyph glyph-name="W" unicode="W" horiz-adv-x="1022" 
d="M88 730h180l48 -434l201 436h150l46 -436l201 434h181l-338 -730h-176l-41 436l-194 -436h-176z" />
    <glyph glyph-name="X" unicode="X" horiz-adv-x="720" 
d="M263 374l-158 356h202l97 -206l169 206h202l-284 -356l166 -374h-202l-104 223l-182 -223h-202z" />
    <glyph glyph-name="Y" unicode="Y" horiz-adv-x="655" 
d="M85 730h195l87 -228l168 228h195l-312 -435l-52 -295h-173l52 295z" />
    <glyph glyph-name="Z" unicode="Z" horiz-adv-x="641" 
d="M558 0h-571l29 170l396 391h-317l30 169h551l-30 -170l-395 -390h336z" />
    <glyph glyph-name="bracketleft" unicode="[" horiz-adv-x="330" 
d="M249 -110h-250l158 890h249l-22 -128h-107l-112 -634h107z" />
    <glyph glyph-name="backslash" unicode="\" horiz-adv-x="556" 
d="M464 -110h-154l-197 891h154z" />
    <glyph glyph-name="bracketright" unicode="]" horiz-adv-x="330" 
d="M194 -110h-250l23 128h106l112 634h-106l23 128h249z" />
    <glyph glyph-name="asciicircum" unicode="^" horiz-adv-x="515" 
d="M274 730h127l116 -330h-146l-59 187l-125 -187h-145z" />
    <glyph glyph-name="underscore" unicode="_" horiz-adv-x="520" 
d="M435 0h-446l23 128h444z" />
    <glyph glyph-name="grave" unicode="`" horiz-adv-x="271" 
d="M283 558h-97l-68 172h143z" />
    <glyph glyph-name="a" unicode="a" 
d="M114 464q88 96 214 96q52 0 94.5 -25t60.5 -64l23 79h147l-96 -550h-147l4 80q-32 -39 -78.5 -63.5t-97.5 -24.5q-92 0 -152 70.5t-60 174.5q0 130 88 227zM193 254q0 -44 29 -73t75 -29q58 0 103 44t45 102q0 45 -29 74t-75 29q-58 0 -103 -44.5t-45 -102.5z" />
    <glyph glyph-name="b" unicode="b" 
d="M142 780h162l-54 -303q31 37 76 60t94 23q97 0 154.5 -69.5t57.5 -176.5q0 -134 -88 -228t-222 -94q-50 0 -89.5 24.5t-56.5 63.5l-24 -80h-147zM243 181q29 -29 75 -29q60 0 103.5 43t43.5 103q0 45 -28.5 74t-74.5 29q-58 0 -103.5 -44.5t-45.5 -102.5q0 -44 30 -73z
" />
    <glyph glyph-name="c" unicode="c" horiz-adv-x="585" 
d="M120 467q92 91 229 91q69 0 127.5 -33.5t91.5 -90.5l-146 -86q-29 45 -86 45q-56 0 -99 -42.5t-43 -97.5q0 -42 27.5 -70t71.5 -28q64 0 108 52l130 -100q-45 -55 -109.5 -86t-140.5 -31q-105 0 -179.5 73t-74.5 178q0 134 93 226z" />
    <glyph glyph-name="d" unicode="d" 
d="M113 464q87 96 215 96q49 0 91.5 -23.5t59.5 -59.5l53 303h162l-137 -780h-147l4 80q-72 -88 -176 -88q-92 0 -152 70.5t-60 174.5q0 131 87 227zM193 254q0 -44 29 -73t75 -29q60 0 104 43.5t44 102.5q0 45 -29 74t-75 29q-60 0 -104 -44t-44 -103z" />
    <glyph glyph-name="e" unicode="e" horiz-adv-x="622" 
d="M119 464q92 94 228 94q110 0 180.5 -67t70.5 -166v-14q0 -29 -16 -91h-386q3 -40 34 -60.5t70 -20.5q79 0 129 42l112 -86q-102 -105 -248 -105q-115 0 -191 71.5t-76 177.5q0 131 93 225zM215 338h221q0 32 -25 53t-67 21q-45 0 -80 -19.5t-49 -54.5z" />
    <glyph glyph-name="f" unicode="f" horiz-adv-x="421" 
d="M116 407h-70l25 143h70l2 11q21 121 95.5 179t172.5 58q55 0 97 -17l-66 -143q-35 5 -42 5q-80 0 -95 -82l-2 -11h122l-24 -143h-123l-72 -407l-161 1z" />
    <glyph glyph-name="g" unicode="g" 
d="M118 -32q46 -49 120 -49q57 0 105 39t62 103l3 14q-71 -83 -170 -83q-96 0 -154 72t-58 173q0 131 87 227t215 96q52 0 94.5 -25t60.5 -64l23 79h147l-81 -464q-56 -321 -352 -321q-71 0 -138.5 30t-97.5 81zM222 181q29 -29 75 -29q58 0 103 44t45 102q0 45 -29 74
t-75 29q-60 0 -104 -44t-44 -103q0 -44 29 -73z" />
    <glyph glyph-name="h" unicode="h" horiz-adv-x="612" 
d="M142 780h162l-53 -297q65 77 152 77q95 0 134 -58t39 -134q0 -40 -8 -87l-49 -281h-162l49 281q3 18 3 34q0 35 -18.5 60.5t-58.5 25.5t-73 -30t-43 -90l-49 -281h-162z" />
    <glyph glyph-name="i" unicode="i" horiz-adv-x="269" 
d="M5 0l96 550h162l-96 -550h-162zM114 663q0 42 33.5 74t74.5 32q33 0 54 -21t21 -53q0 -42 -33 -74.5t-74 -32.5q-33 0 -54.5 21.5t-21.5 53.5z" />
    <glyph glyph-name="j" unicode="j" horiz-adv-x="303" 
d="M-97 -68q16 -6 35 -6q89 0 110 122l88 502h162l-88 -502q-27 -151 -100.5 -216.5t-174.5 -65.5q-58 0 -100 18zM149 663q0 42 33 74t75 32q32 0 53.5 -21t21.5 -53q0 -42 -33 -74.5t-74 -32.5q-33 0 -54.5 21t-21.5 54z" />
    <glyph glyph-name="k" unicode="k" horiz-adv-x="589" 
d="M142 780h154l-72 -410l197 180h184l-239 -227l160 -323h-187l-98 201l-56 -49l-26 -152h-154z" />
    <glyph glyph-name="l" unicode="l" horiz-adv-x="267" 
d="M167 0h-162l137 780h162z" />
    <glyph glyph-name="m" unicode="m" horiz-adv-x="901" 
d="M101 550h147l-1 -70q60 80 145 80q53 0 91.5 -23.5t53.5 -63.5q64 87 152 87q100 0 138.5 -55t38.5 -132q0 -39 -8 -87l-50 -286h-162l50 286q4 22 4 40q0 30 -14.5 52.5t-48.5 22.5q-33 0 -61.5 -28t-38.5 -87l-50 -286h-162l50 286q4 21 4 39q0 30 -14.5 53t-47.5 23
q-34 0 -62.5 -30t-38.5 -90l-49 -281h-162z" />
    <glyph glyph-name="n" unicode="n" horiz-adv-x="612" 
d="M101 550h147l-2 -72q66 82 157 82q94 0 133.5 -58t39.5 -135q0 -39 -8 -86l-49 -281h-162l49 281q3 18 3 34q0 35 -18.5 60.5t-58.5 25.5t-73 -30t-43 -90l-49 -281h-162z" />
    <glyph glyph-name="o" unicode="o" horiz-adv-x="629" 
d="M121 465q95 93 235 93q109 0 177.5 -72t68.5 -179q0 -129 -95.5 -223t-233.5 -94q-110 0 -178.5 72t-68.5 179q0 130 95 224zM221 183q27 -28 72 -28q58 0 100 42t42 98q0 42 -28 70t-72 28q-59 0 -100.5 -42t-41.5 -98q0 -43 28 -70z" />
    <glyph glyph-name="p" unicode="p" horiz-adv-x="666" 
d="M-27 -220l135 770h147l-3 -80q31 39 78 63.5t98 24.5q93 0 152.5 -68.5t59.5 -176.5q0 -135 -82 -229t-205 -94q-51 0 -100 24t-66 59l-52 -293h-162zM250 179q29 -29 75 -29q59 0 103 44t44 103q0 44 -28.5 73t-74.5 29q-58 0 -103 -44t-45 -102q0 -45 29 -74z" />
    <glyph glyph-name="q" unicode="q" horiz-adv-x="677" 
d="M34 236q0 135 89.5 228.5t219.5 93.5q51 0 90 -24.5t56 -63.5l25 80h147l-135 -770h-162l51 293q-67 -83 -162 -83q-100 0 -159.5 71.5t-59.5 174.5zM201 252q0 -44 28.5 -73t74.5 -29q59 0 104 44.5t45 102.5q0 44 -30 73t-76 29q-59 0 -102.5 -44.5t-43.5 -102.5z" />
    <glyph glyph-name="r" unicode="r" horiz-adv-x="441" 
d="M101 550h147v-73q61 77 169 77q31 0 54 -4l-61 -155q-5 1 -16 1q-159 0 -189 -176l-38 -220h-162z" />
    <glyph glyph-name="s" unicode="s" horiz-adv-x="548" 
d="M126 185q21 -23 59 -36t76 -13q68 0 68 29q0 12 -27 21.5t-65.5 20.5t-76.5 27.5t-65 51t-27 82.5q0 93 67 143.5t173 50.5q69 0 131 -21.5t95 -69.5l-114 -97q-16 22 -53 33.5t-71 11.5q-30 0 -46.5 -8t-16.5 -20q0 -11 27 -20t66 -20t78 -27t66 -50t27 -82
q0 -100 -69.5 -153.5t-182.5 -53.5q-71 0 -140.5 24t-106.5 70z" />
    <glyph glyph-name="t" unicode="t" horiz-adv-x="437" 
d="M63 550h78l56 180h132l-32 -180h123l-25 -143h-123l-29 -163q-3 -16 -3 -30q0 -69 72 -69q18 0 38 6l15 -144q-47 -18 -106 -18q-113 0 -149 56.5t-36 123.5q0 34 7 74l29 164h-71z" />
    <glyph glyph-name="u" unicode="u" horiz-adv-x="630" 
d="M52 269l49 281h162l-49 -281q-4 -20 -4 -36q0 -33 18.5 -58t58.5 -25t73 30t44 89l49 281h162l-96 -550h-147l1 72q-68 -82 -157 -82t-130.5 59t-41.5 136q0 38 8 84z" />
    <glyph glyph-name="v" unicode="v" horiz-adv-x="564" 
d="M227 550l51 -301l155 301h174l-294 -550h-158l-102 550h174z" />
    <glyph glyph-name="w" unicode="w" horiz-adv-x="906" 
d="M58 550h173l41 -300l147 300h164l41 -300l147 300h173l-283 -550h-158l-47 291l-149 -291h-158z" />
    <glyph glyph-name="x" unicode="x" horiz-adv-x="629" 
d="M203 275l-140 275h192l82 -151l134 151h191l-235 -275l139 -275h-191l-82 152l-134 -152h-192z" />
    <glyph glyph-name="y" unicode="y" horiz-adv-x="568" 
d="M-11 -69q26 -10 57 -10q36 0 70.5 26t56.5 74l-114 529h174l51 -307l155 307h172l-281 -550q-65 -125 -138 -178.5t-165 -53.5q-62 0 -108 20z" />
    <glyph glyph-name="z" unicode="z" horiz-adv-x="561" 
d="M471 0h-478l20 113l293 294h-241l24 143h464l-20 -121l-276 -278h240z" />
    <glyph glyph-name="braceleft" unicode="{" horiz-adv-x="368" 
d="M44 271l23 128q34 0 60.5 17.5t32.5 56.5l20 110q16 97 87.5 147t169.5 50l-22 -128q-42 0 -63.5 -14.5t-28.5 -56.5l-20 -109q-13 -82 -78 -137q33 -39 33 -97q0 -18 -3 -38l-19 -111q-2 -12 -2 -22q0 -23 12.5 -36t56.5 -13l-23 -128q-104 0 -148 44.5t-44 107.5
q0 21 4 45l20 111q2 9 2 17q0 21 -16.5 38.5t-53.5 17.5z" />
    <glyph glyph-name="bar" unicode="|" horiz-adv-x="263" 
d="M109 -220h-129l168 950h128z" />
    <glyph glyph-name="braceright" unicode="}" horiz-adv-x="368" 
d="M-11 18q42 0 63.5 15t29.5 56l19 111q14 81 80 135q-35 40 -35 100q0 18 3 37l20 109q2 12 2 22q0 23 -12.5 36t-56.5 13l22 128q105 0 148.5 -44.5t43.5 -107.5q0 -21 -4 -45l-20 -110q-2 -9 -2 -17q0 -21 17 -39t54 -18l-24 -128q-33 0 -59.5 -17.5t-33.5 -55.5
l-20 -111q-16 -97 -87 -147t-170 -50z" />
    <glyph glyph-name="asciitilde" unicode="~" horiz-adv-x="545" 
d="M109 453q46 36 102 36q35 0 66.5 -16.5t58 -33.5t49.5 -17q46 0 69 55l99 -44q-32 -70 -79.5 -103.5t-98.5 -33.5q-43 0 -95 33.5t-78 33.5q-46 0 -70 -55l-98 44q29 64 75 101z" />
    <glyph glyph-name="exclamdown" unicode="&#xa1;" horiz-adv-x="275" 
d="M-31 -220l117 577h132l-86 -577h-163zM118 541q32 31 72 31q32 0 52.5 -20.5t20.5 -51.5q0 -41 -32 -72.5t-72 -31.5q-33 0 -53.5 20.5t-20.5 51.5q0 41 33 73z" />
    <glyph glyph-name="cent" unicode="&#xa2;" horiz-adv-x="584" 
d="M124 548q80 89 202 102l14 80h91l-15 -83q116 -20 170 -118l-118 -68q-23 42 -75 53l-50 -289q56 11 96 57l108 -76q-86 -110 -229 -119l-15 -87h-91l17 96q-83 21 -134 87.5t-51 153.5q0 121 80 211zM199 274q20 -30 54 -41l48 273q-52 -16 -87.5 -62t-35.5 -101
q0 -39 21 -69z" />
    <glyph glyph-name="sterling" unicode="&#xa3;" horiz-adv-x="625" 
d="M-11 0l27 151h81l27 153h-64l20 113h65l5 35q25 137 107 213.5t186 76.5q65 0 114.5 -34.5t71.5 -91.5l-147 -85q-7 22 -24 35.5t-40 13.5q-37 0 -65.5 -32t-40.5 -96l-5 -35h165l-20 -113h-166l-27 -153h307l-26 -151h-551z" />
    <glyph glyph-name="currency" unicode="&#xa4;" horiz-adv-x="608" 
d="M117 250q-12 31 -12 64q0 17 6 52.5t41 81.5l-63 77l98 83l63 -76q54 26 104 26q54 0 94 -27l90 77l68 -83l-88 -76q11 -34 11 -70q0 -11 -1 -21q-6 -59 -45 -109l62 -75l-98 -84l-62 76q-52 -27 -105 -27q-54 0 -95 27l-89 -76l-68 84zM240 277q22 -25 59 -25
q45 0 80 34.5t35 79.5q0 34 -23 56.5t-58 22.5q-43 0 -76 -31.5t-36 -74.5q-1 -5 -1 -11q0 -30 20 -51z" />
    <glyph glyph-name="yen" unicode="&#xa5;" horiz-adv-x="671" 
d="M43 133l20 113h194l11 70h-193l20 114h131l-141 300h177l109 -256l198 256h177l-248 -300h134l-19 -114h-197l-12 -70h196l-19 -113h-197l-23 -133h-148l23 133h-193z" />
    <glyph glyph-name="brokenbar" unicode="&#xa6;" horiz-adv-x="251" 
d="M212 398h-129l67 382h129zM103 -220h-129l67 382h129z" />
    <glyph glyph-name="section" unicode="&#xa7;" horiz-adv-x="484" 
d="M10 82l114 72q27 -45 87 -45q30 0 48.5 14.5t18.5 35.5q0 19 -23 33.5t-56 26t-66.5 26t-56.5 43.5t-23 69q0 87 83 133q-31 31 -31 74q0 79 57.5 132.5t140.5 53.5q58 0 108 -24.5t74 -73.5l-106 -67q-10 18 -31.5 31t-49.5 13q-25 0 -43.5 -12.5t-18.5 -32.5
q0 -17 23.5 -30.5t57 -25t67.5 -27t57.5 -45t23.5 -70.5q0 -88 -86 -133q34 -32 34 -77q0 -84 -64 -139t-156 -55q-130 0 -183 100zM217 338q32 -19 58 -19q22 0 38 13.5t16 31.5q0 39 -87 57h-6q-19 0 -35 -11t-16 -32q0 -22 32 -40z" />
    <glyph glyph-name="dieresis" unicode="&#xa8;" horiz-adv-x="388" 
d="M314 689q26 25 59 25q26 0 43.5 -17t17.5 -42q0 -35 -26.5 -60t-59.5 -25q-27 0 -44 16.5t-17 42.5q0 34 27 60zM110 689q26 25 59 25q26 0 43.5 -17t17.5 -42q0 -35 -26 -60t-60 -25q-27 0 -43.5 16.5t-16.5 42.5q0 34 26 60z" />
    <glyph glyph-name="copyright" unicode="&#xa9;" horiz-adv-x="812" 
d="M100 525q59 100 161 158t222 58q138 0 230 -92t92 -225q0 -180 -130.5 -308.5t-313.5 -128.5q-138 0 -229.5 92t-91.5 226q0 119 60 220zM182 128q73 -74 186 -74q149 0 258.5 107t109.5 256q0 110 -73.5 183.5t-185.5 73.5q-150 0 -259.5 -107t-109.5 -256
q0 -110 74 -183zM216 334q0 95 72 164.5t168 69.5q50 0 91 -21.5t61 -59.5l-84 -59q-28 42 -82 42q-49 0 -87 -37.5t-38 -87.5q0 -37 24.5 -62t63.5 -25q55 0 97 45l68 -59q-77 -84 -177 -84q-75 0 -126 50.5t-51 123.5z" />
    <glyph glyph-name="ordfeminine" unicode="&#xaa;" horiz-adv-x="349" 
d="M62 484q8 48 48 80t95 32h68q1 6 1 11q0 17 -12.5 31t-38.5 14q-27 0 -63 -22l-56 49q66 59 149 59q60 0 88.5 -37t28.5 -87q0 -23 -5 -49l-33 -186h-81l-2 34q-34 -41 -87 -41q-49 0 -75.5 29t-26.5 64q0 9 2 19zM167 461q11 -12 29 -12q22 0 38.5 12.5t19.5 29.5l7 38
h-49q-20 0 -34.5 -11t-18.5 -29q-1 -4 -1 -7q0 -12 9 -21z" />
    <glyph glyph-name="guillemotleft" unicode="&#xab;" horiz-adv-x="473" 
d="M234 365l135 180h113l-134 -180l71 -180h-114zM188 545h114l-135 -180l71 -180h-113l-71 180z" />
    <glyph glyph-name="logicalnot" unicode="&#xac;" horiz-adv-x="527" 
d="M470 167h-128l23 134h-323l23 128h450z" />
    <glyph glyph-name="registered" unicode="&#xae;" horiz-adv-x="812" 
d="M100 525q59 100 161 158t222 58q138 0 230 -92t92 -225q0 -180 -130.5 -308.5t-313.5 -128.5q-138 0 -229.5 92t-91.5 226q0 119 60 220zM108 311q0 -110 73.5 -183.5t186.5 -73.5q149 0 258.5 107t109.5 256q0 110 -73.5 183.5t-185.5 73.5q-150 0 -259.5 -107
t-109.5 -256zM321 555h141q57 0 91 -30.5t34 -77.5q0 -45 -26 -82.5t-68 -55.5l56 -134h-101l-41 114h-47l-20 -114h-86zM375 374h61q27 0 43.5 15t18.5 35v3q0 17 -12.5 28.5t-32.5 11.5h-61z" />
    <glyph glyph-name="macron" unicode="&#xaf;" horiz-adv-x="470" 
d="M480 583h-380l22 129h380z" />
    <glyph glyph-name="degree" unicode="&#xb0;" horiz-adv-x="291" 
d="M133 746q46 44 104 44q45 0 74.5 -29t29.5 -74q0 -58 -45.5 -102t-102.5 -44q-46 0 -76 29t-30 73q0 59 46 103zM182 633q9 -10 26 -10q20 0 34.5 15t14.5 35q0 16 -9.5 25.5t-25.5 9.5q-20 0 -35 -14.5t-15 -35.5q0 -15 10 -25z" />
    <glyph glyph-name="plusminus" unicode="&#xb1;" horiz-adv-x="525" 
d="M82 527h160l29 161h128l-28 -161h161l-23 -128h-161l-28 -161h-128l28 161h-161zM-1 55l23 129h450l-23 -129h-450z" />
    <glyph glyph-name="twosuperior" unicode="&#xb2;" horiz-adv-x="353" 
d="M42 406l11 62l194 163q51 43 51 83q0 20 -13 34t-36 14q-22 0 -41 -13t-29 -30l-74 26q22 49 64 79.5t92 30.5q55 0 93.5 -36t38.5 -91q0 -86 -88 -156l-93 -76h151l-16 -90h-305z" />
    <glyph glyph-name="threesuperior" unicode="&#xb3;" horiz-adv-x="361" 
d="M148 529q5 -14 24 -24t40 -10q31 0 52 16.5t21 42.5q0 20 -17 33.5t-44 13.5h-25l16 88h26q21 0 40.5 14t19.5 34q0 15 -13 23.5t-31 8.5q-33 0 -53 -25l-77 33q21 36 60.5 58.5t82.5 22.5q52 0 90.5 -28.5t38.5 -80.5q0 -64 -64 -102q46 -30 46 -85q0 -72 -50 -116
t-124 -44q-56 0 -97.5 26t-51.5 69z" />
    <glyph glyph-name="acute" unicode="&#xb4;" horiz-adv-x="246" 
d="M172 558h-97l82 172h144z" />
    <glyph glyph-name="uni00B5" unicode="&#xb5;" horiz-adv-x="633" 
d="M-26 -220l135 770h162l-49 -282q-4 -20 -4 -37q0 -33 18.5 -58.5t59.5 -25.5t74 30.5t44 90.5l49 282h162l-96 -550h-162l8 46q-65 -57 -144 -57q-40 0 -52 31l-43 -240h-162z" />
    <glyph glyph-name="paragraph" unicode="&#xb6;" horiz-adv-x="587" 
d="M72 526q19 105 100 179.5t177 74.5h274l-161 -911h-68l149 843h-85l-149 -843h-69l71 403h-52q-99 0 -145.5 67t-46.5 136q0 25 5 51z" />
    <glyph glyph-name="periodcentered" unicode="&#xb7;" horiz-adv-x="238" 
d="M74 427q34 33 78 33q34 0 56.5 -22.5t22.5 -55.5q0 -44 -34.5 -77.5t-77.5 -33.5q-35 0 -57 22t-22 56q0 45 34 78z" />
    <glyph glyph-name="cedilla" unicode="&#xb8;" horiz-adv-x="261" 
d="M-19 -118q16 -12 54 -12t41 23q0 19 -37 19h-36l40 88h98l-21 -42q53 -12 53 -63q0 -49 -40.5 -82t-98.5 -33q-66 0 -98 20z" />
    <glyph glyph-name="onesuperior" unicode="&#xb9;" horiz-adv-x="196" 
d="M174 407h-93l62 352h-45l16 91h138z" />
    <glyph glyph-name="ordmasculine" unicode="&#xba;" horiz-adv-x="426" 
d="M135 678q61 61 152 61q70 0 117.5 -47t47.5 -115q0 -86 -61.5 -148t-152.5 -62q-70 0 -117 47.5t-47 115.5q0 86 61 148zM197 488q19 -20 50 -20q41 0 71.5 30t30.5 70q0 30 -20 50t-52 20q-40 0 -70 -30t-30 -70q0 -30 20 -50z" />
    <glyph glyph-name="guillemotright" unicode="&#xbb;" horiz-adv-x="473" 
d="M337 365l-71 180h113l72 -180l-135 -180h-114zM157 365l-72 180h114l71 -180l-135 -180h-113z" />
    <glyph glyph-name="onequarter" unicode="&#xbc;" horiz-adv-x="703" 
d="M340 189l221 255h119l-45 -255h30l-16 -93h-30l-17 -96h-93l17 96h-202zM552 781h111l-541 -781h-111zM79 337l62 352h-45l16 91h138l-78 -443h-93zM445 189h97l24 136z" />
    <glyph glyph-name="onehalf" unicode="&#xbd;" horiz-adv-x="774" 
d="M15 0l541 781h111l-541 -781h-111zM396 62l195 163q50 42 50 83q0 21 -12.5 34.5t-35.5 13.5q-44 0 -71 -43l-74 26q21 48 66.5 79t96.5 31q55 0 90 -34t35 -90q0 -90 -88 -159l-92 -76h150l-15 -90h-305zM82 337l63 352h-49l16 91h141l-78 -443h-93z" />
    <glyph glyph-name="threequarters" unicode="&#xbe;" horiz-adv-x="849" 
d="M470 96l16 93l221 255h119l-45 -255h30l-16 -93h-30l-17 -96h-93l17 96h-202zM699 781h110l-541 -781h-110zM143 450q5 -14 24 -24t40 -10q31 0 52 16.5t21 42.5q0 20 -17 33.5t-44 13.5h-25l15 88h26q21 0 41 13.5t20 34.5q0 15 -13 23.5t-31 8.5q-33 0 -53 -25l-78 33
q22 35 64.5 58t86.5 23q52 0 86.5 -27t34.5 -75q0 -65 -63 -109q46 -30 46 -89q0 -66 -51 -111t-121 -45q-56 0 -98.5 26t-52.5 69zM688 189l24 136l-121 -136h97z" />
    <glyph glyph-name="questiondown" unicode="&#xbf;" horiz-adv-x="559" 
d="M-11 -28q0 80 39 134.5t119 113.5q70 51 78 98l4 25h162l-8 -43q-9 -54 -39.5 -92.5t-84.5 -76.5q-59 -41 -81 -67.5t-22 -58.5q0 -26 19.5 -41.5t48.5 -15.5q66 0 106 65l135 -57q-35 -76 -105.5 -124t-153.5 -48q-93 0 -155 53.5t-62 134.5zM242 446q0 42 31.5 73
t71.5 31q33 0 53.5 -20.5t20.5 -52.5q0 -41 -32 -71.5t-73 -30.5q-31 0 -51.5 20t-20.5 51z" />
    <glyph glyph-name="Agrave" unicode="&#xc0;" horiz-adv-x="672" 
d="M323 730h186l115 -730h-186l-16 128h-215l-60 -128h-195zM316 976h144l22 -172h-97zM282 288h121l-25 206z" />
    <glyph glyph-name="Aacute" unicode="&#xc1;" horiz-adv-x="672" 
d="M323 730h186l115 -730h-186l-16 128h-215l-60 -128h-195zM387 804l82 172h144l-129 -172h-97zM403 288l-25 206l-96 -206h121z" />
    <glyph glyph-name="Acircumflex" unicode="&#xc2;" horiz-adv-x="672" 
d="M-48 0l371 730h186l115 -730h-186l-16 128h-215l-60 -128h-195zM261 811l128 135h128l79 -135h-122l-35 57l-56 -57h-122zM403 288l-25 206l-96 -206h121z" />
    <glyph glyph-name="Atilde" unicode="&#xc3;" horiz-adv-x="672" 
d="M-48 0l371 730h186l115 -730h-186l-16 128h-215l-60 -128h-195zM262 831q10 56 42 94.5t82 38.5h4q28 0 48.5 -14.5t32 -29t20.5 -14.5q19 0 26 44h99q-11 -60 -42 -96t-81 -37h-4q-27 0 -47.5 14.5t-32.5 29.5t-21 15q-20 0 -28 -45h-98zM403 288l-25 206l-96 -206h121z
" />
    <glyph glyph-name="Adieresis" unicode="&#xc4;" horiz-adv-x="672" 
d="M323 730h186l115 -730h-186l-16 128h-215l-60 -128h-195zM476 878q0 34 26 59t60 25q26 0 43.5 -16.5t17.5 -41.5q0 -35 -26.5 -60.5t-59.5 -25.5q-27 0 -44 17t-17 43zM273 878q0 34 26 59t59 25q26 0 43.5 -16.5t17.5 -41.5q0 -35 -26 -60.5t-60 -25.5q-27 0 -43.5 17
t-16.5 43zM282 288h121l-25 206z" />
    <glyph glyph-name="Aring" unicode="&#xc5;" horiz-adv-x="672" 
d="M323 730h186l115 -730h-186l-16 128h-215l-60 -128h-195zM331 890q9 52 52 84.5t94 32.5q50 0 77 -29t27 -65q0 -11 -2 -23q-9 -51 -51 -83q-43 -33 -93 -33t-78 29t-28 65q0 11 2 22zM282 288h121l-25 206zM429 867q7 -10 21 -10q13 0 24.5 9.5t12.5 18t1 11.5
q0 10 -6.5 19t-19.5 9q-14 0 -25.5 -10t-12.5 -18.5t-1 -10.5q0 -11 6 -18z" />
    <glyph glyph-name="AE" unicode="&#xc6;" horiz-adv-x="949" 
d="M323 730h661l-28 -158h-294l-21 -121h274l-27 -156h-274l-23 -129h304l-29 -166h-476l31 181h-194l-84 -181h-191zM303 341h147l40 231h-79z" />
    <glyph glyph-name="Ccedilla" unicode="&#xc7;" horiz-adv-x="773" 
d="M109 529q56 99 156.5 157t222.5 58q95 0 168.5 -39t116.5 -108l-159 -103q-48 73 -141 73q-94 0 -167.5 -72t-73.5 -165q0 -72 48 -120t122 -48q95 0 167 72l150 -101q-118 -137 -303 -149l-12 -26q52 -12 52 -62q0 -47 -43.5 -81.5t-96.5 -34.5q-66 0 -96 20l44 82
q18 -12 54 -12q41 0 41 23q0 19 -37 19h-35l33 77q-122 21 -195 110t-73 214q0 117 57 216z" />
    <glyph glyph-name="Egrave" unicode="&#xc8;" horiz-adv-x="576" 
d="M451 804h-98l-68 172h143zM491 0h-476l128 730h466l-28 -158h-294l-21 -121h273l-27 -156h-273l-23 -129h304z" />
    <glyph glyph-name="Eacute" unicode="&#xc9;" horiz-adv-x="576" 
d="M436 804h-97l82 172h143zM491 0h-476l128 730h466l-28 -158h-294l-21 -121h273l-27 -156h-273l-23 -129h304z" />
    <glyph glyph-name="Ecircumflex" unicode="&#xca;" horiz-adv-x="576" 
d="M15 0l128 730h466l-28 -158h-294l-21 -121h273l-27 -156h-273l-23 -129h304l-29 -166h-476zM235 823l128 135h128l79 -135h-122l-35 57l-56 -57h-122z" />
    <glyph glyph-name="Edieresis" unicode="&#xcb;" horiz-adv-x="576" 
d="M15 0l128 730h466l-28 -158h-294l-21 -121h273l-27 -156h-273l-23 -129h304l-29 -166h-476zM250 937q26 25 60 25q26 0 43.5 -16.5t17.5 -41.5q0 -35 -26.5 -60.5t-59.5 -25.5q-27 0 -44 17t-17 43q0 34 26 59zM454 937q26 25 60 25q26 0 43 -16.5t17 -41.5
q0 -35 -26 -60.5t-60 -25.5q-26 0 -43 17t-17 43q0 34 26 59z" />
    <glyph glyph-name="Igrave" unicode="&#xcc;" horiz-adv-x="298" 
d="M329 804h-97l-69 172h144zM188 0h-173l128 730h173z" />
    <glyph glyph-name="Iacute" unicode="&#xcd;" horiz-adv-x="291" 
d="M276 804h-98l82 172h144zM188 0h-173l128 730h173z" />
    <glyph glyph-name="Icircumflex" unicode="&#xce;" horiz-adv-x="298" 
d="M142 730h173l-128 -730h-173zM206 958h128l79 -135h-122l-35 57l-56 -57h-122z" />
    <glyph glyph-name="Idieresis" unicode="&#xcf;" horiz-adv-x="298" 
d="M149 730h173l-128 -730h-173zM281 878q0 34 26 59t60 25q26 0 43.5 -16.5t17.5 -41.5q0 -35 -26.5 -60.5t-59.5 -25.5q-27 0 -44 17t-17 43zM114 937q26 25 59 25q26 0 43.5 -16.5t17.5 -41.5q0 -35 -26 -60.5t-60 -25.5q-27 0 -43.5 17t-16.5 43q0 34 26 59z" />
    <glyph glyph-name="Eth" unicode="&#xd0;" horiz-adv-x="739" 
d="M275 0h-253l53 301h-50l22 128h50l53 301h232q149 0 243.5 -89t94.5 -220q0 -180 -127 -300.5t-318 -120.5zM247 301l-23 -131h69q103 0 173 67.5t70 164.5q0 70 -46.5 114.5t-127.5 44.5l-69 -1l-23 -131h151l-22 -128h-152z" />
    <glyph glyph-name="Ntilde" unicode="&#xd1;" horiz-adv-x="755" 
d="M533 817q-30 -1 -51 14t-33 30t-21 15q-20 0 -28 -45h-98q10 56 42 94.5t82 38.5q31 1 52 -14t32.5 -29.5t20.5 -14.5q19 0 26 44h99q-11 -60 -42 -96t-81 -37zM188 0h-173l128 730h173l209 -422l74 422h174l-128 -730h-174l-209 422z" />
    <glyph glyph-name="Ograve" unicode="&#xd2;" horiz-adv-x="843" 
d="M554 804h-97l-69 172h144zM387 -16q-149 0 -242 93.5t-93 235.5q0 180 123.5 305.5t312.5 125.5q149 0 242 -93.5t93 -235.5q0 -180 -124 -305.5t-312 -125.5zM402 162q96 0 168 71.5t72 166.5q0 71 -48 119t-121 48q-97 0 -169 -71.5t-72 -165.5q0 -72 48 -120t122 -48z
" />
    <glyph glyph-name="Oacute" unicode="&#xd3;" horiz-adv-x="843" 
d="M565 804h-97l82 172h144zM387 -16q-149 0 -242 93.5t-93 235.5q0 180 123.5 305.5t312.5 125.5q149 0 242 -93.5t93 -235.5q0 -180 -124 -305.5t-312 -125.5zM402 162q96 0 168 71.5t72 166.5q0 71 -48 119t-121 48q-97 0 -169 -71.5t-72 -165.5q0 -72 48 -120t122 -48z
" />
    <glyph glyph-name="Ocircumflex" unicode="&#xd4;" horiz-adv-x="843" 
d="M473 823h-122l127 135h128l80 -135h-122l-35 57zM387 -16q-149 0 -242 93.5t-93 235.5q0 180 123.5 305.5t312.5 125.5q149 0 242 -93.5t93 -235.5q0 -180 -124 -305.5t-312 -125.5zM402 162q96 0 168 71.5t72 166.5q0 71 -48 119t-121 48q-97 0 -169 -71.5t-72 -165.5
q0 -72 48 -120t122 -48z" />
    <glyph glyph-name="Otilde" unicode="&#xd5;" horiz-adv-x="843" 
d="M582 817q-31 -1 -52 14t-33 30t-21 15q-20 0 -28 -45h-98q10 56 42 94.5t82 38.5q25 1 43.5 -8t27.5 -20.5t18 -20.5t16 -9q19 0 27 44h98q-11 -60 -41.5 -96t-80.5 -37zM387 -16q-149 0 -242 93.5t-93 235.5q0 180 123.5 305.5t312.5 125.5q149 0 242 -93.5t93 -235.5
q0 -180 -124 -305.5t-312 -125.5zM402 162q96 0 168 71.5t72 166.5q0 71 -48 119t-121 48q-97 0 -169 -71.5t-72 -165.5q0 -72 48 -120t122 -48z" />
    <glyph glyph-name="Odieresis" unicode="&#xd6;" horiz-adv-x="843" 
d="M398 818q-27 0 -43.5 17t-16.5 43q0 34 26 59t59 25q26 0 43.5 -16.5t17.5 -41.5q0 -35 -26 -60.5t-60 -25.5zM602 818q-27 0 -44 17t-17 43q0 34 26 59t60 25q26 0 43.5 -16.5t17.5 -41.5q0 -35 -26.5 -60.5t-59.5 -25.5zM387 -16q-149 0 -242 93.5t-93 235.5
q0 180 123.5 305.5t312.5 125.5q149 0 242 -93.5t93 -235.5q0 -180 -124 -305.5t-312 -125.5zM402 162q96 0 168 71.5t72 166.5q0 71 -48 119t-121 48q-97 0 -169 -71.5t-72 -165.5q0 -72 48 -120t122 -48z" />
    <glyph glyph-name="multiply" unicode="&#xd7;" horiz-adv-x="527" 
d="M498 243l-128 -109l-100 122l-144 -122l-90 109l144 122l-101 122l129 109l100 -122l144 122l89 -109l-143 -122z" />
    <glyph glyph-name="Oslash" unicode="&#xd8;" horiz-adv-x="852" 
d="M173 60l-89 -77l-76 91l92 78q-40 72 -40 161q0 180 123.5 305.5t312.5 125.5q130 0 216 -72l88 75l75 -91l-87 -73q43 -74 43 -168q0 -180 -124 -305.5t-312 -125.5q-132 0 -222 76zM254 283l305 259q-31 25 -78 25q-97 0 -168.5 -71.5t-71.5 -165.5q0 -28 13 -47z
M410 162q96 0 168 71.5t72 166.5q0 29 -14 54l-311 -266q35 -26 85 -26z" />
    <glyph glyph-name="Ugrave" unicode="&#xd9;" horiz-adv-x="685" 
d="M498 804h-98l-68 172h143zM291 -16q-125 0 -193 81.5t-45 211.5l80 453h173l-80 -453q-10 -56 17 -87.5t79 -31.5q51 0 89.5 31.5t48.5 87.5l79 453h174l-80 -453q-23 -129 -120.5 -211t-221.5 -82z" />
    <glyph glyph-name="Uacute" unicode="&#xda;" horiz-adv-x="685" 
d="M475 804h-98l82 172h144zM291 -16q-125 0 -193 81.5t-45 211.5l80 453h173l-80 -453q-10 -56 17 -87.5t79 -31.5q51 0 89.5 31.5t48.5 87.5l79 453h174l-80 -453q-23 -129 -120.5 -211t-221.5 -82z" />
    <glyph glyph-name="Ucircumflex" unicode="&#xdb;" horiz-adv-x="685" 
d="M396 823h-122l128 135h128l79 -135h-122l-35 57zM291 -16q-125 0 -193 81.5t-45 211.5l80 453h173l-80 -453q-10 -56 17 -87.5t79 -31.5q51 0 89.5 31.5t48.5 87.5l79 453h174l-80 -453q-23 -129 -120.5 -211t-221.5 -82z" />
    <glyph glyph-name="Udieresis" unicode="&#xdc;" horiz-adv-x="685" 
d="M347 818q-30 0 -47.5 21t-12.5 51q6 31 30.5 51.5t54.5 20.5t47.5 -21t11.5 -51q-5 -30 -30 -51t-54 -21zM551 818q-30 0 -47.5 21t-12.5 51q6 31 30.5 51.5t54.5 20.5t47.5 -21t11.5 -51q-5 -30 -30 -51t-54 -21zM291 -16q-125 0 -193 81.5t-45 211.5l80 453h173
l-80 -453q-10 -56 17 -87.5t79 -31.5q51 0 89.5 31.5t48.5 87.5l79 453h174l-80 -453q-23 -129 -120.5 -211t-221.5 -82z" />
    <glyph glyph-name="Yacute" unicode="&#xdd;" horiz-adv-x="655" 
d="M466 804h-98l82 172h144zM366 0h-173l52 295l-160 435h195l87 -228l168 228h195l-312 -435z" />
    <glyph glyph-name="Thorn" unicode="&#xde;" horiz-adv-x="650" 
d="M195 0h-173l128 730h173l-21 -121h109q106 0 166 -60.5t60 -153.5q0 -121 -89.5 -197.5t-221.5 -76.5h-110zM273 439l-27 -148h105q44 0 73 23.5t32 59.5q2 29 -18 47t-60 18h-105z" />
    <glyph glyph-name="germandbls" unicode="&#xdf;" horiz-adv-x="642" 
d="M342 -10q-87 0 -126 23l25 143q45 -17 92 -17q49 0 81 30.5t32 73.5q0 28 -19 49.5t-42 33t-42 31t-19 43.5q0 25 11 46t27 36t31.5 30t26.5 35t11 44q0 27 -17.5 43.5t-47.5 16.5q-31 0 -56.5 -21.5t-33.5 -67.5l-99 -562h-155l104 589q16 93 89.5 147t173.5 54
q90 0 149 -50.5t59 -127.5q0 -42 -17 -75t-37.5 -49.5t-37.5 -33t-17 -29.5q0 -9 12 -18.5t29 -22t34 -29.5t29 -46.5t12 -66.5q0 -108 -74 -180t-188 -72z" />
    <glyph glyph-name="agrave" unicode="&#xe0;" 
d="M451 634h-98l-68 172h143zM238 -8q-92 0 -152 70.5t-60 174.5q0 130 88 226.5t214 96.5q52 0 94.5 -25t60.5 -64l23 79h147l-96 -550h-147l4 80q-32 -39 -78.5 -63.5t-97.5 -24.5zM297 152q58 0 103 44t45 102q0 45 -29 74t-75 29q-58 0 -103 -44.5t-45 -102.5
q0 -44 29 -73t75 -29z" />
    <glyph glyph-name="aacute" unicode="&#xe1;" 
d="M412 634h-97l82 172h144zM238 -8q-92 0 -152 70.5t-60 174.5q0 130 88 226.5t214 96.5q52 0 94.5 -25t60.5 -64l23 79h147l-96 -550h-147l4 80q-32 -39 -78.5 -63.5t-97.5 -24.5zM297 152q58 0 103 44t45 102q0 45 -29 74t-75 29q-58 0 -103 -44.5t-45 -102.5
q0 -44 29 -73t75 -29z" />
    <glyph glyph-name="acircumflex" unicode="&#xe2;" 
d="M352 653h-122l128 135h128l79 -135h-122l-35 57zM238 -8q-92 0 -152 70.5t-60 174.5q0 130 88 226.5t214 96.5q52 0 94.5 -25t60.5 -64l23 79h147l-96 -550h-147l4 80q-32 -39 -78.5 -63.5t-97.5 -24.5zM297 152q58 0 103 44t45 102q0 45 -29 74t-75 29q-58 0 -103 -44.5
t-45 -102.5q0 -44 29 -73t75 -29z" />
    <glyph glyph-name="atilde" unicode="&#xe3;" 
d="M463 647q-30 0 -50.5 14.5t-32.5 29.5t-21 15q-20 0 -28 -45h-98q11 56 43.5 94.5t82.5 38.5q24 0 42.5 -9t27 -20t17.5 -20t17 -9q17 0 26 44h98q-11 -61 -42.5 -97t-81.5 -36zM238 -8q-92 0 -152 70.5t-60 174.5q0 130 88 226.5t214 96.5q52 0 94.5 -25t60.5 -64l23 79
h147l-96 -550h-147l4 80q-32 -39 -78.5 -63.5t-97.5 -24.5zM297 152q58 0 103 44t45 102q0 45 -29 74t-75 29q-58 0 -103 -44.5t-45 -102.5q0 -44 29 -73t75 -29z" />
    <glyph glyph-name="adieresis" unicode="&#xe4;" 
d="M296 648q-27 0 -44 17t-17 43q0 34 26 59t60 25q26 0 43.5 -16.5t17.5 -41.5q0 -35 -26.5 -60.5t-59.5 -25.5zM499 648q-26 0 -43 17t-17 43q0 34 26 59t60 25q26 0 43 -16.5t17 -41.5q0 -35 -26 -60.5t-60 -25.5zM238 -8q-92 0 -152 70.5t-60 174.5q0 130 88 226.5
t214 96.5q52 0 94.5 -25t60.5 -64l23 79h147l-96 -550h-147l4 80q-32 -39 -78.5 -63.5t-97.5 -24.5zM297 152q58 0 103 44t45 102q0 45 -29 74t-75 29q-58 0 -103 -44.5t-45 -102.5q0 -44 29 -73t75 -29z" />
    <glyph glyph-name="aring" unicode="&#xe5;" 
d="M373 604q-45 0 -76.5 27.5t-31.5 70.5q0 56 43.5 95.5t101.5 39.5q44 0 75.5 -27t31.5 -70q0 -59 -44 -97.5t-100 -38.5zM386 687q16 0 27 11.5t11 28.5q0 12 -7 19.5t-19 7.5q-16 0 -27.5 -11.5t-11.5 -27.5q0 -12 7.5 -20t19.5 -8zM238 -8q-92 0 -152 70.5t-60 174.5
q0 130 88 226.5t214 96.5q52 0 94.5 -25t60.5 -64l23 79h147l-96 -550h-147l4 80q-32 -39 -78.5 -63.5t-97.5 -24.5zM297 152q58 0 103 44t45 102q0 45 -29 74t-75 29q-58 0 -103 -44.5t-45 -102.5q0 -44 29 -73t75 -29z" />
    <glyph glyph-name="ae" unicode="&#xe6;" horiz-adv-x="951" 
d="M215 -10q-104 0 -158.5 49t-41.5 124q13 76 77 127t163 51h126q5 35 -18.5 58t-70.5 23q-66 0 -124 -37l-80 82q109 91 251 91q115 0 164 -78q83 78 188 78q113 0 176.5 -77.5t43.5 -190.5q-14 -65 -20 -80h-352q-4 -36 24.5 -58t68.5 -22q69 0 118 42l110 -75
q-46 -50 -114 -78.5t-133 -28.5q-63 0 -111.5 25.5t-74.5 70.5q-86 -96 -212 -96zM562 341h200q-2 28 -26.5 47.5t-64.5 19.5q-39 0 -68 -19.5t-41 -47.5zM247 139q46 0 75.5 19.5t32.5 38.5l3 13h-96q-68 0 -75 -37q-6 -34 60 -34z" />
    <glyph glyph-name="ccedilla" unicode="&#xe7;" horiz-adv-x="585" 
d="M202 -220q-66 0 -96 20l44 82q18 -12 54 -12q39 0 41 23q0 19 -37 19h-35l42 89q-82 21 -135 87t-53 153q0 134 92.5 225.5t229.5 91.5q69 0 127.5 -33.5t91.5 -90.5l-146 -86q-29 45 -86 45q-56 0 -99 -42.5t-43 -97.5q0 -42 27.5 -70t71.5 -28q64 0 108 52l130 -100
q-86 -106 -225 -116l-16 -33q58 -14 51 -75q-6 -43 -47.5 -73t-91.5 -30z" />
    <glyph glyph-name="egrave" unicode="&#xe8;" horiz-adv-x="623" 
d="M424 634h-97l-69 172h144zM293 -10q-115 0 -191 71.5t-76 177.5q0 131 92.5 225t228.5 94q110 0 183 -69t68 -178q0 -29 -16 -91h-386q3 -40 34 -60.5t70 -20.5q79 0 129 42l112 -86q-102 -105 -248 -105zM215 338h221q0 32 -25 53t-67 21q-45 0 -80 -19.5t-49 -54.5z
" />
    <glyph glyph-name="eacute" unicode="&#xe9;" horiz-adv-x="623" 
d="M414 634h-98l83 172h143zM293 -10q-115 0 -191 71.5t-76 177.5q0 131 92.5 225t228.5 94q110 0 183 -69t68 -178q0 -29 -16 -91h-386q3 -40 34 -60.5t70 -20.5q79 0 129 42l112 -86q-102 -105 -248 -105zM215 338h221q0 32 -25 53t-67 21q-45 0 -80 -19.5t-49 -54.5z" />
    <glyph glyph-name="ecircumflex" unicode="&#xea;" horiz-adv-x="623" 
d="M336 653h-122l127 135h128l80 -135h-122l-35 57zM293 -10q-115 0 -191 71.5t-76 177.5q0 131 92.5 225t228.5 94q110 0 183 -69t68 -178q0 -29 -16 -91h-386q3 -40 34 -60.5t70 -20.5q79 0 129 42l112 -86q-102 -105 -248 -105zM215 338h221q0 32 -25 53t-67 21
q-45 0 -80 -19.5t-49 -54.5z" />
    <glyph glyph-name="edieresis" unicode="&#xeb;" horiz-adv-x="623" 
d="M277 648q-27 0 -44 17t-17 43q0 34 26 59t60 25q26 0 43.5 -16.5t17.5 -41.5q0 -35 -26.5 -60.5t-59.5 -25.5zM480 648q-26 0 -43 17t-17 43q0 34 26 59t60 25q26 0 43 -16.5t17 -41.5q0 -35 -26 -60.5t-60 -25.5zM293 -10q-115 0 -191 71.5t-76 177.5q0 131 92.5 225
t228.5 94q110 0 183 -69t68 -178q0 -29 -16 -91h-386q3 -40 34 -60.5t70 -20.5q79 0 129 42l112 -86q-102 -105 -248 -105zM215 338h221q0 32 -25 53t-67 21q-45 0 -80 -19.5t-49 -54.5z" />
    <glyph glyph-name="igrave" unicode="&#xec;" horiz-adv-x="267" 
d="M262 634h-97l-69 172h144zM167 0h-162l96 550h162z" />
    <glyph glyph-name="iacute" unicode="&#xed;" horiz-adv-x="267" 
d="M241 634h-97l82 172h144zM167 0h-162l96 551l162 -1z" />
    <glyph glyph-name="icircumflex" unicode="&#xee;" horiz-adv-x="267" 
d="M155 653h-122l127 135h128l80 -135h-122l-35 57zM167 0h-162l96 550h162z" />
    <glyph glyph-name="idieresis" unicode="&#xef;" horiz-adv-x="266" 
d="M113 659q-23 0 -37.5 14t-14.5 36q0 29 22.5 50.5t50.5 21.5q22 0 36 -13.5t14 -35.5q0 -30 -21.5 -51.5t-49.5 -21.5zM291 659q-23 0 -37.5 14t-14.5 36q0 29 22.5 50.5t50.5 21.5q22 0 36 -13.5t14 -35.5q0 -30 -21.5 -51.5t-49.5 -21.5zM170 0h-162l96 550h162z" />
    <glyph glyph-name="eth" unicode="&#xf0;" horiz-adv-x="544" 
d="M217 -11q-88 0 -144.5 55t-56.5 138q0 111 72 190.5t187 79.5q21 0 47 -9t33 -22q-6 69 -46 124l-146 -71l-27 73l115 56q-38 33 -103 63l119 114q86 -35 146 -98l114 55l26 -74l-91 -44q69 -112 63 -270q-11 -169 -94.5 -264.5t-213.5 -95.5zM240 142q36 0 65.5 31
t29.5 66q0 29 -18.5 47.5t-47.5 18.5q-38 0 -68 -29.5t-30 -66.5q0 -29 19.5 -48t49.5 -19z" />
    <glyph glyph-name="ntilde" unicode="&#xf1;" horiz-adv-x="589" 
d="M421 647q-24 -1 -43 8.5t-28 21t-18.5 21t-17.5 8.5q-19 -2 -27 -45h-98q10 56 42 94.5t82 38.5q32 1 53 -14t32.5 -30t20.5 -14q18 2 26 44h98q-11 -60 -41.5 -96t-80.5 -37zM152 0h-163l97 550h147l-2 -72q66 82 158 82q100 0 144.5 -68.5t19.5 -210.5l-49 -281h-162
l49 281q10 59 -12 89.5t-62 30.5t-73 -30t-43 -90z" />
    <glyph glyph-name="ograve" unicode="&#xf2;" horiz-adv-x="630" 
d="M432 634h-98l-68 172h144zM274 -10q-110 0 -178.5 72t-68.5 179q0 134 94.5 225.5t234.5 91.5q109 0 178 -72t69 -179q0 -133 -94.5 -225t-234.5 -92zM293 155q59 0 101 42t42 98q0 42 -28 70t-72 28q-59 0 -100.5 -42t-41.5 -98q0 -42 27.5 -70t71.5 -28z" />
    <glyph glyph-name="oacute" unicode="&#xf3;" horiz-adv-x="630" 
d="M414 634h-97l82 172h144zM274 -10q-110 0 -178.5 72t-68.5 179q0 134 94.5 225.5t234.5 91.5q109 0 178 -72t69 -179q0 -133 -94.5 -225t-234.5 -92zM293 155q59 0 101 42t42 98q0 42 -28 70t-72 28q-59 0 -100.5 -42t-41.5 -98q0 -42 27.5 -70t71.5 -28z" />
    <glyph glyph-name="ocircumflex" unicode="&#xf4;" horiz-adv-x="630" 
d="M335 653h-122l127 135h128l80 -135h-122l-35 57zM274 -10q-110 0 -178.5 72t-68.5 179q0 134 94.5 225.5t234.5 91.5q109 0 178 -72t69 -179q0 -133 -94.5 -225t-234.5 -92zM293 155q59 0 101 42t42 98q0 42 -28 70t-72 28q-59 0 -100.5 -42t-41.5 -98q0 -42 27.5 -70
t71.5 -28z" />
    <glyph glyph-name="otilde" unicode="&#xf5;" horiz-adv-x="630" 
d="M445 647q-30 -1 -51 14t-33.5 30t-21.5 15q-20 0 -28 -45h-98q11 56 43.5 94.5t81.5 38.5q24 1 42.5 -8t27.5 -20t18 -20.5t16 -9.5q19 0 27 44h98q-10 -60 -41 -96t-81 -37zM274 -10q-110 0 -178.5 72t-68.5 179q0 134 94.5 225.5t234.5 91.5q109 0 178 -72t69 -179
q0 -133 -94.5 -225t-234.5 -92zM293 155q59 0 101 42t42 98q0 42 -28 70t-72 28q-59 0 -100.5 -42t-41.5 -98q0 -42 27.5 -70t71.5 -28z" />
    <glyph glyph-name="odieresis" unicode="&#xf6;" horiz-adv-x="630" 
d="M275 648q-26 0 -43 17t-17 43q0 34 26 59t60 25q26 0 43 -16.5t17 -41.5q0 -35 -26 -60.5t-60 -25.5zM479 648q-26 0 -43 17t-17 43q0 34 26 59t59 25q27 0 44 -16.5t17 -41.5q0 -35 -26 -60.5t-60 -25.5zM274 -10q-110 0 -178.5 72t-68.5 179q0 134 94.5 225.5
t234.5 91.5q109 0 178 -72t69 -179q0 -133 -94.5 -225t-234.5 -92zM293 155q59 0 101 42t42 98q0 42 -28 70t-72 28q-59 0 -100.5 -42t-41.5 -98q0 -42 27.5 -70t71.5 -28z" />
    <glyph glyph-name="divide" unicode="&#xf7;" horiz-adv-x="525" 
d="M299 479q-32 0 -53 20.5t-21 51.5q0 41 32 72.5t72 31.5q32 0 53 -21t21 -52q0 -41 -32 -72t-72 -31zM494 309h-450l19 113h450zM227 76q-33 0 -53 20t-20 52q0 41 32 72t73 31q31 0 51.5 -20.5t20.5 -51.5q0 -41 -32 -72t-72 -31z" />
    <glyph glyph-name="oslash" unicode="&#xf8;" horiz-adv-x="638" 
d="M120 46l-81 -68l-59 70l83 70q-30 57 -30 123q0 134 94.5 225.5t235.5 91.5q90 0 156 -53l80 68l57 -70l-79 -68q32 -59 32 -128q0 -133 -94.5 -225t-234.5 -92q-92 0 -160 56zM200 235l179 152q-21 15 -43 15q-59 0 -101.5 -41t-42.5 -91q0 -19 8 -35zM306 147
q57 0 101 40.5t44 94.5q0 20 -11 37l-182 -155q19 -17 48 -17z" />
    <glyph glyph-name="ugrave" unicode="&#xf9;" horiz-adv-x="630" 
d="M433 634h-98l-68 172h144zM215 -10q-99 0 -143.5 69t-19.5 210l49 281h162l-49 -281q-11 -59 11 -89t62 -30t73 30t44 89l49 281h162l-96 -550h-147l1 72q-68 -82 -158 -82z" />
    <glyph glyph-name="uacute" unicode="&#xfa;" horiz-adv-x="630" 
d="M418 641h-97l83 172h144zM215 -10q-99 0 -143.5 69t-19.5 210l49 281h162l-49 -281q-11 -59 11 -89t62 -30t73 30t44 89l49 281h162l-96 -550h-147l1 72q-68 -82 -158 -82z" />
    <glyph glyph-name="ucircumflex" unicode="&#xfb;" horiz-adv-x="630" 
d="M331 653h-122l127 135h128l80 -135h-122l-36 57zM215 -10q-99 0 -143.5 69t-19.5 210l49 281h162l-49 -281q-11 -59 11 -89t62 -30t73 30t44 89l49 281h162l-96 -550h-147l1 72q-68 -82 -158 -82z" />
    <glyph glyph-name="udieresis" unicode="&#xfc;" horiz-adv-x="630" 
d="M273 648q-29 0 -46.5 21t-12.5 51q6 31 30.5 51.5t54.5 20.5t47 -21t12 -51t-30 -51t-55 -21zM477 648q-30 0 -47 21t-12 51t29.5 51t54.5 21t47.5 -21t11.5 -51q-4 -30 -29 -51t-55 -21zM215 -10q-99 0 -143.5 69t-19.5 210l49 281h162l-49 -281q-11 -59 11 -89t62 -30
t73 30t44 89l49 281h162l-96 -550h-147l1 72q-68 -82 -158 -82z" />
    <glyph glyph-name="yacute" unicode="&#xfd;" horiz-adv-x="568" 
d="M380 634h-97l82 172h144zM27 -232q-62 0 -108 20l70 143q26 -10 57 -10q36 0 70.5 26t56.5 74l-114 529h174l51 -307l155 307h172l-281 -550q-65 -125 -138 -178.5t-165 -53.5z" />
    <glyph glyph-name="thorn" unicode="&#xfe;" horiz-adv-x="666" 
d="M143 -220h-163l177 1000h162l-49 -277q60 55 144 55q105 0 165.5 -69t60.5 -172q0 -138 -94 -233t-223 -95q-43 0 -79 15t-55 41zM329 152q57 0 101.5 43.5t44.5 99.5q0 43 -29 72t-74 29q-57 0 -100.5 -43.5t-43.5 -100.5q0 -44 28 -72t73 -28z" />
    <glyph glyph-name="ydieresis" unicode="&#xff;" horiz-adv-x="568" 
d="M248 648q-26 0 -43 17t-17 43q0 34 26 59t60 25q26 0 43 -16.5t17 -41.5q0 -35 -26 -60.5t-60 -25.5zM452 648q-26 0 -43 17t-17 43q0 34 26 59t59 25q27 0 44 -16.5t17 -41.5q0 -35 -26 -60.5t-60 -25.5zM27 -232q-62 0 -108 20l70 143q26 -10 57 -10q70 0 115 79
l-102 550h174l51 -307l155 307h172l-281 -550q-65 -125 -138 -178.5t-165 -53.5z" />
    <glyph glyph-name="Amacron" unicode="&#x100;" horiz-adv-x="672" 
d="M623 826h-380l23 128h380zM147 0h-195l371 730h186l115 -730h-186l-16 128h-215zM378 494l-96 -206h121z" />
    <glyph glyph-name="amacron" unicode="&#x101;" 
d="M598 656h-380l23 128h380zM238 -8q-93 1 -152.5 71t-59.5 174q0 130 88 226.5t214 96.5q52 0 94.5 -25t60.5 -64l23 79h147l-96 -550h-147l4 80q-32 -39 -78.5 -63.5t-97.5 -24.5zM297 152q58 0 103 44t45 102q0 45 -29 74t-75 29q-58 0 -103 -44.5t-45 -102.5
q0 -44 29 -73t75 -29z" />
    <glyph glyph-name="Abreve" unicode="&#x102;" horiz-adv-x="672" 
d="M430 817q-65 0 -103 43.5t-27 102.5h86q-6 -25 11.5 -43t47.5 -18q29 0 51.5 17t28.5 44h85q-12 -62 -64 -104t-116 -42zM147 0h-195l371 730h186l115 -730h-186l-16 128h-215zM378 494l-96 -206h121z" />
    <glyph glyph-name="abreve" unicode="&#x103;" 
d="M404 647q-66 0 -108 44t-31 102h87q-4 -27 12.5 -44t45.5 -17t51.5 17t28.5 44h86q-13 -63 -61 -104.5t-111 -41.5zM238 -8q-92 0 -152 70.5t-60 174.5q0 130 88 226.5t214 96.5q52 0 94.5 -25t60.5 -64l23 79h147l-96 -550h-147l4 80q-32 -39 -78.5 -63.5t-97.5 -24.5z
M297 152q58 0 103 44t45 102q0 45 -29 74t-75 29q-58 0 -103 -44.5t-45 -102.5q0 -44 29 -73t75 -29z" />
    <glyph glyph-name="Aogonek" unicode="&#x104;" horiz-adv-x="671" 
d="M539 -220q-33 0 -54 21t-21 55q0 56 80 144h-106l-16 128h-215l-60 -128h-195l371 730h186l115 -730l-6 -6q-51 -58 -57 -84q-1 -5 -1 -10q0 -21 17 -21q13 0 26 13l29 -64q-35 -48 -93 -48zM378 494l-96 -206h121z" />
    <glyph glyph-name="aogonek" unicode="&#x105;" 
d="M450 -209q-32 0 -53 21t-21 55q0 12 2 23.5t7 22.5t8.5 18.5t13 19t13.5 16t15.5 17.5t14.5 16h-40l4 80q-32 -39 -78.5 -63.5t-97.5 -24.5q-92 0 -152 70.5t-60 174.5q0 130 88 226.5t214 96.5q52 0 94.5 -25t60.5 -64l23 79h147l-96 -550h-27q-6 -7 -21 -23.5t-21 -24
t-12 -19t-6 -21.5q0 -22 19 -22q13 0 26 13l28 -64q-35 -48 -93 -48zM297 152q58 0 103 44t45 102q0 45 -29 74t-75 29q-58 0 -103 -44.5t-45 -102.5q0 -44 29 -73t75 -29z" />
    <glyph glyph-name="Cacute" unicode="&#x106;" horiz-adv-x="773" 
d="M518 804h-97l82 172h144zM387 -16q-149 0 -242 93.5t-93 235.5q0 117 56.5 216t157 157t222.5 58q95 0 168.5 -39t116.5 -108l-159 -103q-48 73 -141 73q-94 0 -167.5 -72t-73.5 -165q0 -72 48 -120t122 -48q95 0 167 72l150 -101q-61 -70 -146.5 -109.5t-185.5 -39.5z
" />
    <glyph glyph-name="cacute" unicode="&#x107;" horiz-adv-x="585" 
d="M405 634h-98l82 172h144zM281 -10q-105 0 -179.5 73t-74.5 178q0 134 92.5 225.5t229.5 91.5q69 0 127.5 -33.5t91.5 -90.5l-146 -86q-29 45 -86 45q-56 0 -99 -42.5t-43 -97.5q0 -42 27.5 -70t71.5 -28q64 0 108 52l130 -100q-45 -55 -109.5 -86t-140.5 -31z" />
    <glyph glyph-name="Ccircumflex" unicode="&#x108;" horiz-adv-x="773" 
d="M465 823h-122l128 135h128l79 -135h-122l-35 57zM387 -16q-149 0 -242 93.5t-93 235.5q0 117 56.5 216t157 157t222.5 58q95 0 168.5 -39t116.5 -108l-159 -103q-48 73 -141 73q-94 0 -167.5 -72t-73.5 -165q0 -72 48 -120t122 -48q95 0 167 72l150 -101
q-61 -70 -146.5 -109.5t-185.5 -39.5z" />
    <glyph glyph-name="ccircumflex" unicode="&#x109;" horiz-adv-x="585" 
d="M333 653h-122l128 135h128l79 -135h-122l-35 57zM281 -10q-105 0 -179.5 73t-74.5 178q0 134 92.5 225.5t229.5 91.5q69 0 127.5 -33.5t91.5 -90.5l-146 -86q-29 45 -86 45q-56 0 -99 -42.5t-43 -97.5q0 -42 27.5 -70t71.5 -28q64 0 108 52l130 -100q-45 -55 -109.5 -86
t-140.5 -31z" />
    <glyph glyph-name="Cdotaccent" unicode="&#x10a;" horiz-adv-x="773" 
d="M488 802q-33 0 -53.5 21t-20.5 52q0 41 32 72t73 31q31 0 51.5 -20.5t20.5 -50.5q0 -42 -31.5 -73.5t-71.5 -31.5zM387 -16q-149 0 -242 93.5t-93 235.5q0 117 56.5 216t157 157t222.5 58q95 0 168.5 -39t116.5 -108l-159 -103q-48 73 -141 73q-94 0 -167.5 -72
t-73.5 -165q0 -72 48 -120t122 -48q95 0 167 72l150 -101q-61 -70 -146.5 -109.5t-185.5 -39.5z" />
    <glyph glyph-name="cdotaccent" unicode="&#x10b;" horiz-adv-x="585" 
d="M361 632q-33 0 -54 21t-21 52q0 41 32.5 72t72.5 31q31 0 52 -20.5t21 -50.5q0 -42 -31.5 -73.5t-71.5 -31.5zM281 -10q-105 0 -179.5 73t-74.5 178q0 134 92.5 225.5t229.5 91.5q69 0 127.5 -33.5t91.5 -90.5l-146 -86q-29 45 -86 45q-56 0 -99 -42.5t-43 -97.5
q0 -42 27.5 -70t71.5 -28q64 0 108 52l130 -100q-45 -55 -109.5 -86t-140.5 -31z" />
    <glyph glyph-name="Ccaron" unicode="&#x10c;" horiz-adv-x="773" 
d="M568 823h-128l-79 135h122l35 -57l56 57h122zM387 -16q-149 0 -242 93.5t-93 235.5q0 117 56.5 216t157 157t222.5 58q95 0 168.5 -39t116.5 -108l-159 -103q-48 73 -141 73q-94 0 -167.5 -72t-73.5 -165q0 -72 48 -120t122 -48q95 0 167 72l150 -101
q-61 -70 -146.5 -109.5t-185.5 -39.5z" />
    <glyph glyph-name="ccaron" unicode="&#x10d;" horiz-adv-x="585" 
d="M422 653h-128l-79 135h122l35 -57l56 57h122zM281 -10q-105 0 -179.5 73t-74.5 178q0 134 92.5 225.5t229.5 91.5q69 0 127.5 -33.5t91.5 -90.5l-146 -86q-29 45 -86 45q-56 0 -99 -42.5t-43 -97.5q0 -42 27.5 -70t71.5 -28q64 0 108 52l130 -100q-45 -55 -109.5 -86
t-140.5 -31z" />
    <glyph glyph-name="Dcaron" unicode="&#x10e;" horiz-adv-x="731" 
d="M444 823h-128l-79 135h122l35 -57l56 57h122zM268 0h-253l128 730h231q150 0 244 -89t94 -220q0 -180 -126.5 -300.5t-317.5 -120.5zM286 560l-69 -390h69q102 0 172.5 68t70.5 164q0 70 -46.5 114.5t-127.5 44.5z" />
    <glyph glyph-name="dcaron" unicode="&#x10f;" horiz-adv-x="799" 
d="M238 -8q-92 0 -152 70.5t-60 174.5q0 131 87 227t215 96q49 0 91.5 -23.5t59.5 -59.5l53 303h162l-137 -780h-147l4 80q-72 -88 -176 -88zM820 533h-105l25 247h143zM297 152q60 0 104 43.5t44 102.5q0 45 -29 74t-75 29q-60 0 -104 -44t-44 -103q0 -44 29 -73t75 -29z
" />
    <glyph glyph-name="Dcroat" unicode="&#x110;" horiz-adv-x="739" 
d="M275 0h-253l53 301h-50l22 128h50l53 301h232q149 0 243.5 -89t94.5 -220q0 -180 -127 -300.5t-318 -120.5zM247 301l-23 -131h69q103 0 173 67.5t70 164.5q0 70 -46.5 114.5t-127.5 44.5l-69 -1l-23 -131h158l-21 -128h-160z" />
    <glyph glyph-name="dcroat" unicode="&#x111;" horiz-adv-x="655" 
d="M238 -8q-92 0 -152 70.5t-60 174.5q0 131 87 227t215 96q49 0 91.5 -23.5t59.5 -59.5l24 136h-161l17 99h161l12 68h162l-12 -68h57l-17 -99h-57l-108 -613h-147l4 80q-72 -88 -176 -88zM297 152q60 0 104 43.5t44 102.5q0 45 -29 74t-75 29q-60 0 -104 -44t-44 -103
q0 -44 29 -73t75 -29z" />
    <glyph glyph-name="Emacron" unicode="&#x112;" horiz-adv-x="576" 
d="M588 826h-380l23 128h380zM491 0h-476l128 730h466l-28 -158h-294l-21 -121h273l-27 -156h-273l-23 -129h304z" />
    <glyph glyph-name="emacron" unicode="&#x113;" horiz-adv-x="638" 
d="M575 656h-380l23 128h380zM293 -10q-115 0 -191 71.5t-76 177.5q0 131 92.5 225t228.5 94q110 0 183 -69t68 -178q0 -29 -16 -91h-386q3 -40 34 -60.5t70 -20.5q79 0 129 42l112 -86q-102 -105 -248 -105zM215 338h221q0 32 -25 53t-67 21q-45 0 -80 -19.5t-49 -54.5z
" />
    <glyph glyph-name="Ebreve" unicode="&#x114;" horiz-adv-x="576" 
d="M388 817q-65 0 -103 43.5t-27 102.5h86q-5 -25 12.5 -43t46.5 -18t51.5 17t28.5 44h86q-13 -63 -65 -104.5t-116 -41.5zM491 0h-476l128 730h466l-28 -158h-294l-21 -121h273l-27 -156h-273l-23 -129h304z" />
    <glyph glyph-name="ebreve" unicode="&#x115;" horiz-adv-x="623" 
d="M384 647q-66 0 -108 44t-31 102h86q-4 -27 12.5 -44t46.5 -17q29 0 51.5 17t28.5 44h85q-12 -63 -60 -104.5t-111 -41.5zM293 -10q-115 0 -191 71.5t-76 177.5q0 131 92.5 225t228.5 94q110 0 183 -69t68 -178q0 -29 -16 -91h-386q3 -40 34 -60.5t70 -20.5q79 0 129 42
l112 -86q-102 -105 -248 -105zM215 338h221q0 32 -25 53t-67 21q-45 0 -80 -19.5t-49 -54.5z" />
    <glyph glyph-name="Edotaccent" unicode="&#x116;" horiz-adv-x="576" 
d="M395 802q-33 0 -54 21t-21 52q0 41 32.5 72t72.5 31q31 0 52 -20.5t21 -50.5q0 -42 -31.5 -73.5t-71.5 -31.5zM491 0h-476l128 730h466l-28 -158h-294l-21 -121h273l-27 -156h-273l-23 -129h304z" />
    <glyph glyph-name="edotaccent" unicode="&#x117;" horiz-adv-x="623" 
d="M371 632q-33 0 -54 21t-21 52q0 41 32 72t73 31q31 0 52 -20.5t21 -50.5q0 -41 -32 -73t-71 -32zM293 -10q-115 0 -191 71.5t-76 177.5q0 131 92.5 225t228.5 94q110 0 183 -69t68 -178q0 -29 -16 -91h-386q3 -40 34 -60.5t70 -20.5q79 0 129 42l112 -86
q-102 -105 -248 -105zM215 338h221q0 32 -25 53t-67 21q-45 0 -80 -19.5t-49 -54.5z" />
    <glyph glyph-name="Eogonek" unicode="&#x118;" horiz-adv-x="581" 
d="M408 -220q-33 0 -54 21t-21 55q0 5 2 19q9 52 74 125h-394l128 730h466l-28 -158h-294l-21 -121h273l-27 -156h-273l-23 -129h304l-29 -166q-57 -68 -62 -93v-7q0 -21 17 -21q13 0 26 13l29 -64q-35 -48 -93 -48z" />
    <glyph glyph-name="eogonek" unicode="&#x119;" horiz-adv-x="633" 
d="M452 -122q-32 0 -53.5 21.5t-21.5 54.5q0 21 12 49q-45 -13 -96 -13q-115 0 -191 71.5t-76 177.5q0 131 92.5 225t228.5 94q110 0 183 -69t68 -178q0 -29 -16 -91h-386q3 -40 34 -60.5t70 -20.5q79 0 129 42l112 -86q-54 -56 -64 -80q-4 -10 -4 -18q0 -20 17 -20
q14 0 27 13l27 -64q-33 -48 -92 -48zM215 338h221q0 32 -25 53t-67 21q-45 0 -80 -19.5t-49 -54.5z" />
    <glyph glyph-name="Ecaron" unicode="&#x11a;" horiz-adv-x="576" 
d="M462 823h-128l-79 135h122l35 -57l56 57h122zM491 0h-476l128 730h466l-28 -158h-294l-21 -121h273l-27 -156h-273l-23 -129h304z" />
    <glyph glyph-name="ecaron" unicode="&#x11b;" horiz-adv-x="623" 
d="M438 653h-128l-80 135h122l35 -57l56 57h122zM293 -10q-115 0 -191 71.5t-76 177.5q0 131 92.5 225t228.5 94q110 0 183 -69t68 -178q0 -29 -16 -91h-386q3 -40 34 -60.5t70 -20.5q79 0 129 42l112 -86q-102 -105 -248 -105zM215 338h221q0 32 -25 53t-67 21
q-45 0 -80 -19.5t-49 -54.5z" />
    <glyph glyph-name="Gcircumflex" unicode="&#x11c;" horiz-adv-x="829" 
d="M466 823h-122l128 135h128l79 -135h-122l-35 57zM386 -16q-141 0 -237.5 95t-96.5 235q0 183 126.5 306.5t309.5 123.5q92 0 171.5 -40.5t119.5 -107.5l-171 -93q-48 64 -135 64q-94 0 -167.5 -72t-73.5 -165q0 -72 48 -120t122 -48q66 0 116 31.5t74 86.5h-201l28 158
h393q0 -42 -5 -73q-30 -173 -143 -277t-278 -104z" />
    <glyph glyph-name="gcircumflex" unicode="&#x11d;" 
d="M336 653h-122l128 135h128l79 -135h-122l-35 57zM220 -235q-71 0 -138.5 30t-97.5 81l134 92q46 -49 120 -49q57 0 105 39t62 103l3 14q-71 -83 -170 -83q-96 0 -154 72t-58 173q0 131 87 227t215 96q52 0 94.5 -25t60.5 -64l23 79h147l-81 -464q-56 -321 -352 -321z
M297 152q58 0 103 44t45 102q0 45 -29 74t-75 29q-60 0 -104 -44t-44 -103q0 -44 29 -73t75 -29z" />
    <glyph glyph-name="Gbreve" unicode="&#x11e;" horiz-adv-x="829" 
d="M518 817q-67 0 -108 43.5t-31 102.5h87q-4 -26 12.5 -43.5t46.5 -17.5q28 0 51 17t28 44h86q-12 -63 -60.5 -104.5t-111.5 -41.5zM386 -16q-141 0 -237.5 95t-96.5 235q0 183 126.5 306.5t309.5 123.5q92 0 171.5 -40.5t119.5 -107.5l-171 -93q-48 64 -135 64
q-94 0 -167.5 -72t-73.5 -165q0 -72 48 -120t122 -48q66 0 116 31.5t74 86.5h-201l28 158h393q0 -42 -5 -73q-30 -173 -143 -277t-278 -104z" />
    <glyph glyph-name="gbreve" unicode="&#x11f;" 
d="M383 647q-66 0 -107 44t-30 102h86q-4 -27 12.5 -44t46.5 -17q28 0 51 17t29 44h85q-12 -63 -61 -104.5t-112 -41.5zM220 -235q-71 0 -138.5 30t-97.5 81l134 92q46 -49 120 -49q57 0 105 39t62 103l3 14q-71 -83 -170 -83q-96 0 -154 72t-58 173q0 131 87 227t215 96
q52 0 94.5 -25t60.5 -64l23 79h147l-81 -464q-56 -321 -352 -321zM297 152q58 0 103 44t45 102q0 45 -29 74t-75 29q-60 0 -104 -44t-44 -103q0 -44 29 -73t75 -29z" />
    <glyph glyph-name="Gdotaccent" unicode="&#x120;" horiz-adv-x="829" 
d="M507 802q-33 0 -53.5 21t-20.5 52q0 41 32 72t73 31q31 0 51.5 -20.5t20.5 -50.5q0 -42 -31.5 -73.5t-71.5 -31.5zM386 -16q-141 0 -237.5 95t-96.5 235q0 183 126.5 306.5t309.5 123.5q92 0 171.5 -40.5t119.5 -107.5l-171 -93q-48 64 -135 64q-94 0 -167.5 -72
t-73.5 -165q0 -72 48 -120t122 -48q66 0 116 31.5t74 86.5h-201l28 158h393q0 -42 -5 -73q-30 -173 -143 -277t-278 -104z" />
    <glyph glyph-name="gdotaccent" unicode="&#x121;" 
d="M373 632q-33 0 -53.5 21t-20.5 52q0 41 32 72t73 31q31 0 51.5 -20.5t20.5 -50.5q0 -42 -31.5 -73.5t-71.5 -31.5zM220 -235q-71 0 -138.5 30t-97.5 81l134 92q46 -49 120 -49q57 0 105 39t62 103l3 14q-71 -83 -170 -83q-96 0 -154 72t-58 173q0 131 87 227t215 96
q52 0 94.5 -25t60.5 -64l23 79h147l-81 -464q-56 -321 -352 -321zM297 152q58 0 103 44t45 102q0 45 -29 74t-75 29q-60 0 -104 -44t-44 -103q0 -44 29 -73t75 -29z" />
    <glyph glyph-name="uni0122" unicode="&#x122;" horiz-adv-x="829" 
d="M386 -16q-141 0 -237.5 95t-96.5 235q0 183 126.5 306.5t309.5 123.5q92 0 171.5 -40.5t119.5 -107.5l-171 -93q-48 64 -135 64q-94 0 -167.5 -72t-73.5 -165q0 -72 48 -120t122 -48q66 0 116 31.5t74 86.5h-201l28 158h393q0 -42 -5 -73q-30 -173 -143 -277t-278 -104z
M369 -224h-121l48 172h143z" />
    <glyph glyph-name="uni0123" unicode="&#x123;" 
d="M455 653h-144l70 172h121zM220 -235q-71 0 -138.5 30t-97.5 81l134 92q46 -49 120 -49q57 0 105 39t62 103l3 14q-71 -83 -170 -83q-96 0 -154 72t-58 173q0 131 87 227t215 96q52 0 94.5 -25t60.5 -64l23 79h147l-81 -464q-56 -321 -352 -321zM297 152q58 0 103 44
t45 102q0 45 -29 74t-75 29q-60 0 -104 -44t-44 -103q0 -44 29 -73t75 -29z" />
    <glyph glyph-name="Hcircumflex" unicode="&#x124;" horiz-adv-x="713" 
d="M412 823h-122l128 135h128l79 -135h-122l-35 57zM188 0h-173l128 730h173l-50 -283h241l50 283h173l-128 -730h-173l47 274h-241z" />
    <glyph glyph-name="hcircumflex" unicode="&#x125;" horiz-adv-x="613" 
d="M271 823h-122l128 135h128l79 -135h-122l-35 57zM168 0h-162l137 780h162l-53 -297q65 77 153 77q109 0 147 -75t17 -204l-49 -281h-162l49 281q8 56 -10.5 88t-63.5 32q-40 0 -73 -30t-43 -90z" />
    <glyph glyph-name="Hbar" unicode="&#x126;" horiz-adv-x="721" 
d="M194 0h-173l96 549h-51l19 105h51l13 76h173l-13 -76h241l13 76h173l-13 -76h47l-19 -105h-46l-97 -549h-173l47 274h-241zM290 549l-18 -102h241l18 102h-241z" />
    <glyph glyph-name="hbar" unicode="&#x127;" horiz-adv-x="612" 
d="M167 0h-162l107 609h-61l18 106h61l12 65h162l-12 -65h141l-19 -106h-140l-23 -126q65 77 153 77q109 0 147 -75t17 -204l-49 -281h-162l49 281q8 56 -10.5 88t-63.5 32q-40 0 -73 -30t-43 -90z" />
    <glyph glyph-name="Itilde" unicode="&#x128;" horiz-adv-x="298" 
d="M313 817q-30 0 -51 14.5t-33.5 29.5t-21.5 15q-20 0 -28 -45h-98q10 56 42 94.5t82 38.5q25 1 43.5 -8t27.5 -20.5t18 -20.5t16 -9q19 0 27 44h98q-11 -60 -41.5 -96t-80.5 -37zM188 0h-173l128 730h173z" />
    <glyph glyph-name="itilde" unicode="&#x129;" horiz-adv-x="267" 
d="M264 647q-23 0 -41 9t-27 20.5t-18 20.5t-17 9q-20 0 -28 -45h-98q10 56 43 94.5t83 38.5q30 0 50.5 -14.5t32.5 -29t20 -14.5q19 0 26 44h99q-11 -61 -42.5 -97t-82.5 -36zM167 0h-162l96 550h162z" />
    <glyph glyph-name="Imacron" unicode="&#x12a;" horiz-adv-x="298" 
d="M436 826h-380l23 128h380zM188 0h-173l128 730h173z" />
    <glyph glyph-name="imacron" unicode="&#x12b;" horiz-adv-x="267" 
d="M364 656h-325l23 128h325zM167 0h-162l96 550h162z" />
    <glyph glyph-name="Ibreve" unicode="&#x12c;" horiz-adv-x="298" 
d="M253 817q-66 0 -107.5 44t-30.5 102h86q-3 -25 13.5 -43t45.5 -18t51.5 17t28.5 44h85q-12 -64 -59 -105t-113 -41zM183 0h-173l128 730h173z" />
    <glyph glyph-name="ibreve" unicode="&#x12d;" horiz-adv-x="267" 
d="M209 653q-64 0 -104.5 41t-29.5 93h89q-5 -18 10 -32.5t42 -14.5t45.5 13.5t21.5 33.5h88q-10 -57 -55 -95.5t-107 -38.5zM167 0h-162l96 550h162z" />
    <glyph glyph-name="Iogonek" unicode="&#x12e;" horiz-adv-x="298" 
d="M107 -220q-37 0 -58.5 27t-14.5 68q4 24 17.5 49t24 38t33.5 38h-94l128 730h173l-128 -730q-55 -68 -60 -93q-2 -12 3 -20t14 -8q13 0 26 13l29 -64q-35 -48 -93 -48z" />
    <glyph glyph-name="iogonek" unicode="&#x12f;" horiz-adv-x="268" 
d="M190 588q-33 0 -54.5 21.5t-21.5 53.5q0 42 33.5 74t74.5 32q33 0 54 -21t21 -53q0 -42 -33 -74.5t-74 -32.5zM85 -220q-33 0 -54 21t-21 55q0 5 2 19q4 24 18.5 49.5t24 37t33.5 38.5h-83l96 550h162l-96 -550q-2 -3 -7 -8q-49 -61 -54 -85v-7q0 -21 17 -21q13 0 26 13
l28 -64q-35 -48 -92 -48z" />
    <glyph glyph-name="Idotaccent" unicode="&#x130;" horiz-adv-x="313" 
d="M248 802q-33 0 -54 21t-21 52q0 41 32.5 72t72.5 31q31 0 52 -20.5t21 -50.5q0 -42 -31.5 -73.5t-71.5 -31.5zM195 0h-173l128 730h173z" />
    <glyph glyph-name="dotlessi" unicode="&#x131;" horiz-adv-x="267" 
d="M167 0h-162l96 550h162z" />
    <glyph glyph-name="IJ" unicode="&#x132;" horiz-adv-x="813" 
d="M188 0h-173l128 730h173zM443 -10q-65 0 -116 29t-77 81l147 102q27 -42 75 -42q46 0 76.5 32.5t39.5 85.5l79 452h173l-79 -452q-24 -134 -111.5 -211t-206.5 -77z" />
    <glyph glyph-name="ij" unicode="&#x133;" horiz-adv-x="588" 
d="M190 588q-33 0 -54.5 21.5t-21.5 53.5q0 42 33.5 74t74.5 32q33 0 54 -21t21 -53q0 -42 -33 -74.5t-74 -32.5zM509 588q-33 0 -54.5 21.5t-21.5 53.5q0 42 33.5 74t74.5 32q33 0 54 -21t21 -53q0 -42 -32.5 -74.5t-74.5 -32.5zM167 0h-162l96 550h162zM220 -234
q-58 0 -100 18l67 148q18 -6 36 -6q89 0 110 122l88 502h162l-88 -502q-14 -78 -42 -135t-66 -88t-79 -45t-88 -14z" />
    <glyph glyph-name="Jcircumflex" unicode="&#x134;" horiz-adv-x="540" 
d="M404 823h-122l128 135h128l79 -135h-122l-35 57zM173 -10q-66 0 -117 29t-77 81l147 102q26 -42 75 -42q45 0 76 32.5t40 85.5l79 452h174l-80 -452q-24 -134 -111 -211t-206 -77z" />
    <glyph glyph-name="jcircumflex" unicode="&#x135;" horiz-adv-x="303" 
d="M174 653h-122l127 135h128l80 -135h-122l-36 57zM-65 -234q-58 0 -100 18l68 148q16 -6 35 -6q89 0 110 122l88 502h162l-88 -502q-27 -151 -100.5 -216.5t-174.5 -65.5z" />
    <glyph glyph-name="uni0136" unicode="&#x136;" horiz-adv-x="653" 
d="M188 0h-173l128 730h173l-48 -273l247 273h193l-279 -307l168 -423h-200l-103 262l-73 -72zM289 -224h-121l47 172h144z" />
    <glyph glyph-name="uni0137" unicode="&#x137;" horiz-adv-x="589" 
d="M159 0h-154l137 780h154l-72 -410l197 180h184l-239 -227l160 -323h-187l-98 201l-56 -49zM226 -217h-121l48 173h144z" />
    <glyph glyph-name="kgreenlandic" unicode="&#x138;" horiz-adv-x="592" 
d="M159 0h-154l96 550h154l-29 -165l180 165h199l-237 -225l161 -325h-197l-94 197l-53 -45z" />
    <glyph glyph-name="Lacute" unicode="&#x139;" horiz-adv-x="564" 
d="M437 804h-98l82 172h144zM501 0h-486l128 730h173l-98 -557h312z" />
    <glyph glyph-name="lacute" unicode="&#x13a;" horiz-adv-x="267" 
d="M283 839h-98l82 172h144zM167 0h-162l137 780h162z" />
    <glyph glyph-name="uni013B" unicode="&#x13b;" horiz-adv-x="564" 
d="M501 0h-486l128 730h173l-98 -557h312zM249 -224h-121l47 172h144z" />
    <glyph glyph-name="uni013C" unicode="&#x13c;" horiz-adv-x="267" 
d="M167 0h-162l137 780h162zM77 -217h-121l48 173h144z" />
    <glyph glyph-name="Lcaron" unicode="&#x13d;" horiz-adv-x="585" 
d="M501 0h-486l128 730h173l-98 -557h312zM457 441h-105l100 289h143z" />
    <glyph glyph-name="lcaron" unicode="&#x13e;" horiz-adv-x="410" 
d="M431 533h-106l25 248h144zM167 0h-162l137 780h162z" />
    <glyph glyph-name="Ldot" unicode="&#x13f;" horiz-adv-x="564" 
d="M501 0h-486l128 730h173l-98 -557h312zM412 312q-33 0 -53.5 20.5t-20.5 52.5q0 41 32 72t73 31q32 0 52.5 -20.5t20.5 -51.5q0 -41 -32 -72.5t-72 -31.5z" />
    <glyph glyph-name="ldot" unicode="&#x140;" horiz-adv-x="424" 
d="M167 0h-162l137 780h162zM339 312q-33 0 -53.5 20.5t-20.5 52.5q0 41 32.5 72t72.5 31q32 0 52.5 -20.5t20.5 -51.5q0 -41 -32 -72.5t-72 -31.5z" />
    <glyph glyph-name="Lslash" unicode="&#x141;" horiz-adv-x="581" 
d="M518 0h-496l48 275l-66 -35l20 113l66 35l60 342h173l-42 -242l143 75l-20 -113l-143 -76l-39 -219h323z" />
    <glyph glyph-name="lslash" unicode="&#x142;" horiz-adv-x="326" 
d="M196 0h-162l54 306l-70 -36l19 112l70 37l64 361h162l-47 -267l69 36l-20 -113l-69 -36z" />
    <glyph glyph-name="Nacute" unicode="&#x143;" horiz-adv-x="755" 
d="M493 804h-98l82 172h144zM188 0h-173l128 730h173l209 -422l74 422h174l-128 -730h-174l-209 422z" />
    <glyph glyph-name="nacute" unicode="&#x144;" horiz-adv-x="612" 
d="M405 634h-97l82 172h144zM167 0h-162l96 550h147l-2 -72q66 82 158 82q100 0 144.5 -68.5t19.5 -210.5l-49 -281h-162l49 281q10 59 -12 89.5t-62 30.5t-73 -30t-43 -90z" />
    <glyph glyph-name="uni0145" unicode="&#x145;" horiz-adv-x="755" 
d="M188 0h-173l128 730h173l209 -422l74 422h174l-128 -730h-174l-209 422zM322 -217h-121l48 173h144z" />
    <glyph glyph-name="uni0146" unicode="&#x146;" horiz-adv-x="612" 
d="M167 0h-162l96 550h147l-2 -72q66 82 158 82q100 0 144.5 -68.5t19.5 -210.5l-49 -281h-162l49 281q10 59 -12 89.5t-62 30.5t-73 -30t-43 -90zM251 -217h-121l48 173h144z" />
    <glyph glyph-name="Ncaron" unicode="&#x147;" horiz-adv-x="755" 
d="M543 823h-128l-79 135h122l35 -57l56 57h122zM188 0h-173l128 730h173l209 -422l74 422h174l-128 -730h-174l-209 422z" />
    <glyph glyph-name="ncaron" unicode="&#x148;" horiz-adv-x="612" 
d="M440 653h-128l-79 135h122l35 -57l56 57h122zM167 0h-162l96 550h147l-2 -72q66 82 158 82q100 0 144.5 -68.5t19.5 -210.5l-49 -281h-162l49 281q10 59 -12 89.5t-62 30.5t-73 -30t-43 -90z" />
    <glyph glyph-name="napostrophe" unicode="&#x149;" horiz-adv-x="766" 
d="M125 374h-105l100 290h144zM321 0h-162l96 550h147l-2 -72q66 82 158 82q100 0 144.5 -68.5t19.5 -210.5l-49 -281h-162l49 281q10 59 -12 89.5t-62 30.5t-73 -30t-43 -90z" />
    <glyph glyph-name="Eng" unicode="&#x14a;" horiz-adv-x="755" 
d="M357 -185l30 171q47 0 73 37l-198 399l-74 -422h-173l128 730h173l209 -421l74 421h174l-116 -656q-23 -124 -104.5 -191.5t-195.5 -67.5z" />
    <glyph glyph-name="eng" unicode="&#x14b;" horiz-adv-x="634" 
d="M253 -185l30 171q45 0 68 26.5t32 77.5l34 191q11 59 -11.5 89.5t-62.5 30.5t-72.5 -30t-43.5 -90l-49 -281h-162l96 550h147l-2 -72q68 82 159 82q99 0 143.5 -68.5t19.5 -210.5l-39 -221q-24 -122 -99 -183.5t-188 -61.5z" />
    <glyph glyph-name="Omacron" unicode="&#x14c;" horiz-adv-x="843" 
d="M705 826h-380l23 128h380zM387 -16q-149 0 -242 93.5t-93 235.5q0 180 123.5 305.5t312.5 125.5q149 0 242 -93.5t93 -235.5q0 -180 -124 -305.5t-312 -125.5zM402 162q96 0 168 71.5t72 166.5q0 71 -48 119t-121 48q-97 0 -169 -71.5t-72 -165.5q0 -72 48 -120t122 -48z
" />
    <glyph glyph-name="omacron" unicode="&#x14d;" horiz-adv-x="629" 
d="M569 656h-380l23 128h380zM273 -10q-110 0 -178.5 72t-68.5 179q0 130 95 223.5t235 93.5q109 0 177.5 -72t68.5 -179q0 -129 -95.5 -223t-233.5 -94zM293 155q58 0 100 42t42 98q0 42 -28 70t-72 28q-59 0 -100.5 -42t-41.5 -98q0 -43 27.5 -70.5t72.5 -27.5z" />
    <glyph glyph-name="Obreve" unicode="&#x14e;" horiz-adv-x="843" 
d="M510 817q-65 0 -103 43.5t-27 102.5h86q-6 -25 11.5 -43t47.5 -18q29 0 51.5 17t28.5 44h85q-12 -62 -64 -104t-116 -42zM387 -16q-149 0 -242 93.5t-93 235.5q0 180 123.5 305.5t312.5 125.5q149 0 242 -93.5t93 -235.5q0 -180 -124 -305.5t-312 -125.5zM402 162
q96 0 168 71.5t72 166.5q0 71 -48 119t-121 48q-97 0 -169 -71.5t-72 -165.5q0 -72 48 -120t122 -48z" />
    <glyph glyph-name="obreve" unicode="&#x14f;" horiz-adv-x="630" 
d="M379 647q-66 0 -108 44t-31 102h86q-5 -27 12 -44t47 -17q29 0 51.5 17t28.5 44h86q-13 -63 -61 -104.5t-111 -41.5zM274 -10q-110 0 -178.5 72t-68.5 179q0 134 94.5 225.5t234.5 91.5q109 0 178 -72t69 -179q0 -133 -94.5 -225t-234.5 -92zM293 155q59 0 101 42t42 98
q0 42 -28 70t-72 28q-59 0 -100.5 -42t-41.5 -98q0 -42 27.5 -70t71.5 -28z" />
    <glyph glyph-name="Ohungarumlaut" unicode="&#x150;" horiz-adv-x="843" 
d="M428 794h-91l112 192h133zM635 794h-90l112 192h132zM387 -16q-149 0 -242 93.5t-93 235.5q0 180 123.5 305.5t312.5 125.5q149 0 242 -93.5t93 -235.5q0 -180 -124 -305.5t-312 -125.5zM402 162q96 0 168 71.5t72 166.5q0 71 -48 119t-121 48q-97 0 -169 -71.5
t-72 -165.5q0 -72 48 -120t122 -48z" />
    <glyph glyph-name="ohungarumlaut" unicode="&#x151;" horiz-adv-x="629" 
d="M284 624h-90l112 192h132zM492 624h-90l112 192h132zM273 -10q-110 0 -178.5 72t-68.5 179q0 130 95 223.5t235 93.5q109 0 177.5 -72t68.5 -179q0 -129 -95.5 -223t-233.5 -94zM293 155q58 0 100 42t42 98q0 42 -28 70t-72 28q-59 0 -100.5 -42t-41.5 -98
q0 -43 27.5 -70.5t72.5 -27.5z" />
    <glyph glyph-name="OE" unicode="&#x152;" horiz-adv-x="1022" 
d="M369 -16q-138 0 -228.5 96.5t-90.5 233.5q0 115 64 215t168.5 157.5t220.5 57.5q51 0 99 -14h453l-28 -158h-293l-21 -120h273l-28 -158h-274l-22 -128h304l-29 -166h-457q-58 -16 -111 -16zM400 162q50 0 94 26l62 353q-37 26 -85 26q-93 0 -166.5 -72t-73.5 -165
q0 -72 47.5 -120t121.5 -48z" />
    <glyph glyph-name="oe" unicode="&#x153;" horiz-adv-x="1025" 
d="M271 -10q-110 0 -178.5 68t-68.5 174q0 130 99 228t231 98q121 0 184 -96q81 96 219 96q112 0 181 -71t63 -175q0 -39 -20 -103h-375q6 -33 37 -51.5t66 -18.5q61 0 115 40l116 -81q-49 -50 -116.5 -79t-135.5 -29q-67 0 -122.5 26.5t-84.5 69.5q-94 -96 -210 -96z
M626 337h210q3 33 -20.5 54.5t-66.5 21.5q-40 0 -74 -20.5t-49 -55.5zM291 155q56 0 99.5 42.5t43.5 97.5q0 42 -28 70t-73 28q-56 0 -98.5 -42t-42.5 -98q0 -43 27.5 -70.5t71.5 -27.5z" />
    <glyph glyph-name="Racute" unicode="&#x154;" horiz-adv-x="635" 
d="M425 799h-98l83 172h144zM188 0h-173l128 730h267q126 0 190.5 -69.5t46.5 -173.5q-12 -69 -57 -125t-111 -84l98 -278h-197l-78 243h-72zM286 561l-26 -149h105q43 0 70.5 21t33.5 54q6 32 -14.5 53t-63.5 21h-105z" />
    <glyph glyph-name="racute" unicode="&#x155;" horiz-adv-x="441" 
d="M301 634h-97l82 172h144zM167 0h-162l96 550h147v-73q60 76 169 76q31 0 54 -4l-61 -155q-5 1 -16 1q-159 0 -189 -175z" />
    <glyph glyph-name="uni0156" unicode="&#x156;" horiz-adv-x="635" 
d="M188 0h-173l128 730h267q126 0 190.5 -69.5t46.5 -173.5q-12 -69 -57 -125t-111 -84l98 -278h-197l-78 243h-72zM286 561l-26 -149h105q43 0 70.5 21t33.5 54q6 32 -14.5 53t-63.5 21h-105zM246 -225h-120l59 174h144z" />
    <glyph glyph-name="uni0157" unicode="&#x157;" horiz-adv-x="441" 
d="M167 0h-162l96 550h147v-73q61 77 169 77q31 0 54 -4l-61 -155q-5 1 -16 1q-159 0 -189 -176zM74 -217h-121l48 173h144z" />
    <glyph glyph-name="Rcaron" unicode="&#x158;" horiz-adv-x="635" 
d="M474 823h-128l-79 135h122l35 -57l56 57h122zM188 0h-173l128 730h267q126 0 190.5 -69.5t46.5 -173.5q-12 -69 -57 -125t-111 -84l98 -278h-197l-78 243h-72zM286 561l-26 -149h105q43 0 70.5 21t33.5 54q6 32 -14.5 53t-63.5 21h-105z" />
    <glyph glyph-name="rcaron" unicode="&#x159;" horiz-adv-x="442" 
d="M369 653h-128l-79 135h122l35 -57l56 57h122zM168 0h-162l96 550h147v-73q61 77 170 77q30 0 53 -4l-61 -155q-5 1 -16 1q-158 0 -189 -176z" />
    <glyph glyph-name="Sacute" unicode="&#x15a;" horiz-adv-x="607" 
d="M416 804h-97l82 172h144zM272 -16q-80 0 -152.5 30t-113.5 90l126 109q61 -72 153 -72q46 0 73.5 18.5t27.5 51.5q0 28 -30.5 49.5t-73.5 39.5t-86 41t-73.5 65t-30.5 100q0 110 74.5 174t196.5 64q72 0 140.5 -30t105.5 -89l-137 -95q-16 27 -48.5 42t-66.5 16
q-41 0 -67 -18.5t-26 -45.5q0 -23 30.5 -41.5t74 -36t87 -40t74 -65.5t30.5 -101q0 -118 -79.5 -187t-208.5 -69z" />
    <glyph glyph-name="sacute" unicode="&#x15b;" horiz-adv-x="548" 
d="M359 634h-98l83 172h143zM245 -15q-71 0 -140.5 24t-106.5 70l128 106q21 -23 59 -36t76 -13q68 0 68 29q0 12 -27 21.5t-65.5 20.5t-76.5 27.5t-65 51t-27 82.5q0 93 67 143.5t173 50.5q69 0 131 -21.5t95 -69.5l-114 -97q-16 22 -53 33.5t-71 11.5q-30 0 -46.5 -8
t-16.5 -20q0 -11 27 -20t66 -20t78 -27t66 -50t27 -82q0 -100 -69.5 -153.5t-182.5 -53.5z" />
    <glyph glyph-name="Scircumflex" unicode="&#x15c;" horiz-adv-x="607" 
d="M345 823h-122l128 135h128l79 -135h-122l-35 57zM272 -16q-80 0 -152.5 30t-113.5 90l126 109q61 -72 153 -72q46 0 73.5 18.5t27.5 51.5q0 28 -30.5 49.5t-73.5 39.5t-86 41t-73.5 65t-30.5 100q0 110 74.5 174t196.5 64q72 0 140.5 -30t105.5 -89l-137 -95
q-16 27 -48.5 42t-66.5 16q-41 0 -67 -18.5t-26 -45.5q0 -23 30.5 -41.5t74 -36t87 -40t74 -65.5t30.5 -101q0 -118 -79.5 -187t-208.5 -69z" />
    <glyph glyph-name="scircumflex" unicode="&#x15d;" horiz-adv-x="548" 
d="M287 653h-122l128 135h128l79 -135h-122l-35 57zM245 -15q-71 0 -140.5 24t-106.5 70l128 106q21 -23 59 -36t76 -13q68 0 68 29q0 12 -27 21.5t-65.5 20.5t-76.5 27.5t-65 51t-27 82.5q0 93 67 143.5t173 50.5q69 0 131 -21.5t95 -69.5l-114 -97q-16 22 -53 33.5
t-71 11.5q-30 0 -46.5 -8t-16.5 -20q0 -11 27 -20t66 -20t78 -27t66 -50t27 -82q0 -100 -69.5 -153.5t-182.5 -53.5z" />
    <glyph glyph-name="Scedilla" unicode="&#x15e;" horiz-adv-x="607" 
d="M200 -220q-66 0 -98 20l45 82q16 -12 53 -12q39 0 42 23q0 19 -37 19h-36l38 78q-137 21 -201 114l126 109q61 -72 153 -72q46 0 73.5 18.5t27.5 51.5q0 28 -30.5 49.5t-73.5 39.5t-86 41t-73.5 65t-30.5 100q0 110 74.5 174t196.5 64q72 0 140.5 -30t105.5 -89l-137 -95
q-16 27 -48.5 42t-66.5 16q-41 0 -67 -18.5t-26 -45.5q0 -23 30.5 -41.5t74 -36t87 -40t74 -65.5t30.5 -101q0 -111 -71.5 -179t-188.5 -76l-14 -27q53 -12 53 -62q0 -48 -43 -82t-96 -34z" />
    <glyph glyph-name="scedilla" unicode="&#x15f;" horiz-adv-x="548" 
d="M192 -220q-75 0 -105 20l44 82q18 -12 54 -12q38 0 41 23q0 19 -37 19h-36l33 77q-130 18 -188 90l128 106q21 -23 59 -36t76 -13q68 0 68 29q0 12 -27 21.5t-65.5 20.5t-76.5 27.5t-65 51t-27 82.5q0 93 67 143.5t173 50.5q69 0 131 -21.5t95 -69.5l-114 -97
q-16 22 -53 33.5t-71 11.5q-30 0 -46.5 -8t-16.5 -20q0 -11 27 -20t66 -20t78 -27t66 -50t27 -82q0 -91 -58.5 -143.5t-156.5 -61.5l-12 -29q25 -6 39 -25.5t14 -44.5q0 -47 -38.5 -77.5t-92.5 -30.5z" />
    <glyph glyph-name="Scaron" unicode="&#x160;" horiz-adv-x="607" 
d="M457 823h-128l-79 135h122l35 -57l56 57h122zM272 -16q-80 0 -152.5 30t-113.5 90l126 109q61 -72 153 -72q46 0 73.5 18.5t27.5 51.5q0 28 -30.5 49.5t-73.5 39.5t-86 41t-73.5 65t-30.5 100q0 110 74.5 174t196.5 64q72 0 140.5 -30t105.5 -89l-137 -95
q-16 27 -48.5 42t-66.5 16q-41 0 -67 -18.5t-26 -45.5q0 -23 30.5 -41.5t74 -36t87 -40t74 -65.5t30.5 -101q0 -118 -79.5 -187t-208.5 -69z" />
    <glyph glyph-name="scaron" unicode="&#x161;" horiz-adv-x="548" 
d="M404 653h-128l-80 135h122l36 -57l55 57h122zM245 -15q-71 0 -140.5 24t-106.5 70l128 106q21 -23 59 -36t76 -13q68 0 68 29q0 12 -27 21.5t-65.5 20.5t-76.5 27.5t-65 51t-27 82.5q0 93 67 143.5t173 50.5q69 0 131 -21.5t95 -69.5l-114 -97q-16 22 -53 33.5t-71 11.5
q-30 0 -46.5 -8t-16.5 -20q0 -11 27 -20t66 -20t78 -27t66 -50t27 -82q0 -100 -69.5 -153.5t-182.5 -53.5z" />
    <glyph glyph-name="uni0162" unicode="&#x162;" horiz-adv-x="594" 
d="M195 -219q-65 0 -97 20l45 81q18 -11 53 -11q40 0 42 22q0 20 -37 20h-36l40 87h-42l98 564h-195l29 166h564l-29 -166h-195l-99 -564h-34l-20 -41q53 -12 53 -62q0 -47 -43.5 -81.5t-96.5 -34.5z" />
    <glyph glyph-name="uni0163" unicode="&#x163;" horiz-adv-x="437" 
d="M123 -220q-65 0 -97 20l45 82q16 -12 53 -12q39 0 42 22q0 20 -37 20h-36l42 112q-83 62 -54 219l29 164h-71l24 143h78l56 180h132l-32 -180h123l-25 -143h-123l-29 -163q-17 -99 69 -99q18 0 38 6l15 -144q-51 -18 -104 -18q-18 0 -33 3l-18 -34q53 -12 53 -62
q0 -47 -43.5 -81.5t-96.5 -34.5z" />
    <glyph glyph-name="Tcaron" unicode="&#x164;" horiz-adv-x="594" 
d="M458 823h-128l-80 135h122l35 -57l56 57h122zM336 0h-173l98 564h-195l29 166h564l-29 -166h-195z" />
    <glyph glyph-name="tcaron" unicode="&#x165;" horiz-adv-x="449" 
d="M459 610h-105l24 247h144zM259 -11q-113 0 -156.5 68t-21.5 186l29 164h-71l24 143h78l56 180h132l-32 -180h123l-25 -143h-123l-29 -163q-17 -99 69 -99q18 0 38 6l15 -144q-47 -18 -106 -18z" />
    <glyph glyph-name="Tbar" unicode="&#x166;" horiz-adv-x="594" 
d="M336 0h-173l44 259h-103l23 128h104l30 177h-195l29 166h564l-29 -166h-195l-31 -177h103l-23 -128h-103z" />
    <glyph glyph-name="tbar" unicode="&#x167;" horiz-adv-x="461" 
d="M266 -11q-91 0 -146.5 62t-37.5 152l8 42h-73l16 91h72l13 71h-72l25 143h78l55 180h132l-32 -180h123l-24 -143h-123l-13 -71h81l-15 -91h-78l-7 -36q-4 -31 16 -47.5t56 -16.5q19 0 37 6l16 -144q-48 -18 -107 -18z" />
    <glyph glyph-name="Utilde" unicode="&#x168;" horiz-adv-x="685" 
d="M505 817q-24 0 -43 9t-27.5 20.5t-18 21t-17.5 8.5q-19 -2 -27 -45h-98q10 56 42 94.5t82 38.5q31 1 52 -14t33 -30t21 -14q18 2 25 44h99q-11 -60 -42 -96t-81 -37zM291 -16q-125 0 -193 81.5t-45 211.5l80 453h173l-80 -453q-10 -56 17 -87.5t79 -31.5q51 0 89.5 31.5
t48.5 87.5l79 453h174l-80 -453q-23 -129 -120.5 -211t-221.5 -82z" />
    <glyph glyph-name="utilde" unicode="&#x169;" horiz-adv-x="630" 
d="M443 647q-24 0 -43 9.5t-28 21t-18.5 20.5t-17.5 8q-19 -2 -27 -45h-98q11 56 43.5 94.5t81.5 38.5q31 1 52 -14t32.5 -30t20.5 -14q18 1 26 44h98q-10 -60 -41 -96t-81 -37zM215 -10q-99 0 -143.5 69t-19.5 210l49 281h162l-49 -281q-11 -59 11 -89t62 -30t73 30t44 89
l49 281h162l-96 -550h-147l1 72q-68 -82 -158 -82z" />
    <glyph glyph-name="Umacron" unicode="&#x16a;" horiz-adv-x="685" 
d="M625 826h-380l23 128h380zM291 -16q-127 0 -192.5 81.5t-45.5 211.5l80 453h173l-80 -453q-9 -54 17 -86.5t79 -32.5q51 0 89.5 31.5t48.5 87.5l79 453h174l-80 -453q-23 -129 -120.5 -211t-221.5 -82z" />
    <glyph glyph-name="umacron" unicode="&#x16b;" horiz-adv-x="630" 
d="M566 656h-380l23 128h380zM215 -10q-99 0 -143.5 69t-19.5 210l49 281h162l-49 -281q-11 -59 11 -89t62 -30t73 30t44 89l49 281h162l-96 -550h-147l1 72q-68 -82 -158 -82z" />
    <glyph glyph-name="Ubreve" unicode="&#x16c;" horiz-adv-x="685" 
d="M436 817q-65 0 -103 41.5t-28 104.5h87q-4 -27 12.5 -44t46.5 -17q28 0 51 17t28 44h86q-12 -62 -64 -104t-116 -42zM291 -16q-125 0 -193 81.5t-45 211.5l80 453h173l-80 -453q-10 -56 17 -87.5t79 -31.5q51 0 89.5 31.5t48.5 87.5l79 453h174l-80 -453
q-23 -129 -120.5 -211t-221.5 -82z" />
    <glyph glyph-name="ubreve" unicode="&#x16d;" horiz-adv-x="630" 
d="M370 647q-64 0 -102 41.5t-28 104.5h86q-4 -27 13 -44t46 -17t51.5 17t28.5 44h86q-13 -62 -65 -104t-116 -42zM215 -10q-99 0 -143.5 69t-19.5 210l49 281h162l-49 -281q-11 -59 11 -89t62 -30t73 30t44 89l49 281h162l-96 -550h-147l1 72q-68 -82 -158 -82z" />
    <glyph glyph-name="Uring" unicode="&#x16e;" horiz-adv-x="685" 
d="M439 774q-50 0 -81.5 32.5t-22.5 83.5q10 52 53 84.5t93 32.5t80.5 -32.5t21.5 -84.5q-9 -51 -51.5 -83.5t-92.5 -32.5zM454 857q14 0 25.5 10t12.5 23q3 14 -4.5 24t-21.5 10t-25 -10t-14 -24q-2 -14 5.5 -23.5t21.5 -9.5zM291 -16q-125 0 -193 81.5t-45 211.5l80 453
h173l-80 -453q-10 -56 17 -87.5t79 -31.5q51 0 89.5 31.5t48.5 87.5l79 453h174l-80 -453q-23 -129 -120.5 -211t-221.5 -82z" />
    <glyph glyph-name="uring" unicode="&#x16f;" horiz-adv-x="630" 
d="M368 604q-50 0 -81.5 32.5t-22.5 83.5q9 52 52 84.5t94 32.5q50 0 80.5 -32.5t21.5 -84.5q-9 -51 -51.5 -83.5t-92.5 -32.5zM383 687q13 0 24.5 9.5t13.5 23.5t-5.5 24t-20.5 10q-14 0 -25.5 -10t-13.5 -24t5.5 -23.5t21.5 -9.5zM215 -10q-99 0 -143.5 69t-19.5 210
l49 281h162l-49 -281q-11 -59 11 -89t62 -30t73 30t44 89l49 281h162l-96 -550h-147l1 72q-68 -82 -158 -82z" />
    <glyph glyph-name="Uhungarumlaut" unicode="&#x170;" horiz-adv-x="685" 
d="M361 794h-90l112 192h132zM569 794h-90l112 192h132zM291 -16q-127 0 -192.5 81.5t-45.5 211.5l80 453h173l-80 -453q-9 -54 17 -86.5t79 -32.5q51 0 89.5 31.5t48.5 87.5l79 453h174l-80 -453q-23 -129 -120.5 -211t-221.5 -82z" />
    <glyph glyph-name="uhungarumlaut" unicode="&#x171;" horiz-adv-x="630" 
d="M283 624h-91l112 192h133zM490 624h-90l112 192h132zM215 -10q-99 0 -143.5 69t-19.5 210l49 281h162l-49 -281q-11 -59 11 -89t62 -30t73 30t44 89l49 281h162l-96 -550h-147l1 72q-68 -82 -158 -82z" />
    <glyph glyph-name="Uogonek" unicode="&#x172;" horiz-adv-x="685" 
d="M393 -178q-32 0 -53 21t-21 55q0 40 35 93q-28 -7 -63 -7q-127 0 -192.5 81.5t-45.5 211.5l80 453h173l-80 -453q-9 -54 17 -86.5t79 -32.5q51 0 89.5 31.5t48.5 87.5l79 453h174l-80 -453q-14 -78 -56.5 -140.5t-105.5 -101.5q-60 -52 -60 -88q0 -26 20 -26q15 0 27 12
l28 -63q-15 -22 -40.5 -35t-52.5 -13z" />
    <glyph glyph-name="uogonek" unicode="&#x173;" horiz-adv-x="612" 
d="M428 -220q-36 0 -57.5 27t-14.5 68q4 24 18 49t25 38.5t33 37.5h-68l2 72q-70 -82 -159 -82q-99 0 -143.5 69t-19.5 210l49 281h162l-49 -281q-11 -59 11.5 -89t62.5 -30t72.5 30t43.5 89l49 281h162l-96 -550q-3 -4 -11 -13.5t-11 -13.5t-9.5 -12t-9.5 -12t-7 -11
t-6 -11.5t-4 -9.5t-3 -10q-2 -12 3 -20t14 -8q13 0 26 13l28 -64q-35 -48 -93 -48z" />
    <glyph glyph-name="Wcircumflex" unicode="&#x174;" horiz-adv-x="1022" 
d="M563 823h-122l127 135h128l80 -135h-122l-36 57zM346 0h-176l-82 730h180l48 -434l201 436h150l46 -436l201 434h181l-338 -730h-176l-41 436z" />
    <glyph glyph-name="wcircumflex" unicode="&#x175;" horiz-adv-x="906" 
d="M474 653h-122l128 135h128l79 -135h-122l-35 57zM307 0h-158l-91 550h173l41 -300l147 300h164l41 -300l147 300h173l-283 -550h-158l-47 291z" />
    <glyph glyph-name="Ycircumflex" unicode="&#x176;" horiz-adv-x="655" 
d="M379 823h-122l127 135h128l80 -135h-122l-36 57zM366 0h-173l52 295l-160 435h195l87 -228l168 228h195l-312 -435z" />
    <glyph glyph-name="ycircumflex" unicode="&#x177;" horiz-adv-x="568" 
d="M306 653h-122l127 135h128l80 -135h-122l-36 57zM27 -232q-62 0 -108 20l70 143q26 -10 57 -10q36 0 70.5 26t56.5 74l-114 529h174l51 -307l155 307h172l-281 -550q-65 -125 -138 -178.5t-165 -53.5z" />
    <glyph glyph-name="Ydieresis" unicode="&#x178;" horiz-adv-x="655" 
d="M321 818q-26 0 -43 17t-17 43q0 34 26 59t60 25q26 0 43 -16.5t17 -41.5q0 -35 -26 -60.5t-60 -25.5zM525 818q-26 0 -43 17t-17 43q0 34 26 59t59 25q27 0 44 -16.5t17 -41.5q0 -35 -26 -60.5t-60 -25.5zM366 0h-173l52 295l-160 435h195l87 -228l168 228h195l-312 -435
z" />
    <glyph glyph-name="Zacute" unicode="&#x179;" horiz-adv-x="641" 
d="M457 804h-98l82 172h144zM558 0h-571l29 170l396 391h-317l30 169h551l-30 -170l-395 -390h336z" />
    <glyph glyph-name="zacute" unicode="&#x17a;" horiz-adv-x="561" 
d="M366 634h-97l82 172h144zM471 0h-478l20 113l293 294h-241l24 143h464l-20 -121l-276 -278h240z" />
    <glyph glyph-name="Zdotaccent" unicode="&#x17b;" horiz-adv-x="641" 
d="M428 802q-33 0 -54 21t-21 52q0 41 32 72t73 31q31 0 52 -20.5t21 -50.5q0 -41 -31.5 -73t-71.5 -32zM558 0h-571l29 170l396 391h-317l30 169h551l-30 -170l-395 -390h336z" />
    <glyph glyph-name="zdotaccent" unicode="&#x17c;" horiz-adv-x="561" 
d="M344 632q-33 0 -53.5 21t-20.5 52q0 41 32 72t73 31q31 0 51.5 -20.5t20.5 -50.5q0 -42 -31.5 -73.5t-71.5 -31.5zM471 0h-478l20 113l293 294h-241l24 143h464l-20 -121l-276 -278h240z" />
    <glyph glyph-name="Zcaron" unicode="&#x17d;" horiz-adv-x="641" 
d="M492 823h-128l-80 135h122l36 -57l55 57h122zM558 0h-571l29 170l396 391h-317l30 169h551l-30 -170l-395 -390h336z" />
    <glyph glyph-name="zcaron" unicode="&#x17e;" horiz-adv-x="561" 
d="M411 653h-128l-79 135h122l35 -57l56 57h122zM471 0h-478l20 113l293 294h-241l24 143h464l-20 -121l-276 -278h240z" />
    <glyph glyph-name="longs" unicode="&#x17f;" horiz-adv-x="394" 
d="M265 561l-99 -561l-161 1l98 560q21 121 95.5 179t172.5 58q55 0 97 -17l-66 -143q-35 5 -42 5q-80 0 -95 -82z" />
    <glyph glyph-name="uni018F" unicode="&#x18f;" horiz-adv-x="775" 
d="M338 -10q-152 0 -232.5 107.5t-51.5 267.5q5 33 19 71h522q-5 68 -50 107t-123 39q-44 0 -92 -16.5t-78 -44.5l-110 98q58 56 142 88.5t166 32.5q167 0 250 -104t54 -271q-29 -163 -142.5 -269t-273.5 -106zM365 148q66 0 120.5 40t82.5 105h-354q5 -65 45.5 -105
t105.5 -40z" />
    <glyph glyph-name="florin" unicode="&#x192;" horiz-adv-x="493" 
d="M49 -18q-55 0 -98 16l66 144q25 -5 42 -5q81 0 95 82l34 188h-50l25 143h49l2 11q22 121 96.5 179t171.5 58q55 0 97 -17l-66 -143q-35 5 -41 5q-81 0 -96 -82l-2 -11h123l-25 -143h-122l-34 -188q-21 -121 -95.5 -179t-171.5 -58z" />
    <glyph glyph-name="uni019D" unicode="&#x19d;" horiz-adv-x="768" 
d="M-87 -185l30 171q76 0 97 87l115 657h174l211 -407l72 407h173l-128 -730h-173l-212 407l-59 -332q-22 -125 -103.5 -192.5t-196.5 -67.5z" />
    <glyph glyph-name="Ohorn" unicode="&#x1a0;" horiz-adv-x="843" 
d="M52 313q0 180 123.5 305.5t312.5 125.5q158 0 252 -104q32 11 35 39l15 81h89l-21 -113q-11 -58 -68 -84q33 -65 33 -148q0 -180 -124 -305.5t-312 -125.5q-149 0 -242 93.5t-93 235.5zM232 330q0 -72 48 -120t122 -48q96 0 168 71.5t72 166.5q0 71 -48 119t-121 48
q-97 0 -169 -71.5t-72 -165.5z" />
    <glyph glyph-name="ohorn" unicode="&#x1a1;" horiz-adv-x="629" 
d="M273 -10q-110 0 -178.5 72t-68.5 179q0 133 96.5 225t233.5 92q96 0 161 -59q29 10 33 34l14 81h88l-19 -113q-8 -42 -59 -74q28 -54 28 -120q0 -133 -94.5 -225t-234.5 -92zM293 155q58 0 100 42t42 98q0 42 -28 70t-72 28q-59 0 -100.5 -42t-41.5 -98q0 -43 27.5 -70.5
t72.5 -27.5z" />
    <glyph glyph-name="Uhorn" unicode="&#x1af;" horiz-adv-x="713" 
d="M291 -16q-125 0 -193 81.5t-45 211.5l80 453h173l-80 -453q-10 -56 17 -87.5t79 -31.5q51 0 89.5 31.5t48.5 87.5l79 453h131q32 0 37 25l14 76h88l-18 -108q-13 -66 -95 -85l-63 -361q-23 -129 -120.5 -211t-221.5 -82z" />
    <glyph glyph-name="uhorn" unicode="&#x1b0;" horiz-adv-x="615" 
d="M207 -10q-99 0 -143.5 69t-19.5 210l49 281h162l-49 -281q-11 -59 11.5 -89t62.5 -30t72.5 30t43.5 89l49 281h104q27 3 30 29l15 82h89l-20 -114q-9 -52 -70 -78l-82 -469h-147l2 72q-70 -82 -159 -82z" />
    <glyph glyph-name="uni01CD" unicode="&#x1cd;" horiz-adv-x="672" 
d="M501 823h-128l-80 135h122l36 -57l55 57h122zM147 0h-195l371 730h186l115 -730h-186l-16 128h-215zM378 494l-96 -206h121z" />
    <glyph glyph-name="uni01CE" unicode="&#x1ce;" 
d="M450 653h-128l-80 135h122l36 -57l55 57h122zM238 -8q-92 0 -152 70.5t-60 174.5q0 130 88 226.5t214 96.5q52 0 94.5 -25t60.5 -64l23 79h147l-96 -550h-147l4 80q-32 -39 -78.5 -63.5t-97.5 -24.5zM297 152q58 0 103 44t45 102q0 45 -29 74t-75 29q-58 0 -103 -44.5
t-45 -102.5q0 -44 29 -73t75 -29z" />
    <glyph glyph-name="uni01CF" unicode="&#x1cf;" horiz-adv-x="298" 
d="M310 823h-128l-80 135h122l35 -57l56 57h122zM186 0h-173l128 730h173z" />
    <glyph glyph-name="uni01D0" unicode="&#x1d0;" horiz-adv-x="267" 
d="M265 653h-128l-80 135h122l35 -57l56 57h122zM167 0h-162l96 550h162z" />
    <glyph glyph-name="uni01D1" unicode="&#x1d1;" horiz-adv-x="843" 
d="M571 823h-128l-79 135h122l35 -57l56 57h122zM387 -16q-149 0 -242 93.5t-93 235.5q0 180 123.5 305.5t312.5 125.5q149 0 242 -93.5t93 -235.5q0 -180 -124 -305.5t-312 -125.5zM402 162q96 0 168 71.5t72 166.5q0 71 -48 119t-121 48q-97 0 -169 -71.5t-72 -165.5
q0 -72 48 -120t122 -48z" />
    <glyph glyph-name="uni01D2" unicode="&#x1d2;" horiz-adv-x="630" 
d="M442 653h-128l-79 135h122l35 -57l56 57h122zM274 -10q-110 0 -178.5 72t-68.5 179q0 134 94.5 225.5t234.5 91.5q109 0 178 -72t69 -179q0 -133 -94.5 -225t-234.5 -92zM293 155q59 0 101 42t42 98q0 42 -28 70t-72 28q-59 0 -100.5 -42t-41.5 -98q0 -42 27.5 -70
t71.5 -28z" />
    <glyph glyph-name="uni01D3" unicode="&#x1d3;" horiz-adv-x="685" 
d="M503 823h-128l-79 135h122l35 -57l56 57h122zM290 -16q-125 0 -192.5 81.5t-44.5 211.5l80 453h173l-80 -453q-10 -56 17 -87.5t79 -31.5q51 0 89.5 31.5t48.5 87.5l79 453h174l-80 -453q-23 -130 -120 -211.5t-223 -81.5z" />
    <glyph glyph-name="uni01D4" unicode="&#x1d4;" horiz-adv-x="630" 
d="M440 653h-128l-79 135h122l35 -57l56 57h122zM215 -10q-99 0 -143.5 69t-19.5 210l49 281h162l-49 -281q-11 -59 11 -89t62 -30t73 30t44 89l49 281h162l-96 -550h-147l1 72q-68 -82 -158 -82z" />
    <glyph glyph-name="uni01D5" unicode="&#x1d5;" horiz-adv-x="685" 
d="M660 995h-380l22 128h380zM333 802q-30 0 -47 21t-12 51t29.5 51t54.5 21t47 -20.5t13 -51.5q-5 -30 -30 -51t-55 -21zM537 802q-30 0 -47 21t-12 51q4 30 29 51t55 21t47 -20.5t12 -51.5q-5 -30 -30 -51t-54 -21zM291 -16q-125 0 -193 81.5t-45 211.5l80 453h173
l-80 -453q-10 -56 17 -87.5t79 -31.5q51 0 89.5 31.5t48.5 87.5l79 453h174l-80 -453q-23 -129 -120.5 -211t-221.5 -82z" />
    <glyph glyph-name="uni01D6" unicode="&#x1d6;" horiz-adv-x="630" 
d="M593 807h-380l23 129h380zM267 615q-30 0 -47.5 21t-11.5 51q5 30 30 51t55 21q29 0 46.5 -21t12.5 -51q-6 -31 -30.5 -51.5t-54.5 -20.5zM471 615q-30 0 -47.5 21t-11.5 51q5 30 30 51t54 21q30 0 47.5 -21t12.5 -51q-6 -31 -30.5 -51.5t-54.5 -20.5zM215 -10
q-99 0 -143.5 69t-19.5 210l49 281h162l-49 -281q-11 -59 11 -89t62 -30t73 30t44 89l49 281h162l-96 -550h-147l1 72q-68 -82 -158 -82z" />
    <glyph glyph-name="uni01D7" unicode="&#x1d7;" horiz-adv-x="685" 
d="M522 973h-97l83 172h143zM330 780q-30 0 -47.5 21t-11.5 51q5 31 29.5 51.5t54.5 20.5t47.5 -21t12.5 -51q-6 -30 -30.5 -51t-54.5 -21zM534 780q-30 0 -47.5 21t-11.5 51q5 31 29.5 51.5t54.5 20.5q29 0 46.5 -20.5t13.5 -51.5q-6 -30 -30.5 -51t-54.5 -21zM291 -16
q-125 0 -193 81.5t-45 211.5l80 453h173l-80 -453q-10 -56 17 -87.5t79 -31.5q51 0 89.5 31.5t48.5 87.5l79 453h174l-80 -453q-23 -129 -120.5 -211t-221.5 -82z" />
    <glyph glyph-name="uni01D8" unicode="&#x1d8;" horiz-adv-x="630" 
d="M456 786h-98l83 172h144zM264 593q-30 0 -47 21t-12 51t29.5 51t54.5 21t47.5 -21t11.5 -51q-4 -30 -29 -51t-55 -21zM468 593q-30 0 -47.5 21t-12.5 51q6 31 30.5 51.5t54.5 20.5t47.5 -21t11.5 -51q-5 -30 -30 -51t-54 -21zM215 -10q-99 0 -143.5 69t-19.5 210l49 281
h162l-49 -281q-11 -59 11 -89t62 -30t73 30t44 89l49 281h162l-96 -550h-147l1 72q-68 -82 -158 -82z" />
    <glyph glyph-name="uni01D9" unicode="&#x1d9;" horiz-adv-x="685" 
d="M531 993h-128l-80 135h122l36 -57l55 57h122zM332 798q-30 0 -47.5 21t-11.5 51q4 30 29 51t55 21q29 0 46.5 -21t12.5 -51t-29.5 -51t-54.5 -21zM536 798q-30 0 -47.5 20.5t-12.5 51.5q5 30 30 51t54 21q30 0 47.5 -21t12.5 -51t-29.5 -51t-54.5 -21zM291 -16
q-125 0 -193 81.5t-45 211.5l80 453h173l-80 -453q-10 -56 17 -87.5t79 -31.5q51 0 89.5 31.5t48.5 87.5l79 453h174l-80 -453q-23 -129 -120.5 -211t-221.5 -82z" />
    <glyph glyph-name="uni01DA" unicode="&#x1da;" horiz-adv-x="630" 
d="M468 805h-128l-80 135h122l35 -57l56 57h122zM268 610q-30 0 -47 21t-12 51q5 31 30 51.5t55 20.5t47 -21t12 -51t-30 -51t-55 -21zM472 610q-30 0 -47 21t-12 51t29.5 51t54.5 21t47.5 -21t11.5 -51q-4 -30 -29 -51t-55 -21zM215 -10q-99 0 -143.5 69t-19.5 210l49 281
h162l-49 -281q-11 -59 11 -89t62 -30t73 30t44 89l49 281h162l-96 -550h-147l1 72q-68 -82 -158 -82z" />
    <glyph glyph-name="uni01DB" unicode="&#x1db;" horiz-adv-x="685" 
d="M519 973h-97l-69 172h144zM327 780q-30 0 -47.5 20.5t-12.5 51.5q6 30 30.5 51t54.5 21t47.5 -21t11.5 -51q-5 -30 -29.5 -51t-54.5 -21zM530 780q-30 0 -47 21t-12 51q6 30 30.5 51t54.5 21q29 0 46.5 -21t12.5 -51q-5 -31 -30 -51.5t-55 -20.5zM291 -16
q-125 0 -193 81.5t-45 211.5l80 453h173l-80 -453q-10 -56 17 -87.5t79 -31.5q51 0 89.5 31.5t48.5 87.5l79 453h174l-80 -453q-23 -129 -120.5 -211t-221.5 -82z" />
    <glyph glyph-name="uni01DC" unicode="&#x1dc;" horiz-adv-x="630" 
d="M456 786h-98l-68 172h144zM264 593q-30 0 -47 21t-12 51t29.5 51t54.5 21t47.5 -21t11.5 -51q-4 -30 -29 -51t-55 -21zM468 593q-30 0 -47.5 21t-12.5 51q6 31 30.5 51.5t54.5 20.5t47.5 -21t11.5 -51q-5 -30 -30 -51t-54 -21zM215 -10q-99 0 -143.5 69t-19.5 210l49 281
h162l-49 -281q-11 -59 11 -89t62 -30t73 30t44 89l49 281h162l-96 -550h-147l1 72q-68 -82 -158 -82z" />
    <glyph glyph-name="uni01DE" unicode="&#x1de;" horiz-adv-x="672" 
d="M649 972h-380l23 129h380zM323 780q-27 0 -44 16.5t-17 42.5q0 35 26 60t60 25q27 0 43.5 -17t16.5 -43q0 -34 -26 -59t-59 -25zM527 780q-27 0 -44 16.5t-17 42.5q0 35 26 60t60 25q26 0 43 -17t17 -43q0 -34 -26 -59t-59 -25zM147 0h-195l371 730h186l115 -730h-186
l-16 128h-215zM378 494l-96 -206h121z" />
    <glyph glyph-name="uni01DF" unicode="&#x1df;" horiz-adv-x="653" 
d="M615 807h-380l22 129h380zM289 615q-27 0 -44 16.5t-17 41.5q0 35 26 60.5t60 25.5q26 0 43 -17t17 -43q0 -34 -26 -59t-59 -25zM492 615q-26 0 -43.5 16.5t-17.5 41.5q0 35 26.5 60.5t60.5 25.5q26 0 43 -17t17 -43q0 -34 -26 -59t-60 -25zM236 -8q-92 0 -152 70.5
t-60 174.5q0 130 88 226.5t215 96.5q51 0 94.5 -25t60.5 -64l23 79h147l-96 -550h-147l3 80q-31 -39 -78 -63.5t-98 -24.5zM295 152q59 0 104 44t45 102q0 45 -29.5 74t-75.5 29q-58 0 -102.5 -44.5t-44.5 -102.5q0 -44 29 -73t74 -29z" />
    <glyph glyph-name="uni01E2" unicode="&#x1e2;" horiz-adv-x="949" 
d="M749 826h-380l23 128h380zM866 0h-476l31 181h-194l-84 -181h-191l371 730h661l-28 -158h-294l-21 -121h274l-27 -156h-274l-23 -129h304zM411 572l-108 -231h147l40 231h-79z" />
    <glyph glyph-name="uni01E3" unicode="&#x1e3;" horiz-adv-x="951" 
d="M805 656h-380l46 128h380zM215 -10q-104 0 -158.5 49t-41.5 124q13 76 77 127t163 51h126q5 35 -18.5 58t-70.5 23q-66 0 -124 -37l-80 82q109 91 251 91q115 0 164 -78q83 78 188 78q113 0 176.5 -77.5t43.5 -190.5q-14 -65 -20 -80h-352q-4 -36 24.5 -58t68.5 -22
q69 0 118 42l110 -75q-46 -50 -114 -78.5t-133 -28.5q-63 0 -111.5 25.5t-74.5 70.5q-86 -96 -212 -96zM562 341h200q-2 28 -26.5 47.5t-64.5 19.5q-39 0 -68 -19.5t-41 -47.5zM247 139q46 0 75.5 19.5t32.5 38.5l3 13h-96q-68 0 -75 -37q-6 -34 60 -34z" />
    <glyph glyph-name="Gcaron" unicode="&#x1e6;" horiz-adv-x="829" 
d="M570 823h-128l-79 135h122l35 -57l56 57h122zM386 -16q-141 0 -237.5 95t-96.5 235q0 183 126.5 306.5t309.5 123.5q92 0 171.5 -40.5t119.5 -107.5l-171 -93q-48 64 -135 64q-94 0 -167.5 -72t-73.5 -165q0 -72 48 -120t122 -48q66 0 116 31.5t74 86.5h-201l28 158h393
q0 -42 -5 -73q-30 -173 -143 -277t-278 -104z" />
    <glyph glyph-name="gcaron" unicode="&#x1e7;" 
d="M440 653h-128l-79 135h122l35 -57l56 57h122zM220 -235q-71 0 -138.5 30t-97.5 81l134 92q46 -49 120 -49q57 0 105 39t62 103l3 14q-71 -83 -170 -83q-96 0 -154 72t-58 173q0 131 87 227t215 96q52 0 94.5 -25t60.5 -64l23 79h147l-81 -464q-56 -321 -352 -321z
M297 152q58 0 103 44t45 102q0 45 -29 74t-75 29q-60 0 -104 -44t-44 -103q0 -44 29 -73t75 -29z" />
    <glyph glyph-name="uni01EA" unicode="&#x1ea;" horiz-adv-x="843" 
d="M472 -186q-32 0 -53 21t-21 55q0 40 37 97q-24 -3 -48 -3q-149 0 -242 93.5t-93 235.5q0 180 123.5 305.5t312.5 125.5q149 0 242 -93.5t93 -235.5q0 -141 -79 -252.5t-210 -155.5q-41 -49 -41 -74q0 -20 17 -20q14 0 27 13l28 -64q-15 -22 -40.5 -35t-52.5 -13zM402 162
q96 0 168 71.5t72 166.5q0 71 -48 119t-121 48q-97 0 -169 -71.5t-72 -165.5q0 -72 48 -120t122 -48z" />
    <glyph glyph-name="uni01EB" unicode="&#x1eb;" horiz-adv-x="629" 
d="M325 -194q-32 0 -53 21t-21 55q0 47 43 109q-4 0 -11 -0.5t-10 -0.5q-110 0 -178.5 72t-68.5 179q0 130 95 223.5t235 93.5q109 0 177.5 -72t68.5 -179q0 -98 -58 -179t-153 -115q-46 -59 -46 -83q0 -25 19 -25q13 0 26 13l28 -64q-15 -22 -40.5 -35t-52.5 -13zM293 155
q58 0 100 42t42 98q0 42 -28 70t-72 28q-59 0 -100.5 -42t-41.5 -98q0 -43 27.5 -70.5t72.5 -27.5z" />
    <glyph glyph-name="Aringacute" unicode="&#x1fa;" horiz-adv-x="672" 
d="M557 992h-97l82 172h144zM422 740q-45 0 -75.5 26.5t-30.5 69.5q0 56 44 96.5t102 40.5q44 0 74.5 -27t30.5 -71q0 -58 -44.5 -96.5t-100.5 -38.5zM436 823q15 0 27 11.5t12 27.5q0 12 -7.5 20t-19.5 8q-16 0 -27.5 -12t-11.5 -28q0 -11 7.5 -19t19.5 -8zM147 0h-195
l371 730h186l115 -730h-186l-16 128h-215zM378 494l-96 -206h121z" />
    <glyph glyph-name="aringacute" unicode="&#x1fb;" 
d="M516 838h-97l82 172h144zM380 586q-45 1 -75.5 27.5t-30.5 68.5q0 57 45 97t104 40q43 0 73 -26.5t30 -69.5q0 -59 -45 -98t-101 -39zM394 669q16 0 27.5 12t11.5 28q0 25 -27 27q-17 0 -28.5 -12t-11.5 -28q0 -11 8 -19t20 -8zM238 -8q-92 0 -152 70.5t-60 174.5
q0 130 88 226.5t214 96.5q52 0 94.5 -25t60.5 -64l23 79h147l-96 -550h-147l4 80q-32 -39 -78.5 -63.5t-97.5 -24.5zM297 152q58 0 103 44t45 102q0 45 -29 74t-75 29q-58 0 -103 -44.5t-45 -102.5q0 -44 29 -73t75 -29z" />
    <glyph glyph-name="AEacute" unicode="&#x1fc;" horiz-adv-x="949" 
d="M562 804h-98l82 172h144zM866 0h-476l31 181h-194l-84 -181h-191l371 730h661l-28 -158h-294l-21 -121h274l-27 -156h-274l-23 -129h304zM411 572l-108 -231h147l40 231h-79z" />
    <glyph glyph-name="aeacute" unicode="&#x1fd;" horiz-adv-x="951" 
d="M584 634h-97l82 172h144zM215 -10q-104 0 -158.5 49t-41.5 124q13 76 77 127t163 51h126q5 35 -18.5 58t-70.5 23q-66 0 -124 -37l-80 82q109 91 251 91q115 0 164 -78q83 78 188 78q113 0 176.5 -77.5t43.5 -190.5q-14 -65 -20 -80h-352q-4 -36 24.5 -58t68.5 -22
q69 0 118 42l110 -75q-46 -50 -114 -78.5t-133 -28.5q-63 0 -111.5 25.5t-74.5 70.5q-86 -96 -212 -96zM562 341h200q-2 28 -26.5 47.5t-64.5 19.5q-39 0 -68 -19.5t-41 -47.5zM247 139q46 0 75.5 19.5t32.5 38.5l3 13h-96q-68 0 -75 -37q-6 -34 60 -34z" />
    <glyph glyph-name="Oslashacute" unicode="&#x1fe;" horiz-adv-x="852" 
d="M518 804h-98l82 172h144zM395 -16q-132 0 -222 76l-89 -77l-76 91l92 78q-40 72 -40 161q0 180 123.5 305.5t312.5 125.5q130 0 216 -72l88 75l75 -91l-87 -73q43 -74 43 -168q0 -180 -124 -305.5t-312 -125.5zM254 283l305 259q-31 25 -78 25q-97 0 -168.5 -71.5
t-71.5 -165.5q0 -28 13 -47zM410 162q96 0 168 71.5t72 166.5q0 32 -14 54l-311 -266q35 -26 85 -26z" />
    <glyph glyph-name="oslashacute" unicode="&#x1ff;" horiz-adv-x="640" 
d="M418 634h-98l82 172h144zM279 -10q-99 0 -161 54l-78 -66l-59 70l79 66q-27 50 -27 119q0 138 96.5 231.5t232.5 93.5q94 0 159 -52l79 67l57 -70l-78 -67q29 -50 29 -120q0 -137 -97 -231.5t-232 -94.5zM187 222l208 177q-23 15 -50 15q-65 0 -112.5 -44t-52.5 -106
q-2 -25 7 -42zM295 134q64 0 112.5 44.5t54.5 106.5q0 25 -9 44l-209 -178q20 -17 51 -17z" />
    <glyph glyph-name="uni0218" unicode="&#x218;" horiz-adv-x="607" 
d="M272 -16q-80 0 -152.5 30t-113.5 90l126 109q61 -72 153 -72q46 0 73.5 18.5t27.5 51.5q0 28 -30.5 49.5t-73.5 39.5t-86 41t-73.5 65t-30.5 100q0 110 74.5 174t196.5 64q72 0 140.5 -30t105.5 -89l-137 -95q-16 27 -48.5 42t-66.5 16q-41 0 -67 -18.5t-26 -45.5
q0 -23 30.5 -41.5t74 -36t87 -40t74 -65.5t30.5 -101q0 -118 -79.5 -187t-208.5 -69zM255 -224h-121l47 172h144z" />
    <glyph glyph-name="uni0219" unicode="&#x219;" horiz-adv-x="548" 
d="M245 -15q-71 0 -140.5 24t-106.5 70l128 106q21 -23 59 -36t76 -13q68 0 68 29q0 12 -27 21.5t-65.5 20.5t-76.5 27.5t-65 51t-27 82.5q0 93 67 143.5t173 50.5q69 0 131 -21.5t95 -69.5l-114 -97q-16 22 -53 33.5t-71 11.5q-30 0 -46.5 -8t-16.5 -20q0 -11 27 -20
t66 -20t78 -27t66 -50t27 -82q0 -100 -69.5 -153.5t-182.5 -53.5zM227 -217h-121l48 173h144z" />
    <glyph glyph-name="uni021A" unicode="&#x21a;" horiz-adv-x="594" 
d="M336 0h-173l98 564h-195l29 166h564l-29 -166h-195zM251 -217h-121l48 173h144z" />
    <glyph glyph-name="uni021B" unicode="&#x21b;" horiz-adv-x="437" 
d="M259 -11q-113 0 -156.5 68t-21.5 186l29 164h-71l24 143h78l56 180h132l-32 -180h123l-25 -143h-123l-29 -163q-17 -99 69 -99q18 0 38 6l15 -144q-47 -18 -106 -18zM160 -217h-122l49 173h143z" />
    <glyph glyph-name="uni0228" unicode="&#x228;" horiz-adv-x="576" 
d="M183 -220q-65 0 -98 20l45 82q16 -12 53 -12q42 0 42 23q0 19 -37 19h-36l39 88h-176l128 730h466l-28 -158h-294l-21 -121h273l-27 -156h-273l-23 -129h304l-29 -166h-201l-21 -42q53 -12 53 -62t-40 -83t-99 -33z" />
    <glyph glyph-name="uni0229" unicode="&#x229;" horiz-adv-x="623" 
d="M217 -220q-66 0 -96 20l44 82q18 -12 54 -12q40 0 42 23q0 19 -37 19h-36l35 86q-88 20 -142.5 86.5t-54.5 154.5q0 131 92.5 225t228.5 94q110 0 183 -69t68 -178q0 -29 -16 -91h-386q3 -40 34 -60.5t70 -20.5q79 0 129 42l112 -86q-92 -95 -222 -104l-14 -33
q52 -12 52 -62q0 -48 -43 -82t-97 -34zM215 338h221q0 32 -25 53t-67 21q-45 0 -80 -19.5t-49 -54.5z" />
    <glyph glyph-name="uni022A" unicode="&#x22a;" horiz-adv-x="843" 
d="M723 957h-380l22 129h380zM396 780q-26 0 -43 16.5t-17 42.5q0 35 26 60t60 25q26 0 43 -16.5t17 -42.5q0 -35 -26 -60t-60 -25zM600 780q-27 0 -43.5 16.5t-16.5 42.5q0 35 25.5 60t59.5 25q27 0 44 -16.5t17 -42.5q0 -35 -26 -60t-60 -25zM387 -16q-149 0 -242 93.5
t-93 235.5q0 180 123.5 305.5t312.5 125.5q149 0 242 -93.5t93 -235.5q0 -180 -124 -305.5t-312 -125.5zM402 162q96 0 168 71.5t72 166.5q0 71 -48 119t-121 48q-97 0 -169 -71.5t-72 -165.5q0 -72 48 -120t122 -48z" />
    <glyph glyph-name="uni022B" unicode="&#x22b;" horiz-adv-x="629" 
d="M595 807h-380l23 129h380zM269 615q-26 0 -43.5 16.5t-17.5 41.5q0 35 26.5 60.5t60.5 25.5q26 0 43 -17t17 -43q0 -34 -26 -59t-60 -25zM473 615q-26 0 -43.5 16.5t-17.5 41.5q0 35 26 60.5t60 25.5q27 0 43.5 -17t16.5 -43q0 -34 -26 -59t-59 -25zM273 -10
q-110 0 -178.5 72t-68.5 179q0 133 96.5 225t233.5 92q109 0 177.5 -72t68.5 -179q0 -133 -94.5 -225t-234.5 -92zM293 155q58 0 100 42t42 98q0 42 -28 70t-72 28q-59 0 -100.5 -42t-41.5 -98q0 -43 27.5 -70.5t72.5 -27.5z" />
    <glyph glyph-name="uni0232" unicode="&#x232;" horiz-adv-x="655" 
d="M617 834h-380l23 128h380zM366 0h-173l52 295l-160 435h195l87 -228l168 228h195l-312 -435z" />
    <glyph glyph-name="uni0233" unicode="&#x233;" horiz-adv-x="568" 
d="M539 656h-380l23 128h380zM27 -232q-62 0 -108 20l70 143q26 -10 57 -10q70 0 115 79l-102 550h174l51 -307l155 307h172l-281 -550q-65 -125 -138 -178.5t-165 -53.5z" />
    <glyph glyph-name="uni0237" unicode="&#x237;" horiz-adv-x="296" 
d="M-65 -234q-58 0 -100 18l68 148q16 -6 35 -6q89 0 110 122l88 502h162l-88 -502q-27 -151 -100.5 -216.5t-174.5 -65.5z" />
    <glyph glyph-name="uni0259" unicode="&#x259;" horiz-adv-x="620" 
d="M270 -10q-119 0 -191 83.5t-51 199.5q2 19 14 61h386q-5 33 -34.5 53.5t-74.5 20.5q-71 0 -119 -40l-114 82q49 50 115.5 79t134.5 29q130 0 203 -83t53 -202q-22 -120 -111.5 -201.5t-210.5 -81.5zM285 140q43 0 75 19.5t45 47.5h-221q3 -28 30 -47.5t71 -19.5z" />
    <glyph glyph-name="uni0272" unicode="&#x272;" horiz-adv-x="610" 
d="M-110 -185l27 148q44 0 67 26.5t33 77.5l84 483h147l-1 -72q66 82 158 82q99 0 143.5 -68.5t19.5 -210.5l-49 -281h-162l49 281q11 59 -11.5 89.5t-62.5 30.5t-72.5 -30t-43.5 -90l-38 -216q-23 -125 -98 -187.5t-190 -62.5z" />
    <glyph glyph-name="circumflex" unicode="&#x2c6;" horiz-adv-x="375" 
d="M199 595h-122l127 135h128l80 -135h-122l-36 57z" />
    <glyph glyph-name="caron" unicode="&#x2c7;" horiz-adv-x="375" 
d="M308 595h-128l-80 135h122l35 -57l56 57h122z" />
    <glyph glyph-name="breve" unicode="&#x2d8;" horiz-adv-x="351" 
d="M243 634q-67 0 -106 43.5t-28 102.5h86q-5 -25 12 -43t47 -18q28 0 50 17t27 44h89q-13 -63 -62.5 -104.5t-114.5 -41.5z" />
    <glyph glyph-name="dotaccent" unicode="&#x2d9;" horiz-adv-x="215" 
d="M162 575q-33 0 -54 20.5t-21 52.5q0 41 32.5 71.5t72.5 30.5q31 0 52 -20.5t21 -50.5q0 -41 -31.5 -72.5t-71.5 -31.5z" />
    <glyph glyph-name="ring" unicode="&#x2da;" horiz-adv-x="288" 
d="M193 554q-45 0 -75.5 26.5t-30.5 69.5q0 56 45 96.5t103 40.5q44 0 74 -26t30 -69q0 -59 -45 -98.5t-101 -39.5zM208 637q16 0 27 11.5t11 28.5q0 12 -7 19.5t-19 7.5q-16 0 -27.5 -11.5t-11.5 -27.5q0 -12 7.5 -20t19.5 -8z" />
    <glyph glyph-name="ogonek" unicode="&#x2db;" horiz-adv-x="213" 
d="M22 -220q-33 0 -54 21t-21 55q0 5 2 19q9 52 74 125h82q-3 -4 -12.5 -15.5t-12.5 -15.5t-10.5 -13t-10 -13.5t-7 -12t-6.5 -13t-3 -10.5v-7q0 -21 17 -21q12 0 27 13l28 -64q-35 -48 -93 -48z" />
    <glyph glyph-name="tilde" unicode="&#x2dc;" horiz-adv-x="373" 
d="M310 597q-24 -1 -42.5 8t-27 20.5t-18 21t-17.5 9.5q-20 0 -27 -45h-98q9 56 41 94.5t82 38.5q24 1 43 -8t28 -20.5t18 -20.5t17 -9q18 0 25 44h99q-11 -60 -42 -96t-81 -37z" />
    <glyph glyph-name="hungarumlaut" unicode="&#x2dd;" horiz-adv-x="509" 
d="M191 588h-91l113 192h133zM398 588h-90l113 192h132z" />
    <glyph glyph-name="hookabovecomb" unicode="&#x309;" horiz-adv-x="0" 
d="M-135 651l12 67q59 0 62 22q2 9 -7 14.5t-27 5.5q-37 0 -57 -12l-16 81q35 21 103 21q49 0 80 -29.5t24 -70.5q-8 -42 -55 -70.5t-119 -28.5z" />
    <glyph glyph-name="uni031B" unicode="&#x31b;" horiz-adv-x="0" 
d="M-118 548l17 98q34 0 39 33l15 82h88l-20 -114q-8 -47 -52 -73t-87 -26z" />
    <glyph glyph-name="uni0326" unicode="&#x326;" horiz-adv-x="0" 
d="M-160 -194h-121l48 173h144z" />
    <glyph glyph-name="uni0394" unicode="&#x394;" horiz-adv-x="712" 
d="M649 0h-682l22 128l388 602h119l175 -602zM405 554l-273 -426h397z" />
    <glyph glyph-name="uni03A9" unicode="&#x3a9;" horiz-adv-x="827" 
d="M282 0h-281l26 151h97q-69 71 -69 188q0 109 60 202t159.5 146t214.5 53q140 0 233.5 -83t93.5 -208q0 -85 -42.5 -164.5t-113.5 -133.5h97l-26 -151h-281l26 151q73 31 124 104t51 152q0 78 -49.5 126.5t-132.5 48.5q-108 0 -183.5 -76t-75.5 -181q0 -59 28 -106t70 -68
z" />
    <glyph glyph-name="uni03BC" unicode="&#x3bc;" horiz-adv-x="633" 
d="M136 -220h-162l135 770h162l-49 -282q-3 -18 -3 -34q0 -43 21.5 -65t55.5 -22q41 0 74 30.5t44 90.5l49 282h162l-96 -550h-162l8 46q-65 -57 -144 -57q-40 0 -52 31z" />
    <glyph glyph-name="uni1E04" unicode="&#x1e04;" horiz-adv-x="644" 
d="M318 0h-303l128 730h273q104 0 163.5 -52.5t44.5 -141.5q-15 -85 -93 -142q97 -55 77 -174q-17 -97 -98 -158.5t-192 -61.5zM288 573l-21 -123l109 1q30 2 50 18t24 41q5 28 -12 45.5t-52 17.5h-98zM241 301l-24 -135h123q38 0 62 18.5t29 49.5q6 31 -13 49t-52 18h-125z
M220 -210q-32 0 -52.5 20t-20.5 51q0 42 31.5 73t72.5 31q32 0 52.5 -20.5t20.5 -52.5q0 -41 -32 -71.5t-72 -30.5z" />
    <glyph glyph-name="uni1E05" unicode="&#x1e05;" 
d="M322 -8q-50 0 -89.5 24.5t-56.5 63.5l-24 -80h-147l137 780h162l-54 -303q31 37 76 60t94 23q97 0 154.5 -69.5t57.5 -176.5q0 -134 -88 -228t-222 -94zM318 152q60 0 103.5 43t43.5 103q0 45 -28.5 74t-74.5 29q-58 0 -103.5 -44.5t-45.5 -102.5q0 -44 29.5 -73
t75.5 -29zM261 -222q-33 0 -53.5 20.5t-20.5 52.5q0 41 32 72t73 31q32 0 52.5 -20.5t20.5 -51.5q0 -41 -32 -72.5t-72 -31.5z" />
    <glyph glyph-name="uni1E0C" unicode="&#x1e0c;" horiz-adv-x="731" 
d="M268 0h-253l128 730h231q150 0 244 -89t94 -220q0 -180 -126.5 -300.5t-317.5 -120.5zM286 560l-69 -390h69q102 0 172.5 68t70.5 164q0 70 -46.5 114.5t-127.5 44.5zM206 -203q-33 0 -54 21t-21 52q0 41 32.5 72t72.5 31q31 0 52 -20.5t21 -51.5q0 -41 -31.5 -72.5
t-71.5 -31.5z" />
    <glyph glyph-name="uni1E0D" unicode="&#x1e0d;" 
d="M238 -8q-92 0 -152 70.5t-60 174.5q0 131 87 227t215 96q49 0 91.5 -23.5t59.5 -59.5l53 303h162l-137 -780h-147l4 80q-72 -88 -176 -88zM297 152q60 0 104 43.5t44 102.5q0 45 -29 74t-75 29q-60 0 -104 -44t-44 -103q0 -44 29 -73t75 -29zM225 -222q-33 0 -53.5 20.5
t-20.5 52.5q0 41 32 72t73 31q32 0 52.5 -20.5t20.5 -51.5q0 -41 -32 -72.5t-72 -31.5z" />
    <glyph glyph-name="uni1E0E" unicode="&#x1e0e;" horiz-adv-x="731" 
d="M268 0h-253l128 730h231q150 0 244 -89t94 -220q0 -180 -126.5 -300.5t-317.5 -120.5zM286 560l-69 -390h69q102 0 172.5 68t70.5 164q0 70 -46.5 114.5t-127.5 44.5zM386 -179h-380l22 128h380z" />
    <glyph glyph-name="uni1E0F" unicode="&#x1e0f;" 
d="M238 -8q-92 0 -152 70.5t-60 174.5q0 131 87 227t215 96q49 0 91.5 -23.5t59.5 -59.5l53 303h162l-137 -780h-147l4 80q-72 -88 -176 -88zM297 152q60 0 104 43.5t44 102.5q0 45 -29 74t-75 29q-60 0 -104 -44t-44 -103q0 -44 29 -73t75 -29zM426 -179h-380l23 128h380z
" />
    <glyph glyph-name="uni1E12" unicode="&#x1e12;" horiz-adv-x="731" 
d="M268 0h-253l128 730h231q150 0 244 -89t94 -220q0 -180 -126.5 -300.5t-317.5 -120.5zM286 560l-69 -390h69q102 0 172.5 68t70.5 164q0 70 -46.5 114.5t-127.5 44.5zM159 -183h-122l128 135h128l79 -135h-122l-35 57z" />
    <glyph glyph-name="uni1E13" unicode="&#x1e13;" horiz-adv-x="653" 
d="M237 -8q-92 0 -152 70.5t-60 174.5q0 131 87 227t215 96q49 0 91.5 -23.5t59.5 -59.5l53 303h162l-137 -780h-147l4 80q-72 -88 -176 -88zM296 152q59 0 103.5 44t44.5 102q0 45 -29.5 74t-75.5 29q-59 0 -103 -44t-44 -103q0 -44 29 -73t75 -29zM187 -183h-122l128 135
h128l79 -135h-122l-35 57z" />
    <glyph glyph-name="uni1E24" unicode="&#x1e24;" horiz-adv-x="713" 
d="M188 0h-173l128 730h173l-50 -283h241l50 283h173l-128 -730h-173l47 274h-241zM273 -207q-33 0 -54 21t-21 52q0 41 32.5 72t72.5 31q31 0 52 -20.5t21 -51.5q0 -41 -31.5 -72.5t-71.5 -31.5z" />
    <glyph glyph-name="uni1E25" unicode="&#x1e25;" horiz-adv-x="612" 
d="M167 0h-162l137 780h162l-53 -297q65 77 153 77q109 0 147 -75t17 -204l-49 -281h-162l49 281q8 56 -10.5 88t-63.5 32q-40 0 -73 -30t-43 -90zM202 -222q-32 0 -52.5 20.5t-20.5 52.5q0 41 32 72t73 31q32 0 52 -20.5t20 -51.5q0 -41 -32 -72.5t-72 -31.5z" />
    <glyph glyph-name="uni1E2E" unicode="&#x1e2e;" horiz-adv-x="298" 
d="M324 951h-97l83 172h143zM132 758q-26 0 -43 17t-17 43q0 34 26 59t60 25q26 0 43 -16.5t17 -42.5q0 -35 -26 -60t-60 -25zM336 758q-26 0 -43 17t-17 43q0 34 26 59t60 25q26 0 43 -16.5t17 -42.5q0 -35 -26 -60t-60 -25zM192 0h-173l128 730h173z" />
    <glyph glyph-name="uni1E2F" unicode="&#x1e2f;" horiz-adv-x="267" 
d="M286 811h-97l83 172h143zM109 639q-22 0 -36.5 14t-14.5 36q0 29 22 50.5t50 21.5q22 0 36.5 -14t14.5 -36q0 -29 -22 -50.5t-50 -21.5zM287 639q-22 0 -36.5 14t-14.5 36q0 29 22 50.5t50 21.5q22 0 36.5 -14t14.5 -36q0 -29 -22 -50.5t-50 -21.5zM167 0h-162l96 550
h162z" />
    <glyph glyph-name="uni1E36" unicode="&#x1e36;" horiz-adv-x="564" 
d="M501 0h-486l128 730h173l-98 -557h312zM196 -222q-33 0 -53.5 20.5t-20.5 52.5q0 41 32 72t73 31q32 0 52.5 -20.5t20.5 -51.5q0 -41 -32 -72.5t-72 -31.5z" />
    <glyph glyph-name="uni1E37" unicode="&#x1e37;" horiz-adv-x="267" 
d="M167 0h-162l137 780h162zM46 -222q-33 0 -53.5 20.5t-20.5 52.5q0 41 32.5 72t73.5 31q31 0 51.5 -20.5t20.5 -51.5q0 -41 -32 -72.5t-72 -31.5z" />
    <glyph glyph-name="uni1E3C" unicode="&#x1e3c;" horiz-adv-x="564" 
d="M501 0h-486l128 730h173l-98 -557h312zM152 -183h-122l127 135h128l80 -135h-122l-36 57z" />
    <glyph glyph-name="uni1E3D" unicode="&#x1e3d;" horiz-adv-x="267" 
d="M167 0h-162l137 780h162zM12 -183h-123l128 135h128l80 -135h-122l-36 57z" />
    <glyph glyph-name="uni1E3E" unicode="&#x1e3e;" horiz-adv-x="916" 
d="M580 804h-97l82 172h144zM188 0h-173l128 730h175l154 -378l286 378h175l-128 -730h-173l76 434l-231 -305h-90l-123 305z" />
    <glyph glyph-name="uni1E3F" unicode="&#x1e3f;" horiz-adv-x="901" 
d="M567 634h-97l82 172h144zM167 0h-162l96 550h147l-1 -70q28 38 68.5 59t82.5 21q106 0 139 -87q29 39 71.5 63t87.5 24q99 0 142.5 -66.5t19.5 -207.5l-50 -286h-162l50 286q11 59 -7 87t-52 28q-33 0 -61.5 -28t-38.5 -87l-50 -286h-162l50 286q10 59 -7.5 87t-50.5 28
q-34 0 -62.5 -30t-38.5 -90z" />
    <glyph glyph-name="uni1E44" unicode="&#x1e44;" horiz-adv-x="755" 
d="M480 802q-32 0 -53 21t-21 52q0 41 32 72t73 31q31 0 52 -20.5t21 -50.5q0 -42 -32 -73.5t-72 -31.5zM188 0h-173l128 730h173l209 -422l74 422h174l-128 -730h-174l-209 422z" />
    <glyph glyph-name="uni1E45" unicode="&#x1e45;" horiz-adv-x="612" 
d="M374 632q-33 0 -54 21t-21 52q0 41 32.5 72t72.5 31q31 0 52 -20.5t21 -50.5q0 -42 -31.5 -73.5t-71.5 -31.5zM167 0h-162l96 550h147l-2 -72q66 82 158 82q109 0 147 -75t17 -204l-49 -281h-162l49 281q9 55 -9.5 87.5t-64.5 32.5q-40 0 -73 -30t-43 -90z" />
    <glyph glyph-name="uni1E46" unicode="&#x1e46;" horiz-adv-x="755" 
d="M188 0h-173l128 730h173l209 -422l74 422h174l-128 -730h-174l-209 422zM276 -222q-33 0 -53.5 20.5t-20.5 52.5q0 41 32.5 72t72.5 31q32 0 52.5 -20.5t20.5 -51.5q0 -41 -32 -72.5t-72 -31.5z" />
    <glyph glyph-name="uni1E47" unicode="&#x1e47;" horiz-adv-x="612" 
d="M167 0h-162l96 550h147l-2 -72q66 82 158 82q100 0 144.5 -68.5t19.5 -210.5l-49 -281h-162l49 281q10 59 -12 89.5t-62 30.5t-73 -30t-43 -90zM224 -214q-36 0 -57.5 25.5t-14.5 62.5q7 36 36.5 61.5t66.5 25.5q36 0 57 -25.5t15 -61.5q-7 -37 -37 -62.5t-66 -25.5z" />
    <glyph glyph-name="uni1E4A" unicode="&#x1e4a;" horiz-adv-x="755" 
d="M188 0h-173l128 730h173l209 -422l74 422h174l-128 -730h-174l-209 422zM238 -186h-122l128 135h128l79 -135h-122l-35 57z" />
    <glyph glyph-name="uni1E4B" unicode="&#x1e4b;" horiz-adv-x="612" 
d="M167 0h-162l96 550h147l-2 -72q66 82 158 82q100 0 144.5 -68.5t19.5 -210.5l-49 -281h-162l49 281q10 59 -12 89.5t-62 30.5t-73 -30t-43 -90zM183 -183h-122l128 135h128l79 -135h-122l-35 57z" />
    <glyph glyph-name="uni1E4C" unicode="&#x1e4c;" horiz-adv-x="843" 
d="M599 990h-98l82 172h144zM577 795q-30 -1 -51 13.5t-33.5 29.5t-21.5 15q-19 0 -27 -44h-98q9 55 41 93.5t82 39.5q25 0 43.5 -9t27.5 -20t18 -20.5t16 -9.5q20 0 27 45h98q-11 -61 -41.5 -97t-80.5 -36zM387 -16q-149 0 -242 93.5t-93 235.5q0 180 123.5 305.5
t312.5 125.5q149 0 242 -93.5t93 -235.5q0 -180 -124 -305.5t-312 -125.5zM402 162q96 0 168 71.5t72 166.5q0 71 -48 119t-121 48q-97 0 -169 -71.5t-72 -165.5q0 -72 48 -120t122 -48z" />
    <glyph glyph-name="uni1E4D" unicode="&#x1e4d;" horiz-adv-x="629" 
d="M441 777h-97l82 172h143zM435 603q-30 0 -50.5 14.5t-32.5 29t-21 14.5q-20 0 -27 -44h-98q10 56 42.5 94.5t82.5 38.5q30 0 51 -15t32.5 -29.5t20.5 -14.5q18 0 26 45h98q-11 -61 -42 -97t-82 -36zM273 -10q-110 0 -178.5 72t-68.5 179q0 130 95 223.5t235 93.5
q109 0 177.5 -72t68.5 -179q0 -129 -95.5 -223t-233.5 -94zM293 155q58 0 100 42t42 98q0 42 -28 70t-72 28q-59 0 -100.5 -42t-41.5 -98q0 -43 27.5 -70.5t72.5 -27.5z" />
    <glyph glyph-name="uni1E50" unicode="&#x1e50;" horiz-adv-x="843" 
d="M589 965h-98l49 172h144zM698 789h-380l23 128h380zM387 -16q-149 0 -242 93.5t-93 235.5q0 180 123.5 305.5t312.5 125.5q149 0 242 -93.5t93 -235.5q0 -180 -124 -305.5t-312 -125.5zM402 162q96 0 168 71.5t72 166.5q0 71 -48 119t-121 48q-97 0 -169 -71.5
t-72 -165.5q0 -72 48 -120t122 -48z" />
    <glyph glyph-name="uni1E51" unicode="&#x1e51;" horiz-adv-x="629" 
d="M448 778h-97l-69 172h144zM559 601h-380l23 129h380zM273 -10q-110 0 -178.5 72t-68.5 179q0 130 95 223.5t235 93.5q109 0 177.5 -72t68.5 -179q0 -129 -95.5 -223t-233.5 -94zM293 155q58 0 100 42t42 98q0 42 -28 70t-72 28q-59 0 -100.5 -42t-41.5 -98
q0 -43 27.5 -70.5t72.5 -27.5z" />
    <glyph glyph-name="uni1E52" unicode="&#x1e52;" horiz-adv-x="843" 
d="M583 973h-98l82 172h144zM700 796h-380l22 129h380zM387 -16q-149 0 -242 93.5t-93 235.5q0 180 123.5 305.5t312.5 125.5q149 0 242 -93.5t93 -235.5q0 -180 -124 -305.5t-312 -125.5zM402 162q96 0 168 71.5t72 166.5q0 71 -48 119t-121 48q-97 0 -169 -71.5
t-72 -165.5q0 -72 48 -120t122 -48z" />
    <glyph glyph-name="uni1E53" unicode="&#x1e53;" horiz-adv-x="629" 
d="M442 778h-97l82 172h143zM559 601h-380l23 129h380zM273 -10q-110 0 -178.5 72t-68.5 179q0 130 95 223.5t235 93.5q109 0 177.5 -72t68.5 -179q0 -129 -95.5 -223t-233.5 -94zM293 155q58 0 100 42t42 98q0 42 -28 70t-72 28q-59 0 -100.5 -42t-41.5 -98
q0 -43 27.5 -70.5t72.5 -27.5z" />
    <glyph glyph-name="uni1E62" unicode="&#x1e62;" horiz-adv-x="607" 
d="M272 -16q-80 0 -152.5 30t-113.5 90l126 109q61 -72 153 -72q46 0 73.5 18.5t27.5 51.5q0 28 -30.5 49.5t-73.5 39.5t-86 41t-73.5 65t-30.5 100q0 110 74.5 174t196.5 64q72 0 140.5 -30t105.5 -89l-137 -95q-16 27 -48.5 42t-66.5 16q-41 0 -67 -18.5t-26 -45.5
q0 -23 30.5 -41.5t74 -36t87 -40t74 -65.5t30.5 -101q0 -118 -79.5 -187t-208.5 -69zM215 -222q-33 0 -53.5 20.5t-20.5 52.5q0 41 32 72t73 31q32 0 52.5 -20.5t20.5 -51.5q0 -41 -32 -72.5t-72 -31.5z" />
    <glyph glyph-name="uni1E63" unicode="&#x1e63;" horiz-adv-x="548" 
d="M245 -15q-71 0 -140.5 24t-106.5 70l128 106q21 -23 59 -36t76 -13q68 0 68 29q0 12 -27 21.5t-65.5 20.5t-76.5 27.5t-65 51t-27 82.5q0 93 67 143.5t173 50.5q69 0 131 -21.5t95 -69.5l-114 -97q-16 22 -53 33.5t-71 11.5q-30 0 -46.5 -8t-16.5 -20q0 -11 27 -20
t66 -20t78 -27t66 -50t27 -82q0 -100 -69.5 -153.5t-182.5 -53.5zM186 -222q-33 0 -53.5 20.5t-20.5 52.5q0 41 32.5 72t72.5 31q32 0 52.5 -20.5t20.5 -51.5q0 -41 -32 -72.5t-72 -31.5z" />
    <glyph glyph-name="uni1E6C" unicode="&#x1e6c;" horiz-adv-x="594" 
d="M336 0h-173l98 564h-195l29 166h564l-29 -166h-195zM210 -222q-32 0 -52.5 20.5t-20.5 52.5q0 41 32 72t73 31q32 0 52 -20.5t20 -51.5q0 -41 -32 -72.5t-72 -31.5z" />
    <glyph glyph-name="uni1E6D" unicode="&#x1e6d;" horiz-adv-x="437" 
d="M259 -11q-113 0 -156.5 68t-21.5 186l29 164h-71l24 143h78l56 180h132l-32 -180h123l-25 -143h-123l-29 -163q-17 -99 69 -99q18 0 38 6l15 -144q-47 -18 -106 -18zM116 -222q-33 0 -53 20.5t-20 52.5q0 41 32 72t73 31q31 0 51.5 -20.5t20.5 -51.5q0 -41 -32 -72.5
t-72 -31.5z" />
    <glyph glyph-name="uni1E6E" unicode="&#x1e6e;" horiz-adv-x="594" 
d="M336 0h-173l98 564h-195l29 166h564l-29 -166h-195zM407 -179h-380l22 128h380z" />
    <glyph glyph-name="uni1E6F" unicode="&#x1e6f;" horiz-adv-x="439" 
d="M259 -11q-113 0 -156.5 68t-21.5 186l29 164h-71l24 143h78l56 180h132l-32 -180h123l-25 -143h-123l-29 -163q-17 -99 69 -99q18 0 38 6l15 -144q-47 -18 -106 -18zM313 -189h-380l23 128h381z" />
    <glyph glyph-name="uni1E70" unicode="&#x1e70;" horiz-adv-x="594" 
d="M336 0h-173l98 564h-195l29 166h564l-29 -166h-195zM170 -185h-122l128 135h128l79 -135h-122l-35 57z" />
    <glyph glyph-name="uni1E71" unicode="&#x1e71;" horiz-adv-x="437" 
d="M259 -11q-113 0 -156.5 68t-21.5 186l29 164h-71l24 143h78l56 180h132l-32 -180h123l-25 -143h-123l-29 -163q-17 -99 69 -99q18 0 38 6l15 -144q-47 -18 -106 -18zM79 -183h-122l127 135h128l80 -135h-122l-35 57z" />
    <glyph glyph-name="Wgrave" unicode="&#x1e80;" horiz-adv-x="1022" 
d="M660 804h-98l-68 172h143zM346 0h-176l-82 730h180l48 -434l201 436h150l46 -436l201 434h181l-338 -730h-176l-41 436z" />
    <glyph glyph-name="wgrave" unicode="&#x1e81;" horiz-adv-x="906" 
d="M561 634h-98l-68 172h143zM307 0h-158l-91 550h173l41 -300l147 300h164l41 -300l147 300h173l-283 -550h-158l-47 291z" />
    <glyph glyph-name="Wacute" unicode="&#x1e82;" horiz-adv-x="1022" 
d="M657 804h-97l82 172h143zM346 0h-176l-82 730h180l48 -434l201 436h150l46 -436l201 434h181l-338 -730h-176l-41 436z" />
    <glyph glyph-name="wacute" unicode="&#x1e83;" horiz-adv-x="906" 
d="M576 634h-97l82 172h144zM307 0h-158l-91 550h173l41 -300l147 300h164l41 -300l147 300h173l-283 -550h-158l-47 291z" />
    <glyph glyph-name="Wdieresis" unicode="&#x1e84;" horiz-adv-x="1022" 
d="M505 818q-26 0 -43 17t-17 43q0 34 26 59t60 25q26 0 43 -16.5t17 -41.5q0 -35 -26 -60.5t-60 -25.5zM709 818q-26 0 -43 17t-17 43q0 34 26 59t59 25q27 0 44 -16.5t17 -41.5q0 -35 -26 -60.5t-60 -25.5zM346 0h-176l-82 730h180l48 -434l201 436h150l46 -436l201 434
h181l-338 -730h-176l-41 436z" />
    <glyph glyph-name="wdieresis" unicode="&#x1e85;" horiz-adv-x="906" 
d="M417 648q-26 0 -43 17t-17 43q0 34 26 59t59 25q27 0 44 -16.5t17 -41.5q0 -35 -26 -60.5t-60 -25.5zM621 648q-27 0 -43.5 17t-16.5 43q0 34 26 59t59 25q26 0 43.5 -16.5t17.5 -41.5q0 -35 -26 -60.5t-60 -25.5zM307 0h-158l-91 550h173l41 -300l147 300h164l41 -300
l147 300h173l-283 -550h-158l-47 291z" />
    <glyph glyph-name="uni1E92" unicode="&#x1e92;" horiz-adv-x="641" 
d="M558 0h-571l29 170l396 391h-317l30 169h551l-30 -170l-395 -390h336zM247 -222q-33 0 -53.5 20.5t-20.5 52.5q0 41 32 72t73 31q32 0 52.5 -20.5t20.5 -51.5q0 -41 -32 -72.5t-72 -31.5z" />
    <glyph glyph-name="uni1E93" unicode="&#x1e93;" horiz-adv-x="561" 
d="M471 0h-478l20 113l293 294h-241l24 143h464l-20 -121l-276 -278h240zM193 -222q-33 0 -53 20.5t-20 52.5q0 41 32 72t73 31q31 0 51.5 -20.5t20.5 -51.5q0 -41 -32 -72.5t-72 -31.5z" />
    <glyph glyph-name="Germandbls" unicode="&#x1e9e;" horiz-adv-x="665" 
d="M364 -10q-86 0 -125 23l26 143q45 -17 92 -17q49 0 81 30.5t32 74.5q0 20 -9 37t-21 28t-32.5 22.5t-33.5 16.5t-34 13l9 52l115 140q-28 46 -94 46q-36 0 -69.5 -21.5t-41.5 -67.5l-90 -510h-154l94 537q17 92 99 147t187 55q100 0 157.5 -39t76.5 -103l-10 -53
l-107 -120q1 -1 13.5 -8t18 -10t18.5 -13t20.5 -17.5t17.5 -21.5t15.5 -27.5t9.5 -33t4 -40.5q0 -112 -77 -187.5t-188 -75.5z" />
    <glyph glyph-name="uni1EA0" unicode="&#x1ea0;" horiz-adv-x="672" 
d="M147 0h-195l371 730h186l115 -730h-186l-16 128h-215zM378 494l-96 -206h121zM255 -188q-32 0 -53 20.5t-21 51.5q0 41 32.5 72.5t72.5 31.5q32 0 52.5 -20.5t20.5 -52.5q0 -41 -32 -72t-72 -31z" />
    <glyph glyph-name="uni1EA1" unicode="&#x1ea1;" 
d="M238 -8q-92 0 -152 70.5t-60 174.5q0 130 88 226.5t214 96.5q52 0 94.5 -25t60.5 -64l23 79h147l-96 -550h-147l4 80q-32 -39 -78.5 -63.5t-97.5 -24.5zM297 152q58 0 103 44t45 102q0 45 -29 74t-75 29q-58 0 -103 -44.5t-45 -102.5q0 -44 29 -73t75 -29zM224 -222
q-33 0 -53 20.5t-20 52.5q0 41 32 72t73 31q31 0 51.5 -20.5t20.5 -51.5q0 -41 -32 -72.5t-72 -31.5z" />
    <glyph glyph-name="uni1EA2" unicode="&#x1ea2;" horiz-adv-x="672" 
d="M390 791l11 67q58 0 63 22q3 20 -34 20q-38 0 -58 -12l-16 81q37 21 104 21q49 0 79.5 -29.5t23.5 -70.5q-8 -42 -54.5 -70.5t-118.5 -28.5zM147 0h-195l371 730h186l115 -730h-186l-16 128h-215zM378 494l-96 -206h121z" />
    <glyph glyph-name="uni1EA3" unicode="&#x1ea3;" 
d="M333 621l12 67q57 0 62 22q2 9 -7 14.5t-27 5.5q-36 0 -58 -12l-15 81q35 21 103 21q50 0 80.5 -30t22.5 -70q-7 -42 -54 -70.5t-119 -28.5zM238 -8q-92 0 -152 70.5t-60 174.5q0 130 88 226.5t214 96.5q52 0 94.5 -25t60.5 -64l23 79h147l-96 -550h-147l4 80
q-32 -39 -78.5 -63.5t-97.5 -24.5zM297 152q58 0 103 44t45 102q0 45 -29 74t-75 29q-58 0 -103 -44.5t-45 -102.5q0 -44 29 -73t75 -29z" />
    <glyph glyph-name="uni1EA4" unicode="&#x1ea4;" horiz-adv-x="676" 
d="M652 907h-97l83 172h143zM385 772h-122l127 135h128l80 -135h-122l-35 57zM147 0h-195l371 730h186l115 -730h-186l-16 128h-215zM378 494l-96 -206h121z" />
    <glyph glyph-name="uni1EA5" unicode="&#x1ea5;" horiz-adv-x="647" 
d="M567 742h-97l82 172h144zM300 607h-122l127 135h128l80 -135h-122l-36 57zM238 -8q-92 0 -152 70.5t-60 174.5q0 130 88 226.5t214 96.5q52 0 94.5 -25t60.5 -64l23 79h147l-96 -550h-147l4 80q-32 -39 -78.5 -63.5t-97.5 -24.5zM297 152q58 0 103 44t45 102q0 45 -29 74
t-75 29q-58 0 -103 -44.5t-45 -102.5q0 -44 29 -73t75 -29z" />
    <glyph glyph-name="uni1EA6" unicode="&#x1ea6;" horiz-adv-x="679" 
d="M340 905h-97l-69 172h144zM375 774h-122l127 135h128l80 -135h-122l-35 57zM147 0h-195l371 730h186l115 -730h-186l-16 128h-215zM378 494l-96 -206h121z" />
    <glyph glyph-name="uni1EA7" unicode="&#x1ea7;" 
d="M333 740h-98l-68 172h143zM368 609h-122l127 135h128l80 -135h-122l-36 57zM238 -8q-92 0 -152 70.5t-60 174.5q0 130 88 226.5t214 96.5q52 0 94.5 -25t60.5 -64l23 79h147l-96 -550h-147l4 80q-32 -39 -78.5 -63.5t-97.5 -24.5zM297 152q58 0 103 44t45 102
q0 45 -29 74t-75 29q-58 0 -103 -44.5t-45 -102.5q0 -44 29 -73t75 -29z" />
    <glyph glyph-name="uni1EA8" unicode="&#x1ea8;" horiz-adv-x="672" 
d="M544 908l12 67q60 0 63 22q3 20 -34 20q-39 0 -57 -12l-17 81q37 21 104 21q49 0 79.5 -30t23.5 -70q-7 -42 -54 -70.5t-120 -28.5zM378 774h-122l127 135h128l80 -135h-122l-36 57zM147 0h-195l371 730h186l115 -730h-186l-16 128h-215zM378 494l-96 -206h121z" />
    <glyph glyph-name="uni1EA9" unicode="&#x1ea9;" 
d="M495 728l12 67q58 0 63 22q3 20 -35 20q-37 0 -57 -12l-16 81q35 21 104 21q49 0 79.5 -29.5t23.5 -70.5q-8 -42 -55 -70.5t-119 -28.5zM329 594h-122l126 135h128l81 -135h-122l-36 57zM238 -8q-92 0 -152 70.5t-60 174.5q0 130 88 226.5t214 96.5q52 0 94.5 -25
t60.5 -64l23 79h147l-96 -550h-147l4 80q-32 -39 -78.5 -63.5t-97.5 -24.5zM297 152q58 0 103 44t45 102q0 45 -29 74t-75 29q-58 0 -103 -44.5t-45 -102.5q0 -44 29 -73t75 -29z" />
    <glyph glyph-name="uni1EAA" unicode="&#x1eaa;" horiz-adv-x="672" 
d="M517 931q-30 -1 -51 13.5t-33 29.5t-22 15q-19 0 -27 -44h-98q10 55 42 93.5t81 39.5q25 0 43.5 -9t27.5 -20t18 -20.5t16 -9.5q20 0 27 44h99q-11 -60 -42 -96t-81 -36zM378 772h-122l127 135h128l80 -135h-122l-36 57zM147 0h-195l371 730h186l115 -730h-186l-16 128
h-215zM378 494l-96 -206h121z" />
    <glyph glyph-name="uni1EAB" unicode="&#x1eab;" 
d="M470 766q-23 0 -41 9t-27 20t-18.5 20t-17.5 9q-19 0 -27 -44h-98q10 56 42.5 94.5t82.5 38.5q24 0 42.5 -9t27.5 -20.5t18 -20.5t16 -9q19 0 26 44h98q-11 -61 -42.5 -96.5t-81.5 -35.5zM332 607h-122l128 135h128l79 -135h-122l-35 57zM238 -8q-92 0 -152 70.5
t-60 174.5q0 130 88 226.5t214 96.5q52 0 94.5 -25t60.5 -64l23 79h147l-96 -550h-147l4 80q-32 -39 -78.5 -63.5t-97.5 -24.5zM297 152q58 0 103 44t45 102q0 45 -29 74t-75 29q-58 0 -103 -44.5t-45 -102.5q0 -44 29 -73t75 -29z" />
    <glyph glyph-name="uni1EAC" unicode="&#x1eac;" horiz-adv-x="672" 
d="M387 823h-122l128 135h128l79 -135h-122l-35 57zM147 0h-195l371 730h186l115 -730h-186l-16 128h-215zM378 494l-96 -206h121zM255 -188q-32 0 -53 20.5t-21 51.5q0 41 32.5 72.5t72.5 31.5q32 0 52.5 -20.5t20.5 -52.5q0 -41 -32 -72t-72 -31z" />
    <glyph glyph-name="uni1EAD" unicode="&#x1ead;" 
d="M335 653h-122l128 135h128l79 -135h-122l-35 57zM238 -8q-92 0 -152 70.5t-60 174.5q0 130 88 226.5t214 96.5q52 0 94.5 -25t60.5 -64l23 79h147l-96 -550h-147l4 80q-32 -39 -78.5 -63.5t-97.5 -24.5zM297 152q58 0 103 44t45 102q0 45 -29 74t-75 29q-58 0 -103 -44.5
t-45 -102.5q0 -44 29 -73t75 -29zM224 -222q-33 0 -53 20.5t-20 52.5q0 41 32 72t73 31q31 0 51.5 -20.5t20.5 -51.5q0 -41 -32 -72.5t-72 -31.5z" />
    <glyph glyph-name="uni1EAE" unicode="&#x1eae;" horiz-adv-x="672" 
d="M500 919h-98l83 172h144zM426 760q-65 0 -103 43.5t-27 102.5h86q-5 -25 12.5 -43t46.5 -18t51.5 17t28.5 44h86q-13 -62 -65 -104t-116 -42zM147 0h-195l371 730h186l115 -730h-186l-16 128h-215zM378 494l-96 -206h121z" />
    <glyph glyph-name="uni1EAF" unicode="&#x1eaf;" 
d="M459 774h-97l82 172h143zM394 615q-66 0 -107.5 44t-30.5 102h86q-6 -25 11 -43t47 -18q29 0 52 17t29 44h85q-12 -63 -60.5 -104.5t-111.5 -41.5zM238 -8q-92 0 -152 70.5t-60 174.5q0 130 88 226.5t214 96.5q52 0 94.5 -25t60.5 -64l23 79h147l-96 -550h-147l4 80
q-32 -39 -78.5 -63.5t-97.5 -24.5zM297 152q58 0 103 44t45 102q0 45 -29 74t-75 29q-58 0 -103 -44.5t-45 -102.5q0 -44 29 -73t75 -29z" />
    <glyph glyph-name="uni1EB0" unicode="&#x1eb0;" horiz-adv-x="672" 
d="M517 914h-98l-68 172h144zM431 754q-65 0 -102.5 44t-26.5 103h86q-5 -25 12 -43t46 -18t52 17t29 44h85q-12 -63 -64.5 -105t-116.5 -42zM147 0h-195l371 730h186l115 -730h-186l-16 128h-215zM378 494l-96 -206h121z" />
    <glyph glyph-name="uni1EB1" unicode="&#x1eb1;" 
d="M464 774h-98l-69 172h144zM385 615q-66 0 -107 44t-30 102h87q-6 -25 11 -43t47 -18q29 0 52 17t28 44h86q-13 -63 -62 -104.5t-112 -41.5zM238 -8q-92 0 -152 70.5t-60 174.5q0 130 88 226.5t214 96.5q52 0 94.5 -25t60.5 -64l23 79h147l-96 -550h-147l4 80
q-32 -39 -78.5 -63.5t-97.5 -24.5zM297 152q58 0 103 44t45 102q0 45 -29 74t-75 29q-58 0 -103 -44.5t-45 -102.5q0 -44 29 -73t75 -29z" />
    <glyph glyph-name="uni1EB2" unicode="&#x1eb2;" horiz-adv-x="672" 
d="M421 922l12 67q60 0 63 22q3 20 -34 20q-34 0 -58 -12l-16 81q37 21 104 21q49 0 79.5 -30t23.5 -70q-7 -43 -54 -71t-120 -28zM424 760q-64 0 -101.5 41.5t-27.5 104.5h86q-4 -27 12.5 -44t45.5 -17t52 17t29 44h85q-12 -62 -64.5 -104t-116.5 -42zM147 0h-195l371 730
h186l115 -730h-186l-16 128h-215zM378 494l-96 -206h121z" />
    <glyph glyph-name="uni1EB3" unicode="&#x1eb3;" 
d="M379 762l12 67q58 0 62 22q2 9 -7 14.5t-27 5.5q-32 0 -58 -12l-15 81q35 21 103 21q49 0 80 -29.5t24 -70.5q-9 -43 -55.5 -71t-118.5 -28zM386 600q-65 0 -104.5 42t-29.5 104h87q-4 -27 12.5 -44t45.5 -17t52 17t28 44h86q-13 -63 -63 -104.5t-114 -41.5zM238 -8
q-92 0 -152 70.5t-60 174.5q0 130 88 226.5t214 96.5q52 0 94.5 -25t60.5 -64l23 79h147l-96 -550h-147l4 80q-32 -39 -78.5 -63.5t-97.5 -24.5zM297 152q58 0 103 44t45 102q0 45 -29 74t-75 29q-58 0 -103 -44.5t-45 -102.5q0 -44 29 -73t75 -29z" />
    <glyph glyph-name="uni1EB4" unicode="&#x1eb4;" horiz-adv-x="672" 
d="M536 933q-30 -1 -51 14t-33 30t-22 15q-19 0 -27 -45h-98q10 56 42 94.5t81 38.5q25 1 44 -8t27.5 -20t17.5 -20.5t16 -9.5q20 0 27 44h98q-10 -60 -41 -96t-81 -37zM435 769q-65 0 -102.5 43.5t-26.5 102.5h86q-6 -25 11 -43t47 -18q29 0 52 17t29 44h85
q-12 -62 -64.5 -104t-116.5 -42zM147 0h-195l371 730h186l115 -730h-186l-16 128h-215zM378 494l-96 -206h121z" />
    <glyph glyph-name="uni1EB5" unicode="&#x1eb5;" 
d="M491 788q-30 0 -50 15t-32 29.5t-21 14.5q-21 0 -28 -45h-98q10 56 42.5 94.5t82.5 38.5q30 0 51 -14.5t32.5 -29t19.5 -14.5q19 0 27 44h98q-10 -61 -41.5 -97t-82.5 -36zM398 624q-66 0 -106.5 43.5t-29.5 102.5h87q-4 -27 12.5 -44t45.5 -17t51.5 17t28.5 44h86
q-13 -63 -62.5 -104.5t-112.5 -41.5zM238 -8q-92 0 -152 70.5t-60 174.5q0 130 88 226.5t214 96.5q52 0 94.5 -25t60.5 -64l23 79h147l-96 -550h-147l4 80q-32 -39 -78.5 -63.5t-97.5 -24.5zM297 152q58 0 103 44t45 102q0 45 -29 74t-75 29q-58 0 -103 -44.5t-45 -102.5
q0 -44 29 -73t75 -29z" />
    <glyph glyph-name="uni1EB6" unicode="&#x1eb6;" horiz-adv-x="672" 
d="M432 817q-65 0 -103 43.5t-27 102.5h86q-5 -25 12.5 -43t46.5 -18t51.5 17t28.5 44h86q-13 -63 -65 -104.5t-116 -41.5zM147 0h-195l371 730h186l115 -730h-186l-16 128h-215zM378 494l-96 -206h121zM255 -188q-32 0 -53 20.5t-21 51.5q0 41 32.5 72.5t72.5 31.5
q32 0 52.5 -20.5t20.5 -52.5q0 -41 -32 -72t-72 -31z" />
    <glyph glyph-name="uni1EB7" unicode="&#x1eb7;" 
d="M387 647q-66 0 -108 44t-31 102h86q-4 -27 12.5 -44t46.5 -17q29 0 51.5 17t28.5 44h85q-12 -63 -60 -104.5t-111 -41.5zM238 -8q-92 0 -152 70.5t-60 174.5q0 130 88 226.5t214 96.5q52 0 94.5 -25t60.5 -64l23 79h147l-96 -550h-147l4 80q-32 -39 -78.5 -63.5
t-97.5 -24.5zM297 152q58 0 103 44t45 102q0 45 -29 74t-75 29q-58 0 -103 -44.5t-45 -102.5q0 -44 29 -73t75 -29zM224 -222q-33 0 -53 20.5t-20 52.5q0 41 32 72t73 31q31 0 51.5 -20.5t20.5 -51.5q0 -41 -32 -72.5t-72 -31.5z" />
    <glyph glyph-name="uni1EB8" unicode="&#x1eb8;" horiz-adv-x="576" 
d="M491 0h-476l128 730h466l-28 -158h-294l-21 -121h273l-27 -156h-273l-23 -129h304zM209 -203q-32 0 -53 21t-21 52q0 41 32 72t73 31q31 0 52 -20.5t21 -51.5q0 -41 -32 -72.5t-72 -31.5z" />
    <glyph glyph-name="uni1EB9" unicode="&#x1eb9;" horiz-adv-x="623" 
d="M293 -10q-115 0 -191 71.5t-76 177.5q0 131 92.5 225t228.5 94q110 0 183 -69t68 -178q0 -29 -16 -91h-386q3 -40 34 -60.5t70 -20.5q79 0 129 42l112 -86q-102 -105 -248 -105zM215 338h221q0 32 -25 53t-67 21q-45 0 -80 -19.5t-49 -54.5zM220 -222q-33 0 -53.5 20.5
t-20.5 52.5q0 41 32 72t73 31q32 0 52.5 -20.5t20.5 -51.5q0 -41 -32 -72.5t-72 -31.5z" />
    <glyph glyph-name="uni1EBA" unicode="&#x1eba;" horiz-adv-x="576" 
d="M325 791l11 67q58 0 63 22q3 20 -34 20q-38 0 -58 -12l-16 81q37 21 104 21q49 0 79.5 -29.5t23.5 -70.5q-8 -42 -54.5 -70.5t-118.5 -28.5zM491 0h-476l128 730h466l-28 -158h-294l-21 -121h273l-27 -156h-273l-23 -129h304z" />
    <glyph glyph-name="uni1EBB" unicode="&#x1ebb;" horiz-adv-x="620" 
d="M323 621l12 67q58 0 63 22q3 20 -34 20q-38 0 -58 -12l-16 81q35 21 103 21q50 0 80.5 -30t22.5 -70q-7 -42 -54 -70.5t-119 -28.5zM293 -10q-115 0 -191 71.5t-76 177.5q0 131 92.5 225t228.5 94q110 0 183 -69t68 -178q0 -29 -16 -91h-386q3 -40 34 -60.5t70 -20.5
q79 0 129 42l112 -86q-102 -105 -248 -105zM215 338h221q0 32 -25 53t-67 21q-45 0 -80 -19.5t-49 -54.5z" />
    <glyph glyph-name="uni1EBC" unicode="&#x1ebc;" horiz-adv-x="576" 
d="M441 817q-30 -1 -51.5 14t-33.5 30t-21 15q-20 0 -28 -45h-98q11 56 43 94.5t81 38.5q32 1 53 -14t32.5 -29.5t20.5 -14.5q18 0 26 44h98q-10 -60 -41 -96t-81 -37zM491 0h-476l128 730h466l-28 -158h-294l-21 -121h273l-27 -156h-273l-23 -129h304z" />
    <glyph glyph-name="uni1EBD" unicode="&#x1ebd;" horiz-adv-x="623" 
d="M438 647q-23 0 -41.5 9t-27 20.5t-18 20.5t-16.5 9q-20 0 -28 -45h-98q10 56 43 94.5t83 38.5q24 0 42.5 -9t27 -20t17.5 -20t16 -9q19 0 26 44h99q-11 -61 -42.5 -97t-82.5 -36zM293 -10q-115 0 -191 71.5t-76 177.5q0 131 92.5 225t228.5 94q110 0 183 -69t68 -178
q0 -29 -16 -91h-386q3 -40 34 -60.5t70 -20.5q79 0 129 42l112 -86q-102 -105 -248 -105zM215 338h221q0 32 -25 53t-67 21q-45 0 -80 -19.5t-49 -54.5z" />
    <glyph glyph-name="uni1EBE" unicode="&#x1ebe;" horiz-adv-x="626" 
d="M584 907h-98l83 172h144zM316 772h-122l128 135h128l79 -135h-122l-35 57zM491 0h-476l128 730h466l-28 -158h-294l-21 -121h273l-27 -156h-273l-23 -129h304z" />
    <glyph glyph-name="uni1EBF" unicode="&#x1ebf;" horiz-adv-x="632" 
d="M553 742h-98l83 172h144zM285 607h-122l128 135h128l79 -135h-122l-35 57zM293 -10q-115 0 -191 71.5t-76 177.5q0 131 92.5 225t228.5 94q110 0 183 -69t68 -178q0 -29 -16 -91h-386q3 -40 34 -60.5t70 -20.5q79 0 129 42l112 -86q-102 -105 -248 -105zM215 338h221
q0 32 -25 53t-67 21q-45 0 -80 -19.5t-49 -54.5z" />
    <glyph glyph-name="uni1EC0" unicode="&#x1ec0;" horiz-adv-x="653" 
d="M387 905h-98l-69 172h144zM422 774h-122l126 135h128l81 -135h-122l-36 57zM568 0h-476l128 730h466l-28 -158h-293l-22 -121h274l-27 -156h-274l-23 -129h304z" />
    <glyph glyph-name="uni1EC1" unicode="&#x1ec1;" horiz-adv-x="645" 
d="M333 740h-97l-69 172h144zM368 609h-122l127 135h128l80 -135h-122l-36 57zM293 -10q-115 0 -191 71.5t-76 177.5q0 131 92.5 225t228.5 94q110 0 183 -69t68 -178q0 -29 -16 -91h-386q3 -40 34 -60.5t70 -20.5q79 0 129 42l112 -86q-102 -105 -248 -105zM215 338h221
q0 32 -25 53t-67 21q-45 0 -80 -19.5t-49 -54.5z" />
    <glyph glyph-name="uni1EC2" unicode="&#x1ec2;" horiz-adv-x="584" 
d="M488 908l12 67q59 0 62 22q2 9 -6.5 14.5t-26.5 5.5q-38 0 -58 -12l-16 81q35 21 103 21q50 0 80.5 -30t23.5 -70q-7 -42 -54.5 -70.5t-119.5 -28.5zM321 774h-122l128 135h128l79 -135h-122l-35 57zM491 0h-476l128 730h466l-28 -158h-294l-21 -121h273l-27 -156h-273
l-23 -129h304z" />
    <glyph glyph-name="uni1EC3" unicode="&#x1ec3;" horiz-adv-x="623" 
d="M451 743l12 67q59 0 62 22q2 9 -6.5 14.5t-26.5 5.5q-38 0 -58 -12l-16 81q35 21 103 21q50 0 80.5 -30t23.5 -70q-7 -42 -54.5 -70.5t-119.5 -28.5zM284 609h-122l128 135h128l79 -135h-122l-35 57zM293 -10q-115 0 -191 71.5t-76 177.5q0 131 92.5 225t228.5 94
q110 0 183 -69t68 -178q0 -29 -16 -91h-386q3 -40 34 -60.5t70 -20.5q79 0 129 42l112 -86q-102 -105 -248 -105zM215 338h221q0 32 -25 53t-67 21q-45 0 -80 -19.5t-49 -54.5z" />
    <glyph glyph-name="uni1EC4" unicode="&#x1ec4;" horiz-adv-x="576" 
d="M480 931q-23 0 -41 9t-27 20t-18.5 20t-17.5 9q-19 0 -27 -44h-98q10 56 42.5 94.5t82.5 38.5q30 0 51 -15t33 -29.5t20 -14.5q19 0 27 44h98q-11 -61 -42.5 -96.5t-82.5 -35.5zM343 772h-122l127 135h128l80 -135h-122l-36 57zM491 0h-476l128 730h466l-28 -158h-294
l-21 -121h273l-27 -156h-273l-23 -129h304z" />
    <glyph glyph-name="uni1EC5" unicode="&#x1ec5;" horiz-adv-x="623" 
d="M460 766q-23 0 -41 9t-27 20t-18.5 20t-17.5 9q-19 0 -27 -44h-98q10 56 42.5 94.5t82.5 38.5q24 0 42.5 -9t27.5 -20.5t18 -20.5t16 -9q19 0 26 44h98q-10 -60 -41.5 -96t-82.5 -36zM323 607h-122l127 135h128l80 -135h-122l-36 57zM293 -10q-115 0 -191 71.5t-76 177.5
q0 131 92.5 225t228.5 94q110 0 183 -69t68 -178q0 -29 -16 -91h-386q3 -40 34 -60.5t70 -20.5q79 0 129 42l112 -86q-102 -105 -248 -105zM215 338h221q0 32 -25 53t-67 21q-45 0 -80 -19.5t-49 -54.5z" />
    <glyph glyph-name="uni1EC6" unicode="&#x1ec6;" horiz-adv-x="576" 
d="M356 823h-122l127 135h128l80 -135h-122l-35 57zM491 0h-476l128 730h466l-28 -158h-294l-21 -121h273l-27 -156h-273l-23 -129h304zM209 -203q-32 0 -53 21t-21 52q0 41 32 72t73 31q31 0 52 -20.5t21 -51.5q0 -41 -32 -72.5t-72 -31.5z" />
    <glyph glyph-name="uni1EC7" unicode="&#x1ec7;" horiz-adv-x="623" 
d="M328 653h-122l128 135h128l79 -135h-122l-35 57zM293 -10q-115 0 -191 71.5t-76 177.5q0 131 92.5 225t228.5 94q110 0 183 -69t68 -178q0 -29 -16 -91h-386q3 -40 34 -60.5t70 -20.5q79 0 129 42l112 -86q-102 -105 -248 -105zM215 338h221q0 32 -25 53t-67 21
q-45 0 -80 -19.5t-49 -54.5zM220 -222q-33 0 -53.5 20.5t-20.5 52.5q0 41 32 72t73 31q32 0 52.5 -20.5t20.5 -51.5q0 -41 -32 -72.5t-72 -31.5z" />
    <glyph glyph-name="uni1EC8" unicode="&#x1ec8;" horiz-adv-x="301" 
d="M194 791l12 67q57 0 62 22q2 9 -7 14.5t-27 5.5q-36 0 -58 -12l-15 81q35 21 103 21q49 0 80 -29.5t23 -70.5q-7 -42 -54 -70.5t-119 -28.5zM195 0h-173l128 730h173z" />
    <glyph glyph-name="uni1EC9" unicode="&#x1ec9;" horiz-adv-x="267" 
d="M141 621l12 67q57 0 62 22q3 20 -34 20q-36 0 -58 -12l-15 81q35 21 103 21q49 0 80 -29.5t23 -70.5q-8 -42 -54.5 -70.5t-118.5 -28.5zM167 0h-162l96 550h162z" />
    <glyph glyph-name="uni1ECA" unicode="&#x1eca;" horiz-adv-x="298" 
d="M187 0h-173l128 730h173zM60 -222q-33 0 -53.5 20.5t-20.5 52.5q0 41 32.5 72t72.5 31q32 0 52.5 -20.5t20.5 -51.5q0 -41 -32 -72.5t-72 -31.5z" />
    <glyph glyph-name="uni1ECB" unicode="&#x1ecb;" horiz-adv-x="269" 
d="M190 588q-33 0 -54.5 21.5t-21.5 53.5q0 42 33.5 74t74.5 32q33 0 54 -21t21 -53q0 -42 -33 -74.5t-74 -32.5zM167 0h-162l96 550h162zM47 -222q-33 0 -53.5 20.5t-20.5 52.5q0 41 32.5 72t73.5 31q31 0 51.5 -20.5t20.5 -51.5q0 -41 -32 -72.5t-72 -31.5z" />
    <glyph glyph-name="uni1ECC" unicode="&#x1ecc;" horiz-adv-x="843" 
d="M387 -16q-149 0 -242 93.5t-93 235.5q0 180 123.5 305.5t312.5 125.5q149 0 242 -93.5t93 -235.5q0 -180 -124 -305.5t-312 -125.5zM402 162q96 0 168 71.5t72 166.5q0 71 -48 119t-121 48q-97 0 -169 -71.5t-72 -165.5q0 -72 48 -120t122 -48zM327 -222q-33 0 -53 20.5
t-20 52.5q0 41 32 72t73 31q31 0 51.5 -20.5t20.5 -51.5q0 -41 -32 -72.5t-72 -31.5z" />
    <glyph glyph-name="uni1ECD" unicode="&#x1ecd;" horiz-adv-x="629" 
d="M273 -10q-110 0 -178.5 72t-68.5 179q0 133 96.5 225t233.5 92q109 0 177.5 -72t68.5 -179q0 -133 -94.5 -225t-234.5 -92zM293 155q58 0 100 42t42 98q0 42 -28 70t-72 28q-59 0 -100.5 -42t-41.5 -98q0 -43 27.5 -70.5t72.5 -27.5zM224 -222q-33 0 -53.5 20.5
t-20.5 52.5q0 41 32.5 72t72.5 31q32 0 52.5 -20.5t20.5 -51.5q0 -41 -32 -72.5t-72 -31.5z" />
    <glyph glyph-name="uni1ECE" unicode="&#x1ece;" horiz-adv-x="835" 
d="M457 791l12 67q57 0 62 22q2 9 -7 14.5t-27 5.5q-36 0 -58 -12l-15 81q35 21 103 21q49 0 80 -29.5t23 -70.5q-7 -42 -54 -70.5t-119 -28.5zM368 -16q-153 0 -245 106.5t-71 258.5q21 162 151.5 278.5t295.5 116.5q153 0 245 -106t71 -257q-22 -163 -152 -280t-295 -117z
M398 162q90 0 160.5 64.5t78.5 153.5q8 78 -41 132.5t-127 54.5q-91 0 -161 -64.5t-78 -152.5q-8 -79 40.5 -133.5t127.5 -54.5z" />
    <glyph glyph-name="uni1ECF" unicode="&#x1ecf;" horiz-adv-x="629" 
d="M327 621l11 67q58 0 63 22q3 20 -34 20q-38 0 -58 -12l-16 81q37 21 104 21q49 0 79.5 -30t23.5 -70q-8 -42 -54.5 -70.5t-118.5 -28.5zM273 -10q-110 0 -178.5 72t-68.5 179q0 130 95 223.5t235 93.5q109 0 177.5 -72t68.5 -179q0 -129 -95.5 -223t-233.5 -94zM293 155
q58 0 100 42t42 98q0 42 -28 70t-72 28q-59 0 -100.5 -42t-41.5 -98q0 -43 27.5 -70.5t72.5 -27.5z" />
    <glyph glyph-name="uni1ED0" unicode="&#x1ed0;" horiz-adv-x="843" 
d="M708 907h-98l83 172h144zM440 772h-122l128 135h128l79 -135h-122l-35 57zM387 -16q-149 0 -242 93.5t-93 235.5q0 180 123.5 305.5t312.5 125.5q149 0 242 -93.5t93 -235.5q0 -180 -124 -305.5t-312 -125.5zM402 162q96 0 168 71.5t72 166.5q0 71 -48 119t-121 48
q-97 0 -169 -71.5t-72 -165.5q0 -72 48 -120t122 -48z" />
    <glyph glyph-name="uni1ED1" unicode="&#x1ed1;" horiz-adv-x="629" 
d="M549 742h-98l83 172h144zM281 607h-122l128 135h128l79 -135h-122l-35 57zM273 -10q-110 0 -178.5 72t-68.5 179q0 133 96.5 225t233.5 92q109 0 177.5 -72t68.5 -179q0 -133 -94.5 -225t-234.5 -92zM293 155q58 0 100 42t42 98q0 42 -28 70t-72 28q-59 0 -100.5 -42
t-41.5 -98q0 -43 27.5 -70.5t72.5 -27.5z" />
    <glyph glyph-name="uni1ED2" unicode="&#x1ed2;" horiz-adv-x="843" 
d="M418 905h-97l-69 172h144zM453 774h-122l127 135h128l80 -135h-122l-35 57zM387 -16q-149 0 -242 93.5t-93 235.5q0 180 123.5 305.5t312.5 125.5q149 0 242 -93.5t93 -235.5q0 -180 -124 -305.5t-312 -125.5zM402 162q96 0 168 71.5t72 166.5q0 71 -48 119t-121 48
q-97 0 -169 -71.5t-72 -165.5q0 -72 48 -120t122 -48z" />
    <glyph glyph-name="uni1ED3" unicode="&#x1ed3;" horiz-adv-x="629" 
d="M355 740h-97l-69 172h144zM390 609h-122l127 135h128l80 -135h-122l-36 57zM273 -10q-110 0 -178.5 72t-68.5 179q0 133 96.5 225t233.5 92q109 0 177.5 -72t68.5 -179q0 -133 -94.5 -225t-234.5 -92zM293 155q58 0 100 42t42 98q0 42 -28 70t-72 28q-59 0 -100.5 -42
t-41.5 -98q0 -43 27.5 -70.5t72.5 -27.5z" />
    <glyph glyph-name="uni1ED4" unicode="&#x1ed4;" horiz-adv-x="835" 
d="M576 908l12 67q60 0 63 22q3 20 -34 20q-39 0 -57 -12l-17 81q37 21 104 21q49 0 79.5 -30t23.5 -70q-7 -42 -54 -70.5t-120 -28.5zM410 774h-122l127 135h128l80 -135h-122l-36 57zM368 -16q-153 0 -245 106.5t-71 258.5q21 162 151.5 278.5t295.5 116.5q153 0 245 -106
t71 -257q-22 -163 -152 -280t-295 -117zM398 162q90 0 160.5 64.5t78.5 153.5q8 78 -41 132.5t-127 54.5q-91 0 -161 -64.5t-78 -152.5q-8 -79 40.5 -133.5t127.5 -54.5z" />
    <glyph glyph-name="uni1ED5" unicode="&#x1ed5;" horiz-adv-x="629" 
d="M463 743l12 67q59 0 62 22q2 9 -6.5 14.5t-26.5 5.5q-38 0 -58 -12l-16 81q35 21 103 21q50 0 80.5 -30t23.5 -70q-7 -42 -54.5 -70.5t-119.5 -28.5zM296 609h-122l128 135h128l79 -135h-122l-35 57zM273 -10q-110 0 -178.5 72t-68.5 179q0 130 95 223.5t235 93.5
q109 0 177.5 -72t68.5 -179q0 -129 -95.5 -223t-233.5 -94zM293 155q58 0 100 42t42 98q0 42 -28 70t-72 28q-59 0 -100.5 -42t-41.5 -98q0 -43 27.5 -70.5t72.5 -27.5z" />
    <glyph glyph-name="uni1ED6" unicode="&#x1ed6;" horiz-adv-x="843" 
d="M591 931q-23 0 -41 9t-26.5 20t-18 20t-17.5 9q-19 0 -27 -44h-98q10 56 42.5 94.5t82.5 38.5q30 0 51 -15t32.5 -29.5t19.5 -14.5q19 0 27 44h98q-11 -61 -42.5 -96.5t-82.5 -35.5zM454 772h-122l128 135h128l79 -135h-122l-35 57zM387 -16q-149 0 -242 93.5t-93 235.5
q0 180 123.5 305.5t312.5 125.5q149 0 242 -93.5t93 -235.5q0 -180 -124 -305.5t-312 -125.5zM402 162q96 0 168 71.5t72 166.5q0 71 -48 119t-121 48q-97 0 -169 -71.5t-72 -165.5q0 -72 48 -120t122 -48z" />
    <glyph glyph-name="uni1ED7" unicode="&#x1ed7;" horiz-adv-x="629" 
d="M459 766q-23 0 -41 9t-26.5 20t-18 20t-17.5 9q-20 0 -27 -44h-98q10 56 42.5 94.5t82.5 38.5q24 0 42.5 -9t27 -20.5t17.5 -20.5t16 -9q19 0 26 44h99q-11 -61 -42.5 -96.5t-82.5 -35.5zM322 607h-122l128 135h128l79 -135h-122l-35 57zM273 -10q-110 0 -178.5 72
t-68.5 179q0 133 96.5 225t233.5 92q109 0 177.5 -72t68.5 -179q0 -133 -94.5 -225t-234.5 -92zM293 155q58 0 100 42t42 98q0 42 -28 70t-72 28q-59 0 -100.5 -42t-41.5 -98q0 -43 27.5 -70.5t72.5 -27.5z" />
    <glyph glyph-name="uni1ED8" unicode="&#x1ed8;" horiz-adv-x="843" 
d="M466 823h-122l127 135h128l80 -135h-122l-36 57zM387 -16q-149 0 -242 93.5t-93 235.5q0 180 123.5 305.5t312.5 125.5q149 0 242 -93.5t93 -235.5q0 -180 -124 -305.5t-312 -125.5zM402 162q96 0 168 71.5t72 166.5q0 71 -48 119t-121 48q-97 0 -169 -71.5t-72 -165.5
q0 -72 48 -120t122 -48zM327 -222q-33 0 -53 20.5t-20 52.5q0 41 32 72t73 31q31 0 51.5 -20.5t20.5 -51.5q0 -41 -32 -72.5t-72 -31.5z" />
    <glyph glyph-name="uni1ED9" unicode="&#x1ed9;" horiz-adv-x="630" 
d="M333 653h-122l127 135h128l80 -135h-122l-36 57zM274 -10q-110 0 -178.5 72t-68.5 179q0 134 94.5 225.5t234.5 91.5q109 0 178 -72t69 -179q0 -133 -94.5 -225t-234.5 -92zM293 155q59 0 101 42t42 98q0 42 -28 70t-72 28q-59 0 -100.5 -42t-41.5 -98q0 -42 27.5 -70
t71.5 -28zM224 -222q-33 0 -53.5 20.5t-20.5 52.5q0 41 32.5 72t72.5 31q32 0 52.5 -20.5t20.5 -51.5q0 -41 -32 -72.5t-72 -31.5z" />
    <glyph glyph-name="uni1EDA" unicode="&#x1eda;" horiz-adv-x="843" 
d="M542 804h-97l82 172h144zM387 -16q-149 0 -242 93.5t-93 235.5q0 180 123.5 305.5t312.5 125.5q158 0 252 -104q32 11 35 39l15 81h89l-21 -113q-11 -58 -68 -84q33 -65 33 -148q0 -180 -124 -305.5t-312 -125.5zM402 162q96 0 168 71.5t72 166.5q0 71 -48 119t-121 48
q-97 0 -169 -71.5t-72 -165.5q0 -72 48 -120t122 -48z" />
    <glyph glyph-name="uni1EDB" unicode="&#x1edb;" horiz-adv-x="629" 
d="M405 634h-97l82 172h144zM273 -10q-110 0 -178.5 72t-68.5 179q0 133 96.5 225t233.5 92q96 0 161 -59q29 10 33 34l14 81h88l-19 -113q-8 -42 -59 -74q28 -54 28 -120q0 -133 -94.5 -225t-234.5 -92zM293 155q58 0 100 42t42 98q0 42 -28 70t-72 28q-59 0 -100.5 -42
t-41.5 -98q0 -43 27.5 -70.5t72.5 -27.5z" />
    <glyph glyph-name="uni1EDC" unicode="&#x1edc;" horiz-adv-x="843" 
d="M560 804h-97l-69 172h144zM387 -16q-149 0 -242 93.5t-93 235.5q0 180 123.5 305.5t312.5 125.5q158 0 252 -104q32 11 35 39l15 81h89l-21 -113q-11 -58 -68 -84q33 -65 33 -148q0 -180 -124 -305.5t-312 -125.5zM402 162q96 0 168 71.5t72 166.5q0 71 -48 119t-121 48
q-97 0 -169 -71.5t-72 -165.5q0 -72 48 -120t122 -48z" />
    <glyph glyph-name="uni1EDD" unicode="&#x1edd;" horiz-adv-x="629" 
d="M439 634h-98l-68 172h144zM273 -10q-110 0 -178.5 72t-68.5 179q0 133 96.5 225t233.5 92q96 0 161 -59q29 10 33 34l14 81h88l-19 -113q-8 -42 -59 -74q28 -54 28 -120q0 -133 -94.5 -225t-234.5 -92zM293 155q58 0 100 42t42 98q0 42 -28 70t-72 28q-59 0 -100.5 -42
t-41.5 -98q0 -43 27.5 -70.5t72.5 -27.5z" />
    <glyph glyph-name="uni1EDE" unicode="&#x1ede;" horiz-adv-x="843" 
d="M461 791l11 67q58 0 63 22q3 20 -34 20q-38 0 -58 -12l-16 81q37 21 104 21q49 0 79.5 -29.5t23.5 -70.5q-8 -42 -54.5 -70.5t-118.5 -28.5zM387 -16q-149 0 -242 93.5t-93 235.5q0 180 123.5 305.5t312.5 125.5q158 0 252 -104q32 11 35 39l15 81h89l-21 -113
q-11 -58 -68 -84q33 -65 33 -148q0 -180 -124 -305.5t-312 -125.5zM402 162q96 0 168 71.5t72 166.5q0 71 -48 119t-121 48q-97 0 -169 -71.5t-72 -165.5q0 -72 48 -120t122 -48z" />
    <glyph glyph-name="uni1EDF" unicode="&#x1edf;" horiz-adv-x="629" 
d="M328 621l12 67q57 0 62 22q2 9 -7 14.5t-27 5.5q-36 0 -58 -12l-15 81q35 21 103 21q50 0 80.5 -30t22.5 -70q-7 -42 -54 -70.5t-119 -28.5zM273 -10q-110 0 -178.5 72t-68.5 179q0 133 96.5 225t233.5 92q96 0 161 -59q29 10 33 34l14 81h88l-19 -113q-8 -42 -59 -74
q28 -54 28 -120q0 -133 -94.5 -225t-234.5 -92zM293 155q58 0 100 42t42 98q0 42 -28 70t-72 28q-59 0 -100.5 -42t-41.5 -98q0 -43 27.5 -70.5t72.5 -27.5z" />
    <glyph glyph-name="uni1EE0" unicode="&#x1ee0;" horiz-adv-x="843" 
d="M576 817q-30 -1 -51 14t-33.5 30t-21.5 15q-20 0 -28 -45h-98q10 56 42 94.5t82 38.5q25 1 43.5 -8t27.5 -20t18 -20.5t16 -9.5q19 0 27 44h98q-11 -60 -41.5 -96t-80.5 -37zM387 -16q-149 0 -242 93.5t-93 235.5q0 180 123.5 305.5t312.5 125.5q158 0 252 -104
q32 11 35 39l15 81h89l-21 -113q-11 -58 -68 -84q33 -65 33 -148q0 -180 -124 -305.5t-312 -125.5zM402 162q96 0 168 71.5t72 166.5q0 71 -48 119t-121 48q-97 0 -169 -71.5t-72 -165.5q0 -72 48 -120t122 -48z" />
    <glyph glyph-name="uni1EE1" unicode="&#x1ee1;" horiz-adv-x="629" 
d="M444 647q-23 0 -41.5 9t-27.5 20.5t-18 20.5t-17 9q-20 0 -28 -45h-98q11 56 43.5 94.5t82.5 38.5q24 0 42.5 -9t27 -20t17.5 -20t16 -9q19 0 27 44h98q-11 -61 -42.5 -97t-81.5 -36zM273 -10q-110 0 -178.5 72t-68.5 179q0 133 96.5 225t233.5 92q96 0 161 -59
q29 10 33 34l14 81h88l-19 -113q-8 -42 -59 -74q28 -54 28 -120q0 -133 -94.5 -225t-234.5 -92zM293 155q58 0 100 42t42 98q0 42 -28 70t-72 28q-59 0 -100.5 -42t-41.5 -98q0 -43 27.5 -70.5t72.5 -27.5z" />
    <glyph glyph-name="uni1EE2" unicode="&#x1ee2;" horiz-adv-x="843" 
d="M387 -16q-149 0 -242 93.5t-93 235.5q0 180 123.5 305.5t312.5 125.5q158 0 252 -104q32 11 35 39l15 81h89l-21 -113q-11 -58 -68 -84q33 -65 33 -148q0 -180 -124 -305.5t-312 -125.5zM402 162q96 0 168 71.5t72 166.5q0 71 -48 119t-121 48q-97 0 -169 -71.5
t-72 -165.5q0 -72 48 -120t122 -48zM332 -222q-33 0 -53.5 20.5t-20.5 52.5q0 41 32 72t73 31q32 0 52.5 -20.5t20.5 -51.5q0 -41 -32 -72.5t-72 -31.5z" />
    <glyph glyph-name="uni1EE3" unicode="&#x1ee3;" horiz-adv-x="629" 
d="M26 241q0 133 96.5 225t233.5 92q96 0 161 -59q29 10 33 34l14 81h88l-19 -113q-8 -42 -59 -74q28 -54 28 -120q0 -133 -94.5 -225t-234.5 -92q-110 0 -178.5 72t-68.5 179zM193 253q0 -43 27.5 -70.5t72.5 -27.5q58 0 100 42t42 98q0 42 -28 70t-72 28q-59 0 -100.5 -42
t-41.5 -98zM225 -222q-32 0 -52.5 20.5t-20.5 52.5q0 41 32 72t73 31q32 0 52 -20.5t20 -51.5q0 -41 -32 -72.5t-72 -31.5z" />
    <glyph glyph-name="uni1EE4" unicode="&#x1ee4;" horiz-adv-x="685" 
d="M291 -16q-125 0 -193 81.5t-45 211.5l80 453h173l-80 -453q-10 -56 17 -87.5t79 -31.5q51 0 89.5 31.5t48.5 87.5l79 453h174l-80 -453q-23 -129 -120.5 -211t-221.5 -82zM256 -222q-37 0 -57.5 25.5t-14.5 62.5t36.5 62.5t66.5 25.5t57 -25.5t14 -62.5q-6 -37 -36 -62.5
t-66 -25.5z" />
    <glyph glyph-name="uni1EE5" unicode="&#x1ee5;" horiz-adv-x="630" 
d="M215 -10q-99 0 -143.5 69t-19.5 210l49 281h162l-49 -281q-11 -59 11 -89t62 -30t73 30t44 89l49 281h162l-96 -550h-147l1 72q-68 -82 -158 -82zM223 -222q-37 0 -57.5 25.5t-14.5 62.5t36.5 62.5t66.5 25.5t57 -25.5t14 -62.5q-6 -37 -36 -62.5t-66 -25.5z" />
    <glyph glyph-name="uni1EE6" unicode="&#x1ee6;" horiz-adv-x="685" 
d="M369 791l12 67q58 0 63 22q3 20 -34 20q-38 0 -58 -12l-16 81q35 21 103 21q49 0 80 -29.5t23 -70.5q-7 -42 -54 -70.5t-119 -28.5zM291 -16q-125 0 -193 81.5t-45 211.5l80 453h173l-80 -453q-10 -56 17 -87.5t79 -31.5q51 0 89.5 31.5t48.5 87.5l79 453h174l-80 -453
q-23 -129 -120.5 -211t-221.5 -82z" />
    <glyph glyph-name="uni1EE7" unicode="&#x1ee7;" horiz-adv-x="630" 
d="M325 621l12 67q57 0 62 22q2 9 -7 14.5t-27 5.5q-36 0 -58 -12l-15 81q35 21 103 21q50 0 80.5 -30t22.5 -70q-7 -42 -54 -70.5t-119 -28.5zM215 -10q-99 0 -143.5 69t-19.5 210l49 281h162l-49 -281q-11 -59 11 -89t62 -30t73 30t44 89l49 281h162l-96 -550h-147l1 72
q-68 -82 -158 -82z" />
    <glyph glyph-name="uni1EE8" unicode="&#x1ee8;" horiz-adv-x="713" 
d="M465 804h-98l82 172h144zM291 -16q-125 0 -193 81.5t-45 211.5l80 453h173l-80 -453q-10 -56 17 -87.5t79 -31.5q51 0 89.5 31.5t48.5 87.5l79 453h131q32 0 37 25l14 76h88l-18 -108q-13 -66 -95 -85l-63 -361q-23 -129 -120.5 -211t-221.5 -82z" />
    <glyph glyph-name="uni1EE9" unicode="&#x1ee9;" horiz-adv-x="615" 
d="M413 634h-98l82 172h144zM207 -10q-99 0 -143.5 69t-19.5 210l49 281h162l-49 -281q-11 -59 11.5 -89t62.5 -30t72.5 30t43.5 89l49 281h104q27 3 30 29l15 82h89l-20 -114q-9 -52 -70 -78l-82 -469h-147l2 72q-70 -82 -159 -82z" />
    <glyph glyph-name="uni1EEA" unicode="&#x1eea;" horiz-adv-x="713" 
d="M501 804h-98l-68 172h143zM291 -16q-125 0 -193 81.5t-45 211.5l80 453h173l-80 -453q-10 -56 17 -87.5t79 -31.5q51 0 89.5 31.5t48.5 87.5l79 453h131q32 0 37 25l14 76h88l-18 -108q-13 -66 -95 -85l-63 -361q-23 -129 -120.5 -211t-221.5 -82z" />
    <glyph glyph-name="uni1EEB" unicode="&#x1eeb;" horiz-adv-x="615" 
d="M430 634h-98l-68 172h144zM207 -10q-99 0 -143.5 69t-19.5 210l49 281h162l-49 -281q-11 -59 11.5 -89t62.5 -30t72.5 30t43.5 89l49 281h104q27 3 30 29l15 82h89l-20 -114q-9 -52 -70 -78l-82 -469h-147l2 72q-70 -82 -159 -82z" />
    <glyph glyph-name="uni1EEC" unicode="&#x1eec;" horiz-adv-x="713" 
d="M401 791l12 67q58 0 63 22q3 20 -34 20q-38 0 -58 -12l-16 81q35 21 103 21q49 0 80 -29.5t23 -70.5q-7 -42 -54 -70.5t-119 -28.5zM291 -16q-125 0 -193 81.5t-45 211.5l80 453h173l-80 -453q-10 -56 17 -87.5t79 -31.5q51 0 89.5 31.5t48.5 87.5l79 453h131q32 0 37 25
l14 76h88l-18 -108q-13 -66 -95 -85l-63 -361q-23 -129 -120.5 -211t-221.5 -82z" />
    <glyph glyph-name="uni1EED" unicode="&#x1eed;" horiz-adv-x="615" 
d="M318 621l11 67q58 0 63 22q3 20 -34 20q-38 0 -58 -12l-16 81q37 21 104 21q49 0 79.5 -30t23.5 -70q-8 -42 -54.5 -70.5t-118.5 -28.5zM207 -10q-99 0 -143.5 69t-19.5 210l49 281h162l-49 -281q-11 -59 11.5 -89t62.5 -30t72.5 30t43.5 89l49 281h104q27 3 30 29l15 82
h89l-20 -114q-9 -52 -70 -78l-82 -469h-147l2 72q-70 -82 -159 -82z" />
    <glyph glyph-name="uni1EEE" unicode="&#x1eee;" horiz-adv-x="713" 
d="M520 817q-30 -1 -51 14t-33.5 30t-21.5 15q-20 0 -28 -45h-98q11 56 43 94.5t81 38.5q25 1 43.5 -8t27.5 -20t18 -20.5t16 -9.5q19 0 27 44h98q-10 -60 -41 -96t-81 -37zM291 -16q-127 0 -192.5 81.5t-45.5 211.5l80 453h173l-80 -453q-9 -54 17 -86.5t79 -32.5
q51 0 89.5 31.5t48.5 87.5l79 453h131q32 0 37 25l14 76h88l-18 -108q-13 -66 -95 -85l-63 -361q-23 -129 -120.5 -211t-221.5 -82z" />
    <glyph glyph-name="uni1EEF" unicode="&#x1eef;" horiz-adv-x="615" 
d="M418 647q-24 0 -43 9.5t-28 21t-18.5 20.5t-17.5 8q-19 -2 -27 -45h-98q11 56 43.5 94.5t81.5 38.5q31 1 52 -14t32.5 -30t20.5 -14q18 1 26 44h98q-10 -60 -41 -96t-81 -37zM207 -10q-99 0 -143.5 69t-19.5 210l49 281h162l-49 -281q-11 -59 11.5 -89t62.5 -30t72.5 30
t43.5 89l49 281h104q27 3 30 29l15 82h89l-20 -114q-9 -52 -70 -78l-82 -469h-147l2 72q-70 -82 -159 -82z" />
    <glyph glyph-name="uni1EF0" unicode="&#x1ef0;" horiz-adv-x="713" 
d="M291 -16q-125 0 -193 81.5t-45 211.5l80 453h173l-80 -453q-10 -56 17 -87.5t79 -31.5q51 0 89.5 31.5t48.5 87.5l79 453h131q32 0 37 25l14 76h88l-18 -108q-13 -66 -95 -85l-63 -361q-23 -129 -120.5 -211t-221.5 -82zM256 -222q-37 0 -57.5 25.5t-14.5 62.5t36.5 62.5
t66.5 25.5t57 -25.5t14 -62.5q-6 -37 -36 -62.5t-66 -25.5z" />
    <glyph glyph-name="uni1EF1" unicode="&#x1ef1;" horiz-adv-x="615" 
d="M207 -10q-99 0 -143.5 69t-19.5 210l49 281h162l-49 -281q-11 -59 11.5 -89t62.5 -30t72.5 30t43.5 89l49 281h104q27 3 30 29l15 82h89l-20 -114q-9 -52 -70 -78l-82 -469h-147l2 72q-70 -82 -159 -82zM243 -222q-37 0 -58 25.5t-14 62.5q6 37 36 62.5t67 25.5
q36 0 56.5 -25.5t14.5 -62.5q-6 -36 -36 -62t-66 -26z" />
    <glyph glyph-name="Ygrave" unicode="&#x1ef2;" horiz-adv-x="655" 
d="M471 804h-97l-69 172h144zM366 0h-173l52 295l-160 435h195l87 -228l168 228h195l-312 -435z" />
    <glyph glyph-name="ygrave" unicode="&#x1ef3;" horiz-adv-x="568" 
d="M401 634h-97l-69 172h144zM27 -232q-62 0 -108 20l70 143q26 -10 57 -10q36 0 70.5 26t56.5 74l-114 529h174l51 -307l155 307h172l-281 -550q-65 -125 -138 -178.5t-165 -53.5z" />
    <glyph glyph-name="uni1EF4" unicode="&#x1ef4;" horiz-adv-x="655" 
d="M366 0h-173l52 295l-160 435h195l87 -228l168 228h195l-312 -435zM234 -222q-33 0 -53 20.5t-20 52.5q0 41 32 72t73 31q31 0 51.5 -20.5t20.5 -51.5q0 -41 -32 -72.5t-72 -31.5z" />
    <glyph glyph-name="uni1EF4" unicode="&#x1ef5;" horiz-adv-x="655" 
d="M366 0h-173l52 295l-160 435h195l87 -228l168 228h195l-312 -435zM234 -222q-33 0 -53 20.5t-20 52.5q0 41 32 72t73 31q31 0 51.5 -20.5t20.5 -51.5q0 -41 -32 -72.5t-72 -31.5z" />
    <glyph glyph-name="uni1EF6" unicode="&#x1ef6;" horiz-adv-x="655" 
d="M373 791l12 67q58 0 63 22q3 20 -34 20q-38 0 -58 -12l-16 81q35 21 103 21q49 0 80 -29.5t23 -70.5q-7 -42 -54 -70.5t-119 -28.5zM366 0h-173l52 295l-160 435h195l87 -228l168 228h195l-312 -435z" />
    <glyph glyph-name="uni1EF7" unicode="&#x1ef7;" horiz-adv-x="568" 
d="M300 621l11 67q58 0 63 22q3 20 -34 20q-38 0 -58 -12l-16 81q37 21 104 21q49 0 79.5 -30t23.5 -70q-8 -42 -54.5 -70.5t-118.5 -28.5zM27 -232q-62 0 -108 20l70 143q26 -10 57 -10q36 0 70.5 26t56.5 74l-114 529h174l51 -307l155 307h172l-281 -550
q-65 -125 -138 -178.5t-165 -53.5z" />
    <glyph glyph-name="uni1EF8" unicode="&#x1ef8;" horiz-adv-x="655" 
d="M491 817q-30 -1 -51.5 14t-33.5 30t-21 15q-20 0 -28 -45h-98q11 56 43 94.5t81 38.5q32 1 53 -14t32.5 -29.5t20.5 -14.5q18 0 26 44h98q-10 -60 -41 -96t-81 -37zM366 0h-173l52 295l-160 435h195l87 -228l168 228h195l-312 -435z" />
    <glyph glyph-name="uni1EF9" unicode="&#x1ef9;" horiz-adv-x="568" 
d="M418 647q-30 -1 -51 14t-33.5 30t-21.5 15q-20 0 -28 -45h-98q11 56 43.5 94.5t81.5 38.5q24 1 42.5 -8t27.5 -20t18 -20.5t16 -9.5q19 0 27 44h98q-10 -60 -41 -96t-81 -37zM27 -232q-62 0 -108 20l70 143q26 -10 57 -10q36 0 70.5 26t56.5 74l-114 529h174l51 -307
l155 307h172l-281 -550q-65 -125 -138 -178.5t-165 -53.5z" />
    <glyph glyph-name="endash" unicode="&#x2013;" horiz-adv-x="477" 
d="M446 243h-427l23 128h426z" />
    <glyph glyph-name="emdash" unicode="&#x2014;" horiz-adv-x="963" 
d="M938 273h-913l17 98h912z" />
    <glyph glyph-name="quoteleft" unicode="&#x2018;" horiz-adv-x="268" 
d="M211 441h-144l138 289h105z" />
    <glyph glyph-name="quoteright" unicode="&#x2019;" horiz-adv-x="223" 
d="M149 441h-105l100 289h144z" />
    <glyph glyph-name="quotesinglbase" unicode="&#x201a;" horiz-adv-x="248" 
d="M70 -140h-106l80 290h144z" />
    <glyph glyph-name="quotedblleft" unicode="&#x201c;" horiz-adv-x="461" 
d="M211 441h-144l138 289h105zM404 441h-143l138 289h105z" />
    <glyph glyph-name="quotedblright" unicode="&#x201d;" horiz-adv-x="461" 
d="M172 441h-105l99 289h144zM366 441h-105l99 289h144z" />
    <glyph glyph-name="quotedblbase" unicode="&#x201e;" horiz-adv-x="441" 
d="M70 -140h-106l80 290h144zM263 -140h-105l80 290h144z" />
    <glyph glyph-name="dagger" unicode="&#x2020;" horiz-adv-x="559" 
d="M311 0h-158l84 479h-162l25 143h161l29 158h158l-28 -158h160l-24 -143h-161z" />
    <glyph glyph-name="daggerdbl" unicode="&#x2021;" horiz-adv-x="551" 
d="M301 0h-148l36 207h-162l24 136h162l24 136h-162l24 135h162l29 166h148l-29 -166h162l-23 -135h-163l-24 -136h162l-23 -136h-163z" />
    <glyph glyph-name="bullet" unicode="&#x2022;" horiz-adv-x="391" 
d="M184 188q-56 0 -92.5 35.5t-36.5 89.5q0 73 56 127t127 54q56 0 91.5 -35.5t35.5 -89.5q0 -74 -55.5 -127.5t-125.5 -53.5z" />
    <glyph glyph-name="ellipsis" unicode="&#x2026;" horiz-adv-x="699" 
d="M62 -14q-33 0 -53.5 20.5t-20.5 52.5q0 41 32 72t73 31q32 0 52.5 -20.5t20.5 -51.5q0 -41 -32 -72.5t-72 -31.5zM299 -14q-33 0 -53.5 20.5t-20.5 52.5q0 41 32 72t73 31q32 0 52.5 -20.5t20.5 -51.5q0 -41 -32 -72.5t-72 -31.5zM536 -14q-33 0 -53.5 20.5t-20.5 52.5
q0 41 32 72t73 31q32 0 52.5 -20.5t20.5 -51.5q0 -41 -32 -72.5t-72 -31.5z" />
    <glyph glyph-name="perthousand" unicode="&#x2030;" horiz-adv-x="1207" 
d="M224 396q-63 0 -104 44.5t-41 112.5q0 100 54.5 167.5t142.5 67.5q63 0 103.5 -44t40.5 -112q0 -97 -54 -166.5t-142 -69.5zM212 0h-110l541 781h110zM231 492q43 0 67.5 41t24.5 92q0 67 -57 67q-43 0 -66.5 -41t-23.5 -91q0 -35 15.5 -51.5t39.5 -16.5zM583 -10
q-64 0 -104.5 44.5t-40.5 112.5q0 100 54.5 167.5t142.5 67.5q63 0 103.5 -44t40.5 -112q0 -97 -54.5 -166.5t-141.5 -69.5zM972 -10q-64 0 -104.5 44.5t-40.5 112.5q0 100 54.5 167.5t142.5 67.5q63 0 103.5 -44t40.5 -112q0 -97 -54.5 -166.5t-141.5 -69.5zM590 86
q43 0 67.5 41t24.5 92q0 34 -16 50.5t-41 16.5q-43 0 -66.5 -41t-23.5 -91q0 -35 15.5 -51.5t39.5 -16.5zM979 86q43 0 67.5 41t24.5 92q0 34 -16 50.5t-41 16.5q-43 0 -66.5 -41t-23.5 -91q0 -35 15.5 -51.5t39.5 -16.5z" />
    <glyph glyph-name="guilsinglleft" unicode="&#x2039;" horiz-adv-x="359" 
d="M304 178h-141l-109 187l175 188h142l-175 -188z" />
    <glyph glyph-name="guilsinglright" unicode="&#x203a;" horiz-adv-x="359" 
d="M162 178h-142l175 187l-109 188h142l110 -188z" />
    <glyph glyph-name="fraction" unicode="&#x2044;" horiz-adv-x="522" 
d="M107 0h-143l483 729h142z" />
    <glyph glyph-name="franc" unicode="&#x20a3;" horiz-adv-x="587" 
d="M195 0h-173l17 102h-60l18 98h60l93 530h486l-29 -166h-314l-21 -122h293l-29 -166h-293l-13 -76h175l-17 -98h-176z" />
    <glyph glyph-name="lira" unicode="&#x20a4;" horiz-adv-x="625" 
d="M540 0h-551l27 151h81l13 73h-77l18 98h76l10 52h-77l17 98h78q28 127 107.5 198.5t180.5 71.5q65 0 114.5 -34.5t71.5 -91.5l-147 -85q-7 22 -24 35.5t-40 13.5q-35 0 -61.5 -28t-39.5 -80h155l-16 -98h-157l-10 -52h157l-17 -98h-157l-13 -73h307z" />
    <glyph glyph-name="peseta" unicode="&#x20a7;" horiz-adv-x="667" 
d="M106 464h-60l11 60h60l36 206h282q109 0 168.5 -56.5t57.5 -149.5h48l-11 -60h-46q-25 -96 -107 -158.5t-196 -62.5h-108l-43 -243h-173zM301 583l-10 -59h186q-9 59 -71 59h-105zM279 464l-12 -74h105q36 0 62.5 21t38.5 53h-194z" />
    <glyph glyph-name="Euro" unicode="&#x20ac;" horiz-adv-x="700" 
d="M351 -11q-111 0 -181 65t-81 178h-68l17 99h52q2 23 5 34q1 3 2 8.5t2 10t2 8.5h-51l17 98h66q50 116 143.5 183.5t206.5 67.5q77 0 142 -30t109 -80l-125 -98q-72 57 -153 57q-48 0 -90 -25.5t-70 -74.5h158l-16 -98h-186l-6 -27q-4 -24 -4 -34h183l-16 -99h-153
q10 -45 42.5 -68t78.5 -23q81 0 173 57l90 -99q-134 -110 -289 -110z" />
    <glyph glyph-name="uni2113" unicode="&#x2113;" horiz-adv-x="471" 
d="M205 -10q-83 0 -121 55t-22 139l13 77q-26 -2 -40 -2l19 113q15 0 41 2l39 220q14 84 72.5 135t138.5 51q64 0 102.5 -41t38.5 -108q0 -111 -79.5 -204.5t-197.5 -135.5l-16 -90q-7 -35 1 -58.5t35 -23.5q49 0 65 88h128q-18 -102 -74 -159.5t-143 -57.5zM262 594
l-29 -164q52 28 87.5 80t35.5 104q0 48 -38 48q-44 0 -56 -68z" />
    <glyph glyph-name="uni2116" unicode="&#x2116;" horiz-adv-x="1151" 
d="M959 373q-71 0 -116 46.5t-45 112.5q0 86 60 146t149 60q72 0 117 -46.5t45 -112.5q0 -85 -60 -145.5t-150 -60.5zM178 0h-173l128 730h173l215 -409l72 409h173l-128 -730h-173l-215 409zM973 498q27 0 47.5 20.5t20.5 47.5q0 20 -13 33.5t-34 13.5q-27 0 -47.5 -21
t-20.5 -48q0 -20 13 -33t34 -13zM1099 179h-365l23 129h365z" />
    <glyph glyph-name="trademark" unicode="&#x2122;" horiz-adv-x="567" 
d="M192 550h-66l30 167h-66l12 63h196l-11 -63h-65zM366 550h-66l41 230h66l52 -102l86 102h66l-41 -230h-66l21 117l-61 -76h-41l-36 76z" />
    <glyph glyph-name="uni2126" unicode="&#x2126;" horiz-adv-x="826" 
d="M281 0h-281l26 151h96q-69 71 -69 181q0 167 128.5 287.5t305.5 120.5q140 0 233.5 -83.5t93.5 -208.5q0 -85 -42 -164t-113 -133h96l-26 -151h-280l26 151q73 31 124 104t51 152q0 78 -49.5 126.5t-132.5 48.5q-107 0 -183 -76.5t-76 -180.5q0 -59 27.5 -106t70.5 -68z
" />
    <glyph glyph-name="estimated" unicode="&#x212e;" horiz-adv-x="615" 
d="M260 -11q-118 0 -185.5 83t-46.5 202q20 118 116.5 201t212.5 83q117 0 184 -84.5t46 -199.5q-1 -4 -2.5 -12.5t-2.5 -12.5h-397l-31 -174q49 -35 114 -35q58 0 112 26t94 71l38 -27q-49 -56 -115 -88.5t-137 -32.5zM225 473l-31 -172h238l30 170q-48 37 -115 37
q-63 0 -122 -35z" />
    <glyph glyph-name="uni2150" unicode="&#x2150;" horiz-adv-x="808" 
d="M122 0h-111l541 781h111zM172 337h-93l62 352h-45l16 91h138zM579 0h-103l219 359h-201l15 85h309l-11 -63z" />
    <glyph glyph-name="uni2151" unicode="&#x2151;" horiz-adv-x="787" 
d="M122 0h-111l541 781h111zM172 337h-93l62 352h-45l16 91h138zM544 0h-113l124 140q-58 8 -89.5 52t-20.5 103q11 65 67 112t122 47t104.5 -46.5t27.5 -112.5q-10 -54 -55 -101zM594 229q28 0 50.5 19.5t27.5 46.5t-11 46t-43 19q-28 0 -51 -19.5t-28 -45.5
q-5 -27 11 -46.5t44 -19.5z" />
    <glyph glyph-name="uni2152" unicode="&#x2152;" horiz-adv-x="1122" 
d="M122 0h-111l541 781h111zM172 337h-93l62 352h-45l16 91h138zM850 -3q-73 0 -115.5 46.5t-42.5 125.5q0 114 67.5 198t170.5 84q73 0 115.5 -46t42.5 -124q0 -113 -68 -198.5t-170 -85.5zM583 -1h-92l62 353h-45l16 90h137zM866 91q58 0 91 53.5t33 121.5
q0 46 -21.5 68.5t-55.5 22.5q-58 0 -91 -53t-33 -120q0 -47 21.5 -70t55.5 -23z" />
    <glyph glyph-name="onethird" unicode="&#x2153;" horiz-adv-x="762" 
d="M122 0h-111l541 781h111zM172 337h-93l62 352h-45l16 91h138zM528 -12q-55 0 -93.5 26.5t-49.5 70.5l90 32q6 -15 24.5 -25t39.5 -10q28 0 48.5 14t24.5 38q4 23 -13.5 38.5t-46.5 15.5h-26l16 88h26q20 0 38 12.5t22 29.5q3 18 -10.5 28t-32.5 10q-34 0 -54 -25l-76 33
q21 36 63.5 59t86.5 23q60 0 95.5 -32t24.5 -92q-10 -52 -62 -87q55 -36 43 -107q-11 -61 -64.5 -100.5t-113.5 -39.5z" />
    <glyph glyph-name="twothirds" unicode="&#x2154;" horiz-adv-x="901" 
d="M344 339h-305l11 62l194 163q43 35 49 72q5 24 -7.5 41.5t-39.5 17.5q-21 0 -40.5 -13t-29.5 -30l-74 26q20 48 66 79t97 31q63 0 98 -42t23 -110q-13 -76 -85 -131l-92 -76h151zM261 0h-111l541 781h111zM666 -12q-54 0 -92.5 26.5t-49.5 70.5l90 32q5 -15 24 -25
t40 -10q28 0 48 14t24 38q5 23 -12.5 38.5t-47.5 15.5h-25l16 88h26q19 0 37.5 12.5t22.5 29.5q3 18 -11 28t-33 10q-33 0 -53 -25l-77 33q22 36 64 59t86 23q60 0 95.5 -32t24.5 -92q-9 -52 -62 -87q55 -37 44 -107q-11 -61 -65 -100.5t-114 -39.5z" />
    <glyph glyph-name="uni2155" unicode="&#x2155;" horiz-adv-x="789" 
d="M122 0h-111l541 781h111zM172 337h-93l62 352h-45l16 91h138zM557 -10q-49 0 -84 28.5t-44 73.5l90 31q5 -16 20 -26.5t34 -10.5q27 0 48 17.5t26 43.5q5 27 -9.5 45.5t-42.5 18.5q-35 0 -64 -27h-81l64 260h271l-16 -90h-184l-18 -72q18 12 44 14q68 4 105 -38.5
t26 -110.5q-12 -64 -66 -110.5t-119 -46.5z" />
    <glyph glyph-name="uni2156" unicode="&#x2156;" horiz-adv-x="911" 
d="M344 339h-305l11 62l194 163q43 35 49 72q5 24 -7.5 41.5t-39.5 17.5q-21 0 -40.5 -13t-29.5 -30l-74 26q20 48 66 79t97 31q63 0 98 -42t23 -110q-13 -76 -85 -131l-92 -76h151zM261 0h-111l541 781h111zM679 -11q-50 0 -85 29t-43 74l90 32q5 -17 20 -27.5t34 -10.5
q27 0 48 18t26 44t-9.5 45t-42.5 19q-33 0 -64 -27h-81l64 260h271l-16 -91h-184l-19 -71q23 13 45 13q68 4 105 -38t25 -110q-11 -65 -65 -112t-119 -47z" />
    <glyph glyph-name="uni2157" unicode="&#x2157;" horiz-adv-x="926" 
d="M268 0h-110l541 781h110zM195 323q-55 0 -93 25.5t-49 69.5l90 32q5 -14 24 -24t40 -10q28 0 48 14t24 37t-13.5 39t-46.5 16h-25l15 88h26q20 0 38.5 12t21.5 29q3 19 -10 29t-33 10q-33 0 -53 -25l-78 33q22 35 64.5 58t86.5 23q60 0 95 -31.5t24 -91.5q-9 -53 -61 -88
q56 -35 44 -106q-12 -61 -65.5 -100t-113.5 -39zM694 -10q-50 0 -85 28.5t-43 73.5l90 31q5 -16 20 -26.5t34 -10.5q27 0 48 17.5t26 43.5q5 27 -9.5 45.5t-42.5 18.5q-35 0 -64 -27h-81l63 260h271l-15 -90h-184l-19 -72q19 12 45 14q68 4 105 -38.5t25 -110.5
q-11 -64 -65 -110.5t-119 -46.5z" />
    <glyph glyph-name="uni2158" unicode="&#x2158;" horiz-adv-x="932" 
d="M319 337h-93l16 96h-202l17 93l220 255h120l-45 -255h30l-17 -93h-30zM275 0h-111l541 781h111zM283 662l-122 -136h98zM700 -10q-49 0 -84 28.5t-44 73.5l90 31q5 -16 20.5 -26.5t34.5 -10.5q26 0 47.5 17.5t26.5 43.5q5 27 -9.5 45.5t-42.5 18.5q-35 0 -64 -27h-81
l63 260h271l-15 -90h-185l-18 -72q19 12 44 14q68 4 105.5 -38.5t25.5 -110.5q-12 -64 -66 -110.5t-119 -46.5z" />
    <glyph glyph-name="uni2159" unicode="&#x2159;" horiz-adv-x="721" 
d="M122 0h-111l541 781h111zM172 337h-93l62 352h-45l16 91h138zM483 -13q-67 0 -106 48t-27 114q8 52 52 99l173 199h114l-126 -142q58 -8 89.5 -52.5t21.5 -103.5q-11 -66 -67.5 -114t-123.5 -48zM500 84q28 0 51 19.5t28 45.5q5 27 -12 46t-45 19q-27 0 -49 -19t-27 -46
q-5 -26 10.5 -45.5t43.5 -19.5z" />
    <glyph glyph-name="uni215A" unicode="&#x215a;" horiz-adv-x="869" 
d="M247 0h-110l541 781h110zM184 327q-50 0 -84.5 28t-43.5 73l91 31q5 -16 20 -26.5t34 -10.5q26 0 47 17.5t26 43.5t-9.5 45t-42.5 19q-33 0 -64 -27h-80l63 260h271l-16 -91h-184l-18 -71q20 12 44 14q68 4 105 -38.5t26 -110.5q-11 -64 -65.5 -110t-119.5 -46zM631 -13
q-67 0 -106 48t-27 114q8 52 52 99l172 199h115l-127 -142q58 -8 90 -52t22 -104q-12 -66 -68 -114t-123 -48zM647 84q28 0 51.5 19t28.5 46t-12 46t-45 19t-50 -19.5t-26 -45.5q-5 -26 10.5 -45.5t42.5 -19.5z" />
    <glyph glyph-name="oneeighth" unicode="&#x215b;" horiz-adv-x="784" 
d="M122 0h-111l541 781h111zM172 337h-93l62 352h-45l16 91h138zM542 -14q-68 0 -107.5 41t-28.5 104q12 67 75 104q-32 32 -22 83q9 56 56.5 93t107.5 37q59 0 93.5 -37t25.5 -93q-10 -51 -51 -83q50 -37 37 -104q-10 -62 -64.5 -103.5t-121.5 -41.5zM590 267q21 0 38 13.5
t21 32.5t-9 31.5t-34 12.5t-37 -12.5t-20 -31.5q-3 -19 9 -32.5t32 -13.5zM557 72q28 0 50.5 17t26.5 42q5 26 -11.5 42.5t-45.5 16.5q-28 0 -50 -17t-27 -42q-4 -26 12 -42.5t45 -16.5z" />
    <glyph glyph-name="threeeighths" unicode="&#x215c;" horiz-adv-x="931" 
d="M268 0h-110l541 781h110zM195 323q-55 0 -93 25.5t-49 69.5l90 32q5 -14 24 -24t40 -10q28 0 48 14t24 37t-13.5 39t-46.5 16h-25l15 88h26q20 0 38.5 12t21.5 29q3 19 -10 29t-33 10q-33 0 -53 -25l-78 33q22 35 64.5 58t86.5 23q60 0 95 -31.5t24 -91.5q-9 -53 -61 -88
q56 -35 44 -106q-12 -61 -65.5 -100t-113.5 -39zM689 -14q-67 0 -106.5 41t-28.5 104q12 66 74 104q-31 33 -22 83q10 56 57.5 93t107.5 37q59 0 93.5 -37t24.5 -93q-9 -50 -50 -83q49 -36 37 -104q-11 -62 -65 -103.5t-122 -41.5zM738 267q21 0 38 13.5t20 32.5
q4 19 -8.5 31.5t-33.5 12.5t-37 -12.5t-20 -31.5q-3 -20 8.5 -33t32.5 -13zM704 72q29 0 51 17t26 42q5 25 -11 42t-45 17q-28 0 -50.5 -17t-26.5 -42q-4 -26 12 -42.5t44 -16.5z" />
    <glyph glyph-name="fiveeighths" unicode="&#x215d;" horiz-adv-x="910" 
d="M247 0h-110l541 781h110zM184 327q-50 0 -84.5 28t-43.5 73l91 31q5 -16 20 -26.5t34 -10.5q26 0 47 17.5t26 43.5t-9.5 45t-42.5 19q-33 0 -64 -27h-80l63 260h271l-16 -91h-184l-18 -71q20 12 44 14q68 4 105 -38.5t26 -110.5q-11 -64 -65.5 -110t-119.5 -46zM668 -14
q-68 0 -107.5 41t-28.5 104q12 67 75 104q-32 32 -22 83q9 56 56.5 93t107.5 37q59 0 93.5 -37t25.5 -93q-10 -51 -51 -83q50 -37 37 -104q-10 -62 -64.5 -103.5t-121.5 -41.5zM716 267q21 0 38 13.5t21 32.5t-9 31.5t-34 12.5t-37 -12.5t-20 -31.5q-3 -19 9 -32.5t32 -13.5
zM683 72q28 0 50.5 17t26.5 42q5 26 -11.5 42.5t-45.5 16.5q-28 0 -50 -17t-27 -42q-4 -26 12 -42.5t45 -16.5z" />
    <glyph glyph-name="seveneighths" unicode="&#x215e;" horiz-adv-x="813" 
d="M151 0h-111l541 781h111zM177 336h-103l214 359h-201l15 85h309l-11 -63zM571 -14q-68 0 -107.5 41t-28.5 104q12 67 75 104q-32 32 -22 83q9 56 56.5 93t107.5 37q59 0 93.5 -37t25.5 -93q-10 -51 -51 -83q50 -37 37 -104q-10 -62 -64.5 -103.5t-121.5 -41.5zM619 267
q21 0 38 13.5t21 32.5t-9 31.5t-34 12.5t-37 -12.5t-20 -31.5q-3 -19 9 -32.5t32 -13.5zM586 72q28 0 50.5 17t26.5 42q5 26 -11.5 42.5t-45.5 16.5q-28 0 -50 -17t-27 -42q-4 -26 12 -42.5t45 -16.5z" />
    <glyph glyph-name="arrowleft" unicode="&#x2190;" horiz-adv-x="770" 
d="M465 85h-181l-230 280l329 280h181l-254 -216h450l-23 -128h-449z" />
    <glyph glyph-name="arrowup" unicode="&#x2191;" horiz-adv-x="635" 
d="M336 18h-128l80 449l-255 -216l32 182l330 280l230 -280l-32 -182l-177 216z" />
    <glyph glyph-name="arrowright" unicode="&#x2192;" horiz-adv-x="785" 
d="M426 85h-181l255 216h-450l22 128h450l-178 216h181l231 -280z" />
    <glyph glyph-name="arrowdown" unicode="&#x2193;" horiz-adv-x="650" 
d="M609 298l-329 -280l-231 280l32 181l178 -216l79 450h129l-80 -450l254 216z" />
    <glyph glyph-name="arrowboth" unicode="&#x2194;" horiz-adv-x="1098" 
d="M465 85h-181l-230 280l329 280h181l-254 -216h532l-178 216h181l231 -280l-330 -280h-181l255 216h-532z" />
    <glyph glyph-name="arrowupdn" unicode="&#x2195;" horiz-adv-x="635" 
d="M573 134l-330 -280l-230 280l32 181l178 -216l88 502l-254 -216l32 181l329 280l231 -280l-32 -181l-178 216l-88 -502l254 216z" />
    <glyph glyph-name="uni2196" unicode="&#x2196;" horiz-adv-x="614" 
d="M563 213l-107 -90l-262 318l-54 -305l-104 128l69 395h395l106 -127h-305z" />
    <glyph glyph-name="uni2197" unicode="&#x2197;" horiz-adv-x="614" 
d="M478 441l-373 -318l-75 90l374 319h-306l151 127h395l-69 -395l-150 -128z" />
    <glyph glyph-name="uni2198" unicode="&#x2198;" horiz-adv-x="614" 
d="M549 120h-395l-106 127h306l-262 319l106 90l262 -318l54 305l105 -128z" />
    <glyph glyph-name="uni2199" unicode="&#x2199;" horiz-adv-x="614" 
d="M405 120h-395l70 395l150 128l-54 -305l374 318l75 -90l-375 -319h306z" />
    <glyph glyph-name="partialdiff" unicode="&#x2202;" horiz-adv-x="578" 
d="M196 -8q-101 0 -148.5 78t-14.5 177q33 105 124.5 179t188.5 74q69 0 98 -46q18 61 4 107t-65 46q-55 0 -105 -43l-65 91q99 83 207 83q78 0 120.5 -53t42.5 -146q0 -78 -34 -184t-78 -177q-47 -85 -119 -135.5t-156 -50.5zM232 135q41 0 79 33t53 79q16 47 0 79t-61 32
q-39 0 -79 -33t-53 -78q-16 -47 0.5 -79.5t60.5 -32.5z" />
    <glyph glyph-name="product" unicode="&#x220f;" horiz-adv-x="645" 
d="M106 -220h-143l167 950h545l-167 -950h-143l141 807h-258z" />
    <glyph glyph-name="summation" unicode="&#x2211;" horiz-adv-x="580" 
d="M456 -220h-506l25 143l301 360l-171 311l24 136h476l-24 -136h-299l171 -311l-304 -360h331z" />
    <glyph glyph-name="minus" unicode="&#x2212;" horiz-adv-x="578" 
d="M519 301h-450l22 128h450z" />
    <glyph glyph-name="uni2215" unicode="&#x2215;" horiz-adv-x="533" 
d="M102 0h-145l506 730h145z" />
    <glyph glyph-name="radical" unicode="&#x221a;" horiz-adv-x="656" 
d="M336 0h-138l-62 291h-87l22 128h175l49 -229l308 620h134z" />
    <glyph glyph-name="infinity" unicode="&#x221e;" horiz-adv-x="708" 
d="M192 181q-63 0 -103 40.5t-40 101.5q0 79 58.5 139.5t137.5 60.5q90 0 140 -78q75 78 157 78q63 0 103.5 -40t40.5 -101q0 -81 -56 -141t-140 -60q-90 0 -139 77q-77 -77 -159 -77zM219 303q38 0 74 49q-21 49 -57 49q-22 0 -39 -17.5t-17 -40.5q0 -18 11 -29t28 -11z
M499 303q23 0 39.5 17.5t16.5 41.5q0 17 -11 28t-28 11q-38 0 -74 -49q20 -49 57 -49z" />
    <glyph glyph-name="integral" unicode="&#x222b;" horiz-adv-x="409" 
d="M-85 -220l23 128q52 0 80 22t45 74l154 540q30 110 102 167t174 57l-23 -129q-51 0 -79.5 -22t-45.5 -73l-154 -540q-29 -110 -101 -167t-175 -57z" />
    <glyph glyph-name="approxequal" unicode="&#x2248;" horiz-adv-x="545" 
d="M377 304q-43 0 -95.5 33t-78.5 33q-45 0 -69 -55l-99 45q31 69 78 102.5t98 33.5q44 1 97 -32.5t79 -33.5q46 0 69 55l98 -44q-31 -70 -78 -103.5t-99 -33.5zM341 103q-43 0 -95 33t-78 33q-45 0 -70 -55l-98 45q31 69 78 102.5t98 33.5q44 1 96.5 -32.5t78.5 -33.5
q46 0 69 55l99 -44q-32 -70 -79 -103.5t-99 -33.5z" />
    <glyph glyph-name="notequal" unicode="&#x2260;" horiz-adv-x="526" 
d="M170 44h-155l84 147h-77l24 129h128l46 81h-160l22 128h212l90 157h154l-90 -157h84l-22 -128h-135l-47 -81h168l-23 -129h-219z" />
    <glyph glyph-name="lessequal" unicode="&#x2264;" horiz-adv-x="505" 
d="M478 335l-25 -141l-401 160l23 133l458 160l-25 -141l-282 -85zM423 23h-430l21 121h430z" />
    <glyph glyph-name="greaterequal" unicode="&#x2265;" horiz-adv-x="505" 
d="M482 354l-459 -160l25 141l283 86l-253 85l25 141l402 -160zM423 23h-430l21 121h430z" />
    <glyph glyph-name="uni2460" unicode="&#x2460;" horiz-adv-x="808" 
d="M354 -13q-138 0 -227 88.5t-89 222.5q0 114 63 217t167 164.5t219 61.5q138 0 227 -89t89 -222q0 -113 -63 -216t-167.5 -165t-218.5 -62zM366 54q142 0 255 111t113 252q0 110 -73.5 183.5t-185.5 73.5q-142 0 -255.5 -110.5t-113.5 -252.5q0 -110 73.5 -183.5
t186.5 -73.5zM434 143h-93l62 352h-45l16 91h138z" />
    <glyph glyph-name="uni2461" unicode="&#x2461;" horiz-adv-x="808" 
d="M354 -13q-138 0 -227 88.5t-89 222.5q0 114 63 217t167 164.5t219 61.5q138 0 227 -89t89 -222q0 -113 -63 -216t-167.5 -165t-218.5 -62zM366 54q142 0 255 111t113 252q0 110 -73.5 183.5t-185.5 73.5q-142 0 -255.5 -110.5t-113.5 -252.5q0 -110 73.5 -183.5
t186.5 -73.5zM533 140h-305l11 62l194 163q51 41 51 83q0 20 -13 34t-36 14q-21 0 -40.5 -13t-29.5 -30l-74 26q21 48 66.5 79t96.5 31q55 0 90 -33t35 -88q0 -46 -25 -89t-63 -73l-93 -76h151z" />
    <glyph glyph-name="uni2462" unicode="&#x2462;" horiz-adv-x="808" 
d="M354 -13q-138 0 -227 88.5t-89 222.5q0 114 63 217t167 164.5t219 61.5q138 0 227 -89t89 -222q0 -113 -63 -216t-167.5 -165t-218.5 -62zM366 54q142 0 255 111t113 252q0 110 -73.5 183.5t-185.5 73.5q-142 0 -255.5 -110.5t-113.5 -252.5q0 -110 73.5 -183.5
t186.5 -73.5zM382 136q-55 0 -93 26t-49 70l90 32q5 -15 24 -25t40 -10q31 0 52 17t21 43q0 20 -17 33t-44 13h-25l16 88h26q21 0 40 13t20 35q0 15 -13 23.5t-31 8.5q-33 0 -53 -25l-77 33q22 36 64 59t86 23q53 0 87.5 -25.5t34.5 -73.5q0 -70 -64 -112q51 -33 44 -101
q-9 -63 -63 -104t-116 -41z" />
    <glyph glyph-name="uni2463" unicode="&#x2463;" horiz-adv-x="808" 
d="M354 -13q-138 0 -227 88.5t-89 222.5q0 114 63 217t167 164.5t219 61.5q138 0 227 -89t89 -222q0 -113 -63 -216t-167.5 -165t-218.5 -62zM366 54q142 0 255 111t113 252q0 110 -73.5 183.5t-185.5 73.5q-142 0 -255.5 -110.5t-113.5 -252.5q0 -110 73.5 -183.5
t186.5 -73.5zM484 142h-93l17 96h-202l16 93l221 255h119l-45 -255h30l-16 -93h-30zM448 467l-121 -136h97z" />
    <glyph glyph-name="uni2464" unicode="&#x2464;" horiz-adv-x="808" 
d="M354 -13q-138 0 -227 88.5t-89 222.5q0 114 63 217t167 164.5t219 61.5q138 0 227 -89t89 -222q0 -113 -63 -216t-167.5 -165t-218.5 -62zM366 54q142 0 255 111t113 252q0 110 -73.5 183.5t-185.5 73.5q-142 0 -255.5 -110.5t-113.5 -252.5q0 -110 73.5 -183.5
t186.5 -73.5zM375 138q-50 0 -84.5 28t-43.5 73l90 31q5 -16 20.5 -26.5t34.5 -10.5q30 0 52.5 21.5t22.5 51.5q0 22 -14.5 37t-39.5 15q-33 0 -64 -27h-80l63 260h271l-16 -90h-185l-17 -71q26 14 58 14q54 0 87 -33.5t33 -86.5q0 -73 -57 -129.5t-131 -56.5z" />
    <glyph glyph-name="uni2465" unicode="&#x2465;" horiz-adv-x="808" 
d="M354 -13q-138 0 -227 88.5t-89 222.5q0 114 63 217t167 164.5t219 61.5q138 0 227 -89t89 -222q0 -113 -63 -216t-167.5 -165t-218.5 -62zM366 54q142 0 255 111t113 252q0 110 -73.5 183.5t-185.5 73.5q-142 0 -255.5 -110.5t-113.5 -252.5q0 -110 73.5 -183.5
t186.5 -73.5zM374 136q-60 0 -98 37.5t-38 94.5q0 66 48 121l178 205h114l-125 -142q49 -8 81 -43.5t32 -85.5q0 -74 -59 -130.5t-133 -56.5zM390 231q31 0 56 22.5t25 52.5q0 23 -16.5 39t-41.5 16q-30 0 -54 -23.5t-24 -53.5q0 -23 15.5 -38t39.5 -15z" />
    <glyph glyph-name="uni2466" unicode="&#x2466;" horiz-adv-x="808" 
d="M354 -13q-138 0 -227 88.5t-89 222.5q0 114 63 217t167 164.5t219 61.5q138 0 227 -89t89 -222q0 -113 -63 -216t-167.5 -165t-218.5 -62zM366 54q142 0 255 111t113 252q0 110 -73.5 183.5t-185.5 73.5q-142 0 -255.5 -110.5t-113.5 -252.5q0 -110 73.5 -183.5
t186.5 -73.5zM379 142h-102l214 359h-202l15 85h310l-11 -63z" />
    <glyph glyph-name="uni2467" unicode="&#x2467;" horiz-adv-x="808" 
d="M354 -13q-138 0 -227 88.5t-89 222.5q0 114 63 217t167 164.5t219 61.5q138 0 227 -89t89 -222q0 -113 -63 -216t-167.5 -165t-218.5 -62zM366 54q142 0 255 111t113 252q0 110 -73.5 183.5t-185.5 73.5q-142 0 -255.5 -110.5t-113.5 -252.5q0 -110 73.5 -183.5
t186.5 -73.5zM374 133q-60 0 -99 33.5t-39 86.5q0 83 77 129q-24 26 -24 61q0 63 50 107.5t116 44.5q53 0 87 -30.5t34 -77.5q0 -62 -53 -105q39 -29 39 -79q0 -71 -56.5 -120.5t-131.5 -49.5zM423 414q23 0 41 16t18 37q0 16 -12.5 26.5t-30.5 10.5q-24 0 -41 -15t-17 -37
q0 -17 11.5 -27.5t30.5 -10.5zM389 219q31 0 54.5 20.5t23.5 48.5q0 22 -16 35.5t-42 13.5q-31 0 -54 -20.5t-23 -49.5q0 -21 15.5 -34.5t41.5 -13.5z" />
    <glyph glyph-name="uni2468" unicode="&#x2468;" horiz-adv-x="808" 
d="M354 -13q-138 0 -227 88.5t-89 222.5q0 114 63 217t167 164.5t219 61.5q138 0 227 -89t89 -222q0 -113 -63 -216t-167.5 -165t-218.5 -62zM366 54q142 0 255 111t113 252q0 110 -73.5 183.5t-185.5 73.5q-142 0 -255.5 -110.5t-113.5 -252.5q0 -110 73.5 -183.5
t186.5 -73.5zM370 136h-114l126 141q-49 8 -81 43.5t-32 85.5q0 74 59 131t133 57q60 0 98.5 -38t38.5 -95q0 -63 -49 -121zM422 368q30 0 54 23t24 53q0 23 -15.5 38.5t-39.5 15.5q-32 0 -56.5 -23t-24.5 -53q0 -23 16.5 -38.5t41.5 -15.5z" />
    <glyph glyph-name="uni24EA" unicode="&#x24ea;" horiz-adv-x="808" 
d="M354 -13q-138 0 -227 88.5t-89 222.5q0 114 63 217t167 164.5t219 61.5q138 0 227 -89t89 -222q0 -113 -63 -216t-167.5 -165t-218.5 -62zM366 54q142 0 255 111t113 252q0 110 -73.5 183.5t-185.5 73.5q-142 0 -255.5 -110.5t-113.5 -252.5q0 -110 73.5 -183.5
t186.5 -73.5zM380 137q-73 0 -116 46.5t-43 126.5q0 114 68 197.5t171 83.5q72 0 114.5 -46t42.5 -124q0 -113 -67.5 -198.5t-169.5 -85.5zM395 232q59 0 91.5 53.5t32.5 122.5q0 45 -21.5 67t-55.5 22q-57 0 -90.5 -52.5t-33.5 -119.5q0 -48 21 -70.5t56 -22.5z" />
    <glyph glyph-name="uni24FF" unicode="&#x24ff;" horiz-adv-x="808" 
d="M354 -13q-138 0 -227 88.5t-89 222.5q0 114 63 217t167 164.5t219 61.5q138 0 227 -89t89 -222q0 -113 -63 -216t-167.5 -165t-218.5 -62zM380 137q103 0 170 86t67 198q0 78 -42.5 124t-114.5 46q-104 0 -171.5 -84.5t-67.5 -196.5q0 -80 43 -126.5t116 -46.5zM395 232
q-35 0 -56 22.5t-21 70.5q0 68 33.5 120t90.5 52q34 0 55.5 -22t21.5 -67q0 -70 -33 -123t-91 -53z" />
    <glyph glyph-name="lozenge" unicode="&#x25ca;" horiz-adv-x="608" 
d="M329 0h-146l-129 365l257 365h146l129 -365zM199 365l81 -228l161 228l-81 228z" />
    <glyph glyph-name="uni2776" unicode="&#x2776;" horiz-adv-x="808" 
d="M354 -13q-138 0 -227 88.5t-89 222.5q0 114 63 217t167 164.5t219 61.5q138 0 227 -89t89 -222q0 -113 -63 -216t-167.5 -165t-218.5 -62zM403 495l-62 -352h93l78 443h-138l-16 -91h45z" />
    <glyph glyph-name="uni2777" unicode="&#x2777;" horiz-adv-x="808" 
d="M354 -13q-152 0 -242 105t-70 256q13 105 78 196t163 144t204 53q156 0 247 -110.5t63 -265.5q-28 -157 -157.5 -267.5t-285.5 -110.5zM239 202l-11 -62h305l16 90h-151l93 76q73 58 85 131q13 66 -22.5 109t-99.5 43q-51 0 -96.5 -31t-66.5 -79l74 -26q10 17 29.5 30
t40.5 13q24 0 37.5 -15t11.5 -38q-3 -40 -51 -78z" />
    <glyph glyph-name="uni2778" unicode="&#x2778;" horiz-adv-x="808" 
d="M354 -13q-157 0 -247 110.5t-63 267.5q27 155 156.5 265.5t286.5 110.5q156 0 247 -110.5t63 -265.5q-28 -157 -157.5 -267.5t-285.5 -110.5zM382 136q62 0 116 41t63 104q6 67 -44 101q56 35 63 92q10 54 -25 86.5t-96 32.5q-44 0 -86 -23t-64 -59l77 -33q20 25 53 25
q18 0 31 -8.5t13 -23.5q0 -20 -19.5 -34t-40.5 -14h-26l-16 -88h25q27 0 44 -13t17 -33q0 -26 -21 -43t-52 -17q-21 0 -40 10t-24 25l-90 -32q11 -44 49 -70t93 -26z" />
    <glyph glyph-name="uni2779" unicode="&#x2779;" horiz-adv-x="808" 
d="M354 -13q-157 0 -247 110.5t-63 267.5q27 155 156.5 265.5t286.5 110.5q156 0 247 -110.5t63 -265.5q-28 -157 -157.5 -267.5t-285.5 -110.5zM408 238l-17 -96h93l17 96h30l16 93h-30l45 255h-119l-221 -255l-16 -93h202zM424 331h-97l121 136z" />
    <glyph glyph-name="uni277A" unicode="&#x277a;" horiz-adv-x="808" 
d="M354 -13q-157 0 -247 110.5t-63 267.5q27 155 156.5 265.5t286.5 110.5q156 0 247 -110.5t63 -265.5q-28 -157 -157.5 -267.5t-285.5 -110.5zM375 138q67 0 121.5 48.5t63.5 114.5q9 61 -23.5 102t-93.5 41q-35 0 -58 -14l17 71h185l16 90h-271l-63 -260h80q31 27 64 27
q25 0 39.5 -15t14.5 -37q0 -30 -22.5 -51.5t-52.5 -21.5q-19 0 -34.5 10.5t-20.5 26.5l-90 -31q9 -45 43.5 -73t84.5 -28z" />
    <glyph glyph-name="uni277B" unicode="&#x277b;" horiz-adv-x="808" 
d="M354 -13q-157 0 -247 110.5t-63 267.5q27 155 156.5 265.5t286.5 110.5q156 0 247 -110.5t63 -265.5q-28 -157 -157.5 -267.5t-285.5 -110.5zM374 136q74 0 133 56.5t59 130.5q0 51 -32 86t-81 43l125 142h-114l-178 -205q-48 -55 -48 -121q0 -57 38 -94.5t98 -37.5z
M390 231q-25 0 -41 17.5t-13 42.5q2 28 25 49t52 21q25 0 41.5 -16t16.5 -39q0 -30 -25 -52.5t-56 -22.5z" />
    <glyph glyph-name="uni277C" unicode="&#x277c;" horiz-adv-x="808" 
d="M354 -13q-157 0 -247 110.5t-63 267.5q27 155 156.5 265.5t286.5 110.5q156 0 247 -110.5t63 -265.5q-28 -157 -157.5 -267.5t-285.5 -110.5zM491 501l-214 -359h102l224 381l11 63h-310l-15 -85h202z" />
    <glyph glyph-name="uni277D" unicode="&#x277d;" horiz-adv-x="808" 
d="M354 -13q-157 0 -247 110.5t-63 267.5q27 155 156.5 265.5t286.5 110.5q156 0 247 -110.5t63 -265.5q-28 -157 -157.5 -267.5t-285.5 -110.5zM374 133q75 0 131.5 49.5t56.5 120.5q0 50 -39 79q53 43 53 105q0 47 -34 77.5t-87 30.5q-66 0 -116 -44.5t-50 -107.5
q0 -35 24 -61q-77 -46 -77 -129q0 -53 39 -86.5t99 -33.5zM423 414q-19 0 -30.5 10.5t-11.5 27.5q0 22 17 37t41 15q18 0 30.5 -10.5t12.5 -26.5q0 -21 -18 -37t-41 -16zM389 219q-26 0 -41.5 13.5t-15.5 34.5q0 29 23 49.5t54 20.5q26 0 42 -13.5t16 -35.5
q0 -28 -23.5 -48.5t-54.5 -20.5z" />
    <glyph glyph-name="uni277E" unicode="&#x277e;" horiz-adv-x="808" 
d="M354 -13q-157 0 -247 110.5t-63 267.5q27 155 156.5 265.5t286.5 110.5q156 0 247 -110.5t63 -265.5q-28 -157 -157.5 -267.5t-285.5 -110.5zM382 277l-126 -141h114l179 204q49 58 49 121q0 57 -38.5 95t-98.5 38q-74 0 -133 -57t-59 -131q0 -51 32 -86t81 -43zM422 368
q-25 0 -41.5 15.5t-16.5 38.5q0 30 24.5 53t56.5 23q24 0 39.5 -15.5t15.5 -38.5q0 -30 -24 -53t-54 -23z" />
    <glyph glyph-name="a.ss01" horiz-adv-x="663" 
d="M653 550l-65 -377q-3 -13 3.5 -21.5t19.5 -8.5h11l-25 -143h-65q-57 0 -83 22t-27 66q-33 -43 -82 -69.5t-102 -26.5q-92 0 -152 70.5t-60 174.5q0 130 88 226.5t214 96.5q50 0 91 -24t63 -64l24 78h147zM297 152q58 0 103 44t45 102q0 45 -29 74t-75 29
q-58 0 -103 -44.5t-45 -102.5q0 -44 29 -73t75 -29z" />
    <glyph glyph-name="d.ss01" horiz-adv-x="663" 
d="M695 780l-107 -607q-3 -13 3.5 -21.5t19.5 -8.5h11l-24 -143h-65q-57 0 -83 21t-27 65q-75 -94 -185 -94q-92 0 -152 70.5t-60 174.5q0 131 87 227t215 96q48 0 88.5 -22.5t62.5 -60.5l54 303h162zM297 152q60 0 104 43.5t44 102.5q0 45 -29 74t-75 29q-60 0 -104 -44
t-44 -103q0 -44 29 -73t75 -29z" />
    <glyph glyph-name="l.ss01" horiz-adv-x="272" 
d="M207 0h-68q-71 0 -97 32t-15 99l115 649h162l-107 -607q-3 -13 3.5 -21.5t19.5 -8.5h11z" />
    <glyph glyph-name="m.ss01" horiz-adv-x="906" 
d="M701 560q99 0 142.5 -66.5t19.5 -207.5l-50 -286h-162l50 286q11 59 -7 87t-52 28q-33 0 -61.5 -28t-38.5 -87l-50 -286h-162l50 286q10 59 -7.5 87t-50.5 28q-34 0 -62.5 -30t-38.5 -90l-49 -281h-162l66 378q2 13 -4.5 21t-19.5 8h-11l25 143h65q106 0 110 -82
q29 42 73 67t89 25q51 0 87 -21.5t52 -59.5q66 81 159 81z" />
    <glyph glyph-name="n.ss01" horiz-adv-x="617" 
d="M409 560q100 0 144.5 -68.5t19.5 -210.5l-49 -281h-162l49 281q10 59 -12 89.5t-62 30.5t-73 -30t-43 -90l-49 -281h-162l66 378q2 13 -4.5 21t-19.5 8h-11l25 143h65q106 0 110 -84q32 42 76 68t92 26z" />
    <glyph glyph-name="p.ss01" horiz-adv-x="664" 
d="M426 558q93 0 152 -68.5t59 -176.5q0 -135 -82 -229t-205 -94q-56 0 -99.5 22.5t-66.5 60.5l-51 -293h-163l105 598q3 13 -3.5 21t-19.5 8h-11l25 143h65q58 0 84 -22t26 -67q34 43 82.5 70t102.5 27zM322 150q60 0 104 44t44 103q0 44 -29 73t-75 29q-58 0 -103 -44
t-45 -102q0 -45 29 -74t75 -29z" />
    <glyph glyph-name="r.ss01" horiz-adv-x="447" 
d="M423 554q31 0 54 -4l-61 -155q-5 1 -16 1q-30 0 -57 -7.5t-55 -25.5t-48.5 -54.5t-29.5 -88.5l-38 -220h-162l65 378q2 12 -4 20t-19 8h-11l25 143h65q99 0 109 -71q65 76 183 76z" />
    <glyph glyph-name="u.ss01" horiz-adv-x="617" 
d="M607 550l-66 -378q-2 -13 4.5 -21t19.5 -8h11l-25 -143h-65q-106 0 -110 83q-32 -41 -76.5 -67t-92.5 -26q-99 0 -143.5 69t-19.5 210l49 281h162l-49 -281q-11 -59 11.5 -89t62.5 -30t72.5 30t43.5 89l49 281h162z" />
    <glyph glyph-name="A.ss02" horiz-adv-x="741" 
d="M151 0h-199l498 750h9l234 -750h-191l-26 105h-262zM400 416l-90 -151h127z" />
    <glyph glyph-name="N.ss02" horiz-adv-x="734" 
d="M618 -28h-9l-353 416l-68 -388h-173l133 758h9l353 -414l68 386h174z" />
    <glyph glyph-name="V.ss02" horiz-adv-x="731" 
d="M317 -28h-9l-230 758h194l105 -391l243 391h194z" />
    <glyph glyph-name="W.ss02" horiz-adv-x="1040" 
d="M256 -28h-9l-168 758h188l82 -388l252 416h9l104 -416l219 388h188l-435 -758h-9l-130 460z" />
    <glyph glyph-name="Z.ss02" horiz-adv-x="652" 
d="M567 0h-586v9l405 548h-280l30 173h558l-2 -9l-402 -548h307z" />
    <glyph glyph-name="R.ss02" horiz-adv-x="634" 
d="M631 481q-14 -79 -66 -137t-129 -84l140 -260h-202l-135 294l-51 -294h-173l128 730h244q130 0 196 -64.5t48 -184.5zM451 468q8 40 -16 66.5t-68 26.5h-81l-33 -186h81q44 0 77 26t40 67z" />
    <glyph glyph-name="v.ss02" horiz-adv-x="585" 
d="M244 -28h-9l-182 578h183l59 -260l150 260h183z" />
    <glyph glyph-name="w.ss02" horiz-adv-x="888" 
d="M242 -20h-8l-180 570h183l66 -245l190 273h9l94 -273l151 245h183l-379 -570h-9l-92 325z" />
    <glyph glyph-name="z.ss02" horiz-adv-x="579" 
d="M490 0h-497l1 9l316 394h-228l25 147h479l-1 -9l-297 -386h229z" />
    <glyph glyph-name="k.ss02" horiz-adv-x="557" 
d="M167 0h-162l137 780h162l-84 -476l191 246h174l-221 -268l148 -282h-185l-119 236z" />
    <glyph glyph-name="K.ss02" horiz-adv-x="641" 
d="M188 0h-173l128 730h173l-56 -313l259 313h178l-302 -365l191 -365h-199l-146 309z" />
    <glyph glyph-name="Iacute_J.loclNLD" horiz-adv-x="810" 
d="M296 804h-98l82 172h144zM808 804h-98l82 172h144zM188 0h-173l128 730h173zM443 -10q-65 0 -116 29t-77 81l147 102q26 -42 75 -42q45 0 76 32.5t40 85.5l79 452h173l-79 -452q-24 -134 -111.5 -211t-206.5 -77z" />
    <glyph glyph-name="G.ss01" horiz-adv-x="792" 
d="M382 -13q-139 0 -235.5 93.5t-96.5 226.5q0 181 125.5 307.5t307.5 126.5q93 0 172.5 -41t118.5 -110l-167 -104q-46 74 -139 74q-97 0 -165.5 -68.5t-68.5 -161.5q0 -70 46 -116t118 -46q108 0 169 69l11 58h-158l24 136h333l-43 -244q-59 -93 -150 -146.5t-202 -53.5z
" />
    <glyph glyph-name="Gbreve.ss01" horiz-adv-x="792" 
d="M493 817q-68 0 -104.5 39t-33.5 107h86q-5 -25 12 -43t47 -18q29 0 51.5 17t28.5 44h85q-12 -63 -60.5 -104.5t-111.5 -41.5zM382 -13q-139 0 -235.5 93.5t-96.5 226.5q0 181 125.5 307.5t307.5 126.5q93 0 172.5 -41t118.5 -110l-167 -104q-46 74 -139 74
q-97 0 -165.5 -68.5t-68.5 -161.5q0 -70 46 -116t118 -46q108 0 169 69l11 58h-158l24 136h333l-43 -244q-59 -93 -150 -146.5t-202 -53.5z" />
    <glyph glyph-name="Gcaron.ss01" horiz-adv-x="792" 
d="M555 823h-128l-80 135h122l36 -57l55 57h122zM382 -13q-139 0 -235.5 93.5t-96.5 226.5q0 181 125.5 307.5t307.5 126.5q93 0 172.5 -41t118.5 -110l-167 -104q-46 74 -139 74q-97 0 -165.5 -68.5t-68.5 -161.5q0 -70 46 -116t118 -46q108 0 169 69l11 58h-158l24 136
h333l-43 -244q-59 -93 -150 -146.5t-202 -53.5z" />
    <glyph glyph-name="Gcircumflex.ss01" horiz-adv-x="792" 
d="M464 823h-122l128 135h128l79 -135h-122l-35 57zM382 -13q-139 0 -235.5 93.5t-96.5 226.5q0 181 125.5 307.5t307.5 126.5q93 0 172.5 -41t118.5 -110l-167 -104q-46 74 -139 74q-97 0 -165.5 -68.5t-68.5 -161.5q0 -70 46 -116t118 -46q108 0 169 69l11 58h-158l24 136
h333l-43 -244q-59 -93 -150 -146.5t-202 -53.5z" />
    <glyph glyph-name="uni0122.ss01" horiz-adv-x="792" 
d="M382 -13q-139 0 -235.5 93.5t-96.5 226.5q0 181 125.5 307.5t307.5 126.5q93 0 172.5 -41t118.5 -110l-167 -104q-46 74 -139 74q-97 0 -165.5 -68.5t-68.5 -161.5q0 -70 46 -116t118 -46q108 0 169 69l11 58h-158l24 136h333l-43 -244q-59 -93 -150 -146.5t-202 -53.5z
M358 -224h-121l47 172h144z" />
    <glyph glyph-name="Gdotaccent.ss01" horiz-adv-x="792" 
d="M488 802q-33 0 -54 21t-21 52q0 41 32.5 72t72.5 31q31 0 52 -20.5t21 -50.5q0 -42 -31.5 -73.5t-71.5 -31.5zM382 -13q-139 0 -235.5 93.5t-96.5 226.5q0 181 125.5 307.5t307.5 126.5q93 0 172.5 -41t118.5 -110l-167 -104q-46 74 -139 74q-97 0 -165.5 -68.5
t-68.5 -161.5q0 -70 46 -116t118 -46q108 0 169 69l11 58h-158l24 136h333l-43 -244q-59 -93 -150 -146.5t-202 -53.5z" />
    <glyph glyph-name="M.ss01" horiz-adv-x="928" 
d="M142 0h-175l254 730h175l76 -449l235 449h175l-2 -730h-176l-9 413l-205 -413h-134l-59 413z" />
    <glyph glyph-name="uni1E3E.ss01" horiz-adv-x="928" 
d="M608 804h-98l82 172h144zM142 0h-175l254 730h175l76 -449l235 449h175l-2 -730h-176l-9 413l-205 -413h-134l-59 413z" />
    <glyph glyph-name="W.ss01" horiz-adv-x="1013" 
d="M337 0h-170l-79 730h179l51 -470l203 346h88l81 -346l216 470h179l-335 -730h-171l-65 319z" />
    <glyph glyph-name="Wacute.ss01" horiz-adv-x="1013" 
d="M655 804h-98l82 172h144zM337 0h-170l-79 730h179l51 -470l203 346h88l81 -346l216 470h179l-335 -730h-171l-65 319z" />
    <glyph glyph-name="Wcircumflex.ss01" horiz-adv-x="1013" 
d="M557 823h-122l128 135h128l79 -135h-122l-35 57zM337 0h-170l-79 730h179l51 -470l203 346h88l81 -346l216 470h179l-335 -730h-171l-65 319z" />
    <glyph glyph-name="Wdieresis.ss01" horiz-adv-x="1013" 
d="M501 818q-27 0 -44 17t-17 43q0 34 26 59t60 25q26 0 43.5 -16.5t17.5 -41.5q0 -35 -26.5 -60.5t-59.5 -25.5zM704 818q-26 0 -43 17t-17 43q0 34 26 59t60 25q26 0 43 -16.5t17 -41.5q0 -35 -26 -60.5t-60 -25.5zM337 0h-170l-79 730h179l51 -470l203 346h88l81 -346
l216 470h179l-335 -730h-171l-65 319z" />
    <glyph glyph-name="Wgrave.ss01" horiz-adv-x="1013" 
d="M641 804h-98l-68 172h143zM337 0h-170l-79 730h179l51 -470l203 346h88l81 -346l216 470h179l-335 -730h-171l-65 319z" />
    <glyph glyph-name="Aacute.ss02" horiz-adv-x="741" 
d="M511 804h-98l82 172h144zM151 0h-199l498 750h9l234 -750h-191l-26 105h-262zM400 416l-90 -151h127z" />
    <glyph glyph-name="Abreve.ss02" horiz-adv-x="741" 
d="M475 817q-66 0 -108 44t-31 102h86q-5 -25 12 -43t47 -18q29 0 51.5 17t28.5 44h85q-12 -63 -60 -104.5t-111 -41.5zM151 0h-199l498 750h9l234 -750h-191l-26 105h-262zM400 416l-90 -151h127z" />
    <glyph glyph-name="uni1EAE.ss02" horiz-adv-x="741" 
d="M536 939h-98l82 172h144zM470 779q-66 0 -107.5 44t-30.5 102h86q-5 -25 12 -43t47 -18q28 0 51 17t29 44h86q-13 -63 -61.5 -104.5t-111.5 -41.5zM151 0h-199l498 750h9l234 -750h-191l-26 105h-262zM400 416l-90 -151h127z" />
    <glyph glyph-name="uni1EB6.ss02" horiz-adv-x="741" 
d="M475 817q-66 0 -107.5 44t-30.5 102h86q-6 -25 11.5 -43t47.5 -18q29 0 51.5 17t28.5 44h85q-12 -63 -60.5 -104.5t-111.5 -41.5zM151 0h-199l498 750h9l234 -750h-191l-26 105h-262zM400 416l-90 -151h127zM290 -188q-32 0 -53 20.5t-21 51.5q0 41 32.5 72.5t72.5 31.5
q32 0 52.5 -20.5t20.5 -52.5q0 -41 -32 -72t-72 -31z" />
    <glyph glyph-name="uni1EB0.ss02" horiz-adv-x="741" 
d="M547 939h-97l-69 172h144zM470 780q-66 0 -107.5 44t-30.5 102h86q-5 -25 12 -43t46 -18t52 17t29 44h85q-12 -63 -60.5 -104.5t-111.5 -41.5zM151 0h-199l498 750h9l234 -750h-191l-26 105h-262zM400 416l-90 -151h127z" />
    <glyph glyph-name="uni1EB4.ss02" horiz-adv-x="741" 
d="M558 953q-23 0 -41.5 9t-27.5 20.5t-18 20.5t-17 9q-20 0 -28 -45h-98q11 56 43.5 94.5t82.5 38.5q24 0 42.5 -9t27 -20t17.5 -20t17 -9q18 0 26 44h98q-11 -61 -42.5 -97t-81.5 -36zM467 789q-66 0 -107.5 44t-30.5 102h86q-4 -27 12.5 -44t46.5 -17q29 0 51.5 17
t28.5 44h85q-12 -63 -60.5 -104.5t-111.5 -41.5zM151 0h-199l498 750h9l234 -750h-191l-26 105h-262zM400 416l-90 -151h127z" />
    <glyph glyph-name="uni01CD.ss02" horiz-adv-x="741" 
d="M531 823h-128l-80 135h122l36 -57l55 57h122zM151 0h-199l498 750h9l234 -750h-191l-26 105h-262zM400 416l-90 -151h127z" />
    <glyph glyph-name="Acircumflex.ss02" horiz-adv-x="741" 
d="M422 823h-122l127 135h128l80 -135h-122l-35 57zM151 0h-199l498 750h9l234 -750h-191l-26 105h-262zM400 416l-90 -151h127z" />
    <glyph glyph-name="uni1EA4.ss02" horiz-adv-x="741" 
d="M680 907h-97l83 172h143zM413 772h-122l127 135h128l80 -135h-122l-35 57zM151 0h-199l498 750h9l234 -750h-191l-26 105h-262zM400 416l-90 -151h127z" />
    <glyph glyph-name="uni1EAC.ss02" horiz-adv-x="741" 
d="M422 823h-122l127 135h128l80 -135h-122l-35 57zM151 0h-199l498 750h9l234 -750h-191l-26 105h-262zM400 416l-90 -151h127zM290 -188q-32 0 -53 20.5t-21 51.5q0 41 32.5 72.5t72.5 31.5q32 0 52.5 -20.5t20.5 -52.5q0 -41 -32 -72t-72 -31z" />
    <glyph glyph-name="uni1EA6.ss02" horiz-adv-x="741" 
d="M383 905h-97l-69 172h144zM418 774h-122l127 135h128l80 -135h-122l-35 57zM151 0h-199l498 750h9l234 -750h-191l-26 105h-262zM400 416l-90 -151h127z" />
    <glyph glyph-name="uni1EAA.ss02" horiz-adv-x="741" 
d="M550 931q-24 -1 -43 8t-27.5 20t-18 20.5t-17.5 9.5q-18 0 -27 -44h-98q10 55 42 93.5t81 39.5q32 0 53 -15t32.5 -29.5t20.5 -14.5q19 2 26 44h99q-11 -60 -42 -96t-81 -36zM411 772h-122l127 135h128l80 -135h-122l-36 57zM151 0h-199l498 750h9l234 -750h-191l-26 105
h-262zM400 416l-90 -151h127z" />
    <glyph glyph-name="Adieresis.ss02" horiz-adv-x="741" 
d="M365 818q-27 0 -44 17t-17 43q0 34 26 59t60 25q26 0 43.5 -16.5t17.5 -41.5q0 -35 -26.5 -60.5t-59.5 -25.5zM568 818q-26 0 -43 17t-17 43q0 34 26 59t60 25q26 0 43 -16.5t17 -41.5q0 -35 -26 -60.5t-60 -25.5zM151 0h-199l498 750h9l234 -750h-191l-26 105h-262z
M400 416l-90 -151h127z" />
    <glyph glyph-name="uni01DE.ss02" horiz-adv-x="741" 
d="M683 972h-380l23 129h380zM357 780q-26 0 -43 16.5t-17 42.5q0 35 26 60t60 25q26 0 43 -17t17 -43q0 -34 -26 -59t-60 -25zM561 780q-26 0 -43.5 17t-17.5 42q0 35 26.5 60t60.5 25q26 0 42.5 -17t16.5 -43q0 -34 -26 -59t-59 -25zM151 0h-199l498 750h9l234 -750h-191
l-26 105h-262zM400 416l-90 -151h127z" />
    <glyph glyph-name="uni1EA0.ss02" horiz-adv-x="741" 
d="M151 0h-199l498 750h9l234 -750h-191l-26 105h-262zM400 416l-90 -151h127zM290 -188q-32 0 -53 20.5t-21 51.5q0 41 32.5 72.5t72.5 31.5q32 0 52.5 -20.5t20.5 -52.5q0 -41 -32 -72t-72 -31z" />
    <glyph glyph-name="Agrave.ss02" horiz-adv-x="741" 
d="M517 804h-97l-69 172h144zM151 0h-199l498 750h9l234 -750h-191l-26 105h-262zM400 416l-90 -151h127z" />
    <glyph glyph-name="Amacron.ss02" horiz-adv-x="741" 
d="M658 826h-380l23 128h380zM151 0h-199l498 750h9l234 -750h-191l-26 105h-262zM400 416l-90 -151h127z" />
    <glyph glyph-name="Aogonek.ss02" horiz-adv-x="743" 
d="M611 -220q-33 0 -54 21t-21 55q0 54 75 144h-109l-26 105h-262l-63 -105h-199l498 750h9l234 -750q-61 -74 -61 -100q0 -21 17 -21q13 0 26 13l28 -64q-35 -48 -92 -48zM400 416l-90 -151h127z" />
    <glyph glyph-name="Aring.ss02" horiz-adv-x="741" 
d="M459 774q-45 0 -75.5 26.5t-30.5 69.5q0 56 45 96.5t103 40.5q44 0 74 -26t30 -69q0 -59 -45 -98.5t-101 -39.5zM474 857q16 0 27 11.5t11 28.5q0 12 -7 19.5t-19 7.5q-16 0 -27.5 -11.5t-11.5 -27.5q0 -12 7.5 -20t19.5 -8zM151 0h-199l498 750h9l234 -750h-191l-26 105
h-262zM400 416l-90 -151h127z" />
    <glyph glyph-name="Aringacute.ss02" horiz-adv-x="741" 
d="M594 1019h-97l83 172h143zM458 768q-45 0 -75 26t-30 69q0 56 44 96.5t102 40.5q45 0 75 -26t30 -70q0 -59 -45 -97.5t-101 -38.5zM473 851q15 0 27 11.5t12 26.5q0 13 -8 20.5t-20 7.5q-15 0 -26.5 -12t-11.5 -28q0 -26 27 -26zM151 0h-199l498 750h9l234 -750h-191
l-26 105h-262zM400 416l-90 -151h127z" />
    <glyph glyph-name="Atilde.ss02" horiz-adv-x="741" 
d="M534 817q-24 -1 -42.5 8t-27.5 20.5t-18.5 21t-16.5 9.5q-21 0 -28 -45h-99q11 56 43.5 94.5t81.5 38.5q31 1 52 -14t32.5 -29.5t20.5 -14.5q18 0 26 44h98q-10 -60 -41 -96t-81 -37zM151 0h-199l498 750h9l234 -750h-191l-26 105h-262zM400 416l-90 -151h127z" />
    <glyph glyph-name="uni0136.ss02" horiz-adv-x="641" 
d="M188 0h-173l128 730h173l-56 -313l259 313h178l-302 -365l191 -365h-199l-146 309zM204 -224h-121l71 172h144z" />
    <glyph glyph-name="M.ss02" horiz-adv-x="879" 
d="M398 -28h-9l-107 372l-136 -344h-179l313 758h8l158 -490l331 490h8l46 -758h-179l-15 344z" />
    <glyph glyph-name="uni1E3E.ss02" horiz-adv-x="879" 
d="M555 804h-97l82 172h143zM398 -28h-9l-107 372l-136 -344h-179l313 758h8l158 -490l331 490h8l46 -758h-179l-15 344z" />
    <glyph glyph-name="Nacute.ss02" horiz-adv-x="734" 
d="M488 804h-97l82 172h144zM618 -28h-9l-353 416l-68 -388h-173l133 758h9l353 -414l68 386h174z" />
    <glyph glyph-name="Ncaron.ss02" horiz-adv-x="734" 
d="M538 823h-128l-80 135h122l35 -57l56 57h122zM618 -28h-9l-353 416l-68 -388h-173l133 758h9l353 -414l68 386h174z" />
    <glyph glyph-name="uni1E4A.ss02" horiz-adv-x="734" 
d="M618 -28h-9l-353 416l-68 -388h-173l133 758h9l353 -414l68 386h174zM286 -183h-122l127 135h128l80 -135h-122l-35 57z" />
    <glyph glyph-name="uni0145.ss02" horiz-adv-x="734" 
d="M618 -28h-9l-353 416l-68 -388h-173l133 758h9l353 -414l68 386h174zM312 -217h-122l49 173h143z" />
    <glyph glyph-name="uni1E46.ss02" horiz-adv-x="734" 
d="M618 -28h-9l-353 416l-68 -388h-173l133 758h9l353 -414l68 386h174zM304 -222q-33 0 -53.5 20.5t-20.5 52.5q0 41 32.5 72t72.5 31q32 0 52.5 -20.5t20.5 -51.5q0 -41 -32 -72.5t-72 -31.5z" />
    <glyph glyph-name="Ntilde.ss02" horiz-adv-x="734" 
d="M518 817q-23 0 -41.5 9t-27.5 20.5t-18 20.5t-17 9q-20 0 -28 -45h-98q11 56 43.5 94.5t82.5 38.5q24 0 42.5 -9t27 -20t17.5 -20t16 -9q19 0 27 44h98q-11 -61 -42.5 -97t-81.5 -36zM618 -28h-9l-353 416l-68 -388h-173l133 758h9l353 -414l68 386h174z" />
    </font>
</defs>
</svg>
