<?xml version="1.0" standalone="no"?>
<!DOCTYPE svg PUBLIC "-//W3C//DTD SVG 1.1//EN" "http://www.w3.org/Graphics/SVG/1.1/DTD/svg11.dtd" >
<svg xmlns="http://www.w3.org/2000/svg" xmlns:xlink="http://www.w3.org/1999/xlink" version="1.1">
<metadata>
Created by FontForge 20201107 at Tue Jul 14 08:22:21 2020
 By 
Copyright (c) 2020 by Namela. All rights reserved.
</metadata>
<defs>
<font id="Madani-Black" horiz-adv-x="609" >
  <font-face 
    font-family="Madani-Black"
    font-weight="400"
    font-stretch="normal"
    units-per-em="1000"
    panose-1="0 0 10 0 0 0 0 0 0 0"
    ascent="770"
    descent="-230"
    x-height="550"
    cap-height="730"
    bbox="-545 -251 1196 1208"
    underline-thickness="50"
    underline-position="-75"
    unicode-range="U+0020-FB02"
  />
<missing-glyph horiz-adv-x="250" 
 />
    <glyph glyph-name="fi" unicode="fi" horiz-adv-x="665" 
d="M285 370v-370l-205 1v369h-70v180h70v4q0 123 71.5 184.5t176.5 61.5q44 0 91 -14l-54 -186q-12 4 -33 4q-19 0 -33 -14.5t-14 -35.5v-4h339v-550h-205v370h-134zM522 576q-45 0 -77 32t-32 77q0 46 32 78t77 32t77 -32t32 -78q0 -45 -32 -77t-77 -32z" />
    <glyph glyph-name="fl" unicode="fl" horiz-adv-x="664" 
d="M285 370v-370l-205 1v369h-70v180h70v4q0 63 26.5 112t69 77.5t90 42.5t96.5 14q54 0 111.5 -18.5t147.5 -64.5l3 -717h-205v587q-33 17 -66 17t-50.5 -14t-17.5 -36v-4h100v-180h-100z" />
    <glyph glyph-name="f_f" unicode="ff" horiz-adv-x="785" 
d="M285 370v-370l-205 1v369h-70v180h70v4q0 123 71.5 184.5t176.5 61.5q66 0 118 -20l-51 -181q-28 5 -44 5q-33 0 -49.5 -14t-16.5 -36v-4h134v4q0 123 71.5 184.5t176.5 61.5q66 0 118 -20l-51 -181q-28 5 -44 5q-33 0 -49.5 -14t-16.5 -36v-4h110v-180h-110v-370l-205 1
v369h-134z" />
    <glyph glyph-name="f_f_i" unicode="ffi" horiz-adv-x="1004" 
d="M285 370v-370l-205 1v369h-70v180h70v4q0 123 71.5 184.5t176.5 61.5q66 0 118 -20l-51 -181q-28 5 -44 5q-33 0 -49.5 -14t-16.5 -36v-4h134v4q0 123 71.5 184.5t176.5 61.5q44 0 91 -14l-54 -186q-12 4 -33 4q-19 0 -33 -14.5t-14 -35.5v-4h339v-550h-205v370h-134
v-370l-205 1v369h-134zM861 576q-45 0 -77 32t-32 77q0 46 32 78t77 32t77 -32t32 -78q0 -45 -32 -77t-77 -32z" />
    <glyph glyph-name="f_f_j" unicode="ffj" horiz-adv-x="1004" 
d="M715 -236q-66 0 -118 20l51 187q18 -5 33 -5q38 0 57.5 24.5t19.5 84.5v295h-134v-370l-205 1v369h-134v-370l-205 1v369h-70v180h70v4q0 123 71.5 184.5t176.5 61.5q66 0 118 -20l-51 -181q-28 5 -44 5q-33 0 -49.5 -14t-16.5 -36v-4h134v4q0 123 71.5 184.5t176.5 61.5
q44 0 91 -14l-54 -186q-12 4 -33 4q-19 0 -33 -14.5t-14 -35.5v-4h339v-475q0 -88 -20 -151t-56.5 -97t-78.5 -48.5t-93 -14.5zM861 576q-45 0 -77 32t-32 77q0 46 32 78t77 32t77 -32t32 -78q0 -45 -32 -77t-77 -32z" />
    <glyph glyph-name="f_f_l" unicode="ffl" horiz-adv-x="1003" 
d="M285 370v-370l-205 1v369h-70v180h70v4q0 123 71.5 184.5t176.5 61.5q66 0 118 -20l-51 -181q-28 5 -44 5q-33 0 -49.5 -14t-16.5 -36v-4h134v4q0 63 26.5 112t69 77.5t90 42.5t96.5 14q110 0 259 -83l3 -717h-205v592q-28 12 -62 12q-33 0 -52.5 -14.5t-19.5 -35.5v-4
h100v-180h-100v-370l-205 1v369h-134z" />
    <glyph glyph-name="f_j" unicode="fj" horiz-adv-x="665" 
d="M377 -236q-66 0 -118 20l51 187q18 -5 33 -5q38 0 57.5 24.5t19.5 84.5l-1 295h-134v-370l-205 1v369h-70v180h70v4q0 123 71.5 184.5t176.5 61.5q44 0 91 -14l-54 -186q-12 4 -33 4q-19 0 -33 -14.5t-14 -35.5v-4h339l1 -475q0 -88 -20 -151t-56.5 -97t-78.5 -48.5
t-93 -14.5zM522 576q-45 0 -77 32t-32 77q0 46 32 78t77 32t77 -32t32 -78q0 -45 -32 -77t-77 -32z" />
    <glyph glyph-name="t_t" unicode="tt" horiz-adv-x="837" 
d="M328 -12q-248 0 -248 281v101h-70v180h79l31 180h165v-180h175l31 180h165v-180h116v-180h-116v-101q0 -45 19 -65t58 -20q15 0 33 5l51 -181q-52 -20 -118 -20q-248 0 -248 281v101h-166v-101q0 -45 19 -65t58 -20q15 0 33 5l51 -181q-52 -20 -118 -20z" />
    <glyph glyph-name=".notdef" horiz-adv-x="250" 
 />
    <glyph glyph-name=".null" horiz-adv-x="0" 
 />
    <glyph glyph-name="uni000D" horiz-adv-x="333" 
 />
    <glyph glyph-name="space" unicode=" " horiz-adv-x="260" 
 />
    <glyph glyph-name="exclam" unicode="!" horiz-adv-x="291" 
d="M248 730l-20 -517h-165l-20 517h205zM40 77q0 44 31 75t75 31t74.5 -31t30.5 -75t-30 -75q-31 -31 -75 -31t-75 31t-31 75z" />
    <glyph glyph-name="quotedbl" unicode="&#x22;" horiz-adv-x="460" 
d="M250 730h180l-25 -270h-130zM210 730l-25 -270h-130l-25 270h180z" />
    <glyph glyph-name="numbersign" unicode="#" horiz-adv-x="746" 
d="M30 160l34 160h90l18 89h-90l34 160h87l18 90h164l-18 -90h91l18 90h164l-18 -90h94l-34 -160h-92l-17 -89h91l-34 -160h-89l-18 -89h-163l18 89h-92l-18 -89h-163l18 89h-93zM318 320h91l18 89h-92z" />
    <glyph glyph-name="dollar" unicode="$" horiz-adv-x="553" 
d="M136 233q43 -42 88 -58v120q-42 15 -72.5 31t-62.5 43t-49 67.5t-17 92.5q0 84 58 142t143 70v68h100v-70q110 -18 191 -112l-137 -102q-26 26 -54 40v-106q35 -11 61 -21.5t56.5 -30t50 -43t33 -60.5t13.5 -82q0 -95 -58.5 -157.5t-155.5 -73.5v-69h-100v73
q-129 25 -209 120zM324 167q49 7 49 43q0 28 -49 49v-92zM224 492v85q-44 -9 -44 -38q0 -27 44 -47z" />
    <glyph glyph-name="percent" unicode="%" horiz-adv-x="815" 
d="M504 329q48 53 122 53t121.5 -53.5t47.5 -140.5q0 -89 -47 -143q-48 -55 -122 -55t-122 55t-48 143q0 87 48 141zM68 737q48 53 122 53t121.5 -53.5t47.5 -140.5q0 -89 -47 -143q-48 -55 -122 -55t-122 55t-48 143q0 87 48 141zM138 0l404 781h135l-404 -781h-135z
M137 596q0 -41 15 -61t37 -20q53 0 53 81q0 77 -53 77q-22 0 -37 -19t-15 -58zM573 188q0 -41 15 -61t37 -20q53 0 53 81q0 77 -53 77q-22 0 -37 -19t-15 -58z" />
    <glyph glyph-name="ampersand" unicode="&#x26;" horiz-adv-x="716" 
d="M140 416q-40 62 -40 124q0 92 65.5 148.5t167.5 56.5q101 0 164 -56.5t63 -151.5q0 -116 -135 -190l69 -88q19 27 19 57q0 5 -1 11l175 38q2 -22 2 -43q0 -121 -78 -209l90 -113h-233l-11 14q-69 -23 -145 -23q-137 0 -214.5 61t-77.5 165q0 126 120 199zM311 168
q6 0 22 2l-76 95q-33 -23 -33 -48q0 -49 87 -49zM289 540q0 -20 22 -50q63 27 63 50q0 14 -11 25.5t-31 11.5t-31.5 -11t-11.5 -26z" />
    <glyph glyph-name="quotesingle" unicode="'" horiz-adv-x="240" 
d="M185 460h-130l-25 270h180z" />
    <glyph glyph-name="parenleft" unicode="(" horiz-adv-x="372" 
d="M77 601q36 105 105 179h180q-80 -90 -111 -194t-31 -251q0 -146 31 -250t111 -195h-180q-69 75 -105.5 180.5t-36.5 264.5q0 160 37 266z" />
    <glyph glyph-name="parenright" unicode=")" horiz-adv-x="372" 
d="M10 -110q80 90 111 194t31 251q0 146 -31 250t-111 195h180q69 -75 105.5 -180.5t36.5 -264.5q0 -160 -36.5 -265.5t-105.5 -179.5h-180z" />
    <glyph glyph-name="asterisk" unicode="*" horiz-adv-x="422" 
d="M211 456l-59 -89l-97 70l68 83l-103 28l37 114l100 -39l-6 107h120l-6 -107l101 37l36 -113l-104 -27l67 -84l-96 -70z" />
    <glyph glyph-name="plus" unicode="+" horiz-adv-x="520" 
d="M30 285v160h150v150h160v-150h150v-160h-150v-150h-160v150h-150z" />
    <glyph glyph-name="comma" unicode="," horiz-adv-x="250" 
d="M150 -140h-130l30 320h180z" />
    <glyph glyph-name="hyphen" unicode="-" horiz-adv-x="440" 
d="M410 285h-380v160h380v-160z" />
    <glyph glyph-name="period" unicode="." horiz-adv-x="251" 
d="M20 88q0 44 31 75t75 31t74.5 -31t30.5 -75t-30 -75q-31 -31 -75 -31t-75 31t-31 75z" />
    <glyph glyph-name="slash" unicode="/" horiz-adv-x="568" 
d="M204 -110h-194l354 891h194z" />
    <glyph glyph-name="zero" unicode="0" horiz-adv-x="643" 
d="M111 641q81 100 211 100q129 0 210 -101t81 -275q0 -176 -81 -277t-210 -101q-130 0 -211 101t-81 277q0 175 81 276zM239 365q0 -172 83 -172q82 0 82 172q0 170 -82 170q-83 0 -83 -170z" />
    <glyph glyph-name="one" unicode="1" horiz-adv-x="405" 
d="M325 0h-205v540h-100v190h305v-730z" />
    <glyph glyph-name="two" unicode="2" horiz-adv-x="590" 
d="M15 120l248 247q25 25 37 39t23 34t11 39q0 26 -17.5 43t-43.5 17q-39 0 -64 -44l-189 64q22 80 92.5 132.5t160.5 52.5q114 0 190 -73t76 -194q0 -44 -22.5 -90t-48 -76t-67.5 -72l-55 -49h209v-190h-540v120z" />
    <glyph glyph-name="three" unicode="3" horiz-adv-x="585" 
d="M191 236q11 -19 35.5 -32t51.5 -13q32 0 49.5 14t17.5 36q0 53 -85 53h-44v190h48q55 0 55 34q0 14 -12.5 21.5t-30.5 7.5q-31 0 -47 -19l-190 72q25 64 93 105t147 41q105 0 175.5 -53t70.5 -159q0 -81 -70 -139q95 -63 95 -171t-74.5 -173t-191.5 -65q-95 0 -169 44.5
t-105 121.5z" />
    <glyph glyph-name="four" unicode="4" horiz-adv-x="589" 
d="M15 311l250 419h254v-397h60v-200h-60v-133h-205v133h-299v178zM242 333h72v127z" />
    <glyph glyph-name="five" unicode="5" horiz-adv-x="579" 
d="M217 227q7 -14 25 -23t39 -9q28 0 47 17t19 44t-18.5 44.5t-44.5 17.5q-29 0 -47 -18h-205l30 430h460v-190h-267l-3 -50q32 14 67 14q104 0 169.5 -70t65.5 -183q0 -114 -80.5 -187.5t-196.5 -73.5q-89 0 -159 44.5t-98 120.5z" />
    <glyph glyph-name="six" unicode="6" horiz-adv-x="581" 
d="M62 394l211 337h248l-152 -231q85 -23 138.5 -90.5t53.5 -158.5q0 -114 -78 -187q-79 -74 -193 -74t-192 73.5t-78 187.5q0 81 42 143zM246 211q18 -16 44 -16q27 0 45.5 16t18.5 40q0 23 -18.5 39t-45.5 16q-26 0 -44 -16t-18 -39q0 -24 18 -40z" />
    <glyph glyph-name="seven" unicode="7" horiz-adv-x="551" 
d="M267 0h-229l246 540h-294v190h541v-120z" />
    <glyph glyph-name="eight" unicode="8" horiz-adv-x="615" 
d="M114 383q-55 55 -55 137q0 96 72.5 160.5t176.5 64.5q103 0 175.5 -64.5t72.5 -160.5q0 -82 -56 -138q85 -63 85 -168q0 -107 -78.5 -173.5t-201.5 -66.5q-120 0 -197.5 66.5t-77.5 173.5q0 106 84 169zM239 230q0 -24 20.5 -41t47.5 -17q28 0 48 17t20 41q0 23 -20 39.5
t-48 16.5q-27 0 -47.5 -16.5t-20.5 -39.5zM262 518q0 -18 13 -30t32 -12q20 0 33 12t13 30q0 17 -13.5 28.5t-32.5 11.5t-32 -11.5t-13 -28.5z" />
    <glyph glyph-name="nine" unicode="9" horiz-adv-x="581" 
d="M99 668q78 73 192 73t192 -73.5t78 -187.5q0 -81 -42 -143l-211 -337h-248l152 231q-85 23 -138.5 90.5t-53.5 158.5q0 114 79 188zM246 441q18 -16 45 -16q26 0 44 16t18 39q0 24 -18 40t-44 16q-27 0 -45.5 -16t-18.5 -40q0 -23 19 -39z" />
    <glyph glyph-name="colon" unicode=":" horiz-adv-x="291" 
d="M71 181q31 31 75 31t74.5 -31t30.5 -75t-30 -75q-31 -31 -75 -31t-75 31t-31 75t31 75zM71 519q31 31 75 31t74.5 -31t30.5 -75t-30 -75q-31 -31 -75 -31t-75 31t-31 75t31 75z" />
    <glyph glyph-name="semicolon" unicode=";" horiz-adv-x="279" 
d="M30 -140l30 320h180l-80 -320h-130zM69 522q31 31 75 31t74.5 -31t30.5 -75t-30 -75q-31 -31 -75 -31t-75 31t-31 75t31 75z" />
    <glyph glyph-name="less" unicode="&#x3c;" horiz-adv-x="556" 
d="M516 660v-174l-284 -121l284 -122v-174l-486 209v173z" />
    <glyph glyph-name="equal" unicode="=" horiz-adv-x="561" 
d="M510 550l1 -160h-461v160h460zM510 330l1 -160h-461v160h460z" />
    <glyph glyph-name="greater" unicode="&#x3e;" horiz-adv-x="546" 
d="M516 451v-173l-486 -209v174l284 122l-284 121v174z" />
    <glyph glyph-name="question" unicode="?" horiz-adv-x="555" 
d="M118 696q68 48 154 48q111 0 182 -62.5t71 -162.5q0 -65 -24 -110t-82 -93q-60 -50 -60 -90v-19h-205v43q0 58 25 95.5t77 80.5q39 33 51.5 47.5t12.5 28.5q0 16 -13.5 25t-31.5 9q-41 0 -62 -35l-183 72q20 74 88 123zM183 152q31 31 75 31t74.5 -31t30.5 -75t-30 -75
q-31 -31 -75 -31t-75 31t-31 75t31 75z" />
    <glyph glyph-name="at" unicode="@" horiz-adv-x="793" 
d="M130 631q110 110 267 110q156 0 266 -110.5t110 -265.5q0 -62 -17 -114.5t-60.5 -90t-107.5 -37.5q-42 0 -79.5 23t-57.5 62q-32 -30 -83 -30q-71 0 -122.5 54.5t-51.5 131.5t51.5 131.5t122.5 54.5q48 0 79 -26l7 22h95v-250q0 -38 19.5 -59.5t46.5 -21.5q23 0 40 16
t24.5 41t11 48t3.5 45q0 121 -88 209t-209 88q-122 0 -210 -87.5t-88 -209.5q0 -123 88 -211t210 -88q41 0 86 13l21 -76q-49 -16 -107 -16q-157 0 -267 110.5t-110 267.5q0 155 110 266zM327 320q18 -19 43 -19q26 0 44 18.5t18 44.5q0 25 -18 43.5t-44 18.5
q-25 0 -43.5 -18.5t-18.5 -43.5q0 -26 19 -44z" />
    <glyph glyph-name="A" unicode="A" horiz-adv-x="669" 
d="M217 730h235l227 -730h-242l-21 86h-164l-20 -86h-242zM371 276l-37 153l-36 -153h73z" />
    <glyph glyph-name="B" unicode="B" horiz-adv-x="640" 
d="M50 730h283q107 0 179.5 -52t72.5 -145q0 -76 -55 -137q90 -61 90 -169q0 -101 -73.5 -164t-188.5 -63h-308v730zM270 280v-70h80q43 0 43 35t-43 35h-80zM270 467l73 1q28 6 28 31q0 15 -12.5 24t-30.5 9h-58v-65z" />
    <glyph glyph-name="C" unicode="C" horiz-adv-x="747" 
d="M142 635q112 112 271 112q89 0 167.5 -39t132.5 -106l-183 -135q-47 54 -117 54q-64 0 -110.5 -46t-46.5 -110q0 -65 46 -111.5t111 -46.5q68 0 113 50l196 -118q-54 -73 -134.5 -115.5t-174.5 -42.5q-159 0 -271 112.5t-112 271.5q0 158 112 270z" />
    <glyph glyph-name="D" unicode="D" horiz-adv-x="720" 
d="M304 730q169 0 277.5 -104t108.5 -261q0 -158 -108 -261.5t-278 -103.5h-254v730h254zM270 514v-299h34q71 0 113.5 42.5t42.5 107.5t-42.5 107.5t-113.5 42.5z" />
    <glyph glyph-name="E" unicode="E" horiz-adv-x="566" 
d="M50 730h476v-200h-257v-60h237v-196h-237v-64h267v-210h-486v730z" />
    <glyph glyph-name="F" unicode="F" horiz-adv-x="571" 
d="M50 730h496v-210h-277v-62h257v-210h-257v-248h-219v730z" />
    <glyph glyph-name="G" unicode="G" horiz-adv-x="815" 
d="M142 635q112 112 271 112q90 0 169.5 -40t133.5 -109l-198 -119q-44 42 -105 42q-64 0 -110.5 -46t-46.5 -110q0 -65 46 -111.5t111 -46.5q81 0 116 46h-152v200h398q10 -47 10 -88q0 -173 -103 -278.5t-269 -105.5q-159 0 -271 112.5t-112 271.5q0 158 112 270z" />
    <glyph glyph-name="H" unicode="H" horiz-adv-x="700" 
d="M50 730h220v-262h160v262h220v-730h-220v248h-160v-248h-220v730z" />
    <glyph glyph-name="I" unicode="I" horiz-adv-x="320" 
d="M270 0h-220v730h220v-730z" />
    <glyph glyph-name="J" unicode="J" horiz-adv-x="566" 
d="M165 248q29 -44 74 -44q67 0 67 91v435h220v-435q0 -144 -79 -225t-207 -81q-76 0 -139 34.5t-101 97.5z" />
    <glyph glyph-name="K" unicode="K" horiz-adv-x="650" 
d="M50 730h220v-220l126 220h242l-204 -311l216 -419h-253l-98 213l-29 -43v-170h-220v730z" />
    <glyph glyph-name="L" unicode="L" horiz-adv-x="556" 
d="M546 0h-496v730h220v-510h276v-220z" />
    <glyph glyph-name="M" unicode="M" horiz-adv-x="904" 
d="M50 0v730h220l182 -316l182 316h220v-730h-220v351l-127 -222h-110l-127 222v-351h-220z" />
    <glyph glyph-name="N" unicode="N" horiz-adv-x="740" 
d="M50 0v730h220l200 -337v337h220v-730h-220l-200 337v-337h-220z" />
    <glyph glyph-name="O" unicode="O" horiz-adv-x="825" 
d="M142 635q112 112 271 112q158 0 270 -112t112 -270q0 -159 -112 -271.5t-270 -112.5q-159 0 -271 112.5t-112 271.5q0 158 112 270zM302 254q46 -47 111 -47q64 0 110 46.5t46 111.5q0 64 -46 110t-110 46t-110.5 -46t-46.5 -110q0 -65 46 -111z" />
    <glyph glyph-name="P" unicode="P" horiz-adv-x="623" 
d="M335 730q129 0 203.5 -72t74.5 -180q0 -109 -74.5 -181.5t-203.5 -72.5h-65v-224h-220v730h285zM330 439q57 0 57 39q0 37 -57 37h-60v-76h60z" />
    <glyph glyph-name="Q" unicode="Q" horiz-adv-x="840" 
d="M30 365q0 158 112 270t271 112q158 0 270 -112t112 -270q0 -121 -68 -219l78 -87l-133 -114l-71 86q-86 -50 -188 -50q-159 0 -271 112.5t-112 271.5zM256 365q0 -65 46 -111.5t111 -46.5q17 0 39 5l-66 80l119 102l60 -66q4 24 4 37q0 64 -46 110t-110 46t-110.5 -46
t-46.5 -110z" />
    <glyph glyph-name="R" unicode="R" horiz-adv-x="630" 
d="M335 730q129 0 203.5 -72t74.5 -180q0 -65 -27.5 -119t-79.5 -88l124 -271h-248l-90 224h-22v-224h-220v730h285zM330 439q57 0 57 39q0 37 -57 37h-60v-76h60z" />
    <glyph glyph-name="S" unicode="S" horiz-adv-x="600" 
d="M30 104l135 137q64 -62 138 -62q53 0 53 33q0 20 -32 36t-77.5 32.5t-91.5 41t-78 74t-32 118.5q0 105 70.5 168t183.5 63q152 0 252 -120l-152 -120q-36 43 -94 43q-20 0 -33.5 -9t-13.5 -22q0 -17 32 -31.5t78 -30.5t92 -40t78 -72.5t32 -115.5q0 -108 -72 -177
t-195 -69q-174 0 -273 123z" />
    <glyph glyph-name="T" unicode="T" horiz-adv-x="594" 
d="M10 730h574v-210h-177v-520h-220v520h-177v210z" />
    <glyph glyph-name="U" unicode="U" horiz-adv-x="670" 
d="M40 730h220v-454q0 -34 21 -54.5t55 -20.5q32 0 53 20.5t21 54.5v454h220v-454q0 -129 -84.5 -212t-211.5 -83q-126 0 -210 83t-84 212v454z" />
    <glyph glyph-name="V" unicode="V" horiz-adv-x="669" 
d="M232 730l103 -394l102 394h242l-237 -730h-215l-237 730h242z" />
    <glyph glyph-name="W" unicode="W" horiz-adv-x="1025" 
d="M229 730l94 -354l95 356h189l95 -356l94 354h229l-202 -730h-223l-87 357l-88 -357h-223l-202 730h229z" />
    <glyph glyph-name="X" unicode="X" horiz-adv-x="744" 
d="M227 374l-207 356h256l96 -165l96 165h256l-207 -356l217 -374h-256l-106 183l-106 -183h-256z" />
    <glyph glyph-name="Y" unicode="Y" horiz-adv-x="660" 
d="M246 730l84 -201l84 201h246l-220 -445v-285h-220v285l-220 445h246z" />
    <glyph glyph-name="Z" unicode="Z" horiz-adv-x="641" 
d="M611 0h-581v215l273 300h-263v215h561v-216l-271 -299h281v-215z" />
    <glyph glyph-name="bracketleft" unicode="[" horiz-adv-x="341" 
d="M60 780h271v-160h-91v-570h91v-160h-271v890z" />
    <glyph glyph-name="backslash" unicode="\" horiz-adv-x="588" 
d="M568 -110h-194l-354 891h194z" />
    <glyph glyph-name="bracketright" unicode="]" horiz-adv-x="341" 
d="M281 780v-890h-271v160h91v570h-91v160h271z" />
    <glyph glyph-name="asciicircum" unicode="^" horiz-adv-x="540" 
d="M192 730h156l172 -340h-181l-69 160l-69 -160h-181z" />
    <glyph glyph-name="underscore" unicode="_" horiz-adv-x="510" 
d="M480 0h-450v160h449z" />
    <glyph glyph-name="grave" unicode="`" horiz-adv-x="288" 
d="M258 550h-120l-108 180h180z" />
    <glyph glyph-name="a" unicode="a" horiz-adv-x="639" 
d="M93 478q72 83 175 83q80 0 133 -65l13 54h185v-550h-185l-14 57q-51 -65 -132 -65q-103 0 -175.5 83.5t-72.5 200.5q0 118 73 202zM228 276q0 -35 24 -59q23 -24 58 -24t59.5 24t24.5 59t-24.5 59.5t-59.5 24.5t-58.5 -24.5t-23.5 -59.5z" />
    <glyph glyph-name="b" unicode="b" horiz-adv-x="639" 
d="M245 780v-276q50 57 126 57q103 0 175.5 -83.5t72.5 -201.5q0 -117 -72.5 -200.5t-175.5 -83.5q-81 0 -132 65l-14 -57h-185v780h205zM270 217q24 -24 59 -24t58.5 24t23.5 59t-23.5 59.5t-58.5 24.5t-59.5 -24.5t-24.5 -59.5t25 -59z" />
    <glyph glyph-name="c" unicode="c" horiz-adv-x="555" 
d="M103 475q83 83 201 83q71 0 132 -32.5t101 -87.5l-169 -112q-26 24 -64 24q-33 0 -54.5 -22t-21.5 -54q0 -33 21.5 -55t54.5 -22q44 0 67 32l169 -114q-39 -58 -101.5 -92t-134.5 -34q-118 0 -201 83.5t-83 201.5q0 117 83 201z" />
    <glyph glyph-name="d" unicode="d" horiz-adv-x="639" 
d="M93 478q72 83 175 83q76 0 126 -57v276h205v-780h-185l-14 57q-51 -65 -132 -65q-103 0 -175.5 83.5t-72.5 200.5q0 118 73 202zM228 276q0 -35 24 -59q23 -24 58 -24t59.5 24t24.5 59t-24.5 59.5t-59.5 24.5t-58.5 -24.5t-23.5 -59.5z" />
    <glyph glyph-name="e" unicode="e" 
d="M103 475q83 83 201 83t201.5 -83.5t83.5 -200.5q0 -29 -5 -62h-343q27 -63 91 -63q49 0 93 33l139 -89q-39 -48 -108 -76t-137 -28q-132 0 -215.5 82.5t-83.5 202.5q0 117 83 201zM236 342h145q-17 61 -72 61t-73 -61z" />
    <glyph glyph-name="f" unicode="f" horiz-adv-x="446" 
d="M10 550h70v4q0 123 71.5 184.5t176.5 61.5q66 0 118 -20l-51 -181q-28 5 -44 5q-33 0 -49.5 -14t-16.5 -36v-4h110v-180h-110v-370l-205 1v369h-70v180z" />
    <glyph glyph-name="g" unicode="g" horiz-adv-x="639" 
d="M93 478q72 83 175 83q80 0 133 -65l13 54h185v-464q0 -155 -84.5 -240t-233.5 -85q-69 0 -135.5 30t-106.5 83l133 103q41 -36 103 -36q52 0 85.5 27.5t33.5 63.5v18q-51 -58 -126 -58q-103 0 -175.5 83.5t-72.5 200.5q0 118 73 202zM228 276q0 -35 24 -59q23 -24 58 -24
t59.5 24t24.5 59t-24.5 59.5t-59.5 24.5t-58.5 -24.5t-23.5 -59.5z" />
    <glyph glyph-name="h" unicode="h" horiz-adv-x="603" 
d="M245 780v-278q50 60 118 60q205 0 205 -280v-282h-205v282q0 39 -17.5 58.5t-41.5 19.5t-41.5 -19.5t-17.5 -58.5v-282h-205v780h205z" />
    <glyph glyph-name="i" unicode="i" horiz-adv-x="286" 
d="M41 0v550h205v-550h-205zM34 685q0 46 32 78t77 32t77 -32t32 -78q0 -45 -32 -77t-77 -32t-77 32t-32 77z" />
    <glyph glyph-name="j" unicode="j" horiz-adv-x="327" 
d="M-29 -29q18 -5 33 -5q38 0 57.5 24.5t19.5 84.5v475h205v-475q0 -88 -20 -151t-56.5 -97t-78.5 -48.5t-93 -14.5q-66 0 -118 20zM107 763q32 32 77 32t77 -32t32 -78q0 -45 -32 -77t-77 -32t-77 32t-32 77q0 46 32 78z" />
    <glyph glyph-name="k" unicode="k" horiz-adv-x="597" 
d="M40 0v780h195v-366l112 136h230l-193 -232l203 -318h-236l-96 163l-20 -24v-139h-195z" />
    <glyph glyph-name="l" unicode="l" horiz-adv-x="285" 
d="M245 0h-205v780h205v-780z" />
    <glyph glyph-name="m" unicode="m" horiz-adv-x="896" 
d="M40 0v550h185l14 -56q50 68 129 68q96 0 145 -68q24 31 59.5 49.5t72.5 18.5q216 0 216 -280v-282h-205v282q0 39 -15.5 58.5t-35.5 19.5q-21 0 -36.5 -19t-15.5 -59v-282h-205v282q0 39 -15.5 58.5t-35.5 19.5q-21 0 -36.5 -19t-15.5 -59v-282h-205z" />
    <glyph glyph-name="n" unicode="n" horiz-adv-x="603" 
d="M40 550h185l14 -55q52 67 124 67q205 0 205 -280v-282h-205v282q0 39 -17.5 58.5t-41.5 19.5t-41.5 -19.5t-17.5 -58.5v-282h-205v550z" />
    <glyph glyph-name="o" unicode="o" 
d="M20 274q0 117 83 200.5t201 83.5t201.5 -83.5t83.5 -200.5q0 -118 -83 -201q-84 -84 -202 -84t-201 83.5t-83 201.5zM228 274q0 -33 22 -55q21 -22 54 -22t55 22.5t22 54.5t-22 54t-55 22t-54.5 -22t-21.5 -54z" />
    <glyph glyph-name="p" unicode="p" horiz-adv-x="639" 
d="M40 -220v770h185l14 -57q51 65 132 65q103 0 175.5 -83.5t72.5 -200.5q0 -118 -72.5 -201.5t-175.5 -83.5q-76 0 -126 57v-266h-205zM270 215q24 -25 59 -25t58.5 24.5t23.5 59.5t-23.5 59t-58.5 24t-59.5 -24t-24.5 -59t25 -59z" />
    <glyph glyph-name="q" unicode="q" horiz-adv-x="649" 
d="M30 274q0 117 72.5 200.5t175.5 83.5q81 0 132 -65l14 57h185v-770h-205v266q-50 -57 -126 -57q-103 0 -175.5 83.5t-72.5 201.5zM238 274q0 -35 24 -59q23 -25 58 -25t59.5 24.5t24.5 59.5t-24.5 59t-59.5 24t-58.5 -24t-23.5 -59z" />
    <glyph glyph-name="r" unicode="r" horiz-adv-x="464" 
d="M40 0v550h185l16 -62q49 67 146 67q29 0 62 -5l-42 -196q-5 1 -14 1q-21 0 -38.5 -2.5t-39 -12t-36 -25.5t-24.5 -46t-10 -71v-198h-205z" />
    <glyph glyph-name="s" unicode="s" horiz-adv-x="541" 
d="M25 74l119 115q56 -43 123 -43q41 0 41 22q0 14 -27.5 24t-67 21t-78.5 28.5t-66.5 54t-27.5 88.5q0 82 61.5 131t161.5 49q160 0 240 -91l-106 -105q-18 17 -49.5 28t-57.5 11q-45 0 -45 -20q0 -13 28 -21.5t67.5 -18.5t79 -26.5t67.5 -54t28 -92.5q0 -94 -69 -143
t-175 -49q-149 0 -247 92z" />
    <glyph glyph-name="t" unicode="t" horiz-adv-x="466" 
d="M89 550l31 180h165v-180h117v-180h-117v-101q0 -45 19 -65t58 -20q15 0 33 5l51 -181q-52 -20 -118 -20q-248 0 -248 281v101h-70v180h79z" />
    <glyph glyph-name="u" unicode="u" horiz-adv-x="603" 
d="M35 550h205v-282q0 -39 17.5 -58.5t41.5 -19.5t41.5 19.5t17.5 58.5v282h205v-550h-185l-14 55q-52 -67 -124 -67q-205 0 -205 280v282z" />
    <glyph glyph-name="v" unicode="v" horiz-adv-x="571" 
d="M220 550l66 -232l65 232h220l-186 -550h-199l-186 550h220z" />
    <glyph glyph-name="w" unicode="w" horiz-adv-x="921" 
d="M224 550l65 -234l68 234h207l68 -234l65 234h219l-183 -550h-199l-73 221l-74 -221h-199l-183 550h219z" />
    <glyph glyph-name="x" unicode="x" horiz-adv-x="652" 
d="M10 550h241l75 -119l75 119h241l-174 -275l174 -275h-241l-75 119l-75 -119h-241l174 275z" />
    <glyph glyph-name="y" unicode="y" horiz-adv-x="571" 
d="M55 -36q26 -7 52 -7q32 0 59 16.5t35 54.5l-199 522h220l68 -240l63 240h218l-169 -550q-40 -129 -111 -182.5t-173 -53.5q-66 0 -118 20z" />
    <glyph glyph-name="z" unicode="z" horiz-adv-x="553" 
d="M35 370v180h469v-150l-166 -210h180v-190h-483v140l186 230h-186z" />
    <glyph glyph-name="braceleft" unicode="{" horiz-adv-x="390" 
d="M40 415q31 0 52 15t21 46v86q0 59 22 102.5t59.5 68t81.5 36t94 11.5v-160q-40 0 -58.5 -11.5t-18.5 -50.5v-84q0 -80 -51 -139q51 -59 51 -138v-86q0 -39 18.5 -50t58.5 -11v-160q-108 0 -182.5 52.5t-74.5 164.5v87q0 31 -21 46t-52 15v160z" />
    <glyph glyph-name="bar" unicode="|" horiz-adv-x="280" 
d="M220 -220h-160v950h160v-950z" />
    <glyph glyph-name="braceright" unicode="}" horiz-adv-x="390" 
d="M40 50q40 0 58.5 11t18.5 50v86q0 79 51 138q-51 59 -51 139v84q0 39 -18.5 50.5t-58.5 11.5v160q50 0 94 -11.5t81.5 -36t59.5 -68t22 -102.5v-86q0 -31 21 -46t52 -15v-160q-31 0 -52 -15t-21 -46v-87q0 -112 -74.5 -164.5t-182.5 -52.5v160z" />
    <glyph glyph-name="asciitilde" unicode="~" horiz-adv-x="560" 
d="M80 457q39 37 89 41q7 1 15 1q32 0 67.5 -16t63 -30.5t46.5 -14.5q6 0 11 1q28 6 36 47l132 -54q-19 -68 -55.5 -105t-83.5 -44q-13 -2 -26 -2q-21 0 -47 7.5t-47.5 21.5t-42.5 23t-36 9q-6 0 -11 -1q-29 -5 -39 -47l-132 54q20 72 60 109z" />
    <glyph glyph-name="exclamdown" unicode="&#xa1;" horiz-adv-x="291" 
d="M43 -220l20 557h165l20 -557h-205zM40 473q0 44 31 75t75 31t74.5 -31t30.5 -75t-30 -75q-31 -31 -75 -31t-75 31t-31 75z" />
    <glyph glyph-name="cent" unicode="&#xa2;" horiz-adv-x="555" 
d="M86 551q66 79 166 97v82h110v-83q112 -23 177 -118l-132 -89q-21 17 -45 28v-197q21 10 42 31l136 -92q-65 -97 -178 -120v-90h-110v89q-100 18 -166 97t-66 183q0 103 66 182zM197 369q0 -63 55 -95v189q-55 -33 -55 -94z" />
    <glyph glyph-name="sterling" unicode="&#xa3;" horiz-adv-x="620" 
d="M30 0v190h79v114h-63v140h63v8q0 136 70.5 213.5t176.5 77.5q68 0 125.5 -36t90.5 -97l-166 -107q-13 35 -44 35q-21 0 -34.5 -21.5t-13.5 -64.5v-8h138v-140h-138v-114h276v-190h-560z" />
    <glyph glyph-name="currency" unicode="&#xa4;" horiz-adv-x="620" 
d="M143 619l80 -80q43 19 87 19q46 0 87 -19l80 80l103 -103l-79 -79q19 -43 19 -88t-19 -88l79 -79l-103 -103l-79 79q-43 -19 -88 -19t-88 19l-79 -79l-103 103l80 80q-19 41 -19 87q0 44 19 87l-80 80zM261 300q19 -21 48 -21t49.5 20.5t20.5 49.5t-20.5 49t-49.5 20
t-48.5 -20t-19.5 -49t20 -49z" />
    <glyph glyph-name="yen" unicode="&#xa5;" horiz-adv-x="680" 
d="M222 730l118 -218l118 218h222l-171 -274h110l2 -140h-189v-60h187l2 -140h-189v-116h-185v116h-186v140h186v60h-186v140h109l-170 274h222z" />
    <glyph glyph-name="brokenbar" unicode="&#xa6;" horiz-adv-x="270" 
d="M215 780v-382h-160v382h160zM55 -220v382h160v-382h-160z" />
    <glyph glyph-name="section" unicode="&#xa7;" horiz-adv-x="489" 
d="M30 384q0 65 51 106q-31 41 -31 103q0 66 47 113t123 47q59 0 114 -25t87 -76l-117 -82q-23 32 -64 32q-11 0 -19.5 -5t-8.5 -14q0 -12 18.5 -22t45.5 -17.5t59.5 -22t59.5 -33t45.5 -52t18.5 -77.5q0 -65 -55 -105q35 -40 35 -98q0 -87 -57.5 -133t-138.5 -46
q-133 0 -203 102l127 89q27 -34 72 -34q14 0 23.5 7t9.5 18q0 17 -25 29.5t-60.5 24.5t-71 29.5t-60.5 54t-25 87.5zM191 384q0 -15 15.5 -26t47.5 -23q7 -2 12 -2q10 0 18 7t8 19q0 16 -17 26t-52 22q-4 1 -7 1q-9 0 -17 -6t-8 -18z" />
    <glyph glyph-name="dieresis" unicode="&#xa8;" horiz-adv-x="420" 
d="M230 640q0 36 25 60.5t60 24.5t60 -24.5t25 -60.5t-25 -60q-25 -25 -60 -25t-60 24.5t-25 60.5zM20 640q0 36 25 60.5t60 24.5t60 -24.5t25 -60.5t-25 -60q-25 -25 -60 -25t-60 24.5t-25 60.5z" />
    <glyph glyph-name="copyright" unicode="&#xa9;" horiz-adv-x="793" 
d="M130 631q110 110 267 110q156 0 266 -110.5t110 -265.5q0 -157 -110 -267.5t-266 -110.5q-157 0 -267 110.5t-110 267.5q0 155 110 266zM187 154q88 -88 210 -88t209.5 88t87.5 211q0 121 -88 209t-209 88q-122 0 -210 -87.5t-88 -209.5q0 -123 88 -211zM255 508
q60 59 145 59q103 0 161 -80l-91 -72q-29 32 -71 32q-34 0 -58 -24t-24 -59t24 -59t58 -24q44 0 71 35l95 -72q-62 -83 -165 -83q-85 0 -145 59.5t-60 143.5t60 144z" />
    <glyph glyph-name="ordfeminine" unicode="&#xaa;" horiz-adv-x="341" 
d="M53 564q32 32 85 32h54q-1 16 -13.5 27t-30.5 11q-20 0 -44 -16l-78 59q58 61 140 61q60 0 102.5 -46.5t42.5 -137.5v-175h-97l-10 29q-24 -37 -67 -37q-48 0 -82.5 33.5t-34.5 79.5q0 47 33 80zM137 490q0 -11 8 -19t19 -8q12 0 20 8t8 19v28h-28q-11 0 -19 -8t-8 -20z
" />
    <glyph glyph-name="guillemotleft" unicode="&#xab;" horiz-adv-x="507" 
d="M232 365l106 185h139l-106 -185l106 -185h-139zM30 365l106 185h139l-106 -185l106 -185h-139z" />
    <glyph glyph-name="logicalnot" unicode="&#xac;" horiz-adv-x="522" 
d="M492 155h-160l-1 130h-301v160h460z" />
    <glyph glyph-name="registered" unicode="&#xae;" horiz-adv-x="793" 
d="M130 631q110 110 267 110q156 0 266 -110.5t110 -265.5q0 -157 -110 -267.5t-266 -110.5q-157 0 -267 110.5t-110 267.5q0 155 110 266zM99 365q0 -123 88 -211t210 -88t209.5 88t87.5 211q0 121 -88 209t-209 88q-122 0 -210 -87.5t-88 -209.5zM412 555q67 0 108 -39
t41 -97q0 -73 -60 -112l66 -132h-119l-43 106h-42v-106h-103v380h152zM363 383h56q16 0 26.5 9t10.5 24q0 13 -11 22.5t-26 9.5h-56v-65z" />
    <glyph glyph-name="macron" unicode="&#xaf;" horiz-adv-x="470" 
d="M430 557h-390v160h390v-160z" />
    <glyph glyph-name="degree" unicode="&#xb0;" horiz-adv-x="293" 
d="M57 753q37 37 90 37q52 0 89 -37.5t37 -89.5t-37 -89t-89 -37q-53 0 -90 37t-37 89q0 53 37 90zM120 663q0 -11 7.5 -19t19.5 -8q11 0 19 8t8 19q0 12 -8 20t-19 8q-12 0 -19.5 -8t-7.5 -20z" />
    <glyph glyph-name="plusminus" unicode="&#xb1;" horiz-adv-x="520" 
d="M30 395v160h150v150h160v-150h150v-160h-150v-150h-160v150h-150zM30 200h460v-160h-460v160z" />
    <glyph glyph-name="twosuperior" unicode="&#xb2;" horiz-adv-x="350" 
d="M173 640q29 31 29 60q0 18 -11.5 30t-29.5 12q-35 0 -48 -30l-95 31q13 49 53.5 80.5t92.5 31.5q64 0 107.5 -43t43.5 -112q0 -75 -58 -130l-53 -55h121v-109h-310v72z" />
    <glyph glyph-name="threesuperior" unicode="&#xb3;" horiz-adv-x="363" 
d="M117 540q7 -10 24 -17.5t32 -7.5q22 0 35.5 10t13.5 27t-16.5 28.5t-40.5 11.5h-27v106h29q13 0 26 7.5t13 20.5q0 12 -11.5 18.5t-24.5 6.5q-25 0 -37 -18l-101 38q15 38 56 63t88 25q62 0 104.5 -32t42.5 -95q0 -49 -42 -84q57 -37 57 -103q0 -62 -48.5 -102.5
t-109.5 -40.5q-57 0 -101.5 27t-63.5 73z" />
    <glyph glyph-name="acute" unicode="&#xb4;" horiz-adv-x="268" 
d="M140 550h-120l48 180h180z" />
    <glyph glyph-name="uni00B5" unicode="&#xb5;" horiz-adv-x="633" 
d="M55 550h205v-282q0 -39 17.5 -58.5t41.5 -19.5t41.5 19.5t17.5 58.5v282h205v-550h-205v23q-51 -33 -108 -33h-10v-210h-205v770z" />
    <glyph glyph-name="paragraph" unicode="&#xb6;" horiz-adv-x="578" 
d="M88 706q68 74 164 74h286v-911h-80v831h-76v-831h-80v403h-50q-96 0 -164 74.5t-68 179.5t68 180z" />
    <glyph glyph-name="periodcentered" unicode="&#xb7;" horiz-adv-x="269" 
d="M54 447q33 33 81 33q47 0 80.5 -33.5t33.5 -81.5t-33.5 -81.5t-80.5 -33.5q-48 0 -81.5 33.5t-33.5 81.5t34 82z" />
    <glyph glyph-name="cedilla" unicode="&#xb8;" horiz-adv-x="273" 
d="M55 -103q18 -8 50 -8q29 0 29 10q0 12 -28 12h-36l22 89h120l-12 -38q53 -19 53 -77q0 -42 -39 -73.5t-90 -31.5q-68 0 -104 18z" />
    <glyph glyph-name="onesuperior" unicode="&#xb9;" horiz-adv-x="208" 
d="M168 407h-113v333h-45v110h158v-443z" />
    <glyph glyph-name="ordmasculine" unicode="&#xba;" horiz-adv-x="412" 
d="M75 685q54 54 131 54q76 0 131 -54.5t55 -131.5t-55 -131.5t-131 -54.5q-77 0 -131.5 54.5t-54.5 131.5t55 132zM145 553q0 -26 18 -44q17 -18 43 -18t44 18t18 44t-18 44t-44 18t-43.5 -18t-17.5 -44z" />
    <glyph glyph-name="guillemotright" unicode="&#xbb;" horiz-adv-x="507" 
d="M338 365l-106 185h139l106 -185l-106 -185h-139zM30 550h139l106 -185l-106 -185h-139l106 185z" />
    <glyph glyph-name="onequarter" unicode="&#xbc;" horiz-adv-x="735" 
d="M470 781h135l-404 -781h-135zM385 87v113l152 244h148v-244h30v-113h-30v-87h-113v87h-187zM178 780v-443h-113v333h-45v110h158zM572 200v102l-62 -102h62z" />
    <glyph glyph-name="onehalf" unicode="&#xbd;" horiz-adv-x="797" 
d="M71 0l404 781h135l-404 -781h-135zM615 234q29 31 29 60q0 18 -11.5 30t-29.5 12q-35 0 -48 -30l-95 31q13 49 53.5 80.5t92.5 31.5q64 0 107.5 -43t43.5 -112q0 -75 -58 -130l-53 -55h121v-109h-310v72zM183 780v-443h-113v333h-50v110h163z" />
    <glyph glyph-name="threequarters" unicode="&#xbe;" horiz-adv-x="874" 
d="M609 781h135l-404 -781h-135zM676 444h148v-244h30v-113h-30v-87h-113v87h-187v113zM127 460q7 -10 24 -17.5t32 -7.5q22 0 35.5 10t13.5 27t-16.5 28.5t-40.5 11.5h-27v106h29q13 0 26 7.5t13 20.5q0 12 -11.5 18.5t-24.5 6.5q-25 0 -37 -18l-101 38q15 38 56 63t88 25
q62 0 104.5 -32t42.5 -95q0 -49 -42 -84q57 -37 57 -103q0 -62 -48.5 -102.5t-109.5 -40.5q-57 0 -101.5 27t-63.5 73zM711 200v102l-62 -102h62z" />
    <glyph glyph-name="questiondown" unicode="&#xbf;" horiz-adv-x="555" 
d="M54 112q24 45 82 93q60 50 60 90v19h205v-43q0 -58 -25 -95.5t-77 -80.5q-39 -32 -51.5 -47t-12.5 -29q0 -16 13.5 -25t31.5 -9q41 0 62 35l183 -72q-20 -74 -88 -122.5t-154 -48.5q-111 0 -182 62.5t-71 162.5q0 65 24 110zM192 444q0 44 30.5 75t74.5 31t75 -31t31 -75
t-31 -75t-75 -31t-74.5 31t-30.5 75z" />
    <glyph glyph-name="Agrave" unicode="&#xc0;" horiz-adv-x="669" 
d="M-10 0l227 730h235l227 -730h-242l-21 86h-164l-20 -86h-242zM356 980l48 -180h-120l-108 180h180zM298 276h73l-37 153z" />
    <glyph glyph-name="Aacute" unicode="&#xc1;" horiz-adv-x="669" 
d="M-10 0l227 730h235l227 -730h-242l-21 86h-164l-20 -86h-242zM282 800l48 180h180l-108 -180h-120zM298 276h73l-37 153z" />
    <glyph glyph-name="Acircumflex" unicode="&#xc2;" horiz-adv-x="669" 
d="M-10 0l227 730h235l227 -730h-242l-21 86h-164l-20 -86h-242zM256 944h156l102 -140h-148l-32 44l-32 -44h-148zM298 276h73l-37 153z" />
    <glyph glyph-name="Atilde" unicode="&#xc3;" horiz-adv-x="669" 
d="M-10 0l227 730h235l227 -730h-242l-21 86h-164l-20 -86h-242zM178 928q27 42 83 42q32 0 56 -13.5t36 -26t17 -12.5q11 2 11 36h120q0 -65 -26.5 -104t-83.5 -39q-31 0 -54.5 13.5t-35.5 26t-18 12.5h-1q-11 -2 -11 -36h-120q0 59 27 101zM298 276h73l-37 153z" />
    <glyph glyph-name="Adieresis" unicode="&#xc4;" horiz-adv-x="669" 
d="M-10 0l227 730h235l227 -730h-242l-21 86h-164l-20 -86h-242zM358 890q0 36 25 60.5t60 24.5t60 -24.5t25 -60.5t-25 -60q-25 -25 -60 -25t-60 24.5t-25 60.5zM148 890q0 36 25 60.5t60 24.5t60 -24.5t25 -60.5t-25 -60q-25 -25 -60 -25t-60 24.5t-25 60.5zM298 276h73
l-37 153z" />
    <glyph glyph-name="Aring" unicode="&#xc5;" horiz-adv-x="669" 
d="M217 730h235l227 -730h-242l-21 86h-164l-20 -86h-242zM258 977q39 33 91 33t90.5 -33t38.5 -87t-38 -86q-39 -33 -91 -33t-91 32.5t-39 86.5t39 87zM371 276l-37 153l-36 -153h73zM330 890q0 -8 5.5 -13.5t13.5 -5.5q7 0 13 5.5t6 13.5t-5.5 14t-13.5 6t-13.5 -6
t-5.5 -14z" />
    <glyph glyph-name="AE" unicode="&#xc6;" horiz-adv-x="953" 
d="M217 730h696v-200h-257v-60h237v-196h-237v-64h267v-210h-486v176h-160l-45 -176h-242zM325 366h112v165h-70z" />
    <glyph glyph-name="Ccedilla" unicode="&#xc7;" horiz-adv-x="747" 
d="M142 635q112 112 271 112q89 0 167.5 -39t132.5 -106l-183 -135q-47 54 -117 54q-64 0 -110.5 -46t-46.5 -110q0 -65 46 -111.5t111 -46.5q68 0 113 50l196 -118q-47 -64 -116 -105t-150 -51l-7 -21q53 -19 53 -77q0 -42 -39 -73.5t-90 -31.5q-68 0 -104 18l35 99
q18 -8 50 -8q29 0 29 10q0 12 -28 12h-36l19 77q-133 26 -220.5 132t-87.5 245q0 158 112 270z" />
    <glyph glyph-name="Egrave" unicode="&#xc8;" horiz-adv-x="566" 
d="M526 730v-200h-257v-60h237v-196h-237v-64h267v-210h-486v730h476zM314 980l48 -180h-120l-108 180h180z" />
    <glyph glyph-name="Eacute" unicode="&#xc9;" horiz-adv-x="566" 
d="M50 0v730h476v-200h-257v-60h237v-196h-237v-64h267v-210h-486zM226 800l48 180h180l-108 -180h-120z" />
    <glyph glyph-name="Ecircumflex" unicode="&#xca;" horiz-adv-x="566" 
d="M50 730h476v-200h-257v-60h237v-196h-237v-64h267v-210h-486v730zM120 820l102 140h156l102 -140h-148l-32 44l-32 -44h-148z" />
    <glyph glyph-name="Edieresis" unicode="&#xcb;" horiz-adv-x="566" 
d="M50 730h476v-200h-257v-60h237v-196h-237v-64h267v-210h-486v730zM328 951q25 24 60 24t60 -24.5t25 -60.5t-25 -60q-25 -25 -60 -25t-60 24.5t-25 60.5t25 61zM118 951q25 24 60 24t60 -24.5t25 -60.5t-25 -60q-25 -25 -60 -25t-60 24.5t-25 60.5t25 61z" />
    <glyph glyph-name="Igrave" unicode="&#xcc;" horiz-adv-x="320" 
d="M270 800h-120l-108 180h180zM270 0h-220v730h220v-730z" />
    <glyph glyph-name="Iacute" unicode="&#xcd;" horiz-adv-x="320" 
d="M210 800h-120l48 180h180zM270 0h-220v730h220v-730z" />
    <glyph glyph-name="Icircumflex" unicode="&#xce;" horiz-adv-x="320" 
d="M50 730h220v-730h-220v730zM82 960h156l102 -140h-148l-32 44l-32 -44h-148z" />
    <glyph glyph-name="Idieresis" unicode="&#xcf;" horiz-adv-x="320" 
d="M50 730h220v-730h-220v730zM-30 890q0 36 25 60.5t60 24.5t60 -24.5t25 -60.5t-25 -60q-25 -25 -60 -25t-60 24.5t-25 60.5zM180 890q0 36 25 60.5t60 24.5t60 -24.5t25 -60.5t-25 -60q-25 -25 -60 -25t-60 24.5t-25 60.5z" />
    <glyph glyph-name="Eth" unicode="&#xd0;" horiz-adv-x="730" 
d="M314 0h-254v285h-50v160h50v285h254q169 0 277.5 -104t108.5 -261q0 -158 -108 -261.5t-278 -103.5zM280 285v-70h34q71 0 113.5 42.5t42.5 107.5t-42.5 107.5t-113.5 42.5l-34 -1v-69h110l1 -160h-111z" />
    <glyph glyph-name="Ntilde" unicode="&#xd1;" horiz-adv-x="740" 
d="M430 811q-31 0 -54.5 13.5t-36 26.5t-18.5 12q-11 -2 -11 -36h-120q0 59 27 101t83 42q32 0 56 -13.5t36 -26t17 -12.5q11 2 11 36h120q0 -65 -26.5 -104t-83.5 -39zM270 0h-220v730h220l200 -337v337h220v-730h-220l-200 337v-337z" />
    <glyph glyph-name="Ograve" unicode="&#xd2;" horiz-adv-x="825" 
d="M465 800h-120l-108 180h180zM413 -19q-159 0 -271 112.5t-112 271.5q0 158 112 270t271 112q158 0 270 -112t112 -270q0 -159 -112 -271.5t-270 -112.5zM413 207q64 0 110 46.5t46 111.5q0 64 -46 110t-110 46t-110.5 -46t-46.5 -110q0 -65 46 -111.5t111 -46.5z" />
    <glyph glyph-name="Oacute" unicode="&#xd3;" horiz-adv-x="825" 
d="M479 800h-120l48 180h180zM413 -19q-159 0 -271 112.5t-112 271.5q0 158 112 270t271 112q158 0 270 -112t112 -270q0 -159 -112 -271.5t-270 -112.5zM413 207q64 0 110 46.5t46 111.5q0 64 -46 110t-110 46t-110.5 -46t-46.5 -110q0 -65 46 -111.5t111 -46.5z" />
    <glyph glyph-name="Ocircumflex" unicode="&#xd4;" horiz-adv-x="825" 
d="M389 820h-148l102 140h156l102 -140h-148l-32 44zM413 -19q-159 0 -271 112.5t-112 271.5q0 158 112 270t271 112q158 0 270 -112t112 -270q0 -159 -112 -271.5t-270 -112.5zM413 207q64 0 110 46.5t46 111.5q0 64 -46 110t-110 46t-110.5 -46t-46.5 -110
q0 -65 46 -111.5t111 -46.5z" />
    <glyph glyph-name="Otilde" unicode="&#xd5;" horiz-adv-x="825" 
d="M480 811q-31 0 -54.5 13.5t-36 26.5t-18.5 12q-11 -2 -11 -36h-120q0 59 27 101t83 42q32 0 56 -13.5t36 -26t17 -12.5q11 2 11 36h120q0 -65 -26.5 -104t-83.5 -39zM413 -19q-159 0 -271 112.5t-112 271.5q0 158 112 270t271 112q158 0 270 -112t112 -270
q0 -159 -112 -271.5t-270 -112.5zM413 207q64 0 110 46.5t46 111.5q0 64 -46 110t-110 46t-110.5 -46t-46.5 -110q0 -65 46 -111.5t111 -46.5z" />
    <glyph glyph-name="Odieresis" unicode="&#xd6;" horiz-adv-x="825" 
d="M292 805q-35 0 -60 24.5t-25 60.5t25 60.5t60 24.5t60 -24.5t25 -60.5t-25 -60.5t-60 -24.5zM502 805q-35 0 -60 24.5t-25 60.5t25 60.5t60 24.5t60 -24.5t25 -60.5t-25 -60.5t-60 -24.5zM413 -19q-159 0 -271 112.5t-112 271.5q0 158 112 270t271 112q158 0 270 -112
t112 -270q0 -159 -112 -271.5t-270 -112.5zM413 207q64 0 110 46.5t46 111.5q0 64 -46 110t-110 46t-110.5 -46t-46.5 -110q0 -65 46 -111.5t111 -46.5z" />
    <glyph glyph-name="multiply" unicode="&#xd7;" horiz-adv-x="546" 
d="M506 245l-113 -113l-120 120l-120 -120l-113 113l120 120l-120 120l113 113l120 -120l120 120l113 -113l-120 -120z" />
    <glyph glyph-name="Oslash" unicode="&#xd8;" horiz-adv-x="847" 
d="M424 -19q-114 0 -209 62l-71 -71l-114 113l72 72q-61 94 -61 208q0 158 112 270t271 112q112 0 207 -61l73 72l113 -113l-72 -72q61 -96 61 -208q0 -159 -112 -271.5t-270 -112.5zM272 326l190 190q-20 5 -38 5q-64 0 -110.5 -46t-46.5 -110q0 -17 5 -39zM424 207
q64 0 110 46.5t46 111.5q0 18 -5 38l-191 -191q22 -5 40 -5z" />
    <glyph glyph-name="Ugrave" unicode="&#xd9;" horiz-adv-x="670" 
d="M412 800h-120l-108 180h180zM334 -19q-126 0 -210 83t-84 212v454h220v-454q0 -34 21 -54.5t55 -20.5q32 0 53 20.5t21 54.5v454h220v-454q0 -129 -84.5 -212t-211.5 -83z" />
    <glyph glyph-name="Uacute" unicode="&#xda;" horiz-adv-x="670" 
d="M384 800h-120l48 180h180zM334 -19q-126 0 -210 83t-84 212v454h220v-454q0 -34 21 -54.5t55 -20.5q32 0 53 20.5t21 54.5v454h220v-454q0 -129 -84.5 -212t-211.5 -83z" />
    <glyph glyph-name="Ucircumflex" unicode="&#xdb;" horiz-adv-x="670" 
d="M310 820h-148l102 140h156l102 -140h-148l-32 44zM334 -19q-126 0 -210 83t-84 212v454h220v-454q0 -34 21 -54.5t55 -20.5q32 0 53 20.5t21 54.5v454h220v-454q0 -129 -84.5 -212t-211.5 -83z" />
    <glyph glyph-name="Udieresis" unicode="&#xdc;" horiz-adv-x="670" 
d="M244 805q-35 0 -60 24.5t-25 60.5t25 60.5t60 24.5t60 -24.5t25 -60.5t-25 -60.5t-60 -24.5zM454 805q-35 0 -60 24.5t-25 60.5t25 60.5t60 24.5t60 -24.5t25 -60.5t-25 -60.5t-60 -24.5zM334 -19q-126 0 -210 83t-84 212v454h220v-454q0 -34 21 -54.5t55 -20.5
q32 0 53 20.5t21 54.5v454h220v-454q0 -129 -84.5 -212t-211.5 -83z" />
    <glyph glyph-name="Yacute" unicode="&#xdd;" horiz-adv-x="660" 
d="M387 800h-120l48 180h180zM440 0h-220v285l-220 445h246l84 -201l84 201h246l-220 -445v-285z" />
    <glyph glyph-name="Thorn" unicode="&#xde;" horiz-adv-x="633" 
d="M270 0h-220v730h220v-112h65q129 0 203.5 -72t74.5 -180q0 -109 -74.5 -181.5t-203.5 -72.5h-65v-112zM270 403v-76h60q57 0 57 39q0 37 -57 37h-60z" />
    <glyph glyph-name="germandbls" unicode="&#xdf;" horiz-adv-x="651" 
d="M403 -10q-84 0 -124 20v178q40 -10 79 -10q33 0 51.5 16t18.5 42q0 24 -14.5 42.5t-35.5 30.5t-42.5 24t-36 31.5t-14.5 45.5q0 38 33 83t33 77q0 22 -13.5 33.5t-34.5 11.5t-34.5 -15t-13.5 -44v-556h-195v591q0 91 69.5 145t173.5 54t179 -61.5t75 -155.5
q0 -40 -17.5 -73t-35 -50.5t-17.5 -22.5q0 -8 22.5 -24.5t49.5 -36.5t49.5 -63.5t22.5 -98.5q0 -93 -63.5 -153.5t-164.5 -60.5z" />
    <glyph glyph-name="agrave" unicode="&#xe0;" horiz-adv-x="639" 
d="M392 630h-120l-108 180h180zM268 -8q-103 0 -175.5 83.5t-72.5 200.5q0 118 72.5 201.5t175.5 83.5q80 0 133 -65l13 54h185v-550h-185l-14 57q-51 -65 -132 -65zM310 193q35 0 59.5 24t24.5 59t-24.5 59.5t-59.5 24.5t-58.5 -24.5t-23.5 -59.5t23.5 -59t58.5 -24z" />
    <glyph glyph-name="aacute" unicode="&#xe1;" horiz-adv-x="639" 
d="M349 630h-120l48 180h180zM268 -8q-103 0 -175.5 83.5t-72.5 200.5q0 118 72.5 201.5t175.5 83.5q80 0 133 -65l13 54h185v-550h-185l-14 57q-51 -65 -132 -65zM310 193q35 0 59.5 24t24.5 59t-24.5 59.5t-59.5 24.5t-58.5 -24.5t-23.5 -59.5t23.5 -59t58.5 -24z" />
    <glyph glyph-name="acircumflex" unicode="&#xe2;" horiz-adv-x="639" 
d="M296 650h-148l102 140h156l102 -140h-148l-32 44zM268 -8q-103 0 -175.5 83.5t-72.5 200.5q0 118 72.5 201.5t175.5 83.5q80 0 133 -65l13 54h185v-550h-185l-14 57q-51 -65 -132 -65zM310 193q35 0 59.5 24t24.5 59t-24.5 59.5t-59.5 24.5t-58.5 -24.5t-23.5 -59.5
t23.5 -59t58.5 -24z" />
    <glyph glyph-name="atilde" unicode="&#xe3;" horiz-adv-x="639" 
d="M391 641q-31 0 -54.5 13.5t-36 26.5t-18.5 12q-11 -2 -11 -36h-120q0 59 27 101t83 42q32 0 56 -13.5t36 -26t17 -12.5q11 2 11 36h120q0 -65 -26.5 -104t-83.5 -39zM268 -8q-103 0 -175.5 83.5t-72.5 200.5q0 118 72.5 201.5t175.5 83.5q80 0 133 -65l13 54h185v-550
h-185l-14 57q-51 -65 -132 -65zM310 193q35 0 59.5 24t24.5 59t-24.5 59.5t-59.5 24.5t-58.5 -24.5t-23.5 -59.5t23.5 -59t58.5 -24z" />
    <glyph glyph-name="adieresis" unicode="&#xe4;" horiz-adv-x="639" 
d="M225 635q-35 0 -60 24.5t-25 60.5t25 60.5t60 24.5t60 -24.5t25 -60.5t-25 -60.5t-60 -24.5zM435 635q-35 0 -60 24.5t-25 60.5t25 60.5t60 24.5t60 -24.5t25 -60.5t-25 -60.5t-60 -24.5zM268 -8q-103 0 -175.5 83.5t-72.5 200.5q0 118 72.5 201.5t175.5 83.5
q80 0 133 -65l13 54h185v-550h-185l-14 57q-51 -65 -132 -65zM310 193q35 0 59.5 24t24.5 59t-24.5 59.5t-59.5 24.5t-58.5 -24.5t-23.5 -59.5t23.5 -59t58.5 -24z" />
    <glyph glyph-name="aring" unicode="&#xe5;" horiz-adv-x="639" 
d="M307 601q-52 0 -91 32.5t-39 86.5t39 87t91 33t90.5 -33t38.5 -87t-38.5 -86.5t-90.5 -32.5zM307 701q7 0 13 5.5t6 13.5t-5.5 14t-13.5 6t-13.5 -6t-5.5 -14t5.5 -13.5t13.5 -5.5zM268 -8q-103 0 -175.5 83.5t-72.5 200.5q0 118 72.5 201.5t175.5 83.5q80 0 133 -65
l13 54h185v-550h-185l-14 57q-51 -65 -132 -65zM310 193q35 0 59.5 24t24.5 59t-24.5 59.5t-59.5 24.5t-58.5 -24.5t-23.5 -59.5t23.5 -59t58.5 -24z" />
    <glyph glyph-name="ae" unicode="&#xe6;" horiz-adv-x="912" 
d="M253 -10q-108 0 -165.5 48.5t-57.5 124.5q0 75 52.5 125t149.5 50h96q-2 18 -20.5 33.5t-49.5 15.5q-48 0 -91 -25l-118 102q96 94 238 94q113 0 176 -50q68 50 147 50q109 0 185.5 -82t76.5 -197q0 -37 -7 -76h-307q4 -22 24.5 -38t47.5 -16q54 0 93 31l134 -87
q-37 -48 -101 -75.5t-128 -27.5q-110 0 -185 67q-77 -67 -190 -67zM548 338h119q-11 51 -59 51q-46 0 -60 -51zM267 139q27 0 44 15t17 37v12h-61q-37 0 -37 -33q0 -13 10.5 -22t26.5 -9z" />
    <glyph glyph-name="ccedilla" unicode="&#xe7;" horiz-adv-x="555" 
d="M269 -220q-68 0 -104 18l35 99q18 -8 50 -8q29 0 29 10q0 12 -28 12h-36l21 86q-94 24 -155 101t-61 176q0 117 83 200.5t201 83.5q71 0 132 -32.5t101 -87.5l-169 -112q-26 24 -64 24q-33 0 -54.5 -22t-21.5 -54q0 -33 21.5 -55t54.5 -22q44 0 67 32l169 -114
q-32 -47 -80 -79t-105 -42l-10 -32q53 -19 53 -77q0 -42 -39 -73.5t-90 -31.5z" />
    <glyph glyph-name="egrave" unicode="&#xe8;" 
d="M359 630h-120l-108 180h180zM319 -11q-132 0 -215.5 82.5t-83.5 202.5q0 117 83 200.5t201 83.5t201.5 -83.5t83.5 -200.5q0 -29 -5 -62h-343q27 -63 91 -63q49 0 93 33l139 -89q-39 -48 -108 -76t-137 -28zM236 342h145q-17 61 -72 61t-73 -61z" />
    <glyph glyph-name="eacute" unicode="&#xe9;" 
d="M351 630h-120l48 180h180zM319 -11q-132 0 -215.5 82.5t-83.5 202.5q0 117 83 200.5t201 83.5t201.5 -83.5t83.5 -200.5q0 -29 -5 -62h-343q27 -63 91 -63q49 0 93 33l139 -89q-39 -48 -108 -76t-137 -28zM236 342h145q-17 61 -72 61t-73 -61z" />
    <glyph glyph-name="ecircumflex" unicode="&#xea;" 
d="M273 650h-148l102 140h156l102 -140h-148l-32 44zM319 -11q-132 0 -215.5 82.5t-83.5 202.5q0 117 83 200.5t201 83.5t201.5 -83.5t83.5 -200.5q0 -29 -5 -62h-343q27 -63 91 -63q49 0 93 33l139 -89q-39 -48 -108 -76t-137 -28zM236 342h145q-17 61 -72 61t-73 -61z" />
    <glyph glyph-name="edieresis" unicode="&#xeb;" 
d="M200 635q-35 0 -60 24.5t-25 60.5t25 60.5t60 24.5t60 -24.5t25 -60.5t-25 -60.5t-60 -24.5zM410 635q-35 0 -60 24.5t-25 60.5t25 60.5t60 24.5t60 -24.5t25 -60.5t-25 -60.5t-60 -24.5zM319 -11q-132 0 -215.5 82.5t-83.5 202.5q0 117 83 200.5t201 83.5t201.5 -83.5
t83.5 -200.5q0 -29 -5 -62h-343q27 -63 91 -63q49 0 93 33l139 -89q-39 -48 -108 -76t-137 -28zM236 342h145q-17 61 -72 61t-73 -61z" />
    <glyph glyph-name="igrave" unicode="&#xec;" horiz-adv-x="285" 
d="M238 630h-120l-108 180h180zM245 0h-205v550h205v-550z" />
    <glyph glyph-name="iacute" unicode="&#xed;" horiz-adv-x="285" 
d="M197 630h-120l48 180h180zM245 0h-205v551l205 -1v-550z" />
    <glyph glyph-name="icircumflex" unicode="&#xee;" horiz-adv-x="285" 
d="M111 650h-148l102 140h156l102 -140h-148l-32 44zM245 0h-205v550h205v-550z" />
    <glyph glyph-name="idieresis" unicode="&#xef;" horiz-adv-x="285" 
d="M48 650q-29 0 -49.5 20t-20.5 50t20.5 50t49.5 20t49.5 -20t20.5 -50t-20.5 -50t-49.5 -20zM237 650q-29 0 -49.5 20t-20.5 50t20.5 50t49.5 20t49.5 -20t20.5 -50t-20.5 -50t-49.5 -20zM245 0h-205v550h205v-550z" />
    <glyph glyph-name="eth" unicode="&#xf0;" horiz-adv-x="532" 
d="M255 -11q-97 0 -166 68.5t-69 165.5q0 95 69 161t166 66q13 0 19 -1q-15 34 -47 71l-104 -55l-47 88l68 36q-34 22 -91 48l124 143q87 -33 154 -91l102 54l47 -89l-78 -41q92 -119 107 -275q16 -167 -56 -258t-198 -91zM254 182q16 0 28 12t12 29t-12 29t-28 12
t-28.5 -12t-12.5 -29t12.5 -29t28.5 -12z" />
    <glyph glyph-name="ntilde" unicode="&#xf1;" horiz-adv-x="588" 
d="M352 641q-31 0 -54.5 13.5t-36 26.5t-18.5 12q-11 -2 -11 -36h-120q0 59 27 101t83 42q32 0 56 -13.5t36 -26t17 -12.5q11 2 11 36h120q0 -65 -26.5 -104t-83.5 -39zM235 0h-205v550h185l14 -55q52 67 124 67q205 0 205 -280v-282h-205v282q0 39 -17.5 58.5t-41.5 19.5
t-41.5 -19.5t-17.5 -58.5v-282z" />
    <glyph glyph-name="ograve" unicode="&#xf2;" 
d="M374 630h-120l-108 180h180zM304 -11q-118 0 -201 83.5t-83 201.5q0 117 83 200.5t201 83.5t201.5 -83.5t83.5 -200.5q0 -118 -83.5 -201.5t-201.5 -83.5zM304 197q33 0 55 22.5t22 54.5t-22 54t-55 22t-54.5 -22t-21.5 -54q0 -33 21.5 -55t54.5 -22z" />
    <glyph glyph-name="oacute" unicode="&#xf3;" 
d="M352 630h-120l48 180h180zM304 -11q-118 0 -201 83.5t-83 201.5q0 117 83 200.5t201 83.5t201.5 -83.5t83.5 -200.5q0 -118 -83.5 -201.5t-201.5 -83.5zM304 197q33 0 55 22.5t22 54.5t-22 54t-55 22t-54.5 -22t-21.5 -54q0 -33 21.5 -55t54.5 -22z" />
    <glyph glyph-name="ocircumflex" unicode="&#xf4;" 
d="M275 650h-148l102 140h156l102 -140h-148l-32 44zM304 -11q-118 0 -201 83.5t-83 201.5q0 117 83 200.5t201 83.5t201.5 -83.5t83.5 -200.5q0 -118 -83.5 -201.5t-201.5 -83.5zM304 197q33 0 55 22.5t22 54.5t-22 54t-55 22t-54.5 -22t-21.5 -54q0 -33 21.5 -55t54.5 -22
z" />
    <glyph glyph-name="otilde" unicode="&#xf5;" 
d="M370 641q-24 0 -44.5 8.5t-30.5 18.5t-19 18t-15 7q-11 -2 -11 -36h-120q0 59 27 101t83 42q32 0 56 -13.5t36 -26.5t17 -12q11 2 11 36h120q0 -65 -26.5 -104t-83.5 -39zM304 -11q-118 0 -201 83.5t-83 201.5q0 117 83 200.5t201 83.5t201.5 -83.5t83.5 -200.5
q0 -118 -83.5 -201.5t-201.5 -83.5zM304 197q33 0 55 22.5t22 54.5t-22 54t-55 22t-54.5 -22t-21.5 -54q0 -33 21.5 -55t54.5 -22z" />
    <glyph glyph-name="odieresis" unicode="&#xf6;" 
d="M200 635q-35 0 -60 24.5t-25 60.5t25 60.5t60 24.5t60 -24.5t25 -60.5t-25 -60.5t-60 -24.5zM410 635q-35 0 -60 24.5t-25 60.5t25 60.5t60 24.5t60 -24.5t25 -60.5t-25 -60.5t-60 -24.5zM304 -11q-118 0 -201 83.5t-83 201.5q0 117 83 200.5t201 83.5t201.5 -83.5
t83.5 -200.5q0 -118 -83.5 -201.5t-201.5 -83.5zM304 197q33 0 55 22.5t22 54.5t-22 54t-55 22t-54.5 -22t-21.5 -54q0 -33 21.5 -55t54.5 -22z" />
    <glyph glyph-name="divide" unicode="&#xf7;" horiz-adv-x="520" 
d="M260 485q-44 0 -75 31t-31 75t31 75t75 31t74.5 -31t30.5 -75t-30.5 -75t-74.5 -31zM490 295h-460v140h460v-140zM260 33q-44 0 -75 31t-31 75t31 75t75 31t74.5 -31t30.5 -75t-30.5 -75t-74.5 -31z" />
    <glyph glyph-name="oslash" unicode="&#xf8;" horiz-adv-x="632" 
d="M316 -11q-84 0 -152 45l-67 -67l-87 86l67 67q-45 71 -45 154q0 117 83 200.5t201 83.5q84 0 154 -46l66 66l86 -86l-66 -66q45 -68 45 -152q0 -118 -83.5 -201.5t-201.5 -83.5zM316 378q-44 0 -73.5 -30.5t-29.5 -73.5q0 -12 1 -17l120 119q-12 2 -18 2zM316 169
q44 0 74.5 30.5t30.5 74.5q0 11 -1 16l-120 -120q5 -1 16 -1z" />
    <glyph glyph-name="ugrave" unicode="&#xf9;" horiz-adv-x="603" 
d="M372 630h-120l-108 180h180zM240 -12q-205 0 -205 280v282h205v-282q0 -39 17.5 -58.5t41.5 -19.5t41.5 19.5t17.5 58.5v282h205v-550h-185l-14 55q-52 -67 -124 -67z" />
    <glyph glyph-name="uacute" unicode="&#xfa;" horiz-adv-x="603" 
d="M365 639h-120l48 180h180zM240 -12q-205 0 -205 280v282h205v-282q0 -39 17.5 -58.5t41.5 -19.5t41.5 19.5t17.5 58.5v282h205v-550h-185l-14 55q-52 -67 -124 -67z" />
    <glyph glyph-name="ucircumflex" unicode="&#xfb;" horiz-adv-x="603" 
d="M267 650h-148l102 140h156l102 -140h-148l-32 44zM240 -12q-205 0 -205 280v282h205v-282q0 -39 17.5 -58.5t41.5 -19.5t41.5 19.5t17.5 58.5v282h205v-550h-185l-14 55q-52 -67 -124 -67z" />
    <glyph glyph-name="udieresis" unicode="&#xfc;" horiz-adv-x="603" 
d="M194 635q-35 0 -60 24.5t-25 60.5t25 60.5t60 24.5t60 -24.5t25 -60.5t-25 -60.5t-60 -24.5zM404 635q-35 0 -60 24.5t-25 60.5t25 60.5t60 24.5t60 -24.5t25 -60.5t-25 -60.5t-60 -24.5zM240 -12q-205 0 -205 280v282h205v-282q0 -39 17.5 -58.5t41.5 -19.5t41.5 19.5
t17.5 58.5v282h205v-550h-185l-14 55q-52 -67 -124 -67z" />
    <glyph glyph-name="yacute" unicode="&#xfd;" horiz-adv-x="571" 
d="M332 630h-120l48 180h180zM118 -236q-66 0 -118 20l55 180q26 -7 52 -7q32 0 59 16.5t35 54.5l-199 522h220l68 -240l63 240h218l-169 -550q-40 -129 -111 -182.5t-173 -53.5z" />
    <glyph glyph-name="thorn" unicode="&#xfe;" horiz-adv-x="647" 
d="M265 -220h-205v1000h205v-246q39 24 96 24q110 0 188 -83.5t78 -200.5q0 -118 -78 -201.5t-188 -83.5q-57 0 -96 24v-233zM342 195q33 0 56 23t23 56q0 32 -23 55t-56 23t-55 -22.5t-22 -55.5t22 -56t55 -23z" />
    <glyph glyph-name="ydieresis" unicode="&#xff;" horiz-adv-x="571" 
d="M181 635q-35 0 -60 24.5t-25 60.5t25 60.5t60 24.5t60 -24.5t25 -60.5t-25 -60.5t-60 -24.5zM391 635q-35 0 -60 24.5t-25 60.5t25 60.5t60 24.5t60 -24.5t25 -60.5t-25 -60.5t-60 -24.5zM118 -236q-66 0 -118 20l55 180q26 -7 52 -7q67 0 81 43l-186 550h220l68 -240
l63 240h218l-169 -550q-40 -129 -111 -182.5t-173 -53.5z" />
    <glyph glyph-name="Amacron" unicode="&#x100;" horiz-adv-x="669" 
d="M530 810h-390v160h390v-160zM232 0h-242l227 730h235l227 -730h-242l-21 86h-164zM334 429l-36 -153h73z" />
    <glyph glyph-name="amacron" unicode="&#x101;" horiz-adv-x="639" 
d="M535 640h-390v160h390v-160zM268 -8q-103 0 -175.5 83.5t-72.5 200.5q0 118 72.5 201.5t175.5 83.5q80 0 133 -65l13 54h185v-550h-185l-14 57q-51 -65 -132 -65zM310 193q35 0 59.5 24t24.5 59t-24.5 59.5t-59.5 24.5t-58.5 -24.5t-23.5 -59.5t23.5 -59t58.5 -24z" />
    <glyph glyph-name="Abreve" unicode="&#x102;" horiz-adv-x="669" 
d="M331 817q-65 0 -110 41.5t-45 104.5h104q0 -20 14 -31.5t37 -11.5t37.5 11.5t14.5 31.5h103q0 -63 -45 -104.5t-110 -41.5zM232 0h-242l227 730h235l227 -730h-242l-21 86h-164zM334 429l-36 -153h73z" />
    <glyph glyph-name="abreve" unicode="&#x103;" horiz-adv-x="639" 
d="M325 647q-65 0 -110 41.5t-45 104.5h104q0 -20 14 -31.5t37 -11.5t37.5 11.5t14.5 31.5h103q0 -63 -45 -104.5t-110 -41.5zM268 -8q-103 0 -175.5 83.5t-72.5 200.5q0 118 72.5 201.5t175.5 83.5q80 0 133 -65l13 54h185v-550h-185l-14 57q-51 -65 -132 -65zM310 193
q35 0 59.5 24t24.5 59t-24.5 59.5t-59.5 24.5t-58.5 -24.5t-23.5 -59.5t23.5 -59t58.5 -24z" />
    <glyph glyph-name="Aogonek" unicode="&#x104;" horiz-adv-x="668" 
d="M626 -220q-38 0 -65.5 27.5t-27.5 70.5q0 54 47 122h-143l-21 86h-164l-20 -86h-242l227 730h235l227 -730q-27 -39 -33 -50.5t-6 -29.5q0 -19 14 -19q7 0 13 6l46 -76q-10 -22 -34.5 -36.5t-52.5 -14.5zM334 429l-36 -153h73z" />
    <glyph glyph-name="aogonek" unicode="&#x105;" horiz-adv-x="639" 
d="M509 -209q-38 0 -65.5 27.5t-27.5 70.5q0 10 1 19t4.5 18.5t5 14.5t8 16t8 13.5t10 15t9.5 14.5h-48l-14 57q-51 -65 -132 -65q-103 0 -175.5 83.5t-72.5 200.5q0 118 72.5 201.5t175.5 83.5q80 0 133 -65l13 54h185v-550h-41q-5 -8 -16 -24t-15 -25.5t-4 -19.5
q0 -19 14 -19q7 0 13 6l46 -76q-10 -22 -34.5 -36.5t-52.5 -14.5zM310 193q35 0 59.5 24t24.5 59t-24.5 59.5t-59.5 24.5t-58.5 -24.5t-23.5 -59.5t23.5 -59t58.5 -24z" />
    <glyph glyph-name="Cacute" unicode="&#x106;" horiz-adv-x="747" 
d="M442 800h-120l48 180h180zM413 -19q-159 0 -271 112.5t-112 271.5q0 158 112 270t271 112q89 0 167.5 -39t132.5 -106l-183 -135q-47 54 -117 54q-64 0 -110.5 -46t-46.5 -110q0 -65 46 -111.5t111 -46.5q68 0 113 50l196 -118q-54 -73 -134.5 -115.5t-174.5 -42.5z" />
    <glyph glyph-name="cacute" unicode="&#x107;" horiz-adv-x="555" 
d="M341 630h-120l48 180h180zM304 -11q-118 0 -201 83.5t-83 201.5q0 117 83 200.5t201 83.5q71 0 132 -32.5t101 -87.5l-169 -112q-26 24 -64 24q-33 0 -54.5 -22t-21.5 -54q0 -33 21.5 -55t54.5 -22q44 0 67 32l169 -114q-39 -58 -101.5 -92t-134.5 -34z" />
    <glyph glyph-name="Ccircumflex" unicode="&#x108;" horiz-adv-x="747" 
d="M378 820h-148l102 140h156l102 -140h-148l-32 44zM413 -19q-159 0 -271 112.5t-112 271.5q0 158 112 270t271 112q89 0 167.5 -39t132.5 -106l-183 -135q-47 54 -117 54q-64 0 -110.5 -46t-46.5 -110q0 -65 46 -111.5t111 -46.5q68 0 113 50l196 -118
q-54 -73 -134.5 -115.5t-174.5 -42.5z" />
    <glyph glyph-name="ccircumflex" unicode="&#x109;" horiz-adv-x="555" 
d="M270 650h-148l102 140h156l102 -140h-148l-32 44zM304 -11q-118 0 -201 83.5t-83 201.5q0 117 83 200.5t201 83.5q71 0 132 -32.5t101 -87.5l-169 -112q-26 24 -64 24q-33 0 -54.5 -22t-21.5 -54q0 -33 21.5 -55t54.5 -22q44 0 67 32l169 -114q-39 -58 -101.5 -92
t-134.5 -34z" />
    <glyph glyph-name="Cdotaccent" unicode="&#x10a;" horiz-adv-x="747" 
d="M387 784q-44 0 -75 31t-31 75t31 75t75 31t74.5 -31t30.5 -75t-30.5 -75t-74.5 -31zM413 -19q-159 0 -271 112.5t-112 271.5q0 158 112 270t271 112q89 0 167.5 -39t132.5 -106l-183 -135q-47 54 -117 54q-64 0 -110.5 -46t-46.5 -110q0 -65 46 -111.5t111 -46.5
q68 0 113 50l196 -118q-54 -73 -134.5 -115.5t-174.5 -42.5z" />
    <glyph glyph-name="cdotaccent" unicode="&#x10b;" horiz-adv-x="555" 
d="M286 614q-44 0 -75 31t-31 75t31 75t75 31t74.5 -31t30.5 -75t-30.5 -75t-74.5 -31zM304 -11q-118 0 -201 83.5t-83 201.5q0 117 83 200.5t201 83.5q71 0 132 -32.5t101 -87.5l-169 -112q-26 24 -64 24q-33 0 -54.5 -22t-21.5 -54q0 -33 21.5 -55t54.5 -22q44 0 67 32
l169 -114q-39 -58 -101.5 -92t-134.5 -34z" />
    <glyph glyph-name="Ccaron" unicode="&#x10c;" horiz-adv-x="747" 
d="M484 820h-156l-102 140h148l32 -44l32 44h148zM413 -19q-159 0 -271 112.5t-112 271.5q0 158 112 270t271 112q89 0 167.5 -39t132.5 -106l-183 -135q-47 54 -117 54q-64 0 -110.5 -46t-46.5 -110q0 -65 46 -111.5t111 -46.5q68 0 113 50l196 -118q-54 -73 -134.5 -115.5
t-174.5 -42.5z" />
    <glyph glyph-name="ccaron" unicode="&#x10d;" horiz-adv-x="555" 
d="M363 650h-156l-102 140h148l32 -44l32 44h148zM304 -11q-118 0 -201 83.5t-83 201.5q0 117 83 200.5t201 83.5q71 0 132 -32.5t101 -87.5l-169 -112q-26 24 -64 24q-33 0 -54.5 -22t-21.5 -54q0 -33 21.5 -55t54.5 -22q44 0 67 32l169 -114q-39 -58 -101.5 -92
t-134.5 -34z" />
    <glyph glyph-name="Dcaron" unicode="&#x10e;" horiz-adv-x="720" 
d="M355 820h-156l-102 140h148l32 -44l32 44h148zM304 0h-254v730h254q169 0 277.5 -104t108.5 -261q0 -158 -108 -261.5t-278 -103.5zM270 514v-299h34q71 0 113.5 42.5t42.5 107.5t-42.5 107.5t-113.5 42.5z" />
    <glyph glyph-name="dcaron" unicode="&#x10f;" horiz-adv-x="821" 
d="M268 -8q-103 0 -175.5 83.5t-72.5 200.5q0 118 72.5 201.5t175.5 83.5q76 0 126 -57v276h205v-780h-185l-14 57q-51 -65 -132 -65zM796 510h-130l-25 270h180zM310 193q35 0 59.5 24t24.5 59t-24.5 59.5t-59.5 24.5t-58.5 -24.5t-23.5 -59.5t23.5 -59t58.5 -24z" />
    <glyph glyph-name="Dcroat" unicode="&#x110;" horiz-adv-x="730" 
d="M314 0h-254v285h-50v160h50v285h254q169 0 277.5 -104t108.5 -261q0 -158 -108 -261.5t-278 -103.5zM280 285v-70h34q71 0 113.5 42.5t42.5 107.5t-42.5 107.5t-113.5 42.5l-34 -1v-69h110l1 -160h-111z" />
    <glyph glyph-name="dcroat" unicode="&#x111;" horiz-adv-x="639" 
d="M268 -8q-103 0 -175.5 83.5t-72.5 200.5q0 118 72.5 201.5t175.5 83.5q76 0 126 -57v93h-125v120h125v63h205v-63h60v-120h-60v-597h-185l-14 57q-51 -65 -132 -65zM310 193q35 0 59.5 24t24.5 59t-24.5 59.5t-59.5 24.5t-58.5 -24.5t-23.5 -59.5t23.5 -59t58.5 -24z" />
    <glyph glyph-name="Emacron" unicode="&#x112;" horiz-adv-x="566" 
d="M488 810h-390v160h390v-160zM536 0h-486v730h476v-200h-257v-60h237v-196h-237v-64h267v-210z" />
    <glyph glyph-name="emacron" unicode="&#x113;" horiz-adv-x="629" 
d="M510 640h-390v160h390v-160zM329 -11q-132 0 -215.5 82.5t-83.5 202.5q0 117 83 200.5t201 83.5t201.5 -83.5t83.5 -200.5q0 -29 -5 -62h-343q27 -63 91 -63q49 0 93 33l139 -89q-39 -48 -108 -76t-137 -28zM246 342h145q-17 61 -72 61t-73 -61z" />
    <glyph glyph-name="Ebreve" unicode="&#x114;" horiz-adv-x="566" 
d="M280 817q-65 0 -110 41.5t-45 104.5h104q0 -20 14 -31.5t37 -11.5t37.5 11.5t14.5 31.5h103q0 -63 -45 -104.5t-110 -41.5zM536 0h-486v730h476v-200h-257v-60h237v-196h-237v-64h267v-210z" />
    <glyph glyph-name="ebreve" unicode="&#x115;" 
d="M303 647q-65 0 -110 41.5t-45 104.5h104q0 -20 14 -31.5t37 -11.5t37.5 11.5t14.5 31.5h103q0 -63 -45 -104.5t-110 -41.5zM319 -11q-132 0 -215.5 82.5t-83.5 202.5q0 117 83 200.5t201 83.5t201.5 -83.5t83.5 -200.5q0 -29 -5 -62h-343q27 -63 91 -63q49 0 93 33
l139 -89q-39 -48 -108 -76t-137 -28zM236 342h145q-17 61 -72 61t-73 -61z" />
    <glyph glyph-name="Edotaccent" unicode="&#x116;" horiz-adv-x="566" 
d="M294 784q-44 0 -75 31t-31 75t31 75t75 31t74.5 -31t30.5 -75t-30.5 -75t-74.5 -31zM536 0h-486v730h476v-200h-257v-60h237v-196h-237v-64h267v-210z" />
    <glyph glyph-name="edotaccent" unicode="&#x117;" 
d="M305 614q-44 0 -75 31t-31 75t31 75t75 31t74.5 -31t30.5 -75t-30.5 -75t-74.5 -31zM319 -11q-132 0 -215.5 82.5t-83.5 202.5q0 117 83 200.5t201 83.5t201.5 -83.5t83.5 -200.5q0 -29 -5 -62h-343q27 -63 91 -63q49 0 93 33l139 -89q-39 -48 -108 -76t-137 -28z
M236 342h145q-17 61 -72 61t-73 -61z" />
    <glyph glyph-name="Eogonek" unicode="&#x118;" horiz-adv-x="566" 
d="M486 -220q-38 0 -65.5 27.5t-27.5 70.5q0 54 47 122h-390v730h476v-200h-257v-60h237v-196h-237v-64h267v-210q-36 -60 -36 -80q0 -19 14 -19q7 0 13 6l46 -76q-10 -22 -34.5 -36.5t-52.5 -14.5z" />
    <glyph glyph-name="eogonek" unicode="&#x119;" horiz-adv-x="621" 
d="M514 -127q-38 0 -65.5 27.5t-27.5 70.5q0 20 4 35q-54 -17 -106 -17q-132 0 -215.5 82.5t-83.5 202.5q0 117 83 200.5t201 83.5t201.5 -83.5t83.5 -200.5q0 -29 -5 -62h-343q27 -63 91 -63q49 0 93 33l139 -89q-36 -60 -36 -80q0 -19 14 -19q7 0 13 6l46 -76
q-10 -22 -34.5 -36.5t-52.5 -14.5zM236 342h145q-17 61 -72 61t-73 -61z" />
    <glyph glyph-name="Ecaron" unicode="&#x11a;" horiz-adv-x="566" 
d="M380 820h-156l-102 140h148l32 -44l32 44h148zM536 0h-486v730h476v-200h-257v-60h237v-196h-237v-64h267v-210z" />
    <glyph glyph-name="ecaron" unicode="&#x11b;" 
d="M383 650h-156l-102 140h148l32 -44l32 44h148zM319 -11q-132 0 -215.5 82.5t-83.5 202.5q0 117 83 200.5t201 83.5t201.5 -83.5t83.5 -200.5q0 -29 -5 -62h-343q27 -63 91 -63q49 0 93 33l139 -89q-39 -48 -108 -76t-137 -28zM236 342h145q-17 61 -72 61t-73 -61z" />
    <glyph glyph-name="Gcircumflex" unicode="&#x11c;" horiz-adv-x="815" 
d="M374 820h-148l102 140h156l102 -140h-148l-32 44zM413 -19q-159 0 -271 112.5t-112 271.5q0 158 112 270t271 112q90 0 169.5 -40t133.5 -109l-198 -119q-44 42 -105 42q-64 0 -110.5 -46t-46.5 -110q0 -65 46 -111.5t111 -46.5q81 0 116 46h-152v200h398q10 -47 10 -88
q0 -173 -103 -278.5t-269 -105.5z" />
    <glyph glyph-name="gcircumflex" unicode="&#x11d;" horiz-adv-x="639" 
d="M278 650h-148l102 140h156l102 -140h-148l-32 44zM281 -239q-69 0 -135.5 30t-106.5 83l133 103q41 -36 103 -36q52 0 85.5 27.5t33.5 63.5v18q-51 -58 -126 -58q-103 0 -175.5 83.5t-72.5 200.5q0 118 72.5 201.5t175.5 83.5q80 0 133 -65l13 54h185v-464
q0 -155 -84.5 -240t-233.5 -85zM310 193q35 0 59.5 24t24.5 59t-24.5 59.5t-59.5 24.5t-58.5 -24.5t-23.5 -59.5t23.5 -59t58.5 -24z" />
    <glyph glyph-name="Gbreve" unicode="&#x11e;" horiz-adv-x="815" 
d="M408 817q-65 0 -110 41.5t-45 104.5h104q0 -20 14 -31.5t37 -11.5t37.5 11.5t14.5 31.5h103q0 -63 -45 -104.5t-110 -41.5zM413 -19q-159 0 -271 112.5t-112 271.5q0 158 112 270t271 112q90 0 169.5 -40t133.5 -109l-198 -119q-44 42 -105 42q-64 0 -110.5 -46
t-46.5 -110q0 -65 46 -111.5t111 -46.5q81 0 116 46h-152v200h398q10 -47 10 -88q0 -173 -103 -278.5t-269 -105.5z" />
    <glyph glyph-name="gbreve" unicode="&#x11f;" horiz-adv-x="639" 
d="M305 647q-65 0 -110 41.5t-45 104.5h104q0 -20 14 -31.5t37 -11.5t37.5 11.5t14.5 31.5h103q0 -63 -45 -104.5t-110 -41.5zM281 -239q-69 0 -135.5 30t-106.5 83l133 103q41 -36 103 -36q52 0 85.5 27.5t33.5 63.5v18q-51 -58 -126 -58q-103 0 -175.5 83.5t-72.5 200.5
q0 118 72.5 201.5t175.5 83.5q80 0 133 -65l13 54h185v-464q0 -155 -84.5 -240t-233.5 -85zM310 193q35 0 59.5 24t24.5 59t-24.5 59.5t-59.5 24.5t-58.5 -24.5t-23.5 -59.5t23.5 -59t58.5 -24z" />
    <glyph glyph-name="Gdotaccent" unicode="&#x120;" horiz-adv-x="815" 
d="M408 784q-44 0 -75 31t-31 75t31 75t75 31t74.5 -31t30.5 -75t-30.5 -75t-74.5 -31zM413 -19q-159 0 -271 112.5t-112 271.5q0 158 112 270t271 112q90 0 169.5 -40t133.5 -109l-198 -119q-44 42 -105 42q-64 0 -110.5 -46t-46.5 -110q0 -65 46 -111.5t111 -46.5
q81 0 116 46h-152v200h398q10 -47 10 -88q0 -173 -103 -278.5t-269 -105.5z" />
    <glyph glyph-name="gdotaccent" unicode="&#x121;" horiz-adv-x="639" 
d="M305 614q-44 0 -75 31t-31 75t31 75t75 31t74.5 -31t30.5 -75t-30.5 -75t-74.5 -31zM281 -239q-69 0 -135.5 30t-106.5 83l133 103q41 -36 103 -36q52 0 85.5 27.5t33.5 63.5v18q-51 -58 -126 -58q-103 0 -175.5 83.5t-72.5 200.5q0 118 72.5 201.5t175.5 83.5
q80 0 133 -65l13 54h185v-464q0 -155 -84.5 -240t-233.5 -85zM310 193q35 0 59.5 24t24.5 59t-24.5 59.5t-59.5 24.5t-58.5 -24.5t-23.5 -59.5t23.5 -59t58.5 -24z" />
    <glyph glyph-name="uni0122" unicode="&#x122;" horiz-adv-x="815" 
d="M413 -19q-159 0 -271 112.5t-112 271.5q0 158 112 270t271 112q90 0 169.5 -40t133.5 -109l-198 -119q-44 42 -105 42q-64 0 -110.5 -46t-46.5 -110q0 -65 46 -111.5t111 -46.5q81 0 116 46h-152v200h398q10 -47 10 -88q0 -173 -103 -278.5t-269 -105.5zM460 -237h-151
l17 183h180z" />
    <glyph glyph-name="uni0123" unicode="&#x123;" horiz-adv-x="639" 
d="M404 654h-180l46 183h151zM281 -239q-69 0 -135.5 30t-106.5 83l133 103q41 -36 103 -36q52 0 85.5 27.5t33.5 63.5v18q-51 -58 -126 -58q-103 0 -175.5 83.5t-72.5 200.5q0 118 72.5 201.5t175.5 83.5q80 0 133 -65l13 54h185v-464q0 -155 -84.5 -240t-233.5 -85z
M310 193q35 0 59.5 24t24.5 59t-24.5 59.5t-59.5 24.5t-58.5 -24.5t-23.5 -59.5t23.5 -59t58.5 -24z" />
    <glyph glyph-name="Hcircumflex" unicode="&#x124;" horiz-adv-x="700" 
d="M324 820h-148l102 140h156l102 -140h-148l-32 44zM270 0h-220v730h220v-262h160v262h220v-730h-220v248h-160v-248z" />
    <glyph glyph-name="hcircumflex" unicode="&#x125;" horiz-adv-x="603" 
d="M188 820h-148l102 140h156l102 -140h-148l-32 44zM245 0h-205v780h205v-278q50 60 118 60q205 0 205 -280v-282h-205v282q0 39 -17.5 58.5t-41.5 19.5t-41.5 -19.5t-17.5 -58.5v-282z" />
    <glyph glyph-name="Hbar" unicode="&#x126;" horiz-adv-x="710" 
d="M278 0h-220v529h-58v130h58v71h220v-71h160v71h220v-71h52v-130h-52v-529h-220v248h-160v-248zM278 529v-61h160v61h-160z" />
    <glyph glyph-name="hbar" unicode="&#x127;" horiz-adv-x="603" 
d="M245 0h-205v591h-57v130h57v59h205v-59h134v-130h-134v-89q50 60 118 60q205 0 205 -280v-282h-205v282q0 39 -17.5 58.5t-41.5 19.5t-41.5 -19.5t-17.5 -58.5v-282z" />
    <glyph glyph-name="Itilde" unicode="&#x128;" horiz-adv-x="320" 
d="M225 811q-24 0 -44.5 8.5t-30.5 18.5t-19 18t-15 7q-11 -2 -11 -36h-120q0 59 27 101t83 42q32 0 56 -13.5t36 -26.5t17 -12q11 2 11 36h120q0 -65 -26.5 -104t-83.5 -39zM270 0h-220v730h220v-730z" />
    <glyph glyph-name="itilde" unicode="&#x129;" horiz-adv-x="285" 
d="M207 641q-24 0 -44.5 8.5t-30.5 18.5t-19 18t-15 7q-11 -2 -11 -36h-120q0 59 27 101t83 42q32 0 56 -13.5t36 -26.5t17 -12q11 2 11 36h120q0 -65 -26.5 -104t-83.5 -39zM245 0h-205v550h205v-550z" />
    <glyph glyph-name="Imacron" unicode="&#x12a;" horiz-adv-x="320" 
d="M355 810h-390v160h390v-160zM270 0h-220v730h220v-730z" />
    <glyph glyph-name="imacron" unicode="&#x12b;" horiz-adv-x="285" 
d="M318 640h-350v160h350v-160zM245 0h-205v550h205v-550z" />
    <glyph glyph-name="Ibreve" unicode="&#x12c;" horiz-adv-x="320" 
d="M160 817q-65 0 -110 41.5t-45 104.5h104q0 -20 14 -31.5t37 -11.5t37.5 11.5t14.5 31.5h103q0 -63 -45 -104.5t-110 -41.5zM270 0h-220v730h220v-730z" />
    <glyph glyph-name="ibreve" unicode="&#x12d;" horiz-adv-x="285" 
d="M143 647q-65 0 -110 41.5t-45 104.5h104q0 -20 14 -31.5t37 -11.5t37.5 11.5t14.5 31.5h103q0 -63 -45 -104.5t-110 -41.5zM245 0h-205v550h205v-550z" />
    <glyph glyph-name="Iogonek" unicode="&#x12e;" horiz-adv-x="320" 
d="M220 -220q-38 0 -65.5 27.5t-27.5 70.5q0 54 47 122h-124v730h220v-730q-36 -60 -36 -80q0 -19 14 -19q7 0 13 6l46 -76q-10 -22 -34.5 -36.5t-52.5 -14.5z" />
    <glyph glyph-name="iogonek" unicode="&#x12f;" horiz-adv-x="285" 
d="M143 576q-45 0 -77 32t-32 77q0 46 32 78t77 32t77 -32t32 -78q0 -45 -32 -77t-77 -32zM195 -220q-38 0 -65.5 27.5t-27.5 70.5q0 54 47 122h-109v550h205v-550q-36 -60 -36 -80q0 -19 14 -19q7 0 13 6l46 -76q-10 -22 -34.5 -36.5t-52.5 -14.5z" />
    <glyph glyph-name="Idotaccent" unicode="&#x130;" horiz-adv-x="320" 
d="M165 784q-44 0 -75 31t-31 75t31 75t75 31t74.5 -31t30.5 -75t-30.5 -75t-74.5 -31zM270 0h-220v730h220v-730z" />
    <glyph glyph-name="dotlessi" unicode="&#x131;" horiz-adv-x="285" 
d="M245 0h-205v550h205v-550z" />
    <glyph glyph-name="IJ" unicode="&#x132;" horiz-adv-x="856" 
d="M270 0h-220v730h220v-730zM530 -11q-76 0 -139 34.5t-101 97.5l165 127q29 -44 74 -44q67 0 67 91v435h220v-435q0 -144 -79 -225t-207 -81z" />
    <glyph glyph-name="ij" unicode="&#x133;" horiz-adv-x="639" 
d="M143 576q-45 0 -77 32t-32 77q0 46 32 78t77 32t77 -32t32 -78q0 -45 -32 -77t-77 -32zM496 576q-45 0 -77 32t-32 77q0 46 32 78t77 32t77 -32t32 -78q0 -45 -32 -77t-77 -32zM245 0h-205v550h205v-550zM350 -236q-66 0 -118 20l51 187q18 -5 33 -5q38 0 57.5 24.5
t19.5 84.5v475h205v-475q0 -88 -20 -151t-56.5 -97t-78.5 -48.5t-93 -14.5z" />
    <glyph glyph-name="Jcircumflex" unicode="&#x134;" horiz-adv-x="566" 
d="M344 820h-148l102 140h156l102 -140h-148l-32 44zM240 -11q-76 0 -139 34.5t-101 97.5l165 127q29 -44 74 -44q67 0 67 91v435h220v-435q0 -144 -79 -225t-207 -81z" />
    <glyph glyph-name="jcircumflex" unicode="&#x135;" horiz-adv-x="326" 
d="M136 650h-148l102 140h156l102 -140h-148l-32 44zM38 -236q-66 0 -118 20l51 187q18 -5 33 -5q38 0 57.5 24.5t19.5 84.5v475h205v-475q0 -88 -20 -151t-56.5 -97t-78.5 -48.5t-93 -14.5z" />
    <glyph glyph-name="uni0136" unicode="&#x136;" horiz-adv-x="650" 
d="M270 0h-220v730h220v-220l126 220h242l-204 -311l216 -419h-253l-98 213l-29 -43v-170zM393 -237h-151l17 183h180z" />
    <glyph glyph-name="uni0137" unicode="&#x137;" horiz-adv-x="597" 
d="M235 0h-195v780h195v-366l112 136h230l-193 -232l203 -318h-236l-96 163l-20 -24v-139zM321 -227h-151l17 183h180z" />
    <glyph glyph-name="kgreenlandic" unicode="&#x138;" horiz-adv-x="601" 
d="M235 0h-195v550h195v-116l92 116h250l-191 -230l205 -320h-249l-91 158l-16 -19v-139z" />
    <glyph glyph-name="Lacute" unicode="&#x139;" horiz-adv-x="556" 
d="M355 800h-120l48 180h180zM546 0h-496v730h220v-510h276v-220z" />
    <glyph glyph-name="lacute" unicode="&#x13a;" horiz-adv-x="285" 
d="M202 835h-120l48 180h180zM245 0h-205v780h205v-780z" />
    <glyph glyph-name="uni013B" unicode="&#x13b;" horiz-adv-x="556" 
d="M546 0h-496v730h220v-510h276v-220zM341 -237h-151l17 183h180z" />
    <glyph glyph-name="uni013C" unicode="&#x13c;" horiz-adv-x="285" 
d="M245 0h-205v780h205v-780zM185 -227h-151l17 183h180z" />
    <glyph glyph-name="Lcaron" unicode="&#x13d;" horiz-adv-x="584" 
d="M546 0h-496v730h220v-510h276v-220zM474 410h-130l50 320h180z" />
    <glyph glyph-name="lcaron" unicode="&#x13e;" horiz-adv-x="468" 
d="M245 0h-205v780h205v-780zM443 510h-130l-25 270h180z" />
    <glyph glyph-name="Ldot" unicode="&#x13f;" horiz-adv-x="556" 
d="M546 0h-496v730h220v-510h276v-220zM435 294q-44 0 -75 31t-31 75t31 75t75 31t74.5 -31t30.5 -75t-30.5 -75t-74.5 -31z" />
    <glyph glyph-name="ldot" unicode="&#x140;" horiz-adv-x="483" 
d="M245 0h-205v780h205v-780zM378 294q-44 0 -75 31t-31 75t31 75t75 31t74.5 -31t30.5 -75t-30.5 -75t-74.5 -31z" />
    <glyph glyph-name="Lslash" unicode="&#x141;" horiz-adv-x="566" 
d="M556 0h-496v262l-60 -35v138l60 35v330h220v-203l95 55v-139l-95 -55v-193h276v-195z" />
    <glyph glyph-name="lslash" unicode="&#x142;" horiz-adv-x="353" 
d="M279 0h-205v290l-64 -37v138l64 37v352h205v-233l64 37v-138l-64 -37v-409z" />
    <glyph glyph-name="Nacute" unicode="&#x143;" horiz-adv-x="740" 
d="M403 800h-120l48 180h180zM270 0h-220v730h220l200 -337v337h220v-730h-220l-200 337v-337z" />
    <glyph glyph-name="nacute" unicode="&#x144;" horiz-adv-x="603" 
d="M346 630h-120l48 180h180zM245 0h-205v550h185l14 -55q52 67 124 67q205 0 205 -280v-282h-205v282q0 39 -17.5 58.5t-41.5 19.5t-41.5 -19.5t-17.5 -58.5v-282z" />
    <glyph glyph-name="uni0145" unicode="&#x145;" horiz-adv-x="740" 
d="M270 0h-220v730h220l200 -337v337h220v-730h-220l-200 337v-337zM413 -227h-151l17 183h180z" />
    <glyph glyph-name="uni0146" unicode="&#x146;" horiz-adv-x="603" 
d="M245 0h-205v550h185l14 -55q52 67 124 67q205 0 205 -280v-282h-205v282q0 39 -17.5 58.5t-41.5 19.5t-41.5 -19.5t-17.5 -58.5v-282zM340 -227h-151l17 183h180z" />
    <glyph glyph-name="Ncaron" unicode="&#x147;" horiz-adv-x="740" 
d="M458 820h-156l-102 140h148l32 -44l32 44h148zM270 0h-220v730h220l200 -337v337h220v-730h-220l-200 337v-337z" />
    <glyph glyph-name="ncaron" unicode="&#x148;" horiz-adv-x="603" 
d="M382 650h-156l-102 140h148l32 -44l32 44h148zM245 0h-205v550h185l14 -55q52 67 124 67q205 0 205 -280v-282h-205v282q0 39 -17.5 58.5t-41.5 19.5t-41.5 -19.5t-17.5 -58.5v-282z" />
    <glyph glyph-name="napostrophe" unicode="&#x149;" horiz-adv-x="796" 
d="M130 364h-130l50 320h180zM438 0h-205v550h185l14 -55q52 67 124 67q205 0 205 -280v-282h-205v282q0 39 -17.5 58.5t-41.5 19.5t-41.5 -19.5t-17.5 -58.5v-282z" />
    <glyph glyph-name="Eng" unicode="&#x14a;" horiz-adv-x="740" 
d="M392 -207v215q40 0 59 21l-181 308v-337h-220v730h220l200 -336v336h220l-1 -650q-1 -137 -82.5 -212t-214.5 -75z" />
    <glyph glyph-name="eng" unicode="&#x14b;" horiz-adv-x="603" 
d="M285 -207v215q44 0 61 23t17 68v183q0 39 -17.5 58.5t-41.5 19.5t-41.5 -19.5t-17.5 -58.5v-282h-205v550h185l14 -55q52 67 124 67q205 0 205 -280v-220q-3 -134 -77.5 -201.5t-205.5 -67.5z" />
    <glyph glyph-name="Omacron" unicode="&#x14c;" horiz-adv-x="825" 
d="M608 810h-390v160h390v-160zM413 -19q-159 0 -271 112.5t-112 271.5q0 158 112 270t271 112q158 0 270 -112t112 -270q0 -159 -112 -271.5t-270 -112.5zM413 207q64 0 110 46.5t46 111.5q0 64 -46 110t-110 46t-110.5 -46t-46.5 -110q0 -65 46 -111.5t111 -46.5z" />
    <glyph glyph-name="omacron" unicode="&#x14d;" 
d="M500 640h-390v160h390v-160zM304 -11q-118 0 -201 83.5t-83 201.5q0 117 83 200.5t201 83.5t201.5 -83.5t83.5 -200.5q0 -118 -83.5 -201.5t-201.5 -83.5zM304 197q33 0 55 22.5t22 54.5t-22 54t-55 22t-54.5 -22t-21.5 -54q0 -33 21.5 -55t54.5 -22z" />
    <glyph glyph-name="Obreve" unicode="&#x14e;" horiz-adv-x="825" 
d="M408 817q-65 0 -110 41.5t-45 104.5h104q0 -20 14 -31.5t37 -11.5t37.5 11.5t14.5 31.5h103q0 -63 -45 -104.5t-110 -41.5zM413 -19q-159 0 -271 112.5t-112 271.5q0 158 112 270t271 112q158 0 270 -112t112 -270q0 -159 -112 -271.5t-270 -112.5zM413 207
q64 0 110 46.5t46 111.5q0 64 -46 110t-110 46t-110.5 -46t-46.5 -110q0 -65 46 -111.5t111 -46.5z" />
    <glyph glyph-name="obreve" unicode="&#x14f;" 
d="M297 647q-65 0 -110 41.5t-45 104.5h104q0 -20 14 -31.5t37 -11.5t37.5 11.5t14.5 31.5h103q0 -63 -45 -104.5t-110 -41.5zM304 -11q-118 0 -201 83.5t-83 201.5q0 117 83 200.5t201 83.5t201.5 -83.5t83.5 -200.5q0 -118 -83.5 -201.5t-201.5 -83.5zM304 197
q33 0 55 22.5t22 54.5t-22 54t-55 22t-54.5 -22t-21.5 -54q0 -33 21.5 -55t54.5 -22z" />
    <glyph glyph-name="Ohungarumlaut" unicode="&#x150;" horiz-adv-x="825" 
d="M334 794h-109l74 192h163zM553 794h-109l74 192h163zM413 -19q-159 0 -271 112.5t-112 271.5q0 158 112 270t271 112q158 0 270 -112t112 -270q0 -159 -112 -271.5t-270 -112.5zM413 207q64 0 110 46.5t46 111.5q0 64 -46 110t-110 46t-110.5 -46t-46.5 -110
q0 -65 46 -111.5t111 -46.5z" />
    <glyph glyph-name="ohungarumlaut" unicode="&#x151;" 
d="M216 624h-109l74 192h163zM435 624h-109l74 192h163zM304 -11q-118 0 -201 83.5t-83 201.5q0 117 83 200.5t201 83.5t201.5 -83.5t83.5 -200.5q0 -118 -83.5 -201.5t-201.5 -83.5zM304 197q33 0 55 22.5t22 54.5t-22 54t-55 22t-54.5 -22t-21.5 -54q0 -33 21.5 -55
t54.5 -22z" />
    <glyph glyph-name="OE" unicode="&#x152;" horiz-adv-x="1023" 
d="M413 -19q-159 0 -271 112.5t-112 271.5q0 158 112 270t271 112q56 0 112 -17h458v-200h-257v-58h237v-200h-237v-62h267v-210h-462q-59 -19 -118 -19zM413 207q52 0 94 32v250q-42 32 -94 32q-64 0 -110.5 -46t-46.5 -110q0 -65 46 -111.5t111 -46.5z" />
    <glyph glyph-name="oe" unicode="&#x153;" horiz-adv-x="972" 
d="M304 -11q-118 0 -201 83.5t-83 201.5q0 117 83 200.5t201 83.5q102 0 182 -66q79 66 181 66q118 0 201.5 -83.5t83.5 -200.5q0 -38 -7 -77h-328q25 -38 72 -38q49 0 92 26l146 -92q-39 -48 -108 -76t-137 -28q-114 0 -197 65q-80 -65 -181 -65zM607 357h121
q-15 41 -60 41q-44 0 -61 -41zM304 197q33 0 55 22.5t22 54.5t-22 54t-55 22t-54.5 -22t-21.5 -54q0 -33 21.5 -55t54.5 -22z" />
    <glyph glyph-name="Racute" unicode="&#x154;" horiz-adv-x="630" 
d="M346 793h-120l48 180h180zM270 0h-220v730h285q129 0 203.5 -72t74.5 -180q0 -65 -27.5 -119t-79.5 -88l124 -271h-248l-90 224h-22v-224zM270 515v-76h60q57 0 57 39q0 37 -57 37h-60z" />
    <glyph glyph-name="racute" unicode="&#x155;" horiz-adv-x="464" 
d="M251 630h-120l48 180h180zM245 0h-205v550h185l16 -62q49 67 146 67q29 0 62 -5l-42 -196q-5 1 -14 1q-21 0 -38.5 -2.5t-39 -12t-36 -25.5t-24.5 -46t-10 -71v-198z" />
    <glyph glyph-name="uni0156" unicode="&#x156;" horiz-adv-x="630" 
d="M270 0h-220v730h285q129 0 203.5 -72t74.5 -180q0 -65 -27.5 -119t-79.5 -88l124 -271h-248l-90 224h-22v-224zM270 515v-76h60q57 0 57 39q0 37 -57 37h-60zM355 -237h-151l17 183h180z" />
    <glyph glyph-name="uni0157" unicode="&#x157;" horiz-adv-x="464" 
d="M245 0h-205v550h185l16 -62q49 67 146 67q29 0 62 -5l-42 -196q-5 1 -14 1q-21 0 -38.5 -2.5t-39 -12t-36 -25.5t-24.5 -46t-10 -71v-198zM181 -227h-151l17 183h180z" />
    <glyph glyph-name="Rcaron" unicode="&#x158;" horiz-adv-x="630" 
d="M398 820h-156l-102 140h148l32 -44l32 44h148zM270 0h-220v730h285q129 0 203.5 -72t74.5 -180q0 -65 -27.5 -119t-79.5 -88l124 -271h-248l-90 224h-22v-224zM270 515v-76h60q57 0 57 39q0 37 -57 37h-60z" />
    <glyph glyph-name="rcaron" unicode="&#x159;" horiz-adv-x="464" 
d="M323 650h-156l-102 140h148l32 -44l32 44h148zM245 0h-205v550h185l16 -62q49 67 146 67q29 0 62 -5l-42 -196q-5 1 -14 1q-21 0 -38.5 -2.5t-39 -12t-36 -25.5t-24.5 -46t-10 -71v-198z" />
    <glyph glyph-name="Sacute" unicode="&#x15a;" horiz-adv-x="600" 
d="M336 800h-120l48 180h180zM303 -19q-174 0 -273 123l135 137q64 -62 138 -62q53 0 53 33q0 20 -32 36t-77.5 32.5t-91.5 41t-78 74t-32 118.5q0 105 70.5 168t183.5 63q152 0 252 -120l-152 -120q-36 43 -94 43q-20 0 -33.5 -9t-13.5 -22q0 -17 32 -31.5t78 -30.5t92 -40
t78 -72.5t32 -115.5q0 -108 -72 -177t-195 -69z" />
    <glyph glyph-name="sacute" unicode="&#x15b;" horiz-adv-x="541" 
d="M307 630h-120l48 180h180zM272 -18q-149 0 -247 92l119 115q56 -43 123 -43q41 0 41 22q0 14 -27.5 24t-67 21t-78.5 28.5t-66.5 54t-27.5 88.5q0 82 61.5 131t161.5 49q160 0 240 -91l-106 -105q-18 17 -49.5 28t-57.5 11q-45 0 -45 -20q0 -13 28 -21.5t67.5 -18.5
t79 -26.5t67.5 -54t28 -92.5q0 -94 -69 -143t-175 -49z" />
    <glyph glyph-name="Scircumflex" unicode="&#x15c;" horiz-adv-x="600" 
d="M263 820h-148l102 140h156l102 -140h-148l-32 44zM303 -19q-174 0 -273 123l135 137q64 -62 138 -62q53 0 53 33q0 20 -32 36t-77.5 32.5t-91.5 41t-78 74t-32 118.5q0 105 70.5 168t183.5 63q152 0 252 -120l-152 -120q-36 43 -94 43q-20 0 -33.5 -9t-13.5 -22
q0 -17 32 -31.5t78 -30.5t92 -40t78 -72.5t32 -115.5q0 -108 -72 -177t-195 -69z" />
    <glyph glyph-name="scircumflex" unicode="&#x15d;" horiz-adv-x="541" 
d="M232 650h-148l102 140h156l102 -140h-148l-32 44zM272 -18q-149 0 -247 92l119 115q56 -43 123 -43q41 0 41 22q0 14 -27.5 24t-67 21t-78.5 28.5t-66.5 54t-27.5 88.5q0 82 61.5 131t161.5 49q160 0 240 -91l-106 -105q-18 17 -49.5 28t-57.5 11q-45 0 -45 -20
q0 -13 28 -21.5t67.5 -18.5t79 -26.5t67.5 -54t28 -92.5q0 -94 -69 -143t-175 -49z" />
    <glyph glyph-name="Scedilla" unicode="&#x15e;" horiz-adv-x="600" 
d="M273 -220q-68 0 -104 18l35 99q18 -8 50 -8q29 0 29 10q0 12 -28 12h-36l22 75q-131 20 -211 118l135 137q64 -62 138 -62q53 0 53 33q0 20 -32 36t-77.5 32.5t-91.5 41t-78 74t-32 118.5q0 105 70.5 168t183.5 63q152 0 252 -120l-152 -120q-36 43 -94 43
q-20 0 -33.5 -9t-13.5 -22q0 -17 32 -31.5t78 -30.5t92 -40t78 -72.5t32 -115.5q0 -95 -56.5 -161t-156.5 -81l-8 -23q53 -19 53 -77q0 -42 -39 -73.5t-90 -31.5z" />
    <glyph glyph-name="scedilla" unicode="&#x15f;" horiz-adv-x="541" 
d="M258 -220q-68 0 -104 18l35 99q18 -8 50 -8q29 0 29 10q0 12 -28 12h-36l23 74q-116 14 -202 89l119 115q56 -43 123 -43q41 0 41 22q0 14 -27.5 24t-67 21t-78.5 28.5t-66.5 54t-27.5 88.5q0 82 61.5 131t161.5 49q160 0 240 -91l-106 -105q-18 17 -49.5 28t-57.5 11
q-45 0 -45 -20q0 -13 28 -21.5t67.5 -18.5t79 -26.5t67.5 -54t28 -92.5q0 -77 -47 -124t-125 -61l-10 -27q53 -19 53 -77q0 -42 -39 -73.5t-90 -31.5z" />
    <glyph glyph-name="Scaron" unicode="&#x160;" horiz-adv-x="600" 
d="M376 820h-156l-102 140h148l32 -44l32 44h148zM303 -19q-174 0 -273 123l135 137q64 -62 138 -62q53 0 53 33q0 20 -32 36t-77.5 32.5t-91.5 41t-78 74t-32 118.5q0 105 70.5 168t183.5 63q152 0 252 -120l-152 -120q-36 43 -94 43q-20 0 -33.5 -9t-13.5 -22
q0 -17 32 -31.5t78 -30.5t92 -40t78 -72.5t32 -115.5q0 -108 -72 -177t-195 -69z" />
    <glyph glyph-name="scaron" unicode="&#x161;" horiz-adv-x="541" 
d="M349 650h-156l-102 140h148l32 -44l32 44h148zM272 -18q-149 0 -247 92l119 115q56 -43 123 -43q41 0 41 22q0 14 -27.5 24t-67 21t-78.5 28.5t-66.5 54t-27.5 88.5q0 82 61.5 131t161.5 49q160 0 240 -91l-106 -105q-18 17 -49.5 28t-57.5 11q-45 0 -45 -20
q0 -13 28 -21.5t67.5 -18.5t79 -26.5t67.5 -54t28 -92.5q0 -94 -69 -143t-175 -49z" />
    <glyph glyph-name="uni0162" unicode="&#x162;" horiz-adv-x="594" 
d="M317 -219q-68 0 -104 18l35 99q18 -8 50 -8q29 0 29 10q0 12 -28 12h-36l22 88h-98v520h-177v210h574v-210h-177v-520h-2l-12 -37q53 -19 53 -77q0 -42 -39 -73.5t-90 -31.5z" />
    <glyph glyph-name="uni0163" unicode="&#x163;" horiz-adv-x="466" 
d="M216 -220q-68 0 -104 18l35 99q18 -8 50 -8q29 0 29 10q0 12 -28 12h-36l18 115q-100 64 -100 243v101h-70v180h79l31 180h165v-180h117v-180h-117v-101q0 -45 19 -65t58 -20q15 0 33 5l51 -181q-52 -20 -118 -20q-18 0 -27 1l-9 -27q53 -19 53 -77q0 -42 -39 -73.5
t-90 -31.5z" />
    <glyph glyph-name="Tcaron" unicode="&#x164;" horiz-adv-x="594" 
d="M375 820h-156l-102 140h148l32 -44l32 44h148zM407 0h-220v520h-177v210h574v-210h-177v-520z" />
    <glyph glyph-name="tcaron" unicode="&#x165;" horiz-adv-x="501" 
d="M456 608h-130l-25 270h180zM328 -12q-248 0 -248 281v101h-70v180h79l31 180h165v-180h117v-180h-117v-101q0 -45 19 -65t58 -20q15 0 33 5l51 -181q-52 -20 -118 -20z" />
    <glyph glyph-name="Tbar" unicode="&#x166;" horiz-adv-x="594" 
d="M407 0h-220v232h-85v160h85v128h-177v210h574v-210h-177v-128h85v-160h-85v-232z" />
    <glyph glyph-name="tbar" unicode="&#x167;" horiz-adv-x="496" 
d="M338 -12q-96 0 -171.5 60t-75.5 167v15h-71v110h70v30h-70v180h79l31 180h165v-180h117v-180h-117v-30h75v-110h-70v-12q6 -14 26.5 -24t45.5 -10q15 0 33 5l51 -181q-52 -20 -118 -20z" />
    <glyph glyph-name="Utilde" unicode="&#x168;" horiz-adv-x="670" 
d="M403 811q-31 0 -54.5 13.5t-36 26.5t-18.5 12q-11 -2 -11 -36h-120q0 59 27 101t83 42q32 0 56 -13.5t36 -26t17 -12.5q11 2 11 36h120q0 -65 -26.5 -104t-83.5 -39zM334 -19q-126 0 -210 83t-84 212v454h220v-454q0 -34 21 -54.5t55 -20.5q32 0 53 20.5t21 54.5v454h220
v-454q0 -129 -84.5 -212t-211.5 -83z" />
    <glyph glyph-name="utilde" unicode="&#x169;" horiz-adv-x="603" 
d="M364 641q-24 0 -44.5 8.5t-30.5 18.5t-19 18t-15 7q-11 -2 -11 -36h-120q0 59 27 101t83 42q32 0 56 -13.5t36 -26.5t17 -12q11 2 11 36h120q0 -65 -26.5 -104t-83.5 -39zM240 -12q-205 0 -205 280v282h205v-282q0 -39 17.5 -58.5t41.5 -19.5t41.5 19.5t17.5 58.5v282
h205v-550h-185l-14 55q-52 -67 -124 -67z" />
    <glyph glyph-name="Umacron" unicode="&#x16a;" horiz-adv-x="670" 
d="M523 810h-390v160h390v-160zM334 -19q-126 0 -210 83t-84 212v454h220v-454q0 -34 21 -54.5t55 -20.5q32 0 53 20.5t21 54.5v454h220v-454q0 -129 -84.5 -212t-211.5 -83z" />
    <glyph glyph-name="umacron" unicode="&#x16b;" horiz-adv-x="603" 
d="M494 640h-390v160h390v-160zM240 -12q-205 0 -205 280v282h205v-282q0 -39 17.5 -58.5t41.5 -19.5t41.5 19.5t17.5 58.5v282h205v-550h-185l-14 55q-52 -67 -124 -67z" />
    <glyph glyph-name="Ubreve" unicode="&#x16c;" horiz-adv-x="670" 
d="M332 817q-65 0 -110 41.5t-45 104.5h104q0 -20 14 -31.5t37 -11.5t37.5 11.5t14.5 31.5h103q0 -63 -45 -104.5t-110 -41.5zM334 -19q-126 0 -210 83t-84 212v454h220v-454q0 -34 21 -54.5t55 -20.5q32 0 53 20.5t21 54.5v454h220v-454q0 -129 -84.5 -212t-211.5 -83z" />
    <glyph glyph-name="ubreve" unicode="&#x16d;" horiz-adv-x="603" 
d="M292 647q-65 0 -110 41.5t-45 104.5h104q0 -20 14 -31.5t37 -11.5t37.5 11.5t14.5 31.5h103q0 -63 -45 -104.5t-110 -41.5zM240 -12q-205 0 -205 280v282h205v-282q0 -39 17.5 -58.5t41.5 -19.5t41.5 19.5t17.5 58.5v282h205v-550h-185l-14 55q-52 -67 -124 -67z" />
    <glyph glyph-name="Uring" unicode="&#x16e;" horiz-adv-x="670" 
d="M346 771q-52 0 -91 32.5t-39 86.5t39 87t91 33t90.5 -33t38.5 -87t-38.5 -86.5t-90.5 -32.5zM346 871q8 0 13.5 5.5t5.5 13.5t-5.5 14t-13.5 6t-13.5 -6t-5.5 -14t5.5 -13.5t13.5 -5.5zM334 -19q-126 0 -210 83t-84 212v454h220v-454q0 -34 21 -54.5t55 -20.5
q32 0 53 20.5t21 54.5v454h220v-454q0 -129 -84.5 -212t-211.5 -83z" />
    <glyph glyph-name="uring" unicode="&#x16f;" horiz-adv-x="603" 
d="M300 601q-52 0 -91 32.5t-39 86.5t39 87t91 33t90.5 -33t38.5 -87t-38.5 -86.5t-90.5 -32.5zM300 701q8 0 13.5 5.5t5.5 13.5t-5.5 14t-13.5 6t-13.5 -6t-5.5 -14t5.5 -13.5t13.5 -5.5zM240 -12q-205 0 -205 280v282h205v-282q0 -39 17.5 -58.5t41.5 -19.5t41.5 19.5
t17.5 58.5v282h205v-550h-185l-14 55q-52 -67 -124 -67z" />
    <glyph glyph-name="Uhungarumlaut" unicode="&#x170;" horiz-adv-x="670" 
d="M266 794h-109l74 192h163zM485 794h-109l74 192h163zM334 -19q-126 0 -210 83t-84 212v454h220v-454q0 -34 21 -54.5t55 -20.5q32 0 53 20.5t21 54.5v454h220v-454q0 -129 -84.5 -212t-211.5 -83z" />
    <glyph glyph-name="uhungarumlaut" unicode="&#x171;" horiz-adv-x="603" 
d="M210 624h-109l74 192h163zM429 624h-109l74 192h163zM240 -12q-205 0 -205 280v282h205v-282q0 -39 17.5 -58.5t41.5 -19.5t41.5 19.5t17.5 58.5v282h205v-550h-185l-14 55q-52 -67 -124 -67z" />
    <glyph glyph-name="Uogonek" unicode="&#x172;" horiz-adv-x="670" 
d="M463 -179q-38 0 -65.5 27.5t-27.5 70.5q0 31 14 66q-21 -4 -50 -4q-126 0 -210 83t-84 212v454h220v-454q0 -34 21 -54.5t55 -20.5q32 0 53 20.5t21 54.5v454h220v-454q0 -77 -32.5 -140t-89.5 -103q-31 -52 -31 -72q0 -19 14 -19q7 0 13 6l46 -76q-10 -22 -34.5 -36.5
t-52.5 -14.5z" />
    <glyph glyph-name="uogonek" unicode="&#x173;" horiz-adv-x="603" 
d="M513 -220q-38 0 -65.5 27.5t-27.5 70.5q0 54 47 122h-89l-14 55q-52 -67 -124 -67q-205 0 -205 280v282h205v-282q0 -39 17.5 -58.5t41.5 -19.5t41.5 19.5t17.5 58.5v282h205v-550q-36 -60 -36 -80q0 -19 14 -19q7 0 13 6l46 -76q-10 -22 -34.5 -36.5t-52.5 -14.5z" />
    <glyph glyph-name="Wcircumflex" unicode="&#x174;" horiz-adv-x="1025" 
d="M481 820h-148l102 140h156l102 -140h-148l-32 44zM425 0h-223l-202 730h229l94 -354l95 356h189l95 -356l94 354h229l-202 -730h-223l-87 357z" />
    <glyph glyph-name="wcircumflex" unicode="&#x175;" horiz-adv-x="921" 
d="M429 650h-148l102 140h156l102 -140h-148l-32 44zM387 0h-199l-183 550h219l65 -234l68 234h207l68 -234l65 234h219l-183 -550h-199l-73 221z" />
    <glyph glyph-name="Ycircumflex" unicode="&#x176;" horiz-adv-x="660" 
d="M298 820h-148l102 140h156l102 -140h-148l-32 44zM440 0h-220v285l-220 445h246l84 -201l84 201h246l-220 -445v-285z" />
    <glyph glyph-name="ycircumflex" unicode="&#x177;" horiz-adv-x="571" 
d="M254 650h-148l102 140h156l102 -140h-148l-32 44zM118 -236q-66 0 -118 20l55 180q26 -7 52 -7q32 0 59 16.5t35 54.5l-199 522h220l68 -240l63 240h218l-169 -550q-40 -129 -111 -182.5t-173 -53.5z" />
    <glyph glyph-name="Ydieresis" unicode="&#x178;" horiz-adv-x="660" 
d="M225 805q-35 0 -60 24.5t-25 60.5t25 60.5t60 24.5t60 -24.5t25 -60.5t-25 -60.5t-60 -24.5zM435 805q-35 0 -60 24.5t-25 60.5t25 60.5t60 24.5t60 -24.5t25 -60.5t-25 -60.5t-60 -24.5zM440 0h-220v285l-220 445h246l84 -201l84 201h246l-220 -445v-285z" />
    <glyph glyph-name="Zacute" unicode="&#x179;" horiz-adv-x="641" 
d="M374 800h-120l48 180h180zM611 0h-581v215l273 300h-263v215h561v-216l-271 -299h281v-215z" />
    <glyph glyph-name="zacute" unicode="&#x17a;" horiz-adv-x="553" 
d="M313 630h-120l48 180h180zM518 0h-483v140l186 230h-186v180h469v-150l-166 -210h180v-190z" />
    <glyph glyph-name="Zdotaccent" unicode="&#x17b;" horiz-adv-x="641" 
d="M341 784q-44 0 -75 31t-31 75t31 75t75 31t74.5 -31t30.5 -75t-30.5 -75t-74.5 -31zM611 0h-581v215l273 300h-263v215h561v-216l-271 -299h281v-215z" />
    <glyph glyph-name="zdotaccent" unicode="&#x17c;" horiz-adv-x="553" 
d="M277 614q-44 0 -75 31t-31 75t31 75t75 31t74.5 -31t30.5 -75t-30.5 -75t-74.5 -31zM518 0h-483v140l186 230h-186v180h469v-150l-166 -210h180v-190z" />
    <glyph glyph-name="Zcaron" unicode="&#x17d;" horiz-adv-x="641" 
d="M416 820h-156l-102 140h148l32 -44l32 44h148zM611 0h-581v215l273 300h-263v215h561v-216l-271 -299h281v-215z" />
    <glyph glyph-name="zcaron" unicode="&#x17e;" horiz-adv-x="553" 
d="M355 650h-156l-102 140h148l32 -44l32 44h148zM518 0h-483v140l186 230h-186v180h469v-150l-166 -210h180v-190z" />
    <glyph glyph-name="longs" unicode="&#x17f;" horiz-adv-x="416" 
d="M245 554v-554l-205 1v553q0 123 71.5 184.5t176.5 61.5q66 0 118 -20l-51 -181q-28 5 -44 5q-33 0 -49.5 -14t-16.5 -36z" />
    <glyph glyph-name="uni018F" unicode="&#x18f;" horiz-adv-x="760" 
d="M380 -10q-152 0 -251 107.5t-99 267.5q0 47 9 89h473q-39 86 -152 86q-33 0 -69 -12.5t-55 -33.5l-160 123q47 57 124.5 90t159.5 33q167 0 268.5 -104t101.5 -271q0 -160 -99 -267.5t-251 -107.5zM380 190q43 0 77 22.5t53 61.5h-260q19 -39 53 -61.5t77 -22.5z" />
    <glyph glyph-name="florin" unicode="&#x192;" horiz-adv-x="527" 
d="M118 -21q-66 0 -118 20l51 181q28 -5 44 -5q33 0 49.5 14t16.5 36v145h-50v180h50v4q0 123 71.5 184.5t176.5 61.5q66 0 118 -20l-51 -181q-28 5 -44 5q-33 0 -49.5 -14t-16.5 -36v-4h110v-180h-110v-145q0 -123 -71.5 -184.5t-176.5 -61.5z" />
    <glyph glyph-name="uni019D" unicode="&#x19d;" horiz-adv-x="757" 
d="M-10 -207v215q70 0 77 69v653h220l200 -337v337h220v-730h-220l-200 337v-254q0 -138 -81.5 -214t-215.5 -76z" />
    <glyph glyph-name="Ohorn" unicode="&#x1a0;" horiz-adv-x="830" 
d="M413 -19q-159 0 -271 112.5t-112 271.5q0 158 112 270t271 112q146 0 255 -98q9 0 17 6.5t8 24.5v80h107v-122q0 -55 -54 -86q49 -87 49 -187q0 -159 -112 -271.5t-270 -112.5zM413 207q64 0 110 46.5t46 111.5q0 64 -46 110t-110 46t-110.5 -46t-46.5 -110
q0 -65 46 -111.5t111 -46.5z" />
    <glyph glyph-name="ohorn" unicode="&#x1a1;" 
d="M304 -11q-118 0 -201 83.5t-83 201.5q0 117 83 200.5t201 83.5q86 0 159 -49q19 5 19 28v80h107v-122q0 -46 -40 -77q40 -67 40 -144q0 -118 -83.5 -201.5t-201.5 -83.5zM304 197q33 0 55 22.5t22 54.5t-22 54t-55 22t-54.5 -22t-21.5 -54q0 -33 21.5 -55t54.5 -22z" />
    <glyph glyph-name="Uhorn" unicode="&#x1af;" horiz-adv-x="707" 
d="M334 -19q-126 0 -210 83t-84 212v454h220v-454q0 -34 21 -54.5t55 -20.5q32 0 53 20.5t21 54.5v454h167q33 0 33 21v80h107v-122q0 -35 -25 -58t-62 -33v-342q0 -129 -84.5 -212t-211.5 -83z" />
    <glyph glyph-name="uhorn" unicode="&#x1b0;" horiz-adv-x="608" 
d="M240 -12q-205 0 -205 280v282h205v-282q0 -39 17.5 -58.5t41.5 -19.5t41.5 19.5t17.5 58.5v282h128q25 0 25 28v80h107v-122q0 -55 -55 -86v-450h-185l-14 55q-52 -67 -124 -67z" />
    <glyph glyph-name="uni01CD" unicode="&#x1cd;" horiz-adv-x="669" 
d="M418 820h-156l-102 140h148l32 -44l32 44h148zM232 0h-242l227 730h235l227 -730h-242l-21 86h-164zM334 429l-36 -153h73z" />
    <glyph glyph-name="uni01CE" unicode="&#x1ce;" horiz-adv-x="639" 
d="M393 650h-156l-102 140h148l32 -44l32 44h148zM268 -8q-103 0 -175.5 83.5t-72.5 200.5q0 118 72.5 201.5t175.5 83.5q80 0 133 -65l13 54h185v-550h-185l-14 57q-51 -65 -132 -65zM310 193q35 0 59.5 24t24.5 59t-24.5 59.5t-59.5 24.5t-58.5 -24.5t-23.5 -59.5
t23.5 -59t58.5 -24z" />
    <glyph glyph-name="uni01CF" unicode="&#x1cf;" horiz-adv-x="320" 
d="M238 820h-156l-102 140h148l32 -44l32 44h148zM270 0h-220v730h220v-730z" />
    <glyph glyph-name="uni01D0" unicode="&#x1d0;" horiz-adv-x="285" 
d="M221 650h-156l-102 140h148l32 -44l32 44h148zM245 0h-205v550h205v-550z" />
    <glyph glyph-name="uni01D1" unicode="&#x1d1;" horiz-adv-x="825" 
d="M486 820h-156l-102 140h148l32 -44l32 44h148zM413 -19q-159 0 -271 112.5t-112 271.5q0 158 112 270t271 112q158 0 270 -112t112 -270q0 -159 -112 -271.5t-270 -112.5zM413 207q64 0 110 46.5t46 111.5q0 64 -46 110t-110 46t-110.5 -46t-46.5 -110q0 -65 46 -111.5
t111 -46.5z" />
    <glyph glyph-name="uni01D2" unicode="&#x1d2;" 
d="M383 650h-156l-102 140h148l32 -44l32 44h148zM304 -11q-118 0 -201 83.5t-83 201.5q0 117 83 200.5t201 83.5t201.5 -83.5t83.5 -200.5q0 -118 -83.5 -201.5t-201.5 -83.5zM304 197q33 0 55 22.5t22 54.5t-22 54t-55 22t-54.5 -22t-21.5 -54q0 -33 21.5 -55t54.5 -22z
" />
    <glyph glyph-name="uni01D3" unicode="&#x1d3;" horiz-adv-x="670" 
d="M413 820h-156l-102 140h148l32 -44l32 44h148zM334 -19q-126 0 -210 83t-84 212v454h220v-454q0 -34 21 -54.5t55 -20.5q32 0 53 20.5t21 54.5v454h220v-454q0 -129 -84.5 -212t-211.5 -83z" />
    <glyph glyph-name="uni01D4" unicode="&#x1d4;" horiz-adv-x="603" 
d="M377 650h-156l-102 140h148l32 -44l32 44h148zM240 -12q-205 0 -205 280v282h205v-282q0 -39 17.5 -58.5t41.5 -19.5t41.5 19.5t17.5 58.5v282h205v-550h-185l-14 55q-52 -67 -124 -67z" />
    <glyph glyph-name="uni01D5" unicode="&#x1d5;" horiz-adv-x="670" 
d="M530 999h-390v160h390v-160zM230 791q-35 0 -60 24.5t-25 60.5t25 60.5t60 24.5t60 -24.5t25 -60.5t-25 -60.5t-60 -24.5zM440 791q-35 0 -60 24.5t-25 60.5t25 60.5t60 24.5t60 -24.5t25 -60.5t-25 -60.5t-60 -24.5zM334 -19q-126 0 -210 83t-84 212v454h220v-454
q0 -34 21 -54.5t55 -20.5q32 0 53 20.5t21 54.5v454h220v-454q0 -129 -84.5 -212t-211.5 -83z" />
    <glyph glyph-name="uni01D6" unicode="&#x1d6;" horiz-adv-x="603" 
d="M494 804h-390v160h390v-160zM194 596q-35 0 -60 24.5t-25 60.5t25 60.5t60 24.5t60 -24.5t25 -60.5t-25 -60.5t-60 -24.5zM404 596q-35 0 -60 24.5t-25 60.5t25 60.5t60 24.5t60 -24.5t25 -60.5t-25 -60.5t-60 -24.5zM240 -12q-205 0 -205 280v282h205v-282
q0 -39 17.5 -58.5t41.5 -19.5t41.5 19.5t17.5 58.5v282h205v-550h-185l-14 55q-52 -67 -124 -67z" />
    <glyph glyph-name="uni01D7" unicode="&#x1d7;" horiz-adv-x="670" 
d="M404 994h-120l48 180h180zM230 777q-35 0 -60 24.5t-25 60.5t25 60.5t60 24.5t60 -24.5t25 -60.5t-25 -60.5t-60 -24.5zM440 777q-35 0 -60 24.5t-25 60.5t25 60.5t60 24.5t60 -24.5t25 -60.5t-25 -60.5t-60 -24.5zM334 -19q-126 0 -210 83t-84 212v454h220v-454
q0 -34 21 -54.5t55 -20.5q32 0 53 20.5t21 54.5v454h220v-454q0 -129 -84.5 -212t-211.5 -83z" />
    <glyph glyph-name="uni01D8" unicode="&#x1d8;" horiz-adv-x="603" 
d="M368 799h-120l48 180h180zM194 582q-35 0 -60 24.5t-25 60.5t25 60.5t60 24.5t60 -24.5t25 -60.5t-25 -60.5t-60 -24.5zM404 582q-35 0 -60 24.5t-25 60.5t25 60.5t60 24.5t60 -24.5t25 -60.5t-25 -60.5t-60 -24.5zM240 -12q-205 0 -205 280v282h205v-282
q0 -39 17.5 -58.5t41.5 -19.5t41.5 19.5t17.5 58.5v282h205v-550h-185l-14 55q-52 -67 -124 -67z" />
    <glyph glyph-name="uni01D9" unicode="&#x1d9;" horiz-adv-x="670" 
d="M414 1016h-156l-102 140h148l32 -44l32 44h148zM230 794q-35 0 -60 24.5t-25 60.5t25 60.5t60 24.5t60 -24.5t25 -60.5t-25 -60.5t-60 -24.5zM440 794q-35 0 -60 24.5t-25 60.5t25 60.5t60 24.5t60 -24.5t25 -60.5t-25 -60.5t-60 -24.5zM334 -19q-126 0 -210 83t-84 212
v454h220v-454q0 -34 21 -54.5t55 -20.5q32 0 53 20.5t21 54.5v454h220v-454q0 -129 -84.5 -212t-211.5 -83z" />
    <glyph glyph-name="uni01DA" unicode="&#x1da;" horiz-adv-x="603" 
d="M378 821h-156l-102 140h148l32 -44l32 44h148zM194 599q-35 0 -60 24.5t-25 60.5t25 60.5t60 24.5t60 -24.5t25 -60.5t-25 -60.5t-60 -24.5zM404 599q-35 0 -60 24.5t-25 60.5t25 60.5t60 24.5t60 -24.5t25 -60.5t-25 -60.5t-60 -24.5zM240 -12q-205 0 -205 280v282h205
v-282q0 -39 17.5 -58.5t41.5 -19.5t41.5 19.5t17.5 58.5v282h205v-550h-185l-14 55q-52 -67 -124 -67z" />
    <glyph glyph-name="uni01DB" unicode="&#x1db;" horiz-adv-x="670" 
d="M404 993h-120l-108 180h180zM230 776q-35 0 -60 24.5t-25 60.5t25 60.5t60 24.5t60 -24.5t25 -60.5t-25 -60.5t-60 -24.5zM440 776q-35 0 -60 24.5t-25 60.5t25 60.5t60 24.5t60 -24.5t25 -60.5t-25 -60.5t-60 -24.5zM334 -19q-126 0 -210 83t-84 212v454h220v-454
q0 -34 21 -54.5t55 -20.5q32 0 53 20.5t21 54.5v454h220v-454q0 -129 -84.5 -212t-211.5 -83z" />
    <glyph glyph-name="uni01DC" unicode="&#x1dc;" horiz-adv-x="603" 
d="M368 799h-120l-108 180h180zM194 582q-35 0 -60 24.5t-25 60.5t25 60.5t60 24.5t60 -24.5t25 -60.5t-25 -60.5t-60 -24.5zM404 582q-35 0 -60 24.5t-25 60.5t25 60.5t60 24.5t60 -24.5t25 -60.5t-25 -60.5t-60 -24.5zM240 -12q-205 0 -205 280v282h205v-282
q0 -39 17.5 -58.5t41.5 -19.5t41.5 19.5t17.5 58.5v282h205v-550h-185l-14 55q-52 -67 -124 -67z" />
    <glyph glyph-name="uni01DE" unicode="&#x1de;" horiz-adv-x="669" 
d="M530 969h-390v160h390v-160zM230 761q-35 0 -60 24.5t-25 60.5t25 60.5t60 24.5t60 -24.5t25 -60.5t-25 -60.5t-60 -24.5zM440 761q-35 0 -60 24.5t-25 60.5t25 60.5t60 24.5t60 -24.5t25 -60.5t-25 -60.5t-60 -24.5zM232 0h-242l227 730h235l227 -730h-242l-21 86h-164z
M334 429l-36 -153h73z" />
    <glyph glyph-name="uni01DF" unicode="&#x1df;" horiz-adv-x="639" 
d="M523 804h-390v160h390v-160zM223 596q-35 0 -60 24.5t-25 60.5t25 60.5t60 24.5t60 -24.5t25 -60.5t-25 -60.5t-60 -24.5zM433 596q-35 0 -60 24.5t-25 60.5t25 60.5t60 24.5t60 -24.5t25 -60.5t-25 -60.5t-60 -24.5zM268 -8q-103 0 -175.5 83.5t-72.5 200.5
q0 118 72.5 201.5t175.5 83.5q80 0 133 -65l13 54h185v-550h-185l-14 57q-51 -65 -132 -65zM310 193q35 0 59.5 24t24.5 59t-24.5 59.5t-59.5 24.5t-58.5 -24.5t-23.5 -59.5t23.5 -59t58.5 -24z" />
    <glyph glyph-name="uni01E2" unicode="&#x1e2;" horiz-adv-x="953" 
d="M661 810h-390v160h390v-160zM923 0h-486v176h-160l-45 -176h-242l227 730h696v-200h-257v-60h237v-196h-237v-64h267v-210zM367 531l-42 -165h112v165h-70z" />
    <glyph glyph-name="uni01E3" unicode="&#x1e3;" horiz-adv-x="912" 
d="M656 640h-390v160h390v-160zM253 -10q-108 0 -165.5 48.5t-57.5 124.5q0 75 52.5 125t149.5 50h96q-2 18 -20.5 33.5t-49.5 15.5q-48 0 -91 -25l-118 102q96 94 238 94q113 0 176 -50q68 50 147 50q109 0 185.5 -82t76.5 -197q0 -37 -7 -76h-307q4 -22 24.5 -38t47.5 -16
q54 0 93 31l134 -87q-37 -48 -101 -75.5t-128 -27.5q-110 0 -185 67q-77 -67 -190 -67zM548 338h119q-11 51 -59 51q-46 0 -60 -51zM267 139q27 0 44 15t17 37v12h-61q-37 0 -37 -33q0 -13 10.5 -22t26.5 -9z" />
    <glyph glyph-name="Gcaron" unicode="&#x1e6;" horiz-adv-x="815" 
d="M481 820h-156l-102 140h148l32 -44l32 44h148zM413 -19q-159 0 -271 112.5t-112 271.5q0 158 112 270t271 112q90 0 169.5 -40t133.5 -109l-198 -119q-44 42 -105 42q-64 0 -110.5 -46t-46.5 -110q0 -65 46 -111.5t111 -46.5q81 0 116 46h-152v200h398q10 -47 10 -88
q0 -173 -103 -278.5t-269 -105.5z" />
    <glyph glyph-name="gcaron" unicode="&#x1e7;" horiz-adv-x="639" 
d="M383 650h-156l-102 140h148l32 -44l32 44h148zM281 -239q-69 0 -135.5 30t-106.5 83l133 103q41 -36 103 -36q52 0 85.5 27.5t33.5 63.5v18q-51 -58 -126 -58q-103 0 -175.5 83.5t-72.5 200.5q0 118 72.5 201.5t175.5 83.5q80 0 133 -65l13 54h185v-464
q0 -155 -84.5 -240t-233.5 -85zM310 193q35 0 59.5 24t24.5 59t-24.5 59.5t-59.5 24.5t-58.5 -24.5t-23.5 -59.5t23.5 -59t58.5 -24z" />
    <glyph glyph-name="uni01EA" unicode="&#x1ea;" horiz-adv-x="825" 
d="M556 -185q-38 0 -65.5 27.5t-27.5 70.5q0 38 18 74q-33 -6 -68 -6q-159 0 -271 112.5t-112 271.5q0 158 112 270t271 112q158 0 270 -112t112 -270q0 -105 -52 -193.5t-138 -138.5q-35 -56 -35 -78q0 -19 14 -19q7 0 13 6l46 -76q-10 -22 -34.5 -36.5t-52.5 -14.5z
M413 207q64 0 110 46.5t46 111.5q0 64 -46 110t-110 46t-110.5 -46t-46.5 -110q0 -65 46 -111.5t111 -46.5z" />
    <glyph glyph-name="uni01EB" unicode="&#x1eb;" 
d="M389 -194q-38 0 -65.5 27.5t-27.5 70.5q0 42 24 85h-16q-118 0 -201 83.5t-83 201.5q0 117 83 200.5t201 83.5t201.5 -83.5t83.5 -200.5q0 -80 -42 -147.5t-111 -104.5q-33 -56 -33 -76q0 -19 14 -19q7 0 13 6l46 -76q-10 -22 -34.5 -36.5t-52.5 -14.5zM304 197
q33 0 55 22.5t22 54.5t-22 54t-55 22t-54.5 -22t-21.5 -54q0 -33 21.5 -55t54.5 -22z" />
    <glyph glyph-name="Aringacute" unicode="&#x1fa;" horiz-adv-x="669" 
d="M447 1001h-120l48 180h180zM339 740q-52 0 -91 32.5t-39 86.5t39 87t91 33t90.5 -33t38.5 -87t-38.5 -86.5t-90.5 -32.5zM339 840q7 0 13 6t6 13q0 8 -5.5 14t-13.5 6t-13.5 -6t-5.5 -14t5.5 -13.5t13.5 -5.5zM232 0h-242l227 730h235l227 -730h-242l-21 86h-164z
M334 429l-36 -153h73z" />
    <glyph glyph-name="aringacute" unicode="&#x1fb;" horiz-adv-x="639" 
d="M430 841h-120l48 180h180zM322 580q-52 1 -91 33.5t-39 85.5q0 55 38.5 87t91.5 33q52 1 90.5 -32t38.5 -88q0 -53 -39 -86.5t-90 -32.5zM322 680q7 1 13 6.5t6 12.5q0 18 -19 20q-8 1 -13.5 -5t-5.5 -15q0 -7 5.5 -13.5t13.5 -5.5zM268 -8q-103 0 -175.5 83.5
t-72.5 200.5q0 118 72.5 201.5t175.5 83.5q80 0 133 -65l13 54h185v-550h-185l-14 57q-51 -65 -132 -65zM310 193q35 0 59.5 24t24.5 59t-24.5 59.5t-59.5 24.5t-58.5 -24.5t-23.5 -59.5t23.5 -59t58.5 -24z" />
    <glyph glyph-name="AEacute" unicode="&#x1fc;" horiz-adv-x="953" 
d="M472 800h-120l48 180h180zM232 0h-242l227 730h696v-200h-257v-60h237v-196h-237v-64h267v-210h-486v176h-160zM367 531l-42 -165h112v165h-70z" />
    <glyph glyph-name="aeacute" unicode="&#x1fd;" horiz-adv-x="912" 
d="M522 630h-120l48 180h180zM253 -10q-108 0 -165.5 48.5t-57.5 124.5q0 75 52.5 125t149.5 50h96q-2 18 -20.5 33.5t-49.5 15.5q-48 0 -91 -25l-118 102q96 94 238 94q113 0 176 -50q68 50 147 50q109 0 185.5 -82t76.5 -197q0 -37 -7 -76h-307q4 -22 24.5 -38t47.5 -16
q54 0 93 31l134 -87q-37 -48 -101 -75.5t-128 -27.5q-110 0 -185 67q-77 -67 -190 -67zM548 338h119q-11 51 -59 51q-46 0 -60 -51zM267 139q27 0 44 15t17 37v12h-61q-37 0 -37 -33q0 -13 10.5 -22t26.5 -9z" />
    <glyph glyph-name="Oslashacute" unicode="&#x1fe;" horiz-adv-x="847" 
d="M430 800h-120l48 180h180zM424 -19q-114 0 -209 62l-71 -71l-114 113l72 72q-61 94 -61 208q0 158 112 270t271 112q112 0 207 -61l73 72l113 -113l-72 -72q61 -96 61 -208q0 -159 -112 -271.5t-270 -112.5zM272 326l190 190q-20 5 -38 5q-64 0 -110.5 -46t-46.5 -110
q0 -17 5 -39zM424 207q64 0 110 46.5t46 111.5q0 18 -5 38l-191 -191q22 -5 40 -5z" />
    <glyph glyph-name="oslashacute" unicode="&#x1ff;" horiz-adv-x="632" 
d="M362 630h-120l48 180h180zM316 -11q-84 0 -152 45l-67 -67l-87 86l67 67q-45 71 -45 154q0 117 83 200.5t201 83.5q84 0 154 -46l66 66l86 -86l-66 -66q45 -68 45 -152q0 -118 -83.5 -201.5t-201.5 -83.5zM316 378q-44 0 -73.5 -30.5t-29.5 -73.5q0 -12 1 -17l120 119
q-12 2 -18 2zM316 169q44 0 74.5 30.5t30.5 74.5q0 11 -1 16l-120 -120q5 -1 16 -1z" />
    <glyph glyph-name="uni0218" unicode="&#x218;" horiz-adv-x="600" 
d="M303 -19q-174 0 -273 123l135 137q64 -62 138 -62q53 0 53 33q0 20 -32 36t-77.5 32.5t-91.5 41t-78 74t-32 118.5q0 105 70.5 168t183.5 63q152 0 252 -120l-152 -120q-36 43 -94 43q-20 0 -33.5 -9t-13.5 -22q0 -17 32 -31.5t78 -30.5t92 -40t78 -72.5t32 -115.5
q0 -108 -72 -177t-195 -69zM353 -237h-151l17 183h180z" />
    <glyph glyph-name="uni0219" unicode="&#x219;" horiz-adv-x="541" 
d="M272 -18q-149 0 -247 92l119 115q56 -43 123 -43q41 0 41 22q0 14 -27.5 24t-67 21t-78.5 28.5t-66.5 54t-27.5 88.5q0 82 61.5 131t161.5 49q160 0 240 -91l-106 -105q-18 17 -49.5 28t-57.5 11q-45 0 -45 -20q0 -13 28 -21.5t67.5 -18.5t79 -26.5t67.5 -54t28 -92.5
q0 -94 -69 -143t-175 -49zM323 -227h-151l17 183h180z" />
    <glyph glyph-name="uni021A" unicode="&#x21a;" horiz-adv-x="594" 
d="M407 0h-220v520h-177v210h574v-210h-177v-520zM350 -227h-151l17 183h180z" />
    <glyph glyph-name="uni021B" unicode="&#x21b;" horiz-adv-x="466" 
d="M328 -12q-248 0 -248 281v101h-70v180h79l31 180h165v-180h117v-180h-117v-101q0 -45 19 -65t58 -20q15 0 33 5l51 -181q-52 -20 -118 -20zM270 -227h-151l17 183h180z" />
    <glyph glyph-name="uni0228" unicode="&#x228;" horiz-adv-x="566" 
d="M261 -220q-68 0 -104 18l35 99q18 -8 50 -8q29 0 29 10q0 12 -28 12h-36l22 89h-179v730h476v-200h-257v-60h237v-196h-237v-64h267v-210h-187l-12 -38q53 -19 53 -77q0 -42 -39 -73.5t-90 -31.5z" />
    <glyph glyph-name="uni0229" unicode="&#x229;" 
d="M292 -220q-68 0 -104 18l35 99q18 -8 50 -8q29 0 29 10q0 12 -28 12h-36l21 83q-108 19 -173.5 96.5t-65.5 183.5q0 117 83 200.5t201 83.5t201.5 -83.5t83.5 -200.5q0 -29 -5 -62h-343q27 -63 91 -63q49 0 93 33l139 -89q-62 -77 -186 -99l-10 -32q53 -19 53 -77
q0 -42 -39 -73.5t-90 -31.5zM236 342h145q-17 61 -72 61t-73 -61z" />
    <glyph glyph-name="uni022A" unicode="&#x22a;" horiz-adv-x="825" 
d="M606 949h-390v160h390v-160zM306 761q-35 0 -60 24.5t-25 60.5t25 60.5t60 24.5t60 -24.5t25 -60.5t-25 -60.5t-60 -24.5zM516 761q-35 0 -60 24.5t-25 60.5t25 60.5t60 24.5t60 -24.5t25 -60.5t-25 -60.5t-60 -24.5zM413 -19q-159 0 -271 112.5t-112 271.5
q0 158 112 270t271 112q158 0 270 -112t112 -270q0 -159 -112 -271.5t-270 -112.5zM413 207q64 0 110 46.5t46 111.5q0 64 -46 110t-110 46t-110.5 -46t-46.5 -110q0 -65 46 -111.5t111 -46.5z" />
    <glyph glyph-name="uni022B" unicode="&#x22b;" 
d="M500 804h-390v160h390v-160zM200 596q-35 0 -60 24.5t-25 60.5t25 60.5t60 24.5t60 -24.5t25 -60.5t-25 -60.5t-60 -24.5zM410 596q-35 0 -60 24.5t-25 60.5t25 60.5t60 24.5t60 -24.5t25 -60.5t-25 -60.5t-60 -24.5zM304 -11q-118 0 -201 83.5t-83 201.5q0 117 83 200.5
t201 83.5t201.5 -83.5t83.5 -200.5q0 -118 -83.5 -201.5t-201.5 -83.5zM304 197q33 0 55 22.5t22 54.5t-22 54t-55 22t-54.5 -22t-21.5 -54q0 -33 21.5 -55t54.5 -22z" />
    <glyph glyph-name="uni0232" unicode="&#x232;" horiz-adv-x="660" 
d="M531 820h-390v160h390v-160zM440 0h-220v285l-220 445h246l84 -201l84 201h246l-220 -445v-285z" />
    <glyph glyph-name="uni0233" unicode="&#x233;" horiz-adv-x="571" 
d="M478 640h-390v160h390v-160zM118 -236q-66 0 -118 20l55 180q26 -7 52 -7q67 0 81 43l-186 550h220l68 -240l63 240h218l-169 -550q-40 -129 -111 -182.5t-173 -53.5z" />
    <glyph glyph-name="uni0237" unicode="&#x237;" horiz-adv-x="326" 
d="M38 -236q-66 0 -118 20l51 187q18 -5 33 -5q38 0 57.5 24.5t19.5 84.5v475h205v-475q0 -88 -20 -151t-56.5 -97t-78.5 -48.5t-93 -14.5z" />
    <glyph glyph-name="uni0259" unicode="&#x259;" 
d="M305 -11q-118 0 -201.5 83.5t-83.5 200.5q0 29 5 62h343q-27 63 -91 63q-49 0 -93 -33l-139 89q39 48 108 76t137 28q132 0 215.5 -82.5t83.5 -202.5q0 -117 -83 -200.5t-201 -83.5zM300 144q55 0 73 61h-145q17 -61 72 -61z" />
    <glyph glyph-name="uni0272" unicode="&#x272;" horiz-adv-x="603" 
d="M-38 -207v185q44 0 61 23t17 68v481h185l14 -55q52 67 124 67q205 0 205 -280v-282h-205v282q0 39 -17.5 58.5t-41.5 19.5t-41.5 -19.5t-17.5 -58.5v-216q-1 -136 -76 -204.5t-207 -68.5z" />
    <glyph glyph-name="circumflex" unicode="&#x2c6;" horiz-adv-x="400" 
d="M168 590h-148l102 140h156l102 -140h-148l-32 44z" />
    <glyph glyph-name="caron" unicode="&#x2c7;" horiz-adv-x="400" 
d="M278 590h-156l-102 140h148l32 -44l32 44h148z" />
    <glyph glyph-name="breve" unicode="&#x2d8;" horiz-adv-x="350" 
d="M175 634q-65 0 -110 41.5t-45 104.5h104q0 -20 14 -31.5t37 -11.5t37.5 11.5t14.5 31.5h103q0 -63 -45 -104.5t-110 -41.5z" />
    <glyph glyph-name="dotaccent" unicode="&#x2d9;" horiz-adv-x="251" 
d="M126 562q-44 0 -75 31t-31 75t31 75t75 31t74.5 -31t30.5 -75t-30.5 -75t-74.5 -31z" />
    <glyph glyph-name="ring" unicode="&#x2da;" horiz-adv-x="299" 
d="M150 550q-52 0 -91 32.5t-39 86.5t39 87t91 33t90.5 -33t38.5 -87t-38.5 -86.5t-90.5 -32.5zM150 650q8 0 13.5 6t5.5 13q0 8 -5.5 14t-13.5 6t-13.5 -6t-5.5 -14t5.5 -13.5t13.5 -5.5z" />
    <glyph glyph-name="ogonek" unicode="&#x2db;" horiz-adv-x="220" 
d="M113 -220q-38 0 -65.5 27.5t-27.5 70.5q0 54 47 122h96q-36 -60 -36 -80q0 -19 14 -19q7 0 13 6l46 -76q-10 -22 -34.5 -36.5t-52.5 -14.5z" />
    <glyph glyph-name="tilde" unicode="&#x2dc;" horiz-adv-x="390" 
d="M260 587q-31 0 -54.5 13.5t-36 26.5t-18.5 12q-11 -2 -11 -36h-120q0 59 27 101t83 42q32 0 56 -13.5t36 -26t17 -12.5q11 2 11 36h120q0 -65 -26.5 -104t-83.5 -39z" />
    <glyph glyph-name="hungarumlaut" unicode="&#x2dd;" horiz-adv-x="536" 
d="M149 588h-109l74 192h163zM368 588h-109l74 192h163z" />
    <glyph glyph-name="hookabovecomb" unicode="&#x309;" horiz-adv-x="0" 
d="M-211 646v78q52 0 52 12q0 10 -29 10q-32 0 -50 -8l-35 99q36 18 104 18q51 0 90 -31.5t39 -73.5q0 -44 -46 -74t-125 -30z" />
    <glyph glyph-name="uni031B" unicode="&#x31b;" horiz-adv-x="0" 
d="M-172 531v121q25 0 25 28v80h107v-122q0 -51 -43.5 -79t-88.5 -28z" />
    <glyph glyph-name="uni0326" unicode="&#x326;" horiz-adv-x="0" 
d="M-76 -199h-151l17 183h180z" />
    <glyph glyph-name="uni0394" unicode="&#x394;" horiz-adv-x="702" 
d="M692 0h-682v160l267 570h148l267 -570v-160zM351 510l-163 -350h326z" />
    <glyph glyph-name="uni03A9" unicode="&#x3a9;" horiz-adv-x="813" 
d="M322 0h-281v190h65q-76 90 -76 208q0 145 110 244t267 99t266.5 -99t109.5 -244q0 -117 -77 -208h65v-190h-281v190q36 23 64.5 71.5t28.5 102.5q0 79 -48.5 128t-127.5 49t-128 -49t-49 -128q0 -53 28 -101.5t64 -72.5v-190z" />
    <glyph glyph-name="uni03BC" unicode="&#x3bc;" horiz-adv-x="633" 
d="M260 -220h-205v770h205v-282q0 -39 17.5 -58.5t41.5 -19.5t41.5 19.5t17.5 58.5v282h205v-550h-205v23q-51 -33 -108 -33h-10v-210z" />
    <glyph glyph-name="uni1E04" unicode="&#x1e04;" horiz-adv-x="640" 
d="M358 0h-308v730h283q107 0 179.5 -52t72.5 -145q0 -76 -55 -137q90 -61 90 -169q0 -101 -73.5 -164t-188.5 -63zM270 532v-65l73 1q28 6 28 31q0 15 -12.5 24t-30.5 9h-58zM270 280v-70h80q43 0 43 35t-43 35h-80zM300 -236q-44 0 -75 31t-31 75t31 75t75 31t74.5 -31
t30.5 -75t-30.5 -75t-74.5 -31z" />
    <glyph glyph-name="uni1E05" unicode="&#x1e05;" horiz-adv-x="639" 
d="M371 -8q-81 0 -132 65l-14 -57h-185v780h205v-276q50 57 126 57q103 0 175.5 -83.5t72.5 -201.5q0 -117 -72.5 -200.5t-175.5 -83.5zM329 193q35 0 58.5 24t23.5 59t-23.5 59.5t-58.5 24.5t-59.5 -24.5t-24.5 -59.5t24.5 -59t59.5 -24zM338 -251q-44 0 -75 31t-31 75
t31 75t75 31t74.5 -31t30.5 -75t-30.5 -75t-74.5 -31z" />
    <glyph glyph-name="uni1E0C" unicode="&#x1e0c;" horiz-adv-x="720" 
d="M304 0h-254v730h254q169 0 277.5 -104t108.5 -261q0 -158 -108 -261.5t-278 -103.5zM270 514v-299h34q71 0 113.5 42.5t42.5 107.5t-42.5 107.5t-113.5 42.5zM279 -226q-44 0 -75 31t-31 75t31 75t75 31t74.5 -31t30.5 -75t-30.5 -75t-74.5 -31z" />
    <glyph glyph-name="uni1E0D" unicode="&#x1e0d;" horiz-adv-x="639" 
d="M268 -8q-103 0 -175.5 83.5t-72.5 200.5q0 118 72.5 201.5t175.5 83.5q76 0 126 -57v276h205v-780h-185l-14 57q-51 -65 -132 -65zM310 193q35 0 59.5 24t24.5 59t-24.5 59.5t-59.5 24.5t-58.5 -24.5t-23.5 -59.5t23.5 -59t58.5 -24zM305 -251q-44 0 -75 31t-31 75t31 75
t75 31t74.5 -31t30.5 -75t-30.5 -75t-74.5 -31z" />
    <glyph glyph-name="uni1E0E" unicode="&#x1e0e;" horiz-adv-x="720" 
d="M304 0h-254v730h254q169 0 277.5 -104t108.5 -261q0 -158 -108 -261.5t-278 -103.5zM270 514v-299h34q71 0 113.5 42.5t42.5 107.5t-42.5 107.5t-113.5 42.5zM468 -200h-390v160h390v-160z" />
    <glyph glyph-name="uni1E0F" unicode="&#x1e0f;" horiz-adv-x="639" 
d="M268 -8q-103 0 -175.5 83.5t-72.5 200.5q0 118 72.5 201.5t175.5 83.5q76 0 126 -57v276h205v-780h-185l-14 57q-51 -65 -132 -65zM310 193q35 0 59.5 24t24.5 59t-24.5 59.5t-59.5 24.5t-58.5 -24.5t-23.5 -59.5t23.5 -59t58.5 -24zM505 -200h-390v160h390v-160z" />
    <glyph glyph-name="uni1E12" unicode="&#x1e12;" horiz-adv-x="720" 
d="M304 0h-254v730h254q169 0 277.5 -104t108.5 -261q0 -158 -108 -261.5t-278 -103.5zM270 514v-299h34q71 0 113.5 42.5t42.5 107.5t-42.5 107.5t-113.5 42.5zM244 -190h-148l102 140h156l102 -140h-148l-32 44z" />
    <glyph glyph-name="uni1E13" unicode="&#x1e13;" horiz-adv-x="639" 
d="M268 -8q-103 0 -175.5 83.5t-72.5 200.5q0 118 72.5 201.5t175.5 83.5q76 0 126 -57v276h205v-780h-185l-14 57q-51 -65 -132 -65zM310 193q35 0 59.5 24t24.5 59t-24.5 59.5t-59.5 24.5t-58.5 -24.5t-23.5 -59.5t23.5 -59t58.5 -24zM273 -190h-148l102 140h156l102 -140
h-148l-32 44z" />
    <glyph glyph-name="uni1E24" unicode="&#x1e24;" horiz-adv-x="700" 
d="M270 0h-220v730h220v-262h160v262h220v-730h-220v248h-160v-248zM351 -231q-44 0 -75 31t-31 75t31 75t75 31t74.5 -31t30.5 -75t-30.5 -75t-74.5 -31z" />
    <glyph glyph-name="uni1E25" unicode="&#x1e25;" horiz-adv-x="603" 
d="M245 0h-205v780h205v-278q50 60 118 60q205 0 205 -280v-282h-205v282q0 39 -17.5 58.5t-41.5 19.5t-41.5 -19.5t-17.5 -58.5v-282zM287 -251q-44 0 -75 31t-31 75t31 75t75 31t74.5 -31t30.5 -75t-30.5 -75t-74.5 -31z" />
    <glyph glyph-name="uni1E2E" unicode="&#x1e2e;" horiz-adv-x="320" 
d="M229 964h-120l48 180h180zM55 767q-35 0 -60 24.5t-25 60.5t25 60.5t60 24.5t60 -24.5t25 -60.5t-25 -60.5t-60 -24.5zM265 767q-35 0 -60 24.5t-25 60.5t25 60.5t60 24.5t60 -24.5t25 -60.5t-25 -60.5t-60 -24.5zM270 0h-220v730h220v-730z" />
    <glyph glyph-name="uni1E2F" unicode="&#x1e2f;" horiz-adv-x="285" 
d="M213 819h-120l48 180h180zM48 630q-29 0 -49.5 20t-20.5 50t20.5 50t49.5 20t49.5 -20t20.5 -50t-20.5 -50t-49.5 -20zM237 630q-29 0 -49.5 20t-20.5 50t20.5 50t49.5 20t49.5 -20t20.5 -50t-20.5 -50t-49.5 -20zM245 0h-205v550h205v-550z" />
    <glyph glyph-name="uni1E36" unicode="&#x1e36;" horiz-adv-x="556" 
d="M546 0h-496v730h220v-510h276v-220zM279 -251q-44 0 -75 31t-31 75t31 75t75 31t74.5 -31t30.5 -75t-30.5 -75t-74.5 -31z" />
    <glyph glyph-name="uni1E37" unicode="&#x1e37;" horiz-adv-x="285" 
d="M245 0h-205v780h205v-780zM143 -251q-44 0 -75 31t-31 75t31 75t75 31t74.5 -31t30.5 -75t-30.5 -75t-74.5 -31z" />
    <glyph glyph-name="uni1E3C" unicode="&#x1e3c;" horiz-adv-x="556" 
d="M546 0h-496v730h220v-510h276v-220zM246 -190h-148l102 140h156l102 -140h-148l-32 44z" />
    <glyph glyph-name="uni1E3D" unicode="&#x1e3d;" horiz-adv-x="285" 
d="M245 0h-205v780h205v-780zM116 -190h-148l102 140h156l102 -140h-148l-32 44z" />
    <glyph glyph-name="uni1E3E" unicode="&#x1e3e;" horiz-adv-x="904" 
d="M498 800h-120l48 180h180zM270 0h-220v730h220l182 -316l182 316h220v-730h-220v351l-127 -222h-110l-127 222v-351z" />
    <glyph glyph-name="uni1E3F" unicode="&#x1e3f;" horiz-adv-x="896" 
d="M523 630h-120l48 180h180zM245 0h-205v550h185l14 -56q50 68 129 68q96 0 145 -68q24 31 59.5 49.5t72.5 18.5q216 0 216 -280v-282h-205v282q0 39 -15.5 58.5t-35.5 19.5q-21 0 -36.5 -19t-15.5 -59v-282h-205v282q0 39 -15.5 58.5t-35.5 19.5q-21 0 -36.5 -19
t-15.5 -59v-282z" />
    <glyph glyph-name="uni1E44" unicode="&#x1e44;" horiz-adv-x="740" 
d="M380 784q-44 0 -75 31t-31 75t31 75t75 31t74.5 -31t30.5 -75t-30.5 -75t-74.5 -31zM270 0h-220v730h220l200 -337v337h220v-730h-220l-200 337v-337z" />
    <glyph glyph-name="uni1E45" unicode="&#x1e45;" horiz-adv-x="603" 
d="M305 614q-44 0 -75 31t-31 75t31 75t75 31t74.5 -31t30.5 -75t-30.5 -75t-74.5 -31zM245 0h-205v550h185l14 -55q52 67 124 67q205 0 205 -280v-282h-205v282q0 39 -17.5 58.5t-41.5 19.5t-41.5 -19.5t-17.5 -58.5v-282z" />
    <glyph glyph-name="uni1E46" unicode="&#x1e46;" horiz-adv-x="740" 
d="M270 0h-220v730h220l200 -337v337h220v-730h-220l-200 337v-337zM351 -251q-44 0 -75 31t-31 75t31 75t75 31t74.5 -31t30.5 -75t-30.5 -75t-74.5 -31z" />
    <glyph glyph-name="uni1E47" unicode="&#x1e47;" horiz-adv-x="603" 
d="M245 0h-205v550h185l14 -55q52 67 124 67q205 0 205 -280v-282h-205v282q0 39 -17.5 58.5t-41.5 19.5t-41.5 -19.5t-17.5 -58.5v-282zM305 -241q-44 0 -75 31t-31 75t31 75t75 31t74.5 -31t30.5 -75t-30.5 -75t-74.5 -31z" />
    <glyph glyph-name="uni1E4A" unicode="&#x1e4a;" horiz-adv-x="740" 
d="M270 0h-220v730h220l200 -337v337h220v-730h-220l-200 337v-337zM318 -190h-148l102 140h156l102 -140h-148l-32 44z" />
    <glyph glyph-name="uni1E4B" unicode="&#x1e4b;" horiz-adv-x="603" 
d="M245 0h-205v550h185l14 -55q52 67 124 67q205 0 205 -280v-282h-205v282q0 39 -17.5 58.5t-41.5 19.5t-41.5 -19.5t-17.5 -58.5v-282zM272 -190h-148l102 140h156l102 -140h-148l-32 44z" />
    <glyph glyph-name="uni1E4C" unicode="&#x1e4c;" horiz-adv-x="825" 
d="M480 987h-120l48 180h180zM478 781q-24 0 -44.5 8.5t-30.5 18.5t-19 18t-15 7q-11 -2 -11 -36h-120q0 59 27 101t83 42q32 0 56 -13.5t36 -26.5t17 -12q11 2 11 36h120q0 -65 -26.5 -104t-83.5 -39zM413 -19q-159 0 -271 112.5t-112 271.5q0 158 112 270t271 112
q158 0 270 -112t112 -270q0 -159 -112 -271.5t-270 -112.5zM413 207q64 0 110 46.5t46 111.5q0 64 -46 110t-110 46t-110.5 -46t-46.5 -110q0 -65 46 -111.5t111 -46.5z" />
    <glyph glyph-name="uni1E4D" unicode="&#x1e4d;" 
d="M354 783h-120l48 180h180zM370 597q-24 0 -44.5 8.5t-30.5 18.5t-19 18t-15 7q-11 -2 -11 -36h-120q0 59 27 101t83 42q32 0 56 -13.5t36 -26.5t17 -12q11 2 11 36h120q0 -65 -26.5 -104t-83.5 -39zM304 -11q-118 0 -201 83.5t-83 201.5q0 117 83 200.5t201 83.5
t201.5 -83.5t83.5 -200.5q0 -118 -83.5 -201.5t-201.5 -83.5zM304 197q33 0 55 22.5t22 54.5t-22 54t-55 22t-54.5 -22t-21.5 -54q0 -33 21.5 -55t54.5 -22z" />
    <glyph glyph-name="uni1E50" unicode="&#x1e50;" horiz-adv-x="825" 
d="M475 989h-120l48 180h180zM608 782h-390v160h390v-160zM413 -19q-159 0 -271 112.5t-112 271.5q0 158 112 270t271 112q158 0 270 -112t112 -270q0 -159 -112 -271.5t-270 -112.5zM413 207q64 0 110 46.5t46 111.5q0 64 -46 110t-110 46t-110.5 -46t-46.5 -110
q0 -65 46 -111.5t111 -46.5z" />
    <glyph glyph-name="uni1E51" unicode="&#x1e51;" 
d="M365 794h-120l-108 180h180zM500 587h-390v160h390v-160zM304 -11q-118 0 -201 83.5t-83 201.5q0 117 83 200.5t201 83.5t201.5 -83.5t83.5 -200.5q0 -118 -83.5 -201.5t-201.5 -83.5zM304 197q33 0 55 22.5t22 54.5t-22 54t-55 22t-54.5 -22t-21.5 -54q0 -33 21.5 -55
t54.5 -22z" />
    <glyph glyph-name="uni1E52" unicode="&#x1e52;" horiz-adv-x="825" 
d="M475 999h-120l48 180h180zM608 792h-390v160h390v-160zM413 -19q-159 0 -271 112.5t-112 271.5q0 158 112 270t271 112q158 0 270 -112t112 -270q0 -159 -112 -271.5t-270 -112.5zM413 207q64 0 110 46.5t46 111.5q0 64 -46 110t-110 46t-110.5 -46t-46.5 -110
q0 -65 46 -111.5t111 -46.5z" />
    <glyph glyph-name="uni1E53" unicode="&#x1e53;" 
d="M367 794h-120l48 180h180zM500 587h-390v160h390v-160zM304 -11q-118 0 -201 83.5t-83 201.5q0 117 83 200.5t201 83.5t201.5 -83.5t83.5 -200.5q0 -118 -83.5 -201.5t-201.5 -83.5zM304 197q33 0 55 22.5t22 54.5t-22 54t-55 22t-54.5 -22t-21.5 -54q0 -33 21.5 -55
t54.5 -22z" />
    <glyph glyph-name="uni1E62" unicode="&#x1e62;" horiz-adv-x="600" 
d="M303 -19q-174 0 -273 123l135 137q64 -62 138 -62q53 0 53 33q0 20 -32 36t-77.5 32.5t-91.5 41t-78 74t-32 118.5q0 105 70.5 168t183.5 63q152 0 252 -120l-152 -120q-36 43 -94 43q-20 0 -33.5 -9t-13.5 -22q0 -17 32 -31.5t78 -30.5t92 -40t78 -72.5t32 -115.5
q0 -108 -72 -177t-195 -69zM301 -251q-44 0 -75 31t-31 75t31 75t75 31t74.5 -31t30.5 -75t-30.5 -75t-74.5 -31z" />
    <glyph glyph-name="uni1E63" unicode="&#x1e63;" horiz-adv-x="541" 
d="M272 -18q-149 0 -247 92l119 115q56 -43 123 -43q41 0 41 22q0 14 -27.5 24t-67 21t-78.5 28.5t-66.5 54t-27.5 88.5q0 82 61.5 131t161.5 49q160 0 240 -91l-106 -105q-18 17 -49.5 28t-57.5 11q-45 0 -45 -20q0 -13 28 -21.5t67.5 -18.5t79 -26.5t67.5 -54t28 -92.5
q0 -94 -69 -143t-175 -49zM271 -251q-44 0 -75 31t-31 75t31 75t75 31t74.5 -31t30.5 -75t-30.5 -75t-74.5 -31z" />
    <glyph glyph-name="uni1E6C" unicode="&#x1e6c;" horiz-adv-x="594" 
d="M407 0h-220v520h-177v210h574v-210h-177v-520zM298 -251q-44 0 -75 31t-31 75t31 75t75 31t74.5 -31t30.5 -75t-30.5 -75t-74.5 -31z" />
    <glyph glyph-name="uni1E6D" unicode="&#x1e6d;" horiz-adv-x="466" 
d="M328 -12q-248 0 -248 281v101h-70v180h79l31 180h165v-180h117v-180h-117v-101q0 -45 19 -65t58 -20q15 0 33 5l51 -181q-52 -20 -118 -20zM218 -251q-44 0 -75 31t-31 75t31 75t75 31t74.5 -31t30.5 -75t-30.5 -75t-74.5 -31z" />
    <glyph glyph-name="uni1E6E" unicode="&#x1e6e;" horiz-adv-x="594" 
d="M407 0h-220v520h-177v210h574v-210h-177v-520zM492 -200h-390v160h390v-160z" />
    <glyph glyph-name="uni1E6F" unicode="&#x1e6f;" horiz-adv-x="466" 
d="M328 -12q-248 0 -248 281v101h-70v180h79l31 180h165v-180h117v-180h-117v-101q0 -45 19 -65t58 -20q15 0 33 5l51 -181q-52 -20 -118 -20zM412 -210h-390v160h390v-160z" />
    <glyph glyph-name="uni1E70" unicode="&#x1e70;" horiz-adv-x="594" 
d="M407 0h-220v520h-177v210h574v-210h-177v-520zM265 -190h-148l102 140h156l102 -140h-148l-32 44z" />
    <glyph glyph-name="uni1E71" unicode="&#x1e71;" horiz-adv-x="466" 
d="M328 -12q-248 0 -248 281v101h-70v180h79l31 180h165v-180h117v-180h-117v-101q0 -45 19 -65t58 -20q15 0 33 5l51 -181q-52 -20 -118 -20zM188 -190h-148l102 140h156l102 -140h-148l-32 44z" />
    <glyph glyph-name="Wgrave" unicode="&#x1e80;" horiz-adv-x="1025" 
d="M586 800h-120l-108 180h180zM425 0h-223l-202 730h229l94 -354l95 356h189l95 -356l94 354h229l-202 -730h-223l-87 357z" />
    <glyph glyph-name="wgrave" unicode="&#x1e81;" horiz-adv-x="921" 
d="M515 630h-120l-108 180h180zM387 0h-199l-183 550h219l65 -234l68 234h207l68 -234l65 234h219l-183 -550h-199l-73 221z" />
    <glyph glyph-name="Wacute" unicode="&#x1e82;" horiz-adv-x="1025" 
d="M579 800h-120l48 180h180zM425 0h-223l-202 730h229l94 -354l95 356h189l95 -356l94 354h229l-202 -730h-223l-87 357z" />
    <glyph glyph-name="wacute" unicode="&#x1e83;" horiz-adv-x="921" 
d="M537 630h-120l48 180h180zM387 0h-199l-183 550h219l65 -234l68 234h207l68 -234l65 234h219l-183 -550h-199l-73 221z" />
    <glyph glyph-name="Wdieresis" unicode="&#x1e84;" horiz-adv-x="1025" 
d="M408 805q-35 0 -60 24.5t-25 60.5t25 60.5t60 24.5t60 -24.5t25 -60.5t-25 -60.5t-60 -24.5zM618 805q-35 0 -60 24.5t-25 60.5t25 60.5t60 24.5t60 -24.5t25 -60.5t-25 -60.5t-60 -24.5zM425 0h-223l-202 730h229l94 -354l95 356h189l95 -356l94 354h229l-202 -730h-223
l-87 357z" />
    <glyph glyph-name="wdieresis" unicode="&#x1e85;" horiz-adv-x="921" 
d="M356 635q-35 0 -60 24.5t-25 60.5t25 60.5t60 24.5t60 -24.5t25 -60.5t-25 -60.5t-60 -24.5zM566 635q-35 0 -60 24.5t-25 60.5t25 60.5t60 24.5t60 -24.5t25 -60.5t-25 -60.5t-60 -24.5zM387 0h-199l-183 550h219l65 -234l68 234h207l68 -234l65 234h219l-183 -550h-199
l-73 221z" />
    <glyph glyph-name="uni1E92" unicode="&#x1e92;" horiz-adv-x="641" 
d="M611 0h-581v215l273 300h-263v215h561v-216l-271 -299h281v-215zM341 -251q-44 0 -75 31t-31 75t31 75t75 31t74.5 -31t30.5 -75t-30.5 -75t-74.5 -31z" />
    <glyph glyph-name="uni1E93" unicode="&#x1e93;" horiz-adv-x="553" 
d="M518 0h-483v140l186 230h-186v180h469v-150l-166 -210h180v-190zM277 -251q-44 0 -75 31t-31 75t31 75t75 31t74.5 -31t30.5 -75t-30.5 -75t-74.5 -31z" />
    <glyph glyph-name="Germandbls" unicode="&#x1e9e;" horiz-adv-x="681" 
d="M433 -10q-84 0 -124 20v178q40 -10 79 -10q33 0 51.5 16t18.5 42q0 23 -12.5 42t-37.5 33.5t-44 22t-49 17.5v59l75 120q-32 34 -77 34q-24 0 -46 -15.5t-22 -43.5v-505h-195v540q0 89 78.5 144t184.5 55q109 0 177 -43t97 -111v-63l-70 -95l12 -6q12 -6 16.5 -8.5
t17.5 -11t20 -14.5t18.5 -17.5t18.5 -22.5t16 -27t13.5 -33t8 -38.5t3.5 -44.5q0 -93 -63.5 -153.5t-164.5 -60.5z" />
    <glyph glyph-name="uni1EA0" unicode="&#x1ea0;" horiz-adv-x="669" 
d="M232 0h-242l227 730h235l227 -730h-242l-21 86h-164zM334 429l-36 -153h73zM335 -206q-44 0 -75 31t-31 75t31 75t75 31t74.5 -31t30.5 -75t-30.5 -75t-74.5 -31z" />
    <glyph glyph-name="uni1EA1" unicode="&#x1ea1;" horiz-adv-x="639" 
d="M268 -8q-103 0 -175.5 83.5t-72.5 200.5q0 118 72.5 201.5t175.5 83.5q80 0 133 -65l13 54h185v-550h-185l-14 57q-51 -65 -132 -65zM310 193q35 0 59.5 24t24.5 59t-24.5 59.5t-59.5 24.5t-58.5 -24.5t-23.5 -59.5t23.5 -59t58.5 -24zM305 -251q-44 0 -75 31t-31 75
t31 75t75 31t74.5 -31t30.5 -75t-30.5 -75t-74.5 -31z" />
    <glyph glyph-name="uni1EA2" unicode="&#x1ea2;" horiz-adv-x="669" 
d="M291 786v78q52 0 52 12q0 10 -29 10q-32 0 -50 -8l-35 99q36 18 104 18q51 0 90 -31.5t39 -73.5q0 -44 -46 -74t-125 -30zM232 0h-242l227 730h235l227 -730h-242l-21 86h-164zM334 429l-36 -153h73z" />
    <glyph glyph-name="uni1EA3" unicode="&#x1ea3;" horiz-adv-x="639" 
d="M260 616v78q52 0 52 12q0 10 -29 10q-32 0 -50 -8l-35 99q36 18 104 18q51 0 90 -31.5t39 -73.5q0 -44 -46 -74t-125 -30zM268 -8q-103 0 -175.5 83.5t-72.5 200.5q0 118 72.5 201.5t175.5 83.5q80 0 133 -65l13 54h185v-550h-185l-14 57q-51 -65 -132 -65zM310 193
q35 0 59.5 24t24.5 59t-24.5 59.5t-59.5 24.5t-58.5 -24.5t-23.5 -59.5t23.5 -59t58.5 -24z" />
    <glyph glyph-name="uni1EA4" unicode="&#x1ea4;" horiz-adv-x="675" 
d="M577 905h-120l48 180h180zM312 765h-148l102 140h156l102 -140h-148l-32 44zM232 0h-242l227 730h235l227 -730h-242l-21 86h-164zM334 429l-36 -153h73z" />
    <glyph glyph-name="uni1EA5" unicode="&#x1ea5;" horiz-adv-x="639" 
d="M517 740h-120l48 180h180zM252 600h-148l102 140h156l102 -140h-148l-32 44zM268 -8q-103 0 -175.5 83.5t-72.5 200.5q0 118 72.5 201.5t175.5 83.5q80 0 133 -65l13 54h185v-550h-185l-14 57q-51 -65 -132 -65zM310 193q35 0 59.5 24t24.5 59t-24.5 59.5t-59.5 24.5
t-58.5 -24.5t-23.5 -59.5t23.5 -59t58.5 -24z" />
    <glyph glyph-name="uni1EA6" unicode="&#x1ea6;" horiz-adv-x="678" 
d="M218 903h-120l-108 180h180zM303 767h-148l102 140h156l102 -140h-148l-32 44zM241 0h-242l227 730h235l227 -730h-242l-21 86h-164zM343 429l-36 -153h73z" />
    <glyph glyph-name="uni1EA7" unicode="&#x1ea7;" horiz-adv-x="639" 
d="M248 738h-120l-108 180h180zM313 602h-148l102 140h156l102 -140h-148l-32 44zM268 -8q-103 0 -175.5 83.5t-72.5 200.5q0 118 72.5 201.5t175.5 83.5q80 0 133 -65l13 54h185v-550h-185l-14 57q-51 -65 -132 -65zM310 193q35 0 59.5 24t24.5 59t-24.5 59.5t-59.5 24.5
t-58.5 -24.5t-23.5 -59.5t23.5 -59t58.5 -24z" />
    <glyph glyph-name="uni1EA8" unicode="&#x1ea8;" horiz-adv-x="669" 
d="M443 912v78q52 0 52 12q0 10 -29 10q-32 0 -50 -8l-35 99q36 18 104 18q51 0 90 -31.5t39 -73.5q0 -44 -46 -74t-125 -30zM303 770h-148l102 140h156l102 -140h-148l-32 44zM232 0h-242l227 730h235l227 -730h-242l-21 86h-164zM334 429l-36 -153h73z" />
    <glyph glyph-name="uni1EA9" unicode="&#x1ea9;" horiz-adv-x="639" 
d="M422 727v78q52 0 52 12q0 10 -29 10q-32 0 -50 -8l-35 99q36 18 104 18q51 0 90 -31.5t39 -73.5q0 -44 -46 -74t-125 -30zM282 585h-148l102 140h156l102 -140h-148l-32 44zM268 -8q-103 0 -175.5 83.5t-72.5 200.5q0 118 72.5 201.5t175.5 83.5q80 0 133 -65l13 54h185
v-550h-185l-14 57q-51 -65 -132 -65zM310 193q35 0 59.5 24t24.5 59t-24.5 59.5t-59.5 24.5t-58.5 -24.5t-23.5 -59.5t23.5 -59t58.5 -24z" />
    <glyph glyph-name="uni1EAA" unicode="&#x1eaa;" horiz-adv-x="669" 
d="M395 929q-24 0 -44.5 8.5t-30.5 18.5t-19 18t-15 7q-11 -2 -11 -36h-120q0 59 27 101t83 42q32 0 56 -13.5t36 -26.5t17 -12q11 2 11 36h120q0 -65 -26.5 -104t-83.5 -39zM303 763h-148l102 140h156l102 -140h-148l-32 44zM232 0h-242l227 730h235l227 -730h-242l-21 86
h-164zM334 429l-36 -153h73z" />
    <glyph glyph-name="uni1EAB" unicode="&#x1eab;" horiz-adv-x="639" 
d="M375 764q-24 0 -44.5 8.5t-30.5 18.5t-19 18t-15 7q-11 -2 -11 -36h-120q0 59 27 101t83 42q32 0 56 -13.5t36 -26.5t17 -12q11 2 11 36h120q0 -65 -26.5 -104t-83.5 -39zM283 598h-148l102 140h156l102 -140h-148l-32 44zM268 -8q-103 0 -175.5 83.5t-72.5 200.5
q0 118 72.5 201.5t175.5 83.5q80 0 133 -65l13 54h185v-550h-185l-14 57q-51 -65 -132 -65zM310 193q35 0 59.5 24t24.5 59t-24.5 59.5t-59.5 24.5t-58.5 -24.5t-23.5 -59.5t23.5 -59t58.5 -24z" />
    <glyph glyph-name="uni1EAC" unicode="&#x1eac;" horiz-adv-x="669" 
d="M303 820h-148l102 140h156l102 -140h-148l-32 44zM232 0h-242l227 730h235l227 -730h-242l-21 86h-164zM334 429l-36 -153h73zM335 -206q-44 0 -75 31t-31 75t31 75t75 31t74.5 -31t30.5 -75t-30.5 -75t-74.5 -31z" />
    <glyph glyph-name="uni1EAD" unicode="&#x1ead;" horiz-adv-x="639" 
d="M273 650h-148l102 140h156l102 -140h-148l-32 44zM268 -8q-103 0 -175.5 83.5t-72.5 200.5q0 118 72.5 201.5t175.5 83.5q80 0 133 -65l13 54h185v-550h-185l-14 57q-51 -65 -132 -65zM310 193q35 0 59.5 24t24.5 59t-24.5 59.5t-59.5 24.5t-58.5 -24.5t-23.5 -59.5
t23.5 -59t58.5 -24zM305 -251q-44 0 -75 31t-31 75t31 75t75 31t74.5 -31t30.5 -75t-30.5 -75t-74.5 -31z" />
    <glyph glyph-name="uni1EAE" unicode="&#x1eae;" horiz-adv-x="669" 
d="M398 917h-120l48 180h180zM340 754q-65 0 -110 41.5t-45 104.5h104q0 -20 14 -31.5t37 -11.5t37.5 11.5t14.5 31.5h103q0 -63 -45 -104.5t-110 -41.5zM232 0h-242l227 730h235l227 -730h-242l-21 86h-164zM334 429l-36 -153h73z" />
    <glyph glyph-name="uni1EAF" unicode="&#x1eaf;" horiz-adv-x="639" 
d="M377 772h-120l48 180h180zM319 609q-65 0 -110 41.5t-45 104.5h104q0 -20 14 -31.5t37 -11.5t37.5 11.5t14.5 31.5h103q0 -63 -45 -104.5t-110 -41.5zM268 -8q-103 0 -175.5 83.5t-72.5 200.5q0 118 72.5 201.5t175.5 83.5q80 0 133 -65l13 54h185v-550h-185l-14 57
q-51 -65 -132 -65zM310 193q35 0 59.5 24t24.5 59t-24.5 59.5t-59.5 24.5t-58.5 -24.5t-23.5 -59.5t23.5 -59t58.5 -24z" />
    <glyph glyph-name="uni1EB0" unicode="&#x1eb0;" horiz-adv-x="669" 
d="M419 910h-120l-108 180h180zM350 747q-65 0 -110 41.5t-45 104.5h104q0 -20 14 -31.5t37 -11.5t37.5 11.5t14.5 31.5h103q0 -63 -45 -104.5t-110 -41.5zM232 0h-242l227 730h235l227 -730h-242l-21 86h-164zM334 429l-36 -153h73z" />
    <glyph glyph-name="uni1EB1" unicode="&#x1eb1;" horiz-adv-x="639" 
d="M387 772h-120l-108 180h180zM316 609q-65 0 -110 41.5t-45 104.5h104q0 -20 14 -31.5t37 -11.5t37.5 11.5t14.5 31.5h103q0 -63 -45 -104.5t-110 -41.5zM268 -8q-103 0 -175.5 83.5t-72.5 200.5q0 118 72.5 201.5t175.5 83.5q80 0 133 -65l13 54h185v-550h-185l-14 57
q-51 -65 -132 -65zM310 193q35 0 59.5 24t24.5 59t-24.5 59.5t-59.5 24.5t-58.5 -24.5t-23.5 -59.5t23.5 -59t58.5 -24z" />
    <glyph glyph-name="uni1EB2" unicode="&#x1eb2;" horiz-adv-x="669" 
d="M301 923v78q52 0 52 12q0 10 -29 10q-32 0 -50 -8l-35 99q36 18 104 18q51 0 90 -31.5t39 -73.5q0 -44 -46 -74t-125 -30zM338 758q-65 0 -110 41.5t-45 104.5h104q0 -20 14 -31.5t37 -11.5t37.5 11.5t14.5 31.5h103q0 -63 -45 -104.5t-110 -41.5zM232 0h-242l227 730
h235l227 -730h-242l-21 86h-164zM334 429l-36 -153h73z" />
    <glyph glyph-name="uni1EB3" unicode="&#x1eb3;" horiz-adv-x="639" 
d="M288 758v78q52 0 52 12q0 10 -29 10q-32 0 -50 -8l-35 99q36 18 104 18q51 0 90 -31.5t39 -73.5q0 -44 -46 -74t-125 -30zM325 593q-65 0 -110 41.5t-45 104.5h104q0 -20 14 -31.5t37 -11.5t37.5 11.5t14.5 31.5h103q0 -63 -45 -104.5t-110 -41.5zM268 -8
q-103 0 -175.5 83.5t-72.5 200.5q0 118 72.5 201.5t175.5 83.5q80 0 133 -65l13 54h185v-550h-185l-14 57q-51 -65 -132 -65zM310 193q35 0 59.5 24t24.5 59t-24.5 59.5t-59.5 24.5t-58.5 -24.5t-23.5 -59.5t23.5 -59t58.5 -24z" />
    <glyph glyph-name="uni1EB4" unicode="&#x1eb4;" horiz-adv-x="669" 
d="M416 928q-24 0 -44.5 8.5t-30.5 18.5t-19 18t-15 7q-11 -2 -11 -36h-120q0 59 27 101t83 42q32 0 56 -13.5t36 -26.5t17 -12q11 2 11 36h120q0 -65 -26.5 -104t-83.5 -39zM347 763q-65 0 -110 41.5t-45 104.5h104q0 -20 14 -31.5t37 -11.5t37.5 11.5t14.5 31.5h103
q0 -63 -45 -104.5t-110 -41.5zM232 0h-242l227 730h235l227 -730h-242l-21 86h-164zM334 429l-36 -153h73z" />
    <glyph glyph-name="uni1EB5" unicode="&#x1eb5;" horiz-adv-x="639" 
d="M402 783q-24 0 -44.5 8.5t-30.5 18.5t-19 18t-15 7q-11 -2 -11 -36h-120q0 59 27 101t83 42q32 0 56 -13.5t36 -26.5t17 -12q11 2 11 36h120q0 -65 -26.5 -104t-83.5 -39zM333 618q-65 0 -110 41.5t-45 104.5h104q0 -20 14 -31.5t37 -11.5t37.5 11.5t14.5 31.5h103
q0 -63 -45 -104.5t-110 -41.5zM268 -8q-103 0 -175.5 83.5t-72.5 200.5q0 118 72.5 201.5t175.5 83.5q80 0 133 -65l13 54h185v-550h-185l-14 57q-51 -65 -132 -65zM310 193q35 0 59.5 24t24.5 59t-24.5 59.5t-59.5 24.5t-58.5 -24.5t-23.5 -59.5t23.5 -59t58.5 -24z" />
    <glyph glyph-name="uni1EB6" unicode="&#x1eb6;" horiz-adv-x="669" 
d="M335 817q-65 0 -110 41.5t-45 104.5h104q0 -20 14 -31.5t37 -11.5t37.5 11.5t14.5 31.5h103q0 -63 -45 -104.5t-110 -41.5zM232 0h-242l227 730h235l227 -730h-242l-21 86h-164zM334 429l-36 -153h73zM335 -206q-44 0 -75 31t-31 75t31 75t75 31t74.5 -31t30.5 -75
t-30.5 -75t-74.5 -31z" />
    <glyph glyph-name="uni1EB7" unicode="&#x1eb7;" horiz-adv-x="639" 
d="M305 647q-65 0 -110 41.5t-45 104.5h104q0 -20 14 -31.5t37 -11.5t37.5 11.5t14.5 31.5h103q0 -63 -45 -104.5t-110 -41.5zM268 -8q-103 0 -175.5 83.5t-72.5 200.5q0 118 72.5 201.5t175.5 83.5q80 0 133 -65l13 54h185v-550h-185l-14 57q-51 -65 -132 -65zM310 193
q35 0 59.5 24t24.5 59t-24.5 59.5t-59.5 24.5t-58.5 -24.5t-23.5 -59.5t23.5 -59t58.5 -24zM305 -251q-44 0 -75 31t-31 75t31 75t75 31t74.5 -31t30.5 -75t-30.5 -75t-74.5 -31z" />
    <glyph glyph-name="uni1EB8" unicode="&#x1eb8;" horiz-adv-x="566" 
d="M536 0h-486v730h476v-200h-257v-60h237v-196h-237v-64h267v-210zM294 -226q-44 0 -75 31t-31 75t31 75t75 31t74.5 -31t30.5 -75t-30.5 -75t-74.5 -31z" />
    <glyph glyph-name="uni1EB9" unicode="&#x1eb9;" 
d="M319 -11q-132 0 -215.5 82.5t-83.5 202.5q0 117 83 200.5t201 83.5t201.5 -83.5t83.5 -200.5q0 -29 -5 -62h-343q27 -63 91 -63q49 0 93 33l139 -89q-39 -48 -108 -76t-137 -28zM236 342h145q-17 61 -72 61t-73 -61zM305 -251q-44 0 -75 31t-31 75t31 75t75 31t74.5 -31
t30.5 -75t-30.5 -75t-74.5 -31z" />
    <glyph glyph-name="uni1EBA" unicode="&#x1eba;" horiz-adv-x="566" 
d="M219 786v78q52 0 52 12q0 10 -29 10q-32 0 -50 -8l-35 99q36 18 104 18q51 0 90 -31.5t39 -73.5q0 -44 -46 -74t-125 -30zM536 0h-486v730h476v-200h-257v-60h237v-196h-237v-64h267v-210z" />
    <glyph glyph-name="uni1EBB" unicode="&#x1ebb;" 
d="M250 616v78q52 0 52 12q0 10 -29 10q-32 0 -50 -8l-35 99q36 18 104 18q51 0 90 -31.5t39 -73.5q0 -44 -46 -74t-125 -30zM319 -11q-132 0 -215.5 82.5t-83.5 202.5q0 117 83 200.5t201 83.5t201.5 -83.5t83.5 -200.5q0 -29 -5 -62h-343q27 -63 91 -63q49 0 93 33
l139 -89q-39 -48 -108 -76t-137 -28zM236 342h145q-17 61 -72 61t-73 -61z" />
    <glyph glyph-name="uni1EBC" unicode="&#x1ebc;" horiz-adv-x="566" 
d="M338 811q-31 0 -54.5 13.5t-36 26.5t-18.5 12q-11 -2 -11 -36h-120q0 59 27 101t83 42q32 0 56 -13.5t36 -26t17 -12.5q11 2 11 36h120q0 -65 -26.5 -104t-83.5 -39zM536 0h-486v730h476v-200h-257v-60h237v-196h-237v-64h267v-210z" />
    <glyph glyph-name="uni1EBD" unicode="&#x1ebd;" 
d="M370 641q-31 0 -54.5 13.5t-36 26.5t-18.5 12q-11 -2 -11 -36h-120q0 59 27 101t83 42q32 0 56 -13.5t36 -26t17 -12.5q11 2 11 36h120q0 -65 -26.5 -104t-83.5 -39zM319 -11q-132 0 -215.5 82.5t-83.5 202.5q0 117 83 200.5t201 83.5t201.5 -83.5t83.5 -200.5
q0 -29 -5 -62h-343q27 -63 91 -63q49 0 93 33l139 -89q-39 -48 -108 -76t-137 -28zM236 342h145q-17 61 -72 61t-73 -61z" />
    <glyph glyph-name="uni1EBE" unicode="&#x1ebe;" horiz-adv-x="632" 
d="M494 905h-120l48 180h180zM229 765h-148l102 140h156l102 -140h-148l-32 44zM536 0h-486v730h476v-200h-257v-60h237v-196h-237v-64h267v-210z" />
    <glyph glyph-name="uni1EBF" unicode="&#x1ebf;" horiz-adv-x="625" 
d="M497 740h-120l48 180h180zM232 600h-148l102 140h156l102 -140h-148l-32 44zM319 -11q-132 0 -215.5 82.5t-83.5 202.5q0 117 83 200.5t201 83.5t201.5 -83.5t83.5 -200.5q0 -29 -5 -62h-343q27 -63 91 -63q49 0 93 33l139 -89q-39 -48 -108 -76t-137 -28zM236 342h145
q-17 61 -72 61t-73 -61z" />
    <glyph glyph-name="uni1EC0" unicode="&#x1ec0;" horiz-adv-x="669" 
d="M278 903h-120l-108 180h180zM363 767h-148l102 140h156l102 -140h-148l-32 44zM639 0h-486v730h476v-200h-257v-60h237v-196h-237v-64h267v-210z" />
    <glyph glyph-name="uni1EC1" unicode="&#x1ec1;" horiz-adv-x="639" 
d="M248 738h-120l-108 180h180zM333 602h-148l102 140h156l102 -140h-148l-32 44zM349 -11q-132 0 -215.5 82.5t-83.5 202.5q0 117 83 200.5t201 83.5t201.5 -83.5t83.5 -200.5q0 -29 -5 -62h-343q27 -63 91 -63q49 0 93 33l139 -89q-39 -48 -108 -76t-137 -28zM266 342h145
q-17 61 -72 61t-73 -61z" />
    <glyph glyph-name="uni1EC2" unicode="&#x1ec2;" horiz-adv-x="576" 
d="M375 912v78q52 0 52 12q0 10 -29 10q-32 0 -50 -8l-35 99q36 18 104 18q51 0 90 -31.5t39 -73.5q0 -44 -46 -74t-125 -30zM235 770h-148l102 140h156l102 -140h-148l-32 44zM536 0h-486v730h476v-200h-257v-60h237v-196h-237v-64h267v-210z" />
    <glyph glyph-name="uni1EC3" unicode="&#x1ec3;" 
d="M363 747v78q52 0 52 12q0 10 -29 10q-32 0 -50 -8l-35 99q36 18 104 18q51 0 90 -31.5t39 -73.5q0 -44 -46 -74t-125 -30zM223 605h-148l102 140h156l102 -140h-148l-32 44zM319 -11q-132 0 -215.5 82.5t-83.5 202.5q0 117 83 200.5t201 83.5t201.5 -83.5t83.5 -200.5
q0 -29 -5 -62h-343q27 -63 91 -63q49 0 93 33l139 -89q-39 -48 -108 -76t-137 -28zM236 342h145q-17 61 -72 61t-73 -61z" />
    <glyph glyph-name="uni1EC4" unicode="&#x1ec4;" horiz-adv-x="566" 
d="M353 929q-24 0 -44.5 8.5t-30.5 18.5t-19 18t-15 7q-11 -2 -11 -36h-120q0 59 27 101t83 42q32 0 56 -13.5t36 -26.5t17 -12q11 2 11 36h120q0 -65 -26.5 -104t-83.5 -39zM261 763h-148l102 140h156l102 -140h-148l-32 44zM536 0h-486v730h476v-200h-257v-60h237v-196
h-237v-64h267v-210z" />
    <glyph glyph-name="uni1EC5" unicode="&#x1ec5;" 
d="M365 764q-24 0 -44.5 8.5t-30.5 18.5t-19 18t-15 7q-11 -2 -11 -36h-120q0 59 27 101t83 42q32 0 56 -13.5t36 -26.5t17 -12q11 2 11 36h120q0 -65 -26.5 -104t-83.5 -39zM273 598h-148l102 140h156l102 -140h-148l-32 44zM319 -11q-132 0 -215.5 82.5t-83.5 202.5
q0 117 83 200.5t201 83.5t201.5 -83.5t83.5 -200.5q0 -29 -5 -62h-343q27 -63 91 -63q49 0 93 33l139 -89q-39 -48 -108 -76t-137 -28zM236 342h145q-17 61 -72 61t-73 -61z" />
    <glyph glyph-name="uni1EC6" unicode="&#x1ec6;" horiz-adv-x="566" 
d="M266 820h-148l102 140h156l102 -140h-148l-32 44zM536 0h-486v730h476v-200h-257v-60h237v-196h-237v-64h267v-210zM294 -226q-44 0 -75 31t-31 75t31 75t75 31t74.5 -31t30.5 -75t-30.5 -75t-74.5 -31z" />
    <glyph glyph-name="uni1EC7" unicode="&#x1ec7;" 
d="M273 650h-148l102 140h156l102 -140h-148l-32 44zM319 -11q-132 0 -215.5 82.5t-83.5 202.5q0 117 83 200.5t201 83.5t201.5 -83.5t83.5 -200.5q0 -29 -5 -62h-343q27 -63 91 -63q49 0 93 33l139 -89q-39 -48 -108 -76t-137 -28zM236 342h145q-17 61 -72 61t-73 -61z
M305 -251q-44 0 -75 31t-31 75t31 75t75 31t74.5 -31t30.5 -75t-30.5 -75t-74.5 -31z" />
    <glyph glyph-name="uni1EC8" unicode="&#x1ec8;" horiz-adv-x="320" 
d="M105 786v78q52 0 52 12q0 10 -29 10q-32 0 -50 -8l-35 99q36 18 104 18q51 0 90 -31.5t39 -73.5q0 -44 -46 -74t-125 -30zM270 0h-220v730h220v-730z" />
    <glyph glyph-name="uni1EC9" unicode="&#x1ec9;" horiz-adv-x="285" 
d="M82 616v78q52 0 52 12q0 10 -29 10q-32 0 -50 -8l-35 99q36 18 104 18q51 0 90 -31.5t39 -73.5q0 -44 -46 -74t-125 -30zM245 0h-205v550h205v-550z" />
    <glyph glyph-name="uni1ECA" unicode="&#x1eca;" horiz-adv-x="320" 
d="M270 0h-220v730h220v-730zM158 -251q-44 0 -75 31t-31 75t31 75t75 31t74.5 -31t30.5 -75t-30.5 -75t-74.5 -31z" />
    <glyph glyph-name="uni1ECB" unicode="&#x1ecb;" horiz-adv-x="286" 
d="M143 576q-45 0 -77 32t-32 77q0 46 32 78t77 32t77 -32t32 -78q0 -45 -32 -77t-77 -32zM245 0h-205v550h205v-550zM143 -251q-44 0 -75 31t-31 75t31 75t75 31t74.5 -31t30.5 -75t-30.5 -75t-74.5 -31z" />
    <glyph glyph-name="uni1ECC" unicode="&#x1ecc;" horiz-adv-x="825" 
d="M413 -19q-159 0 -271 112.5t-112 271.5q0 158 112 270t271 112q158 0 270 -112t112 -270q0 -159 -112 -271.5t-270 -112.5zM413 207q64 0 110 46.5t46 111.5q0 64 -46 110t-110 46t-110.5 -46t-46.5 -110q0 -65 46 -111.5t111 -46.5zM413 -251q-44 0 -75 31t-31 75t31 75
t75 31t74.5 -31t30.5 -75t-30.5 -75t-74.5 -31z" />
    <glyph glyph-name="uni1ECD" unicode="&#x1ecd;" 
d="M304 -11q-118 0 -201 83.5t-83 201.5q0 117 83 200.5t201 83.5t201.5 -83.5t83.5 -200.5q0 -118 -83.5 -201.5t-201.5 -83.5zM304 197q33 0 55 22.5t22 54.5t-22 54t-55 22t-54.5 -22t-21.5 -54q0 -33 21.5 -55t54.5 -22zM305 -251q-44 0 -75 31t-31 75t31 75t75 31
t74.5 -31t30.5 -75t-30.5 -75t-74.5 -31z" />
    <glyph glyph-name="uni1ECE" unicode="&#x1ece;" horiz-adv-x="825" 
d="M353 786v78q52 0 52 12q0 10 -29 10q-32 0 -50 -8l-35 99q36 18 104 18q51 0 90 -31.5t39 -73.5q0 -44 -46 -74t-125 -30zM413 -19q-159 0 -271 112.5t-112 271.5q0 158 112 270t271 112q158 0 270 -112t112 -270q0 -159 -112 -271.5t-270 -112.5zM413 207q64 0 110 46.5
t46 111.5q0 64 -46 110t-110 46t-110.5 -46t-46.5 -110q0 -65 46 -111.5t111 -46.5z" />
    <glyph glyph-name="uni1ECF" unicode="&#x1ecf;" 
d="M250 616v78q52 0 52 12q0 10 -29 10q-32 0 -50 -8l-35 99q36 18 104 18q51 0 90 -31.5t39 -73.5q0 -44 -46 -74t-125 -30zM304 -11q-118 0 -201 83.5t-83 201.5q0 117 83 200.5t201 83.5t201.5 -83.5t83.5 -200.5q0 -118 -83.5 -201.5t-201.5 -83.5zM304 197
q33 0 55 22.5t22 54.5t-22 54t-55 22t-54.5 -22t-21.5 -54q0 -33 21.5 -55t54.5 -22z" />
    <glyph glyph-name="uni1ED0" unicode="&#x1ed0;" horiz-adv-x="825" 
d="M630 905h-120l48 180h180zM365 765h-148l102 140h156l102 -140h-148l-32 44zM413 -19q-159 0 -271 112.5t-112 271.5q0 158 112 270t271 112q158 0 270 -112t112 -270q0 -159 -112 -271.5t-270 -112.5zM413 207q64 0 110 46.5t46 111.5q0 64 -46 110t-110 46t-110.5 -46
t-46.5 -110q0 -65 46 -111.5t111 -46.5z" />
    <glyph glyph-name="uni1ED1" unicode="&#x1ed1;" horiz-adv-x="615" 
d="M487 740h-120l48 180h180zM222 600h-148l102 140h156l102 -140h-148l-32 44zM304 -11q-118 0 -201 83.5t-83 201.5q0 117 83 200.5t201 83.5t201.5 -83.5t83.5 -200.5q0 -118 -83.5 -201.5t-201.5 -83.5zM304 197q33 0 55 22.5t22 54.5t-22 54t-55 22t-54.5 -22
t-21.5 -54q0 -33 21.5 -55t54.5 -22z" />
    <glyph glyph-name="uni1ED2" unicode="&#x1ed2;" horiz-adv-x="825" 
d="M291 903h-120l-108 180h180zM376 767h-148l102 140h156l102 -140h-148l-32 44zM413 -19q-159 0 -271 112.5t-112 271.5q0 158 112 270t271 112q158 0 270 -112t112 -270q0 -159 -112 -271.5t-270 -112.5zM413 207q64 0 110 46.5t46 111.5q0 64 -46 110t-110 46
t-110.5 -46t-46.5 -110q0 -65 46 -111.5t111 -46.5z" />
    <glyph glyph-name="uni1ED3" unicode="&#x1ed3;" 
d="M270 738h-120l-108 180h180zM355 602h-148l102 140h156l102 -140h-148l-32 44zM304 -11q-118 0 -201 83.5t-83 201.5q0 117 83 200.5t201 83.5t201.5 -83.5t83.5 -200.5q0 -118 -83.5 -201.5t-201.5 -83.5zM304 197q33 0 55 22.5t22 54.5t-22 54t-55 22t-54.5 -22
t-21.5 -54q0 -33 21.5 -55t54.5 -22z" />
    <glyph glyph-name="uni1ED4" unicode="&#x1ed4;" horiz-adv-x="825" 
d="M466 912v78q52 0 52 12q0 10 -29 10q-32 0 -50 -8l-35 99q36 18 104 18q51 0 90 -31.5t39 -73.5q0 -44 -46 -74t-125 -30zM326 770h-148l102 140h156l102 -140h-148l-32 44zM413 -19q-159 0 -271 112.5t-112 271.5q0 158 112 270t271 112q158 0 270 -112t112 -270
q0 -159 -112 -271.5t-270 -112.5zM413 207q64 0 110 46.5t46 111.5q0 64 -46 110t-110 46t-110.5 -46t-46.5 -110q0 -65 46 -111.5t111 -46.5z" />
    <glyph glyph-name="uni1ED5" unicode="&#x1ed5;" 
d="M383 747v78q52 0 52 12q0 10 -29 10q-32 0 -50 -8l-35 99q36 18 104 18q51 0 90 -31.5t39 -73.5q0 -44 -46 -74t-125 -30zM243 605h-148l102 140h156l102 -140h-148l-32 44zM304 -11q-118 0 -201 83.5t-83 201.5q0 117 83 200.5t201 83.5t201.5 -83.5t83.5 -200.5
q0 -118 -83.5 -201.5t-201.5 -83.5zM304 197q33 0 55 22.5t22 54.5t-22 54t-55 22t-54.5 -22t-21.5 -54q0 -33 21.5 -55t54.5 -22z" />
    <glyph glyph-name="uni1ED6" unicode="&#x1ed6;" horiz-adv-x="825" 
d="M473 929q-24 0 -44.5 8.5t-30.5 18.5t-19 18t-15 7q-11 -2 -11 -36h-120q0 59 27 101t83 42q32 0 56 -13.5t36 -26.5t17 -12q11 2 11 36h120q0 -65 -26.5 -104t-83.5 -39zM381 763h-148l102 140h156l102 -140h-148l-32 44zM413 -19q-159 0 -271 112.5t-112 271.5
q0 158 112 270t271 112q158 0 270 -112t112 -270q0 -159 -112 -271.5t-270 -112.5zM413 207q64 0 110 46.5t46 111.5q0 64 -46 110t-110 46t-110.5 -46t-46.5 -110q0 -65 46 -111.5t111 -46.5z" />
    <glyph glyph-name="uni1ED7" unicode="&#x1ed7;" 
d="M365 764q-24 0 -44.5 8.5t-30.5 18.5t-19 18t-15 7q-11 -2 -11 -36h-120q0 59 27 101t83 42q32 0 56 -13.5t36 -26.5t17 -12q11 2 11 36h120q0 -65 -26.5 -104t-83.5 -39zM273 598h-148l102 140h156l102 -140h-148l-32 44zM304 -11q-118 0 -201 83.5t-83 201.5
q0 117 83 200.5t201 83.5t201.5 -83.5t83.5 -200.5q0 -118 -83.5 -201.5t-201.5 -83.5zM304 197q33 0 55 22.5t22 54.5t-22 54t-55 22t-54.5 -22t-21.5 -54q0 -33 21.5 -55t54.5 -22z" />
    <glyph glyph-name="uni1ED8" unicode="&#x1ed8;" horiz-adv-x="825" 
d="M381 820h-148l102 140h156l102 -140h-148l-32 44zM413 -19q-159 0 -271 112.5t-112 271.5q0 158 112 270t271 112q158 0 270 -112t112 -270q0 -159 -112 -271.5t-270 -112.5zM413 207q64 0 110 46.5t46 111.5q0 64 -46 110t-110 46t-110.5 -46t-46.5 -110
q0 -65 46 -111.5t111 -46.5zM413 -251q-44 0 -75 31t-31 75t31 75t75 31t74.5 -31t30.5 -75t-30.5 -75t-74.5 -31z" />
    <glyph glyph-name="uni1ED9" unicode="&#x1ed9;" 
d="M273 650h-148l102 140h156l102 -140h-148l-32 44zM304 -11q-118 0 -201 83.5t-83 201.5q0 117 83 200.5t201 83.5t201.5 -83.5t83.5 -200.5q0 -118 -83.5 -201.5t-201.5 -83.5zM304 197q33 0 55 22.5t22 54.5t-22 54t-55 22t-54.5 -22t-21.5 -54q0 -33 21.5 -55t54.5 -22
zM305 -251q-44 0 -75 31t-31 75t31 75t75 31t74.5 -31t30.5 -75t-30.5 -75t-74.5 -31z" />
    <glyph glyph-name="uni1EDA" unicode="&#x1eda;" horiz-adv-x="830" 
d="M461 800h-120l48 180h180zM413 -19q-159 0 -271 112.5t-112 271.5q0 158 112 270t271 112q146 0 255 -98q9 0 17 6.5t8 24.5v80h107v-122q0 -55 -54 -86q49 -87 49 -187q0 -159 -112 -271.5t-270 -112.5zM413 207q64 0 110 46.5t46 111.5q0 64 -46 110t-110 46
t-110.5 -46t-46.5 -110q0 -65 46 -111.5t111 -46.5z" />
    <glyph glyph-name="uni1EDB" unicode="&#x1edb;" 
d="M342 630h-120l48 180h180zM304 -11q-118 0 -201 83.5t-83 201.5q0 117 83 200.5t201 83.5q86 0 159 -49q19 5 19 28v80h107v-122q0 -46 -40 -77q40 -67 40 -144q0 -118 -83.5 -201.5t-201.5 -83.5zM304 197q33 0 55 22.5t22 54.5t-22 54t-55 22t-54.5 -22t-21.5 -54
q0 -33 21.5 -55t54.5 -22z" />
    <glyph glyph-name="uni1EDC" unicode="&#x1edc;" horiz-adv-x="830" 
d="M478 800h-120l-108 180h180zM413 -19q-159 0 -271 112.5t-112 271.5q0 158 112 270t271 112q146 0 255 -98q9 0 17 6.5t8 24.5v80h107v-122q0 -55 -54 -86q49 -87 49 -187q0 -159 -112 -271.5t-270 -112.5zM413 207q64 0 110 46.5t46 111.5q0 64 -46 110t-110 46
t-110.5 -46t-46.5 -110q0 -65 46 -111.5t111 -46.5z" />
    <glyph glyph-name="uni1EDD" unicode="&#x1edd;" 
d="M380 630h-120l-108 180h180zM304 -11q-118 0 -201 83.5t-83 201.5q0 117 83 200.5t201 83.5q86 0 159 -49q19 5 19 28v80h107v-122q0 -46 -40 -77q40 -67 40 -144q0 -118 -83.5 -201.5t-201.5 -83.5zM304 197q33 0 55 22.5t22 54.5t-22 54t-55 22t-54.5 -22t-21.5 -54
q0 -33 21.5 -55t54.5 -22z" />
    <glyph glyph-name="uni1EDE" unicode="&#x1ede;" horiz-adv-x="830" 
d="M355 786v78q52 0 52 12q0 10 -29 10q-32 0 -50 -8l-35 99q36 18 104 18q51 0 90 -31.5t39 -73.5q0 -44 -46 -74t-125 -30zM413 -19q-159 0 -271 112.5t-112 271.5q0 158 112 270t271 112q146 0 255 -98q9 0 17 6.5t8 24.5v80h107v-122q0 -55 -54 -86q49 -87 49 -187
q0 -159 -112 -271.5t-270 -112.5zM413 207q64 0 110 46.5t46 111.5q0 64 -46 110t-110 46t-110.5 -46t-46.5 -110q0 -65 46 -111.5t111 -46.5z" />
    <glyph glyph-name="uni1EDF" unicode="&#x1edf;" 
d="M252 616v78q52 0 52 12q0 10 -29 10q-32 0 -50 -8l-35 99q36 18 104 18q51 0 90 -31.5t39 -73.5q0 -44 -46 -74t-125 -30zM304 -11q-118 0 -201 83.5t-83 201.5q0 117 83 200.5t201 83.5q86 0 159 -49q19 5 19 28v80h107v-122q0 -46 -40 -77q40 -67 40 -144
q0 -118 -83.5 -201.5t-201.5 -83.5zM304 197q33 0 55 22.5t22 54.5t-22 54t-55 22t-54.5 -22t-21.5 -54q0 -33 21.5 -55t54.5 -22z" />
    <glyph glyph-name="uni1EE0" unicode="&#x1ee0;" horiz-adv-x="830" 
d="M475 811q-24 0 -44.5 8.5t-30.5 18.5t-19 18t-15 7q-11 -2 -11 -36h-120q0 59 27 101t83 42q32 0 56 -13.5t36 -26.5t17 -12q11 2 11 36h120q0 -65 -26.5 -104t-83.5 -39zM413 -19q-159 0 -271 112.5t-112 271.5q0 158 112 270t271 112q146 0 255 -98q9 0 17 6.5t8 24.5
v80h107v-122q0 -55 -54 -86q49 -87 49 -187q0 -159 -112 -271.5t-270 -112.5zM413 207q64 0 110 46.5t46 111.5q0 64 -46 110t-110 46t-110.5 -46t-46.5 -110q0 -65 46 -111.5t111 -46.5z" />
    <glyph glyph-name="uni1EE1" unicode="&#x1ee1;" 
d="M371 641q-24 0 -44.5 8.5t-30.5 18.5t-19 18t-15 7q-11 -2 -11 -36h-120q0 59 27 101t83 42q32 0 56 -13.5t36 -26.5t17 -12q11 2 11 36h120q0 -65 -26.5 -104t-83.5 -39zM304 -11q-118 0 -201 83.5t-83 201.5q0 117 83 200.5t201 83.5q86 0 159 -49q19 5 19 28v80h107
v-122q0 -46 -40 -77q40 -67 40 -144q0 -118 -83.5 -201.5t-201.5 -83.5zM304 197q33 0 55 22.5t22 54.5t-22 54t-55 22t-54.5 -22t-21.5 -54q0 -33 21.5 -55t54.5 -22z" />
    <glyph glyph-name="uni1EE2" unicode="&#x1ee2;" horiz-adv-x="830" 
d="M413 -19q-159 0 -271 112.5t-112 271.5q0 158 112 270t271 112q146 0 255 -98q9 0 17 6.5t8 24.5v80h107v-122q0 -55 -54 -86q49 -87 49 -187q0 -159 -112 -271.5t-270 -112.5zM413 207q64 0 110 46.5t46 111.5q0 64 -46 110t-110 46t-110.5 -46t-46.5 -110
q0 -65 46 -111.5t111 -46.5zM415 -251q-44 0 -75 31t-31 75t31 75t75 31t74.5 -31t30.5 -75t-30.5 -75t-74.5 -31z" />
    <glyph glyph-name="uni1EE3" unicode="&#x1ee3;" 
d="M304 -11q-118 0 -201 83.5t-83 201.5q0 117 83 200.5t201 83.5q86 0 159 -49q19 5 19 28v80h107v-122q0 -46 -40 -77q40 -67 40 -144q0 -118 -83.5 -201.5t-201.5 -83.5zM304 197q33 0 55 22.5t22 54.5t-22 54t-55 22t-54.5 -22t-21.5 -54q0 -33 21.5 -55t54.5 -22z
M307 -251q-44 0 -75 31t-31 75t31 75t75 31t74.5 -31t30.5 -75t-30.5 -75t-74.5 -31z" />
    <glyph glyph-name="uni1EE4" unicode="&#x1ee4;" horiz-adv-x="670" 
d="M334 -19q-126 0 -210 83t-84 212v454h220v-454q0 -34 21 -54.5t55 -20.5q32 0 53 20.5t21 54.5v454h220v-454q0 -129 -84.5 -212t-211.5 -83zM336 -251q-44 0 -75 31t-31 75t31 75t75 31t74.5 -31t30.5 -75t-30.5 -75t-74.5 -31z" />
    <glyph glyph-name="uni1EE5" unicode="&#x1ee5;" horiz-adv-x="603" 
d="M240 -12q-205 0 -205 280v282h205v-282q0 -39 17.5 -58.5t41.5 -19.5t41.5 19.5t17.5 58.5v282h205v-550h-185l-14 55q-52 -67 -124 -67zM300 -251q-44 0 -75 31t-31 75t31 75t75 31t74.5 -31t30.5 -75t-30.5 -75t-74.5 -31z" />
    <glyph glyph-name="uni1EE6" unicode="&#x1ee6;" horiz-adv-x="670" 
d="M263 786v78q52 0 52 12q0 10 -29 10q-32 0 -50 -8l-35 99q36 18 104 18q51 0 90 -31.5t39 -73.5q0 -44 -46 -74t-125 -30zM334 -19q-126 0 -210 83t-84 212v454h220v-454q0 -34 21 -54.5t55 -20.5q32 0 53 20.5t21 54.5v454h220v-454q0 -129 -84.5 -212t-211.5 -83z" />
    <glyph glyph-name="uni1EE7" unicode="&#x1ee7;" horiz-adv-x="603" 
d="M245 616v78q52 0 52 12q0 10 -29 10q-32 0 -50 -8l-35 99q36 18 104 18q51 0 90 -31.5t39 -73.5q0 -44 -46 -74t-125 -30zM240 -12q-205 0 -205 280v282h205v-282q0 -39 17.5 -58.5t41.5 -19.5t41.5 19.5t17.5 58.5v282h205v-550h-185l-14 55q-52 -67 -124 -67z" />
    <glyph glyph-name="uni1EE8" unicode="&#x1ee8;" horiz-adv-x="707" 
d="M377 800h-120l48 180h180zM334 -19q-126 0 -210 83t-84 212v454h220v-454q0 -34 21 -54.5t55 -20.5q32 0 53 20.5t21 54.5v454h167q33 0 33 21v80h107v-122q0 -35 -25 -58t-62 -33v-342q0 -129 -84.5 -212t-211.5 -83z" />
    <glyph glyph-name="uni1EE9" unicode="&#x1ee9;" horiz-adv-x="608" 
d="M362 630h-120l48 180h180zM240 -12q-205 0 -205 280v282h205v-282q0 -39 17.5 -58.5t41.5 -19.5t41.5 19.5t17.5 58.5v282h128q25 0 25 28v80h107v-122q0 -55 -55 -86v-450h-185l-14 55q-52 -67 -124 -67z" />
    <glyph glyph-name="uni1EEA" unicode="&#x1eea;" horiz-adv-x="707" 
d="M415 800h-120l-108 180h180zM334 -19q-126 0 -210 83t-84 212v454h220v-454q0 -34 21 -54.5t55 -20.5q32 0 53 20.5t21 54.5v454h167q33 0 33 21v80h107v-122q0 -35 -25 -58t-62 -33v-342q0 -129 -84.5 -212t-211.5 -83z" />
    <glyph glyph-name="uni1EEB" unicode="&#x1eeb;" horiz-adv-x="608" 
d="M375 630h-120l-108 180h180zM240 -12q-205 0 -205 280v282h205v-282q0 -39 17.5 -58.5t41.5 -19.5t41.5 19.5t17.5 58.5v282h128q25 0 25 28v80h107v-122q0 -55 -55 -86v-450h-185l-14 55q-52 -67 -124 -67z" />
    <glyph glyph-name="uni1EEC" unicode="&#x1eec;" horiz-adv-x="707" 
d="M297 786v78q52 0 52 12q0 10 -29 10q-32 0 -50 -8l-35 99q36 18 104 18q51 0 90 -31.5t39 -73.5q0 -44 -46 -74t-125 -30zM334 -19q-126 0 -210 83t-84 212v454h220v-454q0 -34 21 -54.5t55 -20.5q32 0 53 20.5t21 54.5v454h167q33 0 33 21v80h107v-122q0 -35 -25 -58
t-62 -33v-342q0 -129 -84.5 -212t-211.5 -83z" />
    <glyph glyph-name="uni1EED" unicode="&#x1eed;" horiz-adv-x="608" 
d="M245 616v78q52 0 52 12q0 10 -29 10q-32 0 -50 -8l-35 99q36 18 104 18q51 0 90 -31.5t39 -73.5q0 -44 -46 -74t-125 -30zM240 -12q-205 0 -205 280v282h205v-282q0 -39 17.5 -58.5t41.5 -19.5t41.5 19.5t17.5 58.5v282h128q25 0 25 28v80h107v-122q0 -55 -55 -86v-450
h-185l-14 55q-52 -67 -124 -67z" />
    <glyph glyph-name="uni1EEE" unicode="&#x1eee;" horiz-adv-x="707" 
d="M419 811q-24 0 -44.5 8.5t-30.5 18.5t-19 18t-15 7q-11 -2 -11 -36h-120q0 59 27 101t83 42q32 0 56 -13.5t36 -26.5t17 -12q11 2 11 36h120q0 -65 -26.5 -104t-83.5 -39zM334 -19q-126 0 -210 83t-84 212v454h220v-454q0 -34 21 -54.5t55 -20.5q32 0 53 20.5t21 54.5
v454h167q33 0 33 21v80h107v-122q0 -35 -25 -58t-62 -33v-342q0 -129 -84.5 -212t-211.5 -83z" />
    <glyph glyph-name="uni1EEF" unicode="&#x1eef;" horiz-adv-x="608" 
d="M341 641q-24 0 -44.5 8.5t-30.5 18.5t-19 18t-15 7q-11 -2 -11 -36h-120q0 59 27 101t83 42q32 0 56 -13.5t36 -26.5t17 -12q11 2 11 36h120q0 -65 -26.5 -104t-83.5 -39zM240 -12q-205 0 -205 280v282h205v-282q0 -39 17.5 -58.5t41.5 -19.5t41.5 19.5t17.5 58.5v282
h128q25 0 25 28v80h107v-122q0 -55 -55 -86v-450h-185l-14 55q-52 -67 -124 -67z" />
    <glyph glyph-name="uni1EF0" unicode="&#x1ef0;" horiz-adv-x="707" 
d="M334 -19q-126 0 -210 83t-84 212v454h220v-454q0 -34 21 -54.5t55 -20.5q32 0 53 20.5t21 54.5v454h167q33 0 33 21v80h107v-122q0 -35 -25 -58t-62 -33v-342q0 -129 -84.5 -212t-211.5 -83zM336 -251q-44 0 -75 31t-31 75t31 75t75 31t74.5 -31t30.5 -75t-30.5 -75
t-74.5 -31z" />
    <glyph glyph-name="uni1EF1" unicode="&#x1ef1;" horiz-adv-x="608" 
d="M240 -12q-205 0 -205 280v282h205v-282q0 -39 17.5 -58.5t41.5 -19.5t41.5 19.5t17.5 58.5v282h128q25 0 25 28v80h107v-122q0 -55 -55 -86v-450h-185l-14 55q-52 -67 -124 -67zM327 -251q-44 0 -75 31t-31 75t31 75t75 31t74.5 -31t30.5 -75t-30.5 -75t-74.5 -31z" />
    <glyph glyph-name="Ygrave" unicode="&#x1ef2;" horiz-adv-x="660" 
d="M394 800h-120l-108 180h180zM440 0h-220v285l-220 445h246l84 -201l84 201h246l-220 -445v-285z" />
    <glyph glyph-name="ygrave" unicode="&#x1ef3;" horiz-adv-x="571" 
d="M340 630h-120l-108 180h180zM118 -236q-66 0 -118 20l55 180q26 -7 52 -7q32 0 59 16.5t35 54.5l-199 522h220l68 -240l63 240h218l-169 -550q-40 -129 -111 -182.5t-173 -53.5z" />
    <glyph glyph-name="uni1EF4" unicode="&#x1ef4;" horiz-adv-x="660" 
d="M440 0h-220v285l-220 445h246l84 -201l84 201h246l-220 -445v-285zM322 -251q-44 0 -75 31t-31 75t31 75t75 31t74.5 -31t30.5 -75t-30.5 -75t-74.5 -31z" />
    <glyph glyph-name="uni1EF4" unicode="&#x1ef5;" horiz-adv-x="660" 
d="M440 0h-220v285l-220 445h246l84 -201l84 201h246l-220 -445v-285zM322 -251q-44 0 -75 31t-31 75t31 75t75 31t74.5 -31t30.5 -75t-30.5 -75t-74.5 -31z" />
    <glyph glyph-name="uni1EF6" unicode="&#x1ef6;" horiz-adv-x="660" 
d="M276 786v78q52 0 52 12q0 10 -29 10q-32 0 -50 -8l-35 99q36 18 104 18q51 0 90 -31.5t39 -73.5q0 -44 -46 -74t-125 -30zM440 0h-220v285l-220 445h246l84 -201l84 201h246l-220 -445v-285z" />
    <glyph glyph-name="uni1EF7" unicode="&#x1ef7;" horiz-adv-x="571" 
d="M231 616v78q52 0 52 12q0 10 -29 10q-32 0 -50 -8l-35 99q36 18 104 18q51 0 90 -31.5t39 -73.5q0 -44 -46 -74t-125 -30zM118 -236q-66 0 -118 20l55 180q26 -7 52 -7q32 0 59 16.5t35 54.5l-199 522h220l68 -240l63 240h218l-169 -550q-40 -129 -111 -182.5t-173 -53.5
z" />
    <glyph glyph-name="uni1EF8" unicode="&#x1ef8;" horiz-adv-x="660" 
d="M395 811q-31 0 -54.5 13.5t-36 26.5t-18.5 12q-11 -2 -11 -36h-120q0 59 27 101t83 42q32 0 56 -13.5t36 -26t17 -12.5q11 2 11 36h120q0 -65 -26.5 -104t-83.5 -39zM440 0h-220v285l-220 445h246l84 -201l84 201h246l-220 -445v-285z" />
    <glyph glyph-name="uni1EF9" unicode="&#x1ef9;" horiz-adv-x="571" 
d="M351 641q-24 0 -44.5 8.5t-30.5 18.5t-19 18t-15 7q-11 -2 -11 -36h-120q0 59 27 101t83 42q32 0 56 -13.5t36 -26.5t17 -12q11 2 11 36h120q0 -65 -26.5 -104t-83.5 -39zM118 -236q-66 0 -118 20l55 180q26 -7 52 -7q32 0 59 16.5t35 54.5l-199 522h220l68 -240l63 240
h218l-169 -550q-40 -129 -111 -182.5t-173 -53.5z" />
    <glyph glyph-name="endash" unicode="&#x2013;" horiz-adv-x="467" 
d="M447 221h-427v160h426z" />
    <glyph glyph-name="emdash" unicode="&#x2014;" horiz-adv-x="953" 
d="M933 261h-913v120h912z" />
    <glyph glyph-name="quoteleft" unicode="&#x2018;" horiz-adv-x="290" 
d="M210 410h-180l100 320h130z" />
    <glyph glyph-name="quoteright" unicode="&#x2019;" horiz-adv-x="250" 
d="M140 410h-130l50 320h180z" />
    <glyph glyph-name="quotesinglbase" unicode="&#x201a;" horiz-adv-x="270" 
d="M160 -140h-130l30 320h180z" />
    <glyph glyph-name="quotedblleft" unicode="&#x201c;" horiz-adv-x="510" 
d="M210 410h-180l100 320h130zM430 410h-180l100 320h130z" />
    <glyph glyph-name="quotedblright" unicode="&#x201d;" horiz-adv-x="510" 
d="M160 410h-130l50 320h180zM380 410h-130l50 320h180z" />
    <glyph glyph-name="quotedblbase" unicode="&#x201e;" horiz-adv-x="490" 
d="M160 -140h-130l30 320h180zM380 -140h-130l30 320h180z" />
    <glyph glyph-name="dagger" unicode="&#x2020;" horiz-adv-x="551" 
d="M376 0h-200v460h-146v180h146v140h200v-140h144l1 -180h-145v-460z" />
    <glyph glyph-name="daggerdbl" unicode="&#x2021;" horiz-adv-x="551" 
d="M368 0h-186v191h-152v170h152v99h-152v170h152v150h186v-150h152l1 -170h-153v-99h152l1 -170h-153v-191z" />
    <glyph glyph-name="bullet" unicode="&#x2022;" horiz-adv-x="385" 
d="M193 188q-64 0 -108.5 44.5t-44.5 108.5t44.5 108.5t108.5 44.5t108 -44.5t44 -108.5t-44 -108.5t-108 -44.5z" />
    <glyph glyph-name="ellipsis" unicode="&#x2026;" horiz-adv-x="753" 
d="M126 -18q-44 0 -75 31t-31 75t31 75t75 31t74.5 -31t30.5 -75t-30.5 -75t-74.5 -31zM377 -18q-44 0 -75 31t-31 75t31 75t75 31t74.5 -31t30.5 -75t-30.5 -75t-74.5 -31zM628 -18q-44 0 -75 31t-31 75t31 75t75 31t74.5 -31t30.5 -75t-30.5 -75t-74.5 -31z" />
    <glyph glyph-name="perthousand" unicode="&#x2030;" horiz-adv-x="1216" 
d="M190 398q-74 0 -122 55t-48 143q0 87 48 140.5t122 53.5t121.5 -53.5t47.5 -140.5q0 -89 -47.5 -143.5t-121.5 -54.5zM273 0h-135l404 781h135zM189 515q53 0 53 81q0 77 -53 77q-22 0 -37 -19t-15 -58q0 -41 15 -61t37 -20zM638 -10q-74 0 -122 55t-48 143
q0 87 48 140.5t122 53.5t121.5 -53.5t47.5 -140.5q0 -89 -47.5 -143.5t-121.5 -54.5zM1027 -10q-74 0 -122 55t-48 143q0 87 48 140.5t122 53.5t121.5 -53.5t47.5 -140.5q0 -89 -47.5 -143.5t-121.5 -54.5zM637 107q53 0 53 81q0 77 -53 77q-22 0 -37 -19t-15 -58
q0 -41 15 -61t37 -20zM1026 107q53 0 53 81q0 77 -53 77q-22 0 -37 -19t-15 -58q0 -41 15 -61t37 -20z" />
    <glyph glyph-name="guilsinglleft" unicode="&#x2039;" horiz-adv-x="379" 
d="M349 175h-175l-144 190l144 190h175l-143 -190z" />
    <glyph glyph-name="guilsinglright" unicode="&#x203a;" horiz-adv-x="379" 
d="M205 175h-175l143 190l-143 190h175l144 -190z" />
    <glyph glyph-name="fraction" unicode="&#x2044;" horiz-adv-x="552" 
d="M188 0h-178l354 729h178z" />
    <glyph glyph-name="franc" unicode="&#x20a3;" horiz-adv-x="581" 
d="M279 0h-219v79h-60v120h60v531h496v-210h-277v-62h257v-210h-257v-49h140l1 -120h-141v-79z" />
    <glyph glyph-name="lira" unicode="&#x20a4;" horiz-adv-x="620" 
d="M590 0h-560v190h79v30h-79v120h79v20h-79v120h80q7 124 76.5 193.5t169.5 69.5q68 0 125.5 -36t90.5 -97l-166 -107q-13 35 -44 35q-39 0 -46 -58h101l1 -120h-104v-20h103l1 -120h-104v-30h276v-190z" />
    <glyph glyph-name="peseta" unicode="&#x20a7;" horiz-adv-x="662" 
d="M64 453h-54v70h54v207h285q114 0 186.5 -57.5t87.5 -149.5h39v-70h-36q-9 -100 -82.5 -164.5t-194.5 -64.5h-65v-224h-220v453zM284 545v-22h104q-15 22 -44 22h-60zM284 453v-44h60q42 0 54 44h-114z" />
    <glyph glyph-name="Euro" unicode="&#x20ac;" horiz-adv-x="692" 
d="M397 -11q-108 0 -188 61.5t-113 169.5h-71v120h51q-1 8 -1 25v15h-50v120h68q32 112 112.5 176.5t191.5 64.5q155 0 270 -110l-135 -124q-39 24 -67 33.5t-68 9.5q-64 0 -98 -50h113l1 -120h-147v-15q0 -17 1 -25h145l1 -120h-106q33 -40 90 -40q40 0 68 9.5t67 33.5
l135 -124q-115 -110 -270 -110z" />
    <glyph glyph-name="uni2113" unicode="&#x2113;" horiz-adv-x="479" 
d="M260 -10q-88 0 -139 53t-51 141v68q-26 -2 -40 -2v140q14 0 40 2v194q0 87 53.5 140.5t138.5 53.5q75 0 126 -54t51 -140q0 -106 -57 -181t-152 -115v-83q0 -57 31 -57q28 0 28 57h160q0 -104 -50 -160.5t-139 -56.5zM230 586v-122q49 51 49 122q0 47 -24 47
q-25 0 -25 -47z" />
    <glyph glyph-name="uni2116" unicode="&#x2116;" horiz-adv-x="1154" 
d="M934 360q-79 0 -134.5 56t-55.5 135q0 78 55.5 133.5t134.5 55.5t134.5 -55.5t55.5 -133.5q0 -79 -55.5 -135t-134.5 -56zM260 0h-220v730h220l204 -320v320h220v-730h-220l-204 320v-320zM934 516q15 0 24.5 10t9.5 25q0 14 -9.5 24t-24.5 10t-24.5 -10t-9.5 -24
q0 -15 9.5 -25t24.5 -10zM1124 140h-380v160h380v-160z" />
    <glyph glyph-name="trademark" unicode="&#x2122;" horiz-adv-x="571" 
d="M149 550h-77v156h-62v74h200v-74h-61v-156zM327 550h-77v230h77l64 -88l63 88h77v-230h-77v100l-40 -59h-47l-40 59v-100z" />
    <glyph glyph-name="uni2126" unicode="&#x2126;" horiz-adv-x="813" 
d="M322 0h-281v190h65q-76 90 -76 208q0 145 110 244t267 99t266.5 -99t109.5 -244q0 -117 -77 -208h65v-190h-281v190q36 23 64.5 71.5t28.5 102.5q0 79 -48.5 128t-127.5 49t-128 -49t-49 -128q0 -53 28 -101.5t64 -72.5v-190z" />
    <glyph glyph-name="estimated" unicode="&#x212e;" 
d="M304 -11q-118 0 -201 83.5t-83 201.5q0 117 83 200.5t201 83.5t201.5 -83.5t83.5 -200.5q0 -16 -1 -24h-393v-180q51 -27 108 -27q59 0 109.5 27t82.5 74l45 -29q-39 -58 -101.5 -92t-134.5 -34zM195 477v-172h221v170q-53 29 -113 29q-57 0 -108 -27z" />
    <glyph glyph-name="uni2150" unicode="&#x2150;" horiz-adv-x="842" 
d="M201 0h-135l404 781h135zM178 337h-113v333h-45v110h158v-443zM678 0h-125l142 341h-185v103h317v-73z" />
    <glyph glyph-name="uni2151" unicode="&#x2151;" horiz-adv-x="815" 
d="M201 0h-135l404 781h135zM178 337h-113v333h-45v110h158v-443zM640 0h-137l92 140q-52 14 -86 57t-34 98q0 66 47.5 113t112.5 47q67 0 113.5 -47t46.5 -113q0 -53 -30 -94zM635 249q19 0 32 13.5t13 32.5t-13 32.5t-32 13.5t-32.5 -13.5t-13.5 -32.5t13.5 -32.5
t32.5 -13.5z" />
    <glyph glyph-name="uni2152" unicode="&#x2152;" horiz-adv-x="1158" 
d="M201 0h-135l404 781h135zM178 337h-113v333h-45v110h158v-443zM938 -1q-86 0 -141.5 63t-55.5 166q0 100 55.5 162.5t141.5 62.5q85 0 140 -62.5t55 -162.5q0 -103 -54.5 -166t-140.5 -63zM672 -1h-112v334h-45v109h157v-443zM937 114q35 0 57 28.5t22 85.5q0 55 -22 83
t-57 28q-34 0 -56.5 -28t-22.5 -83q0 -57 22.5 -85.5t56.5 -28.5z" />
    <glyph glyph-name="onethird" unicode="&#x2153;" horiz-adv-x="790" 
d="M201 0h-135l404 781h135zM178 337h-113v333h-45v110h158v-443zM607 -12q-57 0 -101.5 27.5t-63.5 73.5l102 38q7 -10 24 -17.5t32 -7.5q22 0 35.5 10t13.5 27t-16.5 28.5t-40.5 11.5h-27v106h29q13 0 26 7.5t13 20.5q0 12 -11.5 18.5t-24.5 6.5q-25 0 -37 -18l-101 38
q15 38 56 63t88 25q62 0 104.5 -32t42.5 -95q0 -49 -42 -84q57 -37 57 -103q0 -62 -48.5 -103t-109.5 -41z" />
    <glyph glyph-name="twothirds" unicode="&#x2154;" horiz-adv-x="919" 
d="M335 340h-310v72l158 162q29 31 29 60q0 18 -11.5 30t-29.5 12q-35 0 -48 -30l-95 31q13 49 53.5 80.5t92.5 31.5q64 0 107.5 -43t43.5 -112q0 -75 -58 -130l-53 -55h121v-109zM330 0h-135l404 781h135zM736 -12q-57 0 -101.5 27.5t-63.5 73.5l102 38q7 -10 24 -17.5
t32 -7.5q22 0 35.5 10t13.5 27t-16.5 28.5t-40.5 11.5h-27v106h29q13 0 26 7.5t13 20.5q0 12 -11.5 18.5t-24.5 6.5q-25 0 -37 -18l-101 38q15 38 56 63t88 25q62 0 104.5 -32t42.5 -95q0 -49 -42 -84q57 -37 57 -103q0 -62 -48.5 -103t-109.5 -41z" />
    <glyph glyph-name="uni2155" unicode="&#x2155;" horiz-adv-x="811" 
d="M201 0h-135l404 781h135zM178 337h-113v333h-45v110h158v-443zM633 -11q-49 0 -88.5 28.5t-57.5 74.5l103 38q14 -24 43 -24q19 0 31 12t12 30q0 19 -11.5 32.5t-32.5 13.5q-18 0 -42 -12h-97l18 263h271v-110h-166l-3 -43q6 2 20 4q69 6 113.5 -36t44.5 -112
q0 -65 -46 -112t-112 -47z" />
    <glyph glyph-name="uni2156" unicode="&#x2156;" horiz-adv-x="920" 
d="M335 340h-310v72l158 162q29 31 29 60q0 18 -11.5 30t-29.5 12q-35 0 -48 -30l-95 31q13 49 53.5 80.5t92.5 31.5q64 0 107.5 -43t43.5 -112q0 -75 -58 -130l-53 -55h121v-109zM330 0h-135l404 781h135zM742 -11q-49 0 -88.5 28.5t-57.5 74.5l103 38q14 -24 43 -24
q19 0 31 12t12 30q0 19 -11.5 32.5t-32.5 13.5q-18 0 -42 -12h-97l18 263h271v-110h-166l-3 -43q6 2 20 4q69 6 113.5 -36t44.5 -112q0 -65 -46 -112t-112 -47z" />
    <glyph glyph-name="uni2157" unicode="&#x2157;" horiz-adv-x="940" 
d="M340 0h-135l404 781h135zM190 322q-57 0 -101.5 27t-63.5 73l102 38q7 -10 24 -17.5t32 -7.5q22 0 35.5 10t13.5 27t-16.5 28.5t-40.5 11.5h-27v106h29q13 0 26 7.5t13 20.5q0 12 -11.5 18.5t-24.5 6.5q-25 0 -37 -18l-101 38q15 38 56 63t88 25q62 0 104.5 -32t42.5 -95
q0 -49 -42 -84q57 -37 57 -103q0 -62 -48.5 -102.5t-109.5 -40.5zM762 -11q-49 0 -88.5 28.5t-57.5 74.5l103 38q14 -24 43 -24q19 0 31 12t12 30q0 19 -11.5 32.5t-32.5 13.5q-18 0 -42 -12h-97l18 263h271v-110h-166l-3 -43q6 2 20 4q69 6 113.5 -36t44.5 -112
q0 -65 -46 -112t-112 -47z" />
    <glyph glyph-name="uni2158" unicode="&#x2158;" horiz-adv-x="949" 
d="M310 337h-113v87h-187v113l152 244h148v-244h30v-113h-30v-87zM349 0h-135l404 781h135zM197 639l-62 -102h62v102zM771 -11q-49 0 -88.5 28.5t-57.5 74.5l103 38q14 -24 43 -24q19 0 31 12t12 30q0 19 -11.5 32.5t-32.5 13.5q-18 0 -42 -12h-97l18 263h271v-110h-166
l-3 -43q6 2 20 4q69 6 113.5 -36t44.5 -112q0 -65 -46 -112t-112 -47z" />
    <glyph glyph-name="uni2159" unicode="&#x2159;" horiz-adv-x="739" 
d="M201 0h-135l404 781h135zM178 337h-113v333h-45v110h158v-443zM557 -14q-67 0 -114.5 48t-47.5 115q0 52 28 92l130 207h138l-93 -142q53 -14 87 -58t34 -99q0 -67 -47.5 -115t-114.5 -48zM557 103q19 0 33 13.5t14 32.5t-14 32.5t-33 13.5t-32 -13.5t-13 -32.5t13 -32.5
t32 -13.5z" />
    <glyph glyph-name="uni215A" unicode="&#x215a;" horiz-adv-x="873" 
d="M315 0h-135l404 781h135zM171 325q-50 0 -89 28t-57 74l103 38q14 -24 43 -24q19 0 31 12t12 30q0 19 -11.5 32.5t-32.5 13.5q-18 0 -42 -12h-97l18 263h271v-110h-166l-3 -43q6 2 20 4q69 6 113.5 -36t44.5 -112q0 -65 -46 -111.5t-112 -46.5zM691 -14q-67 0 -114.5 48
t-47.5 115q0 52 28 92l130 207h138l-93 -142q53 -14 87 -58t34 -99q0 -67 -47.5 -115t-114.5 -48zM691 103q19 0 33 13.5t14 32.5t-14 32.5t-33 13.5t-32 -13.5t-13 -32.5t13 -32.5t32 -13.5z" />
    <glyph glyph-name="oneeighth" unicode="&#x215b;" horiz-adv-x="815" 
d="M201 0h-135l404 781h135zM178 337h-113v333h-45v110h158v-443zM625 -15q-69 0 -116.5 42.5t-47.5 106.5q0 62 47 99q-29 34 -29 80q0 58 42.5 97t103.5 39t104 -39t43 -97q0 -46 -29 -80q47 -37 47 -99q0 -64 -47.5 -106.5t-117.5 -42.5zM625 271q15 0 25.5 10.5
t10.5 24.5t-10.5 23.5t-25.5 9.5t-24.5 -9.5t-9.5 -23.5q0 -15 9.5 -25t24.5 -10zM625 88q22 0 36 13t14 33t-14 32.5t-36 12.5q-21 0 -35 -13t-14 -32q0 -20 14 -33t35 -13z" />
    <glyph glyph-name="threeeighths" unicode="&#x215c;" horiz-adv-x="956" 
d="M340 0h-135l404 781h135zM190 322q-57 0 -101.5 27t-63.5 73l102 38q7 -10 24 -17.5t32 -7.5q22 0 35.5 10t13.5 27t-16.5 28.5t-40.5 11.5h-27v106h29q13 0 26 7.5t13 20.5q0 12 -11.5 18.5t-24.5 6.5q-25 0 -37 -18l-101 38q15 38 56 63t88 25q62 0 104.5 -32t42.5 -95
q0 -49 -42 -84q57 -37 57 -103q0 -62 -48.5 -102.5t-109.5 -40.5zM766 -15q-69 0 -116.5 42.5t-47.5 106.5q0 62 47 99q-29 34 -29 80q0 58 42.5 97t103.5 39t104 -39t43 -97q0 -46 -29 -80q47 -37 47 -99q0 -64 -47.5 -106.5t-117.5 -42.5zM766 271q15 0 25.5 10.5
t10.5 24.5t-10.5 23.5t-25.5 9.5t-24.5 -9.5t-9.5 -23.5q0 -15 9.5 -25t24.5 -10zM766 88q22 0 36 13t14 33t-14 32.5t-36 12.5q-21 0 -35 -13t-14 -32q0 -20 14 -33t35 -13z" />
    <glyph glyph-name="fiveeighths" unicode="&#x215d;" horiz-adv-x="930" 
d="M315 0h-135l404 781h135zM171 325q-50 0 -89 28t-57 74l103 38q14 -24 43 -24q19 0 31 12t12 30q0 19 -11.5 32.5t-32.5 13.5q-18 0 -42 -12h-97l18 263h271v-110h-166l-3 -43q6 2 20 4q69 6 113.5 -36t44.5 -112q0 -65 -46 -111.5t-112 -46.5zM740 -15
q-69 0 -116.5 42.5t-47.5 106.5q0 62 47 99q-29 34 -29 80q0 58 42.5 97t103.5 39t104 -39t43 -97q0 -46 -29 -80q47 -37 47 -99q0 -64 -47.5 -106.5t-117.5 -42.5zM740 271q15 0 25.5 10.5t10.5 24.5t-10.5 23.5t-25.5 9.5t-24.5 -9.5t-9.5 -23.5q0 -15 9.5 -25t24.5 -10z
M740 88q22 0 36 13t14 33t-14 32.5t-36 12.5q-21 0 -35 -13t-14 -32q0 -20 14 -33t35 -13z" />
    <glyph glyph-name="seveneighths" unicode="&#x215e;" horiz-adv-x="842" 
d="M228 0h-135l404 781h135zM178 336h-125l142 341h-185v103h317v-73zM652 -15q-69 0 -116.5 42.5t-47.5 106.5q0 62 47 99q-29 34 -29 80q0 58 42.5 97t103.5 39t104 -39t43 -97q0 -46 -29 -80q47 -37 47 -99q0 -64 -47.5 -106.5t-117.5 -42.5zM652 271q15 0 25.5 10.5
t10.5 24.5t-10.5 23.5t-25.5 9.5t-24.5 -9.5t-9.5 -23.5q0 -15 9.5 -25t24.5 -10zM652 88q22 0 36 13t14 33t-14 32.5t-36 12.5q-21 0 -35 -13t-14 -32q0 -20 14 -33t35 -13z" />
    <glyph glyph-name="arrowleft" unicode="&#x2190;" horiz-adv-x="770" 
d="M536 85h-226l-280 280l280 280h226l-200 -200h394v-160h-394z" />
    <glyph glyph-name="arrowup" unicode="&#x2191;" horiz-adv-x="620" 
d="M390 15h-160v394l-200 -200v226l280 280l280 -280v-226l-200 200v-394z" />
    <glyph glyph-name="arrowright" unicode="&#x2192;" horiz-adv-x="780" 
d="M460 85h-226l200 200h-394v160h394l-200 200h226l280 -280z" />
    <glyph glyph-name="arrowdown" unicode="&#x2193;" horiz-adv-x="640" 
d="M600 295l-280 -280l-280 280v226l200 -200v394h160v-394l200 200v-226z" />
    <glyph glyph-name="arrowboth" unicode="&#x2194;" horiz-adv-x="1182" 
d="M536 85h-226l-280 280l280 280h226l-200 -200h500l-200 200h226l280 -280l-280 -280h-226l200 200h-500z" />
    <glyph glyph-name="arrowupdn" unicode="&#x2195;" horiz-adv-x="620" 
d="M590 89l-280 -280l-280 280v226l200 -200v460l-200 -200v226l280 280l280 -280v-226l-200 200v-460l200 200v-226z" />
    <glyph glyph-name="uni2196" unicode="&#x2196;" horiz-adv-x="615" 
d="M581 235l-113 -113l-279 279v-283l-159 160v395h395l160 -159h-283z" />
    <glyph glyph-name="uni2197" unicode="&#x2197;" horiz-adv-x="615" 
d="M426 401l-279 -279l-113 113l279 279h-283l160 159h395v-395l-159 -160v283z" />
    <glyph glyph-name="uni2198" unicode="&#x2198;" horiz-adv-x="615" 
d="M585 118h-395l-160 159h283l-279 279l113 113l279 -279v283l159 -160v-395z" />
    <glyph glyph-name="uni2199" unicode="&#x2199;" horiz-adv-x="615" 
d="M425 118h-395v395l159 160v-283l279 279l113 -113l-279 -279h283z" />
    <glyph glyph-name="partialdiff" unicode="&#x2202;" horiz-adv-x="568" 
d="M232 -8q-93 0 -153.5 75.5t-46.5 179.5t93 178.5t176 74.5q47 0 79 -19q-1 95 -64 95q-43 0 -75 -33l-101 112q84 83 192 83q111 0 167 -103t33 -267q-17 -128 -53 -200q-32 -78 -98.5 -127t-148.5 -49zM256 169q28 0 48.5 22.5t25.5 55.5q9 77 -53 77q-25 0 -48 -23
t-27 -54q-5 -34 8.5 -56t45.5 -22z" />
    <glyph glyph-name="product" unicode="&#x220f;" horiz-adv-x="625" 
d="M220 -220h-180v950h545v-950h-180v770h-185v-770z" />
    <glyph glyph-name="summation" unicode="&#x2211;" horiz-adv-x="580" 
d="M550 -220h-520v180l218 323l-209 277v170h493v-170h-270l208 -277l-221 -323h301v-180z" />
    <glyph glyph-name="minus" unicode="&#x2212;" horiz-adv-x="580" 
d="M520 285h-460v160h460v-160z" />
    <glyph glyph-name="uni2215" unicode="&#x2215;" horiz-adv-x="558" 
d="M180 0h-180l378 730h180z" />
    <glyph glyph-name="radical" unicode="&#x221a;" horiz-adv-x="681" 
d="M412 0h-172l-101 259h-99v160h209l71 -182l183 573h168z" />
    <glyph glyph-name="infinity" unicode="&#x221e;" horiz-adv-x="695" 
d="M207 178q-73 0 -125 52t-52 125t52 124.5t125 51.5q78 0 141 -65q62 65 140 65q73 0 125 -51.5t52 -124.5t-52 -125t-125 -52q-78 0 -140 64q-64 -64 -141 -64zM214 330q24 0 40 25q-16 24 -40 24q-10 0 -17 -6.5t-7 -17.5t7 -18t17 -7zM481 330q10 0 17 7t7 18t-7 17.5
t-17 6.5q-24 0 -40 -24q16 -25 40 -25z" />
    <glyph glyph-name="integral" unicode="&#x222b;" horiz-adv-x="425" 
d="M0 -220v160q50 0 74.5 20.5t31.5 68.5l53 502q11 123 82.5 186t183.5 63v-160q-50 0 -74.5 -20.5t-31.5 -68.5l-53 -502q-11 -123 -82.5 -186t-183.5 -63z" />
    <glyph glyph-name="approxequal" unicode="&#x2248;" horiz-adv-x="560" 
d="M401 292q-34 -5 -66.5 4t-54 23t-46 24t-43.5 7q-29 -5 -39 -47l-132 54q39 139 149 150q32 3 63.5 -7t52 -24t44.5 -23t43 -5q28 6 36 47l132 -54q-19 -68 -55.5 -105t-83.5 -44zM401 71q-34 -5 -66.5 4t-54 23t-46 24t-43.5 7q-29 -5 -39 -47l-132 54q39 139 149 150
q32 3 63.5 -7t52 -24t44.5 -23t43 -5q28 6 36 47l132 -54q-19 -68 -55.5 -105t-83.5 -44z" />
    <glyph glyph-name="notequal" unicode="&#x2260;" horiz-adv-x="521" 
d="M226 33h-194l54 137h-56v160h120l24 60h-144v160h208l58 147h194l-58 -147h58l1 -160h-123l-24 -60h146l1 -160h-211z" />
    <glyph glyph-name="lessequal" unicode="&#x2264;" horiz-adv-x="510" 
d="M470 367v-176l-440 155v166l440 155v-176l-237 -62zM470 1h-440v150h440v-150z" />
    <glyph glyph-name="greaterequal" unicode="&#x2265;" horiz-adv-x="500" 
d="M470 346l-440 -155v176l237 62l-237 62v176l440 -155v-166zM470 1h-440v150h440v-150z" />
    <glyph glyph-name="uni2460" unicode="&#x2460;" horiz-adv-x="793" 
d="M397 -13q-157 0 -267 110.5t-110 267.5q0 155 110 265.5t267 110.5q156 0 266 -110.5t110 -265.5q0 -157 -110 -267.5t-266 -110.5zM397 66q122 0 209.5 88t87.5 211q0 121 -88 209t-209 88q-122 0 -210 -87.5t-88 -209.5q0 -123 88 -211t210 -88zM462 143h-113v333h-45
v110h158v-443z" />
    <glyph glyph-name="uni2461" unicode="&#x2461;" horiz-adv-x="793" 
d="M397 -13q-157 0 -267 110.5t-110 267.5q0 155 110 265.5t267 110.5q156 0 266 -110.5t110 -265.5q0 -157 -110 -267.5t-266 -110.5zM397 66q122 0 209.5 88t87.5 211q0 121 -88 209t-209 88q-122 0 -210 -87.5t-88 -209.5q0 -123 88 -211t210 -88zM552 140h-310v72
l158 162q29 31 29 60q0 18 -11.5 30t-29.5 12q-35 0 -48 -30l-95 31q13 49 53.5 80.5t92.5 31.5q64 0 107.5 -43t43.5 -112q0 -75 -58 -130l-53 -55h121v-109z" />
    <glyph glyph-name="uni2462" unicode="&#x2462;" horiz-adv-x="793" 
d="M397 -13q-157 0 -267 110.5t-110 267.5q0 155 110 265.5t267 110.5q156 0 266 -110.5t110 -265.5q0 -157 -110 -267.5t-266 -110.5zM397 66q122 0 209.5 88t87.5 211q0 121 -88 209t-209 88q-122 0 -210 -87.5t-88 -209.5q0 -123 88 -211t210 -88zM400 136
q-57 0 -101.5 27t-63.5 73l102 38q7 -10 24 -17.5t32 -7.5q22 0 35.5 10t13.5 27t-16.5 28.5t-40.5 11.5h-27v106h29q13 0 26 7.5t13 20.5q0 12 -11.5 18.5t-24.5 6.5q-25 0 -37 -18l-101 38q15 38 56 63t88 25q62 0 104.5 -32t42.5 -95q0 -49 -42 -84q57 -37 57 -103
q0 -62 -48.5 -102.5t-109.5 -40.5z" />
    <glyph glyph-name="uni2463" unicode="&#x2463;" horiz-adv-x="793" 
d="M397 -13q-157 0 -267 110.5t-110 267.5q0 155 110 265.5t267 110.5q156 0 266 -110.5t110 -265.5q0 -157 -110 -267.5t-266 -110.5zM397 66q122 0 209.5 88t87.5 211q0 121 -88 209t-209 88q-122 0 -210 -87.5t-88 -209.5q0 -123 88 -211t210 -88zM509 142h-113v87h-187
v113l152 244h148v-244h30v-113h-30v-87zM396 444l-62 -102h62v102z" />
    <glyph glyph-name="uni2464" unicode="&#x2464;" horiz-adv-x="793" 
d="M397 -13q-157 0 -267 110.5t-110 267.5q0 155 110 265.5t267 110.5q156 0 266 -110.5t110 -265.5q0 -157 -110 -267.5t-266 -110.5zM397 66q122 0 209.5 88t87.5 211q0 121 -88 209t-209 88q-122 0 -210 -87.5t-88 -209.5q0 -123 88 -211t210 -88zM391 137q-50 0 -89 28
t-57 74l103 38q14 -24 43 -24q19 0 31 12t12 30q0 19 -11.5 32.5t-32.5 13.5q-18 0 -42 -12h-97l18 263h271v-110h-166l-3 -43q6 2 20 4q68 7 113 -35.5t45 -112.5q0 -65 -46 -111.5t-112 -46.5z" />
    <glyph glyph-name="uni2465" unicode="&#x2465;" horiz-adv-x="793" 
d="M397 -13q-157 0 -267 110.5t-110 267.5q0 155 110 265.5t267 110.5q156 0 266 -110.5t110 -265.5q0 -157 -110 -267.5t-266 -110.5zM397 66q122 0 209.5 88t87.5 211q0 121 -88 209t-209 88q-122 0 -210 -87.5t-88 -209.5q0 -123 88 -211t210 -88zM394 134
q-67 0 -114.5 47.5t-47.5 114.5q0 48 28 92l130 207h138l-93 -142q53 -14 87 -58t34 -99q0 -67 -47.5 -114.5t-114.5 -47.5zM394 250q19 0 33 13.5t14 32.5t-14 32.5t-33 13.5t-32 -13.5t-13 -32.5t13 -32.5t32 -13.5z" />
    <glyph glyph-name="uni2466" unicode="&#x2466;" horiz-adv-x="793" 
d="M397 -13q-157 0 -267 110.5t-110 267.5q0 155 110 265.5t267 110.5q156 0 266 -110.5t110 -265.5q0 -157 -110 -267.5t-266 -110.5zM397 66q122 0 209.5 88t87.5 211q0 121 -88 209t-209 88q-122 0 -210 -87.5t-88 -209.5q0 -123 88 -211t210 -88zM406 142h-125l142 341
h-185v103h317v-73z" />
    <glyph glyph-name="uni2467" unicode="&#x2467;" horiz-adv-x="793" 
d="M397 -13q-157 0 -267 110.5t-110 267.5q0 155 110 265.5t267 110.5q156 0 266 -110.5t110 -265.5q0 -157 -110 -267.5t-266 -110.5zM397 66q122 0 209.5 88t87.5 211q0 121 -88 209t-209 88q-122 0 -210 -87.5t-88 -209.5q0 -123 88 -211t210 -88zM390 132
q-69 0 -116.5 42.5t-47.5 106.5q0 62 47 99q-29 34 -29 80q0 58 42.5 97t103.5 39t104 -39t43 -97q0 -46 -29 -80q47 -37 47 -99q0 -64 -47.5 -106.5t-117.5 -42.5zM390 418q15 0 25.5 10.5t10.5 24.5t-10.5 23.5t-25.5 9.5t-24.5 -9.5t-9.5 -23.5q0 -15 9.5 -25t24.5 -10z
M390 235q22 0 36 13t14 33t-14 32.5t-36 12.5q-21 0 -35 -13t-14 -32q0 -20 14 -33t35 -13z" />
    <glyph glyph-name="uni2468" unicode="&#x2468;" horiz-adv-x="793" 
d="M397 -13q-157 0 -267 110.5t-110 267.5q0 155 110 265.5t267 110.5q156 0 266 -110.5t110 -265.5q0 -157 -110 -267.5t-266 -110.5zM397 66q122 0 209.5 88t87.5 211q0 121 -88 209t-209 88q-122 0 -210 -87.5t-88 -209.5q0 -123 88 -211t210 -88zM400 134h-138l93 142
q-53 14 -87 58t-34 99q0 67 47.5 114.5t114.5 47.5t114.5 -47.5t47.5 -114.5q0 -48 -28 -92zM396 387q19 0 32 13.5t13 32.5t-13 32.5t-32 13.5t-33 -13.5t-14 -32.5t14 -32.5t33 -13.5z" />
    <glyph glyph-name="uni24EA" unicode="&#x24ea;" horiz-adv-x="793" 
d="M397 -13q-157 0 -267 110.5t-110 267.5q0 155 110 265.5t267 110.5q156 0 266 -110.5t110 -265.5q0 -157 -110 -267.5t-266 -110.5zM397 66q122 0 209.5 88t87.5 211q0 121 -88 209t-209 88q-122 0 -210 -87.5t-88 -209.5q0 -123 88 -211t210 -88zM394 137
q-86 0 -141.5 63t-55.5 166q0 100 55.5 162.5t141.5 62.5q85 0 140 -62.5t55 -162.5q0 -103 -54.5 -166t-140.5 -63zM393 252q35 0 57 28.5t22 85.5q0 55 -22 83t-57 28q-34 0 -56.5 -28t-22.5 -83q0 -57 22.5 -85.5t56.5 -28.5z" />
    <glyph glyph-name="uni24FF" unicode="&#x24ff;" horiz-adv-x="793" 
d="M397 -13q-157 0 -267 110.5t-110 267.5q0 155 110 265.5t267 110.5q156 0 266 -110.5t110 -265.5q0 -157 -110 -267.5t-266 -110.5zM394 137q86 0 140.5 63t54.5 166q0 100 -55 162.5t-140 62.5q-86 0 -141.5 -62.5t-55.5 -162.5q0 -103 55.5 -166t141.5 -63zM393 252
q-34 0 -56.5 28.5t-22.5 85.5q0 55 22.5 83t56.5 28q35 0 57 -28t22 -83q0 -57 -22 -85.5t-57 -28.5z" />
    <glyph glyph-name="lozenge" unicode="&#x25ca;" horiz-adv-x="629" 
d="M405 0h-182l-193 365l193 365h182l194 -365zM211 365l103 -194l103 194l-103 194z" />
    <glyph glyph-name="uni2776" unicode="&#x2776;" horiz-adv-x="793" 
d="M397 -13q-157 0 -267 110.5t-110 267.5q0 155 110 265.5t267 110.5q156 0 266 -110.5t110 -265.5q0 -157 -110 -267.5t-266 -110.5zM349 476v-333h113v443h-158v-110h45z" />
    <glyph glyph-name="uni2777" unicode="&#x2777;" horiz-adv-x="793" 
d="M397 -13q-157 0 -267 110.5t-110 267.5q0 155 110 265.5t267 110.5q156 0 266 -110.5t110 -265.5q0 -157 -110 -267.5t-266 -110.5zM242 212v-72h310v109h-121l53 55q58 55 58 130q0 69 -43.5 112t-107.5 43q-52 0 -92.5 -31.5t-53.5 -80.5l95 -31q13 30 48 30
q18 0 29.5 -12t11.5 -30q0 -29 -29 -60z" />
    <glyph glyph-name="uni2778" unicode="&#x2778;" horiz-adv-x="793" 
d="M397 -13q-157 0 -267 110.5t-110 267.5q0 155 110 265.5t267 110.5q156 0 266 -110.5t110 -265.5q0 -157 -110 -267.5t-266 -110.5zM400 136q61 0 109.5 40.5t48.5 102.5q0 66 -57 103q42 35 42 84q0 63 -42.5 95t-104.5 32q-47 0 -88 -25t-56 -63l101 -38q12 18 37 18
q13 0 24.5 -6.5t11.5 -18.5q0 -13 -13 -20.5t-26 -7.5h-29v-106h27q24 0 40.5 -11.5t16.5 -28.5t-13.5 -27t-35.5 -10q-15 0 -32 7.5t-24 17.5l-102 -38q19 -46 63.5 -73t101.5 -27z" />
    <glyph glyph-name="uni2779" unicode="&#x2779;" horiz-adv-x="793" 
d="M397 -13q-157 0 -267 110.5t-110 267.5q0 155 110 265.5t267 110.5q156 0 266 -110.5t110 -265.5q0 -157 -110 -267.5t-266 -110.5zM396 229v-87h113v87h30v113h-30v244h-148l-152 -244v-113h187zM396 342h-62l62 102v-102z" />
    <glyph glyph-name="uni277A" unicode="&#x277a;" horiz-adv-x="793" 
d="M397 -13q-157 0 -267 110.5t-110 267.5q0 155 110 265.5t267 110.5q156 0 266 -110.5t110 -265.5q0 -157 -110 -267.5t-266 -110.5zM391 137q66 0 112 46.5t46 111.5q0 70 -45 112.5t-113 35.5q-14 -2 -20 -4l3 43h166v110h-271l-18 -263h97q24 12 42 12q21 0 32.5 -13.5
t11.5 -32.5q0 -18 -12 -30t-31 -12q-29 0 -43 24l-103 -38q18 -46 57 -74t89 -28z" />
    <glyph glyph-name="uni277B" unicode="&#x277b;" horiz-adv-x="793" 
d="M397 -13q-157 0 -267 110.5t-110 267.5q0 155 110 265.5t267 110.5q156 0 266 -110.5t110 -265.5q0 -157 -110 -267.5t-266 -110.5zM394 134q67 0 114.5 47.5t47.5 114.5q0 55 -34 99t-87 58l93 142h-138l-130 -207q-28 -44 -28 -92q0 -67 47.5 -114.5t114.5 -47.5z
M394 250q-19 0 -32 13.5t-13 32.5t13 32.5t32 13.5t33 -13.5t14 -32.5t-14 -32.5t-33 -13.5z" />
    <glyph glyph-name="uni277C" unicode="&#x277c;" horiz-adv-x="793" 
d="M397 -13q-157 0 -267 110.5t-110 267.5q0 155 110 265.5t267 110.5q156 0 266 -110.5t110 -265.5q0 -157 -110 -267.5t-266 -110.5zM423 483l-142 -341h125l149 371v73h-317v-103h185z" />
    <glyph glyph-name="uni277D" unicode="&#x277d;" horiz-adv-x="793" 
d="M397 -13q-157 0 -267 110.5t-110 267.5q0 155 110 265.5t267 110.5q156 0 266 -110.5t110 -265.5q0 -157 -110 -267.5t-266 -110.5zM390 132q70 0 117.5 42.5t47.5 106.5q0 62 -47 99q29 34 29 80q0 58 -43 97t-104 39t-103.5 -39t-42.5 -97q0 -46 29 -80
q-47 -37 -47 -99q0 -64 47.5 -106.5t116.5 -42.5zM390 418q-15 0 -24.5 10t-9.5 25q0 14 9.5 23.5t24.5 9.5t25.5 -9.5t10.5 -23.5t-10.5 -24.5t-25.5 -10.5zM390 235q-21 0 -35 13t-14 33q0 19 14 32t35 13q22 0 36 -12.5t14 -32.5t-14 -33t-36 -13z" />
    <glyph glyph-name="uni277E" unicode="&#x277e;" horiz-adv-x="793" 
d="M397 -13q-157 0 -267 110.5t-110 267.5q0 155 110 265.5t267 110.5q156 0 266 -110.5t110 -265.5q0 -157 -110 -267.5t-266 -110.5zM355 276l-93 -142h138l130 207q28 44 28 92q0 67 -47.5 114.5t-114.5 47.5t-114.5 -47.5t-47.5 -114.5q0 -55 34 -99t87 -58zM396 387
q-19 0 -33 13.5t-14 32.5t14 32.5t33 13.5t32 -13.5t13 -32.5t-13 -32.5t-32 -13.5z" />
    <glyph glyph-name="a.ss01" horiz-adv-x="649" 
d="M629 180h10v-180h-82q-116 0 -142 78q-23 -39 -61 -62.5t-86 -23.5q-103 0 -175.5 83.5t-72.5 200.5q0 118 72.5 201.5t175.5 83.5q80 0 133 -65l13 54h185v-340q0 -14 8.5 -22t21.5 -8zM310 193q35 0 59.5 24t24.5 59t-24.5 59.5t-59.5 24.5t-58.5 -24.5t-23.5 -59.5
t23.5 -59t58.5 -24z" />
    <glyph glyph-name="d.ss01" horiz-adv-x="649" 
d="M629 180h10v-180h-82q-116 0 -142 78q-23 -39 -61 -62.5t-86 -23.5q-103 0 -175.5 83.5t-72.5 200.5q0 118 72.5 201.5t175.5 83.5q76 0 126 -57v276h205v-570q0 -14 8.5 -22t21.5 -8zM310 193q35 0 59.5 24t24.5 59t-24.5 59.5t-59.5 24.5t-58.5 -24.5t-23.5 -59.5
t23.5 -59t58.5 -24z" />
    <glyph glyph-name="l.ss01" horiz-adv-x="295" 
d="M285 0h-85q-86 0 -123 36.5t-37 118.5v625h205v-570q0 -14 8.5 -22t21.5 -8h10v-180z" />
    <glyph glyph-name="m.ss01" horiz-adv-x="906" 
d="M655 562q216 0 216 -280v-282h-205v282q0 39 -15.5 58.5t-35.5 19.5q-21 0 -36.5 -19t-15.5 -59v-282h-205v282q0 39 -15.5 58.5t-35.5 19.5q-21 0 -36.5 -19t-15.5 -59v-282h-205v341q0 13 -8.5 21t-21.5 8h-10v180h82q116 0 143 -79q22 42 60.5 66.5t82.5 24.5
q96 0 145 -68q24 31 59.5 49.5t72.5 18.5z" />
    <glyph glyph-name="n.ss01" horiz-adv-x="613" 
d="M373 562q205 0 205 -280v-282h-205v282q0 39 -17.5 58.5t-41.5 19.5t-41.5 -19.5t-17.5 -58.5v-282h-205v341q0 13 -8.5 21t-21.5 8h-10v180h82q114 0 142 -77q24 40 60.5 64.5t78.5 24.5z" />
    <glyph glyph-name="p.ss01" horiz-adv-x="649" 
d="M381 558q103 0 175.5 -83.5t72.5 -200.5q0 -118 -72.5 -201.5t-175.5 -83.5q-76 0 -126 57v-266h-205v560q0 14 -8 22t-22 8h-10v180h82q116 0 142 -78q23 39 61 62.5t86 23.5zM339 190q35 0 58.5 24.5t23.5 59.5t-23.5 59t-58.5 24t-59.5 -24t-24.5 -59t24.5 -59.5
t59.5 -24.5z" />
    <glyph glyph-name="r.ss01" horiz-adv-x="474" 
d="M397 555q29 0 62 -5l-42 -196q-5 1 -14 1q-21 0 -38.5 -2.5t-39 -12t-36 -25.5t-24.5 -46t-10 -71v-198h-205v340q0 13 -8.5 21t-21.5 8h-10v180h82q108 0 138 -66q49 72 167 72z" />
    <glyph glyph-name="u.ss01" horiz-adv-x="613" 
d="M593 180h10v-180h-82q-114 0 -142 77q-24 -40 -60.5 -64.5t-78.5 -24.5q-205 0 -205 280v282h205v-282q0 -39 17.5 -58.5t41.5 -19.5t41.5 19.5t17.5 58.5v282h205v-341q0 -13 8.5 -21t21.5 -8z" />
    <glyph glyph-name="A.ss02" horiz-adv-x="738" 
d="M238 0h-248l374 750h10l374 -750h-248l-32 80h-198zM369 329l-39 -98h78z" />
    <glyph glyph-name="N.ss02" horiz-adv-x="724" 
d="M674 -30h-10l-394 328v-298h-220v760h10l394 -325v295h220v-760z" />
    <glyph glyph-name="V.ss02" horiz-adv-x="738" 
d="M374 -30h-10l-374 760h247l132 -296l132 296h247z" />
    <glyph glyph-name="W.ss02" horiz-adv-x="1056" 
d="M313 -30h-10l-313 760h239l123 -300l171 330h10l171 -330l123 300h239l-313 -760h-10l-215 392z" />
    <glyph glyph-name="Z.ss02" horiz-adv-x="655" 
d="M623 0h-598v10l250 500h-220v220h570v-10l-248 -500h246v-220z" />
    <glyph glyph-name="R.ss02" horiz-adv-x="644" 
d="M500 265l144 -265h-252l-122 284v-284h-220v730h255q143 0 225.5 -67.5t82.5 -192.5q0 -139 -113 -205zM270 515v-126h48q30 0 49.5 17t19.5 47q0 29 -19.5 45.5t-49.5 16.5h-48z" />
    <glyph glyph-name="v.ss02" horiz-adv-x="606" 
d="M308 -30h-10l-298 580h232l71 -184l71 184h232z" />
    <glyph glyph-name="w.ss02" horiz-adv-x="912" 
d="M308 -20h-10l-298 570h232l82 -167l137 197h10l137 -197l82 167h232l-298 -570h-10l-148 270z" />
    <glyph glyph-name="z.ss02" horiz-adv-x="579" 
d="M544 0h-509v10l196 355h-176v185h489v-10l-173 -345h173v-195z" />
    <glyph glyph-name="k.ss02" horiz-adv-x="575" 
d="M245 0h-205v780h205v-472l106 242h216l-134 -267l152 -283h-229l-111 227v-227z" />
    <glyph glyph-name="K.ss02" horiz-adv-x="655" 
d="M270 0h-220v730h220v-300l153 300h222l-192 -362l202 -368h-248l-137 300v-300z" />
    <glyph glyph-name="Iacute_J.loclNLD" horiz-adv-x="856" 
d="M225 800h-120l48 180h180zM758 800h-120l48 180h180zM270 0h-220v730h220v-730zM530 -11q-76 0 -139 34.5t-101 97.5l165 127q29 -44 74 -44q67 0 67 91v435h220v-435q0 -144 -79 -225t-207 -81z" />
    <glyph glyph-name="G.ss01" horiz-adv-x="775" 
d="M407 -13q-157 0 -267 110.5t-110 267.5q0 155 110 265.5t267 110.5q91 0 170 -40.5t131 -110.5l-189 -132q-45 53 -112 53q-61 0 -104 -43t-43 -103q0 -61 43 -104.5t104 -43.5q75 0 110 35v11h-125v170h348v-243q-41 -92 -130 -147.5t-203 -55.5z" />
    <glyph glyph-name="Gbreve.ss01" horiz-adv-x="775" 
d="M380 817q-65 0 -110 41.5t-45 104.5h104q0 -20 14 -31.5t37 -11.5t37.5 11.5t14.5 31.5h103q0 -63 -45 -104.5t-110 -41.5zM407 -13q-157 0 -267 110.5t-110 267.5q0 155 110 265.5t267 110.5q91 0 170 -40.5t131 -110.5l-189 -132q-45 53 -112 53q-61 0 -104 -43
t-43 -103q0 -61 43 -104.5t104 -43.5q75 0 110 35v11h-125v170h348v-243q-41 -92 -130 -147.5t-203 -55.5z" />
    <glyph glyph-name="Gcaron.ss01" horiz-adv-x="775" 
d="M458 820h-156l-102 140h148l32 -44l32 44h148zM407 -13q-157 0 -267 110.5t-110 267.5q0 155 110 265.5t267 110.5q91 0 170 -40.5t131 -110.5l-189 -132q-45 53 -112 53q-61 0 -104 -43t-43 -103q0 -61 43 -104.5t104 -43.5q75 0 110 35v11h-125v170h348v-243
q-41 -92 -130 -147.5t-203 -55.5z" />
    <glyph glyph-name="Gcircumflex.ss01" horiz-adv-x="775" 
d="M375 820h-148l102 140h156l102 -140h-148l-32 44zM407 -13q-157 0 -267 110.5t-110 267.5q0 155 110 265.5t267 110.5q91 0 170 -40.5t131 -110.5l-189 -132q-45 53 -112 53q-61 0 -104 -43t-43 -103q0 -61 43 -104.5t104 -43.5q75 0 110 35v11h-125v170h348v-243
q-41 -92 -130 -147.5t-203 -55.5z" />
    <glyph glyph-name="uni0122.ss01" horiz-adv-x="775" 
d="M407 -13q-157 0 -267 110.5t-110 267.5q0 155 110 265.5t267 110.5q91 0 170 -40.5t131 -110.5l-189 -132q-45 53 -112 53q-61 0 -104 -43t-43 -103q0 -61 43 -104.5t104 -43.5q75 0 110 35v11h-125v170h348v-243q-41 -92 -130 -147.5t-203 -55.5zM448 -237h-151l17 183
h180z" />
    <glyph glyph-name="Gdotaccent.ss01" horiz-adv-x="775" 
d="M381 784q-44 0 -75 31t-31 75t31 75t75 31t74.5 -31t30.5 -75t-30.5 -75t-74.5 -31zM407 -13q-157 0 -267 110.5t-110 267.5q0 155 110 265.5t267 110.5q91 0 170 -40.5t131 -110.5l-189 -132q-45 53 -112 53q-61 0 -104 -43t-43 -103q0 -61 43 -104.5t104 -43.5
q75 0 110 35v11h-125v170h348v-243q-41 -92 -130 -147.5t-203 -55.5z" />
    <glyph glyph-name="M.ss01" horiz-adv-x="960" 
d="M232 0h-222l110 730h222l138 -380l138 380h222l110 -730h-222l-57 329l-106 -329h-170l-106 329z" />
    <glyph glyph-name="uni1E3E.ss01" horiz-adv-x="960" 
d="M554 800h-120l48 180h180zM232 0h-222l110 730h222l138 -380l138 380h222l110 -730h-222l-57 329l-106 -329h-170l-106 329z" />
    <glyph glyph-name="W.ss01" horiz-adv-x="1031" 
d="M419 0h-216l-203 730h228l110 -401l123 282h109l123 -282l110 401h228l-203 -730h-216l-96 249z" />
    <glyph glyph-name="Wacute.ss01" horiz-adv-x="1031" 
d="M582 800h-120l48 180h180zM419 0h-216l-203 730h228l110 -401l123 282h109l123 -282l110 401h228l-203 -730h-216l-96 249z" />
    <glyph glyph-name="Wcircumflex.ss01" horiz-adv-x="1031" 
d="M485 820h-148l102 140h156l102 -140h-148l-32 44zM419 0h-216l-203 730h228l110 -401l123 282h109l123 -282l110 401h228l-203 -730h-216l-96 249z" />
    <glyph glyph-name="Wdieresis.ss01" horiz-adv-x="1031" 
d="M411 805q-35 0 -60 24.5t-25 60.5t25 60.5t60 24.5t60 -24.5t25 -60.5t-25 -60.5t-60 -24.5zM621 805q-35 0 -60 24.5t-25 60.5t25 60.5t60 24.5t60 -24.5t25 -60.5t-25 -60.5t-60 -24.5zM419 0h-216l-203 730h228l110 -401l123 282h109l123 -282l110 401h228l-203 -730
h-216l-96 249z" />
    <glyph glyph-name="Wgrave.ss01" horiz-adv-x="1031" 
d="M570 800h-120l-108 180h180zM419 0h-216l-203 730h228l110 -401l123 282h109l123 -282l110 401h228l-203 -730h-216l-96 249z" />
    <glyph glyph-name="Aacute.ss02" horiz-adv-x="738" 
d="M426 800h-120l48 180h180zM238 0h-248l374 750h10l374 -750h-248l-32 80h-198zM369 329l-39 -98h78z" />
    <glyph glyph-name="Abreve.ss02" horiz-adv-x="738" 
d="M369 817q-65 0 -110 41.5t-45 104.5h104q0 -20 14 -31.5t37 -11.5t37.5 11.5t14.5 31.5h103q0 -63 -45 -104.5t-110 -41.5zM238 0h-248l374 750h10l374 -750h-248l-32 80h-198zM369 329l-39 -98h78z" />
    <glyph glyph-name="uni1EAE.ss02" horiz-adv-x="738" 
d="M429 936h-120l48 180h180zM371 773q-65 0 -110 41.5t-45 104.5h104q0 -20 14 -31.5t37 -11.5t37.5 11.5t14.5 31.5h103q0 -63 -45 -104.5t-110 -41.5zM238 0h-248l374 750h10l374 -750h-248l-32 80h-198zM369 329l-39 -98h78z" />
    <glyph glyph-name="uni1EB6.ss02" horiz-adv-x="738" 
d="M369 817q-65 0 -110 41.5t-45 104.5h104q0 -20 14 -31.5t37 -11.5t37.5 11.5t14.5 31.5h103q0 -63 -45 -104.5t-110 -41.5zM238 0h-248l374 750h10l374 -750h-248l-32 80h-198zM369 329l-39 -98h78zM370 -206q-44 0 -75 31t-31 75t31 75t75 31t74.5 -31t30.5 -75
t-30.5 -75t-74.5 -31z" />
    <glyph glyph-name="uni1EB0.ss02" horiz-adv-x="738" 
d="M441 937h-120l-108 180h180zM370 774q-65 0 -110 41.5t-45 104.5h104q0 -20 14 -31.5t37 -11.5t37.5 11.5t14.5 31.5h103q0 -63 -45 -104.5t-110 -41.5zM238 0h-248l374 750h10l374 -750h-248l-32 80h-198zM369 329l-39 -98h78z" />
    <glyph glyph-name="uni1EB4.ss02" horiz-adv-x="738" 
d="M434 948q-24 0 -44.5 8.5t-30.5 18.5t-19 18t-15 7q-11 -2 -11 -36h-120q0 59 27 101t83 42q32 0 56 -13.5t36 -26.5t17 -12q11 2 11 36h120q0 -65 -26.5 -104t-83.5 -39zM365 783q-65 0 -110 41.5t-45 104.5h104q0 -20 14 -31.5t37 -11.5t37.5 11.5t14.5 31.5h103
q0 -63 -45 -104.5t-110 -41.5zM238 0h-248l374 750h10l374 -750h-248l-32 80h-198zM369 329l-39 -98h78z" />
    <glyph glyph-name="uni01CD.ss02" horiz-adv-x="738" 
d="M447 820h-156l-102 140h148l32 -44l32 44h148zM238 0h-248l374 750h10l374 -750h-248l-32 80h-198zM369 329l-39 -98h78z" />
    <glyph glyph-name="Acircumflex.ss02" horiz-adv-x="738" 
d="M337 820h-148l102 140h156l102 -140h-148l-32 44zM238 0h-248l374 750h10l374 -750h-248l-32 80h-198zM369 329l-39 -98h78z" />
    <glyph glyph-name="uni1EA4.ss02" horiz-adv-x="738" 
d="M605 905h-120l48 180h180zM340 765h-148l102 140h156l102 -140h-148l-32 44zM238 0h-248l374 750h10l374 -750h-248l-32 80h-198zM369 329l-39 -98h78z" />
    <glyph glyph-name="uni1EAC.ss02" horiz-adv-x="738" 
d="M337 820h-148l102 140h156l102 -140h-148l-32 44zM238 0h-248l374 750h10l374 -750h-248l-32 80h-198zM369 329l-39 -98h78zM370 -206q-44 0 -75 31t-31 75t31 75t75 31t74.5 -31t30.5 -75t-30.5 -75t-74.5 -31z" />
    <glyph glyph-name="uni1EA6.ss02" horiz-adv-x="738" 
d="M260 903h-120l-108 180h180zM345 767h-148l102 140h156l102 -140h-148l-32 44zM238 0h-248l374 750h10l374 -750h-248l-32 80h-198zM369 329l-39 -98h78z" />
    <glyph glyph-name="uni1EAA.ss02" horiz-adv-x="738" 
d="M429 929q-31 0 -54.5 13.5t-36 26.5t-18.5 12q-11 -2 -11 -36h-120q0 59 27 101t83 42q32 0 56 -13.5t36 -26t17 -12.5q11 2 11 36h120q0 -65 -26.5 -104t-83.5 -39zM337 763h-148l102 140h156l102 -140h-148l-32 44zM238 0h-248l374 750h10l374 -750h-248l-32 80h-198z
M369 329l-39 -98h78z" />
    <glyph glyph-name="Adieresis.ss02" horiz-adv-x="738" 
d="M264 805q-35 0 -60 24.5t-25 60.5t25 60.5t60 24.5t60 -24.5t25 -60.5t-25 -60.5t-60 -24.5zM474 805q-35 0 -60 24.5t-25 60.5t25 60.5t60 24.5t60 -24.5t25 -60.5t-25 -60.5t-60 -24.5zM238 0h-248l374 750h10l374 -750h-248l-32 80h-198zM369 329l-39 -98h78z" />
    <glyph glyph-name="uni01DE.ss02" horiz-adv-x="738" 
d="M564 969h-390v160h390v-160zM264 761q-35 0 -60 24.5t-25 60.5t25 60.5t60 24.5t60 -24.5t25 -60.5t-25 -60.5t-60 -24.5zM474 761q-35 0 -60 24.5t-25 60.5t25 60.5t60 24.5t60 -24.5t25 -60.5t-25 -60.5t-60 -24.5zM238 0h-248l374 750h10l374 -750h-248l-32 80h-198z
M369 329l-39 -98h78z" />
    <glyph glyph-name="uni1EA0.ss02" horiz-adv-x="738" 
d="M238 0h-248l374 750h10l374 -750h-248l-32 80h-198zM369 329l-39 -98h78zM370 -206q-44 0 -75 31t-31 75t31 75t75 31t74.5 -31t30.5 -75t-30.5 -75t-74.5 -31z" />
    <glyph glyph-name="Agrave.ss02" horiz-adv-x="738" 
d="M433 800h-120l-108 180h180zM238 0h-248l374 750h10l374 -750h-248l-32 80h-198zM369 329l-39 -98h78z" />
    <glyph glyph-name="Amacron.ss02" horiz-adv-x="738" 
d="M564 810h-390v160h390v-160zM238 0h-248l374 750h10l374 -750h-248l-32 80h-198zM369 329l-39 -98h78z" />
    <glyph glyph-name="Aogonek.ss02" horiz-adv-x="740" 
d="M698 -220q-38 0 -65.5 27.5t-27.5 70.5q0 54 47 122h-152l-32 80h-198l-32 -80h-248l374 750h10l374 -750q-36 -60 -36 -80q0 -19 14 -19q7 0 13 6l46 -76q-10 -22 -34.5 -36.5t-52.5 -14.5zM369 329l-39 -98h78z" />
    <glyph glyph-name="Aring.ss02" horiz-adv-x="738" 
d="M370 771q-52 0 -91 32.5t-39 86.5t39 87t91 33t90.5 -33t38.5 -87t-38.5 -86.5t-90.5 -32.5zM370 871q8 0 13.5 5.5t5.5 13.5t-5.5 14t-13.5 6t-13.5 -6t-5.5 -14t5.5 -13.5t13.5 -5.5zM238 0h-248l374 750h10l374 -750h-248l-32 80h-198zM369 329l-39 -98h78z" />
    <glyph glyph-name="Aringacute.ss02" horiz-adv-x="738" 
d="M478 1028h-120l48 180h180zM370 767q-52 0 -91 32.5t-39 86.5t39 87t91 33t90.5 -33t38.5 -87t-38.5 -86.5t-90.5 -32.5zM370 867q8 0 13.5 5.5t5.5 13.5t-5.5 14t-13.5 6t-13.5 -6t-5.5 -14t5.5 -13.5t13.5 -5.5zM238 0h-248l374 750h10l374 -750h-248l-32 80h-198z
M369 329l-39 -98h78z" />
    <glyph glyph-name="Atilde.ss02" horiz-adv-x="738" 
d="M434 811q-31 0 -54.5 13.5t-36 26.5t-18.5 12q-11 -2 -11 -36h-120q0 59 27 101t83 42q32 0 56 -13.5t36 -26t17 -12.5q11 2 11 36h120q0 -65 -26.5 -104t-83.5 -39zM238 0h-248l374 750h10l374 -750h-248l-32 80h-198zM369 329l-39 -98h78z" />
    <glyph glyph-name="uni0136.ss02" horiz-adv-x="655" 
d="M270 0h-220v730h220v-300l153 300h222l-192 -362l202 -368h-248l-137 300v-300zM385 -237h-151l17 183h180z" />
    <glyph glyph-name="M.ss02" horiz-adv-x="906" 
d="M458 -30h-10l-159 276l-52 -246h-227l181 760h10l252 -430l252 430h10l181 -760h-227l-52 246z" />
    <glyph glyph-name="uni1E3E.ss02" horiz-adv-x="906" 
d="M489 800h-120l48 180h180zM458 -30h-10l-159 276l-52 -246h-227l181 760h10l252 -430l252 430h10l181 -760h-227l-52 246z" />
    <glyph glyph-name="Nacute.ss02" horiz-adv-x="724" 
d="M398 800h-120l48 180h180zM674 -30h-10l-394 328v-298h-220v760h10l394 -325v295h220v-760z" />
    <glyph glyph-name="Ncaron.ss02" horiz-adv-x="724" 
d="M454 820h-156l-102 140h148l32 -44l32 44h148zM674 -30h-10l-394 328v-298h-220v760h10l394 -325v295h220v-760z" />
    <glyph glyph-name="uni1E4A.ss02" horiz-adv-x="724" 
d="M674 -30h-10l-394 328v-298h-220v760h10l394 -325v295h220v-760zM390 -190h-148l102 140h156l102 -140h-148l-32 44z" />
    <glyph glyph-name="uni0145.ss02" horiz-adv-x="724" 
d="M674 -30h-10l-394 328v-298h-220v760h10l394 -325v295h220v-760zM405 -227h-151l17 183h180z" />
    <glyph glyph-name="uni1E46.ss02" horiz-adv-x="724" 
d="M674 -30h-10l-394 328v-298h-220v760h10l394 -325v295h220v-760zM392 -251q-44 0 -75 31t-31 75t31 75t75 31t74.5 -31t30.5 -75t-30.5 -75t-74.5 -31z" />
    <glyph glyph-name="Ntilde.ss02" horiz-adv-x="724" 
d="M417 811q-24 0 -44.5 8.5t-30.5 18.5t-19 18t-15 7q-11 -2 -11 -36h-120q0 59 27 101t83 42q32 0 56 -13.5t36 -26.5t17 -12q11 2 11 36h120q0 -65 -26.5 -104t-83.5 -39zM674 -30h-10l-394 328v-298h-220v760h10l394 -325v295h220v-760z" />
    <glyph glyph-name="Racute.ss02" horiz-adv-x="644" 
d="M281 980h180l-108 -180h-120zM514 241l130 -241h-252l-122 284v-284h-220v730h275q119 0 203.5 -81t84.5 -196q0 -128 -99 -212zM270 515v-126h48q30 0 49.5 17t19.5 47q0 29 -19.5 45.5t-49.5 16.5h-48z" />
    <glyph glyph-name="Rcaron.ss02" horiz-adv-x="644" 
d="M503 960l-102 -140h-156l-102 140h148l32 -44l32 44h148zM514 241l130 -241h-252l-122 284v-284h-220v730h275q119 0 203.5 -81t84.5 -196q0 -128 -99 -212zM270 515v-126h48q30 0 49.5 17t19.5 47q0 29 -19.5 45.5t-49.5 16.5h-48z" />
    <glyph glyph-name="uni0156.ss02" horiz-adv-x="644" 
d="M392 0l-122 284v-284h-220v730h275q119 0 203.5 -81t84.5 -196q0 -128 -99 -212l130 -241h-252zM318 515h-48v-126h48q30 0 49.5 17t19.5 47q0 29 -19.5 45.5t-49.5 16.5zM370 -237h-151l17 183h180z" />
    <glyph glyph-name="Wacute.ss02" horiz-adv-x="1056" 
d="M592 830h-120l48 180h180zM313 -30h-10l-313 760h239l123 -300l171 330h10l171 -330l123 300h239l-313 -760h-10l-215 392z" />
    <glyph glyph-name="Wcircumflex.ss02" horiz-adv-x="1056" 
d="M496 820h-148l102 140h156l102 -140h-148l-32 44zM313 -30h-10l-313 760h239l123 -300l171 330h10l171 -330l123 300h239l-313 -760h-10l-215 392z" />
    <glyph glyph-name="Wdieresis.ss02" horiz-adv-x="1056" 
d="M423 805q-35 0 -60 24.5t-25 60.5t25 60.5t60 24.5t60 -24.5t25 -60.5t-25 -60.5t-60 -24.5zM633 805q-35 0 -60 24.5t-25 60.5t25 60.5t60 24.5t60 -24.5t25 -60.5t-25 -60.5t-60 -24.5zM313 -30h-10l-313 760h239l123 -300l171 330h10l171 -330l123 300h239l-313 -760
h-10l-215 392z" />
    <glyph glyph-name="Wgrave.ss02" horiz-adv-x="1056" 
d="M602 830h-120l-108 180h180zM313 -30h-10l-313 760h239l123 -300l171 330h10l171 -330l123 300h239l-313 -760h-10l-215 392z" />
    <glyph glyph-name="Zacute.ss02" horiz-adv-x="655" 
d="M391 800h-120l48 180h180zM623 0h-598v10l250 500h-220v220h570v-10l-248 -500h246v-220z" />
    <glyph glyph-name="Zcaron.ss02" horiz-adv-x="655" 
d="M413 820h-156l-102 140h148l32 -44l32 44h148zM623 0h-598v10l250 500h-220v220h570v-10l-248 -500h246v-220z" />
    <glyph glyph-name="Zdotaccent.ss02" horiz-adv-x="655" 
d="M336 784q-44 0 -75 31t-31 75t31 75t75 31t74.5 -31t30.5 -75t-30.5 -75t-74.5 -31zM623 0h-598v10l250 500h-220v220h570v-10l-248 -500h246v-220z" />
    <glyph glyph-name="uni1E92.ss02" horiz-adv-x="655" 
d="M623 0h-598v10l250 500h-220v220h570v-10l-248 -500h246v-220zM326 -251q-44 0 -75 31t-31 75t31 75t75 31t74.5 -31t30.5 -75t-30.5 -75t-74.5 -31z" />
    <glyph glyph-name="iacute_j.loclNLD" horiz-adv-x="638" 
d="M207 630h-120l48 180h180zM546 630h-120l48 180h180zM245 0h-205v550h205v-550zM350 -236q-66 0 -118 20l51 187q18 -5 33 -5q38 0 57.5 24.5t19.5 84.5v475h205v-475q0 -88 -20 -151t-56.5 -97t-78.5 -48.5t-93 -14.5z" />
    <glyph glyph-name="aacute.ss01" horiz-adv-x="649" 
d="M309 810h180l-108 -180h-120zM629 180h10v-180h-82q-116 0 -142 78q-23 -39 -61 -62.5t-86 -23.5q-103 0 -175.5 83.5t-72.5 200.5q0 118 72.5 201.5t175.5 83.5q80 0 133 -65l13 54h185v-340q0 -14 8.5 -22t21.5 -8zM310 193q35 0 59.5 24t24.5 59t-24.5 59.5
t-59.5 24.5t-58.5 -24.5t-23.5 -59.5t23.5 -59t58.5 -24z" />
    <glyph glyph-name="abreve.ss01" horiz-adv-x="649" 
d="M335 647q-65 0 -110 41.5t-45 104.5h104q0 -20 14 -31.5t37 -11.5t37.5 11.5t14.5 31.5h103q0 -63 -45 -104.5t-110 -41.5zM629 180h10v-180h-82q-116 0 -142 78q-23 -39 -61 -62.5t-86 -23.5q-103 0 -175.5 83.5t-72.5 200.5q0 118 72.5 201.5t175.5 83.5q80 0 133 -65
l13 54h185v-340q0 -14 8.5 -22t21.5 -8zM310 193q35 0 59.5 24t24.5 59t-24.5 59.5t-59.5 24.5t-58.5 -24.5t-23.5 -59.5t23.5 -59t58.5 -24z" />
    <glyph glyph-name="uni1EAF.ss01" horiz-adv-x="649" 
d="M315 952h180l-108 -180h-120zM329 609q-65 0 -110 41.5t-45 104.5h104q0 -20 14 -31.5t37 -11.5t37.5 11.5t14.5 31.5h103q0 -63 -45 -104.5t-110 -41.5zM629 180h10v-180h-82q-116 0 -142 78q-23 -39 -61 -62.5t-86 -23.5q-103 0 -175.5 83.5t-72.5 200.5
q0 118 72.5 201.5t175.5 83.5q80 0 133 -65l13 54h185v-340q0 -14 8.5 -22t21.5 -8zM310 193q35 0 59.5 24t24.5 59t-24.5 59.5t-59.5 24.5t-58.5 -24.5t-23.5 -59.5t23.5 -59t58.5 -24z" />
    <glyph glyph-name="uni1EB7.ss01" horiz-adv-x="649" 
d="M325 647q-65 0 -110 41.5t-45 104.5h104q0 -20 14 -31.5t37 -11.5t37.5 11.5t14.5 31.5h103q0 -62 -45.5 -104t-109.5 -42zM629 180h10v-180h-82q-116 0 -142 78q-23 -39 -61 -62.5t-86 -23.5q-103 0 -175.5 83.5t-72.5 200.5q0 118 72.5 201.5t175.5 83.5q80 0 133 -65
l13 54h185v-340q0 -14 8.5 -22t21.5 -8zM310 193q35 0 59.5 24t24.5 59t-24.5 59.5t-59.5 24.5t-58.5 -24.5t-23.5 -59.5t23.5 -59t58.5 -24zM335 -39q44 0 74.5 -31t30.5 -75t-30.5 -75t-74.5 -31t-75 31t-31 75t31 75t75 31z" />
    <glyph glyph-name="uni1EB1.ss01" horiz-adv-x="649" 
d="M349 952l48 -180h-120l-108 180h180zM326 712q23 0 37.5 11.5t14.5 31.5h103q0 -63 -45 -104.5t-110 -41.5t-110 41.5t-45 104.5h104q0 -20 14 -31.5t37 -11.5zM629 180h10v-180h-82q-116 0 -142 78q-23 -39 -61 -62.5t-86 -23.5q-103 0 -175.5 83.5t-72.5 200.5
q0 118 72.5 201.5t175.5 83.5q80 0 133 -65l13 54h185v-340q0 -14 8.5 -22t21.5 -8zM310 193q35 0 59.5 24t24.5 59t-24.5 59.5t-59.5 24.5t-58.5 -24.5t-23.5 -59.5t23.5 -59t58.5 -24z" />
    <glyph glyph-name="uni1EB5.ss01" horiz-adv-x="649" 
d="M283 835q-11 -2 -11 -36h-120q0 59 27 101t83 42q32 0 56 -13.5t36 -26.5t17 -12q11 2 11 36h120q0 -65 -26.5 -104t-83.5 -39q-24 0 -44.5 8.5t-30.5 18.5t-19 18t-15 7zM323 721q23 0 37.5 11.5t14.5 31.5h103q0 -63 -45 -104.5t-110 -41.5t-110 41.5t-45 104.5h104
q0 -20 14 -31.5t37 -11.5zM629 180h10v-180h-82q-116 0 -142 78q-23 -39 -61 -62.5t-86 -23.5q-103 0 -175.5 83.5t-72.5 200.5q0 118 72.5 201.5t175.5 83.5q80 0 133 -65l13 54h185v-340q0 -14 8.5 -22t21.5 -8zM310 193q35 0 59.5 24t24.5 59t-24.5 59.5t-59.5 24.5
t-58.5 -24.5t-23.5 -59.5t23.5 -59t58.5 -24z" />
    <glyph glyph-name="uni01CE.ss01" horiz-adv-x="649" 
d="M515 790l-102 -140h-156l-102 140h148l32 -44l32 44h148zM629 180h10v-180h-82q-116 0 -142 78q-23 -39 -61 -62.5t-86 -23.5q-103 0 -175.5 83.5t-72.5 200.5q0 118 72.5 201.5t175.5 83.5q80 0 133 -65l13 54h185v-340q0 -14 8.5 -22t21.5 -8zM310 193q35 0 59.5 24
t24.5 59t-24.5 59.5t-59.5 24.5t-58.5 -24.5t-23.5 -59.5t23.5 -59t58.5 -24z" />
    <glyph glyph-name="acircumflex.ss01" horiz-adv-x="649" 
d="M357 650l-32 44l-32 -44h-148l102 140h156l102 -140h-148zM629 180h10v-180h-82q-116 0 -142 78q-23 -39 -61 -62.5t-86 -23.5q-103 0 -175.5 83.5t-72.5 200.5q0 118 72.5 201.5t175.5 83.5q80 0 133 -65l13 54h185v-340q0 -14 8.5 -22t21.5 -8zM310 193q35 0 59.5 24
t24.5 59t-24.5 59.5t-59.5 24.5t-58.5 -24.5t-23.5 -59.5t23.5 -59t58.5 -24z" />
    <glyph glyph-name="uni1EA5.ss01" horiz-adv-x="649" 
d="M445 940h180l-108 -180h-120zM316 620l-32 44l-32 -44h-148l102 140h156l102 -140h-148zM629 180h10v-180h-82q-116 0 -142 78q-23 -39 -61 -62.5t-86 -23.5q-103 0 -175.5 83.5t-72.5 200.5q0 118 72.5 201.5t175.5 83.5q80 0 133 -65l13 54h185v-340q0 -14 8.5 -22
t21.5 -8zM310 193q35 0 59.5 24t24.5 59t-24.5 59.5t-59.5 24.5t-58.5 -24.5t-23.5 -59.5t23.5 -59t58.5 -24z" />
    <glyph glyph-name="uni1EAD.ss01" horiz-adv-x="649" 
d="M357 650l-32 44l-32 -44h-148l102 140h156l102 -140h-148zM629 180h10v-180h-82q-116 0 -142 78q-23 -39 -61 -62.5t-86 -23.5q-103 0 -175.5 83.5t-72.5 200.5q0 118 72.5 201.5t175.5 83.5q80 0 133 -65l13 54h185v-340q0 -14 8.5 -22t21.5 -8zM310 193q35 0 59.5 24
t24.5 59t-24.5 59.5t-59.5 24.5t-58.5 -24.5t-23.5 -59.5t23.5 -59t58.5 -24zM335 -39q44 0 74.5 -31t30.5 -75t-30.5 -75t-74.5 -31t-75 31t-31 75t31 75t75 31z" />
    <glyph glyph-name="uni1EA7.ss01" horiz-adv-x="669" 
d="M200 918l48 -180h-120l-108 180h180zM365 646l-32 -44h-148l102 140h156l102 -140h-148zM649 180h10v-180h-82q-116 0 -142 78q-23 -39 -61 -62.5t-86 -23.5q-103 0 -175.5 83.5t-72.5 200.5q0 118 72.5 201.5t175.5 83.5q80 0 133 -65l13 54h185v-340q0 -14 8.5 -22
t21.5 -8zM330 193q35 0 59.5 24t24.5 59t-24.5 59.5t-59.5 24.5t-58.5 -24.5t-23.5 -59.5t23.5 -59t58.5 -24z" />
    <glyph glyph-name="uni1EAB.ss01" horiz-adv-x="649" 
d="M276 816q-11 -2 -11 -36h-120q0 59 27 101t83 42q32 0 56 -13.5t36 -26.5t17 -12q11 2 11 36h120q0 -65 -26.5 -104t-83.5 -39q-24 0 -44.5 8.5t-30.5 18.5t-19 18t-15 7zM357 598l-32 44l-32 -44h-148l102 140h156l102 -140h-148zM629 180h10v-180h-82q-116 0 -142 78
q-23 -39 -61 -62.5t-86 -23.5q-103 0 -175.5 83.5t-72.5 200.5q0 118 72.5 201.5t175.5 83.5q80 0 133 -65l13 54h185v-340q0 -14 8.5 -22t21.5 -8zM310 193q35 0 59.5 24t24.5 59t-24.5 59.5t-59.5 24.5t-58.5 -24.5t-23.5 -59.5t23.5 -59t58.5 -24z" />
    <glyph glyph-name="adieresis.ss01" horiz-adv-x="649" 
d="M225 635q-35 0 -60 24.5t-25 60.5t25 60.5t60 24.5t60 -24.5t25 -60.5t-25 -60.5t-60 -24.5zM435 635q-35 0 -60 24.5t-25 60.5t25 60.5t60 24.5t60 -24.5t25 -60.5t-25 -60.5t-60 -24.5zM629 180h10v-180h-82q-116 0 -142 78q-23 -39 -61 -62.5t-86 -23.5
q-103 0 -175.5 83.5t-72.5 200.5q0 118 72.5 201.5t175.5 83.5q80 0 133 -65l13 54h185v-340q0 -14 8.5 -22t21.5 -8zM310 193q35 0 59.5 24t24.5 59t-24.5 59.5t-59.5 24.5t-58.5 -24.5t-23.5 -59.5t23.5 -59t58.5 -24z" />
    <glyph glyph-name="uni01DF.ss01" horiz-adv-x="649" 
d="M143 964h390v-160h-390v160zM148 681q0 36 25 60.5t60 24.5t60 -24.5t25 -60.5t-25 -60.5t-60 -24.5t-60 24.5t-25 60.5zM358 681q0 36 25 60.5t60 24.5t60 -24.5t25 -60.5t-25 -60.5t-60 -24.5t-60 24.5t-25 60.5zM629 180h10v-180h-82q-116 0 -142 78
q-23 -39 -61 -62.5t-86 -23.5q-103 0 -175.5 83.5t-72.5 200.5q0 118 72.5 201.5t175.5 83.5q80 0 133 -65l13 54h185v-340q0 -14 8.5 -22t21.5 -8zM310 193q35 0 59.5 24t24.5 59t-24.5 59.5t-59.5 24.5t-58.5 -24.5t-23.5 -59.5t23.5 -59t58.5 -24z" />
    <glyph glyph-name="uni1EA1.ss01" horiz-adv-x="649" 
d="M629 180h10v-180h-82q-116 0 -142 78q-23 -39 -61 -62.5t-86 -23.5q-103 0 -175.5 83.5t-72.5 200.5q0 118 72.5 201.5t175.5 83.5q80 0 133 -65l13 54h185v-340q0 -14 8.5 -22t21.5 -8zM310 193q35 0 59.5 24t24.5 59t-24.5 59.5t-59.5 24.5t-58.5 -24.5t-23.5 -59.5
t23.5 -59t58.5 -24zM335 -39q44 0 74.5 -31t30.5 -75t-30.5 -75t-74.5 -31t-75 31t-31 75t31 75t75 31z" />
    <glyph glyph-name="agrave.ss01" horiz-adv-x="649" 
d="M361 810l48 -180h-120l-108 180h180zM629 180h10v-180h-82q-116 0 -142 78q-23 -39 -61 -62.5t-86 -23.5q-103 0 -175.5 83.5t-72.5 200.5q0 118 72.5 201.5t175.5 83.5q80 0 133 -65l13 54h185v-340q0 -14 8.5 -22t21.5 -8zM310 193q35 0 59.5 24t24.5 59t-24.5 59.5
t-59.5 24.5t-58.5 -24.5t-23.5 -59.5t23.5 -59t58.5 -24z" />
    <glyph glyph-name="amacron.ss01" horiz-adv-x="649" 
d="M135 800h390v-160h-390v160zM629 180h10v-180h-82q-116 0 -142 78q-23 -39 -61 -62.5t-86 -23.5q-103 0 -175.5 83.5t-72.5 200.5q0 118 72.5 201.5t175.5 83.5q80 0 133 -65l13 54h185v-340q0 -14 8.5 -22t21.5 -8zM310 193q35 0 59.5 24t24.5 59t-24.5 59.5t-59.5 24.5
t-58.5 -24.5t-23.5 -59.5t23.5 -59t58.5 -24z" />
    <glyph glyph-name="aogonek.ss01" horiz-adv-x="649" 
d="M639 180v-180h-40q-5 -8 -16.5 -24.5t-15.5 -26t-4 -19.5q0 -19 14 -19q7 0 13 6l46 -76q-10 -22 -34.5 -36.5t-52.5 -14.5q-38 0 -65.5 27.5t-27.5 70.5q0 47 48 117q-67 15 -89 74q-23 -39 -61.5 -63t-85.5 -24q-103 0 -175.5 83.5t-72.5 200.5q0 118 72.5 201.5
t175.5 83.5q80 0 133 -65l13 54h185v-340q0 -14 8.5 -22t21.5 -8h10zM310 193q35 0 59.5 24t24.5 59t-24.5 59.5t-59.5 24.5t-58.5 -24.5t-23.5 -59.5t23.5 -59t58.5 -24z" />
    <glyph glyph-name="aring.ss01" horiz-adv-x="649" 
d="M325 601q-52 0 -91 32.5t-39 86.5t39 87t91 33t90.5 -33t38.5 -87t-38.5 -86.5t-90.5 -32.5zM325 740q-8 0 -13.5 -6t-5.5 -14t5.5 -13.5t13.5 -5.5q7 0 13 5.5t6 13.5t-5.5 14t-13.5 6zM629 180h10v-180h-82q-116 0 -142 78q-23 -39 -61 -62.5t-86 -23.5
q-103 0 -175.5 83.5t-72.5 200.5q0 118 72.5 201.5t175.5 83.5q80 0 133 -65l13 54h185v-340q0 -14 8.5 -22t21.5 -8zM310 193q35 0 59.5 24t24.5 59t-24.5 59.5t-59.5 24.5t-58.5 -24.5t-23.5 -59.5t23.5 -59t58.5 -24z" />
    </font>
</defs>
</svg>
