<?xml version="1.0" standalone="no"?>
<!DOCTYPE svg PUBLIC "-//W3C//DTD SVG 1.1//EN" "http://www.w3.org/Graphics/SVG/1.1/DTD/svg11.dtd" >
<svg xmlns="http://www.w3.org/2000/svg" xmlns:xlink="http://www.w3.org/1999/xlink" version="1.1">
<metadata>
Created by FontForge 20201107 at Tue Jul 14 08:22:32 2020
 By 
Copyright (c) 2020 by Namela. All rights reserved.
</metadata>
<defs>
<font id="Madani-SemiBold" horiz-adv-x="629" >
  <font-face 
    font-family="Madani-SemiBold"
    font-weight="400"
    font-stretch="normal"
    units-per-em="1000"
    panose-1="0 0 7 0 0 0 0 0 0 0"
    ascent="774"
    descent="-226"
    x-height="550"
    cap-height="730"
    bbox="-458 -239 1169 1183"
    underline-thickness="50"
    underline-position="-75"
    unicode-range="U+0020-FB02"
  />
<missing-glyph horiz-adv-x="250" 
 />
    <glyph glyph-name="fi" unicode="fi" horiz-adv-x="580" 
d="M228 425v-425l-140 1v424h-70v125h70v14q0 120 60.5 176.5t153.5 56.5q34 0 75 -12l-43 -126q-14 3 -28 3q-78 0 -78 -98v-14h294v-550h-141v425h-153zM451 594q-33 0 -56.5 24t-23.5 57t23.5 57t56.5 24t56.5 -24t23.5 -57t-23.5 -57t-56.5 -24z" />
    <glyph glyph-name="fl" unicode="fl" horiz-adv-x="583" 
d="M228 425v-425l-140 1v424h-70v125h70v14q0 61 21 107.5t56.5 73t76.5 39.5t86 13q81 0 194 -61l1 -736h-140v648q-23 14 -65 14q-41 0 -65.5 -23.5t-24.5 -74.5v-14h121v-125h-121z" />
    <glyph glyph-name="f_f" unicode="ff" horiz-adv-x="691" 
d="M228 425v-425l-140 1v424h-70v125h70v14q0 120 60.5 176.5t153.5 56.5q49 0 92 -15l-36 -125q-35 5 -42 5q-88 0 -88 -98v-14h153v14q0 120 60.5 176.5t154.5 56.5q49 0 91 -15l-36 -125q-35 5 -41 5q-88 0 -88 -98v-14h129v-125h-129v-425l-141 1v424h-153z" />
    <glyph glyph-name="f_f_i" unicode="ffi" horiz-adv-x="874" 
d="M228 425v-425l-140 1v424h-70v125h70v14q0 120 60.5 176.5t153.5 56.5q49 0 92 -15l-36 -125q-35 5 -42 5q-88 0 -88 -98v-14h153v14q0 120 60.5 176.5t154.5 56.5q35 0 74 -12l-43 -126q-12 3 -27 3q-78 0 -78 -98v-14h293v-550h-140v425h-153v-425l-141 1v424h-153z
M744 594q-33 0 -56.5 24t-23.5 57t23.5 57t56.5 24t57 -24t24 -57t-24 -57t-57 -24z" />
    <glyph glyph-name="f_f_j" unicode="ffj" horiz-adv-x="874" 
d="M602 -233q-53 0 -96 17l36 128q20 -6 39 -6q94 0 94 129v390h-153v-425l-141 1v424h-153v-425l-140 1v424h-70v125h70v14q0 120 60.5 176.5t153.5 56.5q49 0 92 -15l-36 -125q-35 5 -42 5q-88 0 -88 -98v-14h153v14q0 120 60.5 176.5t154.5 56.5q35 0 74 -12l-43 -126
q-12 3 -27 3q-78 0 -78 -98v-14h293v-515q0 -142 -59 -205t-154 -63zM744 594q-33 0 -56.5 24t-23.5 57t23.5 57t56.5 24t57 -24t24 -57t-24 -57t-57 -24z" />
    <glyph glyph-name="f_f_l" unicode="ffl" horiz-adv-x="876" 
d="M228 425v-425l-140 1v424h-70v125h70v14q0 120 60.5 176.5t153.5 56.5q49 0 92 -15l-36 -125q-35 5 -42 5q-88 0 -88 -98v-14h153v14q0 61 21 107.5t56.5 73t76.5 39.5t86 13q81 0 194 -61l2 -736h-141v648q-21 14 -64 14q-41 0 -65.5 -23.5t-24.5 -74.5v-14h121v-125
h-121v-425l-141 1v424h-153z" />
    <glyph glyph-name="f_j" unicode="fj" horiz-adv-x="580" 
d="M309 -233q-52 0 -95 17l36 128q18 -6 38 -6q94 0 94 129l-1 390h-153v-425l-140 1v424h-70v125h70v14q0 120 60.5 176.5t153.5 56.5q34 0 75 -12l-43 -126q-14 3 -28 3q-78 0 -78 -98v-14h294v-515q0 -142 -58.5 -205t-154.5 -63zM451 594q-33 0 -56.5 24t-23.5 57
t23.5 57t56.5 24t56.5 -24t23.5 -57t-23.5 -57t-56.5 -24z" />
    <glyph glyph-name="t_t" unicode="tt" horiz-adv-x="746" 
d="M301 -10q-93 0 -152 57t-59 183v195h-72v125h77l20 180h116v-180h188l19 180h115v-180h126v-125h-126v-194q0 -106 92 -106q21 0 38 7l36 -125q-40 -17 -96 -17q-93 0 -151.5 56.5t-58.5 183.5v195h-182v-194q0 -106 91 -106q21 0 38 7l35 -125q-38 -17 -94 -17z" />
    <glyph glyph-name=".notdef" horiz-adv-x="250" 
 />
    <glyph glyph-name=".null" horiz-adv-x="0" 
 />
    <glyph glyph-name="uni000D" horiz-adv-x="333" 
 />
    <glyph glyph-name="space" unicode=" " horiz-adv-x="268" 
 />
    <glyph glyph-name="exclam" unicode="!" horiz-adv-x="266" 
d="M63 730h141l-13 -547h-115zM78 116q23 23 56 23q32 0 55 -23t23 -55q0 -33 -23 -56t-55 -23q-33 0 -56 23t-23 56q0 32 23 55z" />
    <glyph glyph-name="quotedbl" unicode="&#x22;" horiz-adv-x="389" 
d="M222 730h126l-17 -236h-92zM167 730l-16 -236h-93l-16 236h125z" />
    <glyph glyph-name="numbersign" unicode="#" horiz-adv-x="752" 
d="M42 184l23 113h112l28 136h-112l24 112h110l22 111h115l-22 -111h140l22 111h115l-21 -111h113l-24 -112h-112l-27 -136h111l-23 -113h-111l-22 -109h-115l22 109h-140l-23 -109h-115l23 109h-113zM432 297l28 136h-140l-28 -136h140z" />
    <glyph glyph-name="dollar" unicode="$" horiz-adv-x="587" 
d="M115 192q61 -60 142 -74v209q-47 16 -78.5 31t-65.5 40t-51.5 62.5t-17.5 86.5q0 79 59.5 133t153.5 62v67h74v-68q124 -17 203 -114l-96 -70q-44 49 -107 62v-181q39 -12 66 -22.5t59.5 -29.5t52.5 -41.5t34 -58t14 -78.5q0 -92 -62.5 -151t-163.5 -67v-68h-74v71
q-135 18 -227 116zM331 301v-188q50 3 80.5 26t30.5 62q0 37 -28 58.5t-83 41.5zM182 501q25 -20 75 -38v164q-48 -4 -74.5 -23.5t-26.5 -49.5q0 -34 26 -53z" />
    <glyph glyph-name="percent" unicode="%" horiz-adv-x="800" 
d="M28 593q0 87 45.5 140.5t119.5 53.5t119 -53t45 -141q0 -89 -45 -143q-45 -55 -119 -55t-119.5 54.5t-45.5 143.5zM444 188q0 87 45.5 140.5t119.5 53.5q73 0 118.5 -53.5t45.5 -140.5q0 -89 -45.5 -143.5t-118.5 -54.5q-74 0 -119.5 54.5t-45.5 143.5zM150 0l404 781h98
l-404 -781h-98zM136 508q23 -27 56 -27q35 0 57.5 27t22.5 85q0 55 -22.5 81.5t-57.5 26.5q-33 0 -56 -26.5t-23 -81.5q0 -58 23 -85zM552 103q22 -27 56 -27q35 0 57 27t22 85q0 56 -22 82t-57 26q-34 0 -56.5 -26.5t-22.5 -81.5q0 -58 23 -85z" />
    <glyph glyph-name="ampersand" unicode="&#x26;" horiz-adv-x="706" 
d="M167 399q-62 85 -62 156q0 84 66 137t162 53t157 -53t61 -139q0 -69 -46 -116.5t-124 -86.5l133 -144q34 42 34 94q0 18 -4 36l129 29q4 -30 4 -58q0 -121 -77 -206l86 -101h-176l-24 26q-72 -35 -163 -35q-134 0 -211 58.5t-77 158.5q0 120 132 191zM175 205
q0 -43 41.5 -63t106.5 -20q42 0 72 15l-139 151q-39 -19 -60 -38t-21 -45zM295 456q41 18 60.5 27.5t38 28t18.5 39.5q0 32 -25.5 49t-55.5 17q-33 0 -58 -17t-25 -49q0 -36 47 -95z" />
    <glyph glyph-name="quotesingle" unicode="'" horiz-adv-x="208" 
d="M151 494h-93l-16 236h125z" />
    <glyph glyph-name="parenleft" unicode="(" horiz-adv-x="341" 
d="M48 335q0 296 151 445h129q-156 -155 -156 -445t156 -445h-129q-151 149 -151 445z" />
    <glyph glyph-name="parenright" unicode=")" horiz-adv-x="341" 
d="M14 -110q155 155 155 445t-155 445h129q151 -149 151 -445q0 -297 -151 -445h-129z" />
    <glyph glyph-name="asterisk" unicode="*" horiz-adv-x="412" 
d="M206 480l-72 -104l-70 52l77 100l-121 35l27 84l119 -43l-3 126h87l-4 -126l120 41l26 -82l-121 -35l76 -101l-69 -51z" />
    <glyph glyph-name="plus" unicode="+" horiz-adv-x="528" 
d="M42 309v112h165v167h113v-167h167v-112h-167v-166h-113v166h-165z" />
    <glyph glyph-name="comma" unicode="," horiz-adv-x="209" 
d="M120 -140h-92l28 275h126z" />
    <glyph glyph-name="hyphen" unicode="-" horiz-adv-x="455" 
d="M414 309h-372v112h372v-112z" />
    <glyph glyph-name="period" unicode="." horiz-adv-x="211" 
d="M28 67q0 33 23 56t55 23t55 -23t23 -56q0 -32 -23 -55q-23 -24 -55 -24t-55 23.5t-23 55.5z" />
    <glyph glyph-name="slash" unicode="/" horiz-adv-x="524" 
d="M153 -110h-135l354 891h135z" />
    <glyph glyph-name="zero" unicode="0" horiz-adv-x="658" 
d="M122 641q80 100 208 100t207.5 -100.5t79.5 -275.5t-79 -276q-80 -102 -208 -102t-208 101.5t-80 276.5t80 276zM185 366q0 -120 40 -179t105 -59q64 0 104 59t40 179q0 117 -40.5 175.5t-103.5 58.5q-65 0 -105 -58.5t-40 -175.5z" />
    <glyph glyph-name="one" unicode="1" horiz-adv-x="363" 
d="M268 0h-140v599h-100v131h240v-730z" />
    <glyph glyph-name="two" unicode="2" horiz-adv-x="593" 
d="M23 0v88l281 259q87 78 87 144q0 51 -32 82t-80 31q-42 0 -73.5 -24.5t-45.5 -58.5l-130 44q23 77 92 128t156 51q108 0 180.5 -69.5t72.5 -183.5q0 -110 -132 -232l-150 -128h300v-131h-526z" />
    <glyph glyph-name="three" unicode="3" horiz-adv-x="589" 
d="M145 200q15 -31 53.5 -52t83.5 -21q55 0 89 27.5t34 71.5q0 47 -38.5 73t-97.5 26h-39v131h42q43 0 74 20.5t31 56.5q0 34 -27.5 55t-70.5 21q-63 0 -95 -42l-130 50q27 56 90.5 92.5t135.5 36.5q101 0 170 -52.5t69 -150.5q0 -94 -91 -148q54 -27 85.5 -73.5
t31.5 -106.5q0 -103 -73 -166t-186 -63q-92 0 -163.5 43t-103.5 114z" />
    <glyph glyph-name="four" unicode="4" horiz-adv-x="580" 
d="M21 283l316 447h169v-433h60v-138h-60v-159h-141v159h-344v124zM179 297h186v243z" />
    <glyph glyph-name="five" unicode="5" horiz-adv-x="583" 
d="M163 206q13 -33 46 -54t73 -21q53 0 90 35.5t37 87.5t-37 88t-88 36q-31 0 -59.5 -14.5t-45.5 -38.5h-141l28 405h457v-131h-325l-9 -133q50 41 117 41q105 0 175 -72.5t70 -183.5t-79 -186t-192 -75q-87 0 -155.5 45.5t-96.5 120.5z" />
    <glyph glyph-name="six" unicode="6" horiz-adv-x="596" 
d="M83 406l233 325h172l-173 -232h8q95 0 168.5 -70.5t73.5 -177.5q0 -111 -78 -186t-189 -75q-112 0 -189 74.5t-77 186.5q0 90 51 155zM174 251q0 -50 36 -85t88 -35t88.5 35t36.5 85t-36.5 85t-88.5 35t-88 -35t-36 -85z" />
    <glyph glyph-name="seven" unicode="7" horiz-adv-x="562" 
d="M243 0h-157l277 599h-358v131h526v-87z" />
    <glyph glyph-name="eight" unicode="8" horiz-adv-x="621" 
d="M73 317q30 47 82 75q-79 54 -79 147q0 88 68.5 148t166.5 60t166.5 -60t68.5 -148q0 -92 -80 -147q53 -28 83.5 -75.5t30.5 -105.5q0 -103 -76 -169t-195 -66q-118 0 -192.5 66t-74.5 169q0 58 31 106zM185 220q0 -45 36 -76q35 -32 89 -32t90 31.5t36 76.5
q0 44 -37 74.5t-89 30.5t-88.5 -31t-36.5 -74zM215 538q0 -34 27.5 -58t67.5 -24q41 0 69 24t28 58t-28 57t-69 23q-40 0 -67.5 -23t-27.5 -57z" />
    <glyph glyph-name="nine" unicode="9" horiz-adv-x="596" 
d="M110 667q77 74 189 74q111 0 188.5 -74.5t77.5 -186.5q0 -89 -52 -155l-232 -325h-172l172 232h-8q-95 0 -168 70.5t-73 177.5q0 112 78 187zM173 480q0 -50 36.5 -85t89.5 -35q52 0 87.5 35t35.5 85t-35.5 85t-87.5 35q-53 0 -89.5 -35t-36.5 -85z" />
    <glyph glyph-name="colon" unicode=":" horiz-adv-x="251" 
d="M71 142q23 23 55 23t55 -23t23 -56q0 -32 -23 -55t-55 -23t-55 23t-23 55q0 33 23 56zM71 520q23 23 55 23t55 -23t23 -56q0 -32 -23 -55t-55 -23t-55 23t-23 55q0 33 23 56z" />
    <glyph glyph-name="semicolon" unicode=";" horiz-adv-x="247" 
d="M42 -140l27 275h126l-61 -275h-92zM73 521q23 23 55 23t55 -23t23 -55q0 -33 -23 -56t-55 -23t-55 23t-23 56q0 32 23 55z" />
    <glyph glyph-name="less" unicode="&#x3c;" horiz-adv-x="561" 
d="M514 633v-122l-331 -143l331 -143v-123l-472 205v122z" />
    <glyph glyph-name="equal" unicode="=" horiz-adv-x="553" 
d="M54 202v113h445v-113h-445zM499 519v-112h-445v112h445z" />
    <glyph glyph-name="greater" unicode="&#x3e;" horiz-adv-x="555" 
d="M514 429v-122l-472 -205v123l330 143l-330 143v122z" />
    <glyph glyph-name="question" unicode="?" horiz-adv-x="556" 
d="M42 573q21 74 86.5 122.5t147.5 48.5q103 0 171 -60.5t68 -156.5q0 -70 -28.5 -119t-93.5 -103q-30 -25 -45 -48t-15 -55v-27h-140v42q0 53 22 91t68 76q53 42 72 71.5t19 59.5q0 38 -27.5 62.5t-68.5 24.5q-40 0 -68.5 -22.5t-41.5 -56.5zM208 116q23 23 56 23
q32 0 55 -23t23 -55q0 -33 -23 -56t-55 -23q-33 0 -56 23t-23 56q0 32 23 55z" />
    <glyph glyph-name="at" unicode="@" horiz-adv-x="816" 
d="M142 631q110 110 267 110q156 0 266 -110.5t110 -265.5q0 -91 -43 -160.5t-128 -69.5h-2q-42 0 -75.5 25t-46.5 69q-42 -47 -107 -47q-73 0 -124.5 54t-51.5 130t51.5 130t124.5 54q63 0 105 -45l4 42h72v-260q0 -38 18.5 -60.5t45.5 -22.5q35 0 57.5 30t30 64t7.5 67
q0 129 -92.5 222t-221.5 93q-131 0 -223.5 -93t-92.5 -222q0 -131 93 -223.5t223 -92.5q45 0 90 14l17 -60q-49 -16 -107 -16q-157 0 -267 110.5t-110 267.5q0 155 110 266zM290 366q0 -38 28 -66.5t67 -28.5q38 0 65.5 28.5t27.5 66.5t-27.5 65.5t-65.5 27.5
q-39 0 -67 -27.5t-28 -65.5z" />
    <glyph glyph-name="A" unicode="A" horiz-adv-x="673" 
d="M256 730h161l251 -730h-164l-48 149h-237l-49 -149h-165zM414 288l-77 238l-77 -238h154z" />
    <glyph glyph-name="B" unicode="B" horiz-adv-x="646" 
d="M69 730h270q103 0 169.5 -52.5t66.5 -139.5q0 -90 -75 -145q53 -23 84 -68.5t31 -107.5q0 -95 -69 -156t-178 -61h-299v730zM219 144h144q46 0 72 23t26 61t-27 61t-67 23h-148v-168zM219 441l127 1q37 2 59.5 22.5t22.5 51.5q0 34 -24.5 56t-67.5 22h-117v-153z" />
    <glyph glyph-name="C" unicode="C" horiz-adv-x="756" 
d="M153 632q110 111 267 111q89 0 166.5 -38.5t130.5 -105.5l-124 -91q-69 82 -173 82q-92 0 -158.5 -66t-66.5 -159q0 -94 66 -160t159 -66q106 0 172 82l133 -80q-53 -73 -132.5 -114.5t-172.5 -41.5q-157 0 -267.5 111.5t-110.5 268.5q0 156 111 267z" />
    <glyph glyph-name="D" unicode="D" horiz-adv-x="731" 
d="M305 730q168 0 276.5 -104.5t108.5 -260.5q0 -157 -107 -261t-278 -104h-236v730h236zM219 583v-436h86q105 0 167 62.5t62 156.5q0 92 -63.5 155t-165.5 63z" />
    <glyph glyph-name="E" unicode="E" horiz-adv-x="581" 
d="M69 730h461v-137h-312v-152h292v-135h-292v-162h322v-144h-471v730z" />
    <glyph glyph-name="F" unicode="F" horiz-adv-x="584" 
d="M69 730h481v-144h-332v-152h312v-144h-312v-290h-149v730z" />
    <glyph glyph-name="G" unicode="G" horiz-adv-x="829" 
d="M153 632q110 111 267 111q90 0 168.5 -39.5t131.5 -108.5l-134 -80q-67 75 -166 75q-92 0 -158.5 -66t-66.5 -159q0 -94 66 -160t159 -66q79 0 131.5 42t64.5 113h-224v137h389q7 -29 7 -66q0 -170 -102 -275t-266 -105q-157 0 -267.5 111.5t-110.5 268.5q0 156 111 267z
" />
    <glyph glyph-name="H" unicode="H" horiz-adv-x="719" 
d="M69 730h150v-294h281v294h150v-730h-150v287h-281v-287h-150v730z" />
    <glyph glyph-name="I" unicode="I" horiz-adv-x="287" 
d="M219 0h-150v730h150v-730z" />
    <glyph glyph-name="J" unicode="J" horiz-adv-x="530" 
d="M126 179q36 -41 87 -41t79.5 36t28.5 95v461h151v-461q0 -128 -72 -203t-187 -75q-60 0 -112 26t-86 73z" />
    <glyph glyph-name="K" unicode="K" horiz-adv-x="654" 
d="M69 730h150v-299l236 299h168l-235 -305l255 -425h-174l-174 287l-76 -87v-200h-150v730z" />
    <glyph glyph-name="L" unicode="L" horiz-adv-x="567" 
d="M550 0h-481v730h150v-580h331v-150z" />
    <glyph glyph-name="M" unicode="M" horiz-adv-x="921" 
d="M69 0v730h153l239 -409l239 409h153v-730h-150v475l-202 -346h-80l-202 346v-475h-150z" />
    <glyph glyph-name="N" unicode="N" horiz-adv-x="763" 
d="M69 0v730h150l325 -464v464h150v-730h-150l-325 465v-465h-150z" />
    <glyph glyph-name="O" unicode="O" horiz-adv-x="839" 
d="M42 365q0 156 110.5 267t267.5 111t267.5 -111t110.5 -267q0 -157 -110 -268q-111 -112 -268 -112t-267.5 111.5t-110.5 268.5zM261 205q66 -66 159 -66t158.5 66t65.5 160q0 93 -66 159t-158 66t-158.5 -66t-66.5 -159q0 -94 66 -160z" />
    <glyph glyph-name="P" unicode="P" horiz-adv-x="633" 
d="M350 730q116 0 187 -68.5t71 -169.5q0 -102 -71 -171t-187 -69h-131v-252h-150v730h281zM346 399q50 0 79 26.5t29 66.5q0 39 -29.5 65.5t-78.5 26.5h-127v-185h127z" />
    <glyph glyph-name="Q" unicode="Q" horiz-adv-x="851" 
d="M153 632q110 111 267 111t267.5 -111t110.5 -267q0 -134 -83 -236l76 -87l-92 -80l-72 87q-92 -64 -207 -64q-157 0 -267.5 111.5t-110.5 268.5q0 156 111 267zM195 365q0 -94 66 -160t159 -66q59 0 105 32l-72 86l84 71l68 -76q39 50 39 113q0 93 -66 159t-158 66
t-158.5 -66t-66.5 -159z" />
    <glyph glyph-name="R" unicode="R" horiz-adv-x="637" 
d="M350 730q116 0 187 -68.5t71 -169.5q0 -72 -38.5 -129t-104.5 -81l157 -282h-171l-135 252h-97v-252h-150v730h281zM346 399q50 0 79 26.5t29 66.5q0 39 -29.5 65.5t-78.5 26.5h-127v-185h127z" />
    <glyph glyph-name="S" unicode="S" horiz-adv-x="604" 
d="M39 104l93 95q79 -77 175 -77q51 0 81.5 22t30.5 60q0 28 -20 48t-52.5 33.5t-71 26t-77.5 30t-71.5 40.5t-52.5 62.5t-20 91.5q0 92 66.5 149.5t178.5 57.5q67 0 133 -29t113 -89l-104 -83q-23 30 -61 47.5t-76 18.5q-47 0 -76 -20t-29 -50q0 -28 27 -48.5t67.5 -32.5
t88 -30.5t88 -41t67.5 -67t27 -105.5q0 -102 -70 -164.5t-184 -62.5h-4q-162 0 -267 118z" />
    <glyph glyph-name="T" unicode="T" horiz-adv-x="594" 
d="M18 730h559v-144h-205v-586h-149v586h-205v144z" />
    <glyph glyph-name="U" unicode="U" horiz-adv-x="693" 
d="M209 730v-452q0 -67 38 -104.5t98 -37.5t99.5 37.5t39.5 104.5v452h150v-453q0 -130 -82 -210q-82 -81 -206 -81t-205.5 80.5t-81.5 210.5v453h150z" />
    <glyph glyph-name="V" unicode="V" horiz-adv-x="666" 
d="M166 730l167 -504l167 504h164l-257 -730h-148l-258 730h165z" />
    <glyph glyph-name="W" unicode="W" horiz-adv-x="1021" 
d="M12 730h156l140 -474l137 476h131l138 -476l139 474h157l-214 -730h-153l-132 476l-133 -476h-152z" />
    <glyph glyph-name="X" unicode="X" horiz-adv-x="708" 
d="M256 374l-228 356h175l151 -227l152 227h175l-228 -356l238 -374h-175l-162 243l-161 -243h-175z" />
    <glyph glyph-name="Y" unicode="Y" horiz-adv-x="653" 
d="M177 730l150 -264l149 264h169l-244 -430v-300h-150v300l-243 430h169z" />
    <glyph glyph-name="Z" unicode="Z" horiz-adv-x="641" 
d="M604 0h-566v147l354 437h-344v146h546v-147l-354 -436h364v-147z" />
    <glyph glyph-name="bracketleft" unicode="[" horiz-adv-x="324" 
d="M72 780h238v-112h-114v-666h114v-112h-238v890z" />
    <glyph glyph-name="backslash" unicode="\" horiz-adv-x="544" 
d="M517 -110h-135l-354 891h135z" />
    <glyph glyph-name="bracketright" unicode="]" horiz-adv-x="324" 
d="M253 780v-890h-239v112h114v666h-114v112h239z" />
    <glyph glyph-name="asciicircum" unicode="^" horiz-adv-x="503" 
d="M195 730h112l176 -325h-128l-103 201l-104 -201h-128z" />
    <glyph glyph-name="underscore" unicode="_" horiz-adv-x="525" 
d="M484 0h-442v112h441z" />
    <glyph glyph-name="grave" unicode="`" horiz-adv-x="263" 
d="M222 562h-87l-93 168h125z" />
    <glyph glyph-name="a" unicode="a" horiz-adv-x="662" 
d="M108 476q76 83 184 83q56 0 103 -28t72 -72l9 91h128v-550h-128l-9 92q-25 -44 -72 -72t-103 -28q-108 0 -184 83.5t-76 200.5t76 200zM216 174q42 -43 102 -43q61 0 103 42.5t42 102.5t-42 102.5t-103 42.5q-60 0 -102 -42.5t-42 -102.5t42 -102z" />
    <glyph glyph-name="b" unicode="b" horiz-adv-x="662" 
d="M59 780h141v-316q24 42 70.5 68.5t100.5 26.5q107 0 183.5 -83t76.5 -200t-76.5 -200.5t-183.5 -83.5q-56 0 -103.5 28t-71.5 72l-9 -92h-128v780zM242 174q42 -43 103 -43q60 0 102 42.5t42 102.5t-42 102.5t-102 42.5q-61 0 -103 -42.5t-42 -102.5t42 -102z" />
    <glyph glyph-name="c" unicode="c" horiz-adv-x="576" 
d="M115 475q82 83 199 83q70 0 131 -32.5t101 -87.5l-116 -77q-43 54 -116 54q-58 0 -99 -41t-41 -99q0 -59 41 -100t99 -41q77 0 118 60l117 -78q-39 -57 -101 -91t-134 -34q-117 0 -199.5 83.5t-82.5 200.5t83 200z" />
    <glyph glyph-name="d" unicode="d" horiz-adv-x="662" 
d="M108 476q76 83 184 83q54 0 100 -26.5t71 -68.5v316h141v-780h-128l-9 92q-25 -44 -72 -72t-103 -28q-108 0 -184 83.5t-76 200.5t76 200zM216 174q42 -43 102 -43q61 0 103 42.5t42 102.5t-42 102.5t-103 42.5q-60 0 -102 -42.5t-42 -102.5t42 -102z" />
    <glyph glyph-name="e" unicode="e" horiz-adv-x="625" 
d="M114 475q82 83 199 83q118 0 199.5 -83t81.5 -200q0 -22 -4 -56h-407q11 -43 50.5 -70.5t92.5 -27.5q81 0 127 51l113 -71q-39 -50 -105 -80t-135 -30q-127 0 -210.5 82.5t-83.5 201.5q0 117 82 200zM183 331h265q-6 40 -43 68t-91 28q-53 0 -88.5 -28t-42.5 -68z" />
    <glyph glyph-name="f" unicode="f" horiz-adv-x="397" 
d="M18 550h70v14q0 120 60.5 176.5t153.5 56.5q49 0 92 -15l-36 -125q-35 5 -42 5q-88 0 -88 -98v-14h129v-125h-129v-425l-140 1v424h-70v125z" />
    <glyph glyph-name="g" unicode="g" horiz-adv-x="662" 
d="M32 276q0 117 76 200t184 83q56 0 103 -28t72 -72l9 91h128v-464q0 -155 -83.5 -237t-224.5 -82q-70 0 -134.5 29.5t-103.5 80.5l106 83q53 -59 140 -59q67 0 113 40.5t46 118.5v27q-25 -41 -71 -68t-100 -27q-108 0 -184 83.5t-76 200.5zM216 174q42 -43 102 -43
q61 0 103 42.5t42 102.5t-42 102.5t-103 42.5q-60 0 -102 -42.5t-42 -102.5t42 -102z" />
    <glyph glyph-name="h" unicode="h" horiz-adv-x="616" 
d="M59 780h141v-306q52 85 149 85q100 0 158.5 -69t58.5 -209v-281h-140v281q0 69 -32.5 104.5t-80.5 35.5q-49 0 -81 -35.5t-32 -104.5v-281h-141v780z" />
    <glyph glyph-name="i" unicode="i" horiz-adv-x="259" 
d="M59 550h141v-550h-141v550zM73 732q24 24 57 24q32 0 56 -24t24 -57t-24 -57t-56 -24q-33 0 -57 24t-24 57t24 57z" />
    <glyph glyph-name="j" unicode="j" horiz-adv-x="291" 
d="M-77 -216l36 128q20 -6 39 -6q94 0 94 129v515h140v-515q0 -142 -59 -205t-154 -63q-53 0 -96 17zM106 732q23 24 57 24q32 0 55.5 -24t23.5 -57t-23.5 -57t-55.5 -24q-34 0 -57.5 24t-23.5 57t24 57z" />
    <glyph glyph-name="k" unicode="k" horiz-adv-x="585" 
d="M59 0v780h134v-432l193 202h161l-203 -224l224 -326h-163l-150 220l-62 -61v-159h-134z" />
    <glyph glyph-name="l" unicode="l" horiz-adv-x="258" 
d="M200 0h-141v780h141v-780z" />
    <glyph glyph-name="m" unicode="m" horiz-adv-x="904" 
d="M59 0v550h128l9 -77q21 40 59.5 63t82.5 23q55 0 96 -26t62 -71q21 43 60.5 70t88.5 27q97 0 153 -66t56 -205v-288h-141v288q0 69 -26.5 101t-66.5 32q-39 0 -66.5 -32t-27.5 -101v-288h-140v288q0 69 -26 101t-67 32q-40 0 -66.5 -35.5t-26.5 -104.5v-281h-141z" />
    <glyph glyph-name="n" unicode="n" horiz-adv-x="616" 
d="M59 0v550h128l9 -80q24 40 63.5 64.5t89.5 24.5q100 0 158.5 -69t58.5 -209v-281h-140v281q0 69 -32.5 104.5t-80.5 35.5q-49 0 -81 -35.5t-32 -104.5v-281h-141z" />
    <glyph glyph-name="o" unicode="o" 
d="M115 475q82 83 199 83t200.5 -83.5t83.5 -199.5q0 -117 -83 -200q-84 -84 -201 -84t-199.5 83.5t-82.5 200.5t83 200zM174 275q0 -59 41 -100t99 -41q59 0 100 41t41 100q0 58 -41 99t-100 41q-58 0 -99 -41t-41 -99z" />
    <glyph glyph-name="p" unicode="p" horiz-adv-x="662" 
d="M59 -220v770h128l9 -91q24 43 71.5 71t103.5 28q107 0 183.5 -83.5t76.5 -199.5q0 -117 -76.5 -200.5t-183.5 -83.5q-54 0 -100.5 26.5t-70.5 68.5v-306h-141zM242 172q42 -42 103 -42q60 0 102 42t42 103q0 60 -42 102.5t-102 42.5q-61 0 -103 -42.5t-42 -102.5
q0 -61 42 -103z" />
    <glyph glyph-name="q" unicode="q" horiz-adv-x="669" 
d="M38 275q0 117 76 200t184 83q55 0 102.5 -28t72.5 -71l9 91h128v-770h-140v306q-26 -42 -72 -68.5t-100 -26.5q-108 0 -184 83.5t-76 200.5zM180 275q0 -61 42 -103t102 -42q61 0 103.5 42t42.5 103q0 60 -42.5 102.5t-103.5 42.5q-60 0 -102 -42.5t-42 -102.5z" />
    <glyph glyph-name="r" unicode="r" horiz-adv-x="431" 
d="M59 550h128l10 -79q49 83 163 83q29 0 50 -4l-29 -135q-12 2 -17 2q-70 0 -117 -42.5t-47 -143.5v-231h-141v550z" />
    <glyph glyph-name="s" unicode="s" horiz-adv-x="548" 
d="M132 173q25 -25 69 -40t86 -15q83 0 83 43q0 19 -32.5 31.5t-79 23t-93 27.5t-79 56t-32.5 98q0 74 59 119t155 45q152 0 229 -91l-84 -85q-23 25 -63.5 38t-77.5 13q-36 0 -56.5 -10.5t-20.5 -28.5q0 -17 32.5 -28.5t79.5 -22t93.5 -27.5t79 -56t32.5 -97
q0 -88 -63.5 -133.5t-161.5 -45.5q-68 0 -136.5 23.5t-113.5 70.5z" />
    <glyph glyph-name="t" unicode="t" horiz-adv-x="423" 
d="M95 550l20 180h116v-180h126v-125h-126v-194q0 -106 91 -106q21 0 38 7l35 -125q-38 -17 -94 -17q-93 0 -152 57t-59 183v195h-72v125h77z" />
    <glyph glyph-name="u" unicode="u" horiz-adv-x="616" 
d="M50 550h141v-280q0 -69 32 -104.5t81 -35.5q48 0 80.5 35.5t32.5 104.5v280h140v-550h-128l-8 81q-24 -40 -64 -65t-90 -25q-100 0 -158.5 69.5t-58.5 209.5v280z" />
    <glyph glyph-name="v" unicode="v" horiz-adv-x="561" 
d="M159 550l122 -335l121 335h151l-204 -550h-137l-204 550h151z" />
    <glyph glyph-name="w" unicode="w" horiz-adv-x="898" 
d="M13 550h150l108 -333l107 333h142l108 -333l108 333h150l-189 -550h-137l-111 326l-110 -326h-138z" />
    <glyph glyph-name="x" unicode="x" horiz-adv-x="618" 
d="M18 550h167l124 -167l125 167h166l-194 -275l194 -275h-166l-125 168l-124 -168h-167l194 275z" />
    <glyph glyph-name="y" unicode="y" horiz-adv-x="567" 
d="M8 -210l39 124q33 -11 62 -11q80 0 118 115l-212 532h151l124 -340l120 340h149l-193 -550q-43 -123 -103.5 -176.5t-147.5 -53.5q-58 0 -107 20z" />
    <glyph glyph-name="z" unicode="z" horiz-adv-x="564" 
d="M44 425v125h462v-106l-256 -313h270v-131h-476v100l269 325h-269z" />
    <glyph glyph-name="braceleft" unicode="{" horiz-adv-x="357" 
d="M108 410q24 19 24 61v122q0 89 56 138t149 49v-112q-42 0 -61 -16.5t-19 -59.5v-121q0 -82 -57 -136q57 -52 57 -134v-123q0 -43 19 -59.5t61 -16.5v-112q-93 0 -149 49t-56 138v123q0 41 -24.5 60t-59.5 19v112q35 0 60 19z" />
    <glyph glyph-name="bar" unicode="|" horiz-adv-x="255" 
d="M184 -220h-112v950h112v-950z" />
    <glyph glyph-name="braceright" unicode="}" horiz-adv-x="357" 
d="M33 2q42 0 61.5 16.5t19.5 59.5v123q0 84 57 134q-57 52 -57 136v121q0 43 -19 59.5t-62 16.5v112q93 0 149 -49t56 -138v-122q0 -42 24.5 -61t59.5 -19v-112q-35 0 -59.5 -19t-24.5 -60v-123q0 -89 -56 -138t-149 -49v112z" />
    <glyph glyph-name="asciitilde" unicode="~" horiz-adv-x="538" 
d="M75 449q36 32 82 34h9q28 0 58 -10.5t51 -25.5t44 -24t40 -9q7 0 13 1q38 6 52 58l94 -39q-34 -115 -127 -129q-11 -1 -21 -1q-32 0 -67 16t-67 34.5t-58 18.5h-7q-43 -3 -57 -58l-94 39q18 62 55 95z" />
    <glyph glyph-name="exclamdown" unicode="&#xa1;" horiz-adv-x="266" 
d="M76 367h115l13 -587h-141zM78 545q23 23 56 23q32 0 55 -23t23 -55q0 -33 -23 -56t-55 -23q-33 0 -56 23t-23 56q0 32 23 55z" />
    <glyph glyph-name="cent" unicode="&#xa2;" horiz-adv-x="580" 
d="M102 555q70 80 174 94v81h82v-81q122 -17 193 -120l-93 -62q-38 46 -100 58v-313q60 9 99 61l95 -64q-70 -105 -194 -122v-87h-82v86q-104 14 -174 94t-70 188q0 107 70 187zM155 368q0 -56 34.5 -99t86.5 -55v307q-52 -12 -86.5 -54.5t-34.5 -98.5z" />
    <glyph glyph-name="sterling" unicode="&#xa3;" horiz-adv-x="628" 
d="M42 0v131h82v173h-65v100h65v48q0 138 67.5 213.5t170.5 75.5q64 0 118.5 -33t86.5 -89l-114 -74q-31 56 -88 56q-44 0 -72 -37t-28 -112v-48h179v-100h-179v-173h322v-131h-545z" />
    <glyph glyph-name="currency" unicode="&#xa4;" horiz-adv-x="602" 
d="M121 602l75 -74q47 30 105 30t105 -31l74 75l74 -73l-74 -74q31 -51 31 -106q0 -59 -31 -106l74 -73l-73 -74l-74 74q-49 -31 -106 -31t-106 31l-73 -74l-74 74l74 74q-30 47 -30 105t31 105l-75 75zM223 271q31 -32 77 -32t78 31.5t32 75.5v3q0 45 -32 77t-78 32
t-77 -32t-31 -77q0 -46 31 -78z" />
    <glyph glyph-name="yen" unicode="&#xa5;" horiz-adv-x="666" 
d="M162 730l171 -275l171 275h155l-207 -313h145l1 -101h-201v-75h200l1 -100h-201v-141h-129v141h-197v100h197v75h-197v101h143l-206 313h154z" />
    <glyph glyph-name="brokenbar" unicode="&#xa6;" horiz-adv-x="241" 
d="M177 780v-382h-113v382h113zM64 -220v382h113v-382h-113z" />
    <glyph glyph-name="section" unicode="&#xa7;" horiz-adv-x="480" 
d="M40 385q0 71 65 105q-53 43 -53 109q0 65 47 107.5t121 42.5q57 0 111 -24.5t87 -72.5l-84 -59q-15 20 -42 34.5t-59 14.5q-31 0 -49 -13.5t-18 -34.5q0 -24 28.5 -40.5t69 -29.5t80.5 -30t68.5 -52t28.5 -85q0 -72 -68 -105q56 -40 56 -105q0 -78 -53.5 -120t-131.5 -42
q-127 0 -198 98l89 64q39 -51 107 -51q32 0 51 14.5t19 36.5t-20 38.5t-50.5 26t-65.5 23.5t-65.5 30t-50.5 47t-20 73zM153 385q0 -25 23 -40t69 -31q12 -3 23 -3q17 0 36.5 10.5t19.5 35.5q0 26 -24 40.5t-72 29.5q-10 2 -19 2q-17 0 -36.5 -9.5t-19.5 -34.5z" />
    <glyph glyph-name="dieresis" unicode="&#xa8;" horiz-adv-x="371" 
d="M39 689q19 19 47 19q27 0 46 -19t19 -46q0 -28 -19 -47t-46 -19q-28 0 -47 19t-19 47q0 27 19 46zM240 689q19 19 46 19t46.5 -19t19.5 -46q0 -28 -19 -47q-20 -19 -47 -19t-46 19t-19 47q0 27 19 46z" />
    <glyph glyph-name="copyright" unicode="&#xa9;" horiz-adv-x="816" 
d="M142 631q110 110 267 110q156 0 266 -110.5t110 -265.5q0 -157 -110 -267.5t-266 -110.5q-157 0 -267 110.5t-110 267.5q0 155 110 266zM93 365q0 -130 93 -223.5t223 -93.5q128 0 221 93.5t93 223.5q0 129 -93 222t-221 93q-130 0 -223 -93t-93 -222zM204 364
q0 85 60.5 145t145.5 60q50 0 93 -22t70 -60l-67 -52q-37 47 -96 47q-49 0 -83 -34.5t-34 -83.5q0 -48 34 -82.5t83 -34.5q62 0 97 50l70 -53q-63 -84 -167 -84q-85 0 -145.5 60t-60.5 144z" />
    <glyph glyph-name="ordfeminine" unicode="&#xaa;" horiz-adv-x="353" 
d="M63 565q34 31 90 31h75q-1 30 -18.5 47.5t-47.5 17.5q-32 0 -67 -25l-59 44q55 58 138 58q60 0 101 -43t41 -124v-192h-74l-6 37q-29 -44 -87 -44q-49 0 -85 32.5t-36 79.5q0 49 35 81zM129 455q15 -13 37 -13q26 0 44 14.5t18 35.5v43h-59q-24 0 -39.5 -12.5
t-15.5 -33.5t15 -34z" />
    <glyph glyph-name="guillemotleft" unicode="&#xab;" horiz-adv-x="455" 
d="M211 365l102 177h101l-101 -177l101 -177h-101zM42 365l101 177h101l-102 -177l102 -177h-101z" />
    <glyph glyph-name="logicalnot" unicode="&#xac;" horiz-adv-x="529" 
d="M488 173h-113v136h-333v112h445z" />
    <glyph glyph-name="registered" unicode="&#xae;" horiz-adv-x="816" 
d="M142 631q110 110 267 110q156 0 266 -110.5t110 -265.5q0 -157 -110 -267.5t-266 -110.5q-157 0 -267 110.5t-110 267.5q0 155 110 266zM186 142q93 -94 223 -94q128 0 221 93.5t93 223.5q0 129 -93 222t-221 93q-130 0 -223 -93t-93 -222q0 -130 93 -223zM278 555h135
q65 0 105 -37t40 -94q0 -39 -21.5 -69t-57.5 -45l87 -135h-91l-71 118h-50v-118h-76v380zM354 369h64q30 0 46 15.5t16 37.5q0 24 -18 39t-44 15h-64v-107z" />
    <glyph glyph-name="macron" unicode="&#xaf;" horiz-adv-x="470" 
d="M423 596h-375v113h375v-113z" />
    <glyph glyph-name="degree" unicode="&#xb0;" horiz-adv-x="288" 
d="M56 754q36 36 88 36t88 -36t36 -88q0 -51 -36 -87t-88 -36t-88 36t-36 87q0 52 36 88zM96 666q0 -21 13.5 -35t34.5 -14q22 0 36 14.5t14 34.5q0 21 -14 35.5t-36 14.5q-21 0 -34.5 -14.5t-13.5 -35.5z" />
    <glyph glyph-name="plusminus" unicode="&#xb1;" horiz-adv-x="528" 
d="M42 401v112h165v166h113v-166h167v-112h-167v-167h-113v167h-165zM42 176h445v-113h-445v113z" />
    <glyph glyph-name="twosuperior" unicode="&#xb2;" horiz-adv-x="354" 
d="M21 406v57l169 163q41 39 41 78q0 27 -18 47.5t-49 20.5q-24 0 -43 -15.5t-26 -34.5l-71 24q13 47 52.5 78t89.5 31q62 0 105 -42t43 -109q0 -74 -64 -131l-92 -86h165v-81h-302z" />
    <glyph glyph-name="threesuperior" unicode="&#xb3;" horiz-adv-x="359" 
d="M96 524q9 -17 31 -28t46 -11q31 0 50.5 16t19.5 42t-21.5 44t-53.5 18h-25v79h25q23 0 41 14.5t18 33.5q0 22 -17.5 34t-39.5 12q-37 0 -55 -29l-74 31q16 34 53 56t79 22q59 0 99 -31.5t40 -90.5q0 -55 -49 -89q66 -36 66 -108q0 -60 -46 -98.5t-106 -38.5
q-54 0 -96 25.5t-60 67.5z" />
    <glyph glyph-name="acute" unicode="&#xb4;" horiz-adv-x="220" 
d="M107 562h-87l54 168h126z" />
    <glyph glyph-name="uni00B5" unicode="&#xb5;" horiz-adv-x="620" 
d="M57 550h140v-282q0 -70 32 -106t82 -36q49 0 82 36t33 106v282h140v-550h-140v57q-56 -69 -146 -69q-56 0 -83 47v-255h-140v770z" />
    <glyph glyph-name="paragraph" unicode="&#xb6;" horiz-adv-x="591" 
d="M100 706q68 74 164 74h268v-911h-62v849h-90v-849h-63v403h-53q-96 0 -164 74.5t-68 179.5t68 180z" />
    <glyph glyph-name="periodcentered" unicode="&#xb7;" horiz-adv-x="223" 
d="M53 425q24 25 59 25q34 0 58.5 -25t24.5 -60t-24.5 -59.5t-58.5 -24.5q-35 0 -59.5 24.5t-24.5 59.5t25 60z" />
    <glyph glyph-name="cedilla" unicode="&#xb8;" horiz-adv-x="255" 
d="M48 -126q23 -14 58 -14q42 0 42 25q0 27 -47 27h-35l24 88h88l-14 -44q34 -7 52.5 -27.5t18.5 -51.5q0 -40 -34 -68.5t-83 -28.5q-63 0 -98 21z" />
    <glyph glyph-name="onesuperior" unicode="&#xb9;" horiz-adv-x="189" 
d="M142 407h-83v362h-45v81h128v-443z" />
    <glyph glyph-name="ordmasculine" unicode="&#xba;" horiz-adv-x="427" 
d="M83 685q54 54 131 54q76 0 131 -54.5t55 -131.5t-55 -131.5t-131 -54.5q-77 0 -131.5 54.5t-54.5 131.5t55 132zM118 553q0 -39 27.5 -67.5t67.5 -28.5q41 0 69 28.5t28 67.5t-28 67.5t-69 28.5q-40 0 -67.5 -28.5t-27.5 -67.5z" />
    <glyph glyph-name="guillemotright" unicode="&#xbb;" horiz-adv-x="455" 
d="M313 365l-102 177h102l101 -177l-101 -177h-102zM42 542h100l102 -177l-102 -177h-100l101 177z" />
    <glyph glyph-name="onequarter" unicode="&#xbc;" horiz-adv-x="686" 
d="M340 101v83l188 260h105v-260h30v-83h-30v-101h-83v101h-210zM56 0l404 781h98l-404 -781h-98zM24 699v81h128v-443h-83v362h-45zM550 184v153l-115 -153h115z" />
    <glyph glyph-name="onehalf" unicode="&#xbd;" horiz-adv-x="762" 
d="M463 781h99l-404 -781h-99zM591 220q41 39 41 78q0 27 -17.5 47.5t-48.5 20.5q-25 0 -44 -15.5t-26 -34.5l-71 24q13 47 52.5 78t89.5 31q63 0 105.5 -41.5t42.5 -109.5q0 -74 -64 -131l-92 -86h166v-81h-303v57zM24 699v81h131v-443h-83v362h-48z" />
    <glyph glyph-name="threequarters" unicode="&#xbe;" horiz-adv-x="836" 
d="M490 184l188 260h104v-260h30v-83h-30v-101h-83v101h-209v83zM610 781h98l-404 -781h-98zM104 445q9 -16 31.5 -27.5t45.5 -11.5q31 0 51 16t20 43q0 26 -22 44t-55 18h-24v79h26q22 0 40 14t18 34q0 22 -17 33.5t-40 11.5q-38 0 -55 -28l-73 30q16 35 52.5 56.5
t79.5 21.5q59 0 99 -31.5t40 -89.5q0 -55 -49 -90q64 -35 64 -108q0 -59 -45.5 -98t-105.5 -39q-54 0 -96 25.5t-60 67.5zM584 184h115v153z" />
    <glyph glyph-name="questiondown" unicode="&#xbf;" horiz-adv-x="556" 
d="M70 124q28 48 93 103q60 50 60 103v27h141v-42q0 -52 -23 -90.5t-68 -75.5q-53 -43 -72 -72t-19 -60q0 -38 28 -62.5t69 -24.5q40 0 68 22t42 57l126 -49q-22 -75 -87 -123.5t-148 -48.5q-102 0 -170 60.5t-68 156.5q0 70 28 119zM238 527q23 23 55 23t55 -23t23 -56
q0 -32 -23 -55t-55 -23t-55 23t-23 55q0 33 23 56z" />
    <glyph glyph-name="Agrave" unicode="&#xc0;" horiz-adv-x="673" 
d="M5 0l251 730h161l251 -730h-164l-48 149h-237l-49 -149h-165zM414 288l-77 238l-77 -238h154zM326 974l55 -168h-86l-94 168h125z" />
    <glyph glyph-name="Aacute" unicode="&#xc1;" horiz-adv-x="673" 
d="M256 730h161l251 -730h-164l-48 149h-237l-49 -149h-165zM414 288l-77 238l-77 -238h154zM299 806l55 168h125l-94 -168h-86z" />
    <glyph glyph-name="Acircumflex" unicode="&#xc2;" horiz-adv-x="673" 
d="M5 0l251 730h161l251 -730h-164l-48 149h-237l-49 -149h-165zM174 814l104 133h114l104 -133h-109l-52 64l-52 -64h-109zM414 288l-77 238l-77 -238h154z" />
    <glyph glyph-name="Atilde" unicode="&#xc3;" horiz-adv-x="673" 
d="M5 0l251 730h161l251 -730h-164l-48 149h-237l-49 -149h-165zM195 925q25 36 71 36h4q28 0 51.5 -15t38 -30.5t25.5 -15.5h1q21 2 21 48h87q0 -58 -23.5 -92.5t-70.5 -35.5h-4q-27 0 -50.5 15.5t-39 31t-26.5 15.5h-1q-21 -2 -21 -49h-88q0 55 25 92zM414 288l-77 238
l-77 -238h154z" />
    <glyph glyph-name="Adieresis" unicode="&#xc4;" horiz-adv-x="673" 
d="M5 0l251 730h161l251 -730h-164l-48 149h-237l-49 -149h-165zM414 288l-77 238l-77 -238h154zM193 937q19 19 46 19t46.5 -19t19.5 -47q0 -27 -19.5 -46t-46.5 -19q-26 0 -45.5 19t-19.5 46q0 28 19 47zM375 890q0 28 19 47t46 19t46 -19t19 -47q0 -27 -19 -46t-46 -19
t-46 19t-19 46z" />
    <glyph glyph-name="Aring" unicode="&#xc5;" horiz-adv-x="673" 
d="M256 730h161l251 -730h-164l-48 149h-237l-49 -149h-165zM225 890q0 51 36 83t85 32t85 -32t36 -83q0 -50 -36 -82t-85 -32t-85 32t-36 82zM414 288l-77 238l-77 -238h154zM319 862q11 -12 27 -12t28 12t12 28q0 17 -11.5 29t-28.5 12q-16 0 -27.5 -12t-11.5 -29t12 -28z
" />
    <glyph glyph-name="AE" unicode="&#xc6;" horiz-adv-x="949" 
d="M257 730h647v-137h-313v-151h293v-136h-293v-162h321v-144h-469v196h-210l-62 -196h-166zM274 335h169v258h-86z" />
    <glyph glyph-name="Ccedilla" unicode="&#xc7;" horiz-adv-x="756" 
d="M153 632q110 111 267 111q89 0 166.5 -38.5t130.5 -105.5l-124 -91q-69 82 -173 82q-92 0 -158.5 -66t-66.5 -159q0 -94 66 -160t159 -66q106 0 172 82l133 -80q-49 -68 -122 -108.5t-157 -46.5l-9 -30q70 -14 70 -79q0 -40 -34 -68.5t-83 -28.5q-64 0 -97 21l27 73
q23 -14 58 -14q42 0 42 25q0 27 -47 27h-35l21 78q-136 22 -226.5 128t-90.5 247q0 156 111 267z" />
    <glyph glyph-name="Egrave" unicode="&#xc8;" horiz-adv-x="581" 
d="M69 0v730h461v-137h-312v-152h292v-135h-292v-162h322v-144h-471zM175 974h126l54 -168h-86z" />
    <glyph glyph-name="Eacute" unicode="&#xc9;" horiz-adv-x="581" 
d="M69 730h461v-137h-312v-152h292v-135h-292v-162h322v-144h-471v730zM255 806l54 168h126l-94 -168h-86z" />
    <glyph glyph-name="Ecircumflex" unicode="&#xca;" horiz-adv-x="581" 
d="M69 730h461v-137h-312v-152h292v-135h-292v-162h322v-144h-471v730zM148 824l104 133h114l105 -133h-109l-53 64l-52 -64h-109z" />
    <glyph glyph-name="Edieresis" unicode="&#xcb;" horiz-adv-x="581" 
d="M69 730h461v-137h-312v-152h292v-135h-292v-162h322v-144h-471v730zM148 937q19 19 47 19q27 0 46 -19t19 -47q0 -27 -19 -46t-46 -19q-28 0 -47 19t-19 46q0 28 19 47zM330 890q0 28 19 47t46 19t46.5 -19t19.5 -47q0 -27 -19 -46q-20 -19 -47 -19t-46 19t-19 46z" />
    <glyph glyph-name="Igrave" unicode="&#xcc;" horiz-adv-x="287" 
d="M219 806h-87l-93 168h126zM219 0h-150v730h150v-730z" />
    <glyph glyph-name="Iacute" unicode="&#xcd;" horiz-adv-x="287" 
d="M180 806h-87l55 168h125zM219 0h-150v730h150v-730z" />
    <glyph glyph-name="Icircumflex" unicode="&#xce;" horiz-adv-x="287" 
d="M69 730h150v-730h-150v730zM87 957h114l104 -133h-109l-52 64l-52 -64h-110z" />
    <glyph glyph-name="Idieresis" unicode="&#xcf;" horiz-adv-x="287" 
d="M69 730h150v-730h-150v730zM190 937q19 19 47 19q27 0 46 -19t19 -47q0 -27 -19 -46t-46 -19q-28 0 -47 19t-19 46q0 28 19 47zM-15 890q0 28 19.5 47t46.5 19t46 -19t19 -47q0 -27 -19 -46t-46 -19t-46.5 19t-19.5 46z" />
    <glyph glyph-name="Eth" unicode="&#xd0;" horiz-adv-x="738" 
d="M311 0h-236v309h-50v112h50v309h236q169 0 277.5 -104.5t108.5 -260.5q0 -157 -107.5 -261t-278.5 -104zM226 309v-162h85q105 0 167 62.5t62 156.5q0 92 -63.5 154.5t-165.5 62.5h-85v-162h181v-112h-181z" />
    <glyph glyph-name="Ntilde" unicode="&#xd1;" horiz-adv-x="763" 
d="M441 820q-31 -1 -55 15t-39.5 32t-26.5 15q-22 -2 -22 -49h-87q0 55 24.5 91.5t70.5 36.5q24 1 44.5 -8.5t32 -21.5t23.5 -22t21 -9q20 2 20 48h87q0 -58 -23.5 -92.5t-69.5 -35.5zM219 0h-150v730h150l325 -464v464h150v-730h-150l-325 465v-465z" />
    <glyph glyph-name="Ograve" unicode="&#xd2;" horiz-adv-x="839" 
d="M459 806h-87l-93 168h125zM420 -15q-157 0 -267.5 111.5t-110.5 268.5q0 156 110.5 267t267.5 111t267.5 -111t110.5 -267q0 -157 -110.5 -268.5t-267.5 -111.5zM420 139q93 0 158.5 66t65.5 160q0 93 -66 159t-158 66t-158.5 -66t-66.5 -159q0 -94 66 -160t159 -66z" />
    <glyph glyph-name="Oacute" unicode="&#xd3;" horiz-adv-x="839" 
d="M468 806h-86l55 168h125zM420 -15q-157 0 -267.5 111.5t-110.5 268.5q0 156 110.5 267t267.5 111t267.5 -111t110.5 -267q0 -157 -110.5 -268.5t-267.5 -111.5zM420 139q93 0 158.5 66t65.5 160q0 93 -66 159t-158 66t-158.5 -66t-66.5 -159q0 -94 66 -160t159 -66z" />
    <glyph glyph-name="Ocircumflex" unicode="&#xd4;" horiz-adv-x="839" 
d="M370 824h-109l104 133h114l104 -133h-109l-52 64zM420 -15q-157 0 -267.5 111.5t-110.5 268.5q0 156 110.5 267t267.5 111t267.5 -111t110.5 -267q0 -157 -110.5 -268.5t-267.5 -111.5zM420 139q93 0 158.5 66t65.5 160q0 93 -66 159t-158 66t-158.5 -66t-66.5 -159
q0 -94 66 -160t159 -66z" />
    <glyph glyph-name="Otilde" unicode="&#xd5;" horiz-adv-x="839" 
d="M489 820q-31 -1 -55 15t-39.5 32t-26.5 15q-23 -2 -23 -49h-87q0 54 24.5 91t70.5 37q31 1 55 -14.5t39.5 -31.5t26.5 -15q20 2 20 48h88q0 -58 -23.5 -92.5t-69.5 -35.5zM420 -15q-157 0 -267.5 111.5t-110.5 268.5q0 156 110.5 267t267.5 111t267.5 -111t110.5 -267
q0 -157 -110.5 -268.5t-267.5 -111.5zM420 139q93 0 158.5 66t65.5 160q0 93 -66 159t-158 66t-158.5 -66t-66.5 -159q0 -94 66 -160t159 -66z" />
    <glyph glyph-name="Odieresis" unicode="&#xd6;" horiz-adv-x="839" 
d="M307 825q-26 0 -45.5 19t-19.5 46q0 28 19 47t46 19t46.5 -19t19.5 -47q0 -27 -19.5 -46t-46.5 -19zM508 825q-27 0 -46 19t-19 46q0 28 19 47t46 19t46 -19t19 -47q0 -27 -19 -46t-46 -19zM420 -15q-157 0 -267.5 111.5t-110.5 268.5q0 156 110.5 267t267.5 111
t267.5 -111t110.5 -267q0 -157 -110.5 -268.5t-267.5 -111.5zM420 139q93 0 158.5 66t65.5 160q0 93 -66 159t-158 66t-158.5 -66t-66.5 -159q0 -94 66 -160t159 -66z" />
    <glyph glyph-name="multiply" unicode="&#xd7;" horiz-adv-x="517" 
d="M488 238l-94 -95l-127 127l-127 -126l-95 94l127 127l-127 127l95 95l127 -127l127 127l94 -95l-127 -127z" />
    <glyph glyph-name="Oslash" unicode="&#xd8;" horiz-adv-x="853" 
d="M427 -15q-124 0 -224 76l-73 -72l-80 79l73 73q-75 101 -75 224q0 156 111 267.5t268 111.5q124 0 224 -76l73 73l79 -79l-73 -73q75 -99 75 -224q0 -157 -110.5 -268.5t-267.5 -111.5zM238 255l299 299q-49 36 -110 36q-93 0 -159 -66t-66 -158q0 -62 36 -111zM427 139
q93 0 159 66.5t66 160.5q0 60 -36 109l-299 -299q48 -37 110 -37z" />
    <glyph glyph-name="Ugrave" unicode="&#xd9;" horiz-adv-x="693" 
d="M400 806h-86l-94 168h126zM346 -14q-124 0 -205.5 80.5t-81.5 210.5v453h150v-452q0 -67 38 -104.5t98 -37.5t99.5 37.5t39.5 104.5v452h150v-453q0 -130 -82 -210.5t-206 -80.5z" />
    <glyph glyph-name="Uacute" unicode="&#xda;" horiz-adv-x="693" 
d="M380 806h-86l54 168h126zM346 -14q-124 0 -205.5 80.5t-81.5 210.5v453h150v-452q0 -67 38 -104.5t98 -37.5t99.5 37.5t39.5 104.5v452h150v-453q0 -130 -82 -210.5t-206 -80.5z" />
    <glyph glyph-name="Ucircumflex" unicode="&#xdb;" horiz-adv-x="693" 
d="M295 824h-109l104 133h114l104 -133h-109l-52 64zM346 -14q-124 0 -205.5 80.5t-81.5 210.5v453h150v-452q0 -67 38 -104.5t98 -37.5t99.5 37.5t39.5 104.5v452h150v-453q0 -130 -82 -210.5t-206 -80.5z" />
    <glyph glyph-name="Udieresis" unicode="&#xdc;" horiz-adv-x="693" 
d="M255 825q-27 0 -46.5 19t-19.5 46q0 28 19.5 47t46.5 19t46 -19t19 -47q0 -27 -19 -46t-46 -19zM456 825q-28 0 -47 19t-19 46q0 28 19 47t47 19q27 0 46 -19t19 -47q0 -27 -19 -46t-46 -19zM346 -14q-124 0 -205.5 80.5t-81.5 210.5v453h150v-452q0 -67 38 -104.5
t98 -37.5t99.5 37.5t39.5 104.5v452h150v-453q0 -130 -82 -210.5t-206 -80.5z" />
    <glyph glyph-name="Yacute" unicode="&#xdd;" horiz-adv-x="653" 
d="M365 806h-86l54 168h126zM401 0h-150v300l-243 430h169l150 -264l149 264h169l-244 -430v-300z" />
    <glyph glyph-name="Thorn" unicode="&#xde;" horiz-adv-x="643" 
d="M219 0h-150v730h150v-126h131q116 0 187 -68.5t71 -169.5q0 -102 -71 -171t-187 -69h-131v-126zM219 457v-184h127q50 0 79 26t29 67q0 39 -29 65t-79 26h-127z" />
    <glyph glyph-name="germandbls" unicode="&#xdf;" horiz-adv-x="636" 
d="M385 -10q-88 0 -131 25v125q50 -20 102 -20q45 0 77.5 26.5t32.5 74.5q0 32 -16 55t-39 36.5t-46.5 26.5t-39.5 31.5t-16 43.5q0 24 12.5 45t28 35t28 37t12.5 50q0 37 -25 62.5t-65 25.5q-35 0 -62.5 -25t-27.5 -79v-565h-135v588q0 93 64.5 147.5t160.5 54.5
q97 0 164 -60.5t67 -147.5q0 -34 -13 -63t-28.5 -44.5t-28.5 -29t-13 -21.5q0 -9 16 -20t39 -26.5t46.5 -36.5t39.5 -57.5t16 -82.5q0 -91 -61.5 -151t-158.5 -60z" />
    <glyph glyph-name="agrave" unicode="&#xe0;" horiz-adv-x="662" 
d="M384 636h-86l-94 168h126zM292 -8q-108 0 -184 83.5t-76 200.5t76 200t184 83q56 0 103 -28t72 -72l9 91h128v-550h-128l-9 92q-25 -44 -72 -72t-103 -28zM318 131q61 0 103 42.5t42 102.5t-42 102.5t-103 42.5q-60 0 -102 -42.5t-42 -102.5t42 -102.5t102 -42.5z" />
    <glyph glyph-name="aacute" unicode="&#xe1;" horiz-adv-x="662" 
d="M349 636h-87l54 168h126zM292 -8q-108 0 -184 83.5t-76 200.5t76 200t184 83q56 0 103 -28t72 -72l9 91h128v-550h-128l-9 92q-25 -44 -72 -72t-103 -28zM318 131q61 0 103 42.5t42 102.5t-42 102.5t-103 42.5q-60 0 -102 -42.5t-42 -102.5t42 -102.5t102 -42.5z" />
    <glyph glyph-name="acircumflex" unicode="&#xe2;" horiz-adv-x="662" 
d="M281 654h-109l104 133h114l104 -133h-109l-52 64zM292 -8q-108 0 -184 83.5t-76 200.5t76 200t184 83q56 0 103 -28t72 -72l9 91h128v-550h-128l-9 92q-25 -44 -72 -72t-103 -28zM318 131q61 0 103 42.5t42 102.5t-42 102.5t-103 42.5q-60 0 -102 -42.5t-42 -102.5
t42 -102.5t102 -42.5z" />
    <glyph glyph-name="atilde" unicode="&#xe3;" horiz-adv-x="662" 
d="M403 650q-31 -1 -55 15t-39.5 32t-26.5 15q-23 -2 -23 -49h-87q0 54 24.5 91t70.5 37q31 1 55 -14.5t39.5 -31.5t26.5 -15q20 2 20 48h88q0 -58 -23.5 -92.5t-69.5 -35.5zM292 -8q-108 0 -184 83.5t-76 200.5t76 200t184 83q56 0 103 -28t72 -72l9 91h128v-550h-128
l-9 92q-25 -44 -72 -72t-103 -28zM318 131q61 0 103 42.5t42 102.5t-42 102.5t-103 42.5q-60 0 -102 -42.5t-42 -102.5t42 -102.5t102 -42.5z" />
    <glyph glyph-name="adieresis" unicode="&#xe4;" horiz-adv-x="662" 
d="M232 655q-27 0 -46 19t-19 46q0 28 19 47t46 19t46.5 -19t19.5 -47q0 -27 -19.5 -46t-46.5 -19zM433 655q-27 0 -46 19t-19 46q0 28 19 47t46 19t46 -19t19 -47q0 -27 -19 -46t-46 -19zM292 -8q-108 0 -184 83.5t-76 200.5t76 200t184 83q56 0 103 -28t72 -72l9 91h128
v-550h-128l-9 92q-25 -44 -72 -72t-103 -28zM318 131q61 0 103 42.5t42 102.5t-42 102.5t-103 42.5q-60 0 -102 -42.5t-42 -102.5t42 -102.5t102 -42.5z" />
    <glyph glyph-name="aring" unicode="&#xe5;" horiz-adv-x="662" 
d="M318 606q-49 0 -85 32t-36 82q0 51 36 83t85 32t85 -32t36 -83q0 -50 -36 -82t-85 -32zM318 680q16 0 27.5 11.5t11.5 28.5t-11.5 29t-27.5 12t-27.5 -12t-11.5 -29t11.5 -28.5t27.5 -11.5zM292 -8q-108 0 -184 83.5t-76 200.5t76 200t184 83q56 0 103 -28t72 -72l9 91
h128v-550h-128l-9 92q-25 -44 -72 -72t-103 -28zM318 131q61 0 103 42.5t42 102.5t-42 102.5t-103 42.5q-60 0 -102 -42.5t-42 -102.5t42 -102.5t102 -42.5z" />
    <glyph glyph-name="ae" unicode="&#xe6;" horiz-adv-x="968" 
d="M256 -10q-101 0 -159.5 48.5t-58.5 124.5t55.5 126t155.5 50h141q-1 44 -33 72t-87 28q-77 0 -130 -43l-83 72q90 90 233 90q62 0 113.5 -23.5t80.5 -68.5q32 43 81.5 67.5t105.5 24.5q105 0 180 -76t75 -186q0 -42 -5 -72h-375q3 -51 44 -81.5t92 -30.5q84 0 128 49
l98 -62q-38 -51 -100 -80t-127 -29q-68 0 -123.5 29.5t-88.5 80.5q-32 -52 -88 -81t-125 -29zM547 339h242q-6 38 -39 63.5t-81 25.5t-81 -26.5t-41 -62.5zM270 120q56 0 88 27.5t32 60.5v16h-117q-42 0 -65 -14.5t-23 -38.5t22.5 -37.5t62.5 -13.5z" />
    <glyph glyph-name="ccedilla" unicode="&#xe7;" horiz-adv-x="576" 
d="M293 -220q-63 0 -98 21l29 73q21 -14 58 -14q42 0 42 25q0 27 -47 27h-36l23 85q-100 17 -166 95.5t-66 182.5q0 117 82.5 200t199.5 83q70 0 131 -32.5t101 -87.5l-116 -77q-43 54 -116 54q-58 0 -99 -41t-41 -99q0 -59 41 -100t99 -41q77 0 118 60l117 -78
q-73 -105 -197 -122l-13 -38q71 -14 71 -79q0 -40 -34 -68.5t-83 -28.5z" />
    <glyph glyph-name="egrave" unicode="&#xe8;" horiz-adv-x="625" 
d="M357 636h-86l-94 168h125zM326 -9q-127 0 -210.5 82.5t-83.5 201.5q0 117 82 200t199 83q118 0 199.5 -83t81.5 -200q0 -22 -4 -56h-407q11 -43 50.5 -70.5t92.5 -27.5q81 0 127 51l113 -71q-39 -50 -105 -80t-135 -30zM183 331h265q-6 40 -43 68t-91 28q-53 0 -88.5 -28
t-42.5 -68z" />
    <glyph glyph-name="eacute" unicode="&#xe9;" horiz-adv-x="625" 
d="M345 636h-86l55 168h125zM326 -9q-127 0 -210.5 82.5t-83.5 201.5q0 117 82 200t199 83q118 0 199.5 -83t81.5 -200q0 -22 -4 -56h-407q11 -43 50.5 -70.5t92.5 -27.5q81 0 127 51l113 -71q-39 -50 -105 -80t-135 -30zM183 331h265q-6 40 -43 68t-91 28q-53 0 -88.5 -28
t-42.5 -68z" />
    <glyph glyph-name="ecircumflex" unicode="&#xea;" horiz-adv-x="625" 
d="M263 654h-109l104 133h114l104 -133h-109l-52 64zM326 -9q-127 0 -210.5 82.5t-83.5 201.5q0 117 82 200t199 83q118 0 199.5 -83t81.5 -200q0 -22 -4 -56h-407q11 -43 50.5 -70.5t92.5 -27.5q81 0 127 51l113 -71q-39 -50 -105 -80t-135 -30zM183 331h265q-6 40 -43 68
t-91 28q-53 0 -88.5 -28t-42.5 -68z" />
    <glyph glyph-name="edieresis" unicode="&#xeb;" horiz-adv-x="625" 
d="M212 655q-27 0 -46 19t-19 46q0 28 19 47t46 19t46 -19t19 -47q0 -27 -19 -46t-46 -19zM413 655q-27 0 -46.5 19t-19.5 46q0 28 19.5 47t46.5 19t46 -19t19 -47q0 -27 -19.5 -46t-45.5 -19zM326 -9q-127 0 -210.5 82.5t-83.5 201.5q0 117 82 200t199 83q118 0 199.5 -83
t81.5 -200q0 -22 -4 -56h-407q11 -43 50.5 -70.5t92.5 -27.5q81 0 127 51l113 -71q-39 -50 -105 -80t-135 -30zM183 331h265q-6 40 -43 68t-91 28q-53 0 -88.5 -28t-42.5 -68z" />
    <glyph glyph-name="igrave" unicode="&#xec;" horiz-adv-x="258" 
d="M193 636h-86l-94 168h126zM200 0h-141v550h141v-550z" />
    <glyph glyph-name="iacute" unicode="&#xed;" horiz-adv-x="258" 
d="M170 636h-87l54 168h126zM200 0h-141v551l141 -1v-550z" />
    <glyph glyph-name="icircumflex" unicode="&#xee;" horiz-adv-x="258" 
d="M77 654h-109l104 133h114l104 -133h-109l-52 64zM200 0h-141v550h141v-550z" />
    <glyph glyph-name="idieresis" unicode="&#xef;" horiz-adv-x="258" 
d="M43 664q-23 0 -39.5 16.5t-16.5 39.5q0 24 16.5 40t39.5 16t39.5 -16t16.5 -40q0 -23 -16.5 -39.5t-39.5 -16.5zM216 664q-23 0 -39.5 16.5t-16.5 39.5q0 24 16.5 40t39.5 16t39 -16t16 -40q0 -23 -16 -39.5t-39 -16.5zM200 0h-141v550h141v-550z" />
    <glyph glyph-name="eth" unicode="&#xf0;" horiz-adv-x="548" 
d="M270 -11q-102 0 -170.5 69t-67.5 168q0 96 69 161.5t169 65.5q56 0 85 -46q-18 85 -77 151l-150 -80l-35 66l123 66q-48 38 -125 71l86 99q93 -36 168 -101l105 55l35 -67l-86 -45q108 -130 116 -316q10 -148 -60 -232.5t-185 -84.5zM267 122q41 0 70 30t29 71
t-29.5 71.5t-69.5 30.5q-43 0 -72.5 -30t-29.5 -72q0 -41 30 -71t72 -30z" />
    <glyph glyph-name="ntilde" unicode="&#xf1;" horiz-adv-x="590" 
d="M356 650q-30 -1 -54 15t-40 32t-27 15q-22 -2 -22 -49h-87q0 54 24.5 91t70.5 37q31 1 55 -14.5t39.5 -31.5t26.5 -15q20 2 20 48h88q0 -58 -24 -92.5t-70 -35.5zM182 0h-140v550h128l8 -80q24 40 63.5 64.5t90.5 24.5q100 0 158.5 -69t58.5 -209v-281h-141v281
q0 69 -32.5 104.5t-80.5 35.5t-80.5 -35.5t-32.5 -104.5v-281z" />
    <glyph glyph-name="ograve" unicode="&#xf2;" 
d="M365 636h-86l-94 168h126zM314 -9q-117 0 -199.5 83.5t-82.5 200.5t82.5 200t199.5 83t200.5 -83.5t83.5 -199.5q0 -117 -83.5 -200.5t-200.5 -83.5zM314 134q59 0 100 41t41 100q0 58 -41 99t-100 41q-58 0 -99 -41t-41 -99q0 -59 41 -100t99 -41z" />
    <glyph glyph-name="oacute" unicode="&#xf3;" 
d="M350 636h-86l55 168h125zM314 -9q-117 0 -199.5 83.5t-82.5 200.5t82.5 200t199.5 83t200.5 -83.5t83.5 -199.5q0 -117 -83.5 -200.5t-200.5 -83.5zM314 134q59 0 100 41t41 100q0 58 -41 99t-100 41q-58 0 -99 -41t-41 -99q0 -59 41 -100t99 -41z" />
    <glyph glyph-name="ocircumflex" unicode="&#xf4;" 
d="M265 654h-109l104 133h114l104 -133h-109l-52 64zM314 -9q-117 0 -199.5 83.5t-82.5 200.5t82.5 200t199.5 83t200.5 -83.5t83.5 -199.5q0 -117 -83.5 -200.5t-200.5 -83.5zM314 134q59 0 100 41t41 100q0 58 -41 99t-100 41q-58 0 -99 -41t-41 -99q0 -59 41 -100t99 -41
z" />
    <glyph glyph-name="otilde" unicode="&#xf5;" 
d="M383 650q-30 -1 -54 15t-40 32t-27 15q-21 -2 -21 -49h-88q0 55 25 91.5t71 36.5q31 1 54.5 -15t39 -31.5t26.5 -14.5q21 2 21 48h87q0 -58 -24 -92.5t-70 -35.5zM314 -9q-117 0 -199.5 83.5t-82.5 200.5t82.5 200t199.5 83t200.5 -83.5t83.5 -199.5q0 -117 -83.5 -200.5
t-200.5 -83.5zM314 134q59 0 100 41t41 100q0 58 -41 99t-100 41q-58 0 -99 -41t-41 -99q0 -59 41 -100t99 -41z" />
    <glyph glyph-name="odieresis" unicode="&#xf6;" 
d="M215 655q-27 0 -46.5 19t-19.5 46q0 28 19.5 47t46.5 19t46 -19t19 -47q0 -27 -19.5 -46t-45.5 -19zM416 655q-28 0 -47 19t-19 46q0 28 19 47t47 19q26 0 45 -19t19 -47q0 -27 -19 -46t-45 -19zM314 -9q-117 0 -199.5 83.5t-82.5 200.5t82.5 200t199.5 83t200.5 -83.5
t83.5 -199.5q0 -117 -83.5 -200.5t-200.5 -83.5zM314 134q59 0 100 41t41 100q0 58 -41 99t-100 41q-58 0 -99 -41t-41 -99q0 -59 41 -100t99 -41z" />
    <glyph glyph-name="divide" unicode="&#xf7;" horiz-adv-x="528" 
d="M264 476q-33 0 -56 23t-23 56t23 56t56 23q32 0 54.5 -23t22.5 -56t-22.5 -56t-54.5 -23zM487 316h-445v99h445v-99zM264 97q-33 0 -56 23t-23 55q0 33 23 56t56 23q32 0 54.5 -23t22.5 -56q0 -32 -22.5 -55t-54.5 -23z" />
    <glyph glyph-name="oslash" unicode="&#xf8;" horiz-adv-x="646" 
d="M323 -7q-92 0 -166 55l-65 -65l-63 63l65 65q-55 74 -55 167q0 117 83 200.5t201 83.5q93 0 168 -56l64 65l62 -63l-64 -64q55 -74 55 -166q0 -118 -83.5 -201.5t-201.5 -83.5zM322 438q-66 0 -111.5 -46.5t-45.5 -112.5q0 -43 23 -74l209 207q-34 26 -75 26zM322 118
q67 0 114 47t47 114q0 39 -24 71l-208 -208q30 -24 71 -24z" />
    <glyph glyph-name="ugrave" unicode="&#xf9;" horiz-adv-x="616" 
d="M357 636h-87l-93 168h126zM267 -9q-100 0 -158.5 69.5t-58.5 209.5v280h141v-280q0 -69 32 -104.5t81 -35.5q48 0 80.5 35.5t32.5 104.5v280h140v-550h-128l-8 81q-24 -40 -64 -65t-90 -25z" />
    <glyph glyph-name="uacute" unicode="&#xfa;" horiz-adv-x="616" 
d="M338 642h-87l54 168h126zM267 -9q-100 0 -158.5 69.5t-58.5 209.5v280h141v-280q0 -69 32 -104.5t81 -35.5q48 0 80.5 35.5t32.5 104.5v280h140v-550h-128l-8 81q-24 -40 -64 -65t-90 -25z" />
    <glyph glyph-name="ucircumflex" unicode="&#xfb;" horiz-adv-x="616" 
d="M252 654h-109l104 133h114l104 -133h-109l-52 64zM267 -9q-100 0 -158.5 69.5t-58.5 209.5v280h141v-280q0 -69 32 -104.5t81 -35.5q48 0 80.5 35.5t32.5 104.5v280h140v-550h-128l-8 81q-24 -40 -64 -65t-90 -25z" />
    <glyph glyph-name="udieresis" unicode="&#xfc;" horiz-adv-x="616" 
d="M203 655q-26 0 -45.5 19t-19.5 46q0 28 19 47t46 19t46.5 -19t19.5 -47q0 -27 -19.5 -46t-46.5 -19zM404 655q-27 0 -46 19t-19 46q0 28 19 47t46 19t46 -19t19 -47q0 -27 -19 -46t-46 -19zM267 -9q-100 0 -158.5 69.5t-58.5 209.5v280h141v-280q0 -69 32 -104.5
t81 -35.5q48 0 80.5 35.5t32.5 104.5v280h140v-550h-128l-8 81q-24 -40 -64 -65t-90 -25z" />
    <glyph glyph-name="yacute" unicode="&#xfd;" horiz-adv-x="567" 
d="M309 636h-86l54 168h126zM115 -230q-58 0 -107 20l39 124q33 -11 62 -11q80 0 118 115l-212 532h151l124 -340l120 340h149l-193 -550q-43 -123 -103.5 -176.5t-147.5 -53.5z" />
    <glyph glyph-name="thorn" unicode="&#xfe;" horiz-adv-x="671" 
d="M212 -220h-140v1000h140v-293q55 71 155 71q113 0 193 -83t80 -201t-80 -201.5t-193 -83.5q-99 0 -155 72v-281zM355 130q59 0 101.5 42t42.5 102q0 59 -42.5 101.5t-101.5 42.5q-60 0 -101.5 -42t-41.5 -102t41.5 -102t101.5 -42z" />
    <glyph glyph-name="ydieresis" unicode="&#xff;" horiz-adv-x="567" 
d="M184 655q-27 0 -46.5 19t-19.5 46q0 28 19.5 47t46.5 19q26 0 45.5 -19t19.5 -47q0 -27 -19.5 -46t-45.5 -19zM385 655q-28 0 -47 19t-19 46q0 28 19 47t47 19q26 0 45 -19t19 -47q0 -27 -19 -46t-45 -19zM115 -230q-58 0 -107 20l39 124q33 -11 62 -11q70 0 110 97
l-204 550h151l124 -340l120 340h149l-193 -550q-43 -123 -103.5 -176.5t-147.5 -53.5z" />
    <glyph glyph-name="Amacron" unicode="&#x100;" horiz-adv-x="673" 
d="M524 834h-375v112h375v-112zM170 0h-165l251 730h161l251 -730h-164l-48 149h-237zM337 526l-77 -238h154z" />
    <glyph glyph-name="amacron" unicode="&#x101;" horiz-adv-x="662" 
d="M528 664h-375v112h375v-112zM292 -8q-108 0 -184 83.5t-76 200.5t76 200t184 83q56 0 103 -28t72 -72l9 91h128v-550h-128l-9 92q-25 -44 -72 -72t-103 -28zM318 131q61 0 103 42.5t42 102.5t-42 102.5t-103 42.5q-60 0 -102 -42.5t-42 -102.5t42 -102.5t102 -42.5z" />
    <glyph glyph-name="Abreve" unicode="&#x102;" horiz-adv-x="673" 
d="M336 817q-64 0 -109.5 42t-46.5 104h77q1 -31 24 -50.5t55 -19.5t54.5 20t23.5 50h77q-1 -62 -46.5 -104t-108.5 -42zM170 0h-165l251 730h161l251 -730h-164l-48 149h-237zM337 526l-77 -238h154z" />
    <glyph glyph-name="abreve" unicode="&#x103;" horiz-adv-x="662" 
d="M331 647q-64 0 -109 42t-46 104h77q1 -30 23.5 -50t54.5 -20t55 19.5t24 50.5h76q-1 -62 -46 -104t-109 -42zM292 -8q-108 0 -184 83.5t-76 200.5t76 200t184 83q56 0 103 -28t72 -72l9 91h128v-550h-128l-9 92q-25 -44 -72 -72t-103 -28zM318 131q61 0 103 42.5
t42 102.5t-42 102.5t-103 42.5q-60 0 -102 -42.5t-42 -102.5t42 -102.5t102 -42.5z" />
    <glyph glyph-name="Aogonek" unicode="&#x104;" horiz-adv-x="673" 
d="M626 -220q-36 0 -61.5 26.5t-25.5 67.5q0 48 58 126h-92l-49 149h-237l-49 -149h-165l251 730h161l251 -730q-42 -61 -47 -79q-3 -10 -3 -21q0 -13 7 -22.5t18 -9.5q16 0 30 16l36 -57q-26 -47 -83 -47zM337 526l-77 -238h154z" />
    <glyph glyph-name="aogonek" unicode="&#x105;" horiz-adv-x="661" 
d="M538 -209q-36 0 -61.5 26.5t-25.5 67.5q0 17 6 34.5t11.5 27t19.5 28.5t18 25h-30l-9 92q-25 -44 -72 -72t-103 -28q-108 0 -184 83.5t-76 200.5t76 200t184 83q56 0 103 -28t72 -72l9 91h128v-550h-27q-7 -11 -18 -26.5t-16 -23t-9 -18.5t-4 -21q0 -13 7.5 -22.5
t17.5 -9.5q18 0 30 16l36 -57q-26 -47 -83 -47zM318 131q61 0 103 42.5t42 102.5t-42 102.5t-103 42.5q-60 0 -102 -42.5t-42 -102.5t42 -102.5t102 -42.5z" />
    <glyph glyph-name="Cacute" unicode="&#x106;" horiz-adv-x="756" 
d="M416 806h-86l55 168h125zM420 -15q-157 0 -267.5 111.5t-110.5 268.5q0 156 110.5 267t267.5 111q89 0 166.5 -38.5t130.5 -105.5l-124 -91q-69 82 -173 82q-92 0 -158.5 -66t-66.5 -159q0 -94 66 -160t159 -66q106 0 172 82l133 -80q-53 -73 -132.5 -114.5t-172.5 -41.5
z" />
    <glyph glyph-name="cacute" unicode="&#x107;" horiz-adv-x="576" 
d="M335 636h-86l55 168h125zM314 -9q-117 0 -199.5 83.5t-82.5 200.5t82.5 200t199.5 83q70 0 131 -32.5t101 -87.5l-116 -77q-43 54 -116 54q-58 0 -99 -41t-41 -99q0 -59 41 -100t99 -41q77 0 118 60l117 -78q-39 -57 -101 -91t-134 -34z" />
    <glyph glyph-name="Ccircumflex" unicode="&#x108;" horiz-adv-x="756" 
d="M364 824h-109l104 133h114l105 -133h-109l-53 64zM420 -15q-157 0 -267.5 111.5t-110.5 268.5q0 156 110.5 267t267.5 111q89 0 166.5 -38.5t130.5 -105.5l-124 -91q-69 82 -173 82q-92 0 -158.5 -66t-66.5 -159q0 -94 66 -160t159 -66q106 0 172 82l133 -80
q-53 -73 -132.5 -114.5t-172.5 -41.5z" />
    <glyph glyph-name="ccircumflex" unicode="&#x109;" horiz-adv-x="576" 
d="M259 654h-109l104 133h114l105 -133h-109l-53 64zM314 -9q-117 0 -199.5 83.5t-82.5 200.5t82.5 200t199.5 83q70 0 131 -32.5t101 -87.5l-116 -77q-43 54 -116 54q-58 0 -99 -41t-41 -99q0 -59 41 -100t99 -41q77 0 118 60l117 -78q-39 -57 -101 -91t-134 -34z" />
    <glyph glyph-name="Cdotaccent" unicode="&#x10a;" horiz-adv-x="756" 
d="M399 811q-33 0 -56 23t-23 56t23 56t56 23q32 0 55 -23t23 -56t-23 -56t-55 -23zM420 -15q-157 0 -267.5 111.5t-110.5 268.5q0 156 110.5 267t267.5 111q89 0 166.5 -38.5t130.5 -105.5l-124 -91q-69 82 -173 82q-92 0 -158.5 -66t-66.5 -159q0 -94 66 -160t159 -66
q106 0 172 82l133 -80q-53 -73 -132.5 -114.5t-172.5 -41.5z" />
    <glyph glyph-name="cdotaccent" unicode="&#x10b;" horiz-adv-x="576" 
d="M298 641q-33 0 -56 23t-23 56t23 56t56 23q32 0 55 -23t23 -56t-23 -56t-55 -23zM314 -9q-117 0 -199.5 83.5t-82.5 200.5t82.5 200t199.5 83q70 0 131 -32.5t101 -87.5l-116 -77q-43 54 -116 54q-58 0 -99 -41t-41 -99q0 -59 41 -100t99 -41q77 0 118 60l117 -78
q-39 -57 -101 -91t-134 -34z" />
    <glyph glyph-name="Ccaron" unicode="&#x10c;" horiz-adv-x="756" 
d="M466 824h-114l-105 133h109l53 -64l52 64h109zM420 -15q-157 0 -267.5 111.5t-110.5 268.5q0 156 110.5 267t267.5 111q89 0 166.5 -38.5t130.5 -105.5l-124 -91q-69 82 -173 82q-92 0 -158.5 -66t-66.5 -159q0 -94 66 -160t159 -66q106 0 172 82l133 -80
q-53 -73 -132.5 -114.5t-172.5 -41.5z" />
    <glyph glyph-name="ccaron" unicode="&#x10d;" horiz-adv-x="576" 
d="M346 654h-114l-104 133h109l52 -64l52 64h109zM314 -9q-117 0 -199.5 83.5t-82.5 200.5t82.5 200t199.5 83q70 0 131 -32.5t101 -87.5l-116 -77q-43 54 -116 54q-58 0 -99 -41t-41 -99q0 -59 41 -100t99 -41q77 0 118 60l117 -78q-39 -57 -101 -91t-134 -34z" />
    <glyph glyph-name="Dcaron" unicode="&#x10e;" horiz-adv-x="731" 
d="M344 824h-114l-104 133h109l52 -64l52 64h109zM305 0h-236v730h236q168 0 276.5 -104.5t108.5 -260.5q0 -157 -107 -261t-278 -104zM219 583v-436h86q105 0 167 62.5t62 156.5q0 92 -63.5 155t-165.5 63z" />
    <glyph glyph-name="dcaron" unicode="&#x10f;" horiz-adv-x="788" 
d="M292 -8q-108 0 -184 83.5t-76 200.5t76 200t184 83q54 0 100 -26.5t71 -68.5v316h141v-780h-128l-9 92q-25 -44 -72 -72t-103 -28zM765 544h-93l-16 236h125zM318 131q61 0 103 42.5t42 102.5t-42 102.5t-103 42.5q-60 0 -102 -42.5t-42 -102.5t42 -102.5t102 -42.5z" />
    <glyph glyph-name="Dcroat" unicode="&#x110;" horiz-adv-x="738" 
d="M311 0h-236v309h-50v112h50v309h236q169 0 277.5 -104.5t108.5 -260.5q0 -157 -107.5 -261t-278.5 -104zM226 309v-162h85q105 0 167 62.5t62 156.5q0 92 -63.5 154.5t-165.5 62.5h-85v-162h181v-112h-181z" />
    <glyph glyph-name="dcroat" unicode="&#x111;" horiz-adv-x="663" 
d="M292 -8q-108 0 -184 83.5t-76 200.5t76 200t184 83q54 0 100 -26.5t71 -68.5v157h-174v88h174v71h141v-71h60v-88h-60v-621h-128l-9 92q-25 -44 -72 -72t-103 -28zM318 131q61 0 103 42.5t42 102.5t-42 102.5t-103 42.5q-60 0 -102 -42.5t-42 -102.5t42 -102.5t102 -42.5
z" />
    <glyph glyph-name="Emacron" unicode="&#x112;" horiz-adv-x="581" 
d="M492 834h-375v112h375v-112zM540 0h-471v730h461v-137h-312v-152h292v-135h-292v-162h322v-144z" />
    <glyph glyph-name="emacron" unicode="&#x113;" horiz-adv-x="637" 
d="M507 664h-375v112h375v-112zM326 -9q-127 0 -210.5 82.5t-83.5 201.5q0 117 82 200t199 83q118 0 199.5 -83t81.5 -200q0 -22 -4 -56h-407q11 -43 50.5 -70.5t92.5 -27.5q81 0 127 51l113 -71q-39 -50 -105 -80t-135 -30zM183 331h265q-6 40 -43 68t-91 28
q-53 0 -88.5 -28t-42.5 -68z" />
    <glyph glyph-name="Ebreve" unicode="&#x114;" horiz-adv-x="581" 
d="M299 817q-64 0 -109 42t-47 104h77q2 -31 24.5 -50.5t54.5 -19.5t54.5 20t23.5 50h77q-1 -62 -46.5 -104t-108.5 -42zM540 0h-471v730h461v-137h-312v-152h292v-135h-292v-162h322v-144z" />
    <glyph glyph-name="ebreve" unicode="&#x115;" horiz-adv-x="625" 
d="M312 647q-64 0 -109 42t-46 104h77q1 -31 23.5 -50.5t54.5 -19.5t54.5 19.5t24.5 50.5h76q-1 -62 -46.5 -104t-108.5 -42zM326 -9q-127 0 -210.5 82.5t-83.5 201.5q0 117 82 200t199 83q118 0 199.5 -83t81.5 -200q0 -22 -4 -56h-407q11 -43 50.5 -70.5t92.5 -27.5
q81 0 127 51l113 -71q-39 -50 -105 -80t-135 -30zM183 331h265q-6 40 -43 68t-91 28q-53 0 -88.5 -28t-42.5 -68z" />
    <glyph glyph-name="Edotaccent" unicode="&#x116;" horiz-adv-x="581" 
d="M306 811q-33 0 -56 23t-23 56t23 56t56 23q32 0 54.5 -23t22.5 -56t-22.5 -56t-54.5 -23zM540 0h-471v730h461v-137h-312v-152h292v-135h-292v-162h322v-144z" />
    <glyph glyph-name="edotaccent" unicode="&#x117;" horiz-adv-x="625" 
d="M308 641q-32 0 -55 23t-23 56t23 56t55 23t55 -23t23 -56t-23 -56t-55 -23zM326 -9q-127 0 -210.5 82.5t-83.5 201.5q0 117 82 200t199 83q118 0 199.5 -83t81.5 -200q0 -22 -4 -56h-407q11 -43 50.5 -70.5t92.5 -27.5q81 0 127 51l113 -71q-39 -50 -105 -80t-135 -30z
M183 331h265q-6 40 -43 68t-91 28q-53 0 -88.5 -28t-42.5 -68z" />
    <glyph glyph-name="Eogonek" unicode="&#x118;" horiz-adv-x="588" 
d="M499 -220q-36 0 -61.5 26.5t-25.5 67.5q0 50 53 126h-396v730h461v-137h-312v-152h292v-135h-292v-162h322v-144q-3 -5 -12.5 -19.5t-12.5 -19.5t-9 -15.5t-8.5 -16.5t-4.5 -14t-2 -15q0 -13 7.5 -22.5t18.5 -9.5q17 0 29 16l36 -57q-26 -47 -83 -47z" />
    <glyph glyph-name="eogonek" unicode="&#x119;" horiz-adv-x="639" 
d="M526 -119q-36 0 -61.5 26.5t-25.5 66.5q0 25 6 41q-57 -24 -119 -24q-127 0 -210.5 82.5t-83.5 201.5q0 117 82 200t199 83q118 0 199.5 -83t81.5 -200q0 -22 -4 -56h-407q11 -43 50.5 -70.5t92.5 -27.5q81 0 127 51l113 -71q-48 -71 -48 -100q0 -13 7 -22.5t18 -9.5
q18 0 30 16l35 -58q-25 -46 -82 -46zM183 331h265q-6 40 -43 68t-91 28q-53 0 -88.5 -28t-42.5 -68z" />
    <glyph glyph-name="Ecaron" unicode="&#x11a;" horiz-adv-x="581" 
d="M359 824h-114l-105 133h109l53 -64l52 64h109zM540 0h-471v730h461v-137h-312v-152h292v-135h-292v-162h322v-144z" />
    <glyph glyph-name="ecaron" unicode="&#x11b;" horiz-adv-x="625" 
d="M365 654h-114l-104 133h109l52 -64l53 64h109zM326 -9q-127 0 -210.5 82.5t-83.5 201.5q0 117 82 200t199 83q118 0 199.5 -83t81.5 -200q0 -22 -4 -56h-407q11 -43 50.5 -70.5t92.5 -27.5q81 0 127 51l113 -71q-39 -50 -105 -80t-135 -30zM183 331h265q-6 40 -43 68
t-91 28q-53 0 -88.5 -28t-42.5 -68z" />
    <glyph glyph-name="Gcircumflex" unicode="&#x11c;" horiz-adv-x="829" 
d="M362 824h-109l104 133h114l104 -133h-109l-52 64zM420 -15q-157 0 -267.5 111.5t-110.5 268.5q0 156 110.5 267t267.5 111q90 0 168.5 -39.5t131.5 -108.5l-134 -80q-67 75 -166 75q-92 0 -158.5 -66t-66.5 -159q0 -94 66 -160t159 -66q79 0 131.5 42t64.5 113h-224v137
h389q7 -29 7 -66q0 -170 -102 -275t-266 -105z" />
    <glyph glyph-name="gcircumflex" unicode="&#x11d;" horiz-adv-x="662" 
d="M266 654h-109l104 133h114l104 -133h-109l-52 64zM296 -233q-70 0 -134.5 29.5t-103.5 80.5l106 83q53 -59 140 -59q67 0 113 40.5t46 118.5v27q-25 -41 -71 -68t-100 -27q-108 0 -184 83.5t-76 200.5t76 200t184 83q56 0 103 -28t72 -72l9 91h128v-464
q0 -155 -83.5 -237t-224.5 -82zM318 131q61 0 103 42.5t42 102.5t-42 102.5t-103 42.5q-60 0 -102 -42.5t-42 -102.5t42 -102.5t102 -42.5z" />
    <glyph glyph-name="Gbreve" unicode="&#x11e;" horiz-adv-x="829" 
d="M411 817q-65 0 -110 42t-46 104h78q1 -30 23 -50t55 -20q32 0 54.5 20t23.5 50h77q-2 -62 -47 -104t-108 -42zM420 -15q-157 0 -267.5 111.5t-110.5 268.5q0 156 110.5 267t267.5 111q90 0 168.5 -39.5t131.5 -108.5l-134 -80q-67 75 -166 75q-92 0 -158.5 -66
t-66.5 -159q0 -94 66 -160t159 -66q79 0 131.5 42t64.5 113h-224v137h389q7 -29 7 -66q0 -170 -102 -275t-266 -105z" />
    <glyph glyph-name="gbreve" unicode="&#x11f;" horiz-adv-x="662" 
d="M312 647q-64 0 -109 42t-47 104h78q1 -30 23.5 -50t54.5 -20q33 0 55 20t23 50h77q-1 -62 -46.5 -104t-108.5 -42zM296 -233q-70 0 -134.5 29.5t-103.5 80.5l106 83q53 -59 140 -59q67 0 113 40.5t46 118.5v27q-25 -41 -71 -68t-100 -27q-108 0 -184 83.5t-76 200.5
t76 200t184 83q56 0 103 -28t72 -72l9 91h128v-464q0 -155 -83.5 -237t-224.5 -82zM318 131q61 0 103 42.5t42 102.5t-42 102.5t-103 42.5q-60 0 -102 -42.5t-42 -102.5t42 -102.5t102 -42.5z" />
    <glyph glyph-name="Gdotaccent" unicode="&#x120;" horiz-adv-x="829" 
d="M411 811q-33 0 -56 23t-23 56t23 56t56 23q32 0 55 -23t23 -56t-23 -56t-55 -23zM420 -15q-157 0 -267.5 111.5t-110.5 268.5q0 156 110.5 267t267.5 111q90 0 168.5 -39.5t131.5 -108.5l-134 -80q-67 75 -166 75q-92 0 -158.5 -66t-66.5 -159q0 -94 66 -160t159 -66
q79 0 131.5 42t64.5 113h-224v137h389q7 -29 7 -66q0 -170 -102 -275t-266 -105z" />
    <glyph glyph-name="gdotaccent" unicode="&#x121;" horiz-adv-x="662" 
d="M312 641q-32 0 -55 23t-23 56t23 56t55 23t55 -23t23 -56t-23 -56t-55 -23zM296 -233q-70 0 -134.5 29.5t-103.5 80.5l106 83q53 -59 140 -59q67 0 113 40.5t46 118.5v27q-25 -41 -71 -68t-100 -27q-108 0 -184 83.5t-76 200.5t76 200t184 83q56 0 103 -28t72 -72l9 91
h128v-464q0 -155 -83.5 -237t-224.5 -82zM318 131q61 0 103 42.5t42 102.5t-42 102.5t-103 42.5q-60 0 -102 -42.5t-42 -102.5t42 -102.5t102 -42.5z" />
    <glyph glyph-name="uni0122" unicode="&#x122;" horiz-adv-x="829" 
d="M420 -15q-157 0 -267.5 111.5t-110.5 268.5q0 156 110.5 267t267.5 111q90 0 168.5 -39.5t131.5 -108.5l-134 -80q-67 75 -166 75q-92 0 -158.5 -66t-66.5 -159q0 -94 66 -160t159 -66q79 0 131.5 42t64.5 113h-224v137h389q7 -29 7 -66q0 -170 -102 -275t-266 -105z
M450 -218h-107l18 167h125z" />
    <glyph glyph-name="uni0123" unicode="&#x123;" horiz-adv-x="662" 
d="M380 653h-126l37 166h106zM296 -233q-70 0 -134.5 29.5t-103.5 80.5l106 83q53 -59 140 -59q67 0 113 40.5t46 118.5v27q-25 -41 -71 -68t-100 -27q-108 0 -184 83.5t-76 200.5t76 200t184 83q56 0 103 -28t72 -72l9 91h128v-464q0 -155 -83.5 -237t-224.5 -82zM318 131
q61 0 103 42.5t42 102.5t-42 102.5t-103 42.5q-60 0 -102 -42.5t-42 -102.5t42 -102.5t102 -42.5z" />
    <glyph glyph-name="Hcircumflex" unicode="&#x124;" horiz-adv-x="719" 
d="M312 824h-109l104 133h114l104 -133h-109l-52 64zM219 0h-150v730h150v-294h281v294h150v-730h-150v287h-281v-287z" />
    <glyph glyph-name="hcircumflex" unicode="&#x125;" horiz-adv-x="617" 
d="M168 824h-109l104 133h114l105 -133h-109l-53 64zM201 0h-140v780h140v-306q52 85 150 85q100 0 158.5 -69t58.5 -209v-281h-141v281q0 69 -32.5 104.5t-80.5 35.5t-80.5 -35.5t-32.5 -104.5v-281z" />
    <glyph glyph-name="Hbar" unicode="&#x126;" horiz-adv-x="726" 
d="M224 0h-150v559h-47v93h47v78h150v-78h281v78h150v-78h44v-93h-44v-559h-150v287h-281v-287zM224 559v-123h281v123h-281z" />
    <glyph glyph-name="hbar" unicode="&#x127;" horiz-adv-x="616" 
d="M200 0h-141v618h-64v94h64v68h141v-68h143v-94h-143v-144q52 85 149 85q100 0 158.5 -69t58.5 -209v-281h-140v281q0 69 -32.5 104.5t-80.5 35.5q-49 0 -81 -35.5t-32 -104.5v-281z" />
    <glyph glyph-name="Itilde" unicode="&#x128;" horiz-adv-x="287" 
d="M213 820q-31 -1 -55 15.5t-39.5 32t-26.5 14.5q-23 -2 -23 -49h-87q0 54 24.5 91t70.5 37q31 1 55 -14.5t39.5 -31.5t26.5 -15q20 2 20 48h88q0 -58 -23.5 -92.5t-69.5 -35.5zM219 0h-150v730h150v-730z" />
    <glyph glyph-name="itilde" unicode="&#x129;" horiz-adv-x="258" 
d="M198 650q-31 -1 -55 15.5t-39.5 32t-26.5 14.5q-23 -2 -23 -49h-87q0 55 24.5 91.5t70.5 36.5q31 1 55 -14.5t39.5 -31.5t26.5 -15q20 2 20 48h88q0 -58 -23.5 -92.5t-69.5 -35.5zM200 0h-141v550h141v-550z" />
    <glyph glyph-name="Imacron" unicode="&#x12a;" horiz-adv-x="287" 
d="M331 834h-375v112h375v-112zM219 0h-150v730h150v-730z" />
    <glyph glyph-name="imacron" unicode="&#x12b;" horiz-adv-x="258" 
d="M286 664h-313v112h313v-112zM200 0h-141v550h141v-550z" />
    <glyph glyph-name="Ibreve" unicode="&#x12c;" horiz-adv-x="287" 
d="M144 817q-64 0 -109.5 42t-46.5 104h78q1 -30 23 -50t55 -20q32 0 54.5 20t23.5 50h77q-1 -62 -46.5 -104t-108.5 -42zM219 0h-150v730h150v-730z" />
    <glyph glyph-name="ibreve" unicode="&#x12d;" horiz-adv-x="258" 
d="M130 656q-60 0 -101 38t-41 90h78q0 -21 18 -36.5t46 -15.5q30 0 47 16t17 36h77q0 -52 -41 -90t-100 -38zM200 0h-141v550h141v-550z" />
    <glyph glyph-name="Iogonek" unicode="&#x12e;" horiz-adv-x="287" 
d="M181 -220q-36 0 -61.5 26.5t-25.5 67.5q0 25 9.5 50.5t17.5 37.5t27 38h-79v730h150v-730q-18 -27 -25 -39.5t-14 -29.5t-7 -31q0 -13 7 -22.5t18 -9.5q16 0 30 16l36 -57q-26 -47 -83 -47z" />
    <glyph glyph-name="iogonek" unicode="&#x12f;" horiz-adv-x="258" 
d="M130 594q-33 0 -57 24t-24 57t24 57t57 24q32 0 56 -24t24 -57t-24 -57t-56 -24zM159 -220q-36 0 -61.5 26.5t-25.5 67.5q0 15 3 29t11 29.5t12 22.5t16.5 24.5t14.5 20.5h-70v550h141v-550q-3 -5 -12.5 -19.5t-12.5 -19.5t-9 -15.5t-8.5 -16.5t-4.5 -14t-2 -15
q0 -13 7 -22.5t18 -9.5q16 0 30 16l36 -57q-26 -47 -83 -47z" />
    <glyph glyph-name="Idotaccent" unicode="&#x130;" horiz-adv-x="287" 
d="M147 811q-33 0 -56 23t-23 56t23 56t56 23q32 0 55 -23t23 -56t-23 -56t-55 -23zM219 0h-150v730h150v-730z" />
    <glyph glyph-name="dotlessi" unicode="&#x131;" horiz-adv-x="258" 
d="M200 0h-141v550h141v-550z" />
    <glyph glyph-name="IJ" unicode="&#x132;" horiz-adv-x="791" 
d="M219 0h-150v730h150v-730zM475 -9q-126 0 -199 99l111 89q38 -41 87 -41q51 0 80 36t29 95v461h149v-461q0 -128 -71.5 -203t-185.5 -75z" />
    <glyph glyph-name="ij" unicode="&#x133;" horiz-adv-x="561" 
d="M130 594q-33 0 -57 24t-24 57t24 57t57 24q32 0 56 -24t24 -57t-24 -57t-56 -24zM432 594q-33 0 -57 24t-24 57t24 57t57 24t56.5 -24t23.5 -57t-23.5 -57t-56.5 -24zM200 0h-141v550h141v-550zM289 -233q-53 0 -96 17l36 128q19 -6 39 -6q93 0 93 129v515h141v-515
q0 -142 -59 -205t-154 -63z" />
    <glyph glyph-name="Jcircumflex" unicode="&#x134;" horiz-adv-x="527" 
d="M290 824h-109l104 133h114l104 -133h-109l-52 64zM213 -9q-60 0 -112 26t-86 73l111 89q36 -41 87 -41t79.5 36t28.5 95v461h151v-461q0 -128 -72 -203t-187 -75z" />
    <glyph glyph-name="jcircumflex" unicode="&#x135;" horiz-adv-x="291" 
d="M98 654h-109l104 133h114l105 -133h-109l-53 64zM19 -233q-53 0 -96 17l36 128q20 -6 39 -6q94 0 94 129v515h140v-515q0 -142 -59 -205t-154 -63z" />
    <glyph glyph-name="uni0136" unicode="&#x136;" horiz-adv-x="654" 
d="M219 0h-150v730h150v-299l236 299h168l-235 -305l255 -425h-174l-174 287l-76 -87v-200zM369 -218h-106l17 167h126z" />
    <glyph glyph-name="uni0137" unicode="&#x137;" horiz-adv-x="585" 
d="M193 0h-134v780h134v-432l193 202h161l-203 -224l224 -326h-163l-150 220l-62 -61v-159zM309 -212h-106l17 168h126z" />
    <glyph glyph-name="kgreenlandic" unicode="&#x138;" horiz-adv-x="588" 
d="M193 0h-134v550h134v-190l180 190h174l-202 -223l225 -327h-171l-147 217l-59 -58v-159z" />
    <glyph glyph-name="Lacute" unicode="&#x139;" horiz-adv-x="567" 
d="M337 806h-86l55 168h125zM550 0h-481v730h150v-580h331v-150z" />
    <glyph glyph-name="lacute" unicode="&#x13a;" horiz-adv-x="258" 
d="M172 841h-87l54 168h126zM200 0h-141v780h141v-780z" />
    <glyph glyph-name="uni013B" unicode="&#x13b;" horiz-adv-x="567" 
d="M550 0h-481v730h150v-580h331v-150zM335 -218h-107l18 167h125z" />
    <glyph glyph-name="uni013C" unicode="&#x13c;" horiz-adv-x="258" 
d="M200 0h-141v780h141v-780zM155 -212h-107l18 168h125z" />
    <glyph glyph-name="Lcaron" unicode="&#x13d;" horiz-adv-x="585" 
d="M550 0h-481v730h150v-580h331v-150zM405 456h-93l49 274h125z" />
    <glyph glyph-name="lcaron" unicode="&#x13e;" horiz-adv-x="380" 
d="M356 545h-92l-17 236h126zM200 0h-141v780h141v-780z" />
    <glyph glyph-name="Ldot" unicode="&#x13f;" horiz-adv-x="567" 
d="M550 0h-481v730h150v-580h331v-150zM390 321q-32 0 -55 23t-23 56t23 56t55 23t55 -23t23 -56t-23 -56t-55 -23z" />
    <glyph glyph-name="ldot" unicode="&#x140;" horiz-adv-x="395" 
d="M200 0h-141v780h141v-780zM310 321q-33 0 -56 23t-23 56t23 56t56 23q32 0 54.5 -23t22.5 -56t-22.5 -56t-54.5 -23z" />
    <glyph glyph-name="Lslash" unicode="&#x141;" horiz-adv-x="566" 
d="M549 0h-474v282l-60 -35v100l60 35v348h150v-262l147 86v-101l-147 -86v-232h324v-135z" />
    <glyph glyph-name="lslash" unicode="&#x142;" horiz-adv-x="301" 
d="M221 0h-141v314l-62 -36v100l62 36v366h141v-284l62 36v-101l-62 -36v-395z" />
    <glyph glyph-name="Nacute" unicode="&#x143;" horiz-adv-x="763" 
d="M397 806h-86l55 168h125zM219 0h-150v730h150l325 -464v464h150v-730h-150l-325 465v-465z" />
    <glyph glyph-name="nacute" unicode="&#x144;" horiz-adv-x="616" 
d="M340 636h-87l55 168h125zM200 0h-141v550h128l9 -80q24 40 63.5 64.5t89.5 24.5q100 0 158.5 -69t58.5 -209v-281h-140v281q0 69 -32.5 104.5t-80.5 35.5q-49 0 -81 -35.5t-32 -104.5v-281z" />
    <glyph glyph-name="uni0145" unicode="&#x145;" horiz-adv-x="763" 
d="M219 0h-150v730h150l325 -464v464h150v-730h-150l-325 465v-465zM407 -212h-106l17 168h126z" />
    <glyph glyph-name="uni0146" unicode="&#x146;" horiz-adv-x="616" 
d="M200 0h-141v550h128l9 -80q24 40 63.5 64.5t89.5 24.5q100 0 158.5 -69t58.5 -209v-281h-140v281q0 69 -32.5 104.5t-80.5 35.5q-49 0 -81 -35.5t-32 -104.5v-281zM337 -212h-106l17 168h126z" />
    <glyph glyph-name="Ncaron" unicode="&#x147;" horiz-adv-x="763" 
d="M441 824h-114l-104 133h109l52 -64l52 64h109zM219 0h-150v730h150l325 -464v464h150v-730h-150l-325 465v-465z" />
    <glyph glyph-name="ncaron" unicode="&#x148;" horiz-adv-x="616" 
d="M370 654h-114l-105 133h109l53 -64l52 64h109zM200 0h-141v550h128l9 -80q24 40 63.5 64.5t89.5 24.5q100 0 158.5 -69t58.5 -209v-281h-140v281q0 69 -32.5 104.5t-80.5 35.5q-49 0 -81 -35.5t-32 -104.5v-281z" />
    <glyph glyph-name="napostrophe" unicode="&#x149;" horiz-adv-x="750" 
d="M97 379h-93l48 275h126zM334 0h-140v550h128l8 -80q24 40 63.5 64.5t90.5 24.5q100 0 158.5 -69t58.5 -209v-281h-141v281q0 69 -32.5 104.5t-80.5 35.5t-80.5 -35.5t-32.5 -104.5v-281z" />
    <glyph glyph-name="Eng" unicode="&#x14a;" horiz-adv-x="763" 
d="M461 -174v149q52 0 69 45l-311 445v-465h-150v730h150l325 -463v463h150l-1 -659q-1 -118 -64 -181.5t-168 -63.5z" />
    <glyph glyph-name="eng" unicode="&#x14b;" horiz-adv-x="616" 
d="M342 -174v149q84 0 84 110v196q0 69 -32.5 104.5t-80.5 35.5q-49 0 -81 -35.5t-32 -104.5v-281h-141v550h128l9 -80q24 40 63.5 64.5t89.5 24.5q100 0 158.5 -69t58.5 -209v-222q-2 -116 -61 -174.5t-163 -58.5z" />
    <glyph glyph-name="Omacron" unicode="&#x14c;" horiz-adv-x="839" 
d="M608 834h-375v112h375v-112zM420 -15q-157 0 -267.5 111.5t-110.5 268.5q0 156 110.5 267t267.5 111t267.5 -111t110.5 -267q0 -157 -110.5 -268.5t-267.5 -111.5zM420 139q93 0 158.5 66t65.5 160q0 93 -66 159t-158 66t-158.5 -66t-66.5 -159q0 -94 66 -160t159 -66z
" />
    <glyph glyph-name="omacron" unicode="&#x14d;" 
d="M503 664h-375v112h375v-112zM314 -9q-117 0 -199.5 83.5t-82.5 200.5t82.5 200t199.5 83t200.5 -83.5t83.5 -199.5q0 -117 -83.5 -200.5t-200.5 -83.5zM314 134q59 0 100 41t41 100q0 58 -41 99t-100 41q-58 0 -99 -41t-41 -99q0 -59 41 -100t99 -41z" />
    <glyph glyph-name="Obreve" unicode="&#x14e;" horiz-adv-x="839" 
d="M417 817q-64 0 -109 42t-46 104h77q1 -31 23.5 -50.5t54.5 -19.5t54.5 19.5t24.5 50.5h76q-1 -62 -46.5 -104t-108.5 -42zM420 -15q-157 0 -267.5 111.5t-110.5 268.5q0 156 110.5 267t267.5 111t267.5 -111t110.5 -267q0 -157 -110.5 -268.5t-267.5 -111.5zM420 139
q93 0 158.5 66t65.5 160q0 93 -66 159t-158 66t-158.5 -66t-66.5 -159q0 -94 66 -160t159 -66z" />
    <glyph glyph-name="obreve" unicode="&#x14f;" 
d="M308 647q-64 0 -109.5 42t-46.5 104h78q1 -30 23 -50t55 -20q32 0 54.5 20t23.5 50h77q-1 -62 -46.5 -104t-108.5 -42zM314 -9q-117 0 -199.5 83.5t-82.5 200.5t82.5 200t199.5 83t200.5 -83.5t83.5 -199.5q0 -117 -83.5 -200.5t-200.5 -83.5zM314 134q59 0 100 41
t41 100q0 58 -41 99t-100 41q-58 0 -99 -41t-41 -99q0 -59 41 -100t99 -41z" />
    <glyph glyph-name="Ohungarumlaut" unicode="&#x150;" horiz-adv-x="839" 
d="M337 794h-82l82 192h117zM538 794h-81l82 192h117zM420 -15q-157 0 -267.5 111.5t-110.5 268.5q0 156 110.5 267t267.5 111t267.5 -111t110.5 -267q0 -157 -110.5 -268.5t-267.5 -111.5zM420 139q93 0 158.5 66t65.5 160q0 93 -66 159t-158 66t-158.5 -66t-66.5 -159
q0 -94 66 -160t159 -66z" />
    <glyph glyph-name="ohungarumlaut" unicode="&#x151;" 
d="M225 624h-81l82 192h117zM428 624h-81l81 192h117zM314 -9q-117 0 -199.5 83.5t-82.5 200.5t82.5 200t199.5 83t200.5 -83.5t83.5 -199.5q0 -117 -83.5 -200.5t-200.5 -83.5zM314 134q59 0 100 41t41 100q0 58 -41 99t-100 41q-58 0 -99 -41t-41 -99q0 -59 41 -100
t99 -41z" />
    <glyph glyph-name="OE" unicode="&#x152;" horiz-adv-x="1018" 
d="M420 -15q-157 0 -267.5 111.5t-110.5 268.5q0 156 110.5 267t267.5 111q47 0 97 -13h450v-137h-312v-151h292v-137h-292v-161h322v-144h-454q-53 -15 -103 -15zM420 139q48 0 86 23v405q-41 23 -86 23q-92 0 -158.5 -66t-66.5 -159q0 -94 66 -160t159 -66z" />
    <glyph glyph-name="oe" unicode="&#x153;" horiz-adv-x="1050" 
d="M314 -9q-117 0 -199.5 83.5t-82.5 200.5t82.5 200t199.5 83q65 0 121.5 -30t91.5 -81q35 51 90.5 81t120.5 30q118 0 199.5 -83t81.5 -200q0 -30 -5 -60h-398q12 -44 52.5 -71.5t86.5 -27.5q72 0 127 52l109 -67q-38 -50 -104.5 -80t-135.5 -30q-71 0 -129.5 30.5
t-94.5 80.5q-36 -50 -92 -80.5t-121 -30.5zM609 327h257q-5 48 -40.5 77.5t-87.5 29.5q-50 0 -86.5 -30t-42.5 -77zM314 134q59 0 100 41t41 100q0 58 -41 99t-100 41q-58 0 -99 -41t-41 -99q0 -59 41 -100t99 -41z" />
    <glyph glyph-name="Racute" unicode="&#x154;" horiz-adv-x="637" 
d="M326 802h-86l55 168h125zM219 0h-150v730h281q116 0 187 -68.5t71 -169.5q0 -72 -38.5 -129t-104.5 -81l157 -282h-171l-135 252h-97v-252zM219 584v-185h127q50 0 79 26.5t29 66.5q0 39 -29.5 65.5t-78.5 26.5h-127z" />
    <glyph glyph-name="racute" unicode="&#x155;" horiz-adv-x="431" 
d="M231 636h-86l55 168h125zM200 0h-141v550h128l10 -79q47 83 163 83q29 0 50 -4l-29 -135q-6 1 -17 1q-70 0 -117 -42t-47 -143v-231z" />
    <glyph glyph-name="uni0156" unicode="&#x156;" horiz-adv-x="637" 
d="M219 0h-150v730h281q116 0 187 -68.5t71 -169.5q0 -72 -38.5 -129t-104.5 -81l157 -282h-171l-135 252h-97v-252zM219 584v-185h127q50 0 79 26.5t29 66.5q0 39 -29.5 65.5t-78.5 26.5h-127zM324 -219h-105l35 170h125z" />
    <glyph glyph-name="uni0157" unicode="&#x157;" horiz-adv-x="431" 
d="M200 0h-141v550h128l10 -79q47 83 163 83q29 0 50 -4l-29 -135q-6 1 -17 1q-70 0 -117 -42t-47 -143v-231zM151 -212h-106l17 168h126z" />
    <glyph glyph-name="Rcaron" unicode="&#x158;" horiz-adv-x="637" 
d="M368 824h-114l-105 133h109l53 -64l52 64h109zM219 0h-150v730h281q116 0 187 -68.5t71 -169.5q0 -72 -38.5 -129t-104.5 -81l157 -282h-171l-135 252h-97v-252zM219 584v-185h127q50 0 79 26.5t29 66.5q0 39 -29.5 65.5t-78.5 26.5h-127z" />
    <glyph glyph-name="rcaron" unicode="&#x159;" horiz-adv-x="433" 
d="M293 654h-114l-105 133h109l53 -64l52 64h109zM201 0h-140v550h128l10 -79q49 83 164 83q28 0 49 -4l-29 -135q-5 1 -17 1q-71 0 -118 -42t-47 -143v-231z" />
    <glyph glyph-name="Sacute" unicode="&#x15a;" horiz-adv-x="604" 
d="M316 806h-86l55 168h125zM306 -14q-162 0 -267 118l93 95q79 -77 175 -77q51 0 81.5 22t30.5 60q0 28 -20 48t-52.5 33.5t-71 26t-77.5 30t-71.5 40.5t-52.5 62.5t-20 91.5q0 92 66.5 149.5t178.5 57.5q67 0 133 -29t113 -89l-104 -83q-23 30 -61 47.5t-76 18.5
q-47 0 -76 -20t-29 -50q0 -28 27 -48.5t67.5 -32.5t88 -30.5t88 -41t67.5 -67t27 -105.5q0 -102 -70.5 -165t-187.5 -62z" />
    <glyph glyph-name="sacute" unicode="&#x15b;" horiz-adv-x="548" 
d="M289 636h-86l55 168h125zM287 -13q-68 0 -136.5 23.5t-113.5 70.5l95 92q25 -25 69 -40t86 -15q83 0 83 43q0 19 -32.5 31.5t-79 23t-93 27.5t-79 56t-32.5 98q0 74 59 119t155 45q150 0 229 -91l-84 -85q-24 25 -64 38t-77 13q-36 0 -56.5 -10.5t-20.5 -28.5
q0 -17 32.5 -28.5t79.5 -22t93.5 -27.5t79 -56t32.5 -97q0 -88 -63.5 -133.5t-161.5 -45.5z" />
    <glyph glyph-name="Scircumflex" unicode="&#x15c;" horiz-adv-x="604" 
d="M242 824h-109l105 133h114l104 -133h-109l-52 64zM306 -14q-162 0 -267 118l93 95q79 -77 175 -77q51 0 81.5 22t30.5 60q0 28 -20 48t-52.5 33.5t-71 26t-77.5 30t-71.5 40.5t-52.5 62.5t-20 91.5q0 92 66.5 149.5t178.5 57.5q67 0 133 -29t113 -89l-104 -83
q-23 30 -61 47.5t-76 18.5q-47 0 -76 -20t-29 -50q0 -28 27 -48.5t67.5 -32.5t88 -30.5t88 -41t67.5 -67t27 -105.5q0 -102 -70.5 -165t-187.5 -62z" />
    <glyph glyph-name="scircumflex" unicode="&#x15d;" horiz-adv-x="548" 
d="M215 654h-109l104 133h114l105 -133h-109l-53 64zM287 -13q-68 0 -136.5 23.5t-113.5 70.5l95 92q25 -25 69 -40t86 -15q83 0 83 43q0 19 -32.5 31.5t-79 23t-93 27.5t-79 56t-32.5 98q0 74 59 119t155 45q150 0 229 -91l-84 -85q-24 25 -64 38t-77 13q-36 0 -56.5 -10.5
t-20.5 -28.5q0 -17 32.5 -28.5t79.5 -22t93.5 -27.5t79 -56t32.5 -97q0 -88 -63.5 -133.5t-161.5 -45.5z" />
    <glyph glyph-name="Scedilla" unicode="&#x15e;" horiz-adv-x="604" 
d="M285 -220q-63 0 -98 21l28 73q21 -14 58 -14q42 0 42 25q0 27 -47 27h-36l26 76q-132 18 -219 116l93 95q79 -77 175 -77q51 0 81.5 22t30.5 60q0 28 -20 48t-52.5 33.5t-71 26t-77.5 30t-71.5 40.5t-52.5 62.5t-20 91.5q0 92 66.5 149.5t178.5 57.5q67 0 133 -29
t113 -89l-104 -83q-23 30 -61 47.5t-76 18.5q-47 0 -76 -20t-29 -50q0 -28 27 -48.5t67.5 -32.5t88 -30.5t88 -41t67.5 -67t27 -105.5q0 -93 -60 -154t-162 -72l-11 -31q34 -7 52.5 -27.5t18.5 -51.5q0 -40 -34.5 -68.5t-82.5 -28.5z" />
    <glyph glyph-name="scedilla" unicode="&#x15f;" horiz-adv-x="548" 
d="M264 -220q-64 0 -97 21l28 73q21 -14 58 -14q42 0 42 25q0 27 -47 27h-35l23 78q-127 16 -199 91l95 92q25 -25 69 -40t86 -15q83 0 83 43q0 19 -32.5 31.5t-79 23t-93 27.5t-79 56t-32.5 98q0 74 59 119t155 45q150 0 229 -91l-84 -85q-24 25 -64 38t-77 13
q-36 0 -56.5 -10.5t-20.5 -28.5q0 -17 32.5 -28.5t79.5 -22t93.5 -27.5t79 -56t32.5 -97q0 -79 -52.5 -124.5t-137.5 -53.5l-11 -32q70 -14 70 -79q0 -40 -34 -68.5t-83 -28.5z" />
    <glyph glyph-name="Scaron" unicode="&#x160;" horiz-adv-x="604" 
d="M353 824h-114l-104 133h109l52 -64l52 64h109zM306 -14q-162 0 -267 118l93 95q79 -77 175 -77q51 0 81.5 22t30.5 60q0 28 -20 48t-52.5 33.5t-71 26t-77.5 30t-71.5 40.5t-52.5 62.5t-20 91.5q0 92 66.5 149.5t178.5 57.5q67 0 133 -29t113 -89l-104 -83
q-23 30 -61 47.5t-76 18.5q-47 0 -76 -20t-29 -50q0 -28 27 -48.5t67.5 -32.5t88 -30.5t88 -41t67.5 -67t27 -105.5q0 -102 -70.5 -165t-187.5 -62z" />
    <glyph glyph-name="scaron" unicode="&#x161;" horiz-adv-x="548" 
d="M331 654h-114l-104 133h109l52 -64l53 64h109zM287 -13q-68 0 -136.5 23.5t-113.5 70.5l95 92q25 -25 69 -40t86 -15q83 0 83 43q0 19 -32.5 31.5t-79 23t-93 27.5t-79 56t-32.5 98q0 74 59 119t155 45q150 0 229 -91l-84 -85q-24 25 -64 38t-77 13q-36 0 -56.5 -10.5
t-20.5 -28.5q0 -17 32.5 -28.5t79.5 -22t93.5 -27.5t79 -56t32.5 -97q0 -88 -63.5 -133.5t-161.5 -45.5z" />
    <glyph glyph-name="uni0162" unicode="&#x162;" horiz-adv-x="594" 
d="M311 -219q-63 0 -98 21l29 72q20 -13 58 -13q42 0 42 25q0 27 -47 27h-36l24 87h-60v586h-205v144h559v-144h-205v-586l-15 -43q71 -14 71 -80q0 -39 -34.5 -67.5t-82.5 -28.5z" />
    <glyph glyph-name="uni0163" unicode="&#x163;" horiz-adv-x="423" 
d="M207 -220q-63 0 -98 21l28 73q21 -14 58 -14q42 0 42 25q0 27 -47 27h-36l24 111q-88 59 -88 207v195h-72v125h77l20 180h116v-180h126v-125h-126v-194q0 -106 91 -106q21 0 38 7l35 -125q-42 -18 -94 -17q-20 0 -36 4l-12 -38q34 -7 52.5 -27.5t18.5 -51.5
q0 -40 -34.5 -68.5t-82.5 -28.5z" />
    <glyph glyph-name="Tcaron" unicode="&#x164;" horiz-adv-x="594" 
d="M354 824h-114l-104 133h109l52 -64l53 64h109zM372 0h-149v586h-205v144h559v-144h-205v-586z" />
    <glyph glyph-name="tcaron" unicode="&#x165;" horiz-adv-x="445" 
d="M372 611h-93l-17 236h126zM301 -10q-93 0 -152 57t-59 183v195h-72v125h77l20 180h116v-180h126v-125h-126v-194q0 -106 91 -106q21 0 38 7l35 -125q-38 -17 -94 -17z" />
    <glyph glyph-name="Tbar" unicode="&#x166;" horiz-adv-x="594" 
d="M372 0h-149v272h-113v113h113v201h-205v144h559v-144h-205v-201h113v-113h-113v-272z" />
    <glyph glyph-name="tbar" unicode="&#x167;" horiz-adv-x="445" 
d="M307 -10q-85 0 -147.5 55t-62.5 152v56h-73v81h72v91h-72v125h78l19 180h116v-180h126v-125h-126v-91h85v-81h-82v-53q4 -34 28 -54.5t60 -20.5q21 0 38 7l36 -125q-40 -17 -95 -17z" />
    <glyph glyph-name="Utilde" unicode="&#x168;" horiz-adv-x="693" 
d="M412 820q-30 -1 -54 15t-40 32t-27 15q-21 -2 -21 -49h-88q0 55 25 91.5t71 36.5q31 1 55 -14.5t39 -31.5t26 -15q21 2 21 48h87q0 -58 -23.5 -92.5t-70.5 -35.5zM346 -14q-124 0 -205.5 80.5t-81.5 210.5v453h150v-452q0 -67 38 -104.5t98 -37.5t99.5 37.5t39.5 104.5
v452h150v-453q0 -130 -82 -210.5t-206 -80.5z" />
    <glyph glyph-name="utilde" unicode="&#x169;" horiz-adv-x="616" 
d="M372 650q-31 -1 -55 15.5t-39.5 32t-26.5 14.5q-22 -2 -22 -49h-87q0 55 24.5 91.5t70.5 36.5q24 1 44.5 -8.5t32 -21.5t23.5 -22t21 -9q20 2 20 48h87q0 -58 -23.5 -92.5t-69.5 -35.5zM267 -9q-100 0 -158.5 69.5t-58.5 209.5v280h141v-280q0 -69 32 -104.5t81 -35.5
q48 0 80.5 35.5t32.5 104.5v280h140v-550h-128l-8 81q-24 -40 -64 -65t-90 -25z" />
    <glyph glyph-name="Umacron" unicode="&#x16a;" horiz-adv-x="693" 
d="M531 834h-375v112h375v-112zM346 -14q-124 0 -205.5 80.5t-81.5 210.5v453h150v-452q0 -67 38 -104.5t98 -37.5t99.5 37.5t39.5 104.5v452h150v-453q0 -130 -82 -210.5t-206 -80.5z" />
    <glyph glyph-name="umacron" unicode="&#x16b;" horiz-adv-x="616" 
d="M491 664h-375v112h375v-112zM267 -9q-100 0 -158.5 69.5t-58.5 209.5v280h141v-280q0 -69 32 -104.5t81 -35.5q48 0 80.5 35.5t32.5 104.5v280h140v-550h-128l-8 81q-24 -40 -64 -65t-90 -25z" />
    <glyph glyph-name="Ubreve" unicode="&#x16c;" horiz-adv-x="693" 
d="M344 817q-65 0 -110 42t-46 104h78q1 -30 23 -50t55 -20q32 0 54.5 20t23.5 50h77q-2 -62 -47 -104t-108 -42zM346 -14q-124 0 -205.5 80.5t-81.5 210.5v453h150v-452q0 -67 38 -104.5t98 -37.5t99.5 37.5t39.5 104.5v452h150v-453q0 -130 -82 -210.5t-206 -80.5z" />
    <glyph glyph-name="ubreve" unicode="&#x16d;" horiz-adv-x="616" 
d="M299 647q-64 0 -109 42t-47 104h78q1 -30 23.5 -50t54.5 -20q33 0 55 20t23 50h77q-1 -62 -46.5 -104t-108.5 -42zM267 -9q-100 0 -158.5 69.5t-58.5 209.5v280h141v-280q0 -69 32 -104.5t81 -35.5q48 0 80.5 35.5t32.5 104.5v280h140v-550h-128l-8 81q-24 -40 -64 -65
t-90 -25z" />
    <glyph glyph-name="Uring" unicode="&#x16e;" horiz-adv-x="693" 
d="M355 776q-50 0 -86 32t-36 82q0 51 36 83t86 32q48 0 84 -32t36 -83q0 -50 -36 -82t-84 -32zM355 850q16 0 27.5 11.5t11.5 28.5t-11.5 29t-27.5 12q-17 0 -28.5 -12t-11.5 -29t11.5 -28.5t28.5 -11.5zM346 -14q-124 0 -205.5 80.5t-81.5 210.5v453h150v-452
q0 -67 38 -104.5t98 -37.5t99.5 37.5t39.5 104.5v452h150v-453q0 -130 -82 -210.5t-206 -80.5z" />
    <glyph glyph-name="uring" unicode="&#x16f;" horiz-adv-x="616" 
d="M304 606q-49 0 -85 32t-36 82q0 51 36 83t85 32t85 -32t36 -83q0 -50 -36 -82t-85 -32zM304 680q16 0 27.5 11.5t11.5 28.5t-11.5 29t-27.5 12t-27.5 -12t-11.5 -29t11.5 -28.5t27.5 -11.5zM267 -9q-100 0 -158.5 69.5t-58.5 209.5v280h141v-280q0 -69 32 -104.5
t81 -35.5q48 0 80.5 35.5t32.5 104.5v280h140v-550h-128l-8 81q-24 -40 -64 -65t-90 -25z" />
    <glyph glyph-name="Uhungarumlaut" unicode="&#x170;" horiz-adv-x="693" 
d="M271 794h-81l82 192h116zM473 794h-81l82 192h117zM346 -14q-124 0 -205.5 80.5t-81.5 210.5v453h150v-452q0 -67 38 -104.5t98 -37.5t99.5 37.5t39.5 104.5v452h150v-453q0 -130 -82 -210.5t-206 -80.5z" />
    <glyph glyph-name="uhungarumlaut" unicode="&#x171;" horiz-adv-x="616" 
d="M215 624h-81l81 192h117zM417 624h-82l83 192h116zM267 -9q-100 0 -158.5 69.5t-58.5 209.5v280h141v-280q0 -69 32 -104.5t81 -35.5q48 0 80.5 35.5t32.5 104.5v280h140v-550h-128l-8 81q-24 -40 -64 -65t-90 -25z" />
    <glyph glyph-name="Uogonek" unicode="&#x172;" horiz-adv-x="693" 
d="M478 -178q-35 0 -61 26.5t-26 66.5q0 35 23 79q-28 -8 -68 -8q-124 0 -205.5 80.5t-81.5 210.5v453h150v-452q0 -67 38 -104.5t98 -37.5t99.5 37.5t39.5 104.5v452h150v-453q0 -157 -118 -241q-17 -25 -24 -37t-14 -28t-7 -29q0 -14 7 -23t18 -9q17 0 29 16l36 -57
q-26 -47 -83 -47z" />
    <glyph glyph-name="uogonek" unicode="&#x173;" horiz-adv-x="616" 
d="M516 -220q-35 0 -61 27t-26 67q0 11 1.5 22t6 21.5t7.5 18t10.5 18.5t10.5 15.5t11.5 16t10.5 14.5h-58l-8 81q-24 -40 -64 -65t-90 -25q-100 0 -158.5 69.5t-58.5 209.5v280h141v-280q0 -69 32 -104.5t81 -35.5q48 0 80.5 35.5t32.5 104.5v280h140v-550q-3 -4 -10 -15
t-9 -14.5t-7.5 -12.5t-7.5 -13t-5.5 -11.5t-5 -12t-2.5 -10.5t-1 -11q0 -13 7 -22.5t18 -9.5q17 0 29 16l37 -57q-28 -47 -84 -47z" />
    <glyph glyph-name="Wcircumflex" unicode="&#x174;" horiz-adv-x="1021" 
d="M459 824h-109l104 133h114l104 -133h-109l-52 64zM378 0h-152l-214 730h156l140 -474l137 476h131l138 -476l139 474h157l-214 -730h-153l-132 476z" />
    <glyph glyph-name="wcircumflex" unicode="&#x175;" horiz-adv-x="898" 
d="M397 654h-109l104 133h114l105 -133h-109l-53 64zM339 0h-138l-188 550h150l108 -333l107 333h142l108 -333l108 333h150l-189 -550h-137l-111 326z" />
    <glyph glyph-name="Ycircumflex" unicode="&#x176;" horiz-adv-x="653" 
d="M274 824h-109l105 133h114l104 -133h-109l-52 64zM401 0h-150v300l-243 430h169l150 -264l149 264h169l-244 -430v-300z" />
    <glyph glyph-name="ycircumflex" unicode="&#x177;" horiz-adv-x="567" 
d="M232 654h-109l104 133h114l104 -133h-109l-52 64zM115 -230q-58 0 -107 20l39 124q33 -11 62 -11q80 0 118 115l-212 532h151l124 -340l120 340h149l-193 -550q-43 -123 -103.5 -176.5t-147.5 -53.5z" />
    <glyph glyph-name="Ydieresis" unicode="&#x178;" horiz-adv-x="653" 
d="M226 825q-27 0 -46 19t-19 46q0 28 19 47t46 19t46.5 -19t19.5 -47q0 -27 -19.5 -46t-46.5 -19zM427 825q-27 0 -46 19t-19 46q0 28 19 47t46 19t46 -19t19 -47q0 -27 -19 -46t-46 -19zM401 0h-150v300l-243 430h169l150 -264l149 264h169l-244 -430v-300z" />
    <glyph glyph-name="Zacute" unicode="&#x179;" horiz-adv-x="641" 
d="M358 806h-86l54 168h126zM604 0h-566v147l354 437h-344v146h546v-147l-354 -436h364v-147z" />
    <glyph glyph-name="zacute" unicode="&#x17a;" horiz-adv-x="564" 
d="M298 636h-87l55 168h125zM520 0h-476v100l269 325h-269v125h462v-106l-256 -313h270v-131z" />
    <glyph glyph-name="Zdotaccent" unicode="&#x17b;" horiz-adv-x="641" 
d="M331 811q-32 0 -55 23t-23 56t23 56t55 23t55 -23t23 -56t-23 -56t-55 -23zM604 0h-566v147l354 437h-344v146h546v-147l-354 -436h364v-147z" />
    <glyph glyph-name="zdotaccent" unicode="&#x17c;" horiz-adv-x="564" 
d="M283 641q-33 0 -56 23t-23 56t23 56t56 23q32 0 55 -23t23 -56t-23 -56t-55 -23zM520 0h-476v100l269 325h-269v125h462v-106l-256 -313h270v-131z" />
    <glyph glyph-name="Zcaron" unicode="&#x17d;" horiz-adv-x="641" 
d="M385 824h-114l-104 133h109l52 -64l52 64h109zM604 0h-566v147l354 437h-344v146h546v-147l-354 -436h364v-147z" />
    <glyph glyph-name="zcaron" unicode="&#x17e;" horiz-adv-x="564" 
d="M340 654h-114l-105 133h109l53 -64l52 64h109zM520 0h-476v100l269 325h-269v125h462v-106l-256 -313h270v-131z" />
    <glyph glyph-name="longs" unicode="&#x17f;" horiz-adv-x="382" 
d="M200 564v-564l-141 1v563q0 120 60.5 176.5t153.5 56.5q49 0 92 -15l-36 -125q-35 5 -42 5q-87 0 -87 -98z" />
    <glyph glyph-name="uni018F" unicode="&#x18f;" horiz-adv-x="783" 
d="M392 -10q-152 0 -251 107.5t-99 267.5q0 38 5 62h546q-14 82 -73 129t-148 47q-49 0 -99 -18.5t-78 -49.5l-110 85q48 55 126.5 87.5t160.5 32.5q167 0 268.5 -104t101.5 -271q0 -160 -99 -267.5t-251 -107.5zM392 127q76 0 130.5 49t68.5 126h-400q14 -77 69 -126
t132 -49z" />
    <glyph glyph-name="florin" unicode="&#x192;" horiz-adv-x="479" 
d="M96 -17q-49 0 -92 15l35 125q23 -5 42 -5q89 0 89 98v210h-50v124h50v14q0 120 60.5 176.5t153.5 56.5q49 0 92 -15l-36 -125q-35 5 -42 5q-88 0 -88 -98v-14h129v-124h-129v-210q0 -119 -60.5 -176t-153.5 -57z" />
    <glyph glyph-name="uni019D" unicode="&#x19d;" horiz-adv-x="773" 
d="M-4 -174v149q80 0 83 96v659h151l325 -464v464h149v-730h-149l-325 465v-394q-1 -118 -64.5 -181.5t-169.5 -63.5z" />
    <glyph glyph-name="Ohorn" unicode="&#x1a0;" horiz-adv-x="842" 
d="M420 -15q-157 0 -267.5 111.5t-110.5 268.5q0 156 110.5 267t267.5 111q148 0 257 -101q13 1 23.5 10t10.5 26v83h79v-109q0 -54 -55 -80q63 -95 63 -207q0 -157 -110.5 -268.5t-267.5 -111.5zM420 139q93 0 158.5 66t65.5 160q0 93 -66 159t-158 66t-158.5 -66
t-66.5 -159q0 -94 66 -160t159 -66z" />
    <glyph glyph-name="ohorn" unicode="&#x1a1;" 
d="M314 -9q-117 0 -199.5 83.5t-82.5 200.5t82.5 200t199.5 83q96 0 174 -62q27 6 27 35v82h80v-109q0 -47 -45 -74q48 -70 48 -155q0 -117 -83.5 -200.5t-200.5 -83.5zM314 134q59 0 100 41t41 100q0 58 -41 99t-100 41q-58 0 -99 -41t-41 -99q0 -59 41 -100t99 -41z" />
    <glyph glyph-name="Uhorn" unicode="&#x1af;" horiz-adv-x="716" 
d="M346 -14q-124 0 -205.5 80.5t-81.5 210.5v453h150v-452q0 -67 38 -104.5t98 -37.5t99.5 37.5t39.5 104.5v452h112q33 0 33 27v74h79v-101q0 -32 -20.5 -53.5t-53.5 -28.5v-371q0 -130 -82 -210.5t-206 -80.5z" />
    <glyph glyph-name="uhorn" unicode="&#x1b0;" horiz-adv-x="619" 
d="M267 -9q-100 0 -158.5 69.5t-58.5 209.5v280h141v-280q0 -69 32 -104.5t81 -35.5q48 0 80.5 35.5t32.5 104.5v280h91q26 4 26 30v82h79v-109q0 -51 -56 -75v-478h-128l-8 81q-24 -40 -64 -65t-90 -25z" />
    <glyph glyph-name="uni01CD" unicode="&#x1cd;" horiz-adv-x="673" 
d="M397 824h-114l-104 133h109l52 -64l53 64h109zM170 0h-165l251 730h161l251 -730h-164l-48 149h-237zM337 526l-77 -238h154z" />
    <glyph glyph-name="uni01CE" unicode="&#x1ce;" horiz-adv-x="662" 
d="M378 654h-114l-104 133h109l52 -64l53 64h109zM292 -8q-108 0 -184 83.5t-76 200.5t76 200t184 83q56 0 103 -28t72 -72l9 91h128v-550h-128l-9 92q-25 -44 -72 -72t-103 -28zM318 131q61 0 103 42.5t42 102.5t-42 102.5t-103 42.5q-60 0 -102 -42.5t-42 -102.5
t42 -102.5t102 -42.5z" />
    <glyph glyph-name="uni01CF" unicode="&#x1cf;" horiz-adv-x="287" 
d="M201 824h-114l-105 133h110l52 -64l52 64h109zM219 0h-150v730h150v-730z" />
    <glyph glyph-name="uni01D0" unicode="&#x1d0;" horiz-adv-x="258" 
d="M187 654h-114l-105 133h110l52 -64l52 64h109zM200 0h-141v550h141v-550z" />
    <glyph glyph-name="uni01D1" unicode="&#x1d1;" horiz-adv-x="839" 
d="M469 824h-114l-104 133h109l52 -64l52 64h109zM420 -15q-157 0 -267.5 111.5t-110.5 268.5q0 156 110.5 267t267.5 111t267.5 -111t110.5 -267q0 -157 -110.5 -268.5t-267.5 -111.5zM420 139q93 0 158.5 66t65.5 160q0 93 -66 159t-158 66t-158.5 -66t-66.5 -159
q0 -94 66 -160t159 -66z" />
    <glyph glyph-name="uni01D2" unicode="&#x1d2;" 
d="M372 654h-114l-104 133h109l52 -64l52 64h109zM314 -9q-117 0 -199.5 83.5t-82.5 200.5t82.5 200t199.5 83t200.5 -83.5t83.5 -199.5q0 -117 -83.5 -200.5t-200.5 -83.5zM314 134q59 0 100 41t41 100q0 58 -41 99t-100 41q-58 0 -99 -41t-41 -99q0 -59 41 -100t99 -41z
" />
    <glyph glyph-name="uni01D3" unicode="&#x1d3;" horiz-adv-x="693" 
d="M404 824h-114l-105 133h109l53 -64l52 64h109zM346 -14q-124 0 -205.5 80.5t-81.5 210.5v453h150v-452q0 -67 38 -104.5t98 -37.5t99.5 37.5t39.5 104.5v452h150v-453q0 -130 -82 -210.5t-206 -80.5z" />
    <glyph glyph-name="uni01D4" unicode="&#x1d4;" horiz-adv-x="616" 
d="M361 654h-114l-104 133h109l52 -64l52 64h109zM267 -9q-100 0 -158.5 69.5t-58.5 209.5v280h141v-280q0 -69 32 -104.5t81 -35.5q48 0 80.5 35.5t32.5 104.5v280h140v-550h-128l-8 81q-24 -40 -64 -65t-90 -25z" />
    <glyph glyph-name="uni01D5" unicode="&#x1d5;" horiz-adv-x="693" 
d="M534 993h-375v112h375v-112zM245 808q-27 0 -46 19t-19 46q0 28 19 47t46 19t46 -19t19 -47q0 -27 -19 -46t-46 -19zM446 808q-27 0 -46.5 19t-19.5 46q0 28 19.5 47t46.5 19q26 0 45.5 -19.5t19.5 -46.5t-19.5 -46t-45.5 -19zM346 -14q-124 0 -205.5 80.5t-81.5 210.5
v453h150v-452q0 -67 38 -104.5t98 -37.5t99.5 37.5t39.5 104.5v452h150v-453q0 -130 -82 -210.5t-206 -80.5z" />
    <glyph glyph-name="uni01D6" unicode="&#x1d6;" horiz-adv-x="616" 
d="M491 809h-375v113h375v-113zM203 624q-28 0 -47 19t-19 47q0 27 19 46t47 19q26 0 45 -19t19 -46q0 -28 -19 -47t-45 -19zM403 624q-27 0 -46.5 19t-19.5 47q0 27 19.5 46t46.5 19t46 -19t19 -46q0 -28 -19 -47t-46 -19zM267 -9q-100 0 -158.5 69.5t-58.5 209.5v280h141
v-280q0 -69 32 -104.5t81 -35.5q48 0 80.5 35.5t32.5 104.5v280h140v-550h-128l-8 81q-24 -40 -64 -65t-90 -25z" />
    <glyph glyph-name="uni01D7" unicode="&#x1d7;" horiz-adv-x="693" 
d="M397 963h-86l54 168h126zM246 782q-27 0 -46 19t-19 46q0 28 19 47t46 19t46.5 -19t19.5 -47q0 -27 -19.5 -46t-46.5 -19zM447 782q-27 0 -46 19t-19 46q0 28 19 47t46 19t46 -19t19 -47q0 -27 -19 -46t-46 -19zM346 -14q-124 0 -205.5 80.5t-81.5 210.5v453h150v-452
q0 -67 38 -104.5t98 -37.5t99.5 37.5t39.5 104.5v452h150v-453q0 -130 -82 -210.5t-206 -80.5z" />
    <glyph glyph-name="uni01D8" unicode="&#x1d8;" horiz-adv-x="616" 
d="M354 780h-86l54 168h126zM203 599q-26 0 -45.5 19t-19.5 46q0 28 19 47t46 19t46.5 -19t19.5 -47q0 -27 -19.5 -46t-46.5 -19zM404 599q-27 0 -46 19t-19 46q0 28 19 47t46 19t46 -19t19 -47q0 -27 -19 -46t-46 -19zM267 -9q-100 0 -158.5 69.5t-58.5 209.5v280h141v-280
q0 -69 32 -104.5t81 -35.5q48 0 80.5 35.5t32.5 104.5v280h140v-550h-128l-8 81q-24 -40 -64 -65t-90 -25z" />
    <glyph glyph-name="uni01D9" unicode="&#x1d9;" horiz-adv-x="693" 
d="M400 981h-114l-104 133h109l52 -64l52 64h109zM244 800q-27 0 -46.5 19t-19.5 46q0 28 19.5 47t46.5 19t46 -19t19 -47t-19 -46.5t-46 -18.5zM445 800q-28 0 -47 18.5t-19 46.5t19 47t47 19q27 0 46 -19t19 -47t-19 -46.5t-46 -18.5zM346 -14q-124 0 -205.5 80.5
t-81.5 210.5v453h150v-452q0 -67 38 -104.5t98 -37.5t99.5 37.5t39.5 104.5v452h150v-453q0 -130 -82 -210.5t-206 -80.5z" />
    <glyph glyph-name="uni01DA" unicode="&#x1da;" horiz-adv-x="616" 
d="M361 797h-114l-104 133h109l52 -64l52 64h109zM206 616q-28 0 -47 19t-19 46q0 28 19 47t47 19q26 0 45 -19t19 -47q0 -27 -19 -46t-45 -19zM406 616q-27 0 -46.5 19t-19.5 46q0 28 19.5 47t46.5 19t46 -19t19 -47q0 -27 -19 -46t-46 -19zM267 -9q-100 0 -158.5 69.5
t-58.5 209.5v280h141v-280q0 -69 32 -104.5t81 -35.5q48 0 80.5 35.5t32.5 104.5v280h140v-550h-128l-8 81q-24 -40 -64 -65t-90 -25z" />
    <glyph glyph-name="uni01DB" unicode="&#x1db;" horiz-adv-x="693" 
d="M392 963h-86l-94 168h126zM242 782q-27 0 -46.5 19t-19.5 46q0 28 19.5 47t46.5 19q26 0 45.5 -19.5t19.5 -46.5t-19 -46t-46 -19zM443 782q-28 0 -47 18.5t-19 46.5t19 47t47 19q26 0 45 -19t19 -47q0 -27 -18.5 -46t-45.5 -19zM346 -14q-124 0 -205.5 80.5t-81.5 210.5
v453h150v-452q0 -67 38 -104.5t98 -37.5t99.5 37.5t39.5 104.5v452h150v-453q0 -130 -82 -210.5t-206 -80.5z" />
    <glyph glyph-name="uni01DC" unicode="&#x1dc;" horiz-adv-x="616" 
d="M354 780h-86l-94 168h125zM203 599q-26 0 -45.5 19t-19.5 46q0 28 19 47t46 19t46.5 -19t19.5 -47q0 -27 -19.5 -46t-46.5 -19zM404 599q-27 0 -46 19t-19 46q0 28 19 47t46 19t46 -19t19 -47q0 -27 -19 -46t-46 -19zM267 -9q-100 0 -158.5 69.5t-58.5 209.5v280h141
v-280q0 -69 32 -104.5t81 -35.5q48 0 80.5 35.5t32.5 104.5v280h140v-550h-128l-8 81q-24 -40 -64 -65t-90 -25z" />
    <glyph glyph-name="uni01DE" unicode="&#x1de;" horiz-adv-x="673" 
d="M524 974h-375v113h375v-113zM236 789q-28 0 -47 19t-19 47q0 27 19 46t47 19q26 0 45 -19t19 -46q0 -28 -19 -47t-45 -19zM436 789q-27 0 -46.5 19t-19.5 47q0 27 19.5 46t46.5 19t46 -19t19 -46q0 -28 -19 -47t-46 -19zM170 0h-165l251 730h161l251 -730h-164l-48 149
h-237zM337 526l-77 -238h154z" />
    <glyph glyph-name="uni01DF" unicode="&#x1df;" horiz-adv-x="662" 
d="M522 809h-375v113h375v-113zM233 624q-27 0 -46 19t-19 47q0 27 19 46t46 19t46 -19t19 -46q0 -28 -19 -47t-46 -19zM433 624q-27 0 -46 19t-19 47q0 27 19.5 46t45.5 19q27 0 46.5 -19t19.5 -46q0 -28 -19.5 -47t-46.5 -19zM292 -8q-108 0 -184 83.5t-76 200.5t76 200
t184 83q56 0 103 -28t72 -72l9 91h128v-550h-128l-9 92q-25 -44 -72 -72t-103 -28zM318 131q61 0 103 42.5t42 102.5t-42 102.5t-103 42.5q-60 0 -102 -42.5t-42 -102.5t42 -102.5t102 -42.5z" />
    <glyph glyph-name="uni01E2" unicode="&#x1e2;" horiz-adv-x="949" 
d="M654 834h-375v112h375v-112zM912 0h-469v196h-210l-62 -196h-166l252 730h647v-137h-313v-151h293v-136h-293v-162h321v-144zM357 593l-83 -258h169v258h-86z" />
    <glyph glyph-name="uni01E3" unicode="&#x1e3;" horiz-adv-x="968" 
d="M676 664h-375v112h375v-112zM256 -10q-101 0 -159.5 48.5t-58.5 124.5t55.5 126t155.5 50h141q-1 44 -33 72t-87 28q-77 0 -130 -43l-83 72q90 90 233 90q62 0 113.5 -23.5t80.5 -68.5q32 43 81.5 67.5t105.5 24.5q105 0 180 -76t75 -186q0 -42 -5 -72h-375
q3 -51 44 -81.5t92 -30.5q84 0 128 49l98 -62q-38 -51 -100 -80t-127 -29q-68 0 -123.5 29.5t-88.5 80.5q-32 -52 -88 -81t-125 -29zM547 339h242q-6 38 -39 63.5t-81 25.5t-81 -26.5t-41 -62.5zM270 120q56 0 88 27.5t32 60.5v16h-117q-42 0 -65 -14.5t-23 -38.5
t22.5 -37.5t62.5 -13.5z" />
    <glyph glyph-name="Gcaron" unicode="&#x1e6;" horiz-adv-x="829" 
d="M464 824h-114l-104 133h109l52 -64l52 64h109zM420 -15q-157 0 -267.5 111.5t-110.5 268.5q0 156 110.5 267t267.5 111q90 0 168.5 -39.5t131.5 -108.5l-134 -80q-67 75 -166 75q-92 0 -158.5 -66t-66.5 -159q0 -94 66 -160t159 -66q79 0 131.5 42t64.5 113h-224v137h389
q7 -29 7 -66q0 -170 -102 -275t-266 -105z" />
    <glyph glyph-name="gcaron" unicode="&#x1e7;" horiz-adv-x="662" 
d="M369 654h-114l-104 133h109l52 -64l52 64h109zM296 -233q-70 0 -134.5 29.5t-103.5 80.5l106 83q53 -59 140 -59q67 0 113 40.5t46 118.5v27q-25 -41 -71 -68t-100 -27q-108 0 -184 83.5t-76 200.5t76 200t184 83q56 0 103 -28t72 -72l9 91h128v-464q0 -155 -83.5 -237
t-224.5 -82zM318 131q61 0 103 42.5t42 102.5t-42 102.5t-103 42.5q-60 0 -102 -42.5t-42 -102.5t42 -102.5t102 -42.5z" />
    <glyph glyph-name="uni01EA" unicode="&#x1ea;" horiz-adv-x="839" 
d="M552 -186q-36 0 -61.5 26.5t-25.5 66.5q0 39 26 85q-32 -7 -71 -7q-157 0 -267.5 111.5t-110.5 268.5q0 156 110.5 267t267.5 111t267.5 -111t110.5 -267q0 -110 -58 -201.5t-153 -137.5q-43 -66 -43 -92q0 -13 7.5 -22.5t17.5 -9.5q19 0 30 16l36 -58q-26 -46 -83 -46z
M420 139q93 0 158.5 66t65.5 160q0 93 -66 159t-158 66t-158.5 -66t-66.5 -159q0 -94 66 -160t159 -66z" />
    <glyph glyph-name="uni01EB" unicode="&#x1eb;" 
d="M391 -194q-36 0 -61.5 26.5t-25.5 66.5q0 44 31 93q-7 -1 -21 -1q-117 0 -199.5 83.5t-82.5 200.5t82.5 200t199.5 83t200.5 -83.5t83.5 -199.5q0 -86 -48 -156.5t-126 -102.5q-41 -66 -41 -90q0 -13 7.5 -22.5t17.5 -9.5q18 0 30 16l36 -57q-26 -47 -83 -47zM314 134
q59 0 100 41t41 100q0 58 -41 99t-100 41q-58 0 -99 -41t-41 -99q0 -59 41 -100t99 -41z" />
    <glyph glyph-name="Aringacute" unicode="&#x1fa;" horiz-adv-x="673" 
d="M423 987h-87l55 168h125zM339 740q-49 0 -85 32t-36 82q0 51 36 83.5t85 32.5t85 -32.5t36 -83.5q0 -50 -36 -82t-85 -32zM339 815q17 0 28.5 11.5t11.5 27.5q0 17 -11.5 29t-28.5 12q-16 0 -27.5 -12t-11.5 -29q0 -16 11 -27.5t28 -11.5zM170 0h-165l251 730h161
l251 -730h-164l-48 149h-237zM337 526l-77 -238h154z" />
    <glyph glyph-name="aringacute" unicode="&#x1fb;" horiz-adv-x="662" 
d="M409 836h-86l55 168h125zM326 589q-49 1 -85 33.5t-36 81.5q0 51 36 82.5t85 32.5t85 -31.5t36 -83.5q0 -50 -36 -82.5t-85 -32.5zM326 664q17 1 28 12.5t11 27.5q0 17 -11 28.5t-28 11.5q-16 1 -27.5 -11t-11.5 -29t11.5 -28.5t27.5 -11.5zM292 -8q-108 0 -184 83.5
t-76 200.5t76.5 200t183.5 83q56 0 103 -28t72 -72l9 91h128v-550h-128l-9 92q-25 -44 -72 -72t-103 -28zM318 131q61 0 103 42.5t42 102.5t-42 102.5t-103 42.5q-60 0 -102 -42.5t-42 -102.5t42 -102.5t102 -42.5z" />
    <glyph glyph-name="AEacute" unicode="&#x1fc;" horiz-adv-x="949" 
d="M440 974h125l-93 -168h-87zM591 362v-158h318v-144h-461v96h-94l-45 -156h-232l203 654h503l-16 -156h120v-136h-296zM274 335h169v258h-86z" />
    <glyph glyph-name="aeacute" unicode="&#x1fd;" horiz-adv-x="968" 
d="M518 636h-86l54 168h126zM255 -10q-101 0 -159 48.5t-58 124.5t55.5 126t155.5 50h141q-1 44 -33 72t-87 28q-77 0 -130 -43l-83 72q90 90 233 90q62 0 113.5 -23.5t80.5 -68.5q32 43 81.5 67.5t105.5 24.5q105 0 180 -76t75 -186q0 -42 -5 -72h-375q3 -51 44 -81.5
t92 -30.5q84 0 128 49l98 -62q-38 -51 -100 -80t-127 -29q-68 0 -123.5 29.5t-88.5 80.5q-32 -52 -88 -81t-126 -29zM547 339h242q-6 38 -39 63.5t-81 25.5t-81 -26.5t-41 -62.5zM270 120q56 0 88 27.5t32 60.5v16h-117q-42 0 -65 -14.5t-23 -38.5t22.5 -37.5t62.5 -13.5z
" />
    <glyph glyph-name="Oslashacute" unicode="&#x1fe;" horiz-adv-x="853" 
d="M421 806h-86l55 168h125zM427 -15q-124 0 -224 76l-73 -72l-80 79l73 73q-75 101 -75 224q0 156 111 267.5t268 111.5q124 0 224 -76l73 73l79 -79l-73 -73q75 -99 75 -224q0 -157 -110.5 -268.5t-267.5 -111.5zM238 255l299 299q-49 36 -110 36q-93 0 -159 -66t-66 -158
q0 -62 36 -111zM427 139q93 0 159 66.5t66 160.5q0 60 -36 109l-299 -299q48 -37 110 -37z" />
    <glyph glyph-name="oslashacute" unicode="&#x1ff;" horiz-adv-x="646" 
d="M352 636h-86l54 168h126zM323 -7q-92 0 -166 55l-65 -65l-63 63l65 65q-55 74 -55 167q0 117 83 200.5t201 83.5q93 0 168 -56l64 65l62 -63l-64 -64q55 -74 55 -166q0 -118 -83.5 -201.5t-201.5 -83.5zM322 438q-66 0 -111.5 -46.5t-45.5 -112.5q0 -43 23 -74l209 207
q-34 26 -75 26zM322 118q67 0 114 47t47 114q0 39 -24 71l-208 -208q30 -24 71 -24z" />
    <glyph glyph-name="uni0218" unicode="&#x218;" horiz-adv-x="604" 
d="M306 -14q-162 0 -267 118l93 95q79 -77 175 -77q51 0 81.5 22t30.5 60q0 28 -20 48t-52.5 33.5t-71 26t-77.5 30t-71.5 40.5t-52.5 62.5t-20 91.5q0 92 66.5 149.5t178.5 57.5q67 0 133 -29t113 -89l-104 -83q-23 30 -61 47.5t-76 18.5q-47 0 -76 -20t-29 -50
q0 -28 27 -48.5t67.5 -32.5t88 -30.5t88 -41t67.5 -67t27 -105.5q0 -102 -70.5 -165t-187.5 -62zM338 -218h-107l18 167h125z" />
    <glyph glyph-name="uni0219" unicode="&#x219;" horiz-adv-x="548" 
d="M287 -13q-68 0 -136.5 23.5t-113.5 70.5l95 92q25 -25 69 -40t86 -15q83 0 83 43q0 19 -32.5 31.5t-79 23t-93 27.5t-79 56t-32.5 98q0 74 59 119t155 45q150 0 229 -91l-84 -85q-24 25 -64 38t-77 13q-36 0 -56.5 -10.5t-20.5 -28.5q0 -17 32.5 -28.5t79.5 -22
t93.5 -27.5t79 -56t32.5 -97q0 -88 -63.5 -133.5t-161.5 -45.5zM309 -212h-106l17 168h126z" />
    <glyph glyph-name="uni021A" unicode="&#x21a;" horiz-adv-x="594" 
d="M372 0h-149v586h-205v144h559v-144h-205v-586zM332 -212h-106l17 168h126z" />
    <glyph glyph-name="uni021B" unicode="&#x21b;" horiz-adv-x="423" 
d="M301 -10q-93 0 -152 57t-59 183v195h-72v125h77l20 180h116v-180h126v-125h-126v-194q0 -106 91 -106q21 0 38 7l35 -125q-38 -17 -94 -17zM235 -212h-107l18 168h125z" />
    <glyph glyph-name="uni0228" unicode="&#x228;" horiz-adv-x="581" 
d="M273 -220q-63 0 -98 21l28 73q21 -14 58 -14q42 0 42 25q0 27 -47 27h-36l24 88h-175v730h461v-137h-312v-152h292v-135h-292v-162h322v-144h-207l-14 -44q34 -7 52.5 -27.5t18.5 -51.5q0 -40 -34.5 -68.5t-82.5 -28.5z" />
    <glyph glyph-name="uni0229" unicode="&#x229;" horiz-adv-x="625" 
d="M303 -220q-64 0 -97 21l27 73q23 -14 58 -14q42 0 42 25q0 27 -47 27h-35l24 82q-108 18 -175.5 97t-67.5 184q0 117 82 200t199 83q118 0 199.5 -83t81.5 -200q0 -22 -4 -56h-407q11 -43 50.5 -70.5t92.5 -27.5q81 0 127 51l113 -71q-73 -93 -205 -108l-11 -37
q70 -14 70 -79q0 -40 -34 -68.5t-83 -28.5zM183 331h265q-6 40 -43 68t-91 28q-53 0 -88.5 -28t-42.5 -68z" />
    <glyph glyph-name="uni022A" unicode="&#x22a;" horiz-adv-x="839" 
d="M600 961h-375v113h375v-113zM312 789q-27 0 -46.5 19t-19.5 47q0 27 19.5 46t46.5 19q26 0 45.5 -19t19.5 -46t-19.5 -46.5t-45.5 -19.5zM513 789q-28 0 -47 19t-19 47q0 27 19 46t47 19q26 0 45 -19t19 -46q0 -28 -19 -47t-45 -19zM420 -15q-157 0 -267.5 111.5
t-110.5 268.5q0 156 110.5 267t267.5 111t267.5 -111t110.5 -267q0 -157 -110.5 -268.5t-267.5 -111.5zM420 139q93 0 158.5 66t65.5 160q0 93 -66 159t-158 66t-158.5 -66t-66.5 -159q0 -94 66 -160t159 -66z" />
    <glyph glyph-name="uni022B" unicode="&#x22b;" 
d="M503 809h-375v113h375v-113zM214 624q-28 0 -47 19t-19 47q0 27 19 46t47 19q27 0 46 -19t19 -46q0 -28 -19 -47t-46 -19zM414 624q-27 0 -46 19t-19 47q0 27 19 46t46 19t46.5 -19t19.5 -46q0 -28 -19.5 -47t-46.5 -19zM314 -9q-117 0 -199.5 83.5t-82.5 200.5t82.5 200
t199.5 83t200.5 -83.5t83.5 -199.5q0 -117 -83.5 -200.5t-200.5 -83.5zM314 134q59 0 100 41t41 100q0 58 -41 99t-100 41q-58 0 -99 -41t-41 -99q0 -59 41 -100t99 -41z" />
    <glyph glyph-name="uni0232" unicode="&#x232;" horiz-adv-x="653" 
d="M513 841h-375v112h375v-112zM401 0h-150v300l-243 430h169l150 -264l149 264h169l-244 -430v-300z" />
    <glyph glyph-name="uni0233" unicode="&#x233;" horiz-adv-x="567" 
d="M469 664h-375v112h375v-112zM115 -230q-58 0 -107 20l39 124q33 -11 62 -11q70 0 110 97l-204 550h151l124 -340l120 340h149l-193 -550q-43 -123 -103.5 -176.5t-147.5 -53.5z" />
    <glyph glyph-name="uni0237" unicode="&#x237;" horiz-adv-x="287" 
d="M19 -233q-53 0 -96 17l36 128q20 -6 39 -6q94 0 94 129v515h140v-515q0 -142 -59 -205t-154 -63z" />
    <glyph glyph-name="uni0259" unicode="&#x259;" horiz-adv-x="625" 
d="M313 -9q-118 0 -199.5 82.5t-81.5 199.5q0 8 3 56h408q-11 43 -51 70.5t-93 27.5q-82 0 -127 -50l-112 71q39 50 104.5 80t134.5 30q127 0 211 -83t84 -202q0 -116 -82.5 -199t-198.5 -83zM312 121q52 0 88 28t42 69h-265q7 -41 44 -69t91 -28z" />
    <glyph glyph-name="uni0272" unicode="&#x272;" horiz-adv-x="617" 
d="M-24 -174v130q84 0 84 110v484h128l9 -80q24 40 63.5 64.5t89.5 24.5q100 0 158.5 -69t58.5 -209v-281h-141v281q0 69 -32.5 104.5t-80.5 35.5t-80.5 -35.5t-32.5 -104.5v-216q-1 -119 -60 -179t-164 -60z" />
    <glyph glyph-name="circumflex" unicode="&#x2c6;" horiz-adv-x="363" 
d="M129 598h-109l105 132h114l104 -132h-109l-52 63z" />
    <glyph glyph-name="caron" unicode="&#x2c7;" horiz-adv-x="363" 
d="M239 598h-114l-105 132h109l53 -63l52 63h109z" />
    <glyph glyph-name="breve" unicode="&#x2d8;" horiz-adv-x="351" 
d="M176 634q-64 0 -109 41.5t-47 104.5h77q2 -31 24.5 -50.5t54.5 -19.5t54.5 20t23.5 50h77q-1 -62 -46 -104t-109 -42z" />
    <glyph glyph-name="dotaccent" unicode="&#x2d9;" horiz-adv-x="196" 
d="M99 581q-33 0 -56 23t-23 55q0 33 23 56t56 23q32 0 55 -23t23 -56q0 -32 -23 -55t-55 -23z" />
    <glyph glyph-name="ring" unicode="&#x2da;" horiz-adv-x="282" 
d="M141 556q-49 0 -85 32.5t-36 82.5t36 82.5t85 32.5t85 -32.5t36 -82.5t-36 -82.5t-85 -32.5zM141 631q17 0 28.5 11.5t11.5 28.5t-11.5 28.5t-28.5 11.5q-16 0 -27.5 -11.5t-11.5 -28.5t11.5 -28.5t27.5 -11.5z" />
    <glyph glyph-name="ogonek" unicode="&#x2db;" horiz-adv-x="210" 
d="M107 -220q-35 0 -61 27t-26 67q0 50 53 126h75q-3 -4 -10 -15t-9 -14.5t-7.5 -12.5t-7.5 -13t-5.5 -11.5t-5 -12t-2.5 -10.5t-1 -11q0 -14 7 -23t18 -9q15 0 29 16l36 -57q-26 -47 -83 -47z" />
    <glyph glyph-name="tilde" unicode="&#x2dc;" horiz-adv-x="364" 
d="M251 602q-31 -1 -55 15t-39.5 32t-26.5 15q-23 -2 -23 -49h-87q0 54 24.5 91t70.5 37q31 1 55 -14.5t39.5 -31.5t26.5 -15q20 2 20 48h88q0 -58 -23.5 -92.5t-69.5 -35.5z" />
    <glyph glyph-name="hungarumlaut" unicode="&#x2dd;" horiz-adv-x="496" 
d="M129 588h-81l81 192h118zM331 588h-81l82 192h116z" />
    <glyph glyph-name="hookabovecomb" unicode="&#x309;" horiz-adv-x="0" 
d="M-196 654v61q61 0 61 27q0 25 -41 25q-39 0 -59 -14l-27 72q31 22 97 22q49 0 83 -28.5t34 -68.5q0 -41 -39.5 -68.5t-108.5 -27.5z" />
    <glyph glyph-name="uni031B" unicode="&#x31b;" horiz-adv-x="0" 
d="M-163 557v86q13 0 24.5 8.5t11.5 26.5v83h79v-109q0 -45 -36.5 -70t-78.5 -25z" />
    <glyph glyph-name="uni0326" unicode="&#x326;" horiz-adv-x="0" 
d="M-78 -191h-106l17 167h126z" />
    <glyph glyph-name="uni0394" unicode="&#x394;" horiz-adv-x="717" 
d="M700 0h-682v112l289 618h104l289 -618v-112zM359 576l-216 -464h432z" />
    <glyph glyph-name="uni03A9" unicode="&#x3a9;" horiz-adv-x="832" 
d="M331 0h-280v131h112q-57 45 -89 111.5t-32 143.5q0 148 109 251t265 103t265.5 -103t109.5 -251q0 -76 -33 -143t-90 -112h112v-131h-281v131q64 25 109 90t45 144q0 102 -67.5 169.5t-169.5 67.5t-169.5 -67.5t-67.5 -169.5q0 -78 44.5 -143.5t107.5 -90.5v-131z" />
    <glyph glyph-name="uni03BC" unicode="&#x3bc;" horiz-adv-x="642" 
d="M209 -220h-141v770h141v-282q0 -70 31.5 -106t81.5 -36q49 0 82 36t33 106v282h140v-550h-140v57q-56 -69 -146 -69q-56 0 -82 47v-255z" />
    <glyph glyph-name="uni1E04" unicode="&#x1e04;" horiz-adv-x="646" 
d="M368 0h-299v730h270q103 0 169.5 -52.5t66.5 -139.5q0 -90 -75 -145q53 -23 84 -68.5t31 -107.5q0 -95 -69 -156t-178 -61zM219 594v-153l127 1q37 2 59.5 22.5t22.5 51.5q0 34 -24.5 56t-67.5 22h-117zM219 312v-168h144q46 0 72 23t26 61t-27 61t-67 23h-148zM309 -197
q-33 0 -56 23t-23 55q0 33 23 56t56 23q32 0 54.5 -23t22.5 -56q0 -32 -22.5 -55t-54.5 -23z" />
    <glyph glyph-name="uni1E05" unicode="&#x1e05;" horiz-adv-x="662" 
d="M371 -8q-56 0 -103.5 28t-71.5 72l-9 -92h-128v780h141v-316q24 42 70.5 68.5t100.5 26.5q107 0 183.5 -83t76.5 -200t-76.5 -200.5t-183.5 -83.5zM345 131q60 0 102 42.5t42 102.5t-42 102.5t-102 42.5q-61 0 -103 -42.5t-42 -102.5t42 -102.5t103 -42.5zM353 -207
q-32 0 -55 23t-23 56q0 32 23 55t55 23t55 -23t23 -55q0 -33 -23 -56t-55 -23z" />
    <glyph glyph-name="uni1E0C" unicode="&#x1e0c;" horiz-adv-x="731" 
d="M305 0h-236v730h236q168 0 276.5 -104.5t108.5 -260.5q0 -157 -107 -261t-278 -104zM219 583v-436h86q105 0 167 62.5t62 156.5q0 92 -63.5 155t-165.5 63zM295 -191q-33 0 -56 23t-23 55q0 33 23 56t56 23q32 0 54.5 -23t22.5 -56q0 -32 -22.5 -55t-54.5 -23z" />
    <glyph glyph-name="uni1E0D" unicode="&#x1e0d;" horiz-adv-x="662" 
d="M292 -8q-108 0 -184 83.5t-76 200.5t76 200t184 83q54 0 100 -26.5t71 -68.5v316h141v-780h-128l-9 92q-25 -44 -72 -72t-103 -28zM318 131q61 0 103 42.5t42 102.5t-42 102.5t-103 42.5q-60 0 -102 -42.5t-42 -102.5t42 -102.5t102 -42.5zM316 -207q-32 0 -55 23t-23 56
q0 32 23 55t55 23t55 -23t23 -55q0 -33 -23 -56t-55 -23z" />
    <glyph glyph-name="uni1E0E" unicode="&#x1e0e;" horiz-adv-x="731" 
d="M305 0h-236v730h236q168 0 276.5 -104.5t108.5 -260.5q0 -157 -107 -261t-278 -104zM219 583v-436h86q105 0 167 62.5t62 156.5q0 92 -63.5 155t-165.5 63zM465 -169h-375v112h375v-112z" />
    <glyph glyph-name="uni1E0F" unicode="&#x1e0f;" horiz-adv-x="662" 
d="M292 -8q-108 0 -184 83.5t-76 200.5t76 200t184 83q54 0 100 -26.5t71 -68.5v316h141v-780h-128l-9 92q-25 -44 -72 -72t-103 -28zM318 131q61 0 103 42.5t42 102.5t-42 102.5t-103 42.5q-60 0 -102 -42.5t-42 -102.5t42 -102.5t102 -42.5zM508 -169h-375v112h375v-112z
" />
    <glyph glyph-name="uni1E12" unicode="&#x1e12;" horiz-adv-x="731" 
d="M305 0h-236v730h236q168 0 276.5 -104.5t108.5 -260.5q0 -157 -107 -261t-278 -104zM219 583v-436h86q105 0 167 62.5t62 156.5q0 92 -63.5 155t-165.5 63zM238 -179h-109l104 132h114l104 -132h-109l-52 63z" />
    <glyph glyph-name="uni1E13" unicode="&#x1e13;" horiz-adv-x="657" 
d="M292 -8q-108 0 -184 83.5t-76 200.5t76 200t184 83q54 0 100 -26.5t71 -68.5v316h141v-780h-128l-9 92q-25 -44 -72 -72t-103 -28zM318 131q61 0 103 42.5t42 102.5t-42 102.5t-103 42.5q-60 0 -102 -42.5t-42 -102.5t42 -102.5t102 -42.5zM267 -179h-109l105 132h114
l104 -132h-109l-52 63z" />
    <glyph glyph-name="uni1E24" unicode="&#x1e24;" horiz-adv-x="719" 
d="M219 0h-150v730h150v-294h281v294h150v-730h-150v287h-281v-287zM360 -195q-32 0 -55 23t-23 56t23 56t55 23t55 -23t23 -56t-23 -56t-55 -23z" />
    <glyph glyph-name="uni1E25" unicode="&#x1e25;" horiz-adv-x="616" 
d="M200 0h-141v780h141v-306q52 85 149 85q100 0 158.5 -69t58.5 -209v-281h-140v281q0 69 -32.5 104.5t-80.5 35.5q-49 0 -81 -35.5t-32 -104.5v-281zM292 -207q-33 0 -56 23t-23 56q0 32 23 55t56 23q32 0 54.5 -23t22.5 -55q0 -33 -22.5 -56t-54.5 -23z" />
    <glyph glyph-name="uni1E2E" unicode="&#x1e2e;" horiz-adv-x="287" 
d="M194 945h-86l55 168h125zM44 776q-27 0 -46.5 19t-19.5 47q0 27 19.5 46t46.5 19t46 -18.5t19 -46.5t-19 -47t-46 -19zM244 776q-26 0 -45.5 19t-19.5 47q0 27 19 46t46 19t46.5 -19t19.5 -46q0 -28 -19.5 -47t-46.5 -19zM219 0h-150v730h150v-730z" />
    <glyph glyph-name="uni1E2F" unicode="&#x1e2f;" horiz-adv-x="258" 
d="M181 807h-86l55 168h125zM43 644q-23 0 -39.5 16.5t-16.5 39.5q0 24 16.5 40t39.5 16t39.5 -16t16.5 -40q0 -23 -16.5 -39.5t-39.5 -16.5zM216 644q-23 0 -39.5 16.5t-16.5 39.5q0 24 16.5 40t39.5 16t39 -16t16 -40q0 -23 -16 -39.5t-39 -16.5zM200 0h-141v550h141v-550
z" />
    <glyph glyph-name="uni1E36" unicode="&#x1e36;" horiz-adv-x="567" 
d="M550 0h-481v730h150v-580h331v-150zM285 -207q-32 0 -55 23t-23 56q0 32 23 55t55 23t55 -23t23 -55q0 -33 -23 -56t-55 -23z" />
    <glyph glyph-name="uni1E37" unicode="&#x1e37;" horiz-adv-x="258" 
d="M200 0h-141v780h141v-780zM130 -207q-33 0 -56 23t-23 56q0 32 23 55t56 23q32 0 54.5 -23t22.5 -55q0 -33 -22.5 -56t-54.5 -23z" />
    <glyph glyph-name="uni1E3C" unicode="&#x1e3c;" horiz-adv-x="567" 
d="M550 0h-481v730h150v-580h331v-150zM225 -179h-109l105 132h114l104 -132h-109l-52 63z" />
    <glyph glyph-name="uni1E3D" unicode="&#x1e3d;" horiz-adv-x="258" 
d="M200 0h-141v780h141v-780zM80 -179h-109l105 132h114l104 -132h-109l-52 63z" />
    <glyph glyph-name="uni1E3E" unicode="&#x1e3e;" horiz-adv-x="921" 
d="M481 806h-86l55 168h125zM219 0h-150v730h153l239 -409l239 409h153v-730h-150v475l-202 -346h-80l-202 346v-475z" />
    <glyph glyph-name="uni1E3F" unicode="&#x1e3f;" horiz-adv-x="904" 
d="M494 636h-86l55 168h125zM200 0h-141v550h128l9 -77q21 40 59.5 63t82.5 23q55 0 96 -26t62 -71q21 43 60.5 70t88.5 27q97 0 153 -66t56 -205v-288h-141v288q0 69 -26.5 101t-66.5 32q-39 0 -66.5 -32t-27.5 -101v-288h-140v288q0 69 -26 101t-67 32q-40 0 -66.5 -35.5
t-26.5 -104.5v-281z" />
    <glyph glyph-name="uni1E44" unicode="&#x1e44;" horiz-adv-x="763" 
d="M391 811q-33 0 -56 23t-23 56t23 56t56 23q32 0 54.5 -23t22.5 -56t-22.5 -56t-54.5 -23zM219 0h-150v730h150l325 -464v464h150v-730h-150l-325 465v-465z" />
    <glyph glyph-name="uni1E45" unicode="&#x1e45;" horiz-adv-x="616" 
d="M314 641q-33 0 -56 23t-23 56t23 56t56 23q32 0 54.5 -23t22.5 -56t-22.5 -56t-54.5 -23zM200 0h-141v550h128l9 -80q24 40 63.5 64.5t89.5 24.5q100 0 158.5 -69t58.5 -209v-281h-140v281q0 69 -32.5 104.5t-80.5 35.5q-49 0 -81 -35.5t-32 -104.5v-281z" />
    <glyph glyph-name="uni1E46" unicode="&#x1e46;" horiz-adv-x="763" 
d="M219 0h-150v730h150l325 -464v464h150v-730h-150l-325 465v-465zM370 -207q-33 0 -56 23t-23 56q0 32 23 55t56 23q32 0 54.5 -23t22.5 -55q0 -33 -22.5 -56t-54.5 -23z" />
    <glyph glyph-name="uni1E47" unicode="&#x1e47;" horiz-adv-x="616" 
d="M200 0h-141v550h128l9 -80q24 40 63.5 64.5t89.5 24.5q100 0 158.5 -69t58.5 -209v-281h-140v281q0 69 -32.5 104.5t-80.5 35.5q-49 0 -81 -35.5t-32 -104.5v-281zM314 -201q-33 0 -56 23t-23 56q0 32 23 55t56 23q32 0 54.5 -23t22.5 -55q0 -33 -22.5 -56t-54.5 -23z
" />
    <glyph glyph-name="uni1E4A" unicode="&#x1e4a;" horiz-adv-x="763" 
d="M219 0h-150v730h150l325 -464v464h150v-730h-150l-325 465v-465zM320 -184h-109l104 132h114l104 -132h-109l-52 63z" />
    <glyph glyph-name="uni1E4B" unicode="&#x1e4b;" horiz-adv-x="616" 
d="M200 0h-141v550h128l9 -80q24 40 63.5 64.5t89.5 24.5q100 0 158.5 -69t58.5 -209v-281h-140v281q0 69 -32.5 104.5t-80.5 35.5q-49 0 -81 -35.5t-32 -104.5v-281zM260 -179h-109l105 132h114l104 -132h-109l-52 63z" />
    <glyph glyph-name="uni1E4C" unicode="&#x1e4c;" horiz-adv-x="839" 
d="M468 992h-86l54 168h126zM489 802q-31 -1 -55 15t-39.5 31.5t-26.5 14.5q-22 -2 -22 -48h-87q0 54 24.5 90.5t70.5 37.5q31 1 54.5 -15.5t39.5 -32t27 -14.5q20 2 20 49h87q0 -58 -23.5 -93t-69.5 -35zM420 -15q-157 0 -267.5 111.5t-110.5 268.5q0 156 110.5 267
t267.5 111t267.5 -111t110.5 -267q0 -157 -110.5 -268.5t-267.5 -111.5zM420 139q93 0 158.5 66t65.5 160q0 93 -66 159t-158 66t-158.5 -66t-66.5 -159q0 -94 66 -160t159 -66z" />
    <glyph glyph-name="uni1E4D" unicode="&#x1e4d;" 
d="M351 774h-86l55 168h125zM383 606q-30 -1 -54 15t-40 31.5t-27 14.5q-21 -2 -21 -48h-88q0 54 25 90.5t71 37.5q31 1 54.5 -15t39 -32t26.5 -15q21 2 21 49h87q0 -58 -23.5 -92.5t-70.5 -35.5zM314 -9q-117 0 -199.5 83.5t-82.5 200.5t82.5 200t199.5 83t200.5 -83.5
t83.5 -199.5q0 -117 -83.5 -200.5t-200.5 -83.5zM314 134q59 0 100 41t41 100q0 58 -41 99t-100 41q-58 0 -99 -41t-41 -99q0 -59 41 -100t99 -41z" />
    <glyph glyph-name="uni1E50" unicode="&#x1e50;" horiz-adv-x="839" 
d="M463 953h-87l4 168h126zM608 792h-375v113h375v-113zM420 -15q-157 0 -267.5 111.5t-110.5 268.5q0 156 110.5 267t267.5 111t267.5 -111t110.5 -267q0 -157 -110.5 -268.5t-267.5 -111.5zM420 139q93 0 158.5 66t65.5 160q0 93 -66 159t-158 66t-158.5 -66t-66.5 -159
q0 -94 66 -160t159 -66z" />
    <glyph glyph-name="uni1E51" unicode="&#x1e51;" 
d="M356 770h-86l-94 168h126zM503 608h-375v113h375v-113zM314 -9q-117 0 -199.5 83.5t-82.5 200.5t82.5 200t199.5 83t200.5 -83.5t83.5 -199.5q0 -117 -83.5 -200.5t-200.5 -83.5zM314 134q59 0 100 41t41 100q0 58 -41 99t-100 41q-58 0 -99 -41t-41 -99q0 -59 41 -100
t99 -41z" />
    <glyph glyph-name="uni1E52" unicode="&#x1e52;" horiz-adv-x="839" 
d="M451 960h-86l55 168h125zM608 798h-375v113h375v-113zM420 -15q-157 0 -267.5 111.5t-110.5 268.5q0 156 110.5 267t267.5 111t267.5 -111t110.5 -267q0 -157 -110.5 -268.5t-267.5 -111.5zM420 139q93 0 158.5 66t65.5 160q0 93 -66 159t-158 66t-158.5 -66t-66.5 -159
q0 -94 66 -160t159 -66z" />
    <glyph glyph-name="uni1E53" unicode="&#x1e53;" 
d="M346 770h-86l54 168h126zM503 608h-375v113h375v-113zM314 -9q-117 0 -199.5 83.5t-82.5 200.5t82.5 200t199.5 83t200.5 -83.5t83.5 -199.5q0 -117 -83.5 -200.5t-200.5 -83.5zM314 134q59 0 100 41t41 100q0 58 -41 99t-100 41q-58 0 -99 -41t-41 -99q0 -59 41 -100
t99 -41z" />
    <glyph glyph-name="uni1E62" unicode="&#x1e62;" horiz-adv-x="604" 
d="M306 -14q-162 0 -267 118l93 95q79 -77 175 -77q51 0 81.5 22t30.5 60q0 32 -27 55t-67.5 36t-88 32.5t-88 41.5t-67.5 65t-27 102q0 92 66.5 149.5t178.5 57.5q67 0 133 -29t113 -89l-104 -83q-23 30 -61 47.5t-76 18.5q-47 0 -76 -20t-29 -50q0 -28 27 -49t67.5 -33.5
t88 -31.5t88 -41.5t67.5 -66.5t27 -103q0 -102 -70.5 -165t-187.5 -62zM303 -207q-32 0 -55 23t-23 56q0 32 23 55t55 23t55 -23t23 -55q0 -33 -23 -56t-55 -23z" />
    <glyph glyph-name="uni1E63" unicode="&#x1e63;" horiz-adv-x="548" 
d="M287 -13q-68 0 -136.5 23.5t-113.5 70.5l95 92q25 -25 69 -40t86 -15q83 0 83 43q0 19 -32.5 31.5t-79 23t-93 27.5t-79 56t-32.5 98q0 74 59 119t155 45q150 0 229 -91l-84 -85q-24 25 -64 38t-77 13q-36 0 -56.5 -10.5t-20.5 -28.5q0 -17 32.5 -28.5t79.5 -22
t93.5 -27.5t79 -56t32.5 -97q0 -88 -63.5 -133.5t-161.5 -45.5zM275 -207q-33 0 -56 23t-23 56q0 32 23 55t56 23q32 0 54.5 -23t22.5 -55q0 -33 -22.5 -56t-54.5 -23z" />
    <glyph glyph-name="uni1E6C" unicode="&#x1e6c;" horiz-adv-x="594" 
d="M372 0h-149v586h-205v144h559v-144h-205v-586zM298 -207q-33 0 -56 23t-23 56q0 32 23 55t56 23q32 0 55 -23t23 -55q0 -33 -23 -56t-55 -23z" />
    <glyph glyph-name="uni1E6D" unicode="&#x1e6d;" horiz-adv-x="423" 
d="M301 -10q-93 0 -152 57t-59 183v195h-72v125h77l20 180h116v-180h126v-125h-126v-194q0 -106 91 -106q21 0 38 7l35 -125q-38 -17 -94 -17zM197 -207q-33 0 -56 23t-23 56q0 32 23 55t56 23q32 0 55 -23t23 -55q0 -33 -23 -56t-55 -23z" />
    <glyph glyph-name="uni1E6E" unicode="&#x1e6e;" horiz-adv-x="594" 
d="M372 0h-149v586h-205v144h559v-144h-205v-586zM485 -169h-375v112h375v-112z" />
    <glyph glyph-name="uni1E6F" unicode="&#x1e6f;" horiz-adv-x="453" 
d="M313 -10q-93 0 -151.5 56.5t-58.5 183.5v195h-72v125h77l20 180h115v-180h126v-125h-126v-194q0 -106 92 -106q20 0 38 7l35 -125q-38 -17 -95 -17zM400 -179h-375v112h375v-112z" />
    <glyph glyph-name="uni1E70" unicode="&#x1e70;" horiz-adv-x="594" 
d="M372 0h-149v586h-205v144h559v-144h-205v-586zM244 -183h-109l105 133h114l104 -133h-109l-52 64z" />
    <glyph glyph-name="uni1E71" unicode="&#x1e71;" horiz-adv-x="423" 
d="M301 -10q-93 0 -152 57t-59 183v195h-72v125h77l20 180h116v-180h126v-125h-126v-194q0 -106 91 -106q21 0 38 7l35 -125q-38 -17 -94 -17zM146 -179h-109l104 132h114l104 -132h-109l-52 63z" />
    <glyph glyph-name="Wgrave" unicode="&#x1e80;" horiz-adv-x="1021" 
d="M556 806h-86l-94 168h126zM378 0h-152l-214 730h156l140 -474l137 476h131l138 -476l139 474h157l-214 -730h-153l-132 476z" />
    <glyph glyph-name="wgrave" unicode="&#x1e81;" horiz-adv-x="898" 
d="M488 636h-86l-94 168h126zM339 0h-138l-188 550h150l108 -333l107 333h142l108 -333l108 333h150l-189 -550h-137l-111 326z" />
    <glyph glyph-name="Wacute" unicode="&#x1e82;" horiz-adv-x="1021" 
d="M556 806h-86l54 168h126zM378 0h-152l-214 730h156l140 -474l137 476h131l138 -476l139 474h157l-214 -730h-153l-132 476z" />
    <glyph glyph-name="wacute" unicode="&#x1e83;" horiz-adv-x="898" 
d="M501 636h-87l55 168h125zM339 0h-138l-188 550h150l108 -333l107 333h142l108 -333l108 333h150l-189 -550h-137l-111 326z" />
    <glyph glyph-name="Wdieresis" unicode="&#x1e84;" horiz-adv-x="1021" 
d="M411 825q-27 0 -46.5 19t-19.5 46q0 28 19.5 47t46.5 19t46 -19t19 -47q0 -27 -19.5 -46t-45.5 -19zM612 825q-28 0 -47 19t-19 46q0 28 19 47t47 19q26 0 45 -19t19 -47q0 -27 -19 -46t-45 -19zM378 0h-152l-214 730h156l140 -474l137 476h131l138 -476l139 474h157
l-214 -730h-153l-132 476z" />
    <glyph glyph-name="wdieresis" unicode="&#x1e85;" horiz-adv-x="898" 
d="M350 655q-28 0 -47 19t-19 46q0 28 19 47t47 19q26 0 45 -19t19 -47q0 -27 -19 -46t-45 -19zM550 655q-27 0 -46.5 19t-19.5 46q0 28 19.5 47t46.5 19t46 -19t19 -47q0 -27 -19 -46t-46 -19zM339 0h-138l-188 550h150l108 -333l107 333h142l108 -333l108 333h150
l-189 -550h-137l-111 326z" />
    <glyph glyph-name="uni1E92" unicode="&#x1e92;" horiz-adv-x="641" 
d="M604 0h-566v147l354 437h-344v146h546v-147l-354 -436h364v-147zM331 -207q-32 0 -55 23t-23 56q0 32 23 55t55 23t55 -23t23 -55q0 -33 -23 -56t-55 -23z" />
    <glyph glyph-name="uni1E93" unicode="&#x1e93;" horiz-adv-x="564" 
d="M520 0h-476v100l269 325h-269v125h462v-106l-256 -313h270v-131zM283 -207q-33 0 -56 23t-23 56q0 32 23 55t56 23q32 0 55 -23t23 -55q0 -33 -23 -56t-55 -23z" />
    <glyph glyph-name="Germandbls" unicode="&#x1e9e;" horiz-adv-x="657" 
d="M405 -10q-88 0 -131 25v125q50 -20 102 -20q46 0 78 26.5t32 74.5q0 32 -14.5 57t-42.5 42.5t-48.5 26.5t-50.5 19v48l98 151q-40 52 -115 52q-42 0 -76 -25t-34 -80v-512h-134v535q0 94 69.5 149t174.5 55q96 0 159 -37.5t92 -98.5v-48l-95 -132q1 -1 14 -7t18 -9
t19.5 -11.5t21.5 -15t20 -18t20 -22t16.5 -26.5t14.5 -32t8.5 -37t3.5 -44q0 -91 -61.5 -151t-158.5 -60z" />
    <glyph glyph-name="uni1EA0" unicode="&#x1ea0;" horiz-adv-x="673" 
d="M170 0h-165l251 730h161l251 -730h-164l-48 149h-237zM337 526l-77 -238h154zM338 -179q-33 0 -56 23t-23 56t23 56t56 23q32 0 54.5 -23t22.5 -56t-22.5 -56t-54.5 -23z" />
    <glyph glyph-name="uni1EA1" unicode="&#x1ea1;" horiz-adv-x="662" 
d="M292 -8q-108 0 -184 83.5t-76 200.5t76 200t184 83q56 0 103 -28t72 -72l9 91h128v-550h-128l-9 92q-25 -44 -72 -72t-103 -28zM318 131q61 0 103 42.5t42 102.5t-42 102.5t-103 42.5q-60 0 -102 -42.5t-42 -102.5t42 -102.5t102 -42.5zM315 -207q-33 0 -56 23t-23 56
q0 32 23 55t56 23q32 0 54.5 -23t22.5 -55q0 -33 -22.5 -56t-54.5 -23z" />
    <glyph glyph-name="uni1EA2" unicode="&#x1ea2;" horiz-adv-x="673" 
d="M303 794v61q61 0 61 27q0 25 -41 25t-59 -14l-28 72q33 22 98 22q49 0 83 -28.5t34 -68.5q0 -41 -40 -68.5t-108 -27.5zM170 0h-165l251 730h161l251 -730h-164l-48 149h-237zM337 526l-77 -238h154z" />
    <glyph glyph-name="uni1EA3" unicode="&#x1ea3;" horiz-adv-x="662" 
d="M278 624v61q61 0 61 27q0 25 -41 25q-39 0 -59 -14l-27 72q31 22 97 22q49 0 83 -28.5t34 -68.5q0 -41 -39.5 -68.5t-108.5 -27.5zM292 -8q-108 0 -184 83.5t-76 200.5t76 200t184 83q56 0 103 -28t72 -72l9 91h128v-550h-128l-9 92q-25 -44 -72 -72t-103 -28zM318 131
q61 0 103 42.5t42 102.5t-42 102.5t-103 42.5q-60 0 -102 -42.5t-42 -102.5t42 -102.5t102 -42.5z" />
    <glyph glyph-name="uni1EA4" unicode="&#x1ea4;" horiz-adv-x="677" 
d="M523 908h-86l54 168h126zM291 775h-109l104 133h114l104 -133h-109l-52 64zM170 0h-165l251 730h161l251 -730h-164l-48 149h-237zM337 526l-77 -238h154z" />
    <glyph glyph-name="uni1EA5" unicode="&#x1ea5;" horiz-adv-x="662" 
d="M480 743h-86l54 168h126zM247 610h-109l104 133h114l105 -133h-109l-53 64zM292 -8q-108 0 -184 83.5t-76 200.5t76 200t184 83q56 0 103 -28t72 -72l9 91h128v-550h-128l-9 92q-25 -44 -72 -72t-103 -28zM318 131q61 0 103 42.5t42 102.5t-42 102.5t-103 42.5
q-60 0 -102 -42.5t-42 -102.5t42 -102.5t102 -42.5z" />
    <glyph glyph-name="uni1EA6" unicode="&#x1ea6;" horiz-adv-x="679" 
d="M235 906h-86l-95 168h126zM279 777h-109l105 133h114l104 -133h-109l-52 64zM170 0h-165l251 730h161l251 -730h-164l-48 149h-237zM337 526l-77 -238h154z" />
    <glyph glyph-name="uni1EA7" unicode="&#x1ea7;" horiz-adv-x="662" 
d="M251 741h-86l-94 168h126zM284 612h-109l104 133h114l105 -133h-109l-53 64zM292 -8q-108 0 -184 83.5t-76 200.5t76 200t184 83q56 0 103 -28t72 -72l9 91h128v-550h-128l-9 92q-25 -44 -72 -72t-103 -28zM318 131q61 0 103 42.5t42 102.5t-42 102.5t-103 42.5
q-60 0 -102 -42.5t-42 -102.5t42 -102.5t102 -42.5z" />
    <glyph glyph-name="uni1EA8" unicode="&#x1ea8;" horiz-adv-x="673" 
d="M428 906v61q62 0 62 27q0 25 -42 25q-38 0 -58 -13l-28 72q33 22 98 22q48 0 82.5 -29t34.5 -68q0 -41 -40 -69t-109 -28zM283 776h-109l104 133h114l105 -133h-109l-53 64zM170 0h-165l251 730h161l251 -730h-164l-48 149h-237zM337 526l-77 -238h154z" />
    <glyph glyph-name="uni1EA9" unicode="&#x1ea9;" horiz-adv-x="662" 
d="M412 729v61q62 0 62 27q0 25 -42 25q-40 0 -58 -14l-29 72q33 22 98 22q49 0 83 -28.5t34 -68.5q0 -41 -40 -68.5t-108 -27.5zM267 599h-109l104 132h114l104 -132h-109l-52 63zM292 -8q-108 0 -184 83.5t-76 200.5t76 200t184 83q56 0 103 -28t72 -72l9 91h128v-550
h-128l-9 92q-25 -44 -72 -72t-103 -28zM318 131q61 0 103 42.5t42 102.5t-42 102.5t-103 42.5q-60 0 -102 -42.5t-42 -102.5t42 -102.5t102 -42.5z" />
    <glyph glyph-name="uni1EAA" unicode="&#x1eaa;" horiz-adv-x="673" 
d="M404 932q-30 -1 -54 15t-40 31.5t-27 14.5q-21 -2 -21 -48h-88q0 54 25 90.5t71 37.5q31 0 55 -16t39 -32t26 -15q21 2 21 49h87q0 -58 -23.5 -92.5t-70.5 -34.5zM283 777h-109l104 132h114l105 -132h-109l-53 63zM170 0h-165l251 730h161l251 -730h-164l-48 149h-237z
M337 526l-77 -238h154z" />
    <glyph glyph-name="uni1EAB" unicode="&#x1eab;" horiz-adv-x="662" 
d="M390 767q-30 -1 -54 15t-40 31.5t-27 14.5q-22 -2 -22 -48h-87q0 53 24.5 90t70.5 38q31 0 55 -16t39.5 -32t26.5 -15q20 2 20 49h88q0 -58 -24 -92t-70 -35zM269 612h-109l104 132h114l105 -132h-109l-53 63zM292 -8q-108 0 -184 83.5t-76 200.5t76 200t184 83
q56 0 103 -28t72 -72l9 91h128v-550h-128l-9 92q-25 -44 -72 -72t-103 -28zM318 131q61 0 103 42.5t42 102.5t-42 102.5t-103 42.5q-60 0 -102 -42.5t-42 -102.5t42 -102.5t102 -42.5z" />
    <glyph glyph-name="uni1EAC" unicode="&#x1eac;" horiz-adv-x="673" 
d="M285 824h-109l104 133h114l104 -133h-109l-52 64zM170 0h-165l251 730h161l251 -730h-164l-48 149h-237zM337 526l-77 -238h154zM338 -179q-33 0 -56 23t-23 56t23 56t56 23q32 0 54.5 -23t22.5 -56t-22.5 -56t-54.5 -23z" />
    <glyph glyph-name="uni1EAD" unicode="&#x1ead;" horiz-adv-x="662" 
d="M267 654h-109l104 133h114l104 -133h-109l-52 64zM292 -8q-108 0 -184 83.5t-76 200.5t76 200t184 83q56 0 103 -28t72 -72l9 91h128v-550h-128l-9 92q-25 -44 -72 -72t-103 -28zM318 131q61 0 103 42.5t42 102.5t-42 102.5t-103 42.5q-60 0 -102 -42.5t-42 -102.5
t42 -102.5t102 -42.5zM315 -207q-33 0 -56 23t-23 56q0 32 23 55t56 23q32 0 54.5 -23t22.5 -55q0 -33 -22.5 -56t-54.5 -23z" />
    <glyph glyph-name="uni1EAE" unicode="&#x1eae;" horiz-adv-x="673" 
d="M380 920h-86l55 168h125zM341 763q-64 0 -109 41.5t-47 104.5h77q2 -31 24.5 -50.5t54.5 -19.5t54.5 20t23.5 50h77q-1 -62 -46 -104t-109 -42zM170 0h-165l251 730h161l251 -730h-164l-48 149h-237zM337 526l-77 -238h154z" />
    <glyph glyph-name="uni1EAF" unicode="&#x1eaf;" horiz-adv-x="662" 
d="M368 775h-87l54 168h126zM328 618q-65 0 -110 41.5t-46 104.5h78q1 -30 23 -50t55 -20q32 0 54.5 20t23.5 50h77q-2 -63 -47 -104.5t-108 -41.5zM292 -8q-108 0 -184 83.5t-76 200.5t76 200t184 83q56 0 103 -28t72 -72l9 91h128v-550h-128l-9 92q-25 -44 -72 -72
t-103 -28zM318 131q61 0 103 42.5t42 102.5t-42 102.5t-103 42.5q-60 0 -102 -42.5t-42 -102.5t42 -102.5t102 -42.5z" />
    <glyph glyph-name="uni1EB0" unicode="&#x1eb0;" horiz-adv-x="673" 
d="M397 916h-86l-94 168h125zM346 758q-64 0 -109.5 42t-46.5 105h77q1 -31 23.5 -50.5t55.5 -19.5q32 0 54.5 19.5t23.5 50.5h77q-1 -62 -46.5 -104.5t-108.5 -42.5zM170 0h-165l251 730h161l251 -730h-164l-48 149h-237zM337 526l-77 -238h154z" />
    <glyph glyph-name="uni1EB1" unicode="&#x1eb1;" horiz-adv-x="662" 
d="M369 775h-86l-94 168h126zM319 618q-65 0 -110 41.5t-46 104.5h77q1 -31 23.5 -50.5t55.5 -19.5q31 0 54 20t24 50h77q-2 -62 -47 -104t-108 -42zM292 -8q-108 0 -184 83.5t-76 200.5t76 200t184 83q56 0 103 -28t72 -72l9 91h128v-550h-128l-9 92q-25 -44 -72 -72
t-103 -28zM318 131q61 0 103 42.5t42 102.5t-42 102.5t-103 42.5q-60 0 -102 -42.5t-42 -102.5t42 -102.5t102 -42.5z" />
    <glyph glyph-name="uni1EB2" unicode="&#x1eb2;" horiz-adv-x="673" 
d="M311 921v62q62 0 62 27q0 25 -42 25q-37 0 -58 -14l-28 72q33 22 98 22q48 0 82.5 -28.5t34.5 -68.5q0 -42 -40 -69.5t-109 -27.5zM340 761q-64 0 -109.5 42t-46.5 104h77q1 -31 24 -50.5t55 -19.5t54.5 20t23.5 50h77q-1 -62 -46.5 -104t-108.5 -42zM170 0h-165l251 730
h161l251 -730h-164l-48 149h-237zM337 526l-77 -238h154z" />
    <glyph glyph-name="uni1EB3" unicode="&#x1eb3;" horiz-adv-x="662" 
d="M295 764v61q62 0 62 27q0 25 -42 25q-35 0 -58 -14l-28 73q33 22 98 22q48 0 82.5 -29t34.5 -69q0 -41 -40 -68.5t-109 -27.5zM324 603q-64 0 -109.5 42t-46.5 105h78q1 -31 23 -50.5t55 -19.5q32 0 54.5 19.5t23.5 50.5h77q-1 -63 -46.5 -105t-108.5 -42zM292 -8
q-108 0 -184 83.5t-76 200.5t76 200t184 83q56 0 103 -28t72 -72l9 91h128v-550h-128l-9 92q-25 -44 -72 -72t-103 -28zM318 131q61 0 103 42.5t42 102.5t-42 102.5t-103 42.5q-60 0 -102 -42.5t-42 -102.5t42 -102.5t102 -42.5z" />
    <glyph glyph-name="uni1EB4" unicode="&#x1eb4;" horiz-adv-x="673" 
d="M422 936q-31 -1 -55 15t-39.5 32t-26.5 15q-22 -2 -22 -49h-88q0 54 25 90.5t71 37.5q31 1 55 -15.5t39 -32t26 -14.5q21 2 21 49h87q0 -59 -23.5 -93t-69.5 -35zM349 772q-64 0 -109.5 42t-46.5 104h77q1 -31 24 -50.5t55 -19.5t54.5 20t23.5 50h77q-1 -62 -46.5 -104
t-108.5 -42zM170 0h-165l251 730h161l251 -730h-164l-48 149h-237zM337 526l-77 -238h154z" />
    <glyph glyph-name="uni1EB5" unicode="&#x1eb5;" horiz-adv-x="662" 
d="M402 791q-30 -1 -54 15.5t-40 32t-27 14.5q-22 -2 -22 -49h-87q0 54 24.5 90.5t70.5 37.5q31 1 55 -15t39.5 -32t26.5 -15q20 2 20 49h88q0 -58 -23.5 -92.5t-70.5 -35.5zM329 627q-64 0 -109.5 42t-46.5 104h78q1 -30 23 -50t55 -20q32 0 54.5 20t23.5 50h77
q-1 -62 -46.5 -104t-108.5 -42zM292 -8q-108 0 -184 83.5t-76 200.5t76 200t184 83q56 0 103 -28t72 -72l9 91h128v-550h-128l-9 92q-25 -44 -72 -72t-103 -28zM318 131q61 0 103 42.5t42 102.5t-42 102.5t-103 42.5q-60 0 -102 -42.5t-42 -102.5t42 -102.5t102 -42.5z" />
    <glyph glyph-name="uni1EB6" unicode="&#x1eb6;" horiz-adv-x="673" 
d="M338 817q-65 0 -110 42t-46 104h77q1 -31 23.5 -50.5t55.5 -19.5q31 0 54 20t24 50h77q-2 -62 -47 -104t-108 -42zM170 0h-165l251 730h161l251 -730h-164l-48 149h-237zM337 526l-77 -238h154zM338 -179q-33 0 -56 23t-23 56t23 56t56 23q32 0 54.5 -23t22.5 -56
t-22.5 -56t-54.5 -23z" />
    <glyph glyph-name="uni1EB7" unicode="&#x1eb7;" horiz-adv-x="662" 
d="M315 647q-64 0 -109 42t-47 104h78q1 -30 23.5 -50t54.5 -20q33 0 55 20t23 50h77q-1 -62 -46.5 -104t-108.5 -42zM292 -8q-108 0 -184 83.5t-76 200.5t76 200t184 83q56 0 103 -28t72 -72l9 91h128v-550h-128l-9 92q-25 -44 -72 -72t-103 -28zM318 131q61 0 103 42.5
t42 102.5t-42 102.5t-103 42.5q-60 0 -102 -42.5t-42 -102.5t42 -102.5t102 -42.5zM315 -207q-33 0 -56 23t-23 56q0 32 23 55t56 23q32 0 54.5 -23t22.5 -55q0 -33 -22.5 -56t-54.5 -23z" />
    <glyph glyph-name="uni1EB8" unicode="&#x1eb8;" horiz-adv-x="581" 
d="M540 0h-471v730h461v-137h-312v-152h292v-135h-292v-162h322v-144zM293 -191q-32 0 -55 23t-23 55q0 33 23 56t55 23t55 -23t23 -56q0 -32 -23 -55t-55 -23z" />
    <glyph glyph-name="uni1EB9" unicode="&#x1eb9;" horiz-adv-x="625" 
d="M326 -9q-127 0 -210.5 82.5t-83.5 201.5q0 117 82 200t199 83q118 0 199.5 -83t81.5 -200q0 -22 -4 -56h-407q11 -43 50.5 -70.5t92.5 -27.5q81 0 127 51l113 -71q-39 -50 -105 -80t-135 -30zM183 331h265q-6 40 -43 68t-91 28q-53 0 -88.5 -28t-42.5 -68zM308 -207
q-32 0 -55 23t-23 56q0 32 23 55t55 23t55 -23t23 -55q0 -33 -23 -56t-55 -23z" />
    <glyph glyph-name="uni1EBA" unicode="&#x1eba;" horiz-adv-x="581" 
d="M241 794v61q62 0 62 27q0 25 -42 25q-40 0 -58 -14l-28 72q33 22 98 22q48 0 82.5 -28.5t34.5 -68.5q0 -41 -40 -68.5t-109 -27.5zM540 0h-471v730h461v-137h-312v-152h292v-135h-292v-162h322v-144z" />
    <glyph glyph-name="uni1EBB" unicode="&#x1ebb;" horiz-adv-x="625" 
d="M268 624v61q62 0 62 27q0 25 -42 25q-38 0 -58 -14l-27 72q31 22 97 22q49 0 83 -28.5t34 -68.5q0 -41 -39.5 -68.5t-109.5 -27.5zM326 -9q-127 0 -210.5 82.5t-83.5 201.5q0 117 82 200t199 83q118 0 199.5 -83t81.5 -200q0 -22 -4 -56h-407q11 -43 50.5 -70.5
t92.5 -27.5q81 0 127 51l113 -71q-39 -50 -105 -80t-135 -30zM183 331h265q-6 40 -43 68t-91 28q-53 0 -88.5 -28t-42.5 -68z" />
    <glyph glyph-name="uni1EBC" unicode="&#x1ebc;" horiz-adv-x="581" 
d="M348 820q-30 -1 -54 15t-40 32t-27 15q-21 -2 -21 -49h-88q0 55 25 91.5t71 36.5q31 1 54.5 -14.5t39 -31.5t26.5 -15q21 2 21 48h87q0 -58 -24 -92.5t-70 -35.5zM540 0h-471v730h461v-137h-312v-152h292v-135h-292v-162h322v-144z" />
    <glyph glyph-name="uni1EBD" unicode="&#x1ebd;" horiz-adv-x="625" 
d="M376 650q-30 -1 -54 15t-40 32t-27 15q-21 -2 -21 -49h-88q0 55 25 91.5t71 36.5q31 1 55 -14.5t39 -31.5t26 -15q21 2 21 48h87q0 -58 -23.5 -92.5t-70.5 -35.5zM326 -9q-127 0 -210.5 82.5t-83.5 201.5q0 117 82 200t199 83q118 0 199.5 -83t81.5 -200q0 -22 -4 -56
h-407q11 -43 50.5 -70.5t92.5 -27.5q81 0 127 51l113 -71q-39 -50 -105 -80t-135 -30zM183 331h265q-6 40 -43 68t-91 28q-53 0 -88.5 -28t-42.5 -68z" />
    <glyph glyph-name="uni1EBE" unicode="&#x1ebe;" horiz-adv-x="622" 
d="M461 908h-86l55 168h125zM229 775h-109l104 133h114l104 -133h-109l-52 64zM540 0h-471v730h461v-137h-312v-152h292v-135h-292v-162h322v-144z" />
    <glyph glyph-name="uni1EBF" unicode="&#x1ebf;" horiz-adv-x="635" 
d="M457 743h-86l54 168h126zM224 610h-109l104 133h114l105 -133h-109l-53 64zM326 -9q-127 0 -210.5 82.5t-83.5 201.5q0 117 82 200t199 83q118 0 199.5 -83t81.5 -200q0 -22 -4 -56h-407q11 -43 50.5 -70.5t92.5 -27.5q81 0 127 51l113 -71q-39 -50 -105 -80t-135 -30z
M183 331h265q-6 40 -43 68t-91 28q-53 0 -88.5 -28t-42.5 -68z" />
    <glyph glyph-name="uni1EC0" unicode="&#x1ec0;" horiz-adv-x="645" 
d="M274 906h-86l-94 168h126zM319 777h-109l104 133h114l105 -133h-109l-53 64zM604 0h-471v730h461v-137h-312v-152h292v-135h-292v-162h322v-144z" />
    <glyph glyph-name="uni1EC1" unicode="&#x1ec1;" horiz-adv-x="644" 
d="M252 741h-86l-94 168h126zM297 612h-109l105 133h114l104 -133h-109l-52 64zM326 -9q-127 0 -210.5 82.5t-83.5 201.5q0 117 82 200t199 83q118 0 199.5 -83t81.5 -200q0 -22 -4 -56h-407q11 -43 50.5 -70.5t92.5 -27.5q81 0 127 51l113 -71q-39 -50 -105 -80t-135 -30z
M183 331h265q-6 40 -43 68t-91 28q-53 0 -88.5 -28t-42.5 -68z" />
    <glyph glyph-name="uni1EC2" unicode="&#x1ec2;" horiz-adv-x="587" 
d="M378 906v61q61 0 61 27q0 25 -41 25q-37 0 -59 -13l-27 72q31 22 97 22q49 0 83 -29t34 -68q0 -41 -39.5 -69t-108.5 -28zM233 776h-109l104 133h114l105 -133h-109l-53 64zM540 0h-471v730h461v-137h-312v-152h292v-135h-292v-162h322v-144z" />
    <glyph glyph-name="uni1EC3" unicode="&#x1ec3;" horiz-adv-x="625" 
d="M372 741v61q61 0 61 27q0 25 -41 25q-37 0 -59 -13l-27 72q31 22 97 22q49 0 83 -29t34 -68q0 -41 -39.5 -69t-108.5 -28zM227 611h-109l104 133h114l105 -133h-109l-53 64zM326 -9q-127 0 -210.5 82.5t-83.5 201.5q0 117 82 200t199 83q118 0 199.5 -83t81.5 -200
q0 -22 -4 -56h-407q11 -43 50.5 -70.5t92.5 -27.5q81 0 127 51l113 -71q-39 -50 -105 -80t-135 -30zM183 331h265q-6 40 -43 68t-91 28q-53 0 -88.5 -28t-42.5 -68z" />
    <glyph glyph-name="uni1EC4" unicode="&#x1ec4;" horiz-adv-x="581" 
d="M374 932q-31 -1 -55 15t-39.5 31.5t-26.5 14.5q-23 -2 -23 -48h-87q0 53 24.5 90t70.5 38q31 0 55 -16t39.5 -32t26.5 -15q20 2 20 49h88q0 -58 -23.5 -92t-69.5 -35zM252 777h-109l105 132h114l104 -132h-109l-52 63zM540 0h-471v730h461v-137h-312v-152h292v-135h-292
v-162h322v-144z" />
    <glyph glyph-name="uni1EC5" unicode="&#x1ec5;" horiz-adv-x="625" 
d="M381 767q-30 -1 -54 15t-40 31.5t-27 14.5q-22 -2 -22 -48h-87q0 53 24.5 90t70.5 38q31 0 55 -16t39.5 -32t26.5 -15q20 2 20 49h88q0 -58 -24 -92t-70 -35zM260 612h-109l104 132h114l104 -132h-109l-52 63zM326 -9q-127 0 -210.5 82.5t-83.5 201.5q0 117 82 200
t199 83q118 0 199.5 -83t81.5 -200q0 -22 -4 -56h-407q11 -43 50.5 -70.5t92.5 -27.5q81 0 127 51l113 -71q-39 -50 -105 -80t-135 -30zM183 331h265q-6 40 -43 68t-91 28q-53 0 -88.5 -28t-42.5 -68z" />
    <glyph glyph-name="uni1EC6" unicode="&#x1ec6;" horiz-adv-x="581" 
d="M256 824h-109l104 133h114l104 -133h-109l-52 64zM540 0h-471v730h461v-137h-312v-152h292v-135h-292v-162h322v-144zM293 -191q-32 0 -55 23t-23 55q0 33 23 56t55 23t55 -23t23 -56q0 -32 -23 -55t-55 -23z" />
    <glyph glyph-name="uni1EC7" unicode="&#x1ec7;" horiz-adv-x="625" 
d="M256 654h-109l104 133h114l105 -133h-109l-53 64zM326 -9q-127 0 -210.5 82.5t-83.5 201.5q0 117 82 200t199 83q118 0 199.5 -83t81.5 -200q0 -22 -4 -56h-407q11 -43 50.5 -70.5t92.5 -27.5q81 0 127 51l113 -71q-39 -50 -105 -80t-135 -30zM183 331h265q-6 40 -43 68
t-91 28q-53 0 -88.5 -28t-42.5 -68zM308 -207q-32 0 -55 23t-23 56q0 32 23 55t55 23t55 -23t23 -55q0 -33 -23 -56t-55 -23z" />
    <glyph glyph-name="uni1EC8" unicode="&#x1ec8;" horiz-adv-x="287" 
d="M102 794v61q62 0 62 27q0 25 -42 25q-40 0 -58 -14l-28 72q33 22 98 22q49 0 83 -28.5t34 -68.5q0 -41 -40 -68.5t-109 -27.5zM219 0h-150v730h150v-730z" />
    <glyph glyph-name="uni1EC9" unicode="&#x1ec9;" horiz-adv-x="258" 
d="M79 624v61q61 0 61 27q0 25 -41 25q-39 0 -59 -14l-27 72q31 22 97 22q49 0 83 -28.5t34 -68.5q0 -41 -39.5 -68.5t-108.5 -27.5zM200 0h-141v550h141v-550z" />
    <glyph glyph-name="uni1ECA" unicode="&#x1eca;" horiz-adv-x="287" 
d="M219 0h-150v730h150v-730zM143 -207q-33 0 -56 23t-23 56q0 32 23 55t56 23q32 0 55 -23t23 -55q0 -33 -23 -56t-55 -23z" />
    <glyph glyph-name="uni1ECB" unicode="&#x1ecb;" horiz-adv-x="259" 
d="M130 594q-33 0 -57 24t-24 57t24 57t57 24q32 0 56 -24t24 -57t-24 -57t-56 -24zM200 0h-141v550h141v-550zM130 -207q-33 0 -56 23t-23 56q0 32 23 55t56 23q32 0 54.5 -23t22.5 -55q0 -33 -22.5 -56t-54.5 -23z" />
    <glyph glyph-name="uni1ECC" unicode="&#x1ecc;" horiz-adv-x="839" 
d="M420 -15q-157 0 -267.5 111.5t-110.5 268.5q0 156 110.5 267t267.5 111t267.5 -111t110.5 -267q0 -157 -110.5 -268.5t-267.5 -111.5zM420 139q93 0 158.5 66t65.5 160q0 93 -66 159t-158 66t-158.5 -66t-66.5 -159q0 -94 66 -160t159 -66zM416 -207q-33 0 -56 23t-23 56
q0 32 23 55t56 23q32 0 55 -23t23 -55q0 -33 -23 -56t-55 -23z" />
    <glyph glyph-name="uni1ECD" unicode="&#x1ecd;" 
d="M314 -9q-117 0 -199.5 83.5t-82.5 200.5t82.5 200t199.5 83t200.5 -83.5t83.5 -199.5q0 -117 -83.5 -200.5t-200.5 -83.5zM314 134q59 0 100 41t41 100q0 58 -41 99t-100 41q-58 0 -99 -41t-41 -99q0 -59 41 -100t99 -41zM315 -207q-33 0 -56 23t-23 56q0 32 23 55t56 23
q32 0 54.5 -23t22.5 -55q0 -33 -22.5 -56t-54.5 -23z" />
    <glyph glyph-name="uni1ECE" unicode="&#x1ece;" horiz-adv-x="839" 
d="M373 794v61q62 0 62 27q0 25 -42 25q-40 0 -58 -14l-29 72q33 22 98 22q49 0 83 -28.5t34 -68.5q0 -41 -40 -68.5t-108 -27.5zM420 -15q-157 0 -267.5 111.5t-110.5 268.5q0 156 110.5 267t267.5 111t267.5 -111t110.5 -267q0 -157 -110.5 -268.5t-267.5 -111.5zM420 139
q93 0 158.5 66t65.5 160q0 93 -66 159t-158 66t-158.5 -66t-66.5 -159q0 -94 66 -160t159 -66z" />
    <glyph glyph-name="uni1ECF" unicode="&#x1ecf;" 
d="M274 624v61q61 0 61 27q0 25 -41 25t-59 -14l-28 72q33 22 98 22q49 0 83 -28.5t34 -68.5q0 -41 -40 -68.5t-108 -27.5zM314 -9q-117 0 -199.5 83.5t-82.5 200.5t82.5 200t199.5 83t200.5 -83.5t83.5 -199.5q0 -117 -83.5 -200.5t-200.5 -83.5zM314 134q59 0 100 41
t41 100q0 58 -41 99t-100 41q-58 0 -99 -41t-41 -99q0 -59 41 -100t99 -41z" />
    <glyph glyph-name="uni1ED0" unicode="&#x1ed0;" horiz-adv-x="839" 
d="M580 908h-86l54 168h126zM347 775h-109l105 133h114l104 -133h-109l-52 64zM420 -15q-157 0 -267.5 111.5t-110.5 268.5q0 156 110.5 267t267.5 111t267.5 -111t110.5 -267q0 -157 -110.5 -268.5t-267.5 -111.5zM420 139q93 0 158.5 66t65.5 160q0 93 -66 159t-158 66
t-158.5 -66t-66.5 -159q0 -94 66 -160t159 -66z" />
    <glyph glyph-name="uni1ED1" unicode="&#x1ed1;" horiz-adv-x="632" 
d="M457 743h-86l54 168h126zM225 610h-109l104 133h114l104 -133h-109l-52 64zM314 -9q-117 0 -199.5 83.5t-82.5 200.5t82.5 200t199.5 83t200.5 -83.5t83.5 -199.5q0 -117 -83.5 -200.5t-200.5 -83.5zM314 134q59 0 100 41t41 100q0 58 -41 99t-100 41q-58 0 -99 -41
t-41 -99q0 -59 41 -100t99 -41z" />
    <glyph glyph-name="uni1ED2" unicode="&#x1ed2;" horiz-adv-x="839" 
d="M315 906h-86l-94 168h126zM360 777h-109l104 133h114l104 -133h-109l-52 64zM420 -15q-157 0 -267.5 111.5t-110.5 268.5q0 156 110.5 267t267.5 111t267.5 -111t110.5 -267q0 -157 -110.5 -268.5t-267.5 -111.5zM420 139q93 0 158.5 66t65.5 160q0 93 -66 159t-158 66
t-158.5 -66t-66.5 -159q0 -94 66 -160t159 -66z" />
    <glyph glyph-name="uni1ED3" unicode="&#x1ed3;" 
d="M276 741h-87l-93 168h125zM320 612h-109l104 133h114l105 -133h-109l-53 64zM314 -9q-117 0 -199.5 83.5t-82.5 200.5t82.5 200t199.5 83t200.5 -83.5t83.5 -199.5q0 -117 -83.5 -200.5t-200.5 -83.5zM314 134q59 0 100 41t41 100q0 58 -41 99t-100 41q-58 0 -99 -41
t-41 -99q0 -59 41 -100t99 -41z" />
    <glyph glyph-name="uni1ED4" unicode="&#x1ed4;" horiz-adv-x="839" 
d="M465 906v61q62 0 62 27q0 25 -42 25q-39 0 -58 -13l-29 72q33 22 98 22q48 0 82.5 -29t34.5 -68q0 -41 -40 -69t-108 -28zM320 776h-109l104 133h114l104 -133h-109l-52 64zM420 -15q-157 0 -267.5 111.5t-110.5 268.5q0 156 110.5 267t267.5 111t267.5 -111t110.5 -267
q0 -157 -110.5 -268.5t-267.5 -111.5zM420 139q93 0 158.5 66t65.5 160q0 93 -66 159t-158 66t-158.5 -66t-66.5 -159q0 -94 66 -160t159 -66z" />
    <glyph glyph-name="uni1ED5" unicode="&#x1ed5;" 
d="M380 741v61q61 0 61 27q0 25 -41 25q-37 0 -59 -13l-27 72q31 22 97 22q49 0 83 -29t34 -68q0 -41 -39.5 -69t-108.5 -28zM235 611h-109l104 133h114l105 -133h-109l-53 64zM314 -9q-117 0 -199.5 83.5t-82.5 200.5t82.5 200t199.5 83t200.5 -83.5t83.5 -199.5
q0 -117 -83.5 -200.5t-200.5 -83.5zM314 134q59 0 100 41t41 100q0 58 -41 99t-100 41q-58 0 -99 -41t-41 -99q0 -59 41 -100t99 -41z" />
    <glyph glyph-name="uni1ED6" unicode="&#x1ed6;" horiz-adv-x="839" 
d="M481 932q-31 -1 -55 15t-39.5 31.5t-26.5 14.5q-22 -2 -22 -48h-87q0 54 24.5 90.5t70.5 37.5q31 0 54.5 -16t39.5 -32t27 -15q20 2 20 49h87q0 -58 -23.5 -92t-69.5 -35zM360 777h-109l104 132h114l104 -132h-109l-52 63zM420 -15q-157 0 -267.5 111.5t-110.5 268.5
q0 156 110.5 267t267.5 111t267.5 -111t110.5 -267q0 -157 -110.5 -268.5t-267.5 -111.5zM420 139q93 0 158.5 66t65.5 160q0 93 -66 159t-158 66t-158.5 -66t-66.5 -159q0 -94 66 -160t159 -66z" />
    <glyph glyph-name="uni1ED7" unicode="&#x1ed7;" 
d="M380 767q-30 -1 -54 15t-40 31.5t-27 14.5q-22 -2 -22 -48h-87q0 53 24.5 90t70.5 38q31 0 55 -16t39.5 -32t26.5 -15q20 2 20 49h88q0 -58 -24 -92t-70 -35zM259 612h-109l104 132h114l105 -132h-109l-53 63zM314 -9q-117 0 -199.5 83.5t-82.5 200.5t82.5 200t199.5 83
t200.5 -83.5t83.5 -199.5q0 -117 -83.5 -200.5t-200.5 -83.5zM314 134q59 0 100 41t41 100q0 58 -41 99t-100 41q-58 0 -99 -41t-41 -99q0 -59 41 -100t99 -41z" />
    <glyph glyph-name="uni1ED8" unicode="&#x1ed8;" horiz-adv-x="839" 
d="M363 824h-109l105 133h114l104 -133h-109l-52 64zM420 -15q-157 0 -267.5 111.5t-110.5 268.5q0 156 110.5 267t267.5 111t267.5 -111t110.5 -267q0 -157 -110.5 -268.5t-267.5 -111.5zM420 139q93 0 158.5 66t65.5 160q0 93 -66 159t-158 66t-158.5 -66t-66.5 -159
q0 -94 66 -160t159 -66zM416 -207q-33 0 -56 23t-23 56q0 32 23 55t56 23q32 0 55 -23t23 -55q0 -33 -23 -56t-55 -23z" />
    <glyph glyph-name="uni1ED9" unicode="&#x1ed9;" 
d="M263 654h-109l104 133h114l104 -133h-109l-52 64zM314 -9q-117 0 -199.5 83.5t-82.5 200.5t82.5 200t199.5 83t200.5 -83.5t83.5 -199.5q0 -117 -83.5 -200.5t-200.5 -83.5zM314 134q59 0 100 41t41 100q0 58 -41 99t-100 41q-58 0 -99 -41t-41 -99q0 -59 41 -100t99 -41
zM315 -207q-33 0 -56 23t-23 56q0 32 23 55t56 23q32 0 54.5 -23t22.5 -55q0 -33 -22.5 -56t-54.5 -23z" />
    <glyph glyph-name="uni1EDA" unicode="&#x1eda;" horiz-adv-x="842" 
d="M443 806h-87l55 168h125zM420 -15q-157 0 -267.5 111.5t-110.5 268.5q0 156 110.5 267t267.5 111q148 0 257 -101q13 1 23.5 10t10.5 26v83h79v-109q0 -54 -55 -80q63 -95 63 -207q0 -157 -110.5 -268.5t-267.5 -111.5zM420 139q93 0 158.5 66t65.5 160q0 93 -66 159
t-158 66t-158.5 -66t-66.5 -159q0 -94 66 -160t159 -66z" />
    <glyph glyph-name="uni1EDB" unicode="&#x1edb;" 
d="M342 636h-87l55 168h125zM314 -9q-117 0 -199.5 83.5t-82.5 200.5t82.5 200t199.5 83q96 0 174 -62q27 6 27 35v82h80v-109q0 -47 -45 -74q48 -70 48 -155q0 -117 -83.5 -200.5t-200.5 -83.5zM314 134q59 0 100 41t41 100q0 58 -41 99t-100 41q-58 0 -99 -41t-41 -99
q0 -59 41 -100t99 -41z" />
    <glyph glyph-name="uni1EDC" unicode="&#x1edc;" horiz-adv-x="842" 
d="M461 806h-86l-94 168h125zM420 -15q-157 0 -267.5 111.5t-110.5 268.5q0 156 110.5 267t267.5 111q148 0 257 -101q13 1 23.5 10t10.5 26v83h79v-109q0 -54 -55 -80q63 -95 63 -207q0 -157 -110.5 -268.5t-267.5 -111.5zM420 139q93 0 158.5 66t65.5 160q0 93 -66 159
t-158 66t-158.5 -66t-66.5 -159q0 -94 66 -160t159 -66z" />
    <glyph glyph-name="uni1EDD" unicode="&#x1edd;" 
d="M373 636h-86l-94 168h126zM314 -9q-117 0 -199.5 83.5t-82.5 200.5t82.5 200t199.5 83q96 0 174 -62q27 6 27 35v82h80v-109q0 -47 -45 -74q48 -70 48 -155q0 -117 -83.5 -200.5t-200.5 -83.5zM314 134q59 0 100 41t41 100q0 58 -41 99t-100 41q-58 0 -99 -41t-41 -99
q0 -59 41 -100t99 -41z" />
    <glyph glyph-name="uni1EDE" unicode="&#x1ede;" horiz-adv-x="842" 
d="M377 794v61q62 0 62 27q0 25 -42 25q-40 0 -58 -14l-28 72q33 22 98 22q48 0 82.5 -28.5t34.5 -68.5q0 -41 -40 -68.5t-109 -27.5zM420 -15q-157 0 -267.5 111.5t-110.5 268.5q0 156 110.5 267t267.5 111q148 0 257 -101q13 1 23.5 10t10.5 26v83h79v-109q0 -54 -55 -80
q63 -95 63 -207q0 -157 -110.5 -268.5t-267.5 -111.5zM420 139q93 0 158.5 66t65.5 160q0 93 -66 159t-158 66t-158.5 -66t-66.5 -159q0 -94 66 -160t159 -66z" />
    <glyph glyph-name="uni1EDF" unicode="&#x1edf;" 
d="M275 624v61q62 0 62 27q0 25 -42 25q-40 0 -58 -14l-29 72q33 22 98 22q49 0 83 -28.5t34 -68.5q0 -41 -40 -68.5t-108 -27.5zM314 -9q-117 0 -199.5 83.5t-82.5 200.5t82.5 200t199.5 83q96 0 174 -62q27 6 27 35v82h80v-109q0 -47 -45 -74q48 -70 48 -155
q0 -117 -83.5 -200.5t-200.5 -83.5zM314 134q59 0 100 41t41 100q0 58 -41 99t-100 41q-58 0 -99 -41t-41 -99q0 -59 41 -100t99 -41z" />
    <glyph glyph-name="uni1EE0" unicode="&#x1ee0;" horiz-adv-x="842" 
d="M482 820q-30 -1 -54 15t-40 32t-27 15q-22 -2 -22 -49h-87q0 54 24.5 91t70.5 37q31 1 55 -15t39.5 -31.5t26.5 -14.5q20 2 20 48h88q0 -58 -24 -92.5t-70 -35.5zM420 -15q-157 0 -267.5 111.5t-110.5 268.5q0 156 110.5 267t267.5 111q148 0 257 -101q13 1 23.5 10
t10.5 26v83h79v-109q0 -54 -55 -80q63 -95 63 -207q0 -157 -110.5 -268.5t-267.5 -111.5zM420 139q93 0 158.5 66t65.5 160q0 93 -66 159t-158 66t-158.5 -66t-66.5 -159q0 -94 66 -160t159 -66z" />
    <glyph glyph-name="uni1EE1" unicode="&#x1ee1;" 
d="M384 650q-30 -1 -54 15.5t-40 32t-27 14.5q-22 -2 -22 -49h-87q0 54 24.5 91t70.5 37q31 1 55 -14.5t39.5 -31.5t26.5 -15q20 2 20 48h88q0 -58 -23.5 -92.5t-70.5 -35.5zM314 -9q-117 0 -199.5 83.5t-82.5 200.5t82.5 200t199.5 83q96 0 174 -62q27 6 27 35v82h80v-109
q0 -47 -45 -74q48 -70 48 -155q0 -117 -83.5 -200.5t-200.5 -83.5zM314 134q59 0 100 41t41 100q0 58 -41 99t-100 41q-58 0 -99 -41t-41 -99q0 -59 41 -100t99 -41z" />
    <glyph glyph-name="uni1EE2" unicode="&#x1ee2;" horiz-adv-x="842" 
d="M420 -15q-157 0 -267.5 111.5t-110.5 268.5q0 156 110.5 267t267.5 111q148 0 257 -101q13 1 23.5 10t10.5 26v83h79v-109q0 -54 -55 -80q63 -95 63 -207q0 -157 -110.5 -268.5t-267.5 -111.5zM420 139q93 0 158.5 66t65.5 160q0 93 -66 159t-158 66t-158.5 -66
t-66.5 -159q0 -94 66 -160t159 -66zM421 -207q-32 0 -55 23t-23 56q0 32 23 55t55 23t55 -23t23 -55q0 -33 -23 -56t-55 -23z" />
    <glyph glyph-name="uni1EE3" unicode="&#x1ee3;" 
d="M314 -9q-117 0 -199.5 83.5t-82.5 200.5t82.5 200t199.5 83q96 0 174 -62q27 6 27 35v82h80v-109q0 -47 -45 -74q48 -70 48 -155q0 -117 -83.5 -200.5t-200.5 -83.5zM314 134q59 0 100 41t41 100q0 58 -41 99t-100 41q-58 0 -99 -41t-41 -99q0 -59 41 -100t99 -41z
M316 -207q-33 0 -56 23t-23 56q0 32 23 55t56 23q32 0 55 -23t23 -55q0 -33 -23 -56t-55 -23z" />
    <glyph glyph-name="uni1EE4" unicode="&#x1ee4;" horiz-adv-x="693" 
d="M346 -14q-124 0 -205.5 80.5t-81.5 210.5v453h150v-452q0 -67 38 -104.5t98 -37.5t99.5 37.5t39.5 104.5v452h150v-453q0 -130 -82 -210.5t-206 -80.5zM348 -207q-33 0 -56 23t-23 56q0 32 23 55t56 23q32 0 54.5 -23t22.5 -55q0 -33 -22.5 -56t-54.5 -23z" />
    <glyph glyph-name="uni1EE5" unicode="&#x1ee5;" horiz-adv-x="616" 
d="M267 -9q-100 0 -158.5 69.5t-58.5 209.5v280h141v-280q0 -69 32 -104.5t81 -35.5q48 0 80.5 35.5t32.5 104.5v280h140v-550h-128l-8 81q-24 -40 -64 -65t-90 -25zM305 -207q-33 0 -56 23t-23 56q0 32 23 55t56 23q32 0 54.5 -23t22.5 -55q0 -33 -22.5 -56t-54.5 -23z" />
    <glyph glyph-name="uni1EE6" unicode="&#x1ee6;" horiz-adv-x="693" 
d="M286 794v61q62 0 62 27q0 25 -42 25q-40 0 -58 -14l-28 72q31 22 97 22q49 0 83 -28.5t34 -68.5q0 -41 -39.5 -68.5t-108.5 -27.5zM346 -14q-124 0 -205.5 80.5t-81.5 210.5v453h150v-452q0 -67 38 -104.5t98 -37.5t99.5 37.5t39.5 104.5v452h150v-453q0 -130 -82 -210.5
t-206 -80.5z" />
    <glyph glyph-name="uni1EE7" unicode="&#x1ee7;" horiz-adv-x="616" 
d="M263 624v61q61 0 61 27q0 25 -41 25t-59 -14l-28 72q33 22 98 22q49 0 83 -28.5t34 -68.5q0 -41 -40 -68.5t-108 -27.5zM267 -9q-100 0 -158.5 69.5t-58.5 209.5v280h141v-280q0 -69 32 -104.5t81 -35.5q48 0 80.5 35.5t32.5 104.5v280h140v-550h-128l-8 81
q-24 -40 -64 -65t-90 -25z" />
    <glyph glyph-name="uni1EE8" unicode="&#x1ee8;" horiz-adv-x="716" 
d="M368 806h-86l55 168h125zM346 -14q-124 0 -205.5 80.5t-81.5 210.5v453h150v-452q0 -67 38 -104.5t98 -37.5t99.5 37.5t39.5 104.5v452h112q33 0 33 27v74h79v-101q0 -32 -20.5 -53.5t-53.5 -28.5v-371q0 -130 -82 -210.5t-206 -80.5z" />
    <glyph glyph-name="uni1EE9" unicode="&#x1ee9;" horiz-adv-x="619" 
d="M343 636h-86l54 168h126zM267 -9q-100 0 -158.5 69.5t-58.5 209.5v280h141v-280q0 -69 32 -104.5t81 -35.5q48 0 80.5 35.5t32.5 104.5v280h91q26 4 26 30v82h79v-109q0 -51 -56 -75v-478h-128l-8 81q-24 -40 -64 -65t-90 -25z" />
    <glyph glyph-name="uni1EEA" unicode="&#x1eea;" horiz-adv-x="716" 
d="M403 806h-86l-94 168h126zM346 -14q-124 0 -205.5 80.5t-81.5 210.5v453h150v-452q0 -67 38 -104.5t98 -37.5t99.5 37.5t39.5 104.5v452h112q33 0 33 27v74h79v-101q0 -32 -20.5 -53.5t-53.5 -28.5v-371q0 -130 -82 -210.5t-206 -80.5z" />
    <glyph glyph-name="uni1EEB" unicode="&#x1eeb;" horiz-adv-x="619" 
d="M362 636h-86l-94 168h126zM267 -9q-100 0 -158.5 69.5t-58.5 209.5v280h141v-280q0 -69 32 -104.5t81 -35.5q48 0 80.5 35.5t32.5 104.5v280h91q26 4 26 30v82h79v-109q0 -51 -56 -75v-478h-128l-8 81q-24 -40 -64 -65t-90 -25z" />
    <glyph glyph-name="uni1EEC" unicode="&#x1eec;" horiz-adv-x="716" 
d="M317 794v61q62 0 62 27q0 25 -42 25q-40 0 -58 -14l-28 72q31 22 97 22q49 0 83 -28.5t34 -68.5q0 -41 -39.5 -68.5t-108.5 -27.5zM346 -14q-124 0 -205.5 80.5t-81.5 210.5v453h150v-452q0 -67 38 -104.5t98 -37.5t99.5 37.5t39.5 104.5v452h112q33 0 33 27v74h79v-101
q0 -32 -20.5 -53.5t-53.5 -28.5v-371q0 -130 -82 -210.5t-206 -80.5z" />
    <glyph glyph-name="uni1EED" unicode="&#x1eed;" horiz-adv-x="619" 
d="M263 624v61q61 0 61 27q0 25 -41 25t-59 -14l-28 72q33 22 98 22q49 0 83 -28.5t34 -68.5q0 -41 -40 -68.5t-108 -27.5zM267 -9q-100 0 -158.5 69.5t-58.5 209.5v280h141v-280q0 -69 32 -104.5t81 -35.5q48 0 80.5 35.5t32.5 104.5v280h91q26 4 26 30v82h79v-109
q0 -51 -56 -75v-478h-128l-8 81q-24 -40 -64 -65t-90 -25z" />
    <glyph glyph-name="uni1EEE" unicode="&#x1eee;" horiz-adv-x="716" 
d="M426 820q-30 -1 -54 15t-40 32t-27 15q-21 -2 -21 -49h-88q0 55 25 91.5t71 36.5q31 1 54.5 -15t39 -31.5t26.5 -14.5q21 2 21 48h87q0 -58 -24 -92.5t-70 -35.5zM346 -14q-124 0 -205.5 80.5t-81.5 210.5v453h150v-452q0 -67 38 -104.5t98 -37.5t99.5 37.5t39.5 104.5
v452h112q33 0 33 27v74h79v-101q0 -32 -20.5 -53.5t-53.5 -28.5v-371q0 -130 -82 -210.5t-206 -80.5z" />
    <glyph glyph-name="uni1EEF" unicode="&#x1eef;" horiz-adv-x="619" 
d="M357 650q-30 -1 -54 15.5t-40 32t-27 14.5q-21 -2 -21 -49h-88q0 55 25 91.5t71 36.5q31 1 54.5 -14.5t39 -31.5t26.5 -15q21 2 21 48h87q0 -58 -23.5 -92.5t-70.5 -35.5zM267 -9q-100 0 -158.5 69.5t-58.5 209.5v280h141v-280q0 -69 32 -104.5t81 -35.5q48 0 80.5 35.5
t32.5 104.5v280h91q26 4 26 30v82h79v-109q0 -51 -56 -75v-478h-128l-8 81q-24 -40 -64 -65t-90 -25z" />
    <glyph glyph-name="uni1EF0" unicode="&#x1ef0;" horiz-adv-x="716" 
d="M346 -14q-124 0 -205.5 80.5t-81.5 210.5v453h150v-452q0 -67 38 -104.5t98 -37.5t99.5 37.5t39.5 104.5v452h112q33 0 33 27v74h79v-101q0 -32 -20.5 -53.5t-53.5 -28.5v-371q0 -130 -82 -210.5t-206 -80.5zM348 -207q-33 0 -56 23t-23 56q0 32 23 55t56 23
q32 0 54.5 -23t22.5 -55q0 -33 -22.5 -56t-54.5 -23z" />
    <glyph glyph-name="uni1EF1" unicode="&#x1ef1;" horiz-adv-x="619" 
d="M267 -9q-100 0 -158.5 69.5t-58.5 209.5v280h141v-280q0 -69 32 -104.5t81 -35.5q48 0 80.5 35.5t32.5 104.5v280h91q26 4 26 30v82h79v-109q0 -51 -56 -75v-478h-128l-8 81q-24 -40 -64 -65t-90 -25zM332 -207q-32 0 -55 23t-23 56q0 32 23 55t55 23t55 -23t23 -55
q0 -33 -23 -56t-55 -23z" />
    <glyph glyph-name="Ygrave" unicode="&#x1ef2;" horiz-adv-x="653" 
d="M370 806h-87l-93 168h126zM401 0h-150v300l-243 430h169l150 -264l149 264h169l-244 -430v-300z" />
    <glyph glyph-name="ygrave" unicode="&#x1ef3;" horiz-adv-x="567" 
d="M337 636h-87l-93 168h125zM115 -230q-58 0 -107 20l39 124q33 -11 62 -11q80 0 118 115l-212 532h151l124 -340l120 340h149l-193 -550q-43 -123 -103.5 -176.5t-147.5 -53.5z" />
    <glyph glyph-name="uni1EF4" unicode="&#x1ef4;" horiz-adv-x="653" 
d="M401 0h-150v300l-243 430h169l150 -264l149 264h169l-244 -430v-300zM322 -207q-33 0 -56 23t-23 56q0 32 23 55t56 23q32 0 55 -23t23 -55q0 -33 -23 -56t-55 -23z" />
    <glyph glyph-name="uni1EF4" unicode="&#x1ef5;" horiz-adv-x="653" 
d="M401 0h-150v300l-243 430h169l150 -264l149 264h169l-244 -430v-300zM322 -207q-33 0 -56 23t-23 56q0 32 23 55t56 23q32 0 55 -23t23 -55q0 -33 -23 -56t-55 -23z" />
    <glyph glyph-name="uni1EF6" unicode="&#x1ef6;" horiz-adv-x="653" 
d="M285 794v61q62 0 62 27q0 25 -42 25q-38 0 -58 -14l-27 72q31 22 97 22q49 0 83 -28.5t34 -68.5q0 -41 -39.5 -68.5t-109.5 -27.5zM401 0h-150v300l-243 430h169l150 -264l149 264h169l-244 -430v-300z" />
    <glyph glyph-name="uni1EF7" unicode="&#x1ef7;" horiz-adv-x="567" 
d="M243 624v61q61 0 61 27q0 25 -41 25t-59 -14l-28 72q33 22 98 22q49 0 83 -28.5t34 -68.5q0 -41 -40 -68.5t-108 -27.5zM115 -230q-58 0 -107 20l39 124q33 -11 62 -11q80 0 118 115l-212 532h151l124 -340l120 340h149l-193 -550q-43 -123 -103.5 -176.5t-147.5 -53.5z
" />
    <glyph glyph-name="uni1EF8" unicode="&#x1ef8;" horiz-adv-x="653" 
d="M395 820q-31 -1 -55 15t-39.5 32t-26.5 15q-22 -2 -22 -49h-88q0 55 25 91.5t71 36.5q31 1 55 -14.5t39 -31.5t26 -15q21 2 21 48h87q0 -58 -23.5 -92.5t-69.5 -35.5zM401 0h-150v300l-243 430h169l150 -264l149 264h169l-244 -430v-300z" />
    <glyph glyph-name="uni1EF9" unicode="&#x1ef9;" horiz-adv-x="567" 
d="M352 650q-30 -1 -54 15t-40 32t-27 15q-21 -2 -21 -49h-88q0 55 25 91.5t71 36.5q31 1 54.5 -15t39 -31.5t26.5 -14.5q21 2 21 48h87q0 -58 -24 -92.5t-70 -35.5zM115 -230q-58 0 -107 20l39 124q33 -11 62 -11q80 0 118 115l-212 532h151l124 -340l120 340h149
l-193 -550q-43 -123 -103.5 -176.5t-147.5 -53.5z" />
    <glyph glyph-name="endash" unicode="&#x2013;" horiz-adv-x="482" 
d="M455 254h-427v112h426z" />
    <glyph glyph-name="emdash" unicode="&#x2014;" horiz-adv-x="968" 
d="M941 279h-913v87h912z" />
    <glyph glyph-name="quoteleft" unicode="&#x2018;" horiz-adv-x="256" 
d="M167 456h-125l81 274h92z" />
    <glyph glyph-name="quoteright" unicode="&#x2019;" horiz-adv-x="209" 
d="M110 456h-92l48 274h126z" />
    <glyph glyph-name="quotesinglbase" unicode="&#x201a;" horiz-adv-x="236" 
d="M134 -140h-92l27 275h126z" />
    <glyph glyph-name="quotedblleft" unicode="&#x201c;" horiz-adv-x="437" 
d="M167 456h-125l81 274h92zM348 456h-126l81 274h93z" />
    <glyph glyph-name="quotedblright" unicode="&#x201d;" horiz-adv-x="437" 
d="M134 456h-92l47 274h126zM314 456h-92l48 274h126z" />
    <glyph glyph-name="quotedblbase" unicode="&#x201e;" horiz-adv-x="417" 
d="M134 -140h-92l27 275h126zM314 -140h-92l28 275h126z" />
    <glyph glyph-name="dagger" unicode="&#x2020;" horiz-adv-x="562" 
d="M350 0h-137v488h-170v125h170v167h137v-167h168l1 -125h-169v-488z" />
    <glyph glyph-name="daggerdbl" unicode="&#x2021;" horiz-adv-x="551" 
d="M339 0h-128v215h-168v119h168v154h-168v118h168v174h128v-174h168l1 -118h-169v-154h168l1 -119h-169v-215z" />
    <glyph glyph-name="bullet" unicode="&#x2022;" horiz-adv-x="385" 
d="M193 188q-64 0 -108.5 44.5t-44.5 108.5t44.5 108.5t108.5 44.5t108 -44.5t44 -108.5t-44 -108.5t-108 -44.5z" />
    <glyph glyph-name="ellipsis" unicode="&#x2026;" horiz-adv-x="671" 
d="M106 -12q-32 0 -55 23.5t-23 55.5q0 33 23 56t55 23t55 -23t23 -56q0 -32 -23 -55.5t-55 -23.5zM336 -12q-32 0 -55 23.5t-23 55.5q0 33 23 56t55 23t55 -23t23 -56q0 -32 -23 -55.5t-55 -23.5zM566 -12q-32 0 -55 23.5t-23 55.5q0 33 23 56t55 23t55 -23t23 -56
q0 -32 -23 -55.5t-55 -23.5z" />
    <glyph glyph-name="perthousand" unicode="&#x2030;" horiz-adv-x="1197" 
d="M193 395q-74 0 -119.5 54.5t-45.5 143.5q0 87 45.5 140.5t119.5 53.5t119 -53t45 -141q0 -89 -45 -143.5t-119 -54.5zM251 0h-98l404 781h98zM192 481q35 0 57.5 27t22.5 85q0 55 -22.5 81.5t-57.5 26.5q-33 0 -56 -26.5t-23 -81.5q0 -58 23 -85t56 -27zM616 -10
q-74 0 -120 54.5t-46 143.5q0 87 46 140.5t120 53.5t119 -53t45 -141q0 -89 -45 -143.5t-119 -54.5zM1005 -10q-74 0 -120 54.5t-46 143.5q0 87 46 140.5t120 53.5t119 -53t45 -141q0 -89 -45 -143.5t-119 -54.5zM615 76q35 0 57.5 27t22.5 85q0 55 -22.5 81.5t-57.5 26.5
q-34 0 -56.5 -26.5t-22.5 -81.5q0 -58 22.5 -85t56.5 -27zM1004 76q35 0 57.5 27t22.5 85q0 55 -22.5 81.5t-57.5 26.5q-34 0 -56.5 -26.5t-22.5 -81.5q0 -58 22.5 -85t56.5 -27z" />
    <glyph glyph-name="guilsinglleft" unicode="&#x2039;" horiz-adv-x="349" 
d="M308 179h-125l-141 186l141 187h125l-141 -187z" />
    <glyph glyph-name="guilsinglright" unicode="&#x203a;" horiz-adv-x="349" 
d="M166 179h-124l140 186l-140 187h124l142 -187z" />
    <glyph glyph-name="fraction" unicode="&#x2044;" horiz-adv-x="507" 
d="M139 0h-125l354 729h125z" />
    <glyph glyph-name="franc" unicode="&#x20a3;" horiz-adv-x="590" 
d="M225 0h-150v114h-60v87h60v529h481v-144h-331v-152h311v-144h-311v-89h192v-87h-192v-114z" />
    <glyph glyph-name="lira" unicode="&#x20a4;" horiz-adv-x="628" 
d="M587 0h-545v131h82v95h-75v87h75v68h-75v87h76q5 129 70 201t167 72q64 0 118.5 -33t86.5 -89l-114 -74q-31 56 -88 56q-44 0 -70 -34.5t-29 -98.5h182l1 -87h-184v-68h183l1 -87h-184v-95h322v-131z" />
    <glyph glyph-name="peseta" unicode="&#x20a7;" horiz-adv-x="681" 
d="M89 469h-64v56h64v205h281q106 0 175 -57.5t81 -147.5h51v-56h-50q-8 -94 -77.5 -155.5t-179.5 -61.5h-131v-252h-150v469zM239 602v-77h227q-7 33 -34 55t-66 22h-127zM239 469v-89h127q43 0 71.5 25.5t34.5 63.5h-233z" />
    <glyph glyph-name="Euro" unicode="&#x20ac;" horiz-adv-x="703" 
d="M403 -11q-112 0 -194 67t-112 182h-66v88h52q-2 13 -2 39q0 22 1 33h-51v87h65q29 119 111 187.5t196 68.5q155 0 270 -110l-94 -85q-85 64 -176 64q-56 0 -101.5 -32t-65.5 -93h182l1 -87h-205q-2 -22 -2 -33q0 -19 3 -39h203l1 -88h-178q20 -57 63.5 -87t98.5 -30
q53 0 93 16.5t84 47.5l93 -86q-115 -110 -270 -110z" />
    <glyph glyph-name="uni2113" unicode="&#x2113;" horiz-adv-x="467" 
d="M252 -10q-78 0 -124 52t-46 142v81q-28 -2 -40 -2v100q14 0 40 2v233q0 83 47.5 132.5t123.5 49.5q74 0 121 -54.5t46 -136.5q-1 -109 -64.5 -186t-161.5 -112v-93q0 -95 60 -95t60 104h112q0 -100 -43.5 -158.5t-130.5 -58.5zM194 598v-185q50 24 82 72.5t32 103.5
q0 41 -16.5 64t-44.5 23q-27 0 -40 -21.5t-13 -56.5z" />
    <glyph glyph-name="uni2116" unicode="&#x2116;" horiz-adv-x="1146" 
d="M934 379q-75 0 -127 52.5t-52 126.5t52 126.5t127 52.5q74 0 126 -52.5t52 -126.5t-52 -126.5t-126 -52.5zM209 0h-150v730h150l328 -454v454h150v-730h-150l-328 454v-454zM934 489q28 0 48 20t20 49t-20 49t-48 20t-48 -20t-20 -49t20 -49t48 -20zM1112 199h-357v113
h357v-113z" />
    <glyph glyph-name="trademark" unicode="&#x2122;" horiz-adv-x="565" 
d="M142 550h-61v172h-67v58h195v-58h-67v-172zM313 550h-60v230h60l73 -109l71 109h61v-230h-61v125l-52 -84h-38l-54 84v-125z" />
    <glyph glyph-name="uni2126" unicode="&#x2126;" horiz-adv-x="832" 
d="M331 0h-280v131h112q-57 45 -89 111.5t-32 143.5q0 148 109 251t265 103t265.5 -103t109.5 -251q0 -76 -33 -143t-90 -112h112v-131h-281v131q64 25 109 90t45 144q0 102 -67.5 169.5t-169.5 67.5t-169.5 -67.5t-67.5 -169.5q0 -78 44.5 -143.5t107.5 -90.5v-131z" />
    <glyph glyph-name="estimated" unicode="&#x212e;" horiz-adv-x="617" 
d="M313 -11q-117 0 -199 83.5t-82 201.5t81 201t196 83q114 0 195.5 -83t81.5 -201q0 -17 -1 -25h-399v-172q58 -39 127 -39q57 0 106 26t81 70l41 -26q-37 -55 -97.5 -87t-130.5 -32zM186 471v-172h248v170q-59 41 -126 41q-65 0 -122 -39z" />
    <glyph glyph-name="uni2150" unicode="&#x2150;" horiz-adv-x="791" 
d="M154 0h-98l404 781h98zM152 337h-83v362h-45v81h128v-443zM602 0h-92l163 368h-210v76h306v-58z" />
    <glyph glyph-name="uni2151" unicode="&#x2151;" horiz-adv-x="773" 
d="M154 0h-98l404 781h98zM152 337h-83v362h-45v81h128v-443zM568 0h-101l104 140q-63 5 -105 49t-42 106q0 65 47.5 111.5t113.5 46.5q67 0 114 -46.5t47 -111.5q0 -54 -40 -104zM587 219q32 0 53.5 22.5t21.5 53.5q0 30 -22 52t-53 22q-32 0 -55.5 -22t-23.5 -52
q0 -31 23.5 -53.5t55.5 -22.5z" />
    <glyph glyph-name="uni2152" unicode="&#x2152;" horiz-adv-x="1103" 
d="M154 0h-98l404 781h98zM152 337h-83v362h-45v81h128v-443zM880 -4q-86 0 -139 63t-53 166q0 101 53 163t139 62q85 0 137.5 -62t52.5 -163q0 -103 -52.5 -166t-137.5 -63zM612 -1h-82v363h-45v80h127v-443zM879 80q46 0 76 35.5t30 109.5q0 71 -30 106t-76 35
q-45 0 -75 -35t-30 -106q0 -74 30 -109.5t75 -35.5z" />
    <glyph glyph-name="onethird" unicode="&#x2153;" horiz-adv-x="748" 
d="M154 0h-98l404 781h98zM152 337h-83v362h-45v81h128v-443zM564 -12q-53 0 -95.5 26t-60.5 69l75 29q9 -17 31.5 -28.5t45.5 -11.5q31 0 51 16t20 43q0 26 -22.5 44t-54.5 18h-24v79h25q23 0 41 14.5t18 33.5q0 22 -17 33.5t-40 11.5q-38 0 -55 -28l-73 30q15 35 52 57
t80 22q58 0 98 -31.5t40 -90.5q0 -53 -48 -89q64 -37 64 -109q0 -60 -45.5 -99t-105.5 -39z" />
    <glyph glyph-name="twothirds" unicode="&#x2154;" horiz-adv-x="891" 
d="M332 339h-303v57l169 163q41 38 41 78q0 27 -18 47.5t-49 20.5q-25 0 -43.5 -15t-25.5 -35l-71 23q12 48 51.5 79t90.5 31q62 0 105 -42t43 -109q0 -75 -64 -132l-92 -86h166v-80zM298 0h-98l404 781h98zM708 -12q-54 0 -96.5 26t-60.5 69l75 29q10 -17 32 -28.5
t46 -11.5q31 0 50.5 16t19.5 43q0 26 -22 44t-54 18h-25v79h26q22 0 40 14.5t18 33.5q0 22 -17 33.5t-39 11.5q-37 0 -56 -28l-73 30q16 35 53 57t79 22q59 0 99 -31.5t40 -90.5q0 -54 -49 -89q65 -38 65 -109q0 -60 -45.5 -99t-105.5 -39z" />
    <glyph glyph-name="uni2155" unicode="&#x2155;" horiz-adv-x="778" 
d="M154 0h-98l404 781h98zM152 337h-83v362h-45v81h128v-443zM594 -10q-49 0 -89 28.5t-57 73.5l76 28q8 -19 27.5 -31.5t42.5 -12.5q30 0 51 20.5t21 50.5q0 31 -20.5 52t-52.5 21q-42 0 -68 -35h-72l17 259h271v-81h-193l-7 -86q23 17 53 19q67 4 111.5 -39t44.5 -110
q0 -64 -45.5 -110.5t-110.5 -46.5z" />
    <glyph glyph-name="uni2156" unicode="&#x2156;" horiz-adv-x="906" 
d="M332 339h-303v57l169 163q41 38 41 78q0 27 -18 47.5t-49 20.5q-25 0 -43.5 -15t-25.5 -35l-71 23q12 48 51.5 79t90.5 31q62 0 105 -42t43 -109q0 -75 -64 -132l-92 -86h166v-80zM298 0h-98l404 781h98zM722 -11q-50 0 -89.5 29t-56.5 74l76 29q8 -20 28 -32.5t42 -12.5
q31 0 51.5 21t20.5 51t-20.5 51.5t-52.5 21.5q-41 0 -67 -35h-73l18 259h271v-82h-194l-6 -85q23 18 52 18q67 4 112 -38.5t45 -109.5q0 -65 -46 -112t-111 -47z" />
    <glyph glyph-name="uni2157" unicode="&#x2157;" horiz-adv-x="918" 
d="M304 0h-98l404 781h98zM185 323q-54 0 -96 25.5t-60 67.5l75 29q9 -16 31.5 -27.5t45.5 -11.5q31 0 51 16t20 43q0 26 -22 44t-55 18h-24v79h26q22 0 40 14t18 34q0 22 -17 33.5t-40 11.5q-38 0 -55 -28l-73 30q16 35 52.5 56.5t79.5 21.5q59 0 99 -31.5t40 -89.5
q0 -55 -49 -90q64 -35 64 -108q0 -59 -45.5 -98t-105.5 -39zM735 -10q-50 0 -89.5 28.5t-56.5 73.5l76 28q8 -19 27.5 -31.5t42.5 -12.5q30 0 51 20.5t21 50.5q0 31 -20.5 52t-52.5 21q-44 0 -68 -35h-73l18 259h271v-81h-194l-6 -86q22 17 53 19q67 4 111.5 -39t44.5 -110
q0 -64 -46 -110.5t-110 -46.5z" />
    <glyph glyph-name="uni2158" unicode="&#x2158;" horiz-adv-x="924" 
d="M307 337h-83v100h-210v83l187 261h106v-261h30v-83h-30v-100zM310 0h-99l404 781h99zM224 673l-116 -153h116v153zM740 -10q-49 0 -89 28.5t-57 73.5l76 28q8 -19 27.5 -31.5t42.5 -12.5q31 0 51.5 20.5t20.5 50.5q0 31 -20 52t-52 21q-43 0 -69 -35h-72l17 259h271v-81
h-193l-6 -86q22 17 52 19q67 4 111.5 -39t44.5 -110q0 -64 -45.5 -110.5t-110.5 -46.5z" />
    <glyph glyph-name="uni2159" unicode="&#x2159;" horiz-adv-x="712" 
d="M154 0h-98l404 781h98zM152 337h-83v362h-45v81h128v-443zM522 -12q-67 0 -114.5 47.5t-47.5 113.5q0 53 39 102l141 195h103l-105 -141q62 -5 104 -49.5t42 -106.5q0 -66 -47.5 -113.5t-114.5 -47.5zM521 74q33 0 56 22.5t23 52.5q0 31 -23 53t-56 22q-32 0 -53.5 -22
t-21.5 -53q0 -30 22 -52.5t53 -22.5z" />
    <glyph glyph-name="uni215A" unicode="&#x215a;" horiz-adv-x="868" 
d="M287 0h-98l404 781h98zM179 328q-50 0 -89.5 28t-56.5 72l76 28q8 -19 27.5 -31.5t42.5 -12.5q31 0 51.5 21t20.5 50q0 30 -20.5 51.5t-52.5 21.5q-41 0 -68 -34h-73l18 258h271v-81h-193l-6 -85q23 18 52 18q67 4 111.5 -38.5t44.5 -110.5q0 -64 -46 -109.5t-110 -45.5z
M679 -12q-67 0 -114.5 47.5t-47.5 113.5q0 53 39 102l140 195h103l-105 -141q63 -5 105 -49.5t42 -106.5q0 -66 -47.5 -113.5t-114.5 -47.5zM678 74q32 0 55 22.5t23 52.5q0 31 -23 53t-55 22t-54 -22.5t-22 -52.5t22.5 -52.5t53.5 -22.5z" />
    <glyph glyph-name="oneeighth" unicode="&#x215b;" horiz-adv-x="768" 
d="M154 0h-98l404 781h98zM152 337h-83v362h-45v81h128v-443zM576 -13q-67 0 -113.5 40t-46.5 102q0 69 61 107q-40 32 -40 85q0 54 40.5 90t98.5 36t98.5 -36t40.5 -90q0 -52 -40 -85q61 -36 61 -106q0 -61 -46.5 -102t-113.5 -41zM576 265q23 0 40 14.5t17 36.5t-16.5 36
t-40.5 14t-40.5 -14t-16.5 -36t16.5 -36.5t40.5 -14.5zM576 64q32 0 53.5 19t21.5 47t-21.5 46.5t-53.5 18.5t-53.5 -18.5t-21.5 -46.5q0 -29 21 -47.5t54 -18.5z" />
    <glyph glyph-name="threeeighths" unicode="&#x215c;" horiz-adv-x="919" 
d="M304 0h-98l404 781h98zM185 323q-54 0 -96 25.5t-60 67.5l75 29q9 -16 31.5 -27.5t45.5 -11.5q31 0 51 16t20 43q0 26 -22 44t-55 18h-24v79h26q22 0 40 14t18 34q0 22 -17 33.5t-40 11.5q-38 0 -55 -28l-73 30q16 35 52.5 56.5t79.5 21.5q59 0 99 -31.5t40 -89.5
q0 -55 -49 -90q64 -35 64 -108q0 -59 -45.5 -98t-105.5 -39zM727 -13q-67 0 -113 40t-46 102q0 70 60 107q-40 33 -40 85q0 54 40 90t99 36q58 0 98.5 -36t40.5 -90q0 -53 -40 -85q60 -37 60 -106q0 -61 -46 -102t-113 -41zM727 265q23 0 40 14.5t17 36.5t-16.5 36t-40.5 14
t-40.5 -14t-16.5 -36t16.5 -36.5t40.5 -14.5zM727 64q32 0 53.5 19t21.5 47q0 29 -21 47t-54 18q-32 0 -53.5 -18.5t-21.5 -46.5t21.5 -47t53.5 -19z" />
    <glyph glyph-name="fiveeighths" unicode="&#x215d;" horiz-adv-x="901" 
d="M287 0h-98l404 781h98zM179 328q-50 0 -89.5 28t-56.5 72l76 28q8 -19 27.5 -31.5t42.5 -12.5q31 0 51.5 21t20.5 50q0 30 -20.5 51.5t-52.5 21.5q-41 0 -68 -34h-73l18 258h271v-81h-193l-6 -85q23 18 52 18q67 4 111.5 -38.5t44.5 -110.5q0 -64 -46 -109.5t-110 -45.5z
M710 -13q-67 0 -113.5 40t-46.5 102q0 70 61 107q-41 33 -41 85q0 54 40.5 90t98.5 36t98.5 -36t40.5 -90q0 -53 -40 -85q61 -36 61 -106q0 -61 -46 -102t-113 -41zM709 265q24 0 41 15t17 36q0 22 -17 36t-41 14t-40.5 -14t-16.5 -36t17 -36.5t40 -14.5zM710 64
q31 0 52.5 19t21.5 47q0 29 -21 47t-54 18q-32 0 -53.5 -18.5t-21.5 -46.5q0 -29 21.5 -47.5t54.5 -18.5z" />
    <glyph glyph-name="seveneighths" unicode="&#x215e;" horiz-adv-x="798" 
d="M184 0h-98l404 781h98zM160 336h-92l156 368h-210v76h306v-58zM606 -13q-67 0 -113.5 40t-46.5 102q0 69 61 107q-40 32 -40 85q0 54 40.5 90t98.5 36t98.5 -36t40.5 -90q0 -52 -40 -85q61 -36 61 -106q0 -61 -46.5 -102t-113.5 -41zM606 265q23 0 40 14.5t17 36.5
t-16.5 36t-40.5 14t-40.5 -14t-16.5 -36t16.5 -36.5t40.5 -14.5zM606 64q32 0 53.5 19t21.5 47t-21.5 46.5t-53.5 18.5t-53.5 -18.5t-21.5 -46.5q0 -29 21 -47.5t54 -18.5z" />
    <glyph glyph-name="arrowleft" unicode="&#x2190;" horiz-adv-x="781" 
d="M480 85h-158l-280 280l280 280h158l-223 -224h477v-112h-478z" />
    <glyph glyph-name="arrowup" unicode="&#x2191;" horiz-adv-x="643" 
d="M378 19h-113v477l-223 -224v160l280 280l280 -280v-160l-224 224v-477z" />
    <glyph glyph-name="arrowright" unicode="&#x2192;" horiz-adv-x="788" 
d="M460 85h-159l224 224h-477v112h477l-224 224h159l280 -280z" />
    <glyph glyph-name="arrowdown" unicode="&#x2193;" horiz-adv-x="655" 
d="M608 299l-280 -280l-280 280v159l223 -224v478h113v-478l224 224v-159z" />
    <glyph glyph-name="arrowboth" unicode="&#x2194;" horiz-adv-x="1067" 
d="M480 85h-158l-280 280l280 280h158l-223 -224h547l-224 224h159l280 -280l-280 -280h-159l224 224h-548z" />
    <glyph glyph-name="arrowupdn" unicode="&#x2195;" horiz-adv-x="643" 
d="M602 156l-280 -280l-280 280v159l223 -224v523l-223 -224v159l280 280l280 -280v-159l-224 224v-523l224 224v-159z" />
    <glyph glyph-name="uni2196" unicode="&#x2196;" horiz-adv-x="614" 
d="M570 202l-79 -79l-338 338v-316l-111 112v395h395l112 -111h-316z" />
    <glyph glyph-name="uni2197" unicode="&#x2197;" horiz-adv-x="614" 
d="M461 461l-338 -338l-79 79l338 339h-317l113 111h395v-395l-112 -112v316z" />
    <glyph glyph-name="uni2198" unicode="&#x2198;" horiz-adv-x="614" 
d="M573 121h-395l-113 111h317l-338 339l79 79l338 -338v316l112 -112v-395z" />
    <glyph glyph-name="uni2199" unicode="&#x2199;" horiz-adv-x="614" 
d="M437 121h-395v395l111 112v-316l338 338l79 -79l-337 -339h316z" />
    <glyph glyph-name="partialdiff" unicode="&#x2202;" horiz-adv-x="581" 
d="M240 -8q-93 0 -153.5 75.5t-46.5 179.5t93 178.5t176 74.5q78 0 119 -60q6 85 -19.5 133.5t-80.5 48.5q-62 0 -108 -47l-72 80q84 83 192 83q111 0 166 -103.5t32 -267.5q-18 -120 -46 -184q-32 -87 -99.5 -139t-152.5 -52zM256 118q48 0 86 38t45 91q6 55 -18.5 91.5
t-76.5 36.5q-46 0 -85 -38t-46 -90q-8 -54 18.5 -91.5t76.5 -37.5z" />
    <glyph glyph-name="product" unicode="&#x220f;" horiz-adv-x="655" 
d="M180 -220h-125v950h545v-950h-125v825h-295v-825z" />
    <glyph glyph-name="summation" unicode="&#x2211;" horiz-adv-x="580" 
d="M539 -220h-497v125l247 378l-235 328v119h468v-119h-314l235 -328l-250 -378h346v-125z" />
    <glyph glyph-name="minus" unicode="&#x2212;" horiz-adv-x="565" 
d="M505 309h-445v112h445v-112z" />
    <glyph glyph-name="uni2215" unicode="&#x2215;" horiz-adv-x="520" 
d="M135 0h-127l378 730h127z" />
    <glyph glyph-name="radical" unicode="&#x221a;" horiz-adv-x="643" 
d="M370 0h-121l-119 307h-81v112h158l99 -252l206 643h117z" />
    <glyph glyph-name="infinity" unicode="&#x221e;" horiz-adv-x="704" 
d="M205 182q-70 0 -118.5 49.5t-48.5 119.5q0 69 49 118.5t118 49.5q85 0 148 -85q60 85 147 85q69 0 118 -49.5t49 -118.5q0 -70 -48.5 -119.5t-118.5 -49.5q-87 0 -147 84q-64 -84 -148 -84zM209 289q43 0 78 62q-34 61 -78 61q-24 0 -41.5 -17.5t-17.5 -42.5
q0 -27 17 -45t42 -18zM496 289q25 0 41.5 18t16.5 45q0 25 -17 42.5t-41 17.5q-45 0 -79 -61q35 -62 79 -62z" />
    <glyph glyph-name="integral" unicode="&#x222b;" horiz-adv-x="400" 
d="M4 -220v112q52 0 76.5 23t32.5 76l62 559q10 105 67.5 158.5t154.5 53.5v-113q-53 0 -77.5 -23t-31.5 -76l-63 -559q-10 -104 -67 -157.5t-154 -53.5z" />
    <glyph glyph-name="approxequal" unicode="&#x2248;" horiz-adv-x="538" 
d="M391 311q-43 -6 -83 12.5t-74.5 38t-62.5 16.5q-43 -3 -57 -57l-94 39q18 62 54.5 94t82.5 35q32 2 64.5 -10t53.5 -27t47.5 -25t49.5 -6q38 6 52 58l94 -40q-34 -114 -127 -128zM391 120q-43 -6 -83 12.5t-74.5 38t-62.5 16.5q-43 -3 -57 -57l-94 39q18 62 54.5 94
t82.5 35q32 2 64.5 -10t53.5 -27t47.5 -25t49.5 -6q38 6 52 58l94 -40q-34 -114 -127 -128z" />
    <glyph glyph-name="notequal" unicode="&#x2260;" horiz-adv-x="528" 
d="M203 50h-135l60 152h-86v113h132l36 92h-168v112h213l64 162h135l-64 -162h97v-112h-142l-37 -92h179v-113h-224z" />
    <glyph glyph-name="lessequal" unicode="&#x2264;" horiz-adv-x="514" 
d="M467 319v-124l-425 163v117l425 162v-123l-283 -97zM467 34h-425v107h425v-107z" />
    <glyph glyph-name="greaterequal" unicode="&#x2265;" horiz-adv-x="508" 
d="M467 358l-425 -163v124l282 98l-282 97v123l425 -162v-117zM467 34h-425v107h425v-107z" />
    <glyph glyph-name="uni2460" unicode="&#x2460;" horiz-adv-x="816" 
d="M409 -13q-157 0 -267 110.5t-110 267.5q0 155 110 265.5t267 110.5q156 0 266 -110.5t110 -265.5q0 -157 -110 -267.5t-266 -110.5zM409 48q128 0 221 93.5t93 223.5q0 129 -93 222t-221 93q-130 0 -223 -93t-93 -222q0 -130 93 -223.5t223 -93.5zM455 143h-83v362h-45
v81h128v-443z" />
    <glyph glyph-name="uni2461" unicode="&#x2461;" horiz-adv-x="816" 
d="M409 -13q-157 0 -267 110.5t-110 267.5q0 155 110 265.5t267 110.5q156 0 266 -110.5t110 -265.5q0 -157 -110 -267.5t-266 -110.5zM409 48q128 0 221 93.5t93 223.5q0 129 -93 222t-221 93q-130 0 -223 -93t-93 -222q0 -130 93 -223.5t223 -93.5zM560 140h-303v57
l170 163q40 38 40 78q0 27 -18 47.5t-49 20.5q-24 0 -43 -15.5t-26 -34.5l-71 24q13 47 52.5 78t90.5 31q62 0 104.5 -42t42.5 -109q0 -73 -63 -131l-93 -86h166v-81z" />
    <glyph glyph-name="uni2462" unicode="&#x2462;" horiz-adv-x="816" 
d="M409 -13q-157 0 -267 110.5t-110 267.5q0 155 110 265.5t267 110.5q156 0 266 -110.5t110 -265.5q0 -157 -110 -267.5t-266 -110.5zM409 48q128 0 221 93.5t93 223.5q0 129 -93 222t-221 93q-130 0 -223 -93t-93 -222q0 -130 93 -223.5t223 -93.5zM411 136
q-54 0 -96.5 25.5t-60.5 68.5l75 29q10 -17 32 -28.5t46 -11.5q31 0 50.5 16t19.5 43q0 26 -22 44t-55 18h-24v79h26q22 0 40 14.5t18 33.5q0 22 -17 33.5t-39 11.5q-37 0 -56 -28l-73 30q16 35 53 57t79 22q59 0 99 -31.5t40 -90.5q0 -54 -49 -89q65 -38 65 -109
q0 -59 -45.5 -98t-105.5 -39z" />
    <glyph glyph-name="uni2463" unicode="&#x2463;" horiz-adv-x="816" 
d="M409 -13q-157 0 -267 110.5t-110 267.5q0 155 110 265.5t267 110.5q156 0 266 -110.5t110 -265.5q0 -157 -110 -267.5t-266 -110.5zM409 48q128 0 221 93.5t93 223.5q0 129 -93 222t-221 93q-130 0 -223 -93t-93 -222q0 -130 93 -223.5t223 -93.5zM506 142h-83v101h-209
v83l188 260h104v-260h30v-83h-30v-101zM423 479l-115 -153h115v153z" />
    <glyph glyph-name="uni2464" unicode="&#x2464;" horiz-adv-x="816" 
d="M409 -13q-157 0 -267 110.5t-110 267.5q0 155 110 265.5t267 110.5q156 0 266 -110.5t110 -265.5q0 -157 -110 -267.5t-266 -110.5zM409 48q128 0 221 93.5t93 223.5q0 129 -93 222t-221 93q-130 0 -223 -93t-93 -222q0 -130 93 -223.5t223 -93.5zM403 138
q-49 0 -88.5 28t-57.5 73l76 28q8 -19 28 -31.5t42 -12.5q31 0 52 20.5t21 50.5q0 31 -21 52t-53 21q-42 0 -67 -35h-73l18 259h271v-81h-194l-6 -85q22 16 52 18q66 5 111.5 -38.5t45.5 -110.5q0 -64 -46 -110t-111 -46z" />
    <glyph glyph-name="uni2465" unicode="&#x2465;" horiz-adv-x="816" 
d="M409 -13q-157 0 -267 110.5t-110 267.5q0 155 110 265.5t267 110.5q156 0 266 -110.5t110 -265.5q0 -157 -110 -267.5t-266 -110.5zM409 48q128 0 221 93.5t93 223.5q0 129 -93 222t-221 93q-130 0 -223 -93t-93 -222q0 -130 93 -223.5t223 -93.5zM400 137
q-67 0 -114.5 46.5t-47.5 112.5q0 52 31 94l148 203h103l-105 -141q62 -7 104.5 -50.5t42.5 -105.5q0 -66 -47.5 -112.5t-114.5 -46.5zM400 221q32 0 55 22.5t23 52.5q0 31 -23 53t-55 22t-54 -22t-22 -53q0 -30 22 -52.5t54 -22.5z" />
    <glyph glyph-name="uni2466" unicode="&#x2466;" horiz-adv-x="816" 
d="M409 -13q-157 0 -267 110.5t-110 267.5q0 155 110 265.5t267 110.5q156 0 266 -110.5t110 -265.5q0 -157 -110 -267.5t-266 -110.5zM409 48q128 0 221 93.5t93 223.5q0 129 -93 222t-221 93q-130 0 -223 -93t-93 -222q0 -130 93 -223.5t223 -93.5zM400 142h-91l156 368
h-210v76h306v-58z" />
    <glyph glyph-name="uni2467" unicode="&#x2467;" horiz-adv-x="816" 
d="M409 -13q-157 0 -267 110.5t-110 267.5q0 155 110 265.5t267 110.5q156 0 266 -110.5t110 -265.5q0 -157 -110 -267.5t-266 -110.5zM409 48q128 0 221 93.5t93 223.5q0 129 -93 222t-221 93q-130 0 -223 -93t-93 -222q0 -130 93 -223.5t223 -93.5zM403 134q-67 0 -113 40
t-46 102q0 70 60 107q-40 32 -40 85q0 54 40 90t98 36q59 0 99.5 -36t40.5 -90q0 -52 -40 -85q60 -37 60 -106q0 -61 -46 -102t-113 -41zM402 412q24 0 41 14.5t17 36.5t-17 36t-41 14t-40 -14t-16 -36t16.5 -36.5t39.5 -14.5zM403 211q32 0 53.5 19t21.5 47t-21.5 46.5
t-54.5 18.5q-31 0 -52.5 -18.5t-21.5 -46.5q0 -29 21 -47.5t54 -18.5z" />
    <glyph glyph-name="uni2468" unicode="&#x2468;" horiz-adv-x="816" 
d="M409 -13q-157 0 -267 110.5t-110 267.5q0 155 110 265.5t267 110.5q156 0 266 -110.5t110 -265.5q0 -157 -110 -267.5t-266 -110.5zM409 48q128 0 221 93.5t93 223.5q0 129 -93 222t-221 93q-130 0 -223 -93t-93 -222q0 -130 93 -223.5t223 -93.5zM393 137h-103l105 141
q-62 6 -105 49.5t-43 105.5q0 66 47.5 113t114.5 47t114.5 -47t47.5 -113q0 -51 -30 -94zM411 358q31 0 53 22.5t22 52.5q0 31 -22 53t-53 22q-33 0 -56.5 -22t-23.5 -53q0 -30 23.5 -52.5t56.5 -22.5z" />
    <glyph glyph-name="uni24EA" unicode="&#x24ea;" horiz-adv-x="816" 
d="M409 -13q-157 0 -267 110.5t-110 267.5q0 155 110 265.5t267 110.5q156 0 266 -110.5t110 -265.5q0 -157 -110 -267.5t-266 -110.5zM409 48q128 0 221 93.5t93 223.5q0 129 -93 222t-221 93q-130 0 -223 -93t-93 -222q0 -130 93 -223.5t223 -93.5zM409 137
q-86 0 -139.5 63t-53.5 166q0 101 53.5 163t139.5 62q85 0 137 -62t52 -163q0 -103 -52 -166t-137 -63zM408 222q45 0 75 35.5t30 108.5q0 72 -30 106.5t-75 34.5t-75.5 -34.5t-30.5 -106.5q0 -73 30.5 -108.5t75.5 -35.5z" />
    <glyph glyph-name="uni24FF" unicode="&#x24ff;" horiz-adv-x="816" 
d="M409 -13q-157 0 -267 110.5t-110 267.5q0 155 110 265.5t267 110.5q156 0 266 -110.5t110 -265.5q0 -157 -110 -267.5t-266 -110.5zM409 137q85 0 137 63t52 166q0 101 -52 163t-137 62q-86 0 -139.5 -62t-53.5 -163q0 -103 53.5 -166t139.5 -63zM408 222
q-45 0 -75.5 35.5t-30.5 108.5q0 72 30.5 106.5t75.5 34.5t75 -34.5t30 -106.5q0 -73 -30 -108.5t-75 -35.5z" />
    <glyph glyph-name="lozenge" unicode="&#x25ca;" horiz-adv-x="597" 
d="M363 0h-128l-193 365l193 365h128l193 -365zM169 365l130 -245l130 245l-130 245z" />
    <glyph glyph-name="uni2776" unicode="&#x2776;" horiz-adv-x="816" 
d="M409 -13q-157 0 -267 110.5t-110 267.5q0 155 110 265.5t267 110.5q156 0 266 -110.5t110 -265.5q0 -157 -110 -267.5t-266 -110.5zM372 505v-362h83v443h-128v-81h45z" />
    <glyph glyph-name="uni2777" unicode="&#x2777;" horiz-adv-x="816" 
d="M409 -13q-157 0 -267 110.5t-110 267.5q0 155 110 265.5t267 110.5q156 0 266 -110.5t110 -265.5q0 -157 -110 -267.5t-266 -110.5zM257 197v-57h303v81h-166l93 86q63 58 63 131q0 67 -42.5 109t-104.5 42q-51 0 -90.5 -31t-52.5 -78l71 -24q7 19 26 34.5t43 15.5
q31 0 49 -20.5t18 -47.5q0 -40 -40 -78z" />
    <glyph glyph-name="uni2778" unicode="&#x2778;" horiz-adv-x="816" 
d="M409 -13q-157 0 -267 110.5t-110 267.5q0 155 110 265.5t267 110.5q156 0 266 -110.5t110 -265.5q0 -157 -110 -267.5t-266 -110.5zM411 136q60 0 105.5 39t45.5 98q0 71 -65 109q49 35 49 89q0 59 -40 90.5t-99 31.5q-42 0 -79 -22t-53 -57l73 -30q19 28 56 28
q22 0 39 -11.5t17 -33.5q0 -19 -18 -33.5t-40 -14.5h-26v-79h24q33 0 55 -18t22 -44q0 -27 -19.5 -43t-50.5 -16q-24 0 -46 11.5t-32 28.5l-75 -29q18 -43 60.5 -68.5t96.5 -25.5z" />
    <glyph glyph-name="uni2779" unicode="&#x2779;" horiz-adv-x="816" 
d="M409 -13q-157 0 -267 110.5t-110 267.5q0 155 110 265.5t267 110.5q156 0 266 -110.5t110 -265.5q0 -157 -110 -267.5t-266 -110.5zM423 243v-101h83v101h30v83h-30v260h-104l-188 -260v-83h209zM423 326h-115l115 153v-153z" />
    <glyph glyph-name="uni277A" unicode="&#x277a;" horiz-adv-x="816" 
d="M409 -13q-157 0 -267 110.5t-110 267.5q0 155 110 265.5t267 110.5q156 0 266 -110.5t110 -265.5q0 -157 -110 -267.5t-266 -110.5zM403 138q65 0 111 46t46 110q0 67 -45.5 110.5t-111.5 38.5q-30 -2 -52 -18l6 85h194v81h-271l-18 -259h73q25 35 67 35q32 0 53 -21
t21 -52q0 -30 -21 -50.5t-52 -20.5q-22 0 -42 12.5t-28 31.5l-76 -28q18 -45 57.5 -73t88.5 -28z" />
    <glyph glyph-name="uni277B" unicode="&#x277b;" horiz-adv-x="816" 
d="M409 -13q-157 0 -267 110.5t-110 267.5q0 155 110 265.5t267 110.5q156 0 266 -110.5t110 -265.5q0 -157 -110 -267.5t-266 -110.5zM400 137q67 0 114.5 46.5t47.5 112.5q0 62 -42.5 105.5t-104.5 50.5l105 141h-103l-148 -203q-31 -42 -31 -94q0 -66 47.5 -112.5
t114.5 -46.5zM400 221q-32 0 -54 22.5t-22 52.5q0 31 22 53t54 22t55 -22t23 -53q0 -30 -23 -52.5t-55 -22.5z" />
    <glyph glyph-name="uni277C" unicode="&#x277c;" horiz-adv-x="816" 
d="M409 -13q-157 0 -267 110.5t-110 267.5q0 155 110 265.5t267 110.5q156 0 266 -110.5t110 -265.5q0 -157 -110 -267.5t-266 -110.5zM465 510l-156 -368h91l161 386v58h-306v-76h210z" />
    <glyph glyph-name="uni277D" unicode="&#x277d;" horiz-adv-x="816" 
d="M409 -13q-157 0 -267 110.5t-110 267.5q0 155 110 265.5t267 110.5q156 0 266 -110.5t110 -265.5q0 -157 -110 -267.5t-266 -110.5zM403 134q67 0 113 41t46 102q0 69 -60 106q40 33 40 85q0 54 -40.5 90t-99.5 36q-58 0 -98 -36t-40 -90q0 -53 40 -85q-60 -37 -60 -107
q0 -62 46 -102t113 -40zM402 412q-23 0 -39.5 14.5t-16.5 36.5t16 36t40 14t41 -14t17 -36t-17 -36.5t-41 -14.5zM403 211q-33 0 -54 18.5t-21 47.5q0 28 21.5 46.5t52.5 18.5q33 0 54.5 -18.5t21.5 -46.5t-21.5 -47t-53.5 -19z" />
    <glyph glyph-name="uni277E" unicode="&#x277e;" horiz-adv-x="816" 
d="M409 -13q-157 0 -267 110.5t-110 267.5q0 155 110 265.5t267 110.5q156 0 266 -110.5t110 -265.5q0 -157 -110 -267.5t-266 -110.5zM395 278l-105 -141h103l148 202q30 43 30 94q0 66 -47.5 113t-114.5 47t-114.5 -47t-47.5 -113q0 -62 43 -105.5t105 -49.5zM411 358
q-33 0 -56.5 22.5t-23.5 52.5q0 31 23.5 53t56.5 22q31 0 53 -22t22 -53q0 -30 -22 -52.5t-53 -22.5z" />
    <glyph glyph-name="a.ss01" horiz-adv-x="665" 
d="M632 125h12v-125h-57q-106 0 -116 95q-27 -46 -74.5 -74.5t-104.5 -28.5q-108 0 -184 83.5t-76 200.5t76 200t184 83q54 0 100 -26.5t74 -68.5l10 86h128v-396q0 -13 7.5 -21t20.5 -8zM318 131q61 0 103 42.5t42 102.5t-42 102.5t-103 42.5q-60 0 -102 -42.5t-42 -102.5
t42 -102.5t102 -42.5z" />
    <glyph glyph-name="d.ss01" horiz-adv-x="665" 
d="M632 125h12v-125h-57q-106 0 -116 95q-27 -46 -74.5 -74.5t-104.5 -28.5q-108 0 -184 83.5t-76 200.5t76 200t184 83q52 0 97.5 -25t73.5 -65v311h141v-626q0 -13 7.5 -21t20.5 -8zM318 131q61 0 103 42.5t42 102.5t-42 102.5t-103 42.5q-60 0 -102 -42.5t-42 -102.5
t42 -102.5t102 -42.5z" />
    <glyph glyph-name="l.ss01" horiz-adv-x="261" 
d="M240 0h-59q-63 0 -92.5 29t-29.5 90v661h141v-626q0 -13 7.5 -21t20.5 -8h12v-125z" />
    <glyph glyph-name="m.ss01" horiz-adv-x="910" 
d="M652 559q97 0 152.5 -66t55.5 -205v-288h-140v288q0 69 -26.5 101t-66.5 32t-67 -32t-27 -101v-288h-141v288q0 69 -26 101t-67 32q-40 0 -66.5 -35.5t-26.5 -104.5v-281h-141v397q0 13 -8 20.5t-21 7.5h-11v125h57q98 0 115 -82q22 42 62 66.5t85 24.5q110 0 158 -88
q23 40 62.5 64t87.5 24z" />
    <glyph glyph-name="n.ss01" horiz-adv-x="622" 
d="M355 559q100 0 158.5 -69t58.5 -209v-281h-140v281q0 69 -32.5 104.5t-80.5 35.5q-49 0 -81 -35.5t-32 -104.5v-281h-141v397q0 13 -8 20.5t-21 7.5h-11v125h57q101 0 115 -85q25 42 66 68t92 26z" />
    <glyph glyph-name="p.ss01" horiz-adv-x="665" 
d="M374 558q107 0 183.5 -83.5t76.5 -199.5q0 -117 -76.5 -200.5t-183.5 -83.5q-53 0 -98.5 25t-73.5 65v-301h-140v617q0 13 -8 20.5t-22 7.5h-10v125h56q107 0 117 -94q27 45 74.5 73.5t104.5 28.5zM348 130q60 0 101.5 42t41.5 103q0 60 -41.5 102.5t-101.5 42.5
q-61 0 -103.5 -42.5t-42.5 -102.5q0 -61 42.5 -103t103.5 -42z" />
    <glyph glyph-name="r.ss01" horiz-adv-x="433" 
d="M363 554q29 0 50 -4l-29 -135q-6 1 -17 1q-70 1 -117.5 -41t-47.5 -144v-231h-140v397q0 12 -8.5 20t-21.5 8h-10v124h56q94 0 113 -73q53 78 172 78z" />
    <glyph glyph-name="u.ss01" horiz-adv-x="618" 
d="M586 125h11v-125h-56q-101 0 -115 86q-25 -43 -66.5 -69t-92.5 -26q-100 0 -158.5 69.5t-58.5 209.5v280h141v-280q0 -69 32 -104.5t81 -35.5q48 0 80.5 35.5t32.5 104.5v280h140v-397q0 -12 8 -20t21 -8z" />
    <glyph glyph-name="A.ss02" horiz-adv-x="743" 
d="M174 0h-169l362 750h9l362 -750h-169l-55 129h-285zM372 459l-84 -191h167z" />
    <glyph glyph-name="N.ss02" horiz-adv-x="739" 
d="M671 -27h-9l-443 460v-433h-150v757h8l443 -458v431h151v-757z" />
    <glyph glyph-name="V.ss02" horiz-adv-x="728" 
d="M368 -27h-8l-359 757h168l195 -438l195 438h168z" />
    <glyph glyph-name="W.ss02" horiz-adv-x="1028" 
d="M306 -27h-9l-296 757h163l164 -432l183 459h7l183 -459l164 432h162l-296 -757h-8l-209 494z" />
    <glyph glyph-name="Z.ss02" horiz-adv-x="650" 
d="M611 0h-580v8l337 572h-311v150h552v-8l-336 -572h338v-150z" />
    <glyph glyph-name="R.ss02" 
d="M405 261l209 -261h-177l-218 299v-299h-150v730h239q126 0 202 -66t76 -177q0 -85 -49 -145t-132 -81zM316 584h-97v-216h97q51 0 83.5 30.5t32.5 77.5q0 46 -32.5 77t-83.5 31z" />
    <glyph glyph-name="v.ss02" horiz-adv-x="575" 
d="M292 -27h-9l-275 577h158l122 -298l121 298h158z" />
    <glyph glyph-name="w.ss02" horiz-adv-x="876" 
d="M287 -20h-7l-271 570h159l122 -284l144 311h9l144 -311l122 284h158l-270 -570h-8l-151 352z" />
    <glyph glyph-name="z.ss02" horiz-adv-x="579" 
d="M535 0h-491v8l271 414h-254v128h474v-8l-257 -407h257v-135z" />
    <glyph glyph-name="k.ss02" horiz-adv-x="548" 
d="M200 0h-141v780h141v-478l169 248h153l-193 -269l218 -281h-162l-185 240v-240z" />
    <glyph glyph-name="K.ss02" horiz-adv-x="634" 
d="M219 0h-150v730h150v-320l228 320h156l-260 -366l280 -364h-174l-230 314v-314z" />
    <glyph glyph-name="Iacute_J.loclNLD" horiz-adv-x="791" 
d="M191 806h-86l54 168h126zM696 806h-86l54 168h126zM219 0h-150v730h150v-730zM475 -9q-126 0 -199 99l111 89q38 -41 87 -41q51 0 80 36t29 95v461h149v-461q0 -128 -71.5 -203t-185.5 -75z" />
    <glyph glyph-name="G.ss01" horiz-adv-x="797" 
d="M419 -13q-157 0 -267 110.5t-110 267.5q0 155 110 265.5t267 110.5q91 0 170 -40.5t131 -110.5l-129 -90q-67 85 -172 85q-92 0 -156.5 -64.5t-64.5 -155.5q0 -92 64.5 -156.5t156.5 -64.5q124 0 180 84v83h-174v119h326v-244q-43 -92 -131.5 -145.5t-200.5 -53.5z" />
    <glyph glyph-name="Gbreve.ss01" horiz-adv-x="797" 
d="M394 817q-64 0 -109.5 42t-46.5 104h77q1 -31 24 -50.5t55 -19.5t54.5 20t23.5 50h77q-1 -62 -46.5 -104t-108.5 -42zM419 -13q-157 0 -267 110.5t-110 267.5q0 155 110 265.5t267 110.5q91 0 170 -40.5t131 -110.5l-129 -90q-67 85 -172 85q-92 0 -156.5 -64.5
t-64.5 -155.5q0 -92 64.5 -156.5t156.5 -64.5q124 0 180 84v83h-174v119h326v-244q-43 -92 -131.5 -145.5t-200.5 -53.5z" />
    <glyph glyph-name="Gcaron.ss01" horiz-adv-x="797" 
d="M458 824h-114l-104 133h109l52 -64l53 64h109zM419 -13q-157 0 -267 110.5t-110 267.5q0 155 110 265.5t267 110.5q91 0 170 -40.5t131 -110.5l-129 -90q-67 85 -172 85q-92 0 -156.5 -64.5t-64.5 -155.5q0 -92 64.5 -156.5t156.5 -64.5q124 0 180 84v83h-174v119h326
v-244q-43 -92 -131.5 -145.5t-200.5 -53.5z" />
    <glyph glyph-name="Gcircumflex.ss01" horiz-adv-x="797" 
d="M363 824h-109l105 133h114l104 -133h-109l-52 64zM419 -13q-157 0 -267 110.5t-110 267.5q0 155 110 265.5t267 110.5q91 0 170 -40.5t131 -110.5l-129 -90q-67 85 -172 85q-92 0 -156.5 -64.5t-64.5 -155.5q0 -92 64.5 -156.5t156.5 -64.5q124 0 180 84v83h-174v119h326
v-244q-43 -92 -131.5 -145.5t-200.5 -53.5z" />
    <glyph glyph-name="uni0122.ss01" horiz-adv-x="797" 
d="M419 -13q-157 0 -267 110.5t-110 267.5q0 155 110 265.5t267 110.5q91 0 170 -40.5t131 -110.5l-129 -90q-67 85 -172 85q-92 0 -156.5 -64.5t-64.5 -155.5q0 -92 64.5 -156.5t156.5 -64.5q124 0 180 84v83h-174v119h326v-244q-43 -92 -131.5 -145.5t-200.5 -53.5z
M444 -218h-106l17 167h126z" />
    <glyph glyph-name="Gdotaccent.ss01" horiz-adv-x="797" 
d="M401 811q-32 0 -55 23t-23 56t23 56t55 23t55 -23t23 -56t-23 -56t-55 -23zM419 -13q-157 0 -267 110.5t-110 267.5q0 155 110 265.5t267 110.5q91 0 170 -40.5t131 -110.5l-129 -90q-67 85 -172 85q-92 0 -156.5 -64.5t-64.5 -155.5q0 -92 64.5 -156.5t156.5 -64.5
q124 0 180 84v83h-174v119h326v-244q-43 -92 -131.5 -145.5t-200.5 -53.5z" />
    <glyph glyph-name="M.ss01" horiz-adv-x="934" 
d="M169 0h-151l133 730h152l164 -484l164 484h152l134 -730h-153l-94 455l-145 -455h-116l-144 455z" />
    <glyph glyph-name="uni1E3E.ss01" horiz-adv-x="934" 
d="M506 806h-87l55 168h125zM169 0h-151l133 730h152l164 -484l164 484h152l134 -730h-153l-94 455l-145 -455h-116l-144 455z" />
    <glyph glyph-name="W.ss01" horiz-adv-x="1003" 
d="M368 0h-147l-209 730h155l145 -504l151 377h77l152 -377l145 504h155l-209 -730h-148l-133 354z" />
    <glyph glyph-name="Wacute.ss01" horiz-adv-x="1003" 
d="M551 806h-86l54 168h126zM368 0h-147l-209 730h155l145 -504l151 377h77l152 -377l145 504h155l-209 -730h-148l-133 354z" />
    <glyph glyph-name="Wcircumflex.ss01" horiz-adv-x="1003" 
d="M449 824h-109l104 133h114l104 -133h-109l-52 64zM368 0h-147l-209 730h155l145 -504l151 377h77l152 -377l145 504h155l-209 -730h-148l-133 354z" />
    <glyph glyph-name="Wdieresis.ss01" horiz-adv-x="1003" 
d="M402 825q-27 0 -46 19t-19 46q0 28 19 47t46 19t46 -19t19 -47q0 -27 -19 -46t-46 -19zM603 825q-27 0 -46.5 19t-19.5 46q0 28 19.5 47t46.5 19t46 -19t19 -47q0 -27 -19.5 -46t-45.5 -19zM368 0h-147l-209 730h155l145 -504l151 377h77l152 -377l145 504h155l-209 -730
h-148l-133 354z" />
    <glyph glyph-name="Wgrave.ss01" horiz-adv-x="1003" 
d="M536 806h-86l-94 168h126zM368 0h-147l-209 730h155l145 -504l151 377h77l152 -377l145 504h155l-209 -730h-148l-133 354z" />
    <glyph glyph-name="Aacute.ss02" horiz-adv-x="743" 
d="M413 806h-86l54 168h126zM174 0h-169l362 750h9l362 -750h-169l-55 129h-285zM372 459l-84 -191h167z" />
    <glyph glyph-name="Abreve.ss02" horiz-adv-x="743" 
d="M371 817q-64 0 -109.5 42t-46.5 104h78q1 -30 23 -50t55 -20q32 0 54.5 20t23.5 50h77q-1 -62 -46.5 -104t-108.5 -42zM174 0h-169l362 750h9l362 -750h-169l-55 129h-285zM372 459l-84 -191h167z" />
    <glyph glyph-name="uni1EAE.ss02" horiz-adv-x="743" 
d="M413 940h-86l54 168h126zM374 782q-65 0 -110 42t-46 104h77q1 -31 23.5 -50.5t55.5 -19.5q31 0 54 20t24 50h77q-2 -62 -47 -104t-108 -42zM174 0h-169l362 750h9l362 -750h-169l-55 129h-285zM372 459l-84 -191h167z" />
    <glyph glyph-name="uni1EB6.ss02" horiz-adv-x="743" 
d="M372 817q-64 0 -109 42t-46 104h77q1 -31 23.5 -50.5t54.5 -19.5t54.5 19.5t24.5 50.5h76q-1 -62 -46.5 -104t-108.5 -42zM174 0h-169l362 750h9l362 -750h-169l-55 129h-285zM372 459l-84 -191h167zM373 -179q-33 0 -56 23t-23 56t23 56t56 23q32 0 54.5 -23t22.5 -56
t-22.5 -56t-54.5 -23z" />
    <glyph glyph-name="uni1EB0.ss02" horiz-adv-x="743" 
d="M424 940h-86l-94 168h126zM373 783q-64 0 -109 41.5t-46 104.5h77q1 -30 23.5 -50t54.5 -20t55 19.5t24 50.5h76q-1 -63 -46 -104.5t-109 -41.5zM174 0h-169l362 750h9l362 -750h-169l-55 129h-285zM372 459l-84 -191h167z" />
    <glyph glyph-name="uni1EB4.ss02" horiz-adv-x="743" 
d="M443 956q-31 -1 -55 15.5t-39.5 32t-26.5 14.5q-22 -2 -22 -49h-88q0 54 25 90.5t71 37.5q31 1 55 -15t39 -32t26 -15q21 2 21 49h87q0 -59 -23.5 -93t-69.5 -35zM370 792q-64 0 -109.5 42t-46.5 104h77q1 -31 24 -50.5t55 -19.5t54.5 20t23.5 50h77q-1 -62 -46.5 -104
t-108.5 -42zM174 0h-169l362 750h9l362 -750h-169l-55 129h-285zM372 459l-84 -191h167z" />
    <glyph glyph-name="uni01CD.ss02" horiz-adv-x="743" 
d="M428 824h-114l-104 133h109l52 -64l52 64h109zM174 0h-169l362 750h9l362 -750h-169l-55 129h-285zM372 459l-84 -191h167z" />
    <glyph glyph-name="Acircumflex.ss02" horiz-adv-x="743" 
d="M319 824h-109l105 133h114l104 -133h-109l-52 64zM174 0h-169l362 750h9l362 -750h-169l-55 129h-285zM372 459l-84 -191h167z" />
    <glyph glyph-name="uni1EA4.ss02" horiz-adv-x="743" 
d="M551 908h-86l54 168h126zM319 775h-109l104 133h114l104 -133h-109l-52 64zM174 0h-169l362 750h9l362 -750h-169l-55 129h-285zM372 459l-84 -191h167z" />
    <glyph glyph-name="uni1EAC.ss02" horiz-adv-x="743" 
d="M319 824h-109l105 133h114l104 -133h-109l-52 64zM174 0h-169l362 750h9l362 -750h-169l-55 129h-285zM372 459l-84 -191h167zM373 -179q-33 0 -56 23t-23 56t23 56t56 23q32 0 54.5 -23t22.5 -56t-22.5 -56t-54.5 -23z" />
    <glyph glyph-name="uni1EA6.ss02" horiz-adv-x="743" 
d="M278 906h-87l-93 168h126zM323 777h-109l104 133h114l104 -133h-109l-52 64zM174 0h-169l362 750h9l362 -750h-169l-55 129h-285zM372 459l-84 -191h167z" />
    <glyph glyph-name="uni1EAA.ss02" horiz-adv-x="743" 
d="M437 932q-31 -1 -55 14.5t-39.5 31.5t-26.5 15q-22 -2 -22 -48h-87q0 54 24.5 90.5t70.5 37.5q31 0 55 -16t39.5 -32t26.5 -15q20 2 20 49h87q0 -58 -23.5 -92.5t-69.5 -34.5zM316 777h-109l104 132h114l104 -132h-109l-52 63zM174 0h-169l362 750h9l362 -750h-169
l-55 129h-285zM372 459l-84 -191h167z" />
    <glyph glyph-name="Adieresis.ss02" horiz-adv-x="743" 
d="M272 825q-28 0 -47 19t-19 46q0 28 19 47t47 19q27 0 46 -19t19 -47q0 -27 -19 -46t-46 -19zM472 825q-27 0 -46 19t-19 46q0 28 19 47t46 19t46.5 -19t19.5 -47q0 -27 -19.5 -46t-46.5 -19zM174 0h-169l362 750h9l362 -750h-169l-55 129h-285zM372 459l-84 -191h167z
" />
    <glyph glyph-name="uni01DE.ss02" horiz-adv-x="743" 
d="M559 974h-375v113h375v-113zM270 789q-27 0 -46 19t-19 47q0 27 19 46t46 19t46 -19t19 -46q0 -28 -19 -47t-46 -19zM471 789q-27 0 -46.5 19t-19.5 47q0 27 19.5 46t46.5 19q26 0 45.5 -19t19.5 -46t-19 -46.5t-46 -19.5zM174 0h-169l362 750h9l362 -750h-169l-55 129
h-285zM372 459l-84 -191h167z" />
    <glyph glyph-name="uni1EA0.ss02" horiz-adv-x="743" 
d="M174 0h-169l362 750h9l362 -750h-169l-55 129h-285zM372 459l-84 -191h167zM373 -179q-33 0 -56 23t-23 56t23 56t56 23q32 0 54.5 -23t22.5 -56t-22.5 -56t-54.5 -23z" />
    <glyph glyph-name="Agrave.ss02" horiz-adv-x="743" 
d="M419 806h-86l-94 168h125zM174 0h-169l362 750h9l362 -750h-169l-55 129h-285zM372 459l-84 -191h167z" />
    <glyph glyph-name="Amacron.ss02" horiz-adv-x="743" 
d="M559 834h-375v112h375v-112zM174 0h-169l362 750h9l362 -750h-169l-55 129h-285zM372 459l-84 -191h167z" />
    <glyph glyph-name="Aogonek.ss02" horiz-adv-x="744" 
d="M698 -220q-36 0 -61.5 26.5t-25.5 67.5q0 45 58 126h-100l-55 129h-285l-55 -129h-169l362 750h9l362 -750q-48 -70 -48 -100q0 -13 7 -22.5t18 -9.5q16 0 30 16l35 -57q-24 -47 -82 -47zM372 459l-84 -191h167z" />
    <glyph glyph-name="Aring.ss02" horiz-adv-x="743" 
d="M373 776q-50 0 -86 32t-36 82q0 51 36 83t86 32q48 0 84 -32t36 -83q0 -50 -36 -82t-84 -32zM373 850q16 0 27.5 11.5t11.5 28.5t-11.5 29t-27.5 12q-17 0 -28.5 -12t-11.5 -29t11.5 -28.5t28.5 -11.5zM174 0h-169l362 750h9l362 -750h-169l-55 129h-285zM372 459
l-84 -191h167z" />
    <glyph glyph-name="Aringacute.ss02" horiz-adv-x="743" 
d="M455 1015h-86l55 168h125zM372 768q-49 0 -85 32.5t-36 82.5t36 82t85 32t85 -32t36 -82t-36 -82.5t-85 -32.5zM372 843q16 0 27.5 11.5t11.5 28.5t-11.5 28.5t-27.5 11.5t-27.5 -11.5t-11.5 -28.5t11.5 -28.5t27.5 -11.5zM174 0h-169l362 750h9l362 -750h-169l-55 129
h-285zM372 459l-84 -191h167z" />
    <glyph glyph-name="Atilde.ss02" horiz-adv-x="743" 
d="M440 820q-30 -1 -54 15t-40 32t-27 15q-22 -2 -22 -49h-87q0 54 24.5 91t70.5 37q31 1 55 -14.5t39.5 -31.5t26.5 -15q20 2 20 48h88q0 -58 -24 -92.5t-70 -35.5zM174 0h-169l362 750h9l362 -750h-169l-55 129h-285zM372 459l-84 -191h167z" />
    <glyph glyph-name="uni0136.ss02" horiz-adv-x="634" 
d="M219 0h-150v730h150v-320l228 320h156l-260 -366l280 -364h-174l-230 314v-314zM346 -218h-106l17 167h126z" />
    <glyph glyph-name="M.ss02" horiz-adv-x="888" 
d="M448 -27h-8l-180 420l-88 -393h-154l178 757h8l240 -520l240 520h8l178 -757h-154l-88 393z" />
    <glyph glyph-name="uni1E3E.ss02" horiz-adv-x="888" 
d="M459 806h-86l54 168h126zM448 -27h-8l-180 420l-88 -393h-154l178 757h8l240 -520l240 520h8l178 -757h-154l-88 393z" />
    <glyph glyph-name="Nacute.ss02" horiz-adv-x="739" 
d="M393 806h-86l55 168h125zM671 -27h-9l-443 460v-433h-150v757h8l443 -458v431h151v-757z" />
    <glyph glyph-name="Ncaron.ss02" horiz-adv-x="739" 
d="M435 824h-114l-104 133h109l52 -64l52 64h109zM671 -27h-9l-443 460v-433h-150v757h8l443 -458v431h151v-757z" />
    <glyph glyph-name="uni1E4A.ss02" horiz-adv-x="739" 
d="M671 -27h-9l-443 460v-433h-150v757h8l443 -458v431h151v-757zM355 -179h-109l104 132h114l105 -132h-109l-53 63z" />
    <glyph glyph-name="uni0145.ss02" horiz-adv-x="739" 
d="M671 -27h-9l-443 460v-433h-150v757h8l443 -458v431h151v-757zM396 -212h-107l18 168h125z" />
    <glyph glyph-name="uni1E46.ss02" horiz-adv-x="739" 
d="M671 -27h-9l-443 460v-433h-150v757h8l443 -458v431h151v-757zM392 -207q-33 0 -56 23t-23 56q0 32 23 55t56 23q32 0 54.5 -23t22.5 -55q0 -33 -22.5 -56t-54.5 -23z" />
    <glyph glyph-name="Ntilde.ss02" horiz-adv-x="739" 
d="M427 820q-30 -1 -54 15.5t-40 32t-27 14.5q-21 -2 -21 -49h-88q0 55 25 91.5t71 36.5q31 1 54.5 -14.5t39 -31.5t26.5 -15q21 2 21 48h87q0 -58 -23.5 -92.5t-70.5 -35.5zM671 -27h-9l-443 460v-433h-150v757h8l443 -458v431h151v-757z" />
    <glyph glyph-name="Racute.ss02" 
d="M296 974h126l-94 -168h-86zM423 239l191 -239h-177l-161 221h-6l4 3l-55 75v-299h-150v730h252q110 0 187.5 -74.5t77.5 -179.5q0 -79 -45.5 -143.5t-117.5 -93.5zM316 584h-97v-216h97q51 0 83.5 30.5t32.5 77.5q0 46 -32.5 77t-83.5 31z" />
    <glyph glyph-name="Rcaron.ss02" 
d="M472 957l-104 -133h-114l-105 133h109l53 -64l52 64h109zM423 239l191 -239h-177l-161 221h-6l4 3l-55 75v-299h-150v730h252q110 0 187.5 -74.5t77.5 -179.5q0 -79 -45.5 -143.5t-117.5 -93.5zM316 584h-97v-216h97q51 0 83.5 30.5t32.5 77.5q0 46 -32.5 77t-83.5 31z
" />
    <glyph glyph-name="uni0156.ss02" 
d="M423 239l191 -239h-177l-161 221h-6l4 3l-55 75v-299h-150v730h252q110 0 187.5 -74.5t77.5 -179.5q0 -79 -45.5 -143.5t-117.5 -93.5zM316 584h-97v-216h97q51 0 83.5 30.5t32.5 77.5q0 46 -32.5 77t-83.5 31zM337 -218h-106l17 167h126z" />
    <glyph glyph-name="Wacute.ss02" horiz-adv-x="1028" 
d="M562 825h-87l55 168h125zM306 -27h-9l-296 757h163l164 -432l183 459h7l183 -459l164 432h162l-296 -757h-8l-209 494z" />
    <glyph glyph-name="Wcircumflex.ss02" horiz-adv-x="1028" 
d="M462 824h-109l104 133h114l104 -133h-109l-52 64zM306 -27h-9l-296 757h163l164 -432l183 459h7l183 -459l164 432h162l-296 -757h-8l-209 494z" />
    <glyph glyph-name="Wdieresis.ss02" horiz-adv-x="1028" 
d="M414 825q-27 0 -46 19t-19 46q0 28 19 47t46 19t46 -19t19 -47q0 -27 -19 -46t-46 -19zM615 825q-27 0 -46.5 19t-19.5 46q0 28 19.5 47t46.5 19t46 -19t19 -47q0 -27 -19.5 -46t-45.5 -19zM306 -27h-9l-296 757h163l164 -432l183 459h7l183 -459l164 432h162l-296 -757
h-8l-209 494z" />
    <glyph glyph-name="Wgrave.ss02" horiz-adv-x="1028" 
d="M564 825h-86l-94 168h126zM306 -27h-9l-296 757h163l164 -432l183 459h7l183 -459l164 432h162l-296 -757h-8l-209 494z" />
    <glyph glyph-name="Zacute.ss02" horiz-adv-x="650" 
d="M359 806h-86l55 168h125zM611 0h-580v8l337 572h-311v150h552v-8l-336 -572h338v-150z" />
    <glyph glyph-name="Zcaron.ss02" horiz-adv-x="650" 
d="M385 824h-114l-104 133h109l52 -64l52 64h109zM611 0h-580v8l337 572h-311v150h552v-8l-336 -572h338v-150z" />
    <glyph glyph-name="Zdotaccent.ss02" horiz-adv-x="650" 
d="M329 811q-33 0 -56 23t-23 56t23 56t56 23q32 0 54.5 -23t22.5 -56t-22.5 -56t-54.5 -23zM611 0h-580v8l337 572h-311v150h552v-8l-336 -572h338v-150z" />
    <glyph glyph-name="uni1E92.ss02" horiz-adv-x="650" 
d="M611 0h-580v8l337 572h-311v150h552v-8l-336 -572h338v-150zM319 -207q-33 0 -56 23t-23 56q0 32 23 55t56 23q32 0 54.5 -23t22.5 -55q0 -33 -22.5 -56t-54.5 -23z" />
    <glyph glyph-name="iacute_j.loclNLD" horiz-adv-x="560" 
d="M174 636h-86l55 168h125zM469 636h-86l55 168h125zM200 0h-140v550h140v-550zM290 -233q-53 0 -95 17l36 128q18 -6 37 -6q95 0 95 129v515h140v-515q0 -142 -59 -205t-154 -63z" />
    <glyph glyph-name="aacute.ss01" horiz-adv-x="665" 
d="M331 804h126l-94 -168h-86zM632 125h12v-125h-57q-106 0 -116 95q-27 -46 -74.5 -74.5t-104.5 -28.5q-108 0 -184 83.5t-76 200.5t76 200t184 83q54 0 100 -26.5t74 -68.5l10 86h128v-396q0 -13 7.5 -21t20.5 -8zM318 131q61 0 103 42.5t42 102.5t-42 102.5t-103 42.5
q-60 0 -102 -42.5t-42 -102.5t42 -102.5t102 -42.5z" />
    <glyph glyph-name="abreve.ss01" horiz-adv-x="665" 
d="M338 647q-64 0 -109 42t-46 104h77q1 -30 23.5 -50t54.5 -20t55 19.5t24 50.5h76q-1 -62 -46 -104t-109 -42zM632 125h12v-125h-57q-106 0 -116 95q-27 -46 -74.5 -74.5t-104.5 -28.5q-108 0 -184 83.5t-76 200.5t76 200t184 83q54 0 100 -26.5t74 -68.5l10 86h128v-396
q0 -13 7.5 -21t20.5 -8zM318 131q61 0 103 42.5t42 102.5t-42 102.5t-103 42.5q-60 0 -102 -42.5t-42 -102.5t42 -102.5t102 -42.5z" />
    <glyph glyph-name="uni1EAF.ss01" horiz-adv-x="665" 
d="M342 943h126l-93 -168h-87zM335 618q-65 0 -110 41.5t-46 104.5h78q1 -30 23 -50t55 -20q32 0 54.5 20t23.5 50h77q-2 -63 -47 -104.5t-108 -41.5zM632 125h12v-125h-57q-106 0 -116 95q-27 -46 -74.5 -74.5t-104.5 -28.5q-108 0 -184 83.5t-76 200.5t76 200t184 83
q54 0 100 -26.5t74 -68.5l10 86h128v-396q0 -13 7.5 -21t20.5 -8zM318 131q61 0 103 42.5t42 102.5t-42 102.5t-103 42.5q-60 0 -102 -42.5t-42 -102.5t42 -102.5t102 -42.5z" />
    <glyph glyph-name="uni1EB7.ss01" horiz-adv-x="665" 
d="M332 647q-64 0 -109 42t-47 104h78q1 -30 23.5 -50t54.5 -20q33 0 55 20t23 50h77q-1 -61 -46.5 -103.5t-108.5 -42.5zM632 125h12v-125h-57q-106 0 -116 95q-27 -46 -74.5 -74.5t-104.5 -28.5q-108 0 -184 83.5t-76 200.5t76 200t184 83q54 0 100 -26.5t74 -68.5l10 86
h128v-396q0 -13 7.5 -21t20.5 -8zM318 131q61 0 103 42.5t42 102.5t-42 102.5t-103 42.5q-60 0 -102 -42.5t-42 -102.5t42 -102.5t102 -42.5zM338 -50q32 0 55 -23t23 -55q0 -33 -23 -56t-55 -23t-55 23t-23 56q0 32 23 55t55 23z" />
    <glyph glyph-name="uni1EB1.ss01" horiz-adv-x="665" 
d="M328 943l54 -168h-86l-94 168h126zM332 618q-65 0 -110 41.5t-46 104.5h77q1 -31 23.5 -50.5t55.5 -19.5q31 0 54 20t24 50h77q-2 -62 -47 -104t-108 -42zM632 125h12v-125h-57q-106 0 -116 95q-27 -46 -74.5 -74.5t-104.5 -28.5q-108 0 -184 83.5t-76 200.5t76 200
t184 83q54 0 100 -26.5t74 -68.5l10 86h128v-396q0 -13 7.5 -21t20.5 -8zM318 131q61 0 103 42.5t42 102.5t-42 102.5t-103 42.5q-60 0 -102 -42.5t-42 -102.5t42 -102.5t102 -42.5z" />
    <glyph glyph-name="uni1EB5.ss01" horiz-adv-x="665" 
d="M283 853q-22 -2 -22 -49h-87q0 54 24.5 90.5t70.5 37.5q31 1 55 -15t39.5 -32t26.5 -15q20 2 20 49h88q0 -58 -23.5 -92.5t-70.5 -35.5q-30 -1 -54 15.5t-40 32t-27 14.5zM331 703q32 0 54.5 20t23.5 50h77q-1 -62 -46.5 -104t-108.5 -42q-64 0 -109.5 42t-46.5 104h78
q1 -30 23 -50t55 -20zM632 125h12v-125h-57q-106 0 -116 95q-27 -46 -74.5 -74.5t-104.5 -28.5q-108 0 -184 83.5t-76 200.5t76 200t184 83q54 0 100 -26.5t74 -68.5l10 86h128v-396q0 -13 7.5 -21t20.5 -8zM318 131q61 0 103 42.5t42 102.5t-42 102.5t-103 42.5
q-60 0 -102 -42.5t-42 -102.5t42 -102.5t102 -42.5z" />
    <glyph glyph-name="uni01CE.ss01" horiz-adv-x="665" 
d="M500 787l-105 -133h-114l-104 133h109l52 -64l53 64h109zM632 125h12v-125h-57q-106 0 -116 95q-27 -46 -74.5 -74.5t-104.5 -28.5q-108 0 -184 83.5t-76 200.5t76 200t184 83q54 0 100 -26.5t74 -68.5l10 86h128v-396q0 -13 7.5 -21t20.5 -8zM318 131q61 0 103 42.5
t42 102.5t-42 102.5t-103 42.5q-60 0 -102 -42.5t-42 -102.5t42 -102.5t102 -42.5z" />
    <glyph glyph-name="acircumflex.ss01" horiz-adv-x="665" 
d="M384 654l-52 64l-52 -64h-109l104 133h114l104 -133h-109zM632 125h12v-125h-57q-106 0 -116 95q-27 -46 -74.5 -74.5t-104.5 -28.5q-108 0 -184 83.5t-76 200.5t76 200t184 83q54 0 100 -26.5t74 -68.5l10 86h128v-396q0 -13 7.5 -21t20.5 -8zM318 131q61 0 103 42.5
t42 102.5t-42 102.5t-103 42.5q-60 0 -102 -42.5t-42 -102.5t42 -102.5t102 -42.5z" />
    </font>
</defs>
</svg>
