<?xml version="1.0" standalone="no"?>
<!DOCTYPE svg PUBLIC "-//W3C//DTD SVG 1.1//EN" "http://www.w3.org/Graphics/SVG/1.1/DTD/svg11.dtd" >
<svg xmlns="http://www.w3.org/2000/svg" xmlns:xlink="http://www.w3.org/1999/xlink" version="1.1">
<metadata>
Created by FontForge 20201107 at Tue Jul 14 08:22:28 2020
 By 
Copyright (c) 2020 by Namela. All rights reserved.
</metadata>
<defs>
<font id="Madani-Thin" horiz-adv-x="637" >
  <font-face 
    font-family="Madani-Thin"
    font-weight="400"
    font-stretch="normal"
    units-per-em="1000"
    panose-1="0 0 2 0 0 0 0 0 0 0"
    ascent="776"
    descent="-224"
    x-height="550"
    cap-height="730"
    bbox="-410 -228 1130 1147"
    underline-thickness="50"
    underline-position="-75"
    unicode-range="U+0020-FB02"
  />
<missing-glyph horiz-adv-x="250" 
 />
    <glyph glyph-name="fi" unicode="fi" horiz-adv-x="472" 
d="M133 517v-518l-33 1v517h-70v33h70v30q0 211 158 211q20 0 48 -7l-10 -31q-22 5 -38 5q-60 0 -92.5 -39t-32.5 -139v-30h251v-551l-33 1v517h-218zM366 624q-14 0 -23.5 10t-9.5 23t9.5 23t23.5 10q13 0 22.5 -10t9.5 -23t-9.5 -23t-22.5 -10z" />
    <glyph glyph-name="fl" unicode="fl" horiz-adv-x="485" 
d="M133 517v-518l-33 1v517h-70v33h70v30q0 114 44.5 162.5t125.5 48.5q72 0 125 -42l-1 -749h-33l1 733q-32 25 -92 25q-67 0 -102 -38.5t-35 -139.5v-30h161v-33h-161z" />
    <glyph glyph-name="f_f" unicode="ff" horiz-adv-x="567" 
d="M133 517v-518l-33 1v517h-70v33h70v30q0 211 158 211q20 0 48 -7l-10 -31q-22 5 -38 5q-60 0 -92.5 -39t-32.5 -139v-30h218v30q0 211 158 211q20 0 48 -7l-10 -31q-23 5 -38 5q-60 0 -92.5 -39t-32.5 -139v-30h161v-33h-161v-518l-33 1v517h-218z" />
    <glyph glyph-name="f_f_i" unicode="ffi" horiz-adv-x="722" 
d="M133 517v-518l-33 1v517h-70v33h70v30q0 211 158 211q20 0 48 -7l-10 -31q-22 5 -38 5q-60 0 -92.5 -39t-32.5 -139v-30h218v30q0 211 158 211q20 0 48 -7l-10 -31q-23 5 -38 5q-60 0 -92.5 -39t-32.5 -139v-30h251v-550h-33v517h-218v-518l-33 1v517h-218zM616 624
q-14 0 -23.5 10t-9.5 23t9.5 23t23.5 10q13 0 22.5 -10t9.5 -23t-9.5 -23t-22.5 -10z" />
    <glyph glyph-name="f_f_j" unicode="ffj" horiz-adv-x="722" 
d="M480 -228q-30 0 -57 11l11 31q21 -9 46 -9q122 0 122 162v550h-218v-518l-33 1v517h-218v-518l-33 1v517h-70v33h70v30q0 211 158 211q20 0 48 -7l-10 -31q-22 5 -38 5q-60 0 -92.5 -39t-32.5 -139v-30h218v30q0 211 158 211q20 0 48 -7l-10 -31q-23 5 -38 5
q-60 0 -92.5 -39t-32.5 -139v-30h251v-583q0 -96 -42 -145.5t-113 -49.5zM616 624q-14 0 -23.5 10t-9.5 23t9.5 23t23.5 10q13 0 22.5 -10t9.5 -23t-9.5 -23t-22.5 -10z" />
    <glyph glyph-name="f_f_l" unicode="ffl" horiz-adv-x="736" 
d="M133 517v-518l-33 1v517h-70v33h70v30q0 211 158 211q20 0 48 -7l-10 -31q-22 5 -38 5q-60 0 -92.5 -39t-32.5 -139v-30h218v30q0 114 44.5 162.5t125.5 48.5q34 0 69 -12.5t56 -29.5l-1 -749h-33l1 733q-36 25 -92 25q-67 0 -102 -38.5t-35 -139.5v-30h161v-33h-161
v-518l-33 1v517h-218z" />
    <glyph glyph-name="f_j" unicode="fj" horiz-adv-x="472" 
d="M229 -228q-30 0 -57 11l11 31q21 -9 46 -9q122 0 122 162v550h-218v-518l-33 1v517h-70v33h70v30q0 211 158 211q20 0 48 -7l-10 -31q-22 5 -38 5q-60 0 -92.5 -39t-32.5 -139v-30h251v-583q0 -96 -42 -145.5t-113 -49.5zM366 624q-14 0 -23.5 10t-9.5 23t9.5 23t23.5 10
q13 0 22.5 -10t9.5 -23t-9.5 -23t-22.5 -10z" />
    <glyph glyph-name="t_t" unicode="tt" horiz-adv-x="622" 
d="M254 -7q-66 0 -107 46.5t-41 126.5v351h-76v33h76v180h33v-180h238v180h33v-180h141v-33h-141v-349q0 -67 31.5 -104.5t83.5 -37.5q26 0 47 9l10 -31q-27 -11 -57 -11q-66 0 -107 46.5t-41 126.5v351h-238v-349q0 -67 31.5 -104.5t83.5 -37.5q26 0 47 9l10 -31
q-27 -11 -57 -11z" />
    <glyph glyph-name=".notdef" horiz-adv-x="250" 
 />
    <glyph glyph-name=".null" horiz-adv-x="0" 
 />
    <glyph glyph-name="uni000D" horiz-adv-x="333" 
 />
    <glyph glyph-name="space" unicode=" " horiz-adv-x="280" 
 />
    <glyph glyph-name="exclam" unicode="!" horiz-adv-x="225" 
d="M95 730h36l-2 -598h-32zM90 56q10 10 23 10t22.5 -10t9.5 -23t-9 -23q-10 -10 -23 -10t-23 10t-10 23t10 23z" />
    <glyph glyph-name="quotedbl" unicode="&#x22;" horiz-adv-x="270" 
d="M175 730h35l-2 -180h-31zM95 730l-2 -180h-31l-2 180h35z" />
    <glyph glyph-name="numbersign" unicode="#" horiz-adv-x="762" 
d="M60 225l7 33h147l45 214h-148l7 33h147l30 144h34l-30 -144h222l29 144h35l-29 -144h146l-7 -33h-146l-44 -214h146l-7 -33h-146l-29 -144h-35l29 144h-221l-30 -144h-34l30 144h-148zM470 258l44 214h-221l-45 -214h222z" />
    <glyph glyph-name="dollar" unicode="$" horiz-adv-x="644" 
d="M79 123q97 -92 231 -99v355q-55 17 -87 30t-69.5 36t-55.5 55.5t-18 76.5q0 69 60.5 117t169.5 50v65h33v-66q61 -5 121.5 -33.5t101.5 -81.5l-28 -19q-75 90 -195 100v-305q46 -14 73.5 -24t65 -29t57.5 -40t35 -53.5t15 -72.5q0 -89 -69.5 -141t-176.5 -55v-67h-33v68
q-147 7 -255 109zM343 369v-346q94 2 153 45.5t59 116.5q0 32 -12.5 58.5t-30 44t-48.5 34t-56 25.5t-65 22zM129 517q15 -27 46 -46t59.5 -31t75.5 -26v296q-89 -1 -142.5 -38.5t-53.5 -94.5q0 -34 15 -60z" />
    <glyph glyph-name="percent" unicode="%" horiz-adv-x="776" 
d="M465 328q42 52 115 52q72 0 114 -52.5t42 -140.5q0 -90 -42 -143.5t-114 -53.5q-73 0 -115.5 53.5t-42.5 143.5q0 88 43 141zM83 728q42 52 115 52q72 0 114 -52.5t42 -140.5q0 -90 -42 -143.5t-114 -53.5q-73 0 -115.5 53.5t-42.5 143.5q0 88 43 141zM73 588
q0 -85 36 -125t88 -40q53 0 88.5 40t35.5 125q0 82 -35.5 120.5t-88.5 38.5q-52 0 -88 -39t-36 -120zM491 63q36 -40 88 -40q53 0 88.5 40t35.5 125q0 82 -35.5 120.5t-88.5 38.5q-52 0 -88 -39t-36 -120q0 -85 36 -125zM572 781h37l-404 -781h-37z" />
    <glyph glyph-name="ampersand" unicode="&#x26;" horiz-adv-x="688" 
d="M105 304q44 43 124 76q-30 34 -45.5 55t-32 61.5t-16.5 83.5q0 73 58 119t141 46q84 0 142 -47t58 -119q0 -91 -109 -151q-36 -19 -140 -60l267 -270q49 48 61.5 101t12.5 89q0 32 -7 63l31 12q8 -40 8 -78q0 -43 -15 -101t-68 -110l73 -74h-46l-52 53q-83 -62 -210 -62
q-128 0 -204 54.5t-76 148.5q0 67 45 110zM163 68q70 -44 178 -44q114 0 185 53l-274 277q-76 -32 -117.5 -68t-41.5 -92q0 -83 70 -126zM168 579q0 -39 16.5 -77t32 -58t43.5 -50q10 4 38.5 15t40 15.5t35.5 15t35 17.5t29.5 18t27 21t18 23.5t13.5 28t4 31.5
q0 66 -50.5 99.5t-115.5 33.5q-67 0 -117 -35t-50 -98z" />
    <glyph glyph-name="quotesingle" unicode="'" horiz-adv-x="155" 
d="M93 550h-31l-2 180h35z" />
    <glyph glyph-name="parenleft" unicode="(" horiz-adv-x="290" 
d="M106 593q45 122 120 187h44q-78 -60 -127.5 -184t-49.5 -262q0 -136 49.5 -260.5t127.5 -183.5h-44q-75 64 -120.5 186t-45.5 259q0 136 46 258z" />
    <glyph glyph-name="parenright" unicode=")" horiz-adv-x="290" 
d="M20 -110q78 59 127.5 183.5t49.5 260.5q0 138 -49.5 262t-127.5 184h44q75 -65 120.5 -187t45.5 -258q0 -137 -45.5 -259t-120.5 -186h-44z" />
    <glyph glyph-name="asterisk" unicode="*" horiz-adv-x="395" 
d="M198 521l-94 -129l-26 19l93 129l-151 49l10 31l151 -49v159h33v-158l151 48l10 -31l-151 -49l93 -129l-26 -19z" />
    <glyph glyph-name="plus" unicode="+" horiz-adv-x="540" 
d="M60 349v33h193v193h33v-193h194v-33h-194v-194h-33v194h-193z" />
    <glyph glyph-name="comma" unicode="," horiz-adv-x="140" 
d="M70 -140h-30l25 198h35z" />
    <glyph glyph-name="hyphen" unicode="-" horiz-adv-x="480" 
d="M420 349h-360v33h360v-33z" />
    <glyph glyph-name="period" unicode="." horiz-adv-x="145" 
d="M40 33q0 13 10 23t23 10t22.5 -10t9.5 -23t-9 -23q-10 -10 -23 -10t-23 10t-10 23z" />
    <glyph glyph-name="slash" unicode="/" horiz-adv-x="450" 
d="M66 -110h-36l354 891h36z" />
    <glyph glyph-name="zero" unicode="0" horiz-adv-x="683" 
d="M138 641q78 100 204 100q125 0 203 -101t78 -275q0 -173 -78.5 -275.5t-202.5 -102.5q-125 0 -203.5 102.5t-78.5 275.5q0 175 78 276zM93 368q0 -166 71 -257t179 -91q106 0 176.5 91t70.5 257q0 161 -70.5 250.5t-176.5 89.5q-108 0 -179 -89.5t-71 -250.5z" />
    <glyph glyph-name="one" unicode="1" horiz-adv-x="293" 
d="M173 0h-33v697h-100v33h133v-730z" />
    <glyph glyph-name="two" unicode="2" horiz-adv-x="598" 
d="M35 0v34l336 280q114 93 114 198q0 91 -56 145t-141 54q-75 0 -132.5 -43t-78.5 -104l-31 12q24 71 91 119.5t148 48.5q100 0 166.5 -63.5t66.5 -166.5q0 -122 -123 -223l-309 -258h452v-33h-503z" />
    <glyph glyph-name="three" unicode="3" horiz-adv-x="596" 
d="M67 138q24 -51 85.5 -85t136.5 -34q93 0 153.5 51t60.5 130q0 78 -65 127t-153 49h-32v33h32q79 0 134 42.5t55 106.5q0 67 -54 110.5t-137 43.5q-56 0 -103 -23t-70 -59l-30 14q29 45 83.5 73t117.5 28q96 0 161 -51.5t65 -134.5q0 -56 -34 -100t-90 -66
q69 -23 111 -74.5t42 -119.5q0 -94 -71.5 -153.5t-176.5 -59.5q-86 0 -153.5 39.5t-99.5 100.5z" />
    <glyph glyph-name="four" unicode="4" horiz-adv-x="564" 
d="M30 235l427 495h27v-495h60v-33h-60v-202h-33v202h-421v33zM74 235h377v437z" />
    <glyph glyph-name="five" unicode="5" horiz-adv-x="589" 
d="M71 169q24 -65 82 -105.5t130 -40.5q94 0 161 66.5t67 160.5t-66.5 161t-161.5 67q-62 0 -117.5 -31t-84.5 -81h-33l25 364h452v-33h-421l-19 -271q80 85 198 85q108 0 184.5 -76.5t76.5 -184.5q0 -107 -76.5 -183.5t-184.5 -76.5q-82 0 -148.5 46.5t-94.5 121.5z" />
    <glyph glyph-name="six" unicode="6" horiz-adv-x="621" 
d="M119 427l268 303h44l-207 -234q42 17 84 17q20 0 61 -8t90.5 -41.5t80.5 -90.5t31 -123q0 -107 -76.5 -183.5t-184.5 -76.5q-107 0 -183.5 76.5t-76.5 183.5q0 103 69 177zM150 90q66 -67 160 -67t161 66.5t67 160.5t-67 161t-161 67t-160.5 -67t-66.5 -161t67 -160z" />
    <glyph glyph-name="seven" unicode="7" horiz-adv-x="581" 
d="M203 0h-37l328 697h-464v33h501v-33z" />
    <glyph glyph-name="eight" unicode="8" horiz-adv-x="631" 
d="M60 204q0 69 45.5 124.5t117.5 79.5q-54 22 -86.5 65.5t-32.5 97.5q0 76 61.5 127t150.5 51t150.5 -51t61.5 -127q0 -54 -32.5 -97.5t-86.5 -65.5q72 -24 117 -79.5t45 -124.5q0 -96 -71 -160t-184 -64t-184.5 64t-71.5 160zM93 203q0 -81 62 -135.5t161 -54.5
q98 0 160 54.5t62 135.5q0 77 -65 132t-157 55q-93 0 -158 -55t-65 -132zM137 570q0 -61 52 -104q51 -43 126 -43t127.5 43t52.5 104q0 63 -52 104.5t-128 41.5t-127 -41t-51 -105z" />
    <glyph glyph-name="nine" unicode="9" horiz-adv-x="621" 
d="M50 480q0 107 76.5 183.5t184.5 76.5q107 0 183.5 -76.5t76.5 -183.5q0 -103 -69 -177l-268 -303h-44l207 234q-42 -17 -84 -17q-20 0 -61 8t-90.5 41.5t-80.5 90.5t-31 123zM83 480q0 -94 66.5 -161t161.5 -67q94 0 160.5 67t66.5 161t-66.5 160.5t-160.5 66.5
t-161 -66.5t-67 -160.5z" />
    <glyph glyph-name="colon" unicode=":" horiz-adv-x="185" 
d="M70 76q10 10 23 10t22.5 -10t9.5 -23t-9 -23q-10 -10 -23 -10t-23 10t-10 23t10 23zM70 520q10 10 23 10t22.5 -10t9.5 -23t-9 -23q-10 -10 -23 -10t-23 10t-10 23t10 23z" />
    <glyph glyph-name="semicolon" unicode=";" horiz-adv-x="193" 
d="M60 -140l25 198h35l-30 -198h-30zM68 497q0 13 10 23t23 10t22.5 -10t9.5 -23t-9 -23q-10 -10 -23 -10t-23 10t-10 23z" />
    <glyph glyph-name="less" unicode="&#x3c;" horiz-adv-x="570" 
d="M510 589v-36l-409 -180l409 -180v-36l-450 198v36z" />
    <glyph glyph-name="equal" unicode="=" horiz-adv-x="540" 
d="M480 467v-33h-420v33h420zM60 255v33h420v-33h-420z" />
    <glyph glyph-name="greater" unicode="&#x3e;" horiz-adv-x="570" 
d="M510 391v-36l-450 -198v36l409 180l-409 180v36z" />
    <glyph glyph-name="question" unicode="?" horiz-adv-x="558" 
d="M146 696q60 48 136 48q91 0 153.5 -58t62.5 -147q0 -77 -35 -132t-113 -120q-30 -26 -45.5 -53.5t-15.5 -71.5v-41h-33v41q0 92 73 150q77 61 106.5 114t29.5 111q0 75 -52 124.5t-131 49.5q-69 0 -120.5 -44.5t-70.5 -106.5l-31 11q25 76 86 125zM250 56q10 10 23 10
t22.5 -10t9.5 -23t-9 -23q-10 -10 -23 -10t-23 10t-10 23t10 23z" />
    <glyph glyph-name="at" unicode="@" horiz-adv-x="853" 
d="M160 631q110 110 267 110q156 0 266 -110.5t110 -265.5q0 -49 -15 -96.5t-50 -81.5t-82 -34h-5q-41 2 -68 31.5t-28 80.5q-25 -35 -64 -56t-83 -21q-75 0 -127.5 53t-52.5 127q0 75 52.5 127.5t127.5 52.5q92 0 147 -76v77h33v-277q0 -39 17.5 -62.5t44.5 -24.5h2
q41 0 69 33t38.5 72t10.5 76q0 140 -100.5 241t-242.5 101q-144 0 -244 -100.5t-100 -241.5q0 -145 101.5 -245.5t242.5 -100.5q48 0 98 15l9 -32q-49 -16 -107 -16q-157 0 -267 110.5t-110 267.5q0 155 110 266zM304 265q43 -44 104 -44q60 0 103.5 43.5t43.5 103.5
q0 61 -43.5 104t-103.5 43q-62 0 -104.5 -42.5t-42.5 -104.5q0 -60 43 -103z" />
    <glyph glyph-name="A" unicode="A" horiz-adv-x="680" 
d="M321 730h38l291 -730h-35l-101 252h-348l-100 -252h-36zM501 285l-161 402l-160 -402h321z" />
    <glyph glyph-name="B" unicode="B" horiz-adv-x="657" 
d="M100 730h249q98 0 153 -53t55 -132q0 -55 -28.5 -95.5t-78.5 -61.5q71 -15 114 -65.5t43 -122.5q0 -86 -61 -143t-161 -57h-285v730zM133 33h251q86 0 138 47t52 120q0 71 -51.5 118t-127.5 47h-262v-332zM133 398h216q77 0 126 41.5t49 104.5q0 65 -45 109t-130 44h-216
v-299z" />
    <glyph glyph-name="C" unicode="C" horiz-adv-x="770" 
d="M169 627q109 109 263 109q87 0 163 -37.5t128 -103.5l-26 -20q-47 60 -116.5 94t-148.5 34q-140 0 -239.5 -98.5t-99.5 -238.5q0 -143 99 -242t240 -99q82 0 153.5 36.5t117.5 100.5l27 -19q-51 -70 -129.5 -110.5t-168.5 -40.5q-154 0 -263 109t-109 264q0 153 109 262z
" />
    <glyph glyph-name="D" unicode="D" horiz-adv-x="750" 
d="M307 730q167 0 275 -105.5t108 -258.5q0 -156 -105 -261t-278 -105h-207v730h207zM133 697v-664h174q161 0 255.5 96.5t94.5 238.5q0 135 -98 232t-252 97h-174z" />
    <glyph glyph-name="E" unicode="E" horiz-adv-x="606" 
d="M100 730h436v-33h-403v-305h383v-33h-383v-326h413v-33h-446v730z" />
    <glyph glyph-name="F" unicode="F" horiz-adv-x="606" 
d="M100 730h456v-33h-423v-305h403v-33h-403v-359h-33v730z" />
    <glyph glyph-name="G" unicode="G" horiz-adv-x="853" 
d="M169 627q109 109 263 109q88 0 165 -39t129 -106l-27 -18q-47 60 -117 95t-150 35q-140 0 -239.5 -98.5t-99.5 -238.5q0 -143 99 -242t240 -99q145 0 235.5 93.5t92.5 242.5h-345v33h377q1 -9 1 -29q0 -163 -100.5 -268t-260.5 -105q-154 0 -263 109t-109 264
q0 153 109 262z" />
    <glyph glyph-name="H" unicode="H" horiz-adv-x="750" 
d="M100 730h33v-347h484v347h33v-730h-33v350h-484v-350h-33v730z" />
    <glyph glyph-name="I" unicode="I" horiz-adv-x="233" 
d="M133 0h-33v730h33v-730z" />
    <glyph glyph-name="J" unicode="J" horiz-adv-x="470" 
d="M40 38l20 26q47 -36 109 -36q79 0 128.5 54t49.5 144v504h33v-504q0 -103 -59 -167t-152 -64q-72 0 -129 43z" />
    <glyph glyph-name="K" unicode="K" horiz-adv-x="660" 
d="M100 730h33v-432l419 432h46l-287 -296l319 -434h-42l-301 409l-154 -159v-250h-33v730z" />
    <glyph glyph-name="L" unicode="L" horiz-adv-x="586" 
d="M556 0h-456v730h33v-697h423v-33z" />
    <glyph glyph-name="M" unicode="M" horiz-adv-x="950" 
d="M100 0v730h42l333 -563l333 563h42v-730h-33v681l-326 -552h-32l-326 552v-681h-33z" />
    <glyph glyph-name="N" unicode="N" horiz-adv-x="800" 
d="M100 0v730h33l534 -676v676h33v-730h-33l-534 678v-678h-33z" />
    <glyph glyph-name="O" unicode="O" horiz-adv-x="863" 
d="M169 627q109 109 263 109t262.5 -109t108.5 -262q0 -155 -108 -264q-109 -109 -263 -109t-263 109t-109 264q0 153 109 262zM93 366q0 -143 99 -242t240 -99q140 0 239 99t99 242q0 140 -99 238.5t-239 98.5t-239.5 -98.5t-99.5 -238.5z" />
    <glyph glyph-name="P" unicode="P" horiz-adv-x="649" 
d="M373 730q97 0 161.5 -63t64.5 -153t-64.5 -153t-161.5 -63h-240v-298h-33v730h273zM373 331q85 0 139 54t54 129q0 74 -54 128.5t-139 54.5h-240v-366h240z" />
    <glyph glyph-name="Q" unicode="Q" horiz-adv-x="868" 
d="M169 627q109 109 263 109t262.5 -109t108.5 -262q0 -157 -110 -265l75 -87l-24 -22l-75 87q-102 -86 -237 -86q-154 0 -263 109t-109 264q0 153 109 262zM93 366q0 -143 99 -242t240 -99q123 0 215 78l-82 95l25 21l82 -94q98 100 98 241q0 140 -99 238.5t-239 98.5
t-239.5 -98.5t-99.5 -238.5z" />
    <glyph glyph-name="R" unicode="R" horiz-adv-x="648" 
d="M373 730q97 0 161.5 -63t64.5 -153q0 -85 -57 -146t-146 -69l212 -299h-43l-211 298h-221v-298h-33v730h273zM373 331q85 0 139 54t54 129q0 74 -54 128.5t-139 54.5h-240v-366h240z" />
    <glyph glyph-name="S" unicode="S" horiz-adv-x="610" 
d="M55 104l23 23q99 -99 236 -100h4q88 0 146 43.5t58 119.5q0 48 -25 82.5t-65 54t-88 35.5l-97 31q-49 15 -89 35.5t-65 56.5t-25 87q0 71 60.5 119t168.5 48q63 0 129.5 -28t108.5 -88l-26 -20q-32 46 -89 74t-119 29h-5q-87 0 -141 -37.5t-54 -96.5q0 -44 25 -74.5
t65 -48.5t88.5 -32.5t97 -31t88.5 -38.5t65 -62t25 -95q0 -92 -68.5 -144t-170.5 -52h-4q-149 2 -257 110z" />
    <glyph glyph-name="T" unicode="T" horiz-adv-x="594" 
d="M30 730h534v-33h-250v-697h-33v697h-251v33z" />
    <glyph glyph-name="U" unicode="U" horiz-adv-x="730" 
d="M90 730h33v-450q0 -122 67 -187.5t171 -65.5q106 0 176 65.5t70 187.5v450h33v-451q0 -132 -78 -208.5t-196 -76.5q-120 0 -198 76t-78 209v451z" />
    <glyph glyph-name="V" unicode="V" horiz-adv-x="660" 
d="M56 730l274 -687l275 687h35l-291 -730h-38l-291 730h36z" />
    <glyph glyph-name="W" unicode="W" horiz-adv-x="1013" 
d="M30 730h35l216 -674l208 674h35l208 -674l216 674h35l-234 -730h-35l-207 673l-208 -673h-35z" />
    <glyph glyph-name="X" unicode="X" horiz-adv-x="649" 
d="M303 372l-263 358h41l244 -330l243 330h41l-263 -358l273 -372h-41l-253 344l-254 -344h-41z" />
    <glyph glyph-name="Y" unicode="Y" horiz-adv-x="640" 
d="M61 730l259 -371l259 371h41l-284 -406v-324h-33v326l-283 404h41z" />
    <glyph glyph-name="Z" unicode="Z" horiz-adv-x="641" 
d="M591 0h-541v33l489 664h-479v33h521v-33l-490 -664h500v-33z" />
    <glyph glyph-name="bracketleft" unicode="[" horiz-adv-x="295" 
d="M90 780h185v-33h-152v-824h152v-33h-185v890z" />
    <glyph glyph-name="backslash" unicode="\" horiz-adv-x="470" 
d="M430 -110h-36l-354 891h36z" />
    <glyph glyph-name="bracketright" unicode="]" horiz-adv-x="295" 
d="M205 780v-890h-185v33h152v824h-152v33h185z" />
    <glyph glyph-name="asciicircum" unicode="^" horiz-adv-x="440" 
d="M201 730h38l181 -300h-39l-161 268l-161 -268h-39z" />
    <glyph glyph-name="underscore" unicode="_" horiz-adv-x="550" 
d="M490 0h-430v33h429z" />
    <glyph glyph-name="grave" unicode="`" horiz-adv-x="220" 
d="M160 582h-30l-70 148h35z" />
    <glyph glyph-name="a" unicode="a" horiz-adv-x="701" 
d="M132 473q82 82 198 82q82 0 151.5 -45t96.5 -113v153h33v-550h-33v149q-27 -66 -96.5 -110.5t-151.5 -44.5q-116 0 -198 82t-82 198t82 199zM83 274q0 -102 73 -174.5t174 -72.5q103 0 175.5 72.5t72.5 174.5t-72.5 175t-175.5 73q-101 0 -174 -73t-73 -175z" />
    <glyph glyph-name="b" unicode="b" horiz-adv-x="701" 
d="M90 0v780h33v-383q27 68 96.5 113t151.5 45q116 0 198 -82.5t82 -198.5t-82 -198t-198 -82q-82 0 -151.5 44.5t-96.5 110.5v-149h-33zM123 274q0 -102 72.5 -174.5t175.5 -72.5q101 0 174 72.5t73 174.5t-73 175t-174 73q-103 0 -175.5 -73t-72.5 -175z" />
    <glyph glyph-name="c" unicode="c" horiz-adv-x="612" 
d="M132 474q82 82 199 82q69 0 129.5 -32t99.5 -87l-28 -19q-34 49 -87 77t-114 28q-103 0 -175.5 -72.5t-72.5 -174.5t72.5 -175t175.5 -73q62 0 115.5 29t87.5 79l28 -18q-38 -57 -99 -90t-132 -33q-117 0 -199 82.5t-82 198.5t82 198z" />
    <glyph glyph-name="d" unicode="d" horiz-adv-x="701" 
d="M132 473q82 82 198 82q82 0 151.5 -45t96.5 -113v383h33v-780h-33v149q-27 -66 -96.5 -110.5t-151.5 -44.5q-116 0 -198 82t-82 198t82 199zM83 274q0 -102 73 -174.5t174 -72.5q103 0 175.5 72.5t72.5 174.5t-72.5 175t-175.5 73q-101 0 -174 -73t-73 -175z" />
    <glyph glyph-name="e" unicode="e" horiz-adv-x="651" 
d="M131 474q80 82 195 82q119 0 197 -81t78 -199q0 -11 -2 -31h-514q12 -92 84 -154.5t168 -62.5q61 0 115 27.5t88 74.5l29 -17q-39 -54 -100 -86t-132 -32q-119 0 -203 82.5t-84 198.5t81 198zM568 278q-1 103 -69.5 174t-172.5 71q-100 0 -171 -72t-72 -173h485z" />
    <glyph glyph-name="f" unicode="f" horiz-adv-x="316" 
d="M30 550h70v30q0 211 158 211q20 0 48 -7l-10 -31q-22 5 -38 5q-60 0 -92.5 -39t-32.5 -139v-30h161v-33h-161v-518l-33 1v517h-70v33z" />
    <glyph glyph-name="g" unicode="g" horiz-adv-x="701" 
d="M132 473q82 82 198 82q82 0 151.5 -45t96.5 -113v153h33v-465q0 -153 -81.5 -231t-209.5 -78q-70 0 -130.5 29t-99.5 79l26 20q34 -44 88.5 -69.5t115.5 -25.5q115 0 186.5 68t71.5 208v64q-27 -66 -96.5 -110.5t-151.5 -44.5q-116 0 -198 82t-82 198t82 199zM156 100
q73 -73 174 -73q103 0 175.5 72.5t72.5 174.5t-72.5 175t-175.5 73q-101 0 -174 -73t-73 -175t73 -174z" />
    <glyph glyph-name="h" unicode="h" 
d="M90 780h33v-353q24 56 76.5 92t126.5 36q103 0 169.5 -72t66.5 -205v-278h-33v278q0 120 -57 182t-146 62t-146 -62t-57 -182v-278h-33v780z" />
    <glyph glyph-name="i" unicode="i" horiz-adv-x="213" 
d="M90 550h33v-550h-33v550zM84 680q10 10 23 10t22.5 -10t9.5 -23t-9 -23q-10 -10 -23 -10t-23 10t-10 23t10 23z" />
    <glyph glyph-name="j" unicode="j" horiz-adv-x="232" 
d="M-70 -217l11 31q21 -9 46 -9q122 0 122 162v583h33v-583q0 -96 -42 -145.5t-113 -49.5q-30 0 -57 11zM103 680q9 10 23 10q13 0 22.5 -10t9.5 -23t-9.5 -23t-22.5 -10q-14 0 -23.5 10t-9.5 23t10 23z" />
    <glyph glyph-name="k" unicode="k" horiz-adv-x="565" 
d="M90 0v780h33v-543l326 313h48l-220 -212l258 -338h-42l-240 315l-130 -124v-191h-33z" />
    <glyph glyph-name="l" unicode="l" horiz-adv-x="213" 
d="M123 0h-33v780h33v-780z" />
    <glyph glyph-name="m" unicode="m" horiz-adv-x="916" 
d="M90 550h33v-113q19 56 65 87t98 31q74 0 120.5 -41t60.5 -105q14 63 61 104.5t117 41.5q87 0 141.5 -63t54.5 -194v-298h-33v298q0 118 -45 171t-118 53q-70 0 -116.5 -54t-46.5 -170v-298h-33v298q0 118 -45 171t-118 53q-71 0 -117 -62.5t-46 -181.5v-278h-33v550z" />
    <glyph glyph-name="n" unicode="n" 
d="M90 550h33v-123q24 56 76.5 92t126.5 36q103 0 169.5 -72t66.5 -205v-278h-33v278q0 120 -57 182t-146 62t-146 -62t-57 -182v-278h-33v550z" />
    <glyph glyph-name="o" unicode="o" horiz-adv-x="661" 
d="M132 474q82 82 199 82q116 0 198 -82t82 -198t-82 -198.5t-198 -82.5q-117 0 -199 82.5t-82 198.5t82 198zM83 276q0 -102 72.5 -175t175.5 -73q101 0 174 73t73 175t-73 174.5t-174 72.5q-103 0 -175.5 -72.5t-72.5 -174.5z" />
    <glyph glyph-name="p" unicode="p" horiz-adv-x="701" 
d="M123 550v-149q27 66 96.5 110.5t151.5 44.5q116 0 198 -82t82 -198t-82 -198.5t-198 -82.5q-82 0 -151.5 45t-96.5 113v-373h-33v770h33zM123 276q0 -102 72.5 -175t175.5 -73q101 0 174 73t73 175t-73 174.5t-174 72.5q-103 0 -175.5 -72.5t-72.5 -174.5z" />
    <glyph glyph-name="q" unicode="q" horiz-adv-x="701" 
d="M132 474q82 82 198 82q82 0 151.5 -44.5t96.5 -110.5v149h33v-770h-33v373q-27 -68 -96.5 -113t-151.5 -45q-116 0 -198 82.5t-82 198.5t82 198zM83 276q0 -102 73 -175t174 -73q103 0 175.5 73t72.5 175t-72.5 174.5t-175.5 72.5q-101 0 -174 -72.5t-73 -174.5z" />
    <glyph glyph-name="r" unicode="r" horiz-adv-x="375" 
d="M123 550v-107q26 52 75.5 80.5t113.5 28.5h4q11 0 29 -2l-7 -33q-14 2 -23 2h-3q-86 0 -137.5 -58.5t-51.5 -173.5v-287h-33v549z" />
    <glyph glyph-name="s" unicode="s" horiz-adv-x="560" 
d="M80 115q29 -38 87 -62.5t125 -24.5q79 0 129.5 34t50.5 91q0 40 -29.5 66t-73.5 36.5t-95 22.5t-95 24t-73.5 41.5t-29.5 74.5q0 60 54.5 98.5t144.5 38.5q136 0 210 -90l-24 -23q-32 41 -82 60.5t-103 19.5q-72 0 -119.5 -27.5t-47.5 -77.5q0 -31 22 -52t57 -32t77 -20
t84 -20t77 -26.5t57 -44.5t22 -70q0 -76 -63.5 -116.5t-150.5 -40.5q-63 0 -128 23t-108 75z" />
    <glyph glyph-name="t" unicode="t" horiz-adv-x="351" 
d="M30 550h76v180h33v-180h141v-33h-141v-349q0 -67 31.5 -104.5t83.5 -37.5q26 0 47 9l10 -31q-27 -11 -57 -11q-66 0 -107 46.5t-41 126.5v351h-76v33z" />
    <glyph glyph-name="u" unicode="u" 
d="M75 272v278h33v-278q0 -120 57 -182t146 -62t146 62t57 182v278h33v-550h-33v123q-24 -56 -76.5 -92t-126.5 -36q-103 0 -169.5 72t-66.5 205z" />
    <glyph glyph-name="v" unicode="v" horiz-adv-x="544" 
d="M56 550l216 -508l216 508h36l-234 -550h-36l-234 550h36z" />
    <glyph glyph-name="w" unicode="w" horiz-adv-x="860" 
d="M25 550h35l180 -500l173 500h34l173 -500l180 500h35l-198 -550h-35l-172 499l-172 -499h-35z" />
    <glyph glyph-name="x" unicode="x" horiz-adv-x="561" 
d="M30 550h43l208 -249l207 249h43l-229 -275l229 -275h-43l-207 249l-208 -249h-43l229 275z" />
    <glyph glyph-name="y" unicode="y" horiz-adv-x="560" 
d="M33 -168q40 -19 78 -19q23 0 43 11t33 24t30.5 43.5t25.5 48.5t27 60l-234 550h36l216 -508l216 508h36l-234 -550q-54 -123 -92.5 -171.5t-102.5 -48.5q-44 0 -91 21z" />
    <glyph glyph-name="z" unicode="z" horiz-adv-x="583" 
d="M60 517v33h449v-33l-406 -484h420v-33h-463v33l405 484h-405z" />
    <glyph glyph-name="braceleft" unicode="{" horiz-adv-x="303" 
d="M133 378q30 26 30 85v182q0 19 1.5 33.5t8 35t18.5 34t35.5 23t56.5 9.5v-33q-50 0 -68.5 -23.5t-18.5 -75.5v-184q0 -94 -68 -128q68 -36 68 -129v-185q0 -52 18.5 -75.5t68.5 -23.5v-33q-33 0 -56.5 9.5t-35.5 23t-18.5 34t-8 35t-1.5 33.5v183q0 59 -30.5 85t-72.5 26
v33q42 0 73 26z" />
    <glyph glyph-name="bar" unicode="|" horiz-adv-x="213" 
d="M123 -220h-33v950h33v-950z" />
    <glyph glyph-name="braceright" unicode="}" horiz-adv-x="303" 
d="M20 -110v33q50 0 68.5 23.5t18.5 75.5v185q0 93 68 129q-68 34 -68 128v184q0 52 -18.5 75.5t-68.5 23.5v33q33 0 56.5 -9.5t35.5 -23t18.5 -34t8 -35t1.5 -33.5v-182q0 -59 30.5 -85t72.5 -26v-33q-42 0 -72.5 -26t-30.5 -85v-183q0 -19 -1.5 -33.5t-8 -35t-18.5 -34
t-35.5 -23t-56.5 -9.5z" />
    <glyph glyph-name="asciitilde" unicode="~" horiz-adv-x="500" 
d="M20 364q32 94 118 94h3q40 0 79.5 -22.5t73.5 -41.5t64 -19q8 0 15 1q55 6 77 75l30 -15q-29 -86 -106 -94q-8 -1 -16 -1q-35 0 -71 19.5t-73.5 42t-73.5 22.5h-3q-64 -2 -87 -76z" />
    <glyph glyph-name="exclamdown" unicode="&#xa1;" horiz-adv-x="225" 
d="M97 418h32l2 -639h-36zM80 517q0 13 10 23t23 10t22.5 -10t9.5 -23t-9 -23q-10 -10 -23 -10t-23 10t-10 23z" />
    <glyph glyph-name="cent" unicode="&#xa2;" horiz-adv-x="622" 
d="M127 562q77 81 190 88v80h33v-79q67 -4 125 -36.5t95 -85.5l-28 -18q-70 99 -192 107v-505q59 4 110.5 34t84.5 78l27 -19q-37 -55 -95.5 -88.5t-126.5 -37.5v-80h-33v81q-113 7 -190 89t-77 196t77 196zM83 366q0 -100 68 -172.5t166 -79.5v503q-99 -7 -166.5 -79.5
t-67.5 -171.5z" />
    <glyph glyph-name="sterling" unicode="&#xa3;" horiz-adv-x="640" 
d="M60 0v33h90v271h-70v33h70v113q0 142 62 215t159 73q57 0 106.5 -29t80.5 -77l-28 -17q-26 41 -68 65.5t-91 24.5q-83 0 -135.5 -63t-52.5 -192v-113h247v-33h-247v-271h397v-33h-520z" />
    <glyph glyph-name="currency" unicode="&#xa4;" horiz-adv-x="571" 
d="M125 213q-50 60 -50 137q0 78 51 135l-65 65l23 24l65 -65q60 49 135 49q76 0 136 -50l66 66l25 -24l-66 -66q50 -60 50 -135q0 -80 -50 -136l65 -65l-23 -24l-65 65q-60 -50 -137 -50t-135 50l-65 -65l-25 24zM110 349q0 -74 50 -125.5t124 -52.5q74 0 126 52t52 123v3
q0 71 -52.5 123t-125.5 52q-74 0 -124 -51t-50 -124z" />
    <glyph glyph-name="yen" unicode="&#xa5;" horiz-adv-x="642" 
d="M62 730l259 -371l259 371h42l-266 -380h204v-33h-222v-101h222v-33h-222v-183h-34v183h-217v33h217v101h-217v33h199l-266 380h42z" />
    <glyph glyph-name="brokenbar" unicode="&#xa6;" horiz-adv-x="193" 
d="M113 780v-382h-33v382h33zM80 -220v382h33v-382h-33z" />
    <glyph glyph-name="section" unicode="&#xa7;" horiz-adv-x="466" 
d="M81 110q25 -33 69.5 -55.5t94.5 -22.5q64 0 98.5 27t34.5 69q0 41 -33 67t-80.5 40t-95 28.5t-80.5 45t-33 77.5q0 41 24.5 68t65.5 37q-91 41 -91 119q0 62 47 96.5t118 34.5q53 0 105.5 -24t85.5 -67l-26 -20q-25 33 -69.5 55.5t-94.5 22.5q-64 0 -98.5 -27t-34.5 -69
q0 -41 33 -67t80.5 -40t95 -28.5t80.5 -45t33 -77.5q0 -41 -24.5 -68t-65.5 -37q91 -41 91 -119q0 -62 -47 -96.5t-118 -34.5q-53 0 -105.5 24t-85.5 67zM98 354q8 -16 19.5 -25.5t33 -19.5t37 -15.5t43.5 -13.5q20 -5 39 -5q32 0 69.5 16t37.5 62q0 18 -8.5 33.5t-20 25
t-33 19.5t-37 15.5t-43.5 13.5q-20 5 -39 5q-32 0 -69.5 -16t-37.5 -62q0 -18 9 -33z" />
    <glyph glyph-name="dieresis" unicode="&#xa8;" horiz-adv-x="290" 
d="M205 647q0 13 9.5 23t23.5 10q13 0 22.5 -10t9.5 -23t-9.5 -23t-22.5 -10q-14 0 -23.5 10t-9.5 23zM20 647q0 13 10 23t23 10t22.5 -10t9.5 -23t-9 -23q-10 -10 -23 -10t-23 10t-10 23z" />
    <glyph glyph-name="copyright" unicode="&#xa9;" horiz-adv-x="853" 
d="M160 631q110 110 267 110q156 0 266 -110.5t110 -265.5q0 -157 -110 -267.5t-266 -110.5q-157 0 -267 110.5t-110 267.5q0 155 110 266zM184 120q101 -102 243 -102q141 0 242.5 102.5t101.5 244.5q0 141 -101.5 243t-242.5 102q-142 0 -243.5 -102t-101.5 -243
q0 -143 102 -245zM280 511q61 60 147 60q103 0 166 -84l-26 -19q-53 71 -140 71q-72 0 -123.5 -51.5t-51.5 -122.5q0 -73 51.5 -124.5t123.5 -51.5q43 0 80.5 20.5t61.5 54.5l27 -20q-29 -40 -73.5 -63.5t-95.5 -23.5q-86 0 -147 61t-61 147q0 85 61 146z" />
    <glyph glyph-name="ordfeminine" unicode="&#xaa;" horiz-adv-x="374" 
d="M78 567q38 30 98 30h112q0 51 -27 79t-77 28q-59 0 -105 -39l-26 20q51 54 133 54q63 0 100.5 -37.5t37.5 -103.5v-219h-36v50q-39 -56 -121 -56q-52 0 -89.5 31t-37.5 81q0 51 38 82zM75 486q0 -35 27.5 -56.5t66.5 -21.5q51 0 85 24.5t34 61.5v68h-111q-46 0 -74 -20.5
t-28 -55.5z" />
    <glyph glyph-name="guillemotleft" unicode="&#xab;" horiz-adv-x="369" 
d="M177 365l94 164h38l-94 -164l94 -164h-38zM60 365l94 164h38l-94 -164l94 -164h-38z" />
    <glyph glyph-name="logicalnot" unicode="&#xac;" horiz-adv-x="540" 
d="M480 202h-33v147h-387v33h420v-180z" />
    <glyph glyph-name="registered" unicode="&#xae;" horiz-adv-x="853" 
d="M160 631q110 110 267 110q156 0 266 -110.5t110 -265.5q0 -157 -110 -267.5t-266 -110.5q-157 0 -267 110.5t-110 267.5q0 155 110 266zM184 120q101 -102 243 -102q141 0 242.5 102.5t101.5 244.5q0 141 -101.5 243t-242.5 102q-142 0 -243.5 -102t-101.5 -243
q0 -143 102 -245zM307 555h108q60 0 98 -34t38 -89q0 -47 -31 -79.5t-79 -37.5l123 -140h-45l-117 137h-62v-137h-33v380zM340 345h75q54 0 78.5 26.5t24.5 60.5q0 43 -29.5 66.5t-73.5 23.5h-75v-177z" />
    <glyph glyph-name="macron" unicode="&#xaf;" horiz-adv-x="470" 
d="M410 662h-350v33h350v-33z" />
    <glyph glyph-name="degree" unicode="&#xb0;" horiz-adv-x="280" 
d="M55 756q35 35 85 35t85 -35.5t35 -84.5t-35 -84q-35 -36 -85 -36t-85 35t-35 85t35 85zM54 670q0 -36 25 -61q24 -25 61 -25t61.5 25t24.5 61q0 38 -24.5 63t-61.5 25t-61.5 -25t-24.5 -63z" />
    <glyph glyph-name="plusminus" unicode="&#xb1;" horiz-adv-x="540" 
d="M60 409v33h193v193h33v-193h194v-33h-194v-194h-33v194h-193zM60 134h420v-33h-420v33z" />
    <glyph glyph-name="twosuperior" unicode="&#xb2;" horiz-adv-x="360" 
d="M30 406v33l188 163q60 53 60 108q0 45 -28 78.5t-81 33.5q-42 0 -69.5 -27t-35.5 -56l-31 11q12 46 50 75.5t86 29.5q60 0 101 -40t41 -105q0 -70 -73 -134l-158 -137h240v-33h-290z" />
    <glyph glyph-name="threesuperior" unicode="&#xb3;" horiz-adv-x="352" 
d="M60 496q14 -27 44.5 -44.5t68.5 -17.5q46 0 76 26t30 68q0 41 -31.5 70t-76.5 29h-20v33h19q40 0 65.5 25.5t25.5 56.5q0 38 -26.5 59t-64.5 21q-58 0 -86 -46l-27 18q17 27 47 44t65 17q53 0 89 -31t36 -81q0 -65 -60 -98q35 -16 56.5 -47.5t21.5 -70.5
q0 -55 -40.5 -90.5t-99.5 -35.5q-48 0 -86 23t-56 58z" />
    <glyph glyph-name="acute" unicode="&#xb4;" horiz-adv-x="140" 
d="M50 582h-30l65 148h35z" />
    <glyph glyph-name="uni00B5" unicode="&#xb5;" horiz-adv-x="597" 
d="M60 550h33v-282q0 -123 55.5 -186t149.5 -63q90 0 148.5 64t58.5 185v282h32v-550h-32v113q-61 -127 -209 -127q-143 0 -203 122v-328h-33v770z" />
    <glyph glyph-name="paragraph" unicode="&#xb6;" horiz-adv-x="613" 
d="M118 706q68 74 164 74h241v-911h-33v878h-114v-878h-33v403h-61q-96 0 -164 74.5t-68 179.5t68 180z" />
    <glyph glyph-name="periodcentered" unicode="&#xb7;" horiz-adv-x="145" 
d="M40 366q0 14 9.5 23t23.5 9q13 0 22.5 -9t9.5 -23t-9 -23q-9 -10 -23 -10t-23.5 9.5t-9.5 23.5z" />
    <glyph glyph-name="cedilla" unicode="&#xb8;" horiz-adv-x="224" 
d="M36 -164q8 -8 29.5 -15.5t42.5 -7.5q29 0 46 14t17 36q0 52 -78 52h-35l28 85h35l-17 -52q48 -3 74 -26t26 -58q0 -36 -26 -60t-71 -24q-54 0 -87 28z" />
    <glyph glyph-name="onesuperior" unicode="&#xb9;" horiz-adv-x="158" 
d="M98 406h-33v411h-45v33h78v-444z" />
    <glyph glyph-name="ordmasculine" unicode="&#xba;" horiz-adv-x="452" 
d="M95 685q54 54 131 54q76 0 131 -54.5t55 -131.5t-55 -131.5t-131 -54.5q-77 0 -131.5 54.5t-54.5 131.5t55 132zM117 445q44 -45 108 -45t109 45t45 108t-45 108t-109 45t-108 -45t-44 -108t44 -108z" />
    <glyph glyph-name="guillemotright" unicode="&#xbb;" horiz-adv-x="369" 
d="M271 365l-94 164h38l94 -164l-94 -164h-38zM60 529h38l94 -164l-94 -164h-38l94 164z" />
    <glyph glyph-name="onequarter" unicode="&#xbc;" horiz-adv-x="605" 
d="M265 123v33l247 288h33v-288h30v-33h-30v-123h-33v123h-247zM39 0l404 781h37l-404 -781h-37zM512 156v238l-204 -238h204zM30 747v33h78v-444h-33v411h-45z" />
    <glyph glyph-name="onehalf" unicode="&#xbd;" horiz-adv-x="704" 
d="M552 196q60 53 60 108q0 45 -28 78.5t-81 33.5q-42 0 -69.5 -27t-35.5 -56l-31 11q12 46 50 75.5t86 29.5q60 0 101 -40t41 -105q0 -70 -73 -134l-158 -137h240v-33h-290v33zM443 781h37l-404 -781h-37zM30 747v33h78v-444h-33v411h-45z" />
    <glyph glyph-name="threequarters" unicode="&#xbe;" horiz-adv-x="773" 
d="M433 156l247 288h33v-288h30v-33h-30v-123h-33v123h-247v33zM65 420q14 -27 44.5 -44.5t68.5 -17.5q46 0 76 26t30 68q0 41 -31.5 70t-76.5 29h-20v33h19q40 0 65.5 25.5t25.5 56.5q0 38 -26.5 59t-64.5 21q-58 0 -86 -46l-27 18q17 27 47 44t65 17q53 0 89 -31t36 -81
q0 -65 -60 -98q35 -16 56.5 -47.5t21.5 -70.5q0 -55 -40.5 -90.5t-99.5 -35.5q-48 0 -86 23t-56 58zM207 0l404 781h37l-404 -781h-37zM680 156v238l-204 -238h204z" />
    <glyph glyph-name="questiondown" unicode="&#xbf;" horiz-adv-x="558" 
d="M60 11q0 77 35 132t113 120q30 26 45.5 53.5t15.5 71.5v41h33v-41q0 -92 -73 -150q-77 -61 -106.5 -114t-29.5 -111q0 -75 52 -124.5t131 -49.5q69 0 120.5 44.5t70.5 106.5l31 -11q-25 -76 -85.5 -124.5t-136.5 -48.5q-91 0 -153.5 58t-62.5 147zM263 540q9 10 22 10
t23 -10t10 -23t-10 -23t-23 -10t-22.5 10t-9.5 23t10 23z" />
    <glyph glyph-name="Agrave" unicode="&#xc0;" horiz-adv-x="680" 
d="M30 0l291 730h38l291 -730h-35l-101 252h-348l-100 -252h-36zM180 285h321l-161 402zM277 964l65 -148h-30l-70 148h35z" />
    <glyph glyph-name="Aacute" unicode="&#xc1;" horiz-adv-x="680" 
d="M321 730h38l291 -730h-35l-101 252h-348l-100 -252h-36zM501 285l-161 402l-160 -402h321zM327 816l65 148h35l-70 -148h-30z" />
    <glyph glyph-name="Acircumflex" unicode="&#xc2;" horiz-adv-x="680" 
d="M321 730h38l291 -730h-35l-101 252h-348l-100 -252h-36zM501 285l-161 402l-160 -402h321zM206 830l108 120h44l108 -120h-44l-86 96l-86 -96h-44z" />
    <glyph glyph-name="Atilde" unicode="&#xc3;" horiz-adv-x="680" 
d="M321 730h38l291 -730h-35l-101 252h-348l-100 -252h-36zM180 285h321l-161 402zM223 918q20 27 50 29h6q20 0 38.5 -11.5t31 -27t29.5 -28t33 -12.5h2q36 2 36 70h33q0 -47 -18.5 -73.5t-47.5 -28.5q-5 -1 -9 -1q-18 0 -37 11t-32.5 27t-30 28.5t-30.5 12.5h-2
q-40 -2 -40 -70h-33q0 46 21 74z" />
    <glyph glyph-name="Adieresis" unicode="&#xc4;" horiz-adv-x="680" 
d="M30 0l291 730h38l291 -730h-35l-101 252h-348l-100 -252h-36zM180 285h321l-161 402zM227 914q9 9 23 9q13 0 22.5 -10t9.5 -23t-9.5 -23t-22.5 -10q-14 0 -23.5 9.5t-9.5 23.5t10 24zM402 890q0 14 10 23.5t23 9.5t22.5 -10t9.5 -23t-9 -23q-10 -10 -23 -10t-23 9.5
t-10 23.5z" />
    <glyph glyph-name="Aring" unicode="&#xc5;" horiz-adv-x="680" 
d="M321 730h38l291 -730h-35l-101 252h-348l-100 -252h-36zM180 285h321l-161 402zM235 890q0 44 31.5 75.5t75.5 31.5t75.5 -31.5t31.5 -75.5t-31 -75q-32 -31 -76 -31t-75.5 31t-31.5 75zM290 837q21 -21 52 -21t52 21t21 53t-21 53.5t-52 21.5t-52 -21.5t-21 -53.5
t21 -53z" />
    <glyph glyph-name="AE" unicode="&#xc6;" horiz-adv-x="951" 
d="M30 0l296 730h575v-34h-403v-300h383v-34h-383v-330h403v-33h-436v273h-287l-109 -272h-39zM465 305v391h-117l-157 -391h274z" />
    <glyph glyph-name="Ccedilla" unicode="&#xc7;" horiz-adv-x="770" 
d="M169 627q109 109 263 109q87 0 163 -37.5t128 -103.5l-26 -20q-47 60 -116.5 94t-148.5 34q-140 0 -239.5 -98.5t-99.5 -238.5q0 -143 99 -242t240 -99q82 0 153.5 36.5t117.5 100.5l27 -19q-52 -72 -131.5 -111.5t-169.5 -39.5l-14 -44q48 -3 74 -26t26 -58
q0 -36 -26 -60t-71 -24q-54 0 -87 28l16 28q8 -8 29.5 -15.5t42.5 -7.5q29 0 46 14t17 36q0 52 -78 52h-35l26 79q-142 14 -238.5 120.5t-96.5 250.5q0 153 109 262z" />
    <glyph glyph-name="Egrave" unicode="&#xc8;" horiz-adv-x="606" 
d="M536 730v-33h-403v-305h383v-33h-383v-326h413v-33h-446v730h436zM243 964h35l65 -148h-30z" />
    <glyph glyph-name="Eacute" unicode="&#xc9;" horiz-adv-x="606" 
d="M100 730h436v-33h-403v-305h383v-33h-383v-326h413v-33h-446v730zM302 816l65 148h35l-70 -148h-30z" />
    <glyph glyph-name="Ecircumflex" unicode="&#xca;" horiz-adv-x="606" 
d="M100 730h436v-33h-403v-305h383v-33h-383v-326h413v-33h-446v730zM303 950h44l108 -120h-44l-86 96l-86 -96h-44z" />
    <glyph glyph-name="Edieresis" unicode="&#xcb;" horiz-adv-x="606" 
d="M100 730h436v-33h-403v-305h383v-33h-383v-326h413v-33h-446v730zM189 890q0 14 9.5 23.5t23.5 9.5q13 0 22.5 -10t9.5 -23t-9.5 -23t-22.5 -10q-14 0 -23.5 9.5t-9.5 23.5zM384 914q10 9 23 9t22.5 -10t9.5 -23t-9 -23q-10 -10 -23 -10t-23 9.5t-10 23.5t10 24z" />
    <glyph glyph-name="Igrave" unicode="&#xcc;" horiz-adv-x="233" 
d="M133 816h-30l-70 148h35zM133 0h-33v730h33v-730z" />
    <glyph glyph-name="Iacute" unicode="&#xcd;" horiz-adv-x="233" 
d="M129 816h-30l65 148h35zM133 0h-33v730h33v-730z" />
    <glyph glyph-name="Icircumflex" unicode="&#xce;" horiz-adv-x="233" 
d="M100 730h33v-730h-33v730zM94 950h44l108 -120h-44l-86 96l-86 -96h-44z" />
    <glyph glyph-name="Idieresis" unicode="&#xcf;" horiz-adv-x="233" 
d="M100 0v730h33v-730h-33zM21 914q9 9 23 9q13 0 22.5 -10t9.5 -23t-9.5 -23t-22.5 -10q-14 0 -23.5 9.5t-9.5 23.5t10 24zM156 890q0 14 10 23.5t23 9.5t22.5 -10t9.5 -23t-9 -23q-10 -10 -23 -10t-23 9.5t-10 23.5z" />
    <glyph glyph-name="Eth" unicode="&#xd0;" horiz-adv-x="750" 
d="M307 0h-207v349h-50v33h50v348h207q167 0 275 -105.5t108 -258.5q0 -156 -105 -261t-278 -105zM134 349v-315h173q159 0 254 96t95 238q0 135 -98 231.5t-251 96.5h-173v-314h300v-33h-300z" />
    <glyph glyph-name="Ntilde" unicode="&#xd1;" horiz-adv-x="800" 
d="M459 836q-23 -3 -44 9t-34.5 28t-30.5 29t-32 12q-40 -2 -40 -70h-33q0 46 20.5 73.5t50.5 29.5q23 2 43 -10.5t32.5 -28t30 -28.5t34.5 -12q36 2 36 70h33q0 -47 -18.5 -73.5t-47.5 -28.5zM133 0h-33v730h33l534 -676v676h33v-730h-33l-534 678v-678z" />
    <glyph glyph-name="Ograve" unicode="&#xd2;" horiz-adv-x="863" 
d="M447 816h-30l-70 148h35zM432 -8q-154 0 -263 109t-109 264q0 153 109 262t263 109t262.5 -109t108.5 -262q0 -155 -108.5 -264t-262.5 -109zM432 25q140 0 239 99t99 242q0 140 -99 238.5t-239 98.5t-239.5 -98.5t-99.5 -238.5q0 -143 99 -242t240 -99z" />
    <glyph glyph-name="Oacute" unicode="&#xd3;" horiz-adv-x="863" 
d="M450 816h-30l65 148h35zM432 -8q-154 0 -263 109t-109 264q0 153 109 262t263 109t262.5 -109t108.5 -262q0 -155 -108.5 -264t-262.5 -109zM432 25q140 0 239 99t99 242q0 140 -99 238.5t-239 98.5t-239.5 -98.5t-99.5 -238.5q0 -143 99 -242t240 -99z" />
    <glyph glyph-name="Ocircumflex" unicode="&#xd4;" horiz-adv-x="863" 
d="M338 830h-44l108 120h44l108 -120h-44l-86 96zM432 -8q-154 0 -263 109t-109 264q0 153 109 262t263 109t262.5 -109t108.5 -262q0 -155 -108.5 -264t-262.5 -109zM432 25q140 0 239 99t99 242q0 140 -99 238.5t-239 98.5t-239.5 -98.5t-99.5 -238.5q0 -143 99 -242
t240 -99z" />
    <glyph glyph-name="Otilde" unicode="&#xd5;" horiz-adv-x="863" 
d="M502 836q-23 -3 -44 9t-34.5 28t-30.5 29t-32 12q-40 -2 -40 -70h-33q0 46 20.5 73.5t50.5 29.5q23 2 43 -10.5t32.5 -28t30 -28.5t34.5 -12q36 2 36 70h33q0 -47 -18.5 -73.5t-47.5 -28.5zM432 -8q-154 0 -263 109t-109 264q0 153 109 262t263 109t262.5 -109
t108.5 -262q0 -155 -108.5 -264t-262.5 -109zM432 25q140 0 239 99t99 242q0 140 -99 238.5t-239 98.5t-239.5 -98.5t-99.5 -238.5q0 -143 99 -242t240 -99z" />
    <glyph glyph-name="Odieresis" unicode="&#xd6;" horiz-adv-x="863" 
d="M333 857q-13 0 -23 9.5t-10 23.5t10 23.5t23 9.5t22.5 -10t9.5 -23t-9.5 -23t-22.5 -10zM518 857q-14 0 -23.5 9.5t-9.5 23.5t9.5 23.5t23.5 9.5q13 0 22.5 -10t9.5 -23t-9.5 -23t-22.5 -10zM432 -8q-154 0 -263 109t-109 264q0 153 109 262t263 109t262.5 -109
t108.5 -262q0 -155 -108.5 -264t-262.5 -109zM432 25q140 0 239 99t99 242q0 140 -99 238.5t-239 98.5t-239.5 -98.5t-99.5 -238.5q0 -143 99 -242t240 -99z" />
    <glyph glyph-name="multiply" unicode="&#xd7;" horiz-adv-x="469" 
d="M409 214l-23 -24l-151 152l-151 -151l-24 23l151 151l-151 151l24 23l151 -150l151 151l23 -24l-151 -151z" />
    <glyph glyph-name="Oslash" unicode="&#xd8;" horiz-adv-x="863" 
d="M432 -7q-145 0 -251 98l-74 -74l-24 23l74 74q-97 108 -97 252q0 153 109 262t263 109q145 0 251 -98l74 74l23 -23l-74 -74q97 -107 97 -250q0 -155 -108.5 -264t-262.5 -109zM180 137l480 479q-96 88 -228 88q-141 0 -240 -98.5t-99 -238.5q0 -133 87 -230zM432 26
q141 0 239.5 99t98.5 242q0 129 -87 226l-479 -479q96 -88 228 -88z" />
    <glyph glyph-name="Ugrave" unicode="&#xd9;" horiz-adv-x="730" 
d="M381 816h-30l-70 148h35zM366 -6q-120 0 -198 76t-78 209v451h33v-450q0 -122 67 -187.5t171 -65.5q106 0 176 65.5t70 187.5v450h33v-451q0 -132 -78 -208.5t-196 -76.5z" />
    <glyph glyph-name="Uacute" unicode="&#xda;" horiz-adv-x="730" 
d="M373 816h-30l65 148h35zM366 -6q-120 0 -198 76t-78 209v451h33v-450q0 -122 67 -187.5t171 -65.5q106 0 176 65.5t70 187.5v450h33v-451q0 -132 -78 -208.5t-196 -76.5z" />
    <glyph glyph-name="Ucircumflex" unicode="&#xdb;" horiz-adv-x="730" 
d="M268 830h-44l108 120h44l108 -120h-44l-86 96zM366 -6q-120 0 -198 76t-78 209v451h33v-450q0 -122 67 -187.5t171 -65.5q106 0 176 65.5t70 187.5v450h33v-451q0 -132 -78 -208.5t-196 -76.5z" />
    <glyph glyph-name="Udieresis" unicode="&#xdc;" horiz-adv-x="730" 
d="M273 857q-13 0 -23 9.5t-10 23.5t10 23.5t23 9.5t22.5 -10t9.5 -23t-9.5 -23t-22.5 -10zM458 857q-14 0 -23.5 9.5t-9.5 23.5t9.5 23.5t23.5 9.5q13 0 22.5 -10t9.5 -23t-9.5 -23t-22.5 -10zM366 -6q-120 0 -198 76t-78 209v451h33v-450q0 -122 67 -187.5t171 -65.5
q106 0 176 65.5t70 187.5v450h33v-451q0 -132 -78 -208.5t-196 -76.5z" />
    <glyph glyph-name="Yacute" unicode="&#xdd;" horiz-adv-x="640" 
d="M327 816h-30l65 148h35zM336 0h-33v326l-283 404h41l259 -371l259 371h41l-284 -406v-324z" />
    <glyph glyph-name="Thorn" unicode="&#xde;" horiz-adv-x="659" 
d="M133 0h-33v730h33v-149h240q97 0 161.5 -63t64.5 -153t-64.5 -153t-161.5 -63h-240v-149zM133 548v-366h240q85 0 139 54t54 129q0 74 -54 128.5t-139 54.5h-240z" />
    <glyph glyph-name="germandbls" unicode="&#xdf;" horiz-adv-x="612" 
d="M353 -10q-43 0 -83 10t-59 23v37q63 -37 142 -37q66 0 121 44t55 128q0 44 -18.5 75.5t-45 48t-53 30t-45 30.5t-18.5 41q0 22 16.5 41.5t36 33t36 41t16.5 62.5q0 63 -44.5 111t-115.5 48q-25 0 -50 -8t-51.5 -26t-43 -55t-16.5 -87v-581h-33v584q0 94 56 150t138 56
q85 0 139 -58.5t54 -133.5q0 -39 -16.5 -70.5t-36 -47.5t-36 -32t-16.5 -28t18.5 -24.5t45 -26.5t53 -34t45 -56t18.5 -84q0 -86 -58.5 -145.5t-150.5 -59.5z" />
    <glyph glyph-name="agrave" unicode="&#xe0;" horiz-adv-x="701" 
d="M371 646h-30l-70 148h35zM330 -6q-116 0 -198 82t-82 198t82 198.5t198 82.5q82 0 151.5 -45t96.5 -113v153h33v-550h-33v149q-27 -66 -96.5 -110.5t-151.5 -44.5zM330 27q103 0 175.5 72.5t72.5 174.5t-72.5 175t-175.5 73q-101 0 -174 -73t-73 -175t73 -174.5
t174 -72.5z" />
    <glyph glyph-name="aacute" unicode="&#xe1;" horiz-adv-x="701" 
d="M347 646h-30l65 148h35zM330 -6q-116 0 -198 82t-82 198t82 198.5t198 82.5q82 0 151.5 -45t96.5 -113v153h33v-550h-33v149q-27 -66 -96.5 -110.5t-151.5 -44.5zM330 27q103 0 175.5 72.5t72.5 174.5t-72.5 175t-175.5 73q-101 0 -174 -73t-73 -175t73 -174.5t174 -72.5
z" />
    <glyph glyph-name="acircumflex" unicode="&#xe2;" horiz-adv-x="701" 
d="M254 660h-44l108 120h44l108 -120h-44l-86 96zM330 -6q-116 0 -198 82t-82 198t82 198.5t198 82.5q82 0 151.5 -45t96.5 -113v153h33v-550h-33v149q-27 -66 -96.5 -110.5t-151.5 -44.5zM330 27q103 0 175.5 72.5t72.5 174.5t-72.5 175t-175.5 73q-101 0 -174 -73
t-73 -175t73 -174.5t174 -72.5z" />
    <glyph glyph-name="atilde" unicode="&#xe3;" horiz-adv-x="701" 
d="M421 666q-23 -2 -44 9.5t-34.5 27.5t-30.5 29t-32 12q-40 -2 -40 -70h-33q0 46 20 73.5t51 29.5q28 2 52 -18t45.5 -41t42.5 -20q36 2 36 70h33q0 -47 -18.5 -73t-47.5 -29zM330 -6q-116 0 -198 82t-82 198t82 198.5t198 82.5q82 0 151.5 -45t96.5 -113v153h33v-550h-33
v149q-27 -66 -96.5 -110.5t-151.5 -44.5zM330 27q103 0 175.5 72.5t72.5 174.5t-72.5 175t-175.5 73q-101 0 -174 -73t-73 -175t73 -174.5t174 -72.5z" />
    <glyph glyph-name="adieresis" unicode="&#xe4;" horiz-adv-x="701" 
d="M244 687q-14 0 -23.5 9.5t-9.5 23.5t9.5 23.5t23.5 9.5q13 0 22.5 -10t9.5 -23t-9.5 -23t-22.5 -10zM429 687q-13 0 -23 9.5t-10 23.5t10 23.5t23 9.5t22.5 -10t9.5 -23t-9.5 -23t-22.5 -10zM330 -6q-116 0 -198 82t-82 198t82 198.5t198 82.5q82 0 151.5 -45t96.5 -113
v153h33v-550h-33v149q-27 -66 -96.5 -110.5t-151.5 -44.5zM330 27q103 0 175.5 72.5t72.5 174.5t-72.5 175t-175.5 73q-101 0 -174 -73t-73 -175t73 -174.5t174 -72.5z" />
    <glyph glyph-name="aring" unicode="&#xe5;" horiz-adv-x="701" 
d="M336 614q-44 0 -75.5 31t-31.5 75t31.5 75.5t75.5 31.5t75.5 -31.5t31.5 -75.5t-31.5 -75t-75.5 -31zM336 646q31 0 52 21t21 53t-21 53.5t-52 21.5t-52 -21.5t-21 -53.5t21 -53t52 -21zM330 -6q-116 0 -198 82t-82 198t82 198.5t198 82.5q82 0 151.5 -45t96.5 -113v153
h33v-550h-33v149q-27 -66 -96.5 -110.5t-151.5 -44.5zM330 27q103 0 175.5 72.5t72.5 174.5t-72.5 175t-175.5 73q-101 0 -174 -73t-73 -175t73 -174.5t174 -72.5z" />
    <glyph glyph-name="ae" unicode="&#xe6;" horiz-adv-x="1060" 
d="M261 -10q-90 0 -150.5 47.5t-60.5 123.5q0 77 60.5 122.5t166.5 45.5h215q0 90 -54 143.5t-147 53.5q-126 0 -196 -73l-25 22q82 84 224 84q84 0 145 -44.5t80 -118.5q33 76 102.5 119.5t151.5 43.5q99 0 170.5 -67t71.5 -169q0 -18 -1 -28h-487q1 -126 68 -199t172 -73
q59 0 111 27.5t87 76.5l28 -18q-40 -56 -99 -87.5t-126 -31.5q-91 0 -160 50t-97 132q-24 -87 -91 -134.5t-159 -47.5zM530 328h452q-2 86 -64 142t-145 56q-96 0 -163 -60t-80 -138zM262 23q111 0 170.5 69.5t59.5 172.5v31h-221q-86 0 -137 -36.5t-51 -97.5
q0 -62 50.5 -100.5t128.5 -38.5z" />
    <glyph glyph-name="ccedilla" unicode="&#xe7;" horiz-adv-x="612" 
d="M333 -220q-54 0 -87 28l16 28q8 -8 29.5 -15.5t42.5 -7.5q29 0 46 14t17 36q0 52 -78 52h-35l27 81q-110 8 -185.5 88.5t-75.5 191.5q0 116 82 198t199 82q69 0 129.5 -32t99.5 -87l-28 -19q-34 49 -87 77t-114 28q-103 0 -175.5 -72.5t-72.5 -174.5t72.5 -175t175.5 -73
q62 0 115.5 29t87.5 79l28 -18q-36 -53 -93 -86t-124 -37l-15 -47q48 -3 74 -26t26 -58q0 -36 -26 -60t-71 -24z" />
    <glyph glyph-name="egrave" unicode="&#xe8;" horiz-adv-x="651" 
d="M353 646h-30l-70 148h35zM337 -5q-119 0 -203 82.5t-84 198.5t80.5 198t195.5 82q119 0 197 -81t78 -199q0 -11 -2 -31h-514q12 -92 84 -154.5t168 -62.5q61 0 115 27.5t88 74.5l29 -17q-39 -54 -100 -86t-132 -32zM83 278h485q-1 103 -69.5 174t-172.5 71
q-100 0 -171 -72t-72 -173z" />
    <glyph glyph-name="eacute" unicode="&#xe9;" horiz-adv-x="651" 
d="M336 646h-30l65 148h35zM337 -5q-119 0 -203 82.5t-84 198.5t80.5 198t195.5 82q119 0 197 -81t78 -199q0 -11 -2 -31h-514q12 -92 84 -154.5t168 -62.5q61 0 115 27.5t88 74.5l29 -17q-39 -54 -100 -86t-132 -32zM83 278h485q-1 103 -69.5 174t-172.5 71
q-100 0 -171 -72t-72 -173z" />
    <glyph glyph-name="ecircumflex" unicode="&#xea;" horiz-adv-x="651" 
d="M246 660h-44l108 120h44l108 -120h-44l-86 96zM337 -5q-119 0 -203 82.5t-84 198.5t80.5 198t195.5 82q119 0 197 -81t78 -199q0 -11 -2 -31h-514q12 -92 84 -154.5t168 -62.5q61 0 115 27.5t88 74.5l29 -17q-39 -54 -100 -86t-132 -32zM83 278h485q-1 103 -69.5 174
t-172.5 71q-100 0 -171 -72t-72 -173z" />
    <glyph glyph-name="edieresis" unicode="&#xeb;" horiz-adv-x="651" 
d="M232 687q-14 0 -23.5 9.5t-9.5 23.5t9.5 23.5t23.5 9.5q13 0 22.5 -10t9.5 -23t-9.5 -23t-22.5 -10zM417 687q-13 0 -23 9.5t-10 23.5t10 23.5t23 9.5t22.5 -10t9.5 -23t-9.5 -23t-22.5 -10zM337 -5q-119 0 -203 82.5t-84 198.5t80.5 198t195.5 82q119 0 197 -81t78 -199
q0 -11 -2 -31h-514q12 -92 84 -154.5t168 -62.5q61 0 115 27.5t88 74.5l29 -17q-39 -54 -100 -86t-132 -32zM83 278h485q-1 103 -69.5 174t-172.5 71q-100 0 -171 -72t-72 -173z" />
    <glyph glyph-name="igrave" unicode="&#xec;" horiz-adv-x="213" 
d="M119 646h-30l-70 148h35zM123 0h-33v550h33v-550z" />
    <glyph glyph-name="iacute" unicode="&#xed;" horiz-adv-x="213" 
d="M123 646h-30l65 148h35zM123 0h-33v550h33v-550z" />
    <glyph glyph-name="icircumflex" unicode="&#xee;" horiz-adv-x="213" 
d="M20 660h-44l108 120h44l108 -120h-44l-86 96zM123 0h-33v550h33v-550z" />
    <glyph glyph-name="idieresis" unicode="&#xef;" horiz-adv-x="213" 
d="M35 687q-13 0 -23 9.5t-10 23.5t10 23.5t23 9.5t22.5 -10t9.5 -23t-9.5 -23t-22.5 -10zM180 687q-14 0 -23.5 9.5t-9.5 23.5t9.5 23.5t23.5 9.5q13 0 22.5 -10t9.5 -23t-9.5 -23t-22.5 -10zM123 0h-33v550h33v-550z" />
    <glyph glyph-name="eth" unicode="&#xf0;" horiz-adv-x="575" 
d="M294 -10q-110 0 -177.5 68.5t-66.5 170.5q1 98 71 164t173 66q62 0 115.5 -34.5t78.5 -88.5q-18 170 -127 284l-226 -120l-15 29l216 115q-73 66 -183 109l22 27q113 -44 193 -119l109 58l15 -30l-99 -53q135 -147 132 -383q0 -117 -66.5 -190t-164.5 -73zM288 21
q83 0 139.5 59t56.5 143q0 83 -57.5 143.5t-138.5 60.5q-88 0 -146.5 -59t-58.5 -145q0 -83 60 -142.5t145 -59.5z" />
    <glyph glyph-name="ntilde" unicode="&#xf1;" horiz-adv-x="592" 
d="M362 666q-23 -3 -44 9t-34.5 28t-30.5 29t-32 12q-40 -2 -40 -70h-33q0 46 20.5 73.5t50.5 29.5q23 2 43 -10.5t32.5 -28t30 -28.5t34.5 -12q36 2 36 70h33q0 -47 -18.5 -73.5t-47.5 -28.5zM93 0h-33v550h33v-123q24 56 76.5 92t126.5 36q103 0 169.5 -72t66.5 -205v-278
h-33v278q0 120 -57 182t-146 62t-146 -62t-57 -182v-278z" />
    <glyph glyph-name="ograve" unicode="&#xf2;" horiz-adv-x="661" 
d="M351 646h-30l-70 148h35zM331 -5q-117 0 -199 82.5t-82 198.5t82 198t199 82q116 0 198 -82t82 -198t-82 -198.5t-198 -82.5zM331 28q101 0 174 73t73 175t-73 174.5t-174 72.5q-103 0 -175.5 -72.5t-72.5 -174.5t72.5 -175t175.5 -73z" />
    <glyph glyph-name="oacute" unicode="&#xf3;" horiz-adv-x="661" 
d="M347 646h-30l65 148h35zM331 -5q-117 0 -199 82.5t-82 198.5t82 198t199 82q116 0 198 -82t82 -198t-82 -198.5t-198 -82.5zM331 28q101 0 174 73t73 175t-73 174.5t-174 72.5q-103 0 -175.5 -72.5t-72.5 -174.5t72.5 -175t175.5 -73z" />
    <glyph glyph-name="ocircumflex" unicode="&#xf4;" horiz-adv-x="661" 
d="M248 660h-44l108 120h44l108 -120h-44l-86 96zM331 -5q-117 0 -199 82.5t-82 198.5t82 198t199 82q116 0 198 -82t82 -198t-82 -198.5t-198 -82.5zM331 28q101 0 174 73t73 175t-73 174.5t-174 72.5q-103 0 -175.5 -72.5t-72.5 -174.5t72.5 -175t175.5 -73z" />
    <glyph glyph-name="otilde" unicode="&#xf5;" horiz-adv-x="661" 
d="M405 666q-23 -3 -44 9t-34.5 28t-30.5 29t-32 12q-40 -2 -40 -70h-33q0 46 20.5 73.5t50.5 29.5q23 2 43 -10.5t32.5 -28t30 -28.5t34.5 -12q36 2 36 70h33q0 -47 -18.5 -73.5t-47.5 -28.5zM331 -5q-117 0 -199 82.5t-82 198.5t82 198t199 82q116 0 198 -82t82 -198
t-82 -198.5t-198 -82.5zM331 28q101 0 174 73t73 175t-73 174.5t-174 72.5q-103 0 -175.5 -72.5t-72.5 -174.5t72.5 -175t175.5 -73z" />
    <glyph glyph-name="odieresis" unicode="&#xf6;" horiz-adv-x="661" 
d="M239 687q-13 0 -23 9.5t-10 23.5t10 23.5t23 9.5t22.5 -10t9.5 -23t-9.5 -23t-22.5 -10zM424 687q-14 0 -23.5 9.5t-9.5 23.5t9.5 23.5t23.5 9.5q13 0 22.5 -10t9.5 -23t-9.5 -23t-22.5 -10zM331 -5q-117 0 -199 82.5t-82 198.5t82 198t199 82q116 0 198 -82t82 -198
t-82 -198.5t-198 -82.5zM331 28q101 0 174 73t73 175t-73 174.5t-174 72.5q-103 0 -175.5 -72.5t-72.5 -174.5t72.5 -175t175.5 -73z" />
    <glyph glyph-name="divide" unicode="&#xf7;" horiz-adv-x="540" 
d="M270 462q-14 0 -23.5 10t-9.5 23t9.5 23t23.5 10q13 0 22.5 -10t9.5 -23t-9.5 -23t-22.5 -10zM480 349h-420v33h420v-33zM270 203q-14 0 -23.5 9.5t-9.5 23.5t9.5 23.5t23.5 9.5q13 0 22.5 -10t9.5 -23t-9.5 -23t-22.5 -10z" />
    <glyph glyph-name="oslash" unicode="&#xf8;" horiz-adv-x="669" 
d="M334 0q-108 0 -189 71l-61 -61l-23 23l61 61q-72 82 -72 191q0 118 82.5 201t201.5 83q108 0 191 -73l62 62l21 -23l-61 -61q72 -82 72 -189q0 -118 -83.5 -201.5t-201.5 -83.5zM332 536q-105 0 -177 -73t-72 -177q0 -97 62 -169l356 355q-72 64 -169 64zM332 33
q105 0 179.5 74t74.5 179q0 93 -63 164l-355 -356q69 -61 164 -61z" />
    <glyph glyph-name="ugrave" unicode="&#xf9;" 
d="M331 646h-30l-70 148h35zM311 -5q-103 0 -169.5 72t-66.5 205v278h33v-278q0 -120 57 -182t146 -62t146 62t57 182v278h33v-550h-33v123q-24 -56 -76.5 -92t-126.5 -36z" />
    <glyph glyph-name="uacute" unicode="&#xfa;" 
d="M291 646h-30l65 148h35zM311 -5q-103 0 -169.5 72t-66.5 205v278h33v-278q0 -120 57 -182t146 -62t146 62t57 182v278h33v-550h-33v123q-24 -56 -76.5 -92t-126.5 -36z" />
    <glyph glyph-name="ucircumflex" unicode="&#xfb;" 
d="M225 660h-44l108 120h44l108 -120h-44l-86 96zM311 -5q-103 0 -169.5 72t-66.5 205v278h33v-278q0 -120 57 -182t146 -62t146 62t57 182v278h33v-550h-33v123q-24 -56 -76.5 -92t-126.5 -36z" />
    <glyph glyph-name="udieresis" unicode="&#xfc;" 
d="M219 687q-13 0 -23 9.5t-10 23.5t10 23.5t23 9.5t22.5 -10t9.5 -23t-9.5 -23t-22.5 -10zM404 687q-14 0 -23.5 9.5t-9.5 23.5t9.5 23.5t23.5 9.5q13 0 22.5 -10t9.5 -23t-9.5 -23t-22.5 -10zM311 -5q-103 0 -169.5 72t-66.5 205v278h33v-278q0 -120 57 -182t146 -62
t146 62t57 182v278h33v-550h-33v123q-24 -56 -76.5 -92t-126.5 -36z" />
    <glyph glyph-name="yacute" unicode="&#xfd;" horiz-adv-x="560" 
d="M270 646h-30l65 148h35zM111 -220q-44 0 -91 21l13 31q40 -19 78 -19q23 0 43 11t33 24t30.5 43.5t25.5 48.5t27 60l-234 550h36l216 -508l216 508h36l-234 -550q-54 -123 -92.5 -171.5t-102.5 -48.5z" />
    <glyph glyph-name="thorn" unicode="&#xfe;" horiz-adv-x="711" 
d="M123 -220h-33v1000h33v-372q37 69 104.5 110t148.5 41q118 0 201.5 -83.5t83.5 -201.5t-83.5 -202t-201.5 -84q-81 0 -148.5 41.5t-104.5 110.5v-360zM376 21q104 0 178 74.5t74 178.5t-74 178t-178 74q-105 0 -179 -74t-74 -178t74 -178.5t179 -74.5z" />
    <glyph glyph-name="ydieresis" unicode="&#xff;" horiz-adv-x="560" 
d="M188 687q-14 0 -23.5 9.5t-9.5 23.5t9.5 23.5t23.5 9.5q13 0 22.5 -10t9.5 -23t-9.5 -23t-22.5 -10zM373 687q-13 0 -23 9.5t-10 23.5t10 23.5t23 9.5t22.5 -10t9.5 -23t-9.5 -23t-22.5 -10zM111 -220q-44 0 -91 21l13 31q40 -19 78 -19q23 0 43 11t33 24t30.5 43.5
t25.5 48.5t27 60l-234 550h36l216 -508l216 508h36l-234 -550q-54 -123 -92.5 -171.5t-102.5 -48.5z" />
    <glyph glyph-name="Amacron" unicode="&#x100;" horiz-adv-x="680" 
d="M515 874h-350v33h350v-33zM66 0h-36l291 730h38l291 -730h-35l-101 252h-348zM340 687l-160 -402h321z" />
    <glyph glyph-name="amacron" unicode="&#x101;" horiz-adv-x="701" 
d="M516 704h-350v33h350v-33zM330 -6q-116 0 -198 82t-82 198t82 198.5t198 82.5q82 0 151.5 -45t96.5 -113v153h33v-550h-33v149q-27 -66 -96.5 -110.5t-151.5 -44.5zM330 27q103 0 175.5 72.5t72.5 174.5t-72.5 175t-175.5 73q-101 0 -174 -73t-73 -175t73 -174.5
t174 -72.5z" />
    <glyph glyph-name="Abreve" unicode="&#x102;" horiz-adv-x="680" 
d="M343 816q-62 0 -107 43t-50 105h33q4 -48 39.5 -81.5t84.5 -33.5q48 0 83 33.5t39 81.5h33q-5 -62 -49.5 -105t-105.5 -43zM66 0h-36l291 730h38l291 -730h-35l-101 252h-348zM340 687l-160 -402h321z" />
    <glyph glyph-name="abreve" unicode="&#x103;" horiz-adv-x="701" 
d="M342 646q-62 0 -107 43t-50 105h33q4 -48 39.5 -81.5t84.5 -33.5q48 0 83 33.5t39 81.5h33q-5 -62 -49.5 -105t-105.5 -43zM330 -6q-116 0 -198 82t-82 198t82 198.5t198 82.5q82 0 151.5 -45t96.5 -113v153h33v-550h-33v149q-27 -66 -96.5 -110.5t-151.5 -44.5zM330 27
q103 0 175.5 72.5t72.5 174.5t-72.5 175t-175.5 73q-101 0 -174 -73t-73 -175t73 -174.5t174 -72.5z" />
    <glyph glyph-name="Aogonek" unicode="&#x104;" horiz-adv-x="680" 
d="M625 -218q-32 0 -54.5 24.5t-22.5 60.5q0 61 78 133h-9l-103 252h-348l-100 -252h-36l291 730h38l291 -730q-5 -8 -16.5 -24t-16 -22t-12 -18t-10.5 -18.5t-7 -16t-5.5 -17.5t-1.5 -16q0 -22 12.5 -37.5t31.5 -15.5q35 0 57 32l19 -26q-29 -39 -76 -39zM340 687
l-160 -402h321z" />
    <glyph glyph-name="aogonek" unicode="&#x105;" horiz-adv-x="698" 
d="M586 -207q-32 0 -54.5 24.5t-22.5 60.5q0 24 10.5 44t32 45t27.5 33h-1v149q-27 -66 -96.5 -110.5t-151.5 -44.5q-116 0 -198 82t-82 198t82 198.5t198 82.5q82 0 151.5 -45t96.5 -113v153h33v-550h-3q-9 -13 -26.5 -36.5t-23 -32.5t-11 -23.5t-5.5 -28.5
q0 -22 12.5 -37.5t31.5 -15.5q35 0 57 32l19 -26q-28 -39 -76 -39zM330 27q103 0 175.5 72.5t72.5 174.5t-72.5 175t-175.5 73q-101 0 -174 -73t-73 -175t73 -174.5t174 -72.5z" />
    <glyph glyph-name="Cacute" unicode="&#x106;" horiz-adv-x="770" 
d="M373 816h-30l65 148h35zM432 -8q-154 0 -263 109t-109 264q0 153 109 262t263 109q87 0 163 -37.5t128 -103.5l-26 -20q-47 60 -116.5 94t-148.5 34q-140 0 -239.5 -98.5t-99.5 -238.5q0 -143 99 -242t240 -99q82 0 153.5 36.5t117.5 100.5l27 -19q-51 -70 -129.5 -110.5
t-168.5 -40.5z" />
    <glyph glyph-name="cacute" unicode="&#x107;" horiz-adv-x="612" 
d="M326 646h-30l65 148h35zM331 -5q-117 0 -199 82.5t-82 198.5t82 198t199 82q69 0 129.5 -32t99.5 -87l-28 -19q-34 49 -87 77t-114 28q-103 0 -175.5 -72.5t-72.5 -174.5t72.5 -175t175.5 -73q62 0 115.5 29t87.5 79l28 -18q-38 -57 -99 -90t-132 -33z" />
    <glyph glyph-name="Ccircumflex" unicode="&#x108;" horiz-adv-x="770" 
d="M340 830h-44l108 120h44l108 -120h-44l-86 96zM432 -8q-154 0 -263 109t-109 264q0 153 109 262t263 109q87 0 163 -37.5t128 -103.5l-26 -20q-47 60 -116.5 94t-148.5 34q-140 0 -239.5 -98.5t-99.5 -238.5q0 -143 99 -242t240 -99q82 0 153.5 36.5t117.5 100.5l27 -19
q-51 -70 -129.5 -110.5t-168.5 -40.5z" />
    <glyph glyph-name="ccircumflex" unicode="&#x109;" horiz-adv-x="612" 
d="M241 660h-44l108 120h44l108 -120h-44l-86 96zM331 -5q-117 0 -199 82.5t-82 198.5t82 198t199 82q69 0 129.5 -32t99.5 -87l-28 -19q-34 49 -87 77t-114 28q-103 0 -175.5 -72.5t-72.5 -174.5t72.5 -175t175.5 -73q62 0 115.5 29t87.5 79l28 -18q-38 -57 -99 -90
t-132 -33z" />
    <glyph glyph-name="Cdotaccent" unicode="&#x10a;" horiz-adv-x="770" 
d="M418 857q-14 0 -23.5 9.5t-9.5 23.5t9.5 23.5t23.5 9.5q13 0 22.5 -10t9.5 -23t-9.5 -23t-22.5 -10zM432 -8q-154 0 -263 109t-109 264q0 153 109 262t263 109q87 0 163 -37.5t128 -103.5l-26 -20q-47 60 -116.5 94t-148.5 34q-140 0 -239.5 -98.5t-99.5 -238.5
q0 -143 99 -242t240 -99q82 0 153.5 36.5t117.5 100.5l27 -19q-51 -70 -129.5 -110.5t-168.5 -40.5z" />
    <glyph glyph-name="cdotaccent" unicode="&#x10b;" horiz-adv-x="612" 
d="M317 687q-13 0 -23 9.5t-10 23.5t10 23.5t23 9.5t22.5 -10t9.5 -23t-9.5 -23t-22.5 -10zM331 -5q-117 0 -199 82.5t-82 198.5t82 198t199 82q69 0 129.5 -32t99.5 -87l-28 -19q-34 49 -87 77t-114 28q-103 0 -175.5 -72.5t-72.5 -174.5t72.5 -175t175.5 -73
q62 0 115.5 29t87.5 79l28 -18q-38 -57 -99 -90t-132 -33z" />
    <glyph glyph-name="Ccaron" unicode="&#x10c;" horiz-adv-x="770" 
d="M435 830h-44l-108 120h44l86 -96l86 96h44zM432 -8q-154 0 -263 109t-109 264q0 153 109 262t263 109q87 0 163 -37.5t128 -103.5l-26 -20q-47 60 -116.5 94t-148.5 34q-140 0 -239.5 -98.5t-99.5 -238.5q0 -143 99 -242t240 -99q82 0 153.5 36.5t117.5 100.5l27 -19
q-51 -70 -129.5 -110.5t-168.5 -40.5z" />
    <glyph glyph-name="ccaron" unicode="&#x10d;" horiz-adv-x="612" 
d="M318 660h-44l-108 120h44l86 -96l86 96h44zM331 -5q-117 0 -199 82.5t-82 198.5t82 198t199 82q69 0 129.5 -32t99.5 -87l-28 -19q-34 49 -87 77t-114 28q-103 0 -175.5 -72.5t-72.5 -174.5t72.5 -175t175.5 -73q62 0 115.5 29t87.5 79l28 -18q-38 -57 -99 -90t-132 -33z
" />
    <glyph glyph-name="Dcaron" unicode="&#x10e;" horiz-adv-x="750" 
d="M325 830h-44l-108 120h44l86 -96l86 96h44zM307 0h-207v730h207q167 0 275 -105.5t108 -258.5q0 -156 -105 -261t-278 -105zM133 697v-664h174q161 0 255.5 96.5t94.5 238.5q0 135 -98 232t-252 97h-174z" />
    <glyph glyph-name="dcaron" unicode="&#x10f;" horiz-adv-x="734" 
d="M330 -6q-116 0 -198 82t-82 198t82 198.5t198 82.5q82 0 151.5 -45t96.5 -113v383h33v-780h-33v149q-27 -66 -96.5 -110.5t-151.5 -44.5zM712 600h-31l-2 180h35zM330 27q103 0 175.5 72.5t72.5 174.5t-72.5 175t-175.5 73q-101 0 -174 -73t-73 -175t73 -174.5t174 -72.5
z" />
    <glyph glyph-name="Dcroat" unicode="&#x110;" horiz-adv-x="750" 
d="M307 0h-207v349h-50v33h50v348h207q167 0 275 -105.5t108 -258.5q0 -156 -105 -261t-278 -105zM134 349v-315h173q159 0 254 96t95 238q0 135 -98 231.5t-251 96.5h-173v-314h300v-33h-300z" />
    <glyph glyph-name="dcroat" unicode="&#x111;" horiz-adv-x="702" 
d="M330 -6q-116 0 -198 82t-82 198t82 198.5t198 82.5q82 0 151.5 -45t96.5 -113v265h-256v33h256v85h33v-85h61v-33h-61v-662h-33v149q-27 -66 -96.5 -110.5t-151.5 -44.5zM330 27q103 0 175.5 72.5t72.5 174.5t-72.5 175t-175.5 73q-101 0 -174 -73t-73 -175t73 -174.5
t174 -72.5z" />
    <glyph glyph-name="Emacron" unicode="&#x112;" horiz-adv-x="606" 
d="M498 874h-350v33h350v-33zM546 0h-446v730h436v-33h-403v-305h383v-33h-383v-326h413v-33z" />
    <glyph glyph-name="emacron" unicode="&#x113;" horiz-adv-x="651" 
d="M501 704h-350v33h350v-33zM337 -5q-119 0 -203 82.5t-84 198.5t80.5 198t195.5 82q119 0 197 -81t78 -199q0 -11 -2 -31h-514q12 -92 84 -154.5t168 -62.5q61 0 115 27.5t88 74.5l29 -17q-39 -54 -100 -86t-132 -32zM83 278h485q-1 103 -69.5 174t-172.5 71
q-100 0 -171 -72t-72 -173z" />
    <glyph glyph-name="Ebreve" unicode="&#x114;" horiz-adv-x="606" 
d="M330 816q-62 0 -107 43t-50 105h33q4 -48 39.5 -81.5t84.5 -33.5q48 0 83 33.5t39 81.5h33q-5 -62 -49.5 -105t-105.5 -43zM546 0h-446v730h436v-33h-403v-305h383v-33h-383v-326h413v-33z" />
    <glyph glyph-name="ebreve" unicode="&#x115;" horiz-adv-x="651" 
d="M327 646q-62 0 -107 43t-50 105h33q4 -48 39.5 -81.5t84.5 -33.5q48 0 83 33.5t39 81.5h33q-5 -62 -49.5 -105t-105.5 -43zM337 -5q-119 0 -203 82.5t-84 198.5t80.5 198t195.5 82q119 0 197 -81t78 -199q0 -11 -2 -31h-514q12 -92 84 -154.5t168 -62.5q61 0 115 27.5
t88 74.5l29 -17q-39 -54 -100 -86t-132 -32zM83 278h485q-1 103 -69.5 174t-172.5 71q-100 0 -171 -72t-72 -173z" />
    <glyph glyph-name="Edotaccent" unicode="&#x116;" horiz-adv-x="606" 
d="M324 857q-14 0 -23.5 9.5t-9.5 23.5t9.5 23.5t23.5 9.5q13 0 22.5 -10t9.5 -23t-9.5 -23t-22.5 -10zM546 0h-446v730h436v-33h-403v-305h383v-33h-383v-326h413v-33z" />
    <glyph glyph-name="edotaccent" unicode="&#x117;" horiz-adv-x="651" 
d="M314 687q-14 0 -23.5 9.5t-9.5 23.5t9.5 23.5t23.5 9.5q13 0 22.5 -10t9.5 -23t-9.5 -23t-22.5 -10zM337 -5q-119 0 -203 82.5t-84 198.5t80.5 198t195.5 82q119 0 197 -81t78 -199q0 -11 -2 -31h-514q12 -92 84 -154.5t168 -62.5q61 0 115 27.5t88 74.5l29 -17
q-39 -54 -100 -86t-132 -32zM83 278h485q-1 103 -69.5 174t-172.5 71q-100 0 -171 -72t-72 -173z" />
    <glyph glyph-name="Eogonek" unicode="&#x118;" horiz-adv-x="625" 
d="M521 -218q-32 0 -54.5 24.5t-22.5 60.5q0 13 3 26.5t7 23.5t12 23.5t12.5 20.5t14.5 21t13 18h-406v730h436v-33h-403v-305h383v-33h-383v-326h413v-33q-5 -8 -16.5 -24t-16 -22t-12 -18t-10.5 -18.5t-7 -16t-5.5 -17.5t-1.5 -16q0 -22 12.5 -37.5t31.5 -15.5q35 0 57 32
l19 -26q-29 -39 -76 -39z" />
    <glyph glyph-name="eogonek" unicode="&#x119;" horiz-adv-x="670" 
d="M544 -105q-32 0 -54.5 24.5t-22.5 60.5q0 27 11 52q-63 -37 -141 -37q-119 0 -203 82.5t-84 198.5t80.5 198t195.5 82q119 0 197 -81t78 -199q0 -11 -2 -31h-514q12 -92 84 -154.5t168 -62.5q61 0 115 27.5t88 74.5l29 -17q-44 -61 -56.5 -84.5t-12.5 -47.5
q0 -22 12.5 -37.5t31.5 -15.5q35 0 57 32l19 -26q-28 -39 -76 -39zM83 278h485q-1 103 -69.5 174t-172.5 71q-100 0 -171 -72t-72 -173z" />
    <glyph glyph-name="Ecaron" unicode="&#x11a;" horiz-adv-x="606" 
d="M323 830h-44l-108 120h44l86 -96l86 96h44zM546 0h-446v730h436v-33h-403v-305h383v-33h-383v-326h413v-33z" />
    <glyph glyph-name="ecaron" unicode="&#x11b;" horiz-adv-x="651" 
d="M335 660h-44l-108 120h44l86 -96l86 96h44zM337 -5q-119 0 -203 82.5t-84 198.5t80.5 198t195.5 82q119 0 197 -81t78 -199q0 -11 -2 -31h-514q12 -92 84 -154.5t168 -62.5q61 0 115 27.5t88 74.5l29 -17q-39 -54 -100 -86t-132 -32zM83 278h485q-1 103 -69.5 174
t-172.5 71q-100 0 -171 -72t-72 -173z" />
    <glyph glyph-name="Gcircumflex" unicode="&#x11c;" horiz-adv-x="853" 
d="M341 830h-44l108 120h44l108 -120h-44l-86 96zM432 -8q-154 0 -263 109t-109 264q0 153 109 262t263 109q88 0 165 -39t129 -106l-27 -18q-47 60 -117 95t-150 35q-140 0 -239.5 -98.5t-99.5 -238.5q0 -143 99 -242t240 -99q145 0 235.5 93.5t92.5 242.5h-345v33h377
q1 -9 1 -29q0 -163 -100.5 -268t-260.5 -105z" />
    <glyph glyph-name="gcircumflex" unicode="&#x11d;" horiz-adv-x="701" 
d="M245 660h-44l108 120h44l108 -120h-44l-86 96zM320 -224q-70 0 -130.5 29t-99.5 79l26 20q34 -44 88.5 -69.5t115.5 -25.5q115 0 186.5 68t71.5 208v64q-27 -66 -96.5 -110.5t-151.5 -44.5q-116 0 -198 82t-82 198t82 198.5t198 82.5q82 0 151.5 -45t96.5 -113v153h33
v-465q0 -153 -81.5 -231t-209.5 -78zM330 27q103 0 175.5 72.5t72.5 174.5t-72.5 175t-175.5 73q-101 0 -174 -73t-73 -175t73 -174.5t174 -72.5z" />
    <glyph glyph-name="Gbreve" unicode="&#x11e;" horiz-adv-x="853" 
d="M415 816q-62 0 -107 43t-50 105h33q4 -48 39.5 -81.5t84.5 -33.5q48 0 83 33.5t39 81.5h33q-5 -62 -49.5 -105t-105.5 -43zM432 -8q-154 0 -263 109t-109 264q0 153 109 262t263 109q88 0 165 -39t129 -106l-27 -18q-47 60 -117 95t-150 35q-140 0 -239.5 -98.5
t-99.5 -238.5q0 -143 99 -242t240 -99q145 0 235.5 93.5t92.5 242.5h-345v33h377q1 -9 1 -29q0 -163 -100.5 -268t-260.5 -105z" />
    <glyph glyph-name="gbreve" unicode="&#x11f;" horiz-adv-x="701" 
d="M324 646q-62 0 -107 43t-50 105h33q4 -48 39.5 -81.5t84.5 -33.5q48 0 83 33.5t39 81.5h33q-5 -62 -49.5 -105t-105.5 -43zM320 -224q-70 0 -130.5 29t-99.5 79l26 20q34 -44 88.5 -69.5t115.5 -25.5q115 0 186.5 68t71.5 208v64q-27 -66 -96.5 -110.5t-151.5 -44.5
q-116 0 -198 82t-82 198t82 198.5t198 82.5q82 0 151.5 -45t96.5 -113v153h33v-465q0 -153 -81.5 -231t-209.5 -78zM330 27q103 0 175.5 72.5t72.5 174.5t-72.5 175t-175.5 73q-101 0 -174 -73t-73 -175t73 -174.5t174 -72.5z" />
    <glyph glyph-name="Gdotaccent" unicode="&#x120;" horiz-adv-x="853" 
d="M415 857q-13 0 -23 9.5t-10 23.5t10 23.5t23 9.5t22.5 -10t9.5 -23t-9.5 -23t-22.5 -10zM432 -8q-154 0 -263 109t-109 264q0 153 109 262t263 109q88 0 165 -39t129 -106l-27 -18q-47 60 -117 95t-150 35q-140 0 -239.5 -98.5t-99.5 -238.5q0 -143 99 -242t240 -99
q145 0 235.5 93.5t92.5 242.5h-345v33h377q1 -9 1 -29q0 -163 -100.5 -268t-260.5 -105z" />
    <glyph glyph-name="gdotaccent" unicode="&#x121;" horiz-adv-x="701" 
d="M324 687q-14 0 -23.5 9.5t-9.5 23.5t9.5 23.5t23.5 9.5q13 0 22.5 -10t9.5 -23t-9.5 -23t-22.5 -10zM320 -224q-70 0 -130.5 29t-99.5 79l26 20q34 -44 88.5 -69.5t115.5 -25.5q115 0 186.5 68t71.5 208v64q-27 -66 -96.5 -110.5t-151.5 -44.5q-116 0 -198 82t-82 198
t82 198.5t198 82.5q82 0 151.5 -45t96.5 -113v153h33v-465q0 -153 -81.5 -231t-209.5 -78zM330 27q103 0 175.5 72.5t72.5 174.5t-72.5 175t-175.5 73q-101 0 -174 -73t-73 -175t73 -174.5t174 -72.5z" />
    <glyph glyph-name="uni0122" unicode="&#x122;" horiz-adv-x="853" 
d="M432 -8q-154 0 -263 109t-109 264q0 153 109 262t263 109q88 0 165 -39t129 -106l-27 -18q-47 60 -117 95t-150 35q-140 0 -239.5 -98.5t-99.5 -238.5q0 -143 99 -242t240 -99q145 0 235.5 93.5t92.5 242.5h-345v33h377q1 -9 1 -29q0 -163 -100.5 -268t-260.5 -105z
M432 -185h-32l18 140h35z" />
    <glyph glyph-name="uni0123" unicode="&#x123;" horiz-adv-x="701" 
d="M340 650h-35l21 140h32zM320 -224q-70 0 -130.5 29t-99.5 79l26 20q34 -44 88.5 -69.5t115.5 -25.5q115 0 186.5 68t71.5 208v64q-27 -66 -96.5 -110.5t-151.5 -44.5q-116 0 -198 82t-82 198t82 198.5t198 82.5q82 0 151.5 -45t96.5 -113v153h33v-465q0 -153 -81.5 -231
t-209.5 -78zM330 27q103 0 175.5 72.5t72.5 174.5t-72.5 175t-175.5 73q-101 0 -174 -73t-73 -175t73 -174.5t174 -72.5z" />
    <glyph glyph-name="Hcircumflex" unicode="&#x124;" horiz-adv-x="750" 
d="M291 830h-44l108 120h44l108 -120h-44l-86 96zM133 0h-33v730h33v-347h484v347h33v-730h-33v350h-484v-350z" />
    <glyph glyph-name="hcircumflex" unicode="&#x125;" horiz-adv-x="641" 
d="M134 830h-44l108 120h44l108 -120h-44l-86 96zM127 0h-33v780h33v-353q24 56 76.5 92t126.5 36q103 0 169.5 -72t66.5 -205v-278h-33v278q0 120 -57 182t-146 62t-146 -62t-57 -182v-278z" />
    <glyph glyph-name="Hbar" unicode="&#x126;" horiz-adv-x="750" 
d="M133 0h-33v607h-30v33h30v90h33v-90h484v90h33v-90h30v-33h-30v-607h-33v350h-484v-350zM133 607v-224h484v224h-484z" />
    <glyph glyph-name="hbar" unicode="&#x127;" 
d="M123 0h-33v662h-73v33h73v85h33v-85h160v-33h-160v-235q24 56 76.5 92t126.5 36q103 0 169.5 -72t66.5 -205v-278h-33v278q0 120 -57 182t-146 62t-146 -62t-57 -182v-278z" />
    <glyph glyph-name="Itilde" unicode="&#x128;" horiz-adv-x="233" 
d="M191 836q-23 -2 -44 9.5t-34.5 27.5t-30.5 29t-32 12q-40 -2 -40 -70h-33q0 46 20 73.5t51 29.5q28 2 52 -18t45.5 -41t42.5 -20q36 2 36 70h33q0 -47 -18.5 -73t-47.5 -29zM133 0h-33v730h33v-730z" />
    <glyph glyph-name="itilde" unicode="&#x129;" horiz-adv-x="213" 
d="M181 666q-23 -2 -44 9.5t-34.5 27.5t-30.5 29t-32 12q-40 -2 -40 -70h-33q0 46 20 73.5t51 29.5q28 2 52 -18t45.5 -41t42.5 -20q36 2 36 70h33q0 -47 -18.5 -73t-47.5 -29zM123 0h-33v550h33v-550z" />
    <glyph glyph-name="Imacron" unicode="&#x12a;" horiz-adv-x="233" 
d="M291 874h-350v33h350v-33zM133 0h-33v730h33v-730z" />
    <glyph glyph-name="imacron" unicode="&#x12b;" horiz-adv-x="213" 
d="M232 704h-250v33h250v-33zM123 0h-33v550h33v-550z" />
    <glyph glyph-name="Ibreve" unicode="&#x12c;" horiz-adv-x="232" 
d="M117 816q-62 0 -107 43t-50 105h33q4 -48 39.5 -81.5t84.5 -33.5q48 0 83 33.5t39 81.5h33q-5 -62 -49.5 -105t-105.5 -43zM133 0h-33v730h33v-730z" />
    <glyph glyph-name="ibreve" unicode="&#x12d;" horiz-adv-x="213" 
d="M108 670q-51 0 -84.5 32.5t-33.5 67.5h33q0 -23 23.5 -45t61.5 -22q41 0 62 22.5t21 44.5h33q0 -35 -33 -67.5t-83 -32.5zM123 0h-33v550h33v-550z" />
    <glyph glyph-name="Iogonek" unicode="&#x12e;" horiz-adv-x="233" 
d="M115 -218q-32 0 -54.5 24.5t-22.5 60.5q0 19 4 35t12.5 31t14.5 23.5t19 23.5t17 20h-5v730h33v-730q-35 -50 -48.5 -77t-13.5 -55q0 -22 12.5 -37.5t31.5 -15.5q35 0 57 32l19 -26q-29 -39 -76 -39z" />
    <glyph glyph-name="iogonek" unicode="&#x12f;" horiz-adv-x="213" 
d="M107 624q-13 0 -23 10t-10 23t10 23t23 10t22.5 -10t9.5 -23t-9.5 -23t-22.5 -10zM98 -218q-32 0 -54.5 24.5t-22.5 60.5q0 29 11.5 52.5t35.5 50t27 30.5h-5v550h33v-550q-5 -8 -16.5 -24t-16 -22t-12 -18t-10.5 -18.5t-7 -16t-5.5 -17.5t-1.5 -16q0 -22 12.5 -37.5
t31.5 -15.5q35 0 57 32l19 -26q-28 -39 -76 -39z" />
    <glyph glyph-name="Idotaccent" unicode="&#x130;" horiz-adv-x="233" 
d="M117 857q-13 0 -23 9.5t-10 23.5t10 23.5t23 9.5t22.5 -10t9.5 -23t-9.5 -23t-22.5 -10zM133 0h-33v730h33v-730z" />
    <glyph glyph-name="dotlessi" unicode="&#x131;" horiz-adv-x="213" 
d="M123 0h-33v550h33v-550z" />
    <glyph glyph-name="IJ" unicode="&#x132;" horiz-adv-x="683" 
d="M133 0h-33v730h33v-730zM382 -5q-72 0 -129 43l20 26q47 -36 109 -36q79 0 128.5 54t49.5 144v504h33v-504q0 -103 -59 -167t-152 -64z" />
    <glyph glyph-name="ij" unicode="&#x133;" horiz-adv-x="431" 
d="M107 624q-13 0 -23 10t-10 23t10 23t23 10t22.5 -10t9.5 -23t-9.5 -23t-22.5 -10zM325 624q-13 0 -23 10t-10 23t10 23t23 10t22.5 -10t9.5 -23t-9.5 -23t-22.5 -10zM123 0h-33v550h33v-550zM186 -228q-30 0 -57 11l11 31q21 -9 46 -9q122 0 122 162v583h33v-583
q0 -96 -42 -145.5t-113 -49.5z" />
    <glyph glyph-name="Jcircumflex" unicode="&#x134;" horiz-adv-x="461" 
d="M199 830h-44l108 120h44l108 -120h-44l-86 96zM169 -5q-72 0 -129 43l20 26q47 -36 109 -36q79 0 128.5 54t49.5 144v504h33v-504q0 -103 -59 -167t-152 -64z" />
    <glyph glyph-name="jcircumflex" unicode="&#x135;" horiz-adv-x="232" 
d="M35 660h-44l108 120h44l108 -120h-44l-86 96zM-13 -228q-30 0 -57 11l11 31q21 -9 46 -9q122 0 122 162v583h33v-583q0 -96 -42 -145.5t-113 -49.5z" />
    <glyph glyph-name="uni0136" unicode="&#x136;" horiz-adv-x="660" 
d="M133 0h-33v730h33v-432l419 432h46l-287 -296l319 -434h-42l-301 409l-154 -159v-250zM328 -185h-32l18 140h35z" />
    <glyph glyph-name="uni0137" unicode="&#x137;" horiz-adv-x="565" 
d="M123 0h-33v780h33v-543l326 313h48l-220 -212l258 -338h-42l-240 315l-130 -124v-191zM288 -185h-32l18 140h35z" />
    <glyph glyph-name="kgreenlandic" unicode="&#x138;" horiz-adv-x="565" 
d="M123 0h-33v550h33v-313l326 313h48l-220 -212l258 -338h-42l-240 315l-130 -124v-191z" />
    <glyph glyph-name="Lacute" unicode="&#x139;" horiz-adv-x="586" 
d="M308 816h-30l65 148h35zM556 0h-456v730h33v-697h423v-33z" />
    <glyph glyph-name="lacute" unicode="&#x13a;" horiz-adv-x="213" 
d="M120 851h-30l65 148h35zM123 0h-33v780h33v-780z" />
    <glyph glyph-name="uni013B" unicode="&#x13b;" horiz-adv-x="586" 
d="M556 0h-456v730h33v-697h423v-33zM323 -185h-32l18 140h35z" />
    <glyph glyph-name="uni013C" unicode="&#x13c;" horiz-adv-x="213" 
d="M123 0h-33v780h33v-780zM103 -185h-32l18 140h35z" />
    <glyph glyph-name="Lcaron" unicode="&#x13d;" horiz-adv-x="586" 
d="M556 0h-456v730h33v-697h423v-33zM289 532h-30l45 198h35z" />
    <glyph glyph-name="lcaron" unicode="&#x13e;" horiz-adv-x="234" 
d="M212 603h-31l-2 180h35zM123 0h-33v780h33v-780z" />
    <glyph glyph-name="Ldot" unicode="&#x13f;" horiz-adv-x="586" 
d="M556 0h-456v730h33v-697h423v-33zM316 367q-14 0 -23.5 9.5t-9.5 23.5t9.5 23.5t23.5 9.5q13 0 22.5 -10t9.5 -23t-9.5 -23t-22.5 -10z" />
    <glyph glyph-name="ldot" unicode="&#x140;" horiz-adv-x="248" 
d="M123 0h-33v780h33v-780zM196 367q-14 0 -23.5 9.5t-9.5 23.5t9.5 23.5t23.5 9.5q13 0 22.5 -10t9.5 -23t-9.5 -23t-22.5 -10z" />
    <glyph glyph-name="Lslash" unicode="&#x141;" horiz-adv-x="566" 
d="M536 0h-436v314l-60 -35v37l60 35v379h33v-360l235 136v-37l-235 -136v-299h403v-34z" />
    <glyph glyph-name="lslash" unicode="&#x142;" horiz-adv-x="213" 
d="M123 0h-33v354l-60 -35v37l60 35v389h33v-371l60 35v-37l-60 -35v-372z" />
    <glyph glyph-name="Nacute" unicode="&#x143;" horiz-adv-x="800" 
d="M388 816h-30l65 148h35zM133 0h-33v730h33l534 -676v676h33v-730h-33l-534 678v-678z" />
    <glyph glyph-name="nacute" unicode="&#x144;" 
d="M329 646h-30l65 148h35zM123 0h-33v550h33v-123q24 56 76.5 92t126.5 36q103 0 169.5 -72t66.5 -205v-278h-33v278q0 120 -57 182t-146 62t-146 -62t-57 -182v-278z" />
    <glyph glyph-name="uni0145" unicode="&#x145;" horiz-adv-x="800" 
d="M133 0h-33v730h33l534 -676v676h33v-730h-33l-534 678v-678zM397 -185h-32l18 140h35z" />
    <glyph glyph-name="uni0146" unicode="&#x146;" 
d="M123 0h-33v550h33v-123q24 56 76.5 92t126.5 36q103 0 169.5 -72t66.5 -205v-278h-33v278q0 120 -57 182t-146 62t-146 -62t-57 -182v-278zM332 -185h-32l18 140h35z" />
    <glyph glyph-name="Ncaron" unicode="&#x147;" horiz-adv-x="800" 
d="M412 830h-44l-108 120h44l86 -96l86 96h44zM133 0h-33v730h33l534 -676v676h33v-730h-33l-534 678v-678z" />
    <glyph glyph-name="ncaron" unicode="&#x148;" 
d="M348 660h-44l-108 120h44l86 -96l86 96h44zM123 0h-33v550h33v-123q24 56 76.5 92t126.5 36q103 0 169.5 -72t66.5 -205v-278h-33v278q0 120 -57 182t-146 62t-146 -62t-57 -182v-278z" />
    <glyph glyph-name="napostrophe" unicode="&#x149;" horiz-adv-x="674" 
d="M40 404h-30l45 198h35zM160 0h-33v550h33v-123q24 56 76.5 92t126.5 36q103 0 169.5 -72t66.5 -205v-278h-33v278q0 120 -57 182t-146 62t-146 -62t-57 -182v-278z" />
    <glyph glyph-name="Eng" unicode="&#x14a;" horiz-adv-x="800" 
d="M575 -118v37q71 0 87 87l-529 672v-678h-33v730l33 -2l534 -674v676h33v-675q-1 -86 -33.5 -129.5t-91.5 -43.5z" />
    <glyph glyph-name="eng" unicode="&#x14b;" 
d="M437 -118v37q92 0 92 143v216q0 120 -57 182t-146 62t-146 -62t-57 -182v-278h-33v550h33v-123q24 56 76.5 92t126.5 36q103 0 169.5 -72t66.5 -205v-225q-1 -85 -33.5 -128t-91.5 -43z" />
    <glyph glyph-name="Omacron" unicode="&#x14c;" horiz-adv-x="863" 
d="M607 874h-350v33h350v-33zM432 -8q-154 0 -263 109t-109 264q0 153 109 262t263 109t262.5 -109t108.5 -262q0 -155 -108.5 -264t-262.5 -109zM432 25q140 0 239 99t99 242q0 140 -99 238.5t-239 98.5t-239.5 -98.5t-99.5 -238.5q0 -143 99 -242t240 -99z" />
    <glyph glyph-name="omacron" unicode="&#x14d;" horiz-adv-x="661" 
d="M506 704h-350v33h350v-33zM331 -5q-117 0 -199 82.5t-82 198.5t82 198t199 82q116 0 198 -82t82 -198t-82 -198.5t-198 -82.5zM331 28q101 0 174 73t73 175t-73 174.5t-174 72.5q-103 0 -175.5 -72.5t-72.5 -174.5t72.5 -175t175.5 -73z" />
    <glyph glyph-name="Obreve" unicode="&#x14e;" horiz-adv-x="863" 
d="M432 816q-62 0 -107 43t-50 105h33q4 -48 39.5 -81.5t84.5 -33.5q48 0 83 33.5t39 81.5h33q-5 -62 -49.5 -105t-105.5 -43zM432 -8q-154 0 -263 109t-109 264q0 153 109 262t263 109t262.5 -109t108.5 -262q0 -155 -108.5 -264t-262.5 -109zM432 25q140 0 239 99t99 242
q0 140 -99 238.5t-239 98.5t-239.5 -98.5t-99.5 -238.5q0 -143 99 -242t240 -99z" />
    <glyph glyph-name="obreve" unicode="&#x14f;" horiz-adv-x="661" 
d="M326 646q-62 0 -107 43t-50 105h33q4 -48 39.5 -81.5t84.5 -33.5q48 0 83 33.5t39 81.5h33q-5 -62 -49.5 -105t-105.5 -43zM331 -5q-117 0 -199 82.5t-82 198.5t82 198t199 82q116 0 198 -82t82 -198t-82 -198.5t-198 -82.5zM331 28q101 0 174 73t73 175t-73 174.5
t-174 72.5q-103 0 -175.5 -72.5t-72.5 -174.5t72.5 -175t175.5 -73z" />
    <glyph glyph-name="Ohungarumlaut" unicode="&#x150;" horiz-adv-x="863" 
d="M340 794h-35l95 192h40zM514 794h-35l95 192h40zM432 -8q-154 0 -263 109t-109 264q0 153 109 262t263 109t262.5 -109t108.5 -262q0 -155 -108.5 -264t-262.5 -109zM432 25q140 0 239 99t99 242q0 140 -99 238.5t-239 98.5t-239.5 -98.5t-99.5 -238.5q0 -143 99 -242
t240 -99z" />
    <glyph glyph-name="ohungarumlaut" unicode="&#x151;" horiz-adv-x="661" 
d="M241 624h-35l95 192h40zM415 624h-35l95 192h40zM331 -5q-117 0 -199 82.5t-82 198.5t82 198t199 82q116 0 198 -82t82 -198t-82 -198.5t-198 -82.5zM331 28q101 0 174 73t73 175t-73 174.5t-174 72.5q-103 0 -175.5 -72.5t-72.5 -174.5t72.5 -175t175.5 -73z" />
    <glyph glyph-name="OE" unicode="&#x152;" horiz-adv-x="1010" 
d="M432 -8q-154 0 -263 109t-109 264q0 153 109 262t263 109q38 0 72 -6h436v-33h-403v-305h383v-33h-383v-326h413v-33h-441q-40 -8 -77 -8zM432 25q35 0 72 8v662q-37 8 -72 8q-140 0 -239.5 -98.5t-99.5 -238.5q0 -143 99 -242t240 -99z" />
    <glyph glyph-name="oe" unicode="&#x153;" horiz-adv-x="1180" 
d="M331 -5q-117 0 -199 82.5t-82 198.5t82 198t199 82q90 0 162 -51.5t102 -134.5q29 83 100 134.5t160 51.5q119 0 197 -81t78 -199q0 -11 -2 -31h-514q12 -92 84 -154.5t168 -62.5q61 0 115 27.5t88 74.5l29 -17q-39 -54 -100 -86t-132 -32q-93 0 -167 52.5t-104 135.5
q-29 -83 -101.5 -135.5t-162.5 -52.5zM331 28q101 0 174 73t73 175t-73 174.5t-174 72.5q-103 0 -175.5 -72.5t-72.5 -174.5t72.5 -175t175.5 -73zM612 278h485q-1 103 -69.5 174t-172.5 71q-100 0 -171 -72t-72 -173z" />
    <glyph glyph-name="Racute" unicode="&#x154;" horiz-adv-x="648" 
d="M293 816h-30l65 148h35zM133 0h-33v730h273q97 0 161.5 -63t64.5 -153q0 -85 -57 -146t-146 -69l212 -299h-43l-211 298h-221v-298zM133 697v-366h240q85 0 139 54t54 129q0 74 -54 128.5t-139 54.5h-240z" />
    <glyph glyph-name="racute" unicode="&#x155;" horiz-adv-x="375" 
d="M198 646h-30l65 148h35zM123 0h-33v549l33 1v-107q22 51 73.5 79.5t119.5 28.5q20 0 29 -1l-7 -33q-7 1 -23 1q-88 0 -140 -58t-52 -173v-287z" />
    <glyph glyph-name="uni0156" unicode="&#x156;" horiz-adv-x="648" 
d="M133 0h-33v730h273q97 0 161.5 -63t64.5 -153q0 -85 -57 -146t-146 -69l212 -299h-43l-211 298h-221v-298zM133 697v-366h240q85 0 139 54t54 129q0 74 -54 128.5t-139 54.5h-240zM272 -189h-30l65 148h35z" />
    <glyph glyph-name="uni0157" unicode="&#x157;" horiz-adv-x="375" 
d="M123 0h-33v549l33 1v-107q22 51 73.5 79.5t119.5 28.5q20 0 29 -1l-7 -33q-7 1 -23 1q-88 0 -140 -58t-52 -173v-287zM102 -185h-32l18 140h35z" />
    <glyph glyph-name="Rcaron" unicode="&#x158;" horiz-adv-x="648" 
d="M316 830h-44l-108 120h44l86 -96l86 96h44zM133 0h-33v730h273q97 0 161.5 -63t64.5 -153q0 -85 -57 -146t-146 -69l212 -299h-43l-211 298h-221v-298zM133 697v-366h240q85 0 139 54t54 129q0 74 -54 128.5t-139 54.5h-240z" />
    <glyph glyph-name="rcaron" unicode="&#x159;" horiz-adv-x="380" 
d="M242 660h-44l-108 120h44l86 -96l86 96h44zM128 0h-33v549l33 1v-107q22 51 73.5 79.5t119.5 28.5q20 0 29 -1l-7 -33q-7 1 -23 1q-88 0 -140 -58t-52 -173v-287z" />
    <glyph glyph-name="Sacute" unicode="&#x15a;" horiz-adv-x="610" 
d="M283 816h-30l65 148h35zM312 -6q-149 2 -257 110l23 23q99 -99 236 -100q91 -1 149.5 43t58.5 120q0 48 -25 82.5t-65 54t-88.5 35l-97 31t-88.5 36t-65 56.5t-25 87q0 71 60.5 119t168.5 48q63 0 129.5 -28t108.5 -88l-26 -20q-32 46 -89 74t-119 29q-91 1 -145.5 -37
t-54.5 -97q0 -44 25 -74.5t65 -48.5t88.5 -32.5t97 -31t88.5 -38.5t65 -62t25 -95q0 -92 -69 -144.5t-174 -51.5z" />
    <glyph glyph-name="sacute" unicode="&#x15b;" horiz-adv-x="560" 
d="M260 646h-30l65 148h35zM291 -5q-63 0 -128 23t-108 75l25 22q29 -38 87 -62.5t125 -24.5q79 0 129.5 34t50.5 91q0 40 -29.5 66t-73.5 36.5t-95 22.5t-95 24t-73.5 41.5t-29.5 74.5q0 60 54.5 98.5t144.5 38.5q124 0 210 -90l-24 -23q-76 80 -185 80q-72 0 -119.5 -27.5
t-47.5 -77.5q0 -31 22 -52t57 -32t77 -20t84 -20t77 -26.5t57 -44.5t22 -70q0 -76 -63.5 -116.5t-150.5 -40.5z" />
    <glyph glyph-name="Scircumflex" unicode="&#x15c;" horiz-adv-x="610" 
d="M207 830h-44l108 120h44l108 -120h-44l-86 96zM312 -6q-149 2 -257 110l23 23q99 -99 236 -100q91 -1 149.5 43t58.5 120q0 48 -25 82.5t-65 54t-88.5 35l-97 31t-88.5 36t-65 56.5t-25 87q0 71 60.5 119t168.5 48q63 0 129.5 -28t108.5 -88l-26 -20q-32 46 -89 74
t-119 29q-91 1 -145.5 -37t-54.5 -97q0 -44 25 -74.5t65 -48.5t88.5 -32.5t97 -31t88.5 -38.5t65 -62t25 -95q0 -92 -69 -144.5t-174 -51.5z" />
    <glyph glyph-name="scircumflex" unicode="&#x15d;" horiz-adv-x="560" 
d="M186 660h-44l108 120h44l108 -120h-44l-86 96zM291 -5q-63 0 -128 23t-108 75l25 22q29 -38 87 -62.5t125 -24.5q79 0 129.5 34t50.5 91q0 40 -29.5 66t-73.5 36.5t-95 22.5t-95 24t-73.5 41.5t-29.5 74.5q0 60 54.5 98.5t144.5 38.5q124 0 210 -90l-24 -23
q-76 80 -185 80q-72 0 -119.5 -27.5t-47.5 -77.5q0 -31 22 -52t57 -32t77 -20t84 -20t77 -26.5t57 -44.5t22 -70q0 -76 -63.5 -116.5t-150.5 -40.5z" />
    <glyph glyph-name="Scedilla" unicode="&#x15e;" horiz-adv-x="610" 
d="M303 -220q-54 0 -87 28l16 28q8 -8 29.5 -15.5t42.5 -7.5q29 0 46 14t17 36q0 52 -78 52h-35l27 81q-128 10 -226 108l23 23q99 -99 236 -100q91 -1 149.5 43t58.5 120q0 48 -25 82.5t-65 54t-88.5 35l-97 31t-88.5 36t-65 56.5t-25 87q0 71 60.5 119t168.5 48
q63 0 129.5 -28t108.5 -88l-26 -20q-32 46 -89 74t-119 29q-91 1 -145.5 -37t-54.5 -97q0 -44 25 -74.5t65 -48.5t88.5 -32.5t97 -31t88.5 -38.5t65 -62t25 -95q0 -91 -68 -143.5t-172 -52.5l-15 -46q48 -3 74 -26t26 -58q0 -36 -26 -60t-71 -24z" />
    <glyph glyph-name="scedilla" unicode="&#x15f;" horiz-adv-x="560" 
d="M275 -220q-54 0 -87 28l16 28q8 -8 29.5 -15.5t42.5 -7.5q29 0 46 14t17 36q0 52 -78 52h-35l27 82q-129 13 -198 96l25 22q29 -38 87 -62.5t125 -24.5q79 0 129.5 34t50.5 91q0 40 -29.5 66t-73.5 36.5t-95 22.5t-95 24t-73.5 41.5t-29.5 74.5q0 60 54.5 98.5
t144.5 38.5q124 0 210 -90l-24 -23q-76 80 -185 80q-72 0 -119.5 -27.5t-47.5 -77.5q0 -31 22 -52t57 -32t77 -20t84 -20t77 -26.5t57 -44.5t22 -70q0 -72 -60.5 -114.5t-157.5 -42.5l-15 -47q48 -3 74 -26t26 -58q0 -36 -26 -60t-71 -24z" />
    <glyph glyph-name="Scaron" unicode="&#x160;" horiz-adv-x="610" 
d="M315 830h-44l-108 120h44l86 -96l86 96h44zM312 -6q-149 2 -257 110l23 23q99 -99 236 -100q91 -1 149.5 43t58.5 120q0 48 -25 82.5t-65 54t-88.5 35l-97 31t-88.5 36t-65 56.5t-25 87q0 71 60.5 119t168.5 48q63 0 129.5 -28t108.5 -88l-26 -20q-32 46 -89 74t-119 29
q-91 1 -145.5 -37t-54.5 -97q0 -44 25 -74.5t65 -48.5t88.5 -32.5t97 -31t88.5 -38.5t65 -62t25 -95q0 -92 -69 -144.5t-174 -51.5z" />
    <glyph glyph-name="scaron" unicode="&#x161;" horiz-adv-x="560" 
d="M302 660h-44l-108 120h44l86 -96l86 96h44zM291 -5q-63 0 -128 23t-108 75l25 22q29 -38 87 -62.5t125 -24.5q79 0 129.5 34t50.5 91q0 40 -29.5 66t-73.5 36.5t-95 22.5t-95 24t-73.5 41.5t-29.5 74.5q0 60 54.5 98.5t144.5 38.5q124 0 210 -90l-24 -23q-76 80 -185 80
q-72 0 -119.5 -27.5t-47.5 -77.5q0 -31 22 -52t57 -32t77 -20t84 -20t77 -26.5t57 -44.5t22 -70q0 -76 -63.5 -116.5t-150.5 -40.5z" />
    <glyph glyph-name="uni0162" unicode="&#x162;" horiz-adv-x="594" 
d="M301 -220q-54 0 -87 28l16 28q8 -8 29.5 -15.5t42.5 -7.5q29 0 46 14t17 36q0 52 -78 52h-35l28 85h1v697h-251v33h534v-33h-250v-697h1l-17 -52q48 -3 74 -26t26 -58q0 -36 -26 -60t-71 -24z" />
    <glyph glyph-name="uni0163" unicode="&#x163;" horiz-adv-x="351" 
d="M190 -220q-54 0 -87 28l16 28q8 -8 29.5 -15.5t42.5 -7.5q29 0 46 14t17 36q0 52 -78 52h-35l34 104q-69 44 -69 147v351h-76v33h76v180h33v-180h141v-33h-141v-349q0 -67 31.5 -104.5t83.5 -37.5q26 0 47 9l10 -31q-33 -13 -57 -11q-23 1 -49 10l-18 -55q48 -3 74 -26
t26 -58q0 -36 -26 -60t-71 -24z" />
    <glyph glyph-name="Tcaron" unicode="&#x164;" horiz-adv-x="594" 
d="M319 830h-44l-108 120h44l86 -96l86 96h44zM314 0h-33v697h-251v33h534v-33h-250v-697z" />
    <glyph glyph-name="tcaron" unicode="&#x165;" horiz-adv-x="351" 
d="M231 615h-31l-2 180h35zM254 -7q-66 0 -107 46.5t-41 126.5v351h-76v33h76v180h33v-180h141v-33h-141v-349q0 -67 31.5 -104.5t83.5 -37.5q26 0 47 9l10 -31q-27 -11 -57 -11z" />
    <glyph glyph-name="Tbar" unicode="&#x166;" horiz-adv-x="594" 
d="M314 0h-33v339h-159v33h159v325h-251v33h534v-33h-250v-325h158v-33h-158v-339z" />
    <glyph glyph-name="tbar" unicode="&#x167;" horiz-adv-x="361" 
d="M254 -7q-66 0 -107 46.5t-41 126.5v125h-76v33h76v193h-76v33h76v180h33v-180h141v-33h-141v-193h102v-33h-102v-123q0 -67 31.5 -104.5t83.5 -37.5q26 0 47 9l10 -31q-27 -11 -57 -11z" />
    <glyph glyph-name="Utilde" unicode="&#x168;" horiz-adv-x="730" 
d="M428 836q-23 -2 -44 9.5t-34.5 27.5t-30.5 29t-32 12q-40 -2 -40 -70h-33q0 46 20 73.5t51 29.5q28 2 52 -18t45.5 -41t42.5 -20q36 2 36 70h33q0 -47 -18.5 -73t-47.5 -29zM366 -6q-120 0 -198 76t-78 209v451h33v-450q0 -122 67 -187.5t171 -65.5q106 0 176 65.5
t70 187.5v450h33v-451q0 -132 -78 -208.5t-196 -76.5z" />
    <glyph glyph-name="utilde" unicode="&#x169;" 
d="M385 666q-23 -2 -44 9.5t-34.5 27.5t-30.5 29t-32 12q-40 -2 -40 -70h-33q0 46 20 73.5t51 29.5q28 2 52 -18t45.5 -41t42.5 -20q36 2 36 70h33q0 -47 -18.5 -73t-47.5 -29zM311 -5q-103 0 -169.5 72t-66.5 205v278h33v-278q0 -120 57 -182t146 -62t146 62t57 182v278h33
v-550h-33v123q-24 -56 -76.5 -92t-126.5 -36z" />
    <glyph glyph-name="Umacron" unicode="&#x16a;" horiz-adv-x="730" 
d="M543 874h-350v33h350v-33zM366 -6q-120 0 -198 76t-78 209v451h33v-450q0 -122 67 -187.5t171 -65.5q106 0 176 65.5t70 187.5v450h33v-451q0 -132 -78 -208.5t-196 -76.5z" />
    <glyph glyph-name="umacron" unicode="&#x16b;" 
d="M484 704h-350v33h350v-33zM311 -5q-103 0 -169.5 72t-66.5 205v278h33v-278q0 -120 57 -182t146 -62t146 62t57 182v278h33v-550h-33v123q-24 -56 -76.5 -92t-126.5 -36z" />
    <glyph glyph-name="Ubreve" unicode="&#x16c;" horiz-adv-x="730" 
d="M363 816q-62 0 -107 43t-50 105h33q4 -48 39.5 -81.5t84.5 -33.5q48 0 83 33.5t39 81.5h33q-5 -62 -49.5 -105t-105.5 -43zM366 -6q-120 0 -198 76t-78 209v451h33v-450q0 -122 67 -187.5t171 -65.5q106 0 176 65.5t70 187.5v450h33v-451q0 -132 -78 -208.5t-196 -76.5z
" />
    <glyph glyph-name="ubreve" unicode="&#x16d;" 
d="M311 646q-62 0 -107 43t-50 105h33q4 -48 39.5 -81.5t84.5 -33.5q48 0 83 33.5t39 81.5h33q-5 -62 -49.5 -105t-105.5 -43zM311 -5q-103 0 -169.5 72t-66.5 205v278h33v-278q0 -120 57 -182t146 -62t146 62t57 182v278h33v-550h-33v123q-24 -56 -76.5 -92t-126.5 -36z
" />
    <glyph glyph-name="Uring" unicode="&#x16e;" horiz-adv-x="730" 
d="M368 784q-44 0 -75.5 31t-31.5 75t31.5 75.5t75.5 31.5t75.5 -31.5t31.5 -75.5t-31.5 -75t-75.5 -31zM368 816q31 0 52 21t21 53t-21 53.5t-52 21.5t-52 -21.5t-21 -53.5t21 -53t52 -21zM366 -6q-120 0 -198 76t-78 209v451h33v-450q0 -122 67 -187.5t171 -65.5
q106 0 176 65.5t70 187.5v450h33v-451q0 -132 -78 -208.5t-196 -76.5z" />
    <glyph glyph-name="uring" unicode="&#x16f;" 
d="M311 614q-44 0 -75.5 31t-31.5 75t31.5 75.5t75.5 31.5t75.5 -31.5t31.5 -75.5t-31.5 -75t-75.5 -31zM311 646q31 0 52 21t21 53t-21 53.5t-52 21.5t-52 -21.5t-21 -53.5t21 -53t52 -21zM311 -5q-103 0 -169.5 72t-66.5 205v278h33v-278q0 -120 57 -182t146 -62t146 62
t57 182v278h33v-550h-33v123q-24 -56 -76.5 -92t-126.5 -36z" />
    <glyph glyph-name="Uhungarumlaut" unicode="&#x170;" horiz-adv-x="730" 
d="M279 794h-35l95 192h40zM453 794h-35l95 192h40zM366 -6q-120 0 -198 76t-78 209v451h33v-450q0 -122 67 -187.5t171 -65.5q106 0 176 65.5t70 187.5v450h33v-451q0 -132 -78 -208.5t-196 -76.5z" />
    <glyph glyph-name="uhungarumlaut" unicode="&#x171;" 
d="M222 624h-35l95 192h40zM396 624h-35l95 192h40zM311 -5q-103 0 -169.5 72t-66.5 205v278h33v-278q0 -120 57 -182t146 -62t146 62t57 182v278h33v-550h-33v123q-24 -56 -76.5 -92t-126.5 -36z" />
    <glyph glyph-name="Uogonek" unicode="&#x172;" horiz-adv-x="730" 
d="M503 -176q-32 0 -54.5 24.5t-22.5 60.5q0 44 39 101q-48 -16 -99 -16q-120 0 -198 76t-78 209v451h33v-450q0 -122 67 -187.5t171 -65.5q106 0 176 65.5t70 187.5v450h33v-451q0 -160 -112 -237q-5 -8 -16.5 -24t-16 -22t-12 -18t-10.5 -18.5t-7 -16t-5.5 -17.5t-1.5 -16
q0 -22 12.5 -37.5t31.5 -15.5q35 0 57 32l19 -26q-29 -39 -76 -39z" />
    <glyph glyph-name="uogonek" unicode="&#x173;" 
d="M522 -218q-32 0 -54.5 24.5t-22.5 60.5q0 23 9.5 45t18 34t26.5 31t21 23h-6v123q-24 -56 -76.5 -92t-126.5 -36q-103 0 -169.5 72t-66.5 205v278h33v-278q0 -120 57 -182t146 -62t146 62t57 182v278h33v-550q-5 -8 -16.5 -24t-16 -22t-12 -18t-10.5 -18.5t-7 -16
t-5.5 -17.5t-1.5 -16q0 -22 12.5 -37.5t31.5 -15.5q35 0 57 32l19 -26q-28 -39 -76 -39z" />
    <glyph glyph-name="Wcircumflex" unicode="&#x174;" horiz-adv-x="1013" 
d="M421 830h-44l108 120h44l108 -120h-44l-86 96zM299 0h-35l-234 730h35l216 -674l208 674h35l208 -674l216 674h35l-234 -730h-35l-207 673z" />
    <glyph glyph-name="wcircumflex" unicode="&#x175;" horiz-adv-x="860" 
d="M344 660h-44l108 120h44l108 -120h-44l-86 96zM258 0h-35l-198 550h35l180 -500l173 500h34l173 -500l180 500h35l-198 -550h-35l-172 499z" />
    <glyph glyph-name="Ycircumflex" unicode="&#x176;" horiz-adv-x="640" 
d="M234 830h-44l108 120h44l108 -120h-44l-86 96zM336 0h-33v326l-283 404h41l259 -371l259 371h41l-284 -406v-324z" />
    <glyph glyph-name="ycircumflex" unicode="&#x177;" horiz-adv-x="560" 
d="M194 660h-44l108 120h44l108 -120h-44l-86 96zM111 -220q-44 0 -91 21l13 31q40 -19 78 -19q23 0 43 11t33 24t30.5 43.5t25.5 48.5t27 60l-234 550h36l216 -508l216 508h36l-234 -550q-54 -123 -92.5 -171.5t-102.5 -48.5z" />
    <glyph glyph-name="Ydieresis" unicode="&#x178;" horiz-adv-x="640" 
d="M228 857q-14 0 -23.5 9.5t-9.5 23.5t9.5 23.5t23.5 9.5q13 0 22.5 -10t9.5 -23t-9.5 -23t-22.5 -10zM413 857q-13 0 -23 9.5t-10 23.5t10 23.5t23 9.5t22.5 -10t9.5 -23t-9.5 -23t-22.5 -10zM336 0h-33v326l-283 404h41l259 -371l259 371h41l-284 -406v-324z" />
    <glyph glyph-name="Zacute" unicode="&#x179;" horiz-adv-x="641" 
d="M331 816h-30l65 148h35zM591 0h-541v33l489 664h-479v33h521v-33l-490 -664h500v-33z" />
    <glyph glyph-name="zacute" unicode="&#x17a;" horiz-adv-x="583" 
d="M272 646h-30l65 148h35zM523 0h-463v33l405 484h-405v33h449v-33l-406 -484h420v-33z" />
    <glyph glyph-name="Zdotaccent" unicode="&#x17b;" horiz-adv-x="641" 
d="M314 857q-14 0 -23.5 9.5t-9.5 23.5t9.5 23.5t23.5 9.5q13 0 22.5 -10t9.5 -23t-9.5 -23t-22.5 -10zM591 0h-541v33l489 664h-479v33h521v-33l-490 -664h500v-33z" />
    <glyph glyph-name="zdotaccent" unicode="&#x17c;" horiz-adv-x="583" 
d="M292 687q-14 0 -23.5 9.5t-9.5 23.5t9.5 23.5t23.5 9.5q13 0 22.5 -10t9.5 -23t-9.5 -23t-22.5 -10zM523 0h-463v33l405 484h-405v33h449v-33l-406 -484h420v-33z" />
    <glyph glyph-name="Zcaron" unicode="&#x17d;" horiz-adv-x="641" 
d="M333 830h-44l-108 120h44l86 -96l86 96h44zM591 0h-541v33l489 664h-479v33h521v-33l-490 -664h500v-33z" />
    <glyph glyph-name="zcaron" unicode="&#x17e;" horiz-adv-x="583" 
d="M314 660h-44l-108 120h44l86 -96l86 96h44zM523 0h-463v33l405 484h-405v33h449v-33l-406 -484h420v-33z" />
    <glyph glyph-name="longs" unicode="&#x17f;" horiz-adv-x="326" 
d="M123 580v-581l-33 1v580q0 211 158 211q20 0 48 -7l-10 -31q-23 5 -38 5q-60 0 -92.5 -39t-32.5 -139z" />
    <glyph glyph-name="uni018F" unicode="&#x18f;" horiz-adv-x="820" 
d="M410 -10q-152 0 -251 107.5t-99 267.5v17h667q-5 147 -97 236.5t-240 89.5q-74 0 -147.5 -28.5t-116.5 -76.5l-26 20q49 54 128.5 85.5t161.5 31.5q167 0 268.5 -104t101.5 -271q0 -160 -99 -267.5t-251 -107.5zM410 22q134 0 223 93t94 234h-634q5 -141 94 -234t223 -93
z" />
    <glyph glyph-name="florin" unicode="&#x192;" horiz-adv-x="399" 
d="M58 -10q-20 0 -48 7l10 31q22 -5 38 -5q60 0 92.5 39t32.5 139v317h-49v33h49v29q0 211 158 211q20 0 48 -7l-10 -31q-23 5 -38 5q-60 0 -92.5 -39t-32.5 -139v-29h161v-33h-161v-317q0 -211 -158 -211z" />
    <glyph glyph-name="uni019D" unicode="&#x19d;" horiz-adv-x="800" 
d="M8 -118v37q92 0 92 143v668h33l534 -676v676h33v-730h-33l-534 678v-627q-4 -169 -125 -169z" />
    <glyph glyph-name="Ohorn" unicode="&#x1a0;" horiz-adv-x="863" 
d="M432 -8q-154 0 -263 109t-109 264q0 153 109 262t263 109q152 0 261 -107q18 2 32.5 15t14.5 31v87h33v-88q0 -53 -57 -70q87 -105 87 -239q0 -155 -108.5 -264t-262.5 -109zM432 25q140 0 239 99t99 242q0 140 -99 238.5t-239 98.5t-239.5 -98.5t-99.5 -238.5
q0 -143 99 -242t240 -99z" />
    <glyph glyph-name="ohorn" unicode="&#x1a1;" horiz-adv-x="661" 
d="M331 -5q-117 0 -199 82.5t-82 198.5t82 198t199 82q116 0 198 -82q17 4 29.5 16t12.5 29v87h33v-88q0 -25 -15 -43t-38 -26q60 -74 60 -173q0 -116 -82 -198.5t-198 -82.5zM331 28q101 0 174 73t73 175t-73 174.5t-174 72.5q-103 0 -175.5 -72.5t-72.5 -174.5t72.5 -175
t175.5 -73z" />
    <glyph glyph-name="Uhorn" unicode="&#x1af;" horiz-adv-x="730" 
d="M366 -6q-120 0 -198 76t-78 209v451h33v-450q0 -122 67 -187.5t171 -65.5q106 0 176 65.5t70 187.5v450h20q33 0 33 37v62h33v-63q0 -62 -53 -68v-419q0 -132 -78 -208.5t-196 -76.5z" />
    <glyph glyph-name="uhorn" unicode="&#x1b0;" 
d="M311 -5q-103 0 -169.5 72t-66.5 205v278h33v-278q0 -120 57 -182t146 -62t146 62t57 182v278h31q26 6 26 32v87h33v-88q0 -48 -57 -57v-524h-33v123q-24 -56 -76.5 -92t-126.5 -36z" />
    <glyph glyph-name="uni01CD" unicode="&#x1cd;" horiz-adv-x="680" 
d="M363 830h-44l-108 120h44l86 -96l86 96h44zM66 0h-36l291 730h38l291 -730h-35l-101 252h-348zM340 687l-160 -402h321z" />
    <glyph glyph-name="uni01CE" unicode="&#x1ce;" horiz-adv-x="701" 
d="M353 660h-44l-108 120h44l86 -96l86 96h44zM330 -6q-116 0 -198 82t-82 198t82 198.5t198 82.5q82 0 151.5 -45t96.5 -113v153h33v-550h-33v149q-27 -66 -96.5 -110.5t-151.5 -44.5zM330 27q103 0 175.5 72.5t72.5 174.5t-72.5 175t-175.5 73q-101 0 -174 -73t-73 -175
t73 -174.5t174 -72.5z" />
    <glyph glyph-name="uni01CF" unicode="&#x1cf;" horiz-adv-x="233" 
d="M138 830h-44l-108 120h44l86 -96l86 96h44zM133 0h-33v730h33v-730z" />
    <glyph glyph-name="uni01D0" unicode="&#x1d0;" horiz-adv-x="213" 
d="M129 660h-44l-108 120h44l86 -96l86 96h44zM123 0h-33v550h33v-550z" />
    <glyph glyph-name="uni01D1" unicode="&#x1d1;" horiz-adv-x="863" 
d="M441 830h-44l-108 120h44l86 -96l86 96h44zM432 -8q-154 0 -263 109t-109 264q0 153 109 262t263 109t262.5 -109t108.5 -262q0 -155 -108.5 -264t-262.5 -109zM432 25q140 0 239 99t99 242q0 140 -99 238.5t-239 98.5t-239.5 -98.5t-99.5 -238.5q0 -143 99 -242t240 -99
z" />
    <glyph glyph-name="uni01D2" unicode="&#x1d2;" horiz-adv-x="661" 
d="M353 660h-44l-108 120h44l86 -96l86 96h44zM331 -5q-117 0 -199 82.5t-82 198.5t82 198t199 82q116 0 198 -82t82 -198t-82 -198.5t-198 -82.5zM331 28q101 0 174 73t73 175t-73 174.5t-174 72.5q-103 0 -175.5 -72.5t-72.5 -174.5t72.5 -175t175.5 -73z" />
    <glyph glyph-name="uni01D3" unicode="&#x1d3;" horiz-adv-x="730" 
d="M387 830h-44l-108 120h44l86 -96l86 96h44zM366 -6q-120 0 -198 76t-78 209v451h33v-450q0 -122 67 -187.5t171 -65.5q106 0 176 65.5t70 187.5v450h33v-451q0 -132 -78 -208.5t-196 -76.5z" />
    <glyph glyph-name="uni01D4" unicode="&#x1d4;" 
d="M333 660h-44l-108 120h44l86 -96l86 96h44zM311 -5q-103 0 -169.5 72t-66.5 205v278h33v-278q0 -120 57 -182t146 -62t146 62t57 182v278h33v-550h-33v123q-24 -56 -76.5 -92t-126.5 -36z" />
    <glyph glyph-name="uni01D5" unicode="&#x1d5;" horiz-adv-x="730" 
d="M540 981h-350v33h350v-33zM270 835q-14 0 -23.5 9.5t-9.5 23.5t9.5 23.5t23.5 9.5q13 0 22.5 -10t9.5 -23t-9.5 -23t-22.5 -10zM455 835q-13 0 -23 9.5t-10 23.5t10 23.5t23 9.5t22.5 -10t9.5 -23t-9.5 -23t-22.5 -10zM366 -6q-120 0 -198 76t-78 209v451h33v-450
q0 -122 67 -187.5t171 -65.5q106 0 176 65.5t70 187.5v450h33v-451q0 -132 -78 -208.5t-196 -76.5z" />
    <glyph glyph-name="uni01D6" unicode="&#x1d6;" 
d="M486 817h-350v33h350v-33zM216 671q-14 0 -23.5 9.5t-9.5 23.5t9.5 23.5t23.5 9.5q13 0 22.5 -10t9.5 -23t-9.5 -23t-22.5 -10zM401 671q-13 0 -23 9.5t-10 23.5t10 23.5t23 9.5t22.5 -10t9.5 -23t-9.5 -23t-22.5 -10zM311 -5q-103 0 -169.5 72t-66.5 205v278h33v-278
q0 -120 57 -182t146 -62t146 62t57 182v278h33v-550h-33v123q-24 -56 -76.5 -92t-126.5 -36z" />
    <glyph glyph-name="uni01D7" unicode="&#x1d7;" horiz-adv-x="730" 
d="M384 911h-30l65 148h35zM273 790q-13 0 -23 10t-10 23t10 23t23 10t22.5 -10t9.5 -23t-9.5 -23t-22.5 -10zM458 790q-14 0 -23.5 10t-9.5 23t9.5 23t23.5 10q13 0 22.5 -10t9.5 -23t-9.5 -23t-22.5 -10zM366 -6q-120 0 -198 76t-78 209v451h33v-450q0 -122 67 -187.5
t171 -65.5q106 0 176 65.5t70 187.5v450h33v-451q0 -132 -78 -208.5t-196 -76.5z" />
    <glyph glyph-name="uni01D8" unicode="&#x1d8;" 
d="M330 747h-30l65 148h35zM219 626q-13 0 -23 10t-10 23t10 23t23 10t22.5 -10t9.5 -23t-9.5 -23t-22.5 -10zM404 626q-14 0 -23.5 10t-9.5 23t9.5 23t23.5 10q13 0 22.5 -10t9.5 -23t-9.5 -23t-22.5 -10zM311 -5q-103 0 -169.5 72t-66.5 205v278h33v-278q0 -120 57 -182
t146 -62t146 62t57 182v278h33v-550h-33v123q-24 -56 -76.5 -92t-126.5 -36z" />
    <glyph glyph-name="uni01D9" unicode="&#x1d9;" horiz-adv-x="730" 
d="M376 922h-44l-108 120h44l86 -96l86 96h44zM267 809q-13 0 -23 9.5t-10 23.5t10 23.5t23 9.5t22.5 -10t9.5 -23t-9.5 -23t-22.5 -10zM452 809q-14 0 -23.5 9.5t-9.5 23.5t9.5 23.5t23.5 9.5q13 0 22.5 -10t9.5 -23t-9.5 -23t-22.5 -10zM366 -6q-120 0 -198 76t-78 209
v451h33v-450q0 -122 67 -187.5t171 -65.5q106 0 176 65.5t70 187.5v450h33v-451q0 -132 -78 -208.5t-196 -76.5z" />
    <glyph glyph-name="uni01DA" unicode="&#x1da;" 
d="M333 757h-44l-108 120h44l86 -96l86 96h44zM224 644q-14 0 -23.5 10t-9.5 23t9.5 23t23.5 10q13 0 22.5 -10t9.5 -23t-9.5 -23t-22.5 -10zM409 644q-13 0 -23 10t-10 23t10 23t23 10t22.5 -10t9.5 -23t-9.5 -23t-22.5 -10zM311 -5q-103 0 -169.5 72t-66.5 205v278h33
v-278q0 -120 57 -182t146 -62t146 62t57 182v278h33v-550h-33v123q-24 -56 -76.5 -92t-126.5 -36z" />
    <glyph glyph-name="uni01DB" unicode="&#x1db;" horiz-adv-x="730" 
d="M372 911h-30l-70 148h35zM261 790q-13 0 -23 10t-10 23t10 23t23 10t22.5 -10t9.5 -23t-9.5 -23t-22.5 -10zM446 790q-14 0 -23.5 10t-9.5 23t9.5 23t23.5 10q13 0 22.5 -10t9.5 -23t-9.5 -23t-22.5 -10zM366 -6q-120 0 -198 76t-78 209v451h33v-450q0 -122 67 -187.5
t171 -65.5q106 0 176 65.5t70 187.5v450h33v-451q0 -132 -78 -208.5t-196 -76.5z" />
    <glyph glyph-name="uni01DC" unicode="&#x1dc;" 
d="M330 747h-30l-70 148h35zM219 626q-13 0 -23 10t-10 23t10 23t23 10t22.5 -10t9.5 -23t-9.5 -23t-22.5 -10zM404 626q-14 0 -23.5 10t-9.5 23t9.5 23t23.5 10q13 0 22.5 -10t9.5 -23t-9.5 -23t-22.5 -10zM311 -5q-103 0 -169.5 72t-66.5 205v278h33v-278q0 -120 57 -182
t146 -62t146 62t57 182v278h33v-550h-33v123q-24 -56 -76.5 -92t-126.5 -36z" />
    <glyph glyph-name="uni01DE" unicode="&#x1de;" horiz-adv-x="680" 
d="M514 982h-350v33h350v-33zM244 836q-14 0 -23.5 10t-9.5 23t9.5 23t23.5 10q13 0 22.5 -10t9.5 -23t-9.5 -23t-22.5 -10zM429 836q-13 0 -23 10t-10 23t10 23t23 10t22.5 -10t9.5 -23t-9.5 -23t-22.5 -10zM66 0h-36l291 730h38l291 -730h-35l-101 252h-348zM340 687
l-160 -402h321z" />
    <glyph glyph-name="uni01DF" unicode="&#x1df;" horiz-adv-x="701" 
d="M519 817h-350v33h350v-33zM249 671q-13 0 -23 9.5t-10 23.5t10 23.5t23 9.5t22.5 -10t9.5 -23t-9.5 -23t-22.5 -10zM434 671q-14 0 -23.5 9.5t-9.5 23.5t9.5 23.5t23.5 9.5q13 0 22.5 -10t9.5 -23t-9.5 -23t-22.5 -10zM330 -6q-116 0 -198 82t-82 198t82 198.5t198 82.5
q82 0 151.5 -45t96.5 -113v153h33v-550h-33v149q-27 -66 -96.5 -110.5t-151.5 -44.5zM330 27q103 0 175.5 72.5t72.5 174.5t-72.5 175t-175.5 73q-101 0 -174 -73t-73 -175t73 -174.5t174 -72.5z" />
    <glyph glyph-name="uni01E2" unicode="&#x1e2;" horiz-adv-x="951" 
d="M641 874h-350v33h350v-33zM901 -1h-436v273h-287l-109 -272h-39l296 730h575v-34h-403v-300h383v-34h-383v-330h403v-33zM348 696l-157 -391h274v391h-117z" />
    <glyph glyph-name="uni01E3" unicode="&#x1e3;" horiz-adv-x="1060" 
d="M708 704h-350v33h350v-33zM261 -10q-90 0 -150.5 47.5t-60.5 123.5q0 77 60.5 122.5t166.5 45.5h215q0 90 -54 143.5t-147 53.5q-126 0 -196 -73l-25 22q82 84 224 84q84 0 145 -44.5t80 -118.5q33 76 102.5 119.5t151.5 43.5q99 0 170.5 -67t71.5 -169q0 -18 -1 -28
h-487q1 -126 68 -199t172 -73q59 0 111 27.5t87 76.5l28 -18q-40 -56 -99 -87.5t-126 -31.5q-91 0 -160 50t-97 132q-24 -87 -91 -134.5t-159 -47.5zM530 328h452q-2 86 -64 142t-145 56q-96 0 -163 -60t-80 -138zM262 23q111 0 170.5 69.5t59.5 172.5v31h-221
q-86 0 -137 -36.5t-51 -97.5q0 -62 50.5 -100.5t128.5 -38.5z" />
    <glyph glyph-name="Gcaron" unicode="&#x1e6;" horiz-adv-x="853" 
d="M436 830h-44l-108 120h44l86 -96l86 96h44zM432 -8q-154 0 -263 109t-109 264q0 153 109 262t263 109q88 0 165 -39t129 -106l-27 -18q-47 60 -117 95t-150 35q-140 0 -239.5 -98.5t-99.5 -238.5q0 -143 99 -242t240 -99q145 0 235.5 93.5t92.5 242.5h-345v33h377
q1 -9 1 -29q0 -163 -100.5 -268t-260.5 -105z" />
    <glyph glyph-name="gcaron" unicode="&#x1e7;" horiz-adv-x="701" 
d="M345 660h-44l-108 120h44l86 -96l86 96h44zM320 -224q-70 0 -130.5 29t-99.5 79l26 20q34 -44 88.5 -69.5t115.5 -25.5q115 0 186.5 68t71.5 208v64q-27 -66 -96.5 -110.5t-151.5 -44.5q-116 0 -198 82t-82 198t82 198.5t198 82.5q82 0 151.5 -45t96.5 -113v153h33v-465
q0 -153 -81.5 -231t-209.5 -78zM330 27q103 0 175.5 72.5t72.5 174.5t-72.5 175t-175.5 73q-101 0 -174 -73t-73 -175t73 -174.5t174 -72.5z" />
    <glyph glyph-name="uni01EA" unicode="&#x1ea;" horiz-adv-x="863" 
d="M545 -187q-32 0 -54.5 24.5t-22.5 60.5q0 44 40 102q-40 -8 -76 -8q-154 0 -263 109t-109 264q0 153 109 262t263 109t262.5 -109t108.5 -262q0 -120 -68 -215.5t-177 -135.5q-23 -32 -32 -45.5t-17 -33t-8 -36.5q0 -22 12.5 -37.5t31.5 -15.5q35 0 57 32l19 -26
q-29 -39 -76 -39zM432 25q140 0 239 99t99 242q0 140 -99 238.5t-239 98.5t-239.5 -98.5t-99.5 -238.5q0 -143 99 -242t240 -99z" />
    <glyph glyph-name="uni01EB" unicode="&#x1eb;" horiz-adv-x="661" 
d="M394 -193q-32 0 -54.5 24.5t-22.5 60.5q0 46 42 104q-9 -1 -28 -1q-117 0 -199 82.5t-82 198.5t82 198t199 82q116 0 198 -82t82 -198q0 -96 -58 -171t-148 -100q-22 -31 -30.5 -44.5t-16.5 -32t-8 -35.5q0 -22 12.5 -37.5t31.5 -15.5q35 0 57 32l19 -26q-29 -39 -76 -39
zM331 28q101 0 174 73t73 175t-73 174.5t-174 72.5q-103 0 -175.5 -72.5t-72.5 -174.5t72.5 -175t175.5 -73z" />
    <glyph glyph-name="Aringacute" unicode="&#x1fa;" horiz-adv-x="680" 
d="M382 963h-30l65 148h35zM340 740q-44 0 -75.5 31t-31.5 75t31.5 75.5t75.5 31.5t75.5 -31.5t31.5 -75.5t-31.5 -75t-75.5 -31zM340 772q31 0 52 21t21 53t-21 53.5t-52 21.5t-52 -21.5t-21 -53.5t21 -53t52 -21zM66 0h-36l291 730h38l291 -730h-35l-101 252h-348z
M340 687l-160 -402h321z" />
    <glyph glyph-name="aringacute" unicode="&#x1fb;" horiz-adv-x="701" 
d="M375 828h-30l65 148h35zM333 605q-44 0 -75.5 31t-31.5 75t31.5 75.5t75.5 31.5t75.5 -31.5t31.5 -75.5t-31.5 -75t-75.5 -31zM333 637q31 0 52 21t21 53t-21 53.5t-52 21.5t-52 -21.5t-21 -53.5t21 -53t52 -21zM330 -6q-116 0 -198 82t-82 198t82.5 198.5t197.5 82.5
q82 0 151.5 -45t96.5 -113v153h33v-550h-33v149q-27 -66 -96.5 -110.5t-151.5 -44.5zM330 27q103 0 175.5 72.5t72.5 174.5t-72.5 175t-175.5 73q-101 0 -174 -73t-73 -175t73 -174.5t174 -72.5z" />
    <glyph glyph-name="AEacute" unicode="&#x1fc;" horiz-adv-x="951" 
d="M471 816h-30l65 148h35zM901 -1h-436v273h-287l-109 -272h-39l296 730h575v-34h-403v-300h383v-34h-383v-330h403v-33zM348 696l-157 -391h274v391h-117z" />
    <glyph glyph-name="aeacute" unicode="&#x1fd;" horiz-adv-x="1060" 
d="M510 646h-30l65 148h35zM261 -10q-90 0 -150.5 47.5t-60.5 123.5q0 77 60.5 122.5t166.5 45.5h215q0 90 -54 143.5t-147 53.5q-126 0 -196 -73l-25 22q82 84 224 84q84 0 145 -44.5t80 -118.5q33 76 102.5 119.5t151.5 43.5q99 0 170.5 -67t71.5 -169q0 -18 -1 -28h-487
q1 -126 68 -199t172 -73q59 0 111 27.5t87 76.5l28 -18q-40 -56 -99 -87.5t-126 -31.5q-91 0 -160 50t-97 132q-24 -87 -91 -134.5t-159 -47.5zM530 328h452q-2 86 -64 142t-145 56q-96 0 -163 -60t-80 -138zM262 23q111 0 170.5 69.5t59.5 172.5v31h-221q-86 0 -137 -36.5
t-51 -97.5q0 -62 50.5 -100.5t128.5 -38.5z" />
    <glyph glyph-name="Oslashacute" unicode="&#x1fe;" horiz-adv-x="863" 
d="M407 816h-30l65 148h35zM432 -7q-145 0 -251 98l-74 -74l-24 23l74 74q-97 108 -97 252q0 153 109 262t263 109q145 0 251 -98l74 74l23 -23l-74 -74q97 -107 97 -250q0 -155 -108.5 -264t-262.5 -109zM180 137l480 479q-96 88 -228 88q-141 0 -240 -98.5t-99 -238.5
q0 -133 87 -230zM432 26q141 0 239.5 99t98.5 242q0 129 -87 226l-479 -479q96 -88 228 -88z" />
    <glyph glyph-name="oslashacute" unicode="&#x1ff;" horiz-adv-x="669" 
d="M335 646h-30l65 148h35zM334 0q-108 0 -189 71l-61 -61l-23 23l61 61q-72 82 -72 191q0 118 82.5 201t201.5 83q108 0 191 -73l62 62l21 -23l-61 -61q72 -82 72 -189q0 -118 -83.5 -201.5t-201.5 -83.5zM332 536q-105 0 -177 -73t-72 -177q0 -97 62 -169l356 355
q-72 64 -169 64zM332 33q105 0 179.5 74t74.5 179q0 93 -63 164l-355 -356q69 -61 164 -61z" />
    <glyph glyph-name="uni0218" unicode="&#x218;" horiz-adv-x="610" 
d="M312 -6q-149 2 -257 110l23 23q99 -99 236 -100q91 -1 149.5 43t58.5 120q0 48 -25 82.5t-65 54t-88.5 35l-97 31t-88.5 36t-65 56.5t-25 87q0 71 60.5 119t168.5 48q63 0 129.5 -28t108.5 -88l-26 -20q-32 46 -89 74t-119 29q-91 1 -145.5 -37t-54.5 -97q0 -44 25 -74.5
t65 -48.5t88.5 -32.5t97 -31t88.5 -38.5t65 -62t25 -95q0 -92 -69 -144.5t-174 -51.5zM311 -185h-32l18 140h35z" />
    <glyph glyph-name="uni0219" unicode="&#x219;" horiz-adv-x="560" 
d="M291 -5q-63 0 -128 23t-108 75l25 22q29 -38 87 -62.5t125 -24.5q79 0 129.5 34t50.5 91q0 40 -29.5 66t-73.5 36.5t-95 22.5t-95 24t-73.5 41.5t-29.5 74.5q0 60 54.5 98.5t144.5 38.5q124 0 210 -90l-24 -23q-76 80 -185 80q-72 0 -119.5 -27.5t-47.5 -77.5
q0 -31 22 -52t57 -32t77 -20t84 -20t77 -26.5t57 -44.5t22 -70q0 -76 -63.5 -116.5t-150.5 -40.5zM286 -185h-32l18 140h35z" />
    <glyph glyph-name="uni021A" unicode="&#x21a;" horiz-adv-x="594" 
d="M314 0h-33v697h-251v33h534v-33h-250v-697zM303 -185h-32l18 140h35z" />
    <glyph glyph-name="uni021B" unicode="&#x21b;" horiz-adv-x="351" 
d="M254 -7q-66 0 -107 46.5t-41 126.5v351h-76v33h76v180h33v-180h141v-33h-141v-349q0 -67 31.5 -104.5t83.5 -37.5q26 0 47 9l10 -31q-27 -11 -57 -11zM176 -185h-32l18 140h35z" />
    <glyph glyph-name="uni0228" unicode="&#x228;" horiz-adv-x="606" 
d="M291 -220q-54 0 -87 28l16 28q8 -8 29.5 -15.5t42.5 -7.5q29 0 46 14t17 36q0 52 -78 52h-35l28 85h-170v730h436v-33h-403v-305h383v-33h-383v-326h413v-33h-241l-17 -52q48 -3 74 -26t26 -58q0 -36 -26 -60t-71 -24z" />
    <glyph glyph-name="uni0229" unicode="&#x229;" horiz-adv-x="651" 
d="M321 -220q-54 0 -87 28l16 28q8 -8 29.5 -15.5t42.5 -7.5q29 0 46 14t17 36q0 52 -78 52h-35l27 82q-106 14 -177.5 93.5t-71.5 185.5q0 116 80.5 198t195.5 82q119 0 197 -81t78 -199q0 -11 -2 -31h-514q12 -92 84 -154.5t168 -62.5q61 0 115 27.5t88 74.5l29 -17
q-41 -56 -102.5 -87t-133.5 -31l-15 -47q48 -3 74 -26t26 -58q0 -36 -26 -60t-71 -24zM83 278h485q-1 103 -69.5 174t-172.5 71q-100 0 -171 -72t-72 -173z" />
    <glyph glyph-name="uni022A" unicode="&#x22a;" horiz-adv-x="863" 
d="M591 982h-350v33h350v-33zM321 836q-13 0 -23 10t-10 23t10 23t23 10t22.5 -10t9.5 -23t-9.5 -23t-22.5 -10zM506 836q-14 0 -23.5 10t-9.5 23t9.5 23t23.5 10q13 0 22.5 -10t9.5 -23t-9.5 -23t-22.5 -10zM432 -8q-154 0 -263 109t-109 264q0 153 109 262t263 109
t262.5 -109t108.5 -262q0 -155 -108.5 -264t-262.5 -109zM432 25q140 0 239 99t99 242q0 140 -99 238.5t-239 98.5t-239.5 -98.5t-99.5 -238.5q0 -143 99 -242t240 -99z" />
    <glyph glyph-name="uni022B" unicode="&#x22b;" horiz-adv-x="661" 
d="M506 817h-350v33h350v-33zM236 671q-14 0 -23.5 9.5t-9.5 23.5t9.5 23.5t23.5 9.5q13 0 22.5 -10t9.5 -23t-9.5 -23t-22.5 -10zM421 671q-13 0 -23 9.5t-10 23.5t10 23.5t23 9.5t22.5 -10t9.5 -23t-9.5 -23t-22.5 -10zM331 -5q-117 0 -199 82.5t-82 198.5t82 198t199 82
q116 0 198 -82t82 -198t-82 -198.5t-198 -82.5zM331 28q101 0 174 73t73 175t-73 174.5t-174 72.5q-103 0 -175.5 -72.5t-72.5 -174.5t72.5 -175t175.5 -73z" />
    <glyph glyph-name="uni0232" unicode="&#x232;" horiz-adv-x="640" 
d="M482 874h-350v33h350v-33zM336 0h-33v326l-283 404h41l259 -371l259 371h41l-284 -406v-324z" />
    <glyph glyph-name="uni0233" unicode="&#x233;" horiz-adv-x="560" 
d="M455 704h-350v33h350v-33zM111 -220q-44 0 -91 21l13 31q40 -19 78 -19q23 0 43 11t33 24t30.5 43.5t25.5 48.5t27 60l-234 550h36l216 -508l216 508h36l-234 -550q-54 -123 -92.5 -171.5t-102.5 -48.5z" />
    <glyph glyph-name="uni0237" unicode="&#x237;" horiz-adv-x="222" 
d="M-13 -228q-30 0 -57 11l11 31q21 -9 46 -9q122 0 122 162v583h33v-583q0 -96 -42 -145.5t-113 -49.5z" />
    <glyph glyph-name="uni0259" unicode="&#x259;" horiz-adv-x="651" 
d="M325 -5q-119 0 -197 81t-78 199q0 11 2 31h514q-12 92 -84 154.5t-168 62.5q-61 0 -115 -27.5t-88 -74.5l-29 17q39 54 100 86t132 32q119 0 203 -82.5t84 -198.5t-80.5 -198t-195.5 -82zM325 28q100 0 171 72t72 173h-485q1 -103 69.5 -174t172.5 -71z" />
    <glyph glyph-name="uni0272" unicode="&#x272;" horiz-adv-x="639" 
d="M0 -118v37q92 0 92 143v488h33v-123q24 56 76.5 92t126.5 36q103 0 169.5 -72t66.5 -205v-278h-33v278q0 120 -57 182t-146 62t-146 -62t-57 -182v-216q0 -89 -32.5 -134.5t-92.5 -45.5z" />
    <glyph glyph-name="circumflex" unicode="&#x2c6;" horiz-adv-x="300" 
d="M64 610h-44l108 120h44l108 -120h-44l-86 96z" />
    <glyph glyph-name="caron" unicode="&#x2c7;" horiz-adv-x="300" 
d="M172 610h-44l-108 120h44l86 -96l86 96h44z" />
    <glyph glyph-name="breve" unicode="&#x2d8;" horiz-adv-x="352" 
d="M177 632q-62 0 -107 43t-50 105h33q4 -48 39.5 -81.5t84.5 -33.5q48 0 83 33.5t39 81.5h33q-5 -62 -49.5 -105t-105.5 -43z" />
    <glyph glyph-name="dotaccent" unicode="&#x2d9;" horiz-adv-x="105" 
d="M53 612q-13 0 -23 10t-10 23t10 23t23 10t22.5 -10t9.5 -23t-9.5 -23t-22.5 -10z" />
    <glyph glyph-name="ring" unicode="&#x2da;" horiz-adv-x="254" 
d="M127 567q-44 0 -75.5 31t-31.5 75t31.5 75.5t75.5 31.5t75.5 -31.5t31.5 -75.5t-31.5 -75t-75.5 -31zM127 599q31 0 52 21t21 53t-21 53.5t-52 21.5t-52 -21.5t-21 -53.5t21 -53t52 -21z" />
    <glyph glyph-name="ogonek" unicode="&#x2db;" horiz-adv-x="193" 
d="M97 -218q-32 0 -54.5 24.5t-22.5 60.5q0 13 3 26.5t7 23.5t12 23.5t12.5 20.5t14.5 21t13 18h40q-5 -8 -16.5 -24t-16 -22t-12 -18t-10.5 -18.5t-7 -16t-5.5 -17.5t-1.5 -16q0 -22 12.5 -37.5t31.5 -15.5q35 0 57 32l19 -26q-29 -39 -76 -39z" />
    <glyph glyph-name="tilde" unicode="&#x2dc;" horiz-adv-x="320" 
d="M234 628q-23 -3 -44 9t-34.5 28t-30.5 29t-32 12q-40 -2 -40 -70h-33q0 46 20.5 73.5t50.5 29.5q23 2 43 -10.5t32.5 -28t30 -28.5t34.5 -12q36 2 36 70h33q0 -47 -18.5 -73.5t-47.5 -28.5z" />
    <glyph glyph-name="hungarumlaut" unicode="&#x2dd;" horiz-adv-x="429" 
d="M95 588h-35l95 192h40zM269 588h-35l95 192h40z" />
    <glyph glyph-name="hookabovecomb" unicode="&#x309;" horiz-adv-x="0" 
d="M-171 666v33q78 0 78 52q0 22 -17 36t-46 14q-21 0 -42.5 -7.5t-29.5 -15.5l-16 28q33 28 87 28q45 0 71 -24t26 -60q0 -37 -29 -60.5t-82 -23.5z" />
    <glyph glyph-name="uni031B" unicode="&#x31b;" horiz-adv-x="0" 
d="M-149 599v29q21 0 38.5 13.5t17.5 33.5v87h33v-88q0 -35 -27 -55t-62 -20z" />
    <glyph glyph-name="uni0326" unicode="&#x326;" horiz-adv-x="0" 
d="M-81 -177h-32l18 140h35z" />
    <glyph glyph-name="uni0394" unicode="&#x394;" horiz-adv-x="742" 
d="M712 0h-682v33l325 697h32l325 -697v-33zM371 686l-305 -653h610z" />
    <glyph glyph-name="uni03A9" unicode="&#x3a9;" horiz-adv-x="863" 
d="M347 0h-280v33h191q-90 47 -144 136t-54 197q0 153 109 262t263 109t262.5 -109t108.5 -262q0 -108 -54.5 -197t-144.5 -136h191v-33h-280v33q111 28 183 121t72 213q0 140 -99 238.5t-239 98.5q-141 0 -240 -98.5t-99 -238.5q0 -120 71.5 -213t182.5 -121v-33z" />
    <glyph glyph-name="uni03BC" unicode="&#x3bc;" horiz-adv-x="657" 
d="M123 -220h-33v770h33v-282q0 -123 55.5 -186t149.5 -63q90 0 148.5 64t58.5 185v282h32v-550h-32v113q-61 -127 -209 -127q-143 0 -203 122v-328z" />
    <glyph glyph-name="uni1E04" unicode="&#x1e04;" horiz-adv-x="657" 
d="M385 0h-285v730h249q98 0 153 -53t55 -132q0 -55 -28.5 -95.5t-78.5 -61.5q71 -15 114 -65.5t43 -122.5q0 -86 -61 -143t-161 -57zM133 697v-299h216q77 0 126 41.5t49 104.5q0 65 -45 109t-130 44h-216zM133 365v-332h251q86 0 138 47t52 120q0 71 -51.5 118t-127.5 47
h-262zM322 -133q-14 0 -23.5 9.5t-9.5 23.5t9.5 23.5t23.5 9.5q13 0 22.5 -10t9.5 -23t-9.5 -23t-22.5 -10z" />
    <glyph glyph-name="uni1E05" unicode="&#x1e05;" horiz-adv-x="701" 
d="M371 -6q-82 0 -151.5 44.5t-96.5 110.5v-149h-33v780h33v-383q27 68 96.5 113t151.5 45q116 0 198 -82.5t82 -198.5t-82 -198t-198 -82zM371 27q101 0 174 72.5t73 174.5t-73 175t-174 73q-103 0 -175.5 -73t-72.5 -175t72.5 -174.5t175.5 -72.5zM379 -133q-13 0 -23 9.5
t-10 23.5t10 23.5t23 9.5t22.5 -10t9.5 -23t-9.5 -23t-22.5 -10z" />
    <glyph glyph-name="uni1E0C" unicode="&#x1e0c;" horiz-adv-x="750" 
d="M307 0h-207v730h207q167 0 275 -105.5t108 -258.5q0 -156 -105 -261t-278 -105zM133 697v-664h174q161 0 255.5 96.5t94.5 238.5q0 135 -98 232t-252 97h-174zM321 -133q-13 0 -23 9.5t-10 23.5t10 23.5t23 9.5t22.5 -10t9.5 -23t-9.5 -23t-22.5 -10z" />
    <glyph glyph-name="uni1E0D" unicode="&#x1e0d;" horiz-adv-x="701" 
d="M330 -6q-116 0 -198 82t-82 198t82 198.5t198 82.5q82 0 151.5 -45t96.5 -113v383h33v-780h-33v149q-27 -66 -96.5 -110.5t-151.5 -44.5zM330 27q103 0 175.5 72.5t72.5 174.5t-72.5 175t-175.5 73q-101 0 -174 -73t-73 -175t73 -174.5t174 -72.5zM334 -133
q-14 0 -23.5 9.5t-9.5 23.5t9.5 23.5t23.5 9.5q13 0 22.5 -10t9.5 -23t-9.5 -23t-22.5 -10z" />
    <glyph glyph-name="uni1E0E" unicode="&#x1e0e;" horiz-adv-x="750" 
d="M307 0h-207v730h207q167 0 275 -105.5t108 -258.5q0 -156 -105 -261t-278 -105zM133 697v-664h174q161 0 255.5 96.5t94.5 238.5q0 135 -98 232t-252 97h-174zM460 -117h-350v33h350v-33z" />
    <glyph glyph-name="uni1E0F" unicode="&#x1e0f;" horiz-adv-x="701" 
d="M330 -6q-116 0 -198 82t-82 198t82 198.5t198 82.5q82 0 151.5 -45t96.5 -113v383h33v-780h-33v149q-27 -66 -96.5 -110.5t-151.5 -44.5zM330 27q103 0 175.5 72.5t72.5 174.5t-72.5 175t-175.5 73q-101 0 -174 -73t-73 -175t73 -174.5t174 -72.5zM511 -117h-350v33h350
v-33z" />
    <glyph glyph-name="uni1E12" unicode="&#x1e12;" horiz-adv-x="750" 
d="M307 0h-207v730h207q167 0 275 -105.5t108 -258.5q0 -156 -105 -261t-278 -105zM133 697v-664h174q161 0 255.5 96.5t94.5 238.5q0 135 -98 232t-252 97h-174zM227 -160h-44l108 120h44l108 -120h-44l-86 96z" />
    <glyph glyph-name="uni1E13" unicode="&#x1e13;" horiz-adv-x="686" 
d="M330 -6q-116 0 -198 82t-82 198t82 198.5t198 82.5q82 0 151.5 -45t96.5 -113v383h33v-780h-33v149q-27 -66 -96.5 -110.5t-151.5 -44.5zM330 27q103 0 175.5 72.5t72.5 174.5t-72.5 175t-175.5 73q-101 0 -174 -73t-73 -175t73 -174.5t174 -72.5zM257 -160h-44l108 120
h44l108 -120h-44l-86 96z" />
    <glyph glyph-name="uni1E24" unicode="&#x1e24;" horiz-adv-x="750" 
d="M133 0h-33v730h33v-347h484v347h33v-730h-33v350h-484v-350zM376 -133q-14 0 -23.5 9.5t-9.5 23.5t9.5 23.5t23.5 9.5q13 0 22.5 -10t9.5 -23t-9.5 -23t-22.5 -10z" />
    <glyph glyph-name="uni1E25" unicode="&#x1e25;" 
d="M123 0h-33v780h33v-353q24 56 76.5 92t126.5 36q103 0 169.5 -72t66.5 -205v-278h-33v278q0 120 -57 182t-146 62t-146 -62t-57 -182v-278zM299 -133q-13 0 -23 9.5t-10 23.5t10 23.5t23 9.5t22.5 -10t9.5 -23t-9.5 -23t-22.5 -10z" />
    <glyph glyph-name="uni1E2E" unicode="&#x1e2e;" horiz-adv-x="233" 
d="M136 912h-30l65 148h35zM25 791q-13 0 -23 9.5t-10 23.5t10 23.5t23 9.5t22.5 -10t9.5 -23t-9.5 -23t-22.5 -10zM210 791q-14 0 -23.5 9.5t-9.5 23.5t9.5 23.5t23.5 9.5q13 0 22.5 -10t9.5 -23t-9.5 -23t-22.5 -10zM133 0h-33v730h33v-730z" />
    <glyph glyph-name="uni1E2F" unicode="&#x1e2f;" horiz-adv-x="213" 
d="M128 787h-30l65 148h35zM35 667q-13 0 -23 9.5t-10 23.5t10 23.5t23 9.5t22.5 -10t9.5 -23t-9.5 -23t-22.5 -10zM180 667q-14 0 -23.5 9.5t-9.5 23.5t9.5 23.5t23.5 9.5q13 0 22.5 -10t9.5 -23t-9.5 -23t-22.5 -10zM123 0h-33v550h33v-550z" />
    <glyph glyph-name="uni1E36" unicode="&#x1e36;" horiz-adv-x="586" 
d="M556 0h-456v730h33v-697h423v-33zM296 -133q-14 0 -23.5 9.5t-9.5 23.5t9.5 23.5t23.5 9.5q13 0 22.5 -10t9.5 -23t-9.5 -23t-22.5 -10z" />
    <glyph glyph-name="uni1E37" unicode="&#x1e37;" horiz-adv-x="213" 
d="M123 0h-33v780h33v-780zM107 -133q-13 0 -23 9.5t-10 23.5t10 23.5t23 9.5t22.5 -10t9.5 -23t-9.5 -23t-22.5 -10z" />
    <glyph glyph-name="uni1E3C" unicode="&#x1e3c;" horiz-adv-x="586" 
d="M556 0h-456v730h33v-697h423v-33zM191 -160h-44l108 120h44l108 -120h-44l-86 96z" />
    <glyph glyph-name="uni1E3D" unicode="&#x1e3d;" horiz-adv-x="213" 
d="M123 0h-33v780h33v-780zM21 -160h-44l108 120h44l108 -120h-44l-86 96z" />
    <glyph glyph-name="uni1E3E" unicode="&#x1e3e;" horiz-adv-x="950" 
d="M453 816h-30l65 148h35zM133 0h-33v730h42l333 -563l333 563h42v-730h-33v681l-326 -552h-32l-326 552v-681z" />
    <glyph glyph-name="uni1E3F" unicode="&#x1e3f;" horiz-adv-x="916" 
d="M446 646h-30l65 148h35zM123 0h-33v550h33v-113q19 56 65 87t98 31q74 0 120.5 -41t60.5 -105q14 63 61 104.5t117 41.5q87 0 141.5 -63t54.5 -194v-298h-33v298q0 118 -45 171t-118 53q-70 0 -116.5 -54t-46.5 -170v-298h-33v298q0 118 -45 171t-118 53
q-71 0 -117 -62.5t-46 -181.5v-278z" />
    <glyph glyph-name="uni1E44" unicode="&#x1e44;" horiz-adv-x="800" 
d="M408 857q-14 0 -23.5 9.5t-9.5 23.5t9.5 23.5t23.5 9.5q13 0 22.5 -10t9.5 -23t-9.5 -23t-22.5 -10zM133 0h-33v730h33l534 -676v676h33v-730h-33l-534 678v-678z" />
    <glyph glyph-name="uni1E45" unicode="&#x1e45;" 
d="M327 687q-13 0 -23 9.5t-10 23.5t10 23.5t23 9.5t22.5 -10t9.5 -23t-9.5 -23t-22.5 -10zM123 0h-33v550h33v-123q24 56 76.5 92t126.5 36q103 0 169.5 -72t66.5 -205v-278h-33v278q0 120 -57 182t-146 62t-146 -62t-57 -182v-278z" />
    <glyph glyph-name="uni1E46" unicode="&#x1e46;" horiz-adv-x="800" 
d="M133 0h-33v730h33l534 -676v676h33v-730h-33l-534 678v-678zM401 -133q-13 0 -23 9.5t-10 23.5t10 23.5t23 9.5t22.5 -10t9.5 -23t-9.5 -23t-22.5 -10z" />
    <glyph glyph-name="uni1E47" unicode="&#x1e47;" 
d="M123 0h-33v550h33v-123q24 56 76.5 92t126.5 36q103 0 169.5 -72t66.5 -205v-278h-33v278q0 120 -57 182t-146 62t-146 -62t-57 -182v-278zM327 -133q-13 0 -23 9.5t-10 23.5t10 23.5t23 9.5t22.5 -10t9.5 -23t-9.5 -23t-22.5 -10z" />
    <glyph glyph-name="uni1E4A" unicode="&#x1e4a;" horiz-adv-x="800" 
d="M133 0h-33v730h33l534 -676v676h33v-730h-33l-534 678v-678zM323 -175h-44l108 120h44l108 -120h-44l-86 96z" />
    <glyph glyph-name="uni1E4B" unicode="&#x1e4b;" 
d="M123 0h-33v550h33v-123q24 56 76.5 92t126.5 36q103 0 169.5 -72t66.5 -205v-278h-33v278q0 120 -57 182t-146 62t-146 -62t-57 -182v-278zM240 -160h-44l108 120h44l108 -120h-44l-86 96z" />
    <glyph glyph-name="uni1E4C" unicode="&#x1e4c;" horiz-adv-x="863" 
d="M448 999h-30l65 148h35zM506 836q-23 -3 -44 9t-34.5 28t-30.5 29t-32 12q-40 -2 -40 -70h-33q0 46 20.5 73.5t50.5 29.5q23 2 43 -10.5t32.5 -28t30 -28.5t34.5 -12q36 2 36 70h33q0 -47 -18.5 -73.5t-47.5 -28.5zM432 -8q-154 0 -263 109t-109 264q0 153 109 262
t263 109t262.5 -109t108.5 -262q0 -155 -108.5 -264t-262.5 -109zM432 25q140 0 239 99t99 242q0 140 -99 238.5t-239 98.5t-239.5 -98.5t-99.5 -238.5q0 -143 99 -242t240 -99z" />
    <glyph glyph-name="uni1E4D" unicode="&#x1e4d;" horiz-adv-x="661" 
d="M347 759h-30l65 148h35zM405 620q-23 -2 -44 9.5t-34.5 27.5t-30.5 29t-32 12q-40 -2 -40 -70h-33q0 46 20 73.5t51 29.5q28 2 52 -18t45.5 -41t42.5 -20q36 2 36 70h33q0 -47 -18.5 -73t-47.5 -29zM331 -5q-117 0 -199 82.5t-82 198.5t82 198t199 82q116 0 198 -82
t82 -198t-82 -198.5t-198 -82.5zM331 28q101 0 174 73t73 175t-73 174.5t-174 72.5q-103 0 -175.5 -72.5t-72.5 -174.5t72.5 -175t175.5 -73z" />
    <glyph glyph-name="uni1E50" unicode="&#x1e50;" horiz-adv-x="863" 
d="M442 893h-30l-70 148h35zM607 809h-350v33h350v-33zM432 -8q-154 0 -263 109t-109 264q0 153 109 262t263 109t262.5 -109t108.5 -262q0 -155 -108.5 -264t-262.5 -109zM432 25q140 0 239 99t99 242q0 140 -99 238.5t-239 98.5t-239.5 -98.5t-99.5 -238.5q0 -143 99 -242
t240 -99z" />
    <glyph glyph-name="uni1E51" unicode="&#x1e51;" horiz-adv-x="661" 
d="M341 728h-30l-70 148h35zM506 644h-350v33h350v-33zM331 -5q-117 0 -199 82.5t-82 198.5t82 198t199 82q116 0 198 -82t82 -198t-82 -198.5t-198 -82.5zM331 28q101 0 174 73t73 175t-73 174.5t-174 72.5q-103 0 -175.5 -72.5t-72.5 -174.5t72.5 -175t175.5 -73z" />
    <glyph glyph-name="uni1E52" unicode="&#x1e52;" horiz-adv-x="863" 
d="M412 893h-30l65 148h35zM607 809h-350v33h350v-33zM432 -8q-154 0 -263 109t-109 264q0 153 109 262t263 109t262.5 -109t108.5 -262q0 -155 -108.5 -264t-262.5 -109zM432 25q140 0 239 99t99 242q0 140 -99 238.5t-239 98.5t-239.5 -98.5t-99.5 -238.5q0 -143 99 -242
t240 -99z" />
    <glyph glyph-name="uni1E53" unicode="&#x1e53;" horiz-adv-x="661" 
d="M311 728h-30l65 148h35zM506 644h-350v33h350v-33zM331 -5q-117 0 -199 82.5t-82 198.5t82 198t199 82q116 0 198 -82t82 -198t-82 -198.5t-198 -82.5zM331 28q101 0 174 73t73 175t-73 174.5t-174 72.5q-103 0 -175.5 -72.5t-72.5 -174.5t72.5 -175t175.5 -73z" />
    <glyph glyph-name="uni1E62" unicode="&#x1e62;" horiz-adv-x="610" 
d="M312 -6q-149 2 -257 110l23 23q99 -99 236 -100q91 -1 149.5 43t58.5 120q0 48 -25 82.5t-65 54t-88.5 35l-97 31t-88.5 36t-65 56.5t-25 87q0 71 60.5 119t168.5 48q63 0 129.5 -28t108.5 -88l-26 -20q-32 46 -89 74t-119 29q-91 1 -145.5 -37t-54.5 -97q0 -44 25 -74.5
t65 -48.5t88.5 -32.5t97 -31t88.5 -38.5t65 -62t25 -95q0 -92 -69 -144.5t-174 -51.5zM306 -133q-14 0 -23.5 9.5t-9.5 23.5t9.5 23.5t23.5 9.5q13 0 22.5 -10t9.5 -23t-9.5 -23t-22.5 -10z" />
    <glyph glyph-name="uni1E63" unicode="&#x1e63;" horiz-adv-x="560" 
d="M291 -5q-63 0 -128 23t-108 75l25 22q29 -38 87 -62.5t125 -24.5q79 0 129.5 34t50.5 91q0 40 -29.5 66t-73.5 36.5t-95 22.5t-95 24t-73.5 41.5t-29.5 74.5q0 60 54.5 98.5t144.5 38.5q124 0 210 -90l-24 -23q-76 80 -185 80q-72 0 -119.5 -27.5t-47.5 -77.5
q0 -31 22 -52t57 -32t77 -20t84 -20t77 -26.5t57 -44.5t22 -70q0 -76 -63.5 -116.5t-150.5 -40.5zM281 -133q-13 0 -23 9.5t-10 23.5t10 23.5t23 9.5t22.5 -10t9.5 -23t-9.5 -23t-22.5 -10z" />
    <glyph glyph-name="uni1E6C" unicode="&#x1e6c;" horiz-adv-x="594" 
d="M314 0h-33v697h-251v33h534v-33h-250v-697zM298 -133q-14 0 -23.5 9.5t-9.5 23.5t9.5 23.5t23.5 9.5q13 0 22.5 -10t9.5 -23t-9.5 -23t-22.5 -10z" />
    <glyph glyph-name="uni1E6D" unicode="&#x1e6d;" horiz-adv-x="351" 
d="M254 -7q-66 0 -107 46.5t-41 126.5v351h-76v33h76v180h33v-180h141v-33h-141v-349q0 -67 31.5 -104.5t83.5 -37.5q26 0 47 9l10 -31q-27 -11 -57 -11zM161 -133q-13 0 -23 9.5t-10 23.5t10 23.5t23 9.5t22.5 -10t9.5 -23t-9.5 -23t-22.5 -10z" />
    <glyph glyph-name="uni1E6E" unicode="&#x1e6e;" horiz-adv-x="594" 
d="M314 0h-33v697h-251v33h534v-33h-250v-697zM472 -117h-350v33h350v-33z" />
    <glyph glyph-name="uni1E6F" unicode="&#x1e6f;" horiz-adv-x="430" 
d="M288 -7q-66 0 -107 46.5t-41 126.5v351h-76v33h76v180h33v-180h141v-33h-141v-349q0 -67 31.5 -104.5t83.5 -37.5q26 0 47 9l10 -31q-27 -11 -57 -11zM380 -127h-350v33h350v-33z" />
    <glyph glyph-name="uni1E70" unicode="&#x1e70;" horiz-adv-x="594" 
d="M314 0h-33v697h-251v33h534v-33h-250v-697zM209 -170h-44l108 120h44l108 -120h-44l-86 96z" />
    <glyph glyph-name="uni1E71" unicode="&#x1e71;" horiz-adv-x="351" 
d="M254 -7q-66 0 -107 46.5t-41 126.5v351h-76v33h76v180h33v-180h141v-33h-141v-349q0 -67 31.5 -104.5t83.5 -37.5q26 0 47 9l10 -31q-27 -11 -57 -11zM74 -160h-44l108 120h44l108 -120h-44l-86 96z" />
    <glyph glyph-name="Wgrave" unicode="&#x1e80;" horiz-adv-x="1013" 
d="M507 816h-30l-70 148h35zM299 0h-35l-234 730h35l216 -674l208 674h35l208 -674l216 674h35l-234 -730h-35l-207 673z" />
    <glyph glyph-name="wgrave" unicode="&#x1e81;" horiz-adv-x="860" 
d="M443 646h-30l-70 148h35zM258 0h-35l-198 550h35l180 -500l173 500h34l173 -500l180 500h35l-198 -550h-35l-172 499z" />
    <glyph glyph-name="Wacute" unicode="&#x1e82;" horiz-adv-x="1013" 
d="M517 816h-30l65 148h35zM299 0h-35l-234 730h35l216 -674l208 674h35l208 -674l216 674h35l-234 -730h-35l-207 673z" />
    <glyph glyph-name="wacute" unicode="&#x1e83;" horiz-adv-x="860" 
d="M440 646h-30l65 148h35zM258 0h-35l-198 550h35l180 -500l173 500h34l173 -500l180 500h35l-198 -550h-35l-172 499z" />
    <glyph glyph-name="Wdieresis" unicode="&#x1e84;" horiz-adv-x="1013" 
d="M415 857q-13 0 -23 9.5t-10 23.5t10 23.5t23 9.5t22.5 -10t9.5 -23t-9.5 -23t-22.5 -10zM600 857q-14 0 -23.5 9.5t-9.5 23.5t9.5 23.5t23.5 9.5q13 0 22.5 -10t9.5 -23t-9.5 -23t-22.5 -10zM299 0h-35l-234 730h35l216 -674l208 674h35l208 -674l216 674h35l-234 -730
h-35l-207 673z" />
    <glyph glyph-name="wdieresis" unicode="&#x1e85;" horiz-adv-x="860" 
d="M338 687q-14 0 -23.5 9.5t-9.5 23.5t9.5 23.5t23.5 9.5q13 0 22.5 -10t9.5 -23t-9.5 -23t-22.5 -10zM523 687q-13 0 -23 9.5t-10 23.5t10 23.5t23 9.5t22.5 -10t9.5 -23t-9.5 -23t-22.5 -10zM258 0h-35l-198 550h35l180 -500l173 500h34l173 -500l180 500h35l-198 -550
h-35l-172 499z" />
    <glyph glyph-name="uni1E92" unicode="&#x1e92;" horiz-adv-x="641" 
d="M591 0h-541v33l489 664h-479v33h521v-33l-490 -664h500v-33zM314 -133q-14 0 -23.5 9.5t-9.5 23.5t9.5 23.5t23.5 9.5q13 0 22.5 -10t9.5 -23t-9.5 -23t-22.5 -10z" />
    <glyph glyph-name="uni1E93" unicode="&#x1e93;" horiz-adv-x="583" 
d="M523 0h-463v33l405 484h-405v33h449v-33l-406 -484h420v-33zM292 -133q-14 0 -23.5 9.5t-9.5 23.5t9.5 23.5t23.5 9.5q13 0 22.5 -10t9.5 -23t-9.5 -23t-22.5 -10z" />
    <glyph glyph-name="Germandbls" unicode="&#x1e9e;" horiz-adv-x="616" 
d="M357 -10q-43 0 -83 10t-59 23v37q63 -37 142 -37q66 0 121 44t55 128q0 38 -14.5 69.5t-31 50t-47.5 37t-45 24l-42 16.5v28l137 202q-50 83 -178 83q-24 0 -46.5 -4t-47.5 -16.5t-43 -32t-30 -53t-12 -76.5v-523h-33v526q0 103 55.5 157.5t156.5 54.5q151 0 213 -104
v-24l-135 -195q2 -1 17 -8t21.5 -10t22.5 -12t24 -15.5t22 -18t22 -22t18.5 -26t15.5 -31t9 -35.5t4 -42q0 -86 -58.5 -145.5t-150.5 -59.5z" />
    <glyph glyph-name="uni1EA0" unicode="&#x1ea0;" horiz-adv-x="680" 
d="M66 0h-36l291 730h38l291 -730h-35l-101 252h-348zM340 687l-160 -402h321zM341 -133q-13 0 -23 9.5t-10 23.5t10 23.5t23 9.5t22.5 -10t9.5 -23t-9.5 -23t-22.5 -10z" />
    <glyph glyph-name="uni1EA1" unicode="&#x1ea1;" horiz-adv-x="701" 
d="M330 -6q-116 0 -198 82t-82 198t82 198.5t198 82.5q82 0 151.5 -45t96.5 -113v153h33v-550h-33v149q-27 -66 -96.5 -110.5t-151.5 -44.5zM330 27q103 0 175.5 72.5t72.5 174.5t-72.5 175t-175.5 73q-101 0 -174 -73t-73 -175t73 -174.5t174 -72.5zM331 -133
q-13 0 -23 9.5t-10 23.5t10 23.5t23 9.5t22.5 -10t9.5 -23t-9.5 -23t-22.5 -10z" />
    <glyph glyph-name="uni1EA2" unicode="&#x1ea2;" horiz-adv-x="680" 
d="M321 806v33q78 0 78 52q0 22 -17 36t-46 14q-21 0 -42.5 -7.5t-29.5 -15.5l-16 28q33 28 87 28q45 0 71 -24t26 -60q0 -37 -29 -60.5t-82 -23.5zM66 0h-36l291 730h38l291 -730h-35l-101 252h-348zM340 687l-160 -402h321z" />
    <glyph glyph-name="uni1EA3" unicode="&#x1ea3;" horiz-adv-x="701" 
d="M307 636v33q78 0 78 52q0 22 -17 36t-46 14q-21 0 -42.5 -7.5t-29.5 -15.5l-16 28q33 28 87 28q45 0 71 -24t26 -60q0 -37 -29 -60.5t-82 -23.5zM330 -6q-116 0 -198 82t-82 198t82 198.5t198 82.5q82 0 151.5 -45t96.5 -113v153h33v-550h-33v149q-27 -66 -96.5 -110.5
t-151.5 -44.5zM330 27q103 0 175.5 72.5t72.5 174.5t-72.5 175t-175.5 73q-101 0 -174 -73t-73 -175t73 -174.5t174 -72.5z" />
    <glyph glyph-name="uni1EA4" unicode="&#x1ea4;" horiz-adv-x="680" 
d="M433 911h-30l65 148h35zM254 792h-44l108 120h44l108 -120h-44l-86 96zM66 0h-36l291 730h38l291 -730h-35l-101 252h-348zM340 687l-160 -402h321z" />
    <glyph glyph-name="uni1EA5" unicode="&#x1ea5;" horiz-adv-x="701" 
d="M417 746h-30l65 148h35zM238 627h-44l108 120h44l108 -120h-44l-86 96zM330 -6q-116 0 -198 82t-82 198t82 198.5t198 82.5q82 0 151.5 -45t96.5 -113v153h33v-550h-33v149q-27 -66 -96.5 -110.5t-151.5 -44.5zM330 27q103 0 175.5 72.5t72.5 174.5t-72.5 175t-175.5 73
q-101 0 -174 -73t-73 -175t73 -174.5t174 -72.5z" />
    <glyph glyph-name="uni1EA6" unicode="&#x1ea6;" horiz-adv-x="680" 
d="M262 909h-30l-70 148h35zM240 793h-44l108 120h44l108 -120h-44l-86 96zM66 0h-36l291 730h38l291 -730h-35l-101 252h-348zM340 687l-160 -402h321z" />
    <glyph glyph-name="uni1EA7" unicode="&#x1ea7;" horiz-adv-x="701" 
d="M257 744h-30l-70 148h35zM235 628h-44l108 120h44l108 -120h-44l-86 96zM330 -6q-116 0 -198 82t-82 198t82 198.5t198 82.5q82 0 151.5 -45t96.5 -113v153h33v-550h-33v149q-27 -66 -96.5 -110.5t-151.5 -44.5zM330 27q103 0 175.5 72.5t72.5 174.5t-72.5 175t-175.5 73
q-101 0 -174 -73t-73 -175t73 -174.5t174 -72.5z" />
    <glyph glyph-name="uni1EA8" unicode="&#x1ea8;" horiz-adv-x="680" 
d="M403 896v33q78 0 78 52q0 22 -17 36t-46 14q-21 0 -42.5 -7.5t-29.5 -15.5l-16 28q33 28 87 28q45 0 71 -24t26 -60q0 -37 -29 -60.5t-82 -23.5zM250 787h-44l108 120h44l108 -120h-44l-86 96zM66 0h-36l291 730h38l291 -730h-35l-101 252h-348zM340 687l-160 -402h321z
" />
    <glyph glyph-name="uni1EA9" unicode="&#x1ea9;" horiz-adv-x="701" 
d="M394 731v33q78 0 78 52q0 22 -17 36t-46 14q-21 0 -42.5 -7.5t-29.5 -15.5l-16 28q33 28 87 28q45 0 71 -24t26 -60q0 -37 -29 -60.5t-82 -23.5zM241 622h-44l108 120h44l108 -120h-44l-86 96zM330 -6q-116 0 -198 82t-82 198t82 198.5t198 82.5q82 0 151.5 -45
t96.5 -113v153h33v-550h-33v149q-27 -66 -96.5 -110.5t-151.5 -44.5zM330 27q103 0 175.5 72.5t72.5 174.5t-72.5 175t-175.5 73q-101 0 -174 -73t-73 -175t73 -174.5t174 -72.5z" />
    <glyph glyph-name="uni1EAA" unicode="&#x1eaa;" horiz-adv-x="680" 
d="M420 935q-23 -3 -44 9t-34.5 28t-30.5 29t-32 12q-40 -2 -40 -70h-33q0 46 20.5 73.5t50.5 29.5q23 2 43 -10.5t32.5 -28t30 -28.5t34.5 -12q36 2 36 70h33q0 -47 -18.5 -73.5t-47.5 -28.5zM250 800h-44l108 120h44l108 -120h-44l-86 96zM66 0h-36l291 730h38l291 -730
h-35l-101 252h-348zM340 687l-160 -402h321z" />
    <glyph glyph-name="uni1EAB" unicode="&#x1eab;" horiz-adv-x="701" 
d="M415 770q-23 -2 -44 9.5t-34.5 27.5t-30.5 29t-32 12q-40 -2 -40 -70h-33q0 46 20 73.5t51 29.5q28 2 52 -18t45.5 -41t42.5 -20q36 2 36 70h33q0 -47 -18.5 -73t-47.5 -29zM245 635h-44l108 120h44l108 -120h-44l-86 96zM330 -6q-116 0 -198 82t-82 198t82 198.5
t198 82.5q82 0 151.5 -45t96.5 -113v153h33v-550h-33v149q-27 -66 -96.5 -110.5t-151.5 -44.5zM330 27q103 0 175.5 72.5t72.5 174.5t-72.5 175t-175.5 73q-101 0 -174 -73t-73 -175t73 -174.5t174 -72.5z" />
    <glyph glyph-name="uni1EAC" unicode="&#x1eac;" horiz-adv-x="680" 
d="M254 830h-44l108 120h44l108 -120h-44l-86 96zM66 0h-36l291 730h38l291 -730h-35l-101 252h-348zM340 687l-160 -402h321zM341 -133q-13 0 -23 9.5t-10 23.5t10 23.5t23 9.5t22.5 -10t9.5 -23t-9.5 -23t-22.5 -10z" />
    <glyph glyph-name="uni1EAD" unicode="&#x1ead;" horiz-adv-x="701" 
d="M255 660h-44l108 120h44l108 -120h-44l-86 96zM330 -6q-116 0 -198 82t-82 198t82 198.5t198 82.5q82 0 151.5 -45t96.5 -113v153h33v-550h-33v149q-27 -66 -96.5 -110.5t-151.5 -44.5zM330 27q103 0 175.5 72.5t72.5 174.5t-72.5 175t-175.5 73q-101 0 -174 -73
t-73 -175t73 -174.5t174 -72.5zM331 -133q-13 0 -23 9.5t-10 23.5t10 23.5t23 9.5t22.5 -10t9.5 -23t-9.5 -23t-22.5 -10z" />
    <glyph glyph-name="uni1EAE" unicode="&#x1eae;" horiz-adv-x="680" 
d="M351 926h-30l65 148h35zM342 776q-62 0 -107 43t-50 105h33q4 -48 39.5 -81.5t84.5 -33.5q48 0 83 33.5t39 81.5h33q-5 -62 -49.5 -105t-105.5 -43zM66 0h-36l291 730h38l291 -730h-35l-101 252h-348zM340 687l-160 -402h321z" />
    <glyph glyph-name="uni1EAF" unicode="&#x1eaf;" horiz-adv-x="701" 
d="M351 781h-30l65 148h35zM342 631q-62 0 -107 43t-50 105h33q4 -48 39.5 -81.5t84.5 -33.5q48 0 83 33.5t39 81.5h33q-5 -62 -49.5 -105t-105.5 -43zM330 -6q-116 0 -198 82t-82 198t82 198.5t198 82.5q82 0 151.5 -45t96.5 -113v153h33v-550h-33v149
q-27 -66 -96.5 -110.5t-151.5 -44.5zM330 27q103 0 175.5 72.5t72.5 174.5t-72.5 175t-175.5 73q-101 0 -174 -73t-73 -175t73 -174.5t174 -72.5z" />
    <glyph glyph-name="uni1EB0" unicode="&#x1eb0;" horiz-adv-x="680" 
d="M359 926h-30l-70 148h35zM338 776q-62 0 -107 43t-50 105h33q4 -48 39.5 -81.5t84.5 -33.5q48 0 83 33.5t39 81.5h33q-5 -62 -49.5 -105t-105.5 -43zM66 0h-36l291 730h38l291 -730h-35l-101 252h-348zM340 687l-160 -402h321z" />
    <glyph glyph-name="uni1EB1" unicode="&#x1eb1;" horiz-adv-x="701" 
d="M339 781h-30l-70 148h35zM322 631q-62 0 -107 43t-50 105h33q4 -48 39.5 -81.5t84.5 -33.5q48 0 83 33.5t39 81.5h33q-5 -62 -49.5 -105t-105.5 -43zM330 -6q-116 0 -198 82t-82 198t82 198.5t198 82.5q82 0 151.5 -45t96.5 -113v153h33v-550h-33v149
q-27 -66 -96.5 -110.5t-151.5 -44.5zM330 27q103 0 175.5 72.5t72.5 174.5t-72.5 175t-175.5 73q-101 0 -174 -73t-73 -175t73 -174.5t174 -72.5z" />
    <glyph glyph-name="uni1EB2" unicode="&#x1eb2;" horiz-adv-x="680" 
d="M327 918v33q78 0 78 52q0 22 -17 36t-46 14q-21 0 -42.5 -7.5t-29.5 -15.5l-16 28q33 28 87 28q45 0 71 -24t26 -60q0 -37 -29 -60.5t-82 -23.5zM342 765q-62 0 -107 43t-50 105h33q4 -48 39.5 -81.5t84.5 -33.5q48 0 83 33.5t39 81.5h33q-5 -62 -49.5 -105t-105.5 -43z
M66 0h-36l291 730h38l291 -730h-35l-101 252h-348zM340 687l-160 -402h321z" />
    <glyph glyph-name="uni1EB3" unicode="&#x1eb3;" horiz-adv-x="701" 
d="M307 773v33q78 0 78 52q0 22 -17 36t-46 14q-21 0 -42.5 -7.5t-29.5 -15.5l-16 28q33 28 87 28q45 0 71 -24t26 -60q0 -37 -29 -60.5t-82 -23.5zM322 620q-62 0 -107 43t-50 105h33q4 -48 39.5 -81.5t84.5 -33.5q48 0 83 33.5t39 81.5h33q-5 -62 -49.5 -105t-105.5 -43z
M330 -6q-116 0 -198 82t-82 198t82 198.5t198 82.5q82 0 151.5 -45t96.5 -113v153h33v-550h-33v149q-27 -66 -96.5 -110.5t-151.5 -44.5zM330 27q103 0 175.5 72.5t72.5 174.5t-72.5 175t-175.5 73q-101 0 -174 -73t-73 -175t73 -174.5t174 -72.5z" />
    <glyph glyph-name="uni1EB4" unicode="&#x1eb4;" horiz-adv-x="680" 
d="M431 949q-23 -3 -44 9t-34.5 28t-30.5 29t-32 12q-40 -2 -40 -70h-33q0 46 20.5 73.5t50.5 29.5q23 2 43 -10.5t32.5 -28t30 -28.5t34.5 -12q36 2 36 70h33q0 -47 -18.5 -73.5t-47.5 -28.5zM351 786q-62 0 -107 43t-50 105h33q4 -48 39.5 -81.5t84.5 -33.5q48 0 83 33.5
t39 81.5h33q-5 -62 -49.5 -105t-105.5 -43zM66 0h-36l291 730h38l291 -730h-35l-101 252h-348zM340 687l-160 -402h321z" />
    <glyph glyph-name="uni1EB5" unicode="&#x1eb5;" horiz-adv-x="701" 
d="M402 804q-23 -2 -44 9.5t-34.5 27.5t-30.5 29t-32 12q-40 -2 -40 -70h-33q0 46 20 73.5t51 29.5q28 2 52 -18t45.5 -41t42.5 -20q36 2 36 70h33q0 -47 -18.5 -73t-47.5 -29zM322 641q-62 0 -107 43t-50 105h33q4 -48 39.5 -81.5t84.5 -33.5q48 0 83 33.5t39 81.5h33
q-5 -62 -49.5 -105t-105.5 -43zM330 -6q-116 0 -198 82t-82 198t82 198.5t198 82.5q82 0 151.5 -45t96.5 -113v153h33v-550h-33v149q-27 -66 -96.5 -110.5t-151.5 -44.5zM330 27q103 0 175.5 72.5t72.5 174.5t-72.5 175t-175.5 73q-101 0 -174 -73t-73 -175t73 -174.5
t174 -72.5z" />
    <glyph glyph-name="uni1EB6" unicode="&#x1eb6;" horiz-adv-x="680" 
d="M341 816q-62 0 -107 43t-50 105h33q4 -48 39.5 -81.5t84.5 -33.5q48 0 83 33.5t39 81.5h33q-5 -62 -49.5 -105t-105.5 -43zM66 0h-36l291 730h38l291 -730h-35l-101 252h-348zM340 687l-160 -402h321zM341 -133q-13 0 -23 9.5t-10 23.5t10 23.5t23 9.5t22.5 -10t9.5 -23
t-9.5 -23t-22.5 -10z" />
    <glyph glyph-name="uni1EB7" unicode="&#x1eb7;" horiz-adv-x="701" 
d="M332 646q-62 0 -107 43t-50 105h33q4 -48 39.5 -81.5t84.5 -33.5q48 0 83 33.5t39 81.5h33q-5 -62 -49.5 -105t-105.5 -43zM330 -6q-116 0 -198 82t-82 198t82 198.5t198 82.5q82 0 151.5 -45t96.5 -113v153h33v-550h-33v149q-27 -66 -96.5 -110.5t-151.5 -44.5zM330 27
q103 0 175.5 72.5t72.5 174.5t-72.5 175t-175.5 73q-101 0 -174 -73t-73 -175t73 -174.5t174 -72.5zM331 -133q-13 0 -23 9.5t-10 23.5t10 23.5t23 9.5t22.5 -10t9.5 -23t-9.5 -23t-22.5 -10z" />
    <glyph glyph-name="uni1EB8" unicode="&#x1eb8;" horiz-adv-x="606" 
d="M546 0h-446v730h436v-33h-403v-305h383v-33h-383v-326h413v-33zM291 -133q-13 0 -23 9.5t-10 23.5t10 23.5t23 9.5t22.5 -10t9.5 -23t-9.5 -23t-22.5 -10z" />
    <glyph glyph-name="uni1EB9" unicode="&#x1eb9;" horiz-adv-x="651" 
d="M337 -5q-119 0 -203 82.5t-84 198.5t80.5 198t195.5 82q119 0 197 -81t78 -199q0 -11 -2 -31h-514q12 -92 84 -154.5t168 -62.5q61 0 115 27.5t88 74.5l29 -17q-39 -54 -100 -86t-132 -32zM83 278h485q-1 103 -69.5 174t-172.5 71q-100 0 -171 -72t-72 -173zM314 -133
q-14 0 -23.5 9.5t-9.5 23.5t9.5 23.5t23.5 9.5q13 0 22.5 -10t9.5 -23t-9.5 -23t-22.5 -10z" />
    <glyph glyph-name="uni1EBA" unicode="&#x1eba;" horiz-adv-x="606" 
d="M277 806v33q78 0 78 52q0 22 -17 36t-46 14q-21 0 -42.5 -7.5t-29.5 -15.5l-16 28q33 28 87 28q45 0 71 -24t26 -60q0 -37 -29 -60.5t-82 -23.5zM546 0h-446v730h436v-33h-403v-305h383v-33h-383v-326h413v-33z" />
    <glyph glyph-name="uni1EBB" unicode="&#x1ebb;" horiz-adv-x="651" 
d="M299 636v33q78 0 78 52q0 22 -17 36t-46 14q-21 0 -42.5 -7.5t-29.5 -15.5l-16 28q33 28 87 28q45 0 71 -24t26 -60q0 -37 -29 -60.5t-82 -23.5zM337 -5q-119 0 -203 82.5t-84 198.5t80.5 198t195.5 82q119 0 197 -81t78 -199q0 -11 -2 -31h-514q12 -92 84 -154.5
t168 -62.5q61 0 115 27.5t88 74.5l29 -17q-39 -54 -100 -86t-132 -32zM83 278h485q-1 103 -69.5 174t-172.5 71q-100 0 -171 -72t-72 -173z" />
    <glyph glyph-name="uni1EBC" unicode="&#x1ebc;" horiz-adv-x="606" 
d="M365 836q-23 -3 -44 9t-34.5 28t-30.5 29t-32 12q-40 -2 -40 -70h-33q0 46 20.5 73.5t50.5 29.5q23 2 43 -10.5t32.5 -28t30 -28.5t34.5 -12q36 2 36 70h33q0 -47 -18.5 -73.5t-47.5 -28.5zM546 0h-446v730h436v-33h-403v-305h383v-33h-383v-326h413v-33z" />
    <glyph glyph-name="uni1EBD" unicode="&#x1ebd;" horiz-adv-x="651" 
d="M387 666q-23 -2 -44 9.5t-34.5 27.5t-30.5 29t-32 12q-40 -2 -40 -70h-33q0 46 20 73.5t51 29.5q28 2 52 -18t45.5 -41t42.5 -20q36 2 36 70h33q0 -47 -18.5 -73t-47.5 -29zM337 -5q-119 0 -203 82.5t-84 198.5t80.5 198t195.5 82q119 0 197 -81t78 -199q0 -11 -2 -31
h-514q12 -92 84 -154.5t168 -62.5q61 0 115 27.5t88 74.5l29 -17q-39 -54 -100 -86t-132 -32zM83 278h485q-1 103 -69.5 174t-172.5 71q-100 0 -171 -72t-72 -173z" />
    <glyph glyph-name="uni1EBE" unicode="&#x1ebe;" horiz-adv-x="606" 
d="M407 911h-30l65 148h35zM228 792h-44l108 120h44l108 -120h-44l-86 96zM546 0h-446v730h436v-33h-403v-305h383v-33h-383v-326h413v-33z" />
    <glyph glyph-name="uni1EBF" unicode="&#x1ebf;" horiz-adv-x="651" 
d="M390 746h-30l65 148h35zM211 627h-44l108 120h44l108 -120h-44l-86 96zM337 -5q-119 0 -203 82.5t-84 198.5t80.5 198t195.5 82q119 0 197 -81t78 -199q0 -11 -2 -31h-514q12 -92 84 -154.5t168 -62.5q61 0 115 27.5t88 74.5l29 -17q-39 -54 -100 -86t-132 -32zM83 278
h485q-1 103 -69.5 174t-172.5 71q-100 0 -171 -72t-72 -173z" />
    <glyph glyph-name="uni1EC0" unicode="&#x1ec0;" horiz-adv-x="606" 
d="M267 909h-30l-70 148h35zM245 793h-44l108 120h44l108 -120h-44l-86 96zM546 0h-446v730h436v-33h-403v-305h383v-33h-383v-326h413v-33z" />
    <glyph glyph-name="uni1EC1" unicode="&#x1ec1;" horiz-adv-x="651" 
d="M259 744h-30l-70 148h35zM237 628h-44l108 120h44l108 -120h-44l-86 96zM337 -5q-119 0 -203 82.5t-84 198.5t80.5 198t195.5 82q119 0 197 -81t78 -199q0 -11 -2 -31h-514q12 -92 84 -154.5t168 -62.5q61 0 115 27.5t88 74.5l29 -17q-39 -54 -100 -86t-132 -32zM83 278
h485q-1 103 -69.5 174t-172.5 71q-100 0 -171 -72t-72 -173z" />
    <glyph glyph-name="uni1EC2" unicode="&#x1ec2;" horiz-adv-x="606" 
d="M382 896v33q78 0 78 52q0 22 -17 36t-46 14q-21 0 -42.5 -7.5t-29.5 -15.5l-16 28q33 28 87 28q45 0 71 -24t26 -60q0 -37 -29 -60.5t-82 -23.5zM229 787h-44l108 120h44l108 -120h-44l-86 96zM546 0h-446v730h436v-33h-403v-305h383v-33h-383v-326h413v-33z" />
    <glyph glyph-name="uni1EC3" unicode="&#x1ec3;" horiz-adv-x="651" 
d="M386 731v33q78 0 78 52q0 22 -17 36t-46 14q-21 0 -42.5 -7.5t-29.5 -15.5l-16 28q33 28 87 28q45 0 71 -24t26 -60q0 -37 -29 -60.5t-82 -23.5zM233 622h-44l108 120h44l108 -120h-44l-86 96zM337 -5q-119 0 -203 82.5t-84 198.5t80.5 198t195.5 82q119 0 197 -81
t78 -199q0 -11 -2 -31h-514q12 -92 84 -154.5t168 -62.5q61 0 115 27.5t88 74.5l29 -17q-39 -54 -100 -86t-132 -32zM83 278h485q-1 103 -69.5 174t-172.5 71q-100 0 -171 -72t-72 -173z" />
    <glyph glyph-name="uni1EC4" unicode="&#x1ec4;" horiz-adv-x="606" 
d="M407 935q-23 -2 -44 9.5t-34.5 27.5t-30.5 29t-32 12q-40 -2 -40 -70h-33q0 46 20 73.5t51 29.5q28 2 52 -18t45.5 -41t42.5 -20q36 2 36 70h33q0 -47 -18.5 -73t-47.5 -29zM237 800h-44l108 120h44l108 -120h-44l-86 96zM546 0h-446v730h436v-33h-403v-305h383v-33h-383
v-326h413v-33z" />
    <glyph glyph-name="uni1EC5" unicode="&#x1ec5;" horiz-adv-x="651" 
d="M407 770q-23 -2 -44 9.5t-34.5 27.5t-30.5 29t-32 12q-40 -2 -40 -70h-33q0 46 20 73.5t51 29.5q28 2 52 -18t45.5 -41t42.5 -20q36 2 36 70h33q0 -47 -18.5 -73t-47.5 -29zM237 635h-44l108 120h44l108 -120h-44l-86 96zM337 -5q-119 0 -203 82.5t-84 198.5t80.5 198
t195.5 82q119 0 197 -81t78 -199q0 -11 -2 -31h-514q12 -92 84 -154.5t168 -62.5q61 0 115 27.5t88 74.5l29 -17q-39 -54 -100 -86t-132 -32zM83 278h485q-1 103 -69.5 174t-172.5 71q-100 0 -171 -72t-72 -173z" />
    <glyph glyph-name="uni1EC6" unicode="&#x1ec6;" horiz-adv-x="606" 
d="M239 830h-44l108 120h44l108 -120h-44l-86 96zM546 0h-446v730h436v-33h-403v-305h383v-33h-383v-326h413v-33zM291 -133q-13 0 -23 9.5t-10 23.5t10 23.5t23 9.5t22.5 -10t9.5 -23t-9.5 -23t-22.5 -10z" />
    <glyph glyph-name="uni1EC7" unicode="&#x1ec7;" horiz-adv-x="651" 
d="M227 660h-44l108 120h44l108 -120h-44l-86 96zM337 -5q-119 0 -203 82.5t-84 198.5t80.5 198t195.5 82q119 0 197 -81t78 -199q0 -11 -2 -31h-514q12 -92 84 -154.5t168 -62.5q61 0 115 27.5t88 74.5l29 -17q-39 -54 -100 -86t-132 -32zM83 278h485q-1 103 -69.5 174
t-172.5 71q-100 0 -171 -72t-72 -173zM314 -133q-14 0 -23.5 9.5t-9.5 23.5t9.5 23.5t23.5 9.5q13 0 22.5 -10t9.5 -23t-9.5 -23t-22.5 -10z" />
    <glyph glyph-name="uni1EC8" unicode="&#x1ec8;" horiz-adv-x="233" 
d="M97 806v33q78 0 78 52q0 22 -17 36t-46 14q-21 0 -42.5 -7.5t-29.5 -15.5l-16 28q33 28 87 28q45 0 71 -24t26 -60q0 -37 -29 -60.5t-82 -23.5zM133 0h-33v730h33v-730z" />
    <glyph glyph-name="uni1EC9" unicode="&#x1ec9;" horiz-adv-x="213" 
d="M73 636v33q78 0 78 52q0 22 -17 36t-46 14q-21 0 -42.5 -7.5t-29.5 -15.5l-16 28q33 28 87 28q45 0 71 -24t26 -60q0 -37 -29 -60.5t-82 -23.5zM123 0h-33v550h33v-550z" />
    <glyph glyph-name="uni1ECA" unicode="&#x1eca;" horiz-adv-x="233" 
d="M133 0h-33v730h33v-730zM117 -133q-13 0 -23 9.5t-10 23.5t10 23.5t23 9.5t22.5 -10t9.5 -23t-9.5 -23t-22.5 -10z" />
    <glyph glyph-name="uni1ECB" unicode="&#x1ecb;" horiz-adv-x="213" 
d="M107 624q-13 0 -23 10t-10 23t10 23t23 10t22.5 -10t9.5 -23t-9.5 -23t-22.5 -10zM123 0h-33v550h33v-550zM107 -133q-13 0 -23 9.5t-10 23.5t10 23.5t23 9.5t22.5 -10t9.5 -23t-9.5 -23t-22.5 -10z" />
    <glyph glyph-name="uni1ECC" unicode="&#x1ecc;" horiz-adv-x="863" 
d="M432 -8q-154 0 -263 109t-109 264q0 153 109 262t263 109t262.5 -109t108.5 -262q0 -155 -108.5 -264t-262.5 -109zM432 25q140 0 239 99t99 242q0 140 -99 238.5t-239 98.5t-239.5 -98.5t-99.5 -238.5q0 -143 99 -242t240 -99zM420 -133q-14 0 -23.5 9.5t-9.5 23.5
t9.5 23.5t23.5 9.5q13 0 22.5 -10t9.5 -23t-9.5 -23t-22.5 -10z" />
    <glyph glyph-name="uni1ECD" unicode="&#x1ecd;" horiz-adv-x="661" 
d="M331 -5q-117 0 -199 82.5t-82 198.5t82 198t199 82q116 0 198 -82t82 -198t-82 -198.5t-198 -82.5zM331 28q101 0 174 73t73 175t-73 174.5t-174 72.5q-103 0 -175.5 -72.5t-72.5 -174.5t72.5 -175t175.5 -73zM331 -133q-13 0 -23 9.5t-10 23.5t10 23.5t23 9.5t22.5 -10
t9.5 -23t-9.5 -23t-22.5 -10z" />
    <glyph glyph-name="uni1ECE" unicode="&#x1ece;" horiz-adv-x="863" 
d="M405 806v33q78 0 78 52q0 22 -17 36t-46 14q-21 0 -42.5 -7.5t-29.5 -15.5l-16 28q33 28 87 28q45 0 71 -24t26 -60q0 -37 -29 -60.5t-82 -23.5zM432 -8q-154 0 -263 109t-109 264q0 153 109 262t263 109t262.5 -109t108.5 -262q0 -155 -108.5 -264t-262.5 -109zM432 25
q140 0 239 99t99 242q0 140 -99 238.5t-239 98.5t-239.5 -98.5t-99.5 -238.5q0 -143 99 -242t240 -99z" />
    <glyph glyph-name="uni1ECF" unicode="&#x1ecf;" horiz-adv-x="661" 
d="M312 636v33q78 0 78 52q0 22 -17 36t-46 14q-21 0 -42.5 -7.5t-29.5 -15.5l-16 28q33 28 87 28q45 0 71 -24t26 -60q0 -37 -29 -60.5t-82 -23.5zM331 -5q-117 0 -199 82.5t-82 198.5t82 198t199 82q116 0 198 -82t82 -198t-82 -198.5t-198 -82.5zM331 28q101 0 174 73
t73 175t-73 174.5t-174 72.5q-103 0 -175.5 -72.5t-72.5 -174.5t72.5 -175t175.5 -73z" />
    <glyph glyph-name="uni1ED0" unicode="&#x1ed0;" horiz-adv-x="863" 
d="M496 911h-30l65 148h35zM317 792h-44l108 120h44l108 -120h-44l-86 96zM432 -8q-154 0 -263 109t-109 264q0 153 109 262t263 109t262.5 -109t108.5 -262q0 -155 -108.5 -264t-262.5 -109zM432 25q140 0 239 99t99 242q0 140 -99 238.5t-239 98.5t-239.5 -98.5
t-99.5 -238.5q0 -143 99 -242t240 -99z" />
    <glyph glyph-name="uni1ED1" unicode="&#x1ed1;" horiz-adv-x="661" 
d="M407 746h-30l65 148h35zM228 627h-44l108 120h44l108 -120h-44l-86 96zM331 -5q-117 0 -199 82.5t-82 198.5t82 198t199 82q116 0 198 -82t82 -198t-82 -198.5t-198 -82.5zM331 28q101 0 174 73t73 175t-73 174.5t-174 72.5q-103 0 -175.5 -72.5t-72.5 -174.5t72.5 -175
t175.5 -73z" />
    <glyph glyph-name="uni1ED2" unicode="&#x1ed2;" horiz-adv-x="863" 
d="M355 909h-30l-70 148h35zM333 793h-44l108 120h44l108 -120h-44l-86 96zM432 -8q-154 0 -263 109t-109 264q0 153 109 262t263 109t262.5 -109t108.5 -262q0 -155 -108.5 -264t-262.5 -109zM432 25q140 0 239 99t99 242q0 140 -99 238.5t-239 98.5t-239.5 -98.5
t-99.5 -238.5q0 -143 99 -242t240 -99z" />
    <glyph glyph-name="uni1ED3" unicode="&#x1ed3;" horiz-adv-x="661" 
d="M284 744h-30l-70 148h35zM262 628h-44l108 120h44l108 -120h-44l-86 96zM331 -5q-117 0 -199 82.5t-82 198.5t82 198t199 82q116 0 198 -82t82 -198t-82 -198.5t-198 -82.5zM331 28q101 0 174 73t73 175t-73 174.5t-174 72.5q-103 0 -175.5 -72.5t-72.5 -174.5t72.5 -175
t175.5 -73z" />
    <glyph glyph-name="uni1ED4" unicode="&#x1ed4;" horiz-adv-x="863" 
d="M462 896v33q78 0 78 52q0 22 -17 36t-46 14q-21 0 -42.5 -7.5t-29.5 -15.5l-16 28q33 28 87 28q45 0 71 -24t26 -60q0 -37 -29 -60.5t-82 -23.5zM309 787h-44l108 120h44l108 -120h-44l-86 96zM432 -8q-154 0 -263 109t-109 264q0 153 109 262t263 109t262.5 -109
t108.5 -262q0 -155 -108.5 -264t-262.5 -109zM432 25q140 0 239 99t99 242q0 140 -99 238.5t-239 98.5t-239.5 -98.5t-99.5 -238.5q0 -143 99 -242t240 -99z" />
    <glyph glyph-name="uni1ED5" unicode="&#x1ed5;" horiz-adv-x="661" 
d="M374 731v33q78 0 78 52q0 22 -17 36t-46 14q-21 0 -42.5 -7.5t-29.5 -15.5l-16 28q33 28 87 28q45 0 71 -24t26 -60q0 -37 -29 -60.5t-82 -23.5zM221 622h-44l108 120h44l108 -120h-44l-86 96zM331 -5q-117 0 -199 82.5t-82 198.5t82 198t199 82q116 0 198 -82t82 -198
t-82 -198.5t-198 -82.5zM331 28q101 0 174 73t73 175t-73 174.5t-174 72.5q-103 0 -175.5 -72.5t-72.5 -174.5t72.5 -175t175.5 -73z" />
    <glyph glyph-name="uni1ED6" unicode="&#x1ed6;" horiz-adv-x="863" 
d="M493 935q-23 -2 -44 9.5t-34.5 27.5t-30.5 29t-32 12q-40 -2 -40 -70h-33q0 46 20 73.5t51 29.5q28 2 52 -18t45.5 -41t42.5 -20q36 2 36 70h33q0 -47 -18.5 -73t-47.5 -29zM323 800h-44l108 120h44l108 -120h-44l-86 96zM432 -8q-154 0 -263 109t-109 264q0 153 109 262
t263 109t262.5 -109t108.5 -262q0 -155 -108.5 -264t-262.5 -109zM432 25q140 0 239 99t99 242q0 140 -99 238.5t-239 98.5t-239.5 -98.5t-99.5 -238.5q0 -143 99 -242t240 -99z" />
    <glyph glyph-name="uni1ED7" unicode="&#x1ed7;" horiz-adv-x="661" 
d="M405 770q-23 -2 -44 9.5t-34.5 27.5t-30.5 29t-32 12q-40 -2 -40 -70h-33q0 46 20 73.5t51 29.5q28 2 52 -18t45.5 -41t42.5 -20q36 2 36 70h33q0 -47 -18.5 -73t-47.5 -29zM235 635h-44l108 120h44l108 -120h-44l-86 96zM331 -5q-117 0 -199 82.5t-82 198.5t82 198
t199 82q116 0 198 -82t82 -198t-82 -198.5t-198 -82.5zM331 28q101 0 174 73t73 175t-73 174.5t-174 72.5q-103 0 -175.5 -72.5t-72.5 -174.5t72.5 -175t175.5 -73z" />
    <glyph glyph-name="uni1ED8" unicode="&#x1ed8;" horiz-adv-x="863" 
d="M333 830h-44l108 120h44l108 -120h-44l-86 96zM432 -8q-154 0 -263 109t-109 264q0 153 109 262t263 109t262.5 -109t108.5 -262q0 -155 -108.5 -264t-262.5 -109zM432 25q140 0 239 99t99 242q0 140 -99 238.5t-239 98.5t-239.5 -98.5t-99.5 -238.5q0 -143 99 -242
t240 -99zM420 -133q-14 0 -23.5 9.5t-9.5 23.5t9.5 23.5t23.5 9.5q13 0 22.5 -10t9.5 -23t-9.5 -23t-22.5 -10z" />
    <glyph glyph-name="uni1ED9" unicode="&#x1ed9;" horiz-adv-x="661" 
d="M245 660h-44l108 120h44l108 -120h-44l-86 96zM331 -5q-117 0 -199 82.5t-82 198.5t82 198t199 82q116 0 198 -82t82 -198t-82 -198.5t-198 -82.5zM331 28q101 0 174 73t73 175t-73 174.5t-174 72.5q-103 0 -175.5 -72.5t-72.5 -174.5t72.5 -175t175.5 -73zM331 -133
q-13 0 -23 9.5t-10 23.5t10 23.5t23 9.5t22.5 -10t9.5 -23t-9.5 -23t-22.5 -10z" />
    <glyph glyph-name="uni1EDA" unicode="&#x1eda;" horiz-adv-x="863" 
d="M412 816h-30l65 148h35zM432 -8q-154 0 -263 109t-109 264q0 153 109 262t263 109q152 0 261 -107q18 2 32.5 15t14.5 31v87h33v-88q0 -53 -57 -70q87 -105 87 -239q0 -155 -108.5 -264t-262.5 -109zM432 25q140 0 239 99t99 242q0 140 -99 238.5t-239 98.5t-239.5 -98.5
t-99.5 -238.5q0 -143 99 -242t240 -99z" />
    <glyph glyph-name="uni1EDB" unicode="&#x1edb;" horiz-adv-x="661" 
d="M341 646h-30l65 148h35zM331 -5q-117 0 -199 82.5t-82 198.5t82 198t199 82q116 0 198 -82q17 4 29.5 16t12.5 29v87h33v-88q0 -25 -15 -43t-38 -26q60 -74 60 -173q0 -116 -82 -198.5t-198 -82.5zM331 28q101 0 174 73t73 175t-73 174.5t-174 72.5q-103 0 -175.5 -72.5
t-72.5 -174.5t72.5 -175t175.5 -73z" />
    <glyph glyph-name="uni1EDC" unicode="&#x1edc;" horiz-adv-x="863" 
d="M432 816h-30l-70 148h35zM432 -8q-154 0 -263 109t-109 264q0 153 109 262t263 109q152 0 261 -107q18 2 32.5 15t14.5 31v87h33v-88q0 -53 -57 -70q87 -105 87 -239q0 -155 -108.5 -264t-262.5 -109zM432 25q140 0 239 99t99 242q0 140 -99 238.5t-239 98.5
t-239.5 -98.5t-99.5 -238.5q0 -143 99 -242t240 -99z" />
    <glyph glyph-name="uni1EDD" unicode="&#x1edd;" horiz-adv-x="661" 
d="M361 646h-30l-70 148h35zM331 -5q-117 0 -199 82.5t-82 198.5t82 198t199 82q116 0 198 -82q17 4 29.5 16t12.5 29v87h33v-88q0 -25 -15 -43t-38 -26q60 -74 60 -173q0 -116 -82 -198.5t-198 -82.5zM331 28q101 0 174 73t73 175t-73 174.5t-174 72.5q-103 0 -175.5 -72.5
t-72.5 -174.5t72.5 -175t175.5 -73z" />
    <glyph glyph-name="uni1EDE" unicode="&#x1ede;" horiz-adv-x="863" 
d="M413 806v33q78 0 78 52q0 22 -17 36t-46 14q-21 0 -42.5 -7.5t-29.5 -15.5l-16 28q33 28 87 28q45 0 71 -24t26 -60q0 -37 -29 -60.5t-82 -23.5zM432 -8q-154 0 -263 109t-109 264q0 153 109 262t263 109q152 0 261 -107q18 2 32.5 15t14.5 31v87h33v-88q0 -53 -57 -70
q87 -105 87 -239q0 -155 -108.5 -264t-262.5 -109zM432 25q140 0 239 99t99 242q0 140 -99 238.5t-239 98.5t-239.5 -98.5t-99.5 -238.5q0 -143 99 -242t240 -99z" />
    <glyph glyph-name="uni1EDF" unicode="&#x1edf;" horiz-adv-x="661" 
d="M312 636v33q78 0 78 52q0 22 -17 36t-46 14q-21 0 -42.5 -7.5t-29.5 -15.5l-16 28q33 28 87 28q45 0 71 -24t26 -60q0 -37 -29 -60.5t-82 -23.5zM331 -5q-117 0 -199 82.5t-82 198.5t82 198t199 82q116 0 198 -82q17 4 29.5 16t12.5 29v87h33v-88q0 -25 -15 -43t-38 -26
q60 -74 60 -173q0 -116 -82 -198.5t-198 -82.5zM331 28q101 0 174 73t73 175t-73 174.5t-174 72.5q-103 0 -175.5 -72.5t-72.5 -174.5t72.5 -175t175.5 -73z" />
    <glyph glyph-name="uni1EE0" unicode="&#x1ee0;" horiz-adv-x="863" 
d="M493 836q-23 -3 -44 9t-34.5 28t-30.5 29t-32 12q-40 -2 -40 -70h-33q0 46 20.5 73.5t50.5 29.5q23 2 43 -10.5t32.5 -28t30 -28.5t34.5 -12q36 2 36 70h33q0 -47 -18.5 -73.5t-47.5 -28.5zM432 -8q-154 0 -263 109t-109 264q0 153 109 262t263 109q152 0 261 -107
q18 2 32.5 15t14.5 31v87h33v-88q0 -53 -57 -70q87 -105 87 -239q0 -155 -108.5 -264t-262.5 -109zM432 25q140 0 239 99t99 242q0 140 -99 238.5t-239 98.5t-239.5 -98.5t-99.5 -238.5q0 -143 99 -242t240 -99z" />
    <glyph glyph-name="uni1EE1" unicode="&#x1ee1;" horiz-adv-x="661" 
d="M405 666q-23 -2 -44 9.5t-34.5 27.5t-30.5 29t-32 12q-40 -2 -40 -70h-33q0 46 20 73.5t51 29.5q28 2 52 -18t45.5 -41t42.5 -20q36 2 36 70h33q0 -47 -18.5 -73t-47.5 -29zM331 -5q-117 0 -199 82.5t-82 198.5t82 198t199 82q116 0 198 -82q17 4 29.5 16t12.5 29v87h33
v-88q0 -25 -15 -43t-38 -26q60 -74 60 -173q0 -116 -82 -198.5t-198 -82.5zM331 28q101 0 174 73t73 175t-73 174.5t-174 72.5q-103 0 -175.5 -72.5t-72.5 -174.5t72.5 -175t175.5 -73z" />
    <glyph glyph-name="uni1EE2" unicode="&#x1ee2;" horiz-adv-x="863" 
d="M432 -8q-154 0 -263 109t-109 264q0 153 109 262t263 109q152 0 261 -107q18 2 32.5 15t14.5 31v87h33v-88q0 -53 -57 -70q87 -105 87 -239q0 -155 -108.5 -264t-262.5 -109zM432 25q140 0 239 99t99 242q0 140 -99 238.5t-239 98.5t-239.5 -98.5t-99.5 -238.5
q0 -143 99 -242t240 -99zM432 -133q-14 0 -23.5 9.5t-9.5 23.5t9.5 23.5t23.5 9.5q13 0 22.5 -10t9.5 -23t-9.5 -23t-22.5 -10z" />
    <glyph glyph-name="uni1EE3" unicode="&#x1ee3;" horiz-adv-x="661" 
d="M331 -5q-117 0 -199 82.5t-82 198.5t82 198t199 82q116 0 198 -82q17 4 29.5 16t12.5 29v87h33v-88q0 -25 -15 -43t-38 -26q60 -74 60 -173q0 -116 -82 -198.5t-198 -82.5zM331 28q101 0 174 73t73 175t-73 174.5t-174 72.5q-103 0 -175.5 -72.5t-72.5 -174.5t72.5 -175
t175.5 -73zM331 -133q-13 0 -23 9.5t-10 23.5t10 23.5t23 9.5t22.5 -10t9.5 -23t-9.5 -23t-22.5 -10z" />
    <glyph glyph-name="uni1EE4" unicode="&#x1ee4;" horiz-adv-x="730" 
d="M366 -6q-120 0 -198 76t-78 209v451h33v-450q0 -122 67 -187.5t171 -65.5q106 0 176 65.5t70 187.5v450h33v-451q0 -132 -78 -208.5t-196 -76.5zM366 -133q-14 0 -23.5 9.5t-9.5 23.5t9.5 23.5t23.5 9.5q13 0 22.5 -10t9.5 -23t-9.5 -23t-22.5 -10z" />
    <glyph glyph-name="uni1EE5" unicode="&#x1ee5;" 
d="M311 -5q-103 0 -169.5 72t-66.5 205v278h33v-278q0 -120 57 -182t146 -62t146 62t57 182v278h33v-550h-33v123q-24 -56 -76.5 -92t-126.5 -36zM312 -133q-14 0 -23.5 9.5t-9.5 23.5t9.5 23.5t23.5 9.5q13 0 22.5 -10t9.5 -23t-9.5 -23t-22.5 -10z" />
    <glyph glyph-name="uni1EE6" unicode="&#x1ee6;" horiz-adv-x="730" 
d="M324 806v33q78 0 78 52q0 22 -17 36t-46 14q-21 0 -42.5 -7.5t-29.5 -15.5l-16 28q33 28 87 28q45 0 71 -24t26 -60q0 -37 -29 -60.5t-82 -23.5zM366 -6q-120 0 -198 76t-78 209v451h33v-450q0 -122 67 -187.5t171 -65.5q106 0 176 65.5t70 187.5v450h33v-451
q0 -132 -78 -208.5t-196 -76.5z" />
    <glyph glyph-name="uni1EE7" unicode="&#x1ee7;" 
d="M291 636v33q78 0 78 52q0 22 -17 36t-46 14q-21 0 -42.5 -7.5t-29.5 -15.5l-16 28q33 28 87 28q45 0 71 -24t26 -60q0 -37 -29 -60.5t-82 -23.5zM311 -5q-103 0 -169.5 72t-66.5 205v278h33v-278q0 -120 57 -182t146 -62t146 62t57 182v278h33v-550h-33v123
q-24 -56 -76.5 -92t-126.5 -36z" />
    <glyph glyph-name="uni1EE8" unicode="&#x1ee8;" horiz-adv-x="730" 
d="M354 816h-30l65 148h35zM366 -6q-120 0 -198 76t-78 209v451h33v-450q0 -122 67 -187.5t171 -65.5q106 0 176 65.5t70 187.5v450h20q33 0 33 37v62h33v-63q0 -62 -53 -68v-419q0 -132 -78 -208.5t-196 -76.5z" />
    <glyph glyph-name="uni1EE9" unicode="&#x1ee9;" 
d="M310 646h-30l65 148h35zM311 -5q-103 0 -169.5 72t-66.5 205v278h33v-278q0 -120 57 -182t146 -62t146 62t57 182v278h31q26 6 26 32v87h33v-88q0 -48 -57 -57v-524h-33v123q-24 -56 -76.5 -92t-126.5 -36z" />
    <glyph glyph-name="uni1EEA" unicode="&#x1eea;" horiz-adv-x="730" 
d="M384 816h-30l-70 148h35zM366 -6q-120 0 -198 76t-78 209v451h33v-450q0 -122 67 -187.5t171 -65.5q106 0 176 65.5t70 187.5v450h20q33 0 33 37v62h33v-63q0 -62 -53 -68v-419q0 -132 -78 -208.5t-196 -76.5z" />
    <glyph glyph-name="uni1EEB" unicode="&#x1eeb;" 
d="M340 646h-30l-70 148h35zM311 -5q-103 0 -169.5 72t-66.5 205v278h33v-278q0 -120 57 -182t146 -62t146 62t57 182v278h31q26 6 26 32v87h33v-88q0 -48 -57 -57v-524h-33v123q-24 -56 -76.5 -92t-126.5 -36z" />
    <glyph glyph-name="uni1EEC" unicode="&#x1eec;" horiz-adv-x="730" 
d="M350 806v33q78 0 78 52q0 22 -17 36t-46 14q-21 0 -42.5 -7.5t-29.5 -15.5l-16 28q33 28 87 28q45 0 71 -24t26 -60q0 -37 -29 -60.5t-82 -23.5zM366 -6q-120 0 -198 76t-78 209v451h33v-450q0 -122 67 -187.5t171 -65.5q106 0 176 65.5t70 187.5v450h20q33 0 33 37v62
h33v-63q0 -62 -53 -68v-419q0 -132 -78 -208.5t-196 -76.5z" />
    <glyph glyph-name="uni1EED" unicode="&#x1eed;" 
d="M291 636v33q78 0 78 52q0 22 -17 36t-46 14q-21 0 -42.5 -7.5t-29.5 -15.5l-16 28q33 28 87 28q45 0 71 -24t26 -60q0 -37 -29 -60.5t-82 -23.5zM311 -5q-103 0 -169.5 72t-66.5 205v278h33v-278q0 -120 57 -182t146 -62t146 62t57 182v278h31q26 6 26 32v87h33v-88
q0 -48 -57 -57v-524h-33v123q-24 -56 -76.5 -92t-126.5 -36z" />
    <glyph glyph-name="uni1EEE" unicode="&#x1eee;" horiz-adv-x="730" 
d="M438 836q-23 -3 -44 9t-34.5 28t-30.5 29t-32 12q-40 -2 -40 -70h-33q0 46 20.5 73.5t50.5 29.5q23 2 43 -10.5t32.5 -28t30 -28.5t34.5 -12q36 2 36 70h33q0 -47 -18.5 -73.5t-47.5 -28.5zM366 -6q-120 0 -198 76t-78 209v451h33v-450q0 -122 67 -187.5t171 -65.5
q106 0 176 65.5t70 187.5v450h20q33 0 33 37v62h33v-63q0 -62 -53 -68v-419q0 -132 -78 -208.5t-196 -76.5z" />
    <glyph glyph-name="uni1EEF" unicode="&#x1eef;" 
d="M384 666q-23 -2 -44 9.5t-34.5 27.5t-30.5 29t-32 12q-40 -2 -40 -70h-33q0 46 20 73.5t51 29.5q28 2 52 -18t45.5 -41t42.5 -20q36 2 36 70h33q0 -47 -18.5 -73t-47.5 -29zM311 -5q-103 0 -169.5 72t-66.5 205v278h33v-278q0 -120 57 -182t146 -62t146 62t57 182v278h31
q26 6 26 32v87h33v-88q0 -48 -57 -57v-524h-33v123q-24 -56 -76.5 -92t-126.5 -36z" />
    <glyph glyph-name="uni1EF0" unicode="&#x1ef0;" horiz-adv-x="730" 
d="M366 -6q-120 0 -198 76t-78 209v451h33v-450q0 -122 67 -187.5t171 -65.5q106 0 176 65.5t70 187.5v450h20q33 0 33 37v62h33v-63q0 -62 -53 -68v-419q0 -132 -78 -208.5t-196 -76.5zM366 -133q-14 0 -23.5 9.5t-9.5 23.5t9.5 23.5t23.5 9.5q13 0 22.5 -10t9.5 -23
t-9.5 -23t-22.5 -10z" />
    <glyph glyph-name="uni1EF1" unicode="&#x1ef1;" 
d="M311 -5q-103 0 -169.5 72t-66.5 205v278h33v-278q0 -120 57 -182t146 -62t146 62t57 182v278h31q26 6 26 32v87h33v-88q0 -48 -57 -57v-524h-33v123q-24 -56 -76.5 -92t-126.5 -36zM340 -133q-14 0 -23.5 9.5t-9.5 23.5t9.5 23.5t23.5 9.5q13 0 22.5 -10t9.5 -23
t-9.5 -23t-22.5 -10z" />
    <glyph glyph-name="Ygrave" unicode="&#x1ef2;" horiz-adv-x="640" 
d="M329 816h-30l-70 148h35zM336 0h-33v326l-283 404h41l259 -371l259 371h41l-284 -406v-324z" />
    <glyph glyph-name="ygrave" unicode="&#x1ef3;" horiz-adv-x="560" 
d="M330 646h-30l-70 148h35zM111 -220q-44 0 -91 21l13 31q40 -19 78 -19q23 0 43 11t33 24t30.5 43.5t25.5 48.5t27 60l-234 550h36l216 -508l216 508h36l-234 -550q-54 -123 -92.5 -171.5t-102.5 -48.5z" />
    <glyph glyph-name="uni1EF4" unicode="&#x1ef4;" horiz-adv-x="640" 
d="M336 0h-33v326l-283 404h41l259 -371l259 371h41l-284 -406v-324zM321 -133q-13 0 -23 9.5t-10 23.5t10 23.5t23 9.5t22.5 -10t9.5 -23t-9.5 -23t-22.5 -10z" />
    <glyph glyph-name="uni1EF4" unicode="&#x1ef5;" horiz-adv-x="640" 
d="M336 0h-33v326l-283 404h41l259 -371l259 371h41l-284 -406v-324zM321 -133q-13 0 -23 9.5t-10 23.5t10 23.5t23 9.5t22.5 -10t9.5 -23t-9.5 -23t-22.5 -10z" />
    <glyph glyph-name="uni1EF6" unicode="&#x1ef6;" horiz-adv-x="640" 
d="M301 806v33q78 0 78 52q0 22 -17 36t-46 14q-21 0 -42.5 -7.5t-29.5 -15.5l-16 28q33 28 87 28q45 0 71 -24t26 -60q0 -37 -29 -60.5t-82 -23.5zM336 0h-33v326l-283 404h41l259 -371l259 371h41l-284 -406v-324z" />
    <glyph glyph-name="uni1EF7" unicode="&#x1ef7;" horiz-adv-x="560" 
d="M261 636v33q78 0 78 52q0 22 -17 36t-46 14q-21 0 -42.5 -7.5t-29.5 -15.5l-16 28q33 28 87 28q45 0 71 -24t26 -60q0 -37 -29 -60.5t-82 -23.5zM111 -220q-44 0 -91 21l13 31q40 -19 78 -19q23 0 43 11t33 24t30.5 43.5t25.5 48.5t27 60l-234 550h36l216 -508l216 508
h36l-234 -550q-54 -123 -92.5 -171.5t-102.5 -48.5z" />
    <glyph glyph-name="uni1EF8" unicode="&#x1ef8;" horiz-adv-x="640" 
d="M394 836q-23 -3 -44 9t-34.5 28t-30.5 29t-32 12q-40 -2 -40 -70h-33q0 46 20.5 73.5t50.5 29.5q23 2 43 -10.5t32.5 -28t30 -28.5t34.5 -12q36 2 36 70h33q0 -47 -18.5 -73.5t-47.5 -28.5zM336 0h-33v326l-283 404h41l259 -371l259 371h41l-284 -406v-324z" />
    <glyph glyph-name="uni1EF9" unicode="&#x1ef9;" horiz-adv-x="560" 
d="M354 666q-23 -3 -44 9t-34.5 28t-30.5 29t-32 12q-40 -2 -40 -70h-33q0 46 20.5 73.5t50.5 29.5q23 2 43 -10.5t32.5 -28t30 -28.5t34.5 -12q36 2 36 70h33q0 -47 -18.5 -73.5t-47.5 -28.5zM111 -220q-44 0 -91 21l13 31q40 -19 78 -19q23 0 43 11t33 24t30.5 43.5
t25.5 48.5t27 60l-234 550h36l216 -508l216 508h36l-234 -550q-54 -123 -92.5 -171.5t-102.5 -48.5z" />
    <glyph glyph-name="endash" unicode="&#x2013;" horiz-adv-x="507" 
d="M467 308h-427v33h426z" />
    <glyph glyph-name="emdash" unicode="&#x2014;" horiz-adv-x="993" 
d="M953 308h-913v33h912z" />
    <glyph glyph-name="quoteleft" unicode="&#x2018;" horiz-adv-x="200" 
d="M95 532h-35l50 198h30z" />
    <glyph glyph-name="quoteright" unicode="&#x2019;" horiz-adv-x="140" 
d="M60 532h-30l45 198h35z" />
    <glyph glyph-name="quotesinglbase" unicode="&#x201a;" horiz-adv-x="180" 
d="M90 -140h-30l25 198h35z" />
    <glyph glyph-name="quotedblleft" unicode="&#x201c;" horiz-adv-x="315" 
d="M95 532h-35l50 198h30zM210 532h-35l50 198h30z" />
    <glyph glyph-name="quotedblright" unicode="&#x201d;" horiz-adv-x="315" 
d="M90 532h-30l45 198h35zM205 532h-30l45 198h35z" />
    <glyph glyph-name="quotedblbase" unicode="&#x201e;" horiz-adv-x="295" 
d="M90 -140h-30l25 198h35zM205 -140h-30l25 198h35z" />
    <glyph glyph-name="dagger" unicode="&#x2020;" horiz-adv-x="581" 
d="M307 0h-33v534h-209v33h209v213h33v-213h208l1 -33h-209v-534z" />
    <glyph glyph-name="daggerdbl" unicode="&#x2021;" horiz-adv-x="550" 
d="M291 0h-33v255h-193v33h193v246h-193v33h193v213h33v-213h194v-33h-194v-246h194v-33h-194v-255z" />
    <glyph glyph-name="bullet" unicode="&#x2022;" horiz-adv-x="385" 
d="M193 188q-64 0 -108.5 44.5t-44.5 108.5t44.5 108.5t108.5 44.5t108 -44.5t44 -108.5t-44 -108.5t-108 -44.5z" />
    <glyph glyph-name="ellipsis" unicode="&#x2026;" horiz-adv-x="535" 
d="M73 0q-13 0 -23 10t-10 23t10 23t23 10t22.5 -10t9.5 -23t-9.5 -23t-22.5 -10zM268 0q-14 0 -23.5 10t-9.5 23t9.5 23t23.5 10q13 0 22.5 -10t9.5 -23t-9.5 -23t-22.5 -10zM463 0q-13 0 -23 10t-10 23t10 23t23 10t22.5 -10t9.5 -23t-9.5 -23t-22.5 -10z" />
    <glyph glyph-name="perthousand" unicode="&#x2030;" horiz-adv-x="1164" 
d="M214 0h-37l404 781h37zM198 390q-73 0 -115.5 53.5t-42.5 143.5q0 88 42.5 140.5t115.5 52.5q72 0 114 -52.5t42 -140.5q0 -90 -42 -143.5t-114 -53.5zM197 423q53 0 88.5 40t35.5 125q0 82 -35.5 120.5t-88.5 38.5q-52 0 -88 -39t-36 -120q0 -85 36 -125t88 -40z
M579 -10q-73 0 -115.5 53.5t-42.5 143.5q0 88 42.5 140.5t115.5 52.5q72 0 114 -52.5t42 -140.5q0 -90 -42 -143.5t-114 -53.5zM968 -10q-73 0 -115.5 53.5t-42.5 143.5q0 88 42.5 140.5t115.5 52.5q72 0 114 -52.5t42 -140.5q0 -90 -42 -143.5t-114 -53.5zM578 23
q53 0 88.5 40t35.5 125q0 82 -35.5 120.5t-88.5 38.5q-52 0 -88 -39t-36 -120q0 -85 36 -125t88 -40zM967 23q53 0 88.5 40t35.5 125q0 82 -35.5 120.5t-88.5 38.5q-52 0 -88 -39t-36 -120q0 -85 36 -125t88 -40z" />
    <glyph glyph-name="guilsinglleft" unicode="&#x2039;" horiz-adv-x="300" 
d="M240 185h-41l-139 180l139 180h41l-138 -180z" />
    <glyph glyph-name="guilsinglright" unicode="&#x203a;" horiz-adv-x="300" 
d="M101 185h-41l138 180l-138 180h41l139 -180z" />
    <glyph glyph-name="fraction" unicode="&#x2044;" horiz-adv-x="431" 
d="M57 0h-37l354 730h37z" />
    <glyph glyph-name="franc" unicode="&#x20a3;" horiz-adv-x="606" 
d="M133 0h-33v171h-60v33h60v526h456v-33h-423v-305h403v-33h-403v-155h280v-33h-280v-171z" />
    <glyph glyph-name="lira" unicode="&#x20a4;" horiz-adv-x="640" 
d="M580 0h-520v33h90v202h-70v33h70v146h-70v33h70q0 138 59 214.5t162 76.5q57 0 106.5 -29t80.5 -77l-28 -17q-26 41 -68 65.5t-91 24.5q-89 0 -138.5 -67.5t-49.5 -190.5h317v-33h-317v-146h317v-33h-317v-202h397v-33z" />
    <glyph glyph-name="peseta" unicode="&#x20a7;" horiz-adv-x="712" 
d="M130 496h-80v32h80v202h273q93 0 156.5 -58.5t69.5 -143.5h73v-32h-74q-7 -84 -70 -141t-155 -57h-240v-298h-33v496zM163 697v-169h432q-5 70 -58.5 119.5t-133.5 49.5h-240zM163 496v-165h240q80 0 132.5 48t59.5 117h-432z" />
    <glyph glyph-name="Euro" unicode="&#x20ac;" horiz-adv-x="722" 
d="M412 -11q-120 0 -204.5 75.5t-108.5 204.5h-59v33h54q-4 27 -4 63t4 63h-54v33h59q24 129 108.5 204.5t204.5 75.5q155 0 270 -110l-25 -22q-42 43 -108 71t-137 28q-100 0 -178 -64t-102 -183h295l1 -33h-301q-4 -27 -4 -63t4 -63h300l1 -33h-296q24 -119 101.5 -183
t178.5 -64q136 0 246 99l24 -22q-115 -110 -270 -110z" />
    <glyph glyph-name="uni2113" unicode="&#x2113;" horiz-adv-x="448" 
d="M239 -10q-61 0 -100 51.5t-39 142.5v103q-21 -3 -40 -3v33q20 0 40 3v298q0 74 37.5 118t98.5 44q74 0 114 -55t38 -130q-2 -117 -77 -196.5t-178 -105.5v-110q0 -65 26.5 -112t82.5 -47q113 0 113 184h33q0 -218 -149 -218zM133 618v-291q93 25 157.5 101.5t64.5 166.5
q0 73 -33.5 112.5t-87.5 39.5q-49 0 -75 -37t-26 -92z" />
    <glyph glyph-name="uni2116" unicode="&#x2116;" horiz-adv-x="1133" 
d="M123 0h-33v730h33l536 -677v677h33v-730h-33l-536 677v-677zM933 410q-67 0 -113.5 47t-46.5 113q0 67 46.5 113.5t113.5 46.5q66 0 113 -46.5t47 -113.5q0 -66 -47 -113t-113 -47zM933 444q52 0 89 37t37 89t-37 88.5t-89 36.5t-88.5 -36.5t-36.5 -88.5t36.5 -89
t88.5 -37zM1093 297h-320v33h320v-33z" />
    <glyph glyph-name="trademark" unicode="&#x2122;" horiz-adv-x="556" 
d="M130 550h-33v198h-77v32h187v-32h-77v-198zM290 550h-33v230h33l87 -144l86 144h33v-230h-33v166l-75 -125h-23l-75 125v-166z" />
    <glyph glyph-name="uni2126" unicode="&#x2126;" horiz-adv-x="863" 
d="M347 0h-280v33h191q-90 47 -144 136t-54 197q0 153 109 262t263 109t262.5 -109t108.5 -262q0 -108 -54.5 -197t-144.5 -136h191v-33h-280v33q111 28 183 121t72 213q0 140 -99 238.5t-239 98.5q-141 0 -240 -98.5t-99 -238.5q0 -120 71.5 -213t182.5 -121v-33z" />
    <glyph glyph-name="estimated" unicode="&#x212e;" horiz-adv-x="631" 
d="M329 -12q-119 0 -199 83t-80 203q0 119 77.5 202t188.5 83q110 0 187.5 -83.5t77.5 -201.5q0 -19 -1 -28h-408v-158q65 -59 157 -59q110 0 179 87l35 -21q-37 -50 -92.5 -78.5t-121.5 -28.5zM172 462v-172h291v168q-63 60 -147 60q-82 0 -144 -56z" />
    <glyph glyph-name="uni2150" unicode="&#x2150;" horiz-adv-x="707" 
d="M76 0h-37l404 781h37zM108 336h-33v411h-45v33h78v-444zM474 0h-37l198 411h-250v33h287v-33z" />
    <glyph glyph-name="uni2151" unicode="&#x2151;" horiz-adv-x="704" 
d="M76 0h-37l404 781h37zM108 336h-33v411h-45v33h78v-444zM449 0h-44l125 139q-79 -9 -134.5 36.5t-55.5 117.5q0 64 47.5 110t114.5 46t114.5 -45.5t47.5 -110.5q0 -57 -57 -119zM505 170q53 0 89.5 36.5t36.5 86.5t-37 86.5t-89 36.5q-55 0 -93.5 -36.5t-38.5 -86.5
t38.5 -86.5t93.5 -36.5z" />
    <glyph glyph-name="uni2152" unicode="&#x2152;" horiz-adv-x="1010" 
d="M76 0h-37l404 781h37zM108 336h-33v411h-45v33h78v-444zM783 -10q-85 0 -134.5 62.5t-49.5 166.5q0 102 49.5 163.5t134.5 61.5q84 0 133 -61.5t49 -163.5q0 -104 -49 -166.5t-133 -62.5zM511 -1h-33v411h-45v33h78v-444zM782 23q64 0 107 48t43 149q0 97 -43 144
t-107 47t-107 -47t-43 -144q0 -101 43 -149t107 -48z" />
    <glyph glyph-name="onethird" unicode="&#x2153;" horiz-adv-x="677" 
d="M76 0h-37l404 781h37zM108 336h-33v411h-45v33h78v-444zM492 -10q-48 0 -86 23t-56 58l30 14q14 -27 44.5 -44.5t68.5 -17.5q46 0 76 26t30 68q0 41 -31.5 70t-76.5 29h-20v33h19q40 0 65.5 25.5t25.5 56.5q0 38 -26.5 59t-64.5 21q-58 0 -86 -46l-27 18q17 27 47 44
t65 17q53 0 89 -31t36 -81q0 -65 -60 -98q35 -16 56.5 -47.5t21.5 -70.5q0 -55 -40.5 -90.5t-99.5 -35.5z" />
    <glyph glyph-name="twothirds" unicode="&#x2154;" horiz-adv-x="845" 
d="M325 336h-290v33l188 163q60 53 60 108q0 45 -28 78.5t-81 33.5q-42 0 -69.5 -27t-35.5 -56l-31 11q12 46 50 75.5t86 29.5q60 0 101 -40t41 -105q0 -70 -73 -134l-158 -137h240v-33zM244 0h-37l404 781h37zM660 -10q-48 0 -86 23t-56 58l30 14q14 -27 44.5 -44.5
t68.5 -17.5q46 0 76 26t30 68q0 41 -31.5 70t-76.5 29h-20v33h19q40 0 65.5 25.5t25.5 56.5q0 38 -26.5 59t-64.5 21q-58 0 -86 -46l-27 18q17 27 47 44t65 17q53 0 89 -31t36 -81q0 -65 -60 -98q35 -16 56.5 -47.5t21.5 -70.5q0 -55 -40.5 -90.5t-99.5 -35.5z" />
    <glyph glyph-name="uni2155" unicode="&#x2155;" horiz-adv-x="722" 
d="M76 0h-37l404 781h37zM108 336h-33v411h-45v33h78v-444zM528 -8q-50 0 -90 28t-56 72l31 11q12 -34 44 -55.5t71 -21.5q50 0 85.5 35t35.5 84t-35.5 83.5t-85.5 34.5q-36 0 -66 -20t-45 -52h-32l17 251h271v-33h-239l-12 -156q45 43 106 43q64 0 109 -44.5t45 -106.5
q0 -63 -45 -108t-109 -45z" />
    <glyph glyph-name="uni2156" unicode="&#x2156;" horiz-adv-x="882" 
d="M325 336h-290v33l188 163q60 53 60 108q0 45 -28 78.5t-81 33.5q-42 0 -69.5 -27t-35.5 -56l-31 11q12 46 50 75.5t86 29.5q60 0 101 -40t41 -105q0 -70 -73 -134l-158 -137h240v-33zM244 0h-37l404 781h37zM688 -9q-50 0 -90 29t-56 73l31 11q12 -34 44 -55.5t71 -21.5
q50 0 85.5 35t35.5 84t-35.5 83.5t-85.5 34.5q-36 0 -66 -20t-45 -52h-32l17 251h271v-33h-239l-12 -156q45 43 106 43q64 0 109 -44.5t45 -106.5q0 -63 -45.5 -109t-108.5 -46z" />
    <glyph glyph-name="uni2157" unicode="&#x2157;" horiz-adv-x="882" 
d="M244 0h-37l404 781h37zM177 325q-48 0 -86 23t-56 58l30 14q14 -27 44.5 -44.5t68.5 -17.5q46 0 76 26t30 68q0 41 -31.5 70t-76.5 29h-20v33h19q40 0 65.5 25.5t25.5 56.5q0 38 -26.5 59t-64.5 21q-58 0 -86 -46l-27 18q17 27 47 44t65 17q53 0 89 -31t36 -81
q0 -65 -60 -98q35 -16 56.5 -47.5t21.5 -70.5q0 -55 -40.5 -90.5t-99.5 -35.5zM688 -8q-50 0 -90 28t-56 72l31 11q12 -34 44 -55.5t71 -21.5q50 0 85.5 35t35.5 84t-35.5 83.5t-85.5 34.5q-36 0 -66 -20t-45 -52h-32l17 251h271v-33h-239l-12 -156q45 43 106 43
q64 0 109 -44.5t45 -106.5q0 -63 -45 -108t-109 -45z" />
    <glyph glyph-name="uni2158" unicode="&#x2158;" horiz-adv-x="882" 
d="M244 0h-37l404 781h37zM300 335h-33v123h-247v33l247 288h33v-288h30v-33h-30v-123zM267 729l-204 -238h204v238zM688 -8q-50 0 -90 28t-56 72l31 11q12 -34 44 -55.5t71 -21.5q50 0 85.5 35t35.5 84t-35.5 83.5t-85.5 34.5q-36 0 -66 -20t-45 -52h-32l17 251h271v-33
h-239l-12 -156q45 43 106 43q64 0 109 -44.5t45 -106.5q0 -63 -45 -108t-109 -45z" />
    <glyph glyph-name="uni2159" unicode="&#x2159;" horiz-adv-x="666" 
d="M76 0h-37l404 781h37zM108 336h-33v411h-45v33h78v-444zM464 -8q-67 0 -114.5 46t-47.5 111q0 56 57 119l158 174h44l-125 -139q79 9 134.5 -36.5t55.5 -117.5q0 -65 -47.5 -111t-114.5 -46zM461 26q55 0 93.5 36.5t38.5 86.5t-38.5 86.5t-93.5 36.5q-53 0 -89.5 -36.5
t-36.5 -86.5t37 -86.5t89 -36.5z" />
    <glyph glyph-name="uni215A" unicode="&#x215a;" horiz-adv-x="860" 
d="M240 0h-37l404 781h37zM191 331q-50 0 -90 27.5t-56 71.5l31 11q12 -34 44 -55.5t71 -21.5q50 0 85.5 35t35.5 84t-35.5 83.5t-85.5 34.5q-36 0 -66 -20t-45 -52h-32l17 251h271v-33h-239l-12 -155q45 42 106 42q64 0 109 -44.5t45 -106.5q0 -63 -45 -107.5t-109 -44.5z
M658 -8q-67 0 -114.5 46t-47.5 111q0 55 57 119l158 174h44l-125 -139q79 9 134.5 -36.5t55.5 -117.5q0 -65 -47.5 -111t-114.5 -46zM655 26q55 0 93.5 36.5t38.5 86.5t-38.5 86.5t-93.5 36.5q-53 0 -89.5 -37t-36.5 -86q0 -50 37 -86.5t89 -36.5z" />
    <glyph glyph-name="oneeighth" unicode="&#x215b;" horiz-adv-x="689" 
d="M76 0h-37l404 781h37zM108 336h-33v411h-45v33h78v-444zM494 -10q-63 0 -107.5 36t-44.5 94q0 41 22.5 72.5t60.5 47.5q-59 30 -59 94q0 48 36.5 79t90.5 31q53 0 89.5 -31t36.5 -79q0 -63 -58 -94q38 -15 60.5 -46t22.5 -71q0 -57 -43.5 -95t-106.5 -38zM493 255
q38 0 65.5 22t27.5 56t-27.5 56t-65.5 22q-39 0 -66.5 -22t-27.5 -56t27.5 -56t66.5 -22zM494 23q49 0 83 28.5t34 71.5t-33.5 71t-84.5 28q-49 0 -83.5 -28.5t-34.5 -70.5q0 -44 33.5 -72t85.5 -28z" />
    <glyph glyph-name="threeeighths" unicode="&#x215c;" horiz-adv-x="857" 
d="M244 0h-37l404 781h37zM177 325q-48 0 -86 23t-56 58l30 14q14 -27 44.5 -44.5t68.5 -17.5q46 0 76 26t30 68q0 41 -31.5 70t-76.5 29h-20v33h19q40 0 65.5 25.5t25.5 56.5q0 38 -26.5 59t-64.5 21q-58 0 -86 -46l-27 18q17 27 47 44t65 17q53 0 89 -31t36 -81
q0 -65 -60 -98q35 -16 56.5 -47.5t21.5 -70.5q0 -55 -40.5 -90.5t-99.5 -35.5zM662 -10q-63 0 -107.5 36t-44.5 94q0 41 22.5 72.5t60.5 47.5q-59 30 -59 94q0 48 36.5 79t90.5 31q53 0 89.5 -31t36.5 -79q0 -63 -58 -94q38 -15 60.5 -46t22.5 -71q0 -57 -43.5 -95
t-106.5 -38zM661 255q38 0 65.5 22t27.5 56t-27.5 56t-65.5 22q-39 0 -66.5 -22t-27.5 -56t27.5 -56t66.5 -22zM662 23q49 0 83 28.5t34 71.5t-33.5 71t-84.5 28q-49 0 -83.5 -28.5t-34.5 -70.5q0 -44 33.5 -72t85.5 -28z" />
    <glyph glyph-name="fiveeighths" unicode="&#x215d;" horiz-adv-x="853" 
d="M240 0h-37l404 781h37zM191 331q-50 0 -90 27.5t-56 71.5l31 11q12 -34 44 -55.5t71 -21.5q50 0 85.5 35t35.5 84t-35.5 83.5t-85.5 34.5q-36 0 -66 -20t-45 -52h-32l17 251h271v-33h-239l-12 -155q45 42 106 42q64 0 109 -44.5t45 -106.5q0 -63 -45 -107.5t-109 -44.5z
M658 -10q-63 0 -107.5 36t-44.5 94q0 41 22.5 72.5t60.5 47.5q-59 30 -59 94q0 48 36.5 79t90.5 31q53 0 89.5 -31t36.5 -79q0 -63 -58 -94q38 -15 60.5 -46t22.5 -71q0 -57 -43.5 -95t-106.5 -38zM657 255q38 0 65.5 22t27.5 56t-27.5 56t-65.5 22q-39 0 -66.5 -22
t-27.5 -56t27.5 -56t66.5 -22zM658 23q49 0 83 28.5t34 71.5t-33.5 71t-84.5 28q-49 0 -83.5 -28.5t-34.5 -70.5q0 -44 33.5 -72t85.5 -28z" />
    <glyph glyph-name="seveneighths" unicode="&#x215e;" horiz-adv-x="724" 
d="M111 0h-37l404 781h37zM128 336h-36l179 411h-251v33h287v-33zM529 -10q-63 0 -107.5 36t-44.5 94q0 41 22.5 72.5t60.5 47.5q-59 30 -59 94q0 48 36.5 79t90.5 31q53 0 89.5 -31t36.5 -79q0 -63 -58 -94q38 -15 60.5 -46t22.5 -71q0 -57 -43.5 -95t-106.5 -38zM528 255
q38 0 65.5 22t27.5 56t-27.5 56t-65.5 22q-39 0 -66.5 -22t-27.5 -56t27.5 -56t66.5 -22zM529 23q49 0 83 28.5t34 71.5t-33.5 71t-84.5 28q-49 0 -83.5 -28.5t-34.5 -70.5q0 -44 33.5 -72t85.5 -28z" />
    <glyph glyph-name="arrowleft" unicode="&#x2190;" horiz-adv-x="800" 
d="M387 85h-47l-280 280l280 280h47l-263 -263h616v-33h-617z" />
    <glyph glyph-name="arrowup" unicode="&#x2191;" horiz-adv-x="680" 
d="M356 25h-33v616l-263 -263v47l280 280l280 -280v-47l-264 264v-617z" />
    <glyph glyph-name="arrowright" unicode="&#x2192;" horiz-adv-x="800" 
d="M460 85h-47l264 264h-617v33h616l-263 263h47l280 -280z" />
    <glyph glyph-name="arrowdown" unicode="&#x2193;" horiz-adv-x="680" 
d="M620 305l-280 -280l-280 280v47l263 -263v616h33v-617l264 264v-47z" />
    <glyph glyph-name="arrowboth" unicode="&#x2194;" horiz-adv-x="874" 
d="M387 85h-47l-280 280l280 280h47l-263 -263h626l-263 263h47l280 -280l-280 -280h-47l264 264h-628z" />
    <glyph glyph-name="arrowupdn" unicode="&#x2195;" horiz-adv-x="680" 
d="M620 268l-280 -280l-280 280v47l263 -263v626l-263 -263v47l280 280l280 -280v-47l-264 264v-628l264 264v-47z" />
    <glyph glyph-name="uni2196" unicode="&#x2196;" horiz-adv-x="612" 
d="M552 148l-24 -23l-435 435v-372l-33 33v396h396l33 -33h-373z" />
    <glyph glyph-name="uni2197" unicode="&#x2197;" horiz-adv-x="612" 
d="M519 560l-435 -435l-24 23l436 436h-373l33 33h396v-396l-33 -33v372z" />
    <glyph glyph-name="uni2198" unicode="&#x2198;" horiz-adv-x="612" 
d="M552 125h-396l-33 33h373l-436 436l24 23l435 -435v372l33 -33v-396z" />
    <glyph glyph-name="uni2199" unicode="&#x2199;" horiz-adv-x="612" 
d="M456 125h-396v396l33 33v-372l435 435l24 -23l-436 -436h373z" />
    <glyph glyph-name="partialdiff" unicode="&#x2202;" horiz-adv-x="602" 
d="M252 -8q-93 0 -153.5 75.5t-46.5 179.5t93 178.5t176 74.5q64 0 113.5 -35t72.5 -93q12 92 -0.5 164.5t-53 117t-106.5 44.5q-96 0 -164 -70l-23 27q84 83 192 83q110 0 163.5 -104t30.5 -269q-13 -96 -33 -159q-31 -99 -100 -156.5t-161 -57.5zM257 32q81 0 147 64.5
t77 150.5q11 89 -35 151.5t-130 62.5q-81 0 -147 -63.5t-77 -150.5q-12 -89 36 -152t129 -63z" />
    <glyph glyph-name="product" unicode="&#x220f;" horiz-adv-x="705" 
d="M113 -220h-33v950h545v-950h-33v917h-479v-917z" />
    <glyph glyph-name="summation" unicode="&#x2211;" horiz-adv-x="580" 
d="M520 -220h-460v33l296 470l-278 414v33h426v-33h-386l278 -414l-297 -470h421v-33z" />
    <glyph glyph-name="minus" unicode="&#x2212;" horiz-adv-x="540" 
d="M480 349h-420v33h420v-33z" />
    <glyph glyph-name="uni2215" unicode="&#x2215;" horiz-adv-x="456" 
d="M58 0h-38l378 730h38z" />
    <glyph glyph-name="radical" unicode="&#x221a;" horiz-adv-x="580" 
d="M301 0h-36l-150 386h-50v33h73l144 -370l243 761h35z" />
    <glyph glyph-name="infinity" unicode="&#x221e;" horiz-adv-x="719" 
d="M201 188q-64 0 -107.5 45.5t-43.5 110.5q0 64 43.5 109.5t107.5 45.5q96 0 159 -119q61 119 158 119q64 0 107.5 -45.5t43.5 -109.5q0 -65 -43.5 -110.5t-107.5 -45.5q-98 0 -158 119q-62 -119 -159 -119zM200 221q47 0 77.5 29.5t64.5 93.5q-31 61 -63 91.5t-79 30.5
q-49 0 -83 -35.5t-34 -85.5q0 -51 33.5 -87.5t83.5 -36.5zM519 221q50 0 83.5 36.5t33.5 87.5q0 50 -34 85.5t-83 35.5q-47 0 -79 -30.5t-63 -91.5q34 -64 64.5 -93.5t77.5 -29.5z" />
    <glyph glyph-name="integral" unicode="&#x222b;" horiz-adv-x="359" 
d="M10 -220v33q58 0 82 27t32 88l78 654q8 75 41 111.5t106 36.5v-33q-58 0 -82 -27t-32 -88l-78 -654q-8 -75 -41 -111.5t-106 -36.5z" />
    <glyph glyph-name="approxequal" unicode="&#x2248;" horiz-adv-x="500" 
d="M374 342q-43 -5 -83 16.5t-78.5 44.5t-75.5 22q-64 -2 -87 -76l-30 15q32 94 118 94q41 1 81.5 -22t78 -44t75.5 -16q55 6 77 75l30 -15q-29 -86 -106 -94zM374 201q-43 -5 -83 16.5t-78.5 44.5t-75.5 22q-64 -2 -87 -76l-30 15q32 94 118 94q41 1 81.5 -22t78 -44
t75.5 -16q55 6 77 75l30 -15q-29 -86 -106 -94z" />
    <glyph glyph-name="notequal" unicode="&#x2260;" horiz-adv-x="540" 
d="M165 78h-36l70 177h-139v33h152l58 146h-210v33h223l74 186h36l-74 -186h161v-33h-174l-58 -146h232v-33h-245z" />
    <glyph glyph-name="lessequal" unicode="&#x2264;" horiz-adv-x="520" 
d="M460 238v-36l-400 175v36l400 175v-36l-359 -157zM460 90h-400v33h400v-33z" />
    <glyph glyph-name="greaterequal" unicode="&#x2265;" horiz-adv-x="520" 
d="M460 377l-400 -175v36l359 157l-359 157v36l400 -175v-36zM460 90h-400v33h400v-33z" />
    <glyph glyph-name="uni2460" unicode="&#x2460;" horiz-adv-x="853" 
d="M427 -13q-157 0 -267 110.5t-110 267.5q0 155 110 265.5t267 110.5q156 0 266 -110.5t110 -265.5q0 -157 -110 -267.5t-266 -110.5zM427 18q141 0 242.5 102.5t101.5 244.5q0 141 -101.5 243t-242.5 102q-142 0 -243.5 -102t-101.5 -243q0 -143 101.5 -245t243.5 -102z
M442 142h-33v411h-45v33h78v-444z" />
    <glyph glyph-name="uni2461" unicode="&#x2461;" horiz-adv-x="853" 
d="M427 -13q-157 0 -267 110.5t-110 267.5q0 155 110 265.5t267 110.5q156 0 266 -110.5t110 -265.5q0 -157 -110 -267.5t-266 -110.5zM427 18q141 0 242.5 102.5t101.5 244.5q0 141 -101.5 243t-242.5 102q-142 0 -243.5 -102t-101.5 -243q0 -143 101.5 -245t243.5 -102z
M572 140h-290v33l188 163q60 51 60 108q0 45 -28 78.5t-81 33.5q-42 0 -69.5 -27t-35.5 -56l-31 11q12 46 50 75.5t86 29.5q60 0 101 -40t41 -105q0 -72 -73 -134l-158 -137h240v-33z" />
    <glyph glyph-name="uni2462" unicode="&#x2462;" horiz-adv-x="853" 
d="M427 -13q-157 0 -267 110.5t-110 267.5q0 155 110 265.5t267 110.5q156 0 266 -110.5t110 -265.5q0 -157 -110 -267.5t-266 -110.5zM427 18q141 0 242.5 102.5t101.5 244.5q0 141 -101.5 243t-242.5 102q-142 0 -243.5 -102t-101.5 -243q0 -143 101.5 -245t243.5 -102z
M428 137q-48 0 -86 23t-56 58l30 14q14 -27 44.5 -44.5t68.5 -17.5q46 0 76 26t30 68q0 41 -31.5 70t-77.5 29h-19v33h19q40 0 65.5 25.5t25.5 56.5q0 38 -26.5 59t-64.5 21q-58 0 -86 -46l-27 18q17 27 47 44t65 17q53 0 89 -31t36 -81q0 -65 -60 -98q35 -16 56.5 -47.5
t21.5 -70.5q0 -55 -40.5 -90.5t-99.5 -35.5z" />
    <glyph glyph-name="uni2463" unicode="&#x2463;" horiz-adv-x="853" 
d="M427 -13q-157 0 -267 110.5t-110 267.5q0 155 110 265.5t267 110.5q156 0 266 -110.5t110 -265.5q0 -157 -110 -267.5t-266 -110.5zM427 18q141 0 242.5 102.5t101.5 244.5q0 141 -101.5 243t-242.5 102q-142 0 -243.5 -102t-101.5 -243q0 -143 101.5 -245t243.5 -102z
M502 142h-33v123h-247v33l247 288h33v-288h30v-33h-30v-123zM469 536l-204 -238h204v238z" />
    <glyph glyph-name="uni2464" unicode="&#x2464;" horiz-adv-x="853" 
d="M427 -13q-157 0 -267 110.5t-110 267.5q0 155 110 265.5t267 110.5q156 0 266 -110.5t110 -265.5q0 -157 -110 -267.5t-266 -110.5zM427 18q141 0 242.5 102.5t101.5 244.5q0 141 -101.5 243t-242.5 102q-142 0 -243.5 -102t-101.5 -243q0 -143 101.5 -245t243.5 -102z
M423 140q-50 0 -90 27.5t-56 71.5l31 11q12 -34 44 -55.5t71 -21.5q50 0 85.5 35t35.5 84t-35.5 83.5t-85.5 34.5q-36 0 -66 -20t-45 -52h-32l17 251h271v-33h-239l-12 -155q45 42 106 42q64 0 109 -44.5t45 -106.5q0 -63 -45 -107.5t-109 -44.5z" />
    <glyph glyph-name="uni2465" unicode="&#x2465;" horiz-adv-x="853" 
d="M427 -13q-157 0 -267 110.5t-110 267.5q0 155 110 265.5t267 110.5q156 0 266 -110.5t110 -265.5q0 -157 -110 -267.5t-266 -110.5zM427 18q141 0 242.5 102.5t101.5 244.5q0 141 -101.5 243t-242.5 102q-142 0 -243.5 -102t-101.5 -243q0 -143 101.5 -245t243.5 -102z
M411 140q-67 0 -114.5 45.5t-47.5 110.5q0 57 35 97l178 196h44l-125 -140q76 8 134 -36t58 -117q0 -64 -47.5 -110t-114.5 -46zM408 173q55 0 93.5 36.5t38.5 86.5t-38.5 86.5t-93.5 36.5q-52 0 -89 -36.5t-37 -86.5t37 -86.5t89 -36.5z" />
    <glyph glyph-name="uni2466" unicode="&#x2466;" horiz-adv-x="853" 
d="M427 -13q-157 0 -267 110.5t-110 267.5q0 155 110 265.5t267 110.5q156 0 266 -110.5t110 -265.5q0 -157 -110 -267.5t-266 -110.5zM427 18q141 0 242.5 102.5t101.5 244.5q0 141 -101.5 243t-242.5 102q-142 0 -243.5 -102t-101.5 -243q0 -143 101.5 -245t243.5 -102z
M391 142h-36l179 411h-251v33h287v-33z" />
    <glyph glyph-name="uni2467" unicode="&#x2467;" horiz-adv-x="853" 
d="M427 -13q-157 0 -267 110.5t-110 267.5q0 155 110 265.5t267 110.5q156 0 266 -110.5t110 -265.5q0 -157 -110 -267.5t-266 -110.5zM427 18q141 0 242.5 102.5t101.5 244.5q0 141 -101.5 243t-242.5 102q-142 0 -243.5 -102t-101.5 -243q0 -143 101.5 -245t243.5 -102z
M424 137q-63 0 -107.5 36t-44.5 94q0 41 22.5 72.5t60.5 47.5q-59 29 -59 94q0 48 36.5 79t90.5 31q53 0 89.5 -31.5t36.5 -78.5q0 -63 -58 -94q38 -15 60.5 -46t22.5 -71q0 -57 -43.5 -95t-106.5 -38zM423 402q38 0 65.5 22t27.5 56t-27.5 56t-65.5 22q-39 0 -66.5 -22
t-27.5 -56t27.5 -56t66.5 -22zM424 170q49 0 83 28.5t34 71.5t-33.5 71t-84.5 28q-49 0 -83.5 -28.5t-34.5 -70.5q0 -44 33.5 -72t85.5 -28z" />
    <glyph glyph-name="uni2468" unicode="&#x2468;" horiz-adv-x="853" 
d="M427 -13q-157 0 -267 110.5t-110 267.5q0 155 110 265.5t267 110.5q156 0 266 -110.5t110 -265.5q0 -157 -110 -267.5t-266 -110.5zM427 18q141 0 242.5 102.5t101.5 244.5q0 141 -101.5 243t-242.5 102q-142 0 -243.5 -102t-101.5 -243q0 -143 101.5 -245t243.5 -102z
M380 140h-44l125 140q-76 -8 -134 36t-58 117q0 64 47.5 110t114.5 46t114.5 -45.5t47.5 -110.5q0 -57 -35 -97zM434 310q52 0 89 36.5t37 86.5t-37 86.5t-89 36.5q-55 0 -93.5 -36.5t-38.5 -86.5t38.5 -86.5t93.5 -36.5z" />
    <glyph glyph-name="uni24EA" unicode="&#x24ea;" horiz-adv-x="853" 
d="M427 -13q-157 0 -267 110.5t-110 267.5q0 155 110 265.5t267 110.5q156 0 266 -110.5t110 -265.5q0 -157 -110 -267.5t-266 -110.5zM427 18q141 0 242.5 102.5t101.5 244.5q0 141 -101.5 243t-242.5 102q-142 0 -243.5 -102t-101.5 -243q0 -143 101.5 -245t243.5 -102z
M432 137q-85 0 -134.5 62.5t-49.5 166.5q0 102 49.5 163.5t134.5 61.5q84 0 133 -61.5t49 -163.5q0 -104 -49 -166.5t-133 -62.5zM431 170q64 0 107 48t43 149q0 97 -43 144t-107 47t-107 -47t-43 -144q0 -101 43 -149t107 -48z" />
    <glyph glyph-name="uni24FF" unicode="&#x24ff;" horiz-adv-x="853" 
d="M427 -13q-157 0 -267 110.5t-110 267.5q0 155 110 265.5t267 110.5q156 0 266 -110.5t110 -265.5q0 -157 -110 -267.5t-266 -110.5zM432 137q84 0 133 62.5t49 166.5q0 102 -49 163.5t-133 61.5q-85 0 -134.5 -61.5t-49.5 -163.5q0 -104 49.5 -166.5t134.5 -62.5z
M431 170q-64 0 -107 48t-43 149q0 97 43 144t107 47t107 -47t43 -144q0 -101 -43 -149t-107 -48z" />
    <glyph glyph-name="lozenge" unicode="&#x25ca;" horiz-adv-x="544" 
d="M291 0h-37l-194 365l194 365h37l193 -365zM98 365l174 -329l175 329l-175 329z" />
    <glyph glyph-name="uni2776" unicode="&#x2776;" horiz-adv-x="853" 
d="M427 -13q-157 0 -267 110.5t-110 267.5q0 155 110 265.5t267 110.5q156 0 266 -110.5t110 -265.5q0 -157 -110 -267.5t-266 -110.5zM409 553v-411h33v444h-78v-33h45z" />
    <glyph glyph-name="uni2777" unicode="&#x2777;" horiz-adv-x="853" 
d="M427 -13q-157 0 -267 110.5t-110 267.5q0 155 110 265.5t267 110.5q156 0 266 -110.5t110 -265.5q0 -157 -110 -267.5t-266 -110.5zM282 173v-33h290v33h-240l158 137q73 62 73 134q0 65 -41 105t-101 40q-48 0 -86 -29.5t-50 -75.5l31 -11q8 29 35.5 56t69.5 27
q53 0 81 -33.5t28 -78.5q0 -57 -60 -108z" />
    <glyph glyph-name="uni2778" unicode="&#x2778;" horiz-adv-x="853" 
d="M427 -13q-157 0 -267 110.5t-110 267.5q0 155 110 265.5t267 110.5q156 0 266 -110.5t110 -265.5q0 -157 -110 -267.5t-266 -110.5zM428 137q59 0 99.5 35.5t40.5 90.5q0 39 -21.5 70.5t-56.5 47.5q60 33 60 98q0 50 -36 81t-89 31q-35 0 -65 -17t-47 -44l27 -18
q28 46 86 46q38 0 64.5 -21t26.5 -59q0 -31 -25.5 -56.5t-65.5 -25.5h-19v-33h19q46 0 77.5 -29t31.5 -70q0 -42 -30 -68t-76 -26q-38 0 -68.5 17.5t-44.5 44.5l-30 -14q18 -35 56 -58t86 -23z" />
    <glyph glyph-name="uni2779" unicode="&#x2779;" horiz-adv-x="853" 
d="M427 -13q-157 0 -267 110.5t-110 267.5q0 155 110 265.5t267 110.5q156 0 266 -110.5t110 -265.5q0 -157 -110 -267.5t-266 -110.5zM469 265v-123h33v123h30v33h-30v288h-33l-247 -288v-33h247zM469 298h-204l204 238v-238z" />
    <glyph glyph-name="uni277A" unicode="&#x277a;" horiz-adv-x="853" 
d="M427 -13q-157 0 -267 110.5t-110 267.5q0 155 110 265.5t267 110.5q156 0 266 -110.5t110 -265.5q0 -157 -110 -267.5t-266 -110.5zM423 140q64 0 109 44.5t45 107.5q0 62 -45 106.5t-109 44.5q-61 0 -106 -42l12 155h239v33h-271l-17 -251h32q15 32 45 52t66 20
q50 0 85.5 -34.5t35.5 -83.5t-35.5 -84t-85.5 -35q-39 0 -71 21.5t-44 55.5l-31 -11q16 -44 56 -71.5t90 -27.5z" />
    <glyph glyph-name="uni277B" unicode="&#x277b;" horiz-adv-x="853" 
d="M427 -13q-157 0 -267 110.5t-110 267.5q0 155 110 265.5t267 110.5q156 0 266 -110.5t110 -265.5q0 -157 -110 -267.5t-266 -110.5zM411 140q67 0 114.5 46t47.5 110q0 73 -58 117t-134 36l125 140h-44l-178 -196q-35 -40 -35 -97q0 -65 47.5 -110.5t114.5 -45.5z
M408 173q-52 0 -89 36.5t-37 86.5t37 86.5t89 36.5q55 0 93.5 -36.5t38.5 -86.5t-38.5 -86.5t-93.5 -36.5z" />
    <glyph glyph-name="uni277C" unicode="&#x277c;" horiz-adv-x="853" 
d="M427 -13q-157 0 -267 110.5t-110 267.5q0 155 110 265.5t267 110.5q156 0 266 -110.5t110 -265.5q0 -157 -110 -267.5t-266 -110.5zM534 553l-179 -411h36l179 411v33h-287v-33h251z" />
    <glyph glyph-name="uni277D" unicode="&#x277d;" horiz-adv-x="853" 
d="M427 -13q-157 0 -267 110.5t-110 267.5q0 155 110 265.5t267 110.5q156 0 266 -110.5t110 -265.5q0 -157 -110 -267.5t-266 -110.5zM424 137q63 0 106.5 38t43.5 95q0 40 -22.5 71t-60.5 46q58 31 58 94q0 47 -36.5 78.5t-89.5 31.5q-54 0 -90.5 -31t-36.5 -79
q0 -65 59 -94q-38 -16 -60.5 -47.5t-22.5 -72.5q0 -58 44.5 -94t107.5 -36zM423 402q-39 0 -66.5 22t-27.5 56t27.5 56t66.5 22q38 0 65.5 -22t27.5 -56t-27.5 -56t-65.5 -22zM424 170q-52 0 -85.5 28t-33.5 72q0 42 34.5 70.5t83.5 28.5q51 0 84.5 -28t33.5 -71t-34 -71.5
t-83 -28.5z" />
    <glyph glyph-name="uni277E" unicode="&#x277e;" horiz-adv-x="853" 
d="M427 -13q-157 0 -267 110.5t-110 267.5q0 155 110 265.5t267 110.5q156 0 266 -110.5t110 -265.5q0 -157 -110 -267.5t-266 -110.5zM461 280l-125 -140h44l178 196q35 40 35 97q0 65 -47.5 110.5t-114.5 45.5t-114.5 -46t-47.5 -110q0 -73 58 -117t134 -36zM434 310
q-55 0 -93.5 36.5t-38.5 86.5t38.5 86.5t93.5 36.5q52 0 89 -36.5t37 -86.5t-37 -86.5t-89 -36.5z" />
    <glyph glyph-name="a.ss01" horiz-adv-x="691" 
d="M638 33h13v-33h-14q-26 0 -42.5 17t-16.5 42v89q-27 -66 -96.5 -110t-151.5 -44q-116 0 -198 82t-82 198t82 198.5t198 82.5q82 0 151.5 -45t96.5 -113v153h33v-490q0 -12 7.5 -19.5t19.5 -7.5zM330 27q103 0 175.5 72.5t72.5 174.5t-72.5 175t-175.5 73q-101 0 -174 -73
t-73 -175t73 -174.5t174 -72.5z" />
    <glyph glyph-name="d.ss01" horiz-adv-x="691" 
d="M638 33h13v-33h-14q-26 0 -42.5 17t-16.5 42v90q-27 -66 -96.5 -110.5t-151.5 -44.5q-116 0 -198 82t-82 198t82 198.5t198 82.5q82 0 151.5 -45t96.5 -113v383h33v-720q0 -12 7.5 -19.5t19.5 -7.5zM330 27q103 0 175.5 72.5t72.5 174.5t-72.5 175t-175.5 73
q-101 0 -174 -73t-73 -175t73 -174.5t174 -72.5z" />
    <glyph glyph-name="l.ss01" horiz-adv-x="203" 
d="M163 0h-14q-26 0 -42.5 17t-16.5 42v721h33v-720q0 -12 7.5 -19.5t19.5 -7.5h13v-33z" />
    <glyph glyph-name="m.ss01" horiz-adv-x="916" 
d="M645 555q87 0 141.5 -63t54.5 -194v-298h-33v298q0 118 -45 171t-118 53q-70 0 -116.5 -54t-46.5 -170v-298h-33v298q0 118 -45 171t-118 53q-71 0 -117 -62.5t-46 -181.5v-278h-33v490q0 12 -7.5 19.5t-19.5 7.5h-13v33h14q25 0 42 -18t17 -42v-53q19 56 65 87t98 31
q74 0 120.5 -41t60.5 -105q14 63 61 104.5t117 41.5z" />
    <glyph glyph-name="n.ss01" 
d="M326 555q103 0 169.5 -72t66.5 -205v-278h-33v278q0 120 -57 182t-146 62t-146 -62t-57 -182v-278h-33v490q0 12 -7.5 19.5t-19.5 7.5h-13v33h14q25 0 42 -18t17 -42v-63q24 56 76.5 92t126.5 36z" />
    <glyph glyph-name="p.ss01" horiz-adv-x="691" 
d="M361 556q116 0 198 -82t82 -198t-82 -198.5t-198 -82.5q-82 0 -151.5 45t-96.5 113v-373h-33v710q0 12 -7.5 19.5t-19.5 7.5h-13v33h14q26 0 42.5 -17t16.5 -42v-90q27 66 96.5 110.5t151.5 44.5zM361 28q101 0 174 73t73 175t-73 174.5t-174 72.5q-103 0 -175.5 -72.5
t-72.5 -174.5t72.5 -175t175.5 -73z" />
    <glyph glyph-name="r.ss01" horiz-adv-x="365" 
d="M306 551q20 0 29 -1l-7 -33q-7 1 -23 1q-87 2 -139.5 -57t-52.5 -174v-287h-33v490q0 12 -7.5 19.5t-19.5 7.5h-13v33h14q25 0 42 -18t17 -42v-46q55 110 193 107z" />
    <glyph glyph-name="u.ss01" horiz-adv-x="627" 
d="M574 33h13v-33h-14q-25 0 -42 18t-17 42v63q-24 -56 -76.5 -92t-126.5 -36q-103 0 -169.5 72t-66.5 205v278h33v-278q0 -120 57 -182t146 -62t146 62t57 182v278h33v-490q0 -12 7.5 -19.5t19.5 -7.5z" />
    <glyph glyph-name="A.ss02" horiz-adv-x="751" 
d="M66 0h-36l343 750h5l343 -750h-36l-114 249h-391zM376 676l-181 -394h361z" />
    <glyph glyph-name="N.ss02" horiz-adv-x="764" 
d="M664 -20h-5l-526 679v-659h-33v750h5l526 -679v659h33v-750z" />
    <glyph glyph-name="V.ss02" horiz-adv-x="711" 
d="M358 -20h-5l-333 750h36l300 -675l299 675h36z" />
    <glyph glyph-name="W.ss02" horiz-adv-x="982" 
d="M293 -20h-5l-268 750h35l233 -652l201 672h4l201 -672l233 652h35l-268 -750h-5l-198 660z" />
    <glyph glyph-name="Z.ss02" horiz-adv-x="641" 
d="M591 0h-551v5l482 692h-462v33h521v-5l-481 -692h491v-33z" />
    <glyph glyph-name="R.ss02" horiz-adv-x="603" 
d="M313 298h-99l349 -298h-51l-379 322v-322h-33v730h213q97 0 161.5 -63t64.5 -153t-64.5 -153t-161.5 -63zM313 697h-180v-366h180q85 0 139 54.5t54 128.5t-54 128.5t-139 54.5z" />
    <glyph glyph-name="v.ss02" horiz-adv-x="523" 
d="M264 -20h-5l-239 570h36l206 -490l205 490h36z" />
    <glyph glyph-name="w.ss02" horiz-adv-x="817" 
d="M253 -20h-5l-223 570h35l188 -480l158 500h5l158 -500l188 480h35l-223 -570h-5l-155 489z" />
    <glyph glyph-name="z.ss02" horiz-adv-x="579" 
d="M519 0h-459v5l396 512h-386v33h449v-5l-396 -512h396v-33z" />
    <glyph glyph-name="k.ss02" horiz-adv-x="503" 
d="M123 0h-33v780h33v-487l274 257h48l-290 -273l328 -277h-51l-309 261v-261z" />
    <glyph glyph-name="K.ss02" horiz-adv-x="599" 
d="M132 0h-32v730h32v-353l356 353h46l-375 -373l410 -357h-51l-386 337v-337z" />
    <glyph glyph-name="Iacute_J.loclNLD" horiz-adv-x="683" 
d="M134 816h-30l65 148h35zM592 816h-30l65 148h35zM133 0h-33v730h33v-730zM382 -5q-72 0 -129 43l20 26q47 -36 109 -36q79 0 128.5 54t49.5 144v504h33v-504q0 -103 -59 -167t-152 -64z" />
    <glyph glyph-name="G.ss01" horiz-adv-x="834" 
d="M437 -13q-157 0 -267 110.5t-110 267.5q0 155 110 265.5t267 110.5q91 0 170 -40.5t132 -111.5l-27 -20q-48 64 -120 101t-155 37q-142 0 -242.5 -99.5t-100.5 -241.5q0 -144 100.5 -244.5t242.5 -100.5q96 0 175.5 44t123.5 122v203h-255v33h288v-245
q-47 -90 -135.5 -140.5t-196.5 -50.5z" />
    <glyph glyph-name="Gbreve.ss01" horiz-adv-x="834" 
d="M416 816q-62 0 -107 43t-50 105h33q4 -48 39.5 -81.5t84.5 -33.5q48 0 83 33.5t39 81.5h33q-5 -62 -49.5 -105t-105.5 -43zM437 -13q-157 0 -267 110.5t-110 267.5q0 155 110 265.5t267 110.5q91 0 170 -40.5t132 -111.5l-27 -20q-48 64 -120 101t-155 37
q-142 0 -242.5 -99.5t-100.5 -241.5q0 -144 100.5 -244.5t242.5 -100.5q96 0 175.5 44t123.5 122v203h-255v33h288v-245q-47 -90 -135.5 -140.5t-196.5 -50.5z" />
    <glyph glyph-name="Gcaron.ss01" horiz-adv-x="834" 
d="M458 830h-44l-108 120h44l86 -96l86 96h44zM437 -13q-157 0 -267 110.5t-110 267.5q0 155 110 265.5t267 110.5q91 0 170 -40.5t132 -111.5l-27 -20q-48 64 -120 101t-155 37q-142 0 -242.5 -99.5t-100.5 -241.5q0 -144 100.5 -244.5t242.5 -100.5q96 0 175.5 44
t123.5 122v203h-255v33h288v-245q-47 -90 -135.5 -140.5t-196.5 -50.5z" />
    <glyph glyph-name="Gcircumflex.ss01" horiz-adv-x="834" 
d="M344 830h-44l108 120h44l108 -120h-44l-86 96zM437 -13q-157 0 -267 110.5t-110 267.5q0 155 110 265.5t267 110.5q91 0 170 -40.5t132 -111.5l-27 -20q-48 64 -120 101t-155 37q-142 0 -242.5 -99.5t-100.5 -241.5q0 -144 100.5 -244.5t242.5 -100.5q96 0 175.5 44
t123.5 122v203h-255v33h288v-245q-47 -90 -135.5 -140.5t-196.5 -50.5z" />
    <glyph glyph-name="uni0122.ss01" horiz-adv-x="834" 
d="M437 -13q-157 0 -267 110.5t-110 267.5q0 155 110 265.5t267 110.5q91 0 170 -40.5t132 -111.5l-27 -20q-48 64 -120 101t-155 37q-142 0 -242.5 -99.5t-100.5 -241.5q0 -144 100.5 -244.5t242.5 -100.5q96 0 175.5 44t123.5 122v203h-255v33h288v-245
q-47 -90 -135.5 -140.5t-196.5 -50.5zM437 -185h-32l18 140h35z" />
    <glyph glyph-name="Gdotaccent.ss01" horiz-adv-x="834" 
d="M434 857q-14 0 -23.5 9.5t-9.5 23.5t9.5 23.5t23.5 9.5q13 0 22.5 -10t9.5 -23t-9.5 -23t-22.5 -10zM437 -13q-157 0 -267 110.5t-110 267.5q0 155 110 265.5t267 110.5q91 0 170 -40.5t132 -111.5l-27 -20q-48 64 -120 101t-155 37q-142 0 -242.5 -99.5t-100.5 -241.5
q0 -144 100.5 -244.5t242.5 -100.5q96 0 175.5 44t123.5 122v203h-255v33h288v-245q-47 -90 -135.5 -140.5t-196.5 -50.5z" />
    <glyph glyph-name="M.ss01" horiz-adv-x="890" 
d="M65 0h-35l173 730h35l207 -657l207 657h35l173 -730h-35l-158 666l-209 -666h-26l-209 666z" />
    <glyph glyph-name="uni1E3E.ss01" horiz-adv-x="890" 
d="M425 816h-30l65 148h35zM65 0h-35l173 730h35l207 -657l207 657h35l173 -730h-35l-158 666l-209 -666h-26l-209 666z" />
    <glyph glyph-name="W.ss01" horiz-adv-x="957" 
d="M284 0h-34l-220 730h34l204 -677l198 537h25l198 -537l204 677h34l-220 -730h-34l-194 528z" />
    <glyph glyph-name="Wacute.ss01" horiz-adv-x="957" 
d="M499 816h-30l65 148h35zM284 0h-34l-220 730h34l204 -677l198 537h25l198 -537l204 677h34l-220 -730h-34l-194 528z" />
    <glyph glyph-name="Wcircumflex.ss01" horiz-adv-x="957" 
d="M387 830h-44l108 120h44l108 -120h-44l-86 96zM284 0h-34l-220 730h34l204 -677l198 537h25l198 -537l204 677h34l-220 -730h-34l-194 528z" />
    <glyph glyph-name="Wdieresis.ss01" horiz-adv-x="957" 
d="M387 857q-13 0 -23 9.5t-10 23.5t10 23.5t23 9.5t22.5 -10t9.5 -23t-9.5 -23t-22.5 -10zM572 857q-14 0 -23.5 9.5t-9.5 23.5t9.5 23.5t23.5 9.5q13 0 22.5 -10t9.5 -23t-9.5 -23t-22.5 -10zM284 0h-34l-220 730h34l204 -677l198 537h25l198 -537l204 677h34l-220 -730
h-34l-194 528z" />
    <glyph glyph-name="Wgrave.ss01" horiz-adv-x="957" 
d="M479 816h-30l-70 148h35zM284 0h-34l-220 730h34l204 -677l198 537h25l198 -537l204 677h34l-220 -730h-34l-194 528z" />
    <glyph glyph-name="Aacute.ss02" horiz-adv-x="751" 
d="M390 816h-30l65 148h35zM66 0h-36l343 750h5l343 -750h-36l-114 249h-391zM376 676l-181 -394h361z" />
    <glyph glyph-name="Abreve.ss02" horiz-adv-x="751" 
d="M374 816q-62 0 -107 43t-50 105h33q4 -48 39.5 -81.5t84.5 -33.5q48 0 83 33.5t39 81.5h33q-5 -62 -49.5 -105t-105.5 -43zM66 0h-36l343 750h5l343 -750h-36l-114 249h-391zM376 676l-181 -394h361z" />
    <glyph glyph-name="uni1EAE.ss02" horiz-adv-x="751" 
d="M386 946h-30l65 148h35zM377 796q-62 0 -107 43t-50 105h33q4 -48 39.5 -81.5t84.5 -33.5q48 0 83 33.5t39 81.5h33q-5 -62 -49.5 -105t-105.5 -43zM66 0h-36l343 750h5l343 -750h-36l-114 249h-391zM376 676l-181 -394h361z" />
    <glyph glyph-name="uni1EB6.ss02" horiz-adv-x="751" 
d="M377 816q-62 0 -107 43t-50 105h33q4 -48 39.5 -81.5t84.5 -33.5q48 0 83 33.5t39 81.5h33q-5 -62 -49.5 -105t-105.5 -43zM66 0h-36l343 750h5l343 -750h-36l-114 249h-391zM376 676l-181 -394h361zM376 -133q-14 0 -23.5 9.5t-9.5 23.5t9.5 23.5t23.5 9.5
q13 0 22.5 -10t9.5 -23t-9.5 -23t-22.5 -10z" />
    <glyph glyph-name="uni1EB0.ss02" horiz-adv-x="751" 
d="M396 946h-30l-70 148h35zM379 796q-62 0 -107 43t-50 105h33q4 -48 39.5 -81.5t84.5 -33.5q48 0 83 33.5t39 81.5h33q-5 -62 -49.5 -105t-105.5 -43zM66 0h-36l343 750h5l343 -750h-36l-114 249h-391zM376 676l-181 -394h361z" />
    <glyph glyph-name="uni1EB4.ss02" horiz-adv-x="751" 
d="M457 969q-23 -2 -44 9.5t-34.5 27.5t-30.5 29t-32 12q-40 -2 -40 -70h-33q0 46 20 73.5t51 29.5q28 2 52 -18t45.5 -41t42.5 -20q36 2 36 70h33q0 -47 -18.5 -73t-47.5 -29zM377 806q-62 0 -107 43t-50 105h33q4 -48 39.5 -81.5t84.5 -33.5q48 0 83 33.5t39 81.5h33
q-5 -62 -49.5 -105t-105.5 -43zM66 0h-36l343 750h5l343 -750h-36l-114 249h-391zM376 676l-181 -394h361z" />
    <glyph glyph-name="uni01CD.ss02" horiz-adv-x="751" 
d="M396 830h-44l-108 120h44l86 -96l86 96h44zM66 0h-36l343 750h5l343 -750h-36l-114 249h-391zM376 676l-181 -394h361z" />
    <glyph glyph-name="Acircumflex.ss02" horiz-adv-x="751" 
d="M290 830h-44l108 120h44l108 -120h-44l-86 96zM66 0h-36l343 750h5l343 -750h-36l-114 249h-391zM376 676l-181 -394h361z" />
    <glyph glyph-name="uni1EA4.ss02" horiz-adv-x="751" 
d="M461 911h-30l65 148h35zM282 792h-44l108 120h44l108 -120h-44l-86 96zM66 0h-36l343 750h5l343 -750h-36l-114 249h-391zM376 676l-181 -394h361z" />
    <glyph glyph-name="uni1EAC.ss02" horiz-adv-x="751" 
d="M290 830h-44l108 120h44l108 -120h-44l-86 96zM66 0h-36l343 750h5l343 -750h-36l-114 249h-391zM376 676l-181 -394h361zM376 -133q-14 0 -23.5 9.5t-9.5 23.5t9.5 23.5t23.5 9.5q13 0 22.5 -10t9.5 -23t-9.5 -23t-22.5 -10z" />
    <glyph glyph-name="uni1EA6.ss02" horiz-adv-x="751" 
d="M307 909h-30l-70 148h35zM285 793h-44l108 120h44l108 -120h-44l-86 96zM66 0h-36l343 750h5l343 -750h-36l-114 249h-391zM376 676l-181 -394h361z" />
    <glyph glyph-name="uni1EAA.ss02" horiz-adv-x="751" 
d="M450 935q-23 -3 -44 9t-34.5 28t-30.5 29t-32 12q-40 -2 -40 -70h-33q0 46 20.5 73.5t50.5 29.5q23 2 43 -10.5t32.5 -28t30 -28.5t34.5 -12q36 2 36 70h33q0 -47 -18.5 -73.5t-47.5 -28.5zM280 800h-44l108 120h44l108 -120h-44l-86 96zM66 0h-36l343 750h5l343 -750
h-36l-114 249h-391zM376 676l-181 -394h361z" />
    <glyph glyph-name="Adieresis.ss02" horiz-adv-x="751" 
d="M284 857q-14 0 -23.5 9.5t-9.5 23.5t9.5 23.5t23.5 9.5q13 0 22.5 -10t9.5 -23t-9.5 -23t-22.5 -10zM469 857q-13 0 -23 9.5t-10 23.5t10 23.5t23 9.5t22.5 -10t9.5 -23t-9.5 -23t-22.5 -10zM66 0h-36l343 750h5l343 -750h-36l-114 249h-391zM376 676l-181 -394h361z" />
    <glyph glyph-name="uni01DE.ss02" horiz-adv-x="751" 
d="M550 982h-350v33h350v-33zM280 836q-14 0 -23.5 10t-9.5 23t9.5 23t23.5 10q13 0 22.5 -10t9.5 -23t-9.5 -23t-22.5 -10zM465 836q-13 0 -23 10t-10 23t10 23t23 10t22.5 -10t9.5 -23t-9.5 -23t-22.5 -10zM66 0h-36l343 750h5l343 -750h-36l-114 249h-391zM376 676
l-181 -394h361z" />
    <glyph glyph-name="uni1EA0.ss02" horiz-adv-x="751" 
d="M66 0h-36l343 750h5l343 -750h-36l-114 249h-391zM376 676l-181 -394h361zM376 -133q-14 0 -23.5 9.5t-9.5 23.5t9.5 23.5t23.5 9.5q13 0 22.5 -10t9.5 -23t-9.5 -23t-22.5 -10z" />
    <glyph glyph-name="Agrave.ss02" horiz-adv-x="751" 
d="M395 816h-30l-70 148h35zM66 0h-36l343 750h5l343 -750h-36l-114 249h-391zM376 676l-181 -394h361z" />
    <glyph glyph-name="Amacron.ss02" horiz-adv-x="751" 
d="M551 874h-350v33h350v-33zM66 0h-36l343 750h5l343 -750h-36l-114 249h-391zM376 676l-181 -394h361z" />
    <glyph glyph-name="Aogonek.ss02" horiz-adv-x="751" 
d="M696 -218q-32 0 -54.5 24.5t-22.5 60.5q0 29 12 53t34.5 49.5t25.5 30.5h-8l-112 249h-391l-114 -249h-36l343 750h5l343 -750q-5 -8 -16.5 -24t-16 -22t-12 -18t-10.5 -18.5t-7 -16t-5.5 -17.5t-1.5 -16q0 -22 12.5 -37.5t31.5 -15.5q35 0 57 32l19 -26q-28 -39 -76 -39
zM376 676l-181 -394h361z" />
    <glyph glyph-name="Aring.ss02" horiz-adv-x="751" 
d="M376 784q-44 0 -75.5 31t-31.5 75t31.5 75.5t75.5 31.5t75.5 -31.5t31.5 -75.5t-31.5 -75t-75.5 -31zM376 816q31 0 52 21t21 53t-21 53.5t-52 21.5t-52 -21.5t-21 -53.5t21 -53t52 -21zM66 0h-36l343 750h5l343 -750h-36l-114 249h-391zM376 676l-181 -394h361z" />
    <glyph glyph-name="Aringacute.ss02" horiz-adv-x="751" 
d="M417 993h-30l65 148h35zM375 770q-44 0 -75.5 31t-31.5 75t31.5 75.5t75.5 31.5t75.5 -31.5t31.5 -75.5t-31.5 -75t-75.5 -31zM375 802q31 0 52 21t21 53t-21 53.5t-52 21.5t-52 -21.5t-21 -53.5t21 -53t52 -21zM66 0h-36l343 750h5l343 -750h-36l-114 249h-391zM376 676
l-181 -394h361z" />
    <glyph glyph-name="Atilde.ss02" horiz-adv-x="751" 
d="M450 836q-23 -3 -44 9t-34.5 28t-30.5 29t-32 12q-40 -2 -40 -70h-33q0 46 20.5 73.5t50.5 29.5q23 2 43 -10.5t32.5 -28t30 -28.5t34.5 -12q36 2 36 70h33q0 -47 -18.5 -73.5t-47.5 -28.5zM66 0h-36l343 750h5l343 -750h-36l-114 249h-391zM376 676l-181 -394h361z" />
    <glyph glyph-name="uni0136.ss02" horiz-adv-x="599" 
d="M132 0h-32v730h32v-353l356 353h46l-375 -373l410 -357h-51l-386 337v-337zM281 -185h-32l18 140h35z" />
    <glyph glyph-name="M.ss02" horiz-adv-x="857" 
d="M431 -20h-5l-215 656l-147 -636h-34l173 750h5l221 -670l220 670h5l173 -750h-34l-147 636z" />
    <glyph glyph-name="uni1E3E.ss02" horiz-adv-x="857" 
d="M409 816h-30l65 148h35zM431 -20h-5l-215 656l-147 -636h-34l173 750h5l221 -670l220 670h5l173 -750h-34l-147 636z" />
    <glyph glyph-name="Nacute.ss02" horiz-adv-x="764" 
d="M385 816h-30l65 148h35zM664 -20h-5l-526 679v-659h-33v750h5l526 -679v659h33v-750z" />
    <glyph glyph-name="Ncaron.ss02" horiz-adv-x="764" 
d="M402 830h-44l-108 120h44l86 -96l86 96h44zM664 -20h-5l-526 679v-659h-33v750h5l526 -679v659h33v-750z" />
    <glyph glyph-name="uni1E4A.ss02" horiz-adv-x="764" 
d="M664 -20h-5l-526 679v-659h-33v750h5l526 -679v659h33v-750zM296 -160h-44l108 120h44l108 -120h-44l-86 96z" />
    <glyph glyph-name="uni0145.ss02" horiz-adv-x="764" 
d="M664 -20h-5l-526 679v-659h-33v750h5l526 -679v659h33v-750zM379 -185h-32l18 140h35z" />
    <glyph glyph-name="uni1E46.ss02" horiz-adv-x="764" 
d="M664 -20h-5l-526 679v-659h-33v750h5l526 -679v659h33v-750zM390 -133q-14 0 -23.5 9.5t-9.5 23.5t9.5 23.5t23.5 9.5q13 0 22.5 -10t9.5 -23t-9.5 -23t-22.5 -10z" />
    <glyph glyph-name="Ntilde.ss02" horiz-adv-x="764" 
d="M444 836q-23 -2 -44 9.5t-34.5 27.5t-30.5 29t-32 12q-40 -2 -40 -70h-33q0 46 20 73.5t51 29.5q28 2 52 -18t45.5 -41t42.5 -20q36 2 36 70h33q0 -47 -18.5 -73t-47.5 -29zM664 -20h-5l-526 679v-659h-33v750h5l526 -679v659h33v-750z" />
    <glyph glyph-name="Racute.ss02" horiz-adv-x="603" 
d="M321 964h35l-70 -148h-30zM313 298h-99l349 -298h-51l-379 322v-322h-33v730h213q97 0 161.5 -63t64.5 -153t-64.5 -153t-161.5 -63zM313 697h-180v-366h180q85 0 139 54.5t54 128.5t-54 128.5t-139 54.5z" />
    <glyph glyph-name="Rcaron.ss02" horiz-adv-x="603" 
d="M420 950l-108 -120h-44l-108 120h44l86 -96l86 96h44zM313 298h-99l349 -298h-51l-379 322v-322h-33v730h213q97 0 161.5 -63t64.5 -153t-64.5 -153t-161.5 -63zM313 697h-180v-366h180q85 0 139 54.5t54 128.5t-54 128.5t-139 54.5z" />
    <glyph glyph-name="uni0156.ss02" horiz-adv-x="603" 
d="M313 298h-99l349 -298h-51l-379 322v-322h-33v730h213q97 0 161.5 -63t64.5 -153t-64.5 -153t-161.5 -63zM313 697h-180v-366h180q85 0 139 54.5t54 128.5t-54 128.5t-139 54.5zM281 -185h-32l18 140h35z" />
    <glyph glyph-name="Wacute.ss02" horiz-adv-x="982" 
d="M511 816h-30l65 148h35zM293 -20h-5l-268 750h35l233 -652l201 672h4l201 -672l233 652h35l-268 -750h-5l-198 660z" />
    <glyph glyph-name="Wcircumflex.ss02" horiz-adv-x="982" 
d="M405 830h-44l108 120h44l108 -120h-44l-86 96zM293 -20h-5l-268 750h35l233 -652l201 672h4l201 -672l233 652h35l-268 -750h-5l-198 660z" />
    <glyph glyph-name="Wdieresis.ss02" horiz-adv-x="982" 
d="M399 857q-13 0 -23 9.5t-10 23.5t10 23.5t23 9.5t22.5 -10t9.5 -23t-9.5 -23t-22.5 -10zM584 857q-14 0 -23.5 9.5t-9.5 23.5t9.5 23.5t23.5 9.5q13 0 22.5 -10t9.5 -23t-9.5 -23t-22.5 -10zM293 -20h-5l-268 750h35l233 -652l201 672h4l201 -672l233 652h35l-268 -750
h-5l-198 660z" />
    <glyph glyph-name="Wgrave.ss02" horiz-adv-x="982" 
d="M501 816h-30l-70 148h35zM293 -20h-5l-268 750h35l233 -652l201 672h4l201 -672l233 652h35l-268 -750h-5l-198 660z" />
    <glyph glyph-name="Zacute.ss02" horiz-adv-x="641" 
d="M306 816h-30l65 148h35zM591 0h-551v5l482 692h-462v33h521v-5l-481 -692h491v-33z" />
    <glyph glyph-name="Zcaron.ss02" horiz-adv-x="641" 
d="M338 830h-44l-108 120h44l86 -96l86 96h44zM591 0h-551v5l482 692h-462v33h521v-5l-481 -692h491v-33z" />
    <glyph glyph-name="Zdotaccent.ss02" horiz-adv-x="641" 
d="M316 857q-14 0 -23.5 9.5t-9.5 23.5t9.5 23.5t23.5 9.5q13 0 22.5 -10t9.5 -23t-9.5 -23t-22.5 -10zM591 0h-551v5l482 692h-462v33h521v-5l-481 -692h491v-33z" />
    <glyph glyph-name="uni1E92.ss02" horiz-adv-x="641" 
d="M591 0h-551v5l482 692h-462v33h521v-5l-481 -692h491v-33zM306 -133q-14 0 -23.5 9.5t-9.5 23.5t9.5 23.5t23.5 9.5q13 0 22.5 -10t9.5 -23t-9.5 -23t-22.5 -10z" />
    <glyph glyph-name="iacute_j.loclNLD" horiz-adv-x="431" 
d="M120 646h-30l65 148h35zM341 646h-30l65 148h35zM126 0h-33v550h33v-550zM189 -228q-30 0 -57 11l11 31q21 -9 46 -9q122 0 122 162v583h33v-583q0 -96 -42 -145.5t-113 -49.5z" />
    <glyph glyph-name="aacute.ss01" horiz-adv-x="691" 
d="M368 794h35l-70 -148h-30zM638 33h13v-33h-14q-26 0 -42.5 17t-16.5 42v90q-27 -66 -96.5 -110.5t-151.5 -44.5q-116 0 -198 82t-82 198t82 198.5t198 82.5q82 0 151.5 -45t96.5 -113v153h33v-490q0 -12 7.5 -19.5t19.5 -7.5zM330 27q103 0 175.5 72.5t72.5 174.5
t-72.5 175t-175.5 73q-101 0 -174 -73t-73 -175t73 -174.5t174 -72.5z" />
    <glyph glyph-name="abreve.ss01" horiz-adv-x="691" 
d="M344 646q-62 0 -107 43t-50 105h33q4 -48 39.5 -81.5t84.5 -33.5q48 0 83 33.5t39 81.5h33q-5 -62 -49.5 -105t-105.5 -43zM638 33h13v-33h-14q-26 0 -42.5 17t-16.5 42v90q-27 -66 -96.5 -110.5t-151.5 -44.5q-116 0 -198 82t-82 198t82 198.5t198 82.5q82 0 151.5 -45
t96.5 -113v153h33v-490q0 -12 7.5 -19.5t19.5 -7.5zM330 27q103 0 175.5 72.5t72.5 174.5t-72.5 175t-175.5 73q-101 0 -174 -73t-73 -175t73 -174.5t174 -72.5z" />
    <glyph glyph-name="uni1EAF.ss01" horiz-adv-x="691" 
d="M388 929h35l-70 -148h-30zM344 631q-62 0 -107 43t-50 105h33q4 -48 39.5 -81.5t84.5 -33.5q48 0 83 33.5t39 81.5h33q-5 -62 -49.5 -105t-105.5 -43zM638 33h13v-33h-14q-26 0 -42.5 17t-16.5 42v90q-27 -66 -96.5 -110.5t-151.5 -44.5q-116 0 -198 82t-82 198t82 198.5
t198 82.5q82 0 151.5 -45t96.5 -113v153h33v-490q0 -12 7.5 -19.5t19.5 -7.5zM330 27q103 0 175.5 72.5t72.5 174.5t-72.5 175t-175.5 73q-101 0 -174 -73t-73 -175t73 -174.5t174 -72.5z" />
    <glyph glyph-name="uni1EB7.ss01" horiz-adv-x="691" 
d="M344 646q-62 0 -107 43t-50 105h33q4 -48 39.5 -81.5t84.5 -33.5q48 0 83 33.5t39 81.5h33q-5 -62 -49.5 -105t-105.5 -43zM638 33h13v-33h-14q-26 0 -42.5 17t-16.5 42v90q-27 -66 -96.5 -110.5t-151.5 -44.5q-116 0 -198 82t-82 198t82 198.5t198 82.5q82 0 151.5 -45
t96.5 -113v153h33v-490q0 -12 7.5 -19.5t19.5 -7.5zM330 27q103 0 175.5 72.5t72.5 174.5t-72.5 175t-175.5 73q-101 0 -174 -73t-73 -175t73 -174.5t174 -72.5zM344 -67q13 0 22.5 -10t9.5 -23t-9.5 -23t-22.5 -10q-14 0 -23.5 9.5t-9.5 23.5t9.5 23.5t23.5 9.5z" />
    <glyph glyph-name="uni1EB1.ss01" horiz-adv-x="691" 
d="M292 929l65 -148h-30l-70 148h35zM340 631q-62 0 -107 43t-50 105h33q4 -48 39.5 -81.5t84.5 -33.5q48 0 83 33.5t39 81.5h33q-5 -62 -49.5 -105t-105.5 -43zM638 33h13v-33h-14q-26 0 -42.5 17t-16.5 42v90q-27 -66 -96.5 -110.5t-151.5 -44.5q-116 0 -198 82t-82 198
t82 198.5t198 82.5q82 0 151.5 -45t96.5 -113v153h33v-490q0 -12 7.5 -19.5t19.5 -7.5zM330 27q103 0 175.5 72.5t72.5 174.5t-72.5 175t-175.5 73q-101 0 -174 -73t-73 -175t73 -174.5t174 -72.5z" />
    </font>
</defs>
</svg>
